<?xml version="1.0" encoding="utf-8"?>
<!-- Generator: Adobe Illustrator 21.0.1, SVG Export Plug-In . SVG Version: 6.00 Build 0)  -->
<svg version="1.1" id="Layer_1" xmlns="http://www.w3.org/2000/svg" xmlns:xlink="http://www.w3.org/1999/xlink" x="0px" y="0px"
	 viewBox="0 0 87.3 87.3" style="enable-background:new 0 0 87.3 87.3;" xml:space="preserve">
<style type="text/css">
	.st0{fill:#2CAB9F;}
	.st1{fill:#D8D8D2;}
	.st2{fill:#F2C6A1;}
	.st3{fill:#BC2F3D;}
	.st4{fill:#FECE08;}
	.st5{fill:#F3A27A;}
	.st6{clip-path:url(#SVGID_2_);}
	.st7{fill:#89684D;}
	.st8{fill:#414042;}
	.st9{fill:#EA7E78;}
	.st10{fill:#FFFFFF;}
	.st11{fill:#EE4500;}
	.st12{fill:#FEA708;}
	.st13{fill:url(#SVGID_3_);}
	.st14{fill:#92A9ED;}
	.st15{fill:#5F70AF;}
	.st16{fill:#A3A3A3;}
	.st17{fill:#C1C1C1;}
	.st18{fill:#A3A2A2;}
	.st19{fill:#E7E3E1;}
	.st20{clip-path:url(#SVGID_5_);fill:#BEBBBB;}
	.st21{clip-path:url(#SVGID_7_);fill:#BEBBBB;}
	.st22{clip-path:url(#SVGID_9_);fill:#BEBBBB;}
	.st23{clip-path:url(#SVGID_11_);fill:#BEBBBB;}
	.st24{clip-path:url(#SVGID_13_);fill:#BEBBBB;}
	.st25{clip-path:url(#SVGID_15_);fill:#BEBBBB;}
	.st26{fill:#58595B;}
	.st27{fill:#E2B436;}
	.st28{clip-path:url(#SVGID_17_);}
	.st29{fill:#36313B;}
	.st30{fill:#231E2B;}
	.st31{fill:#47414D;}
	.st32{fill:#273E42;}
	.st33{fill:#355860;}
	.st34{fill:#49727C;}
	.st35{fill:#3B2130;}
	.st36{fill:#5895A5;}
	.st37{fill:#E8BE9B;}
	.st38{fill:#C7936B;}
	.st39{fill:#69ACC4;}
	.st40{fill:#4FAB59;}
	.st41{fill:#915620;}
	.st42{fill:#AD661F;}
	.st43{fill:#A6644B;}
	.st44{fill:#C2751D;}
	.st45{fill:#CF8934;}
	.st46{fill:url(#SVGID_18_);}
	.st47{clip-path:url(#SVGID_20_);}
	.st48{fill:url(#hair_1_);}
	.st49{fill:url(#SVGID_21_);}
	.st50{opacity:0.3;fill:#A55311;enable-background:new    ;}
	.st51{opacity:0.2;fill:#FFA383;enable-background:new    ;}
	.st52{opacity:0.61;fill:#FFB273;enable-background:new    ;}
	.st53{opacity:0.4;fill:#FFB273;enable-background:new    ;}
	.st54{fill:url(#axe_1_);}
	.st55{opacity:0.3;fill:#676E7A;enable-background:new    ;}
	.st56{opacity:0.25;fill:#FFFFFF;enable-background:new    ;}
	.st57{opacity:0.5;fill:#FFFFFF;enable-background:new    ;}
	.st58{fill:#A8B5C1;}
	.st59{opacity:0.35;fill:#FFFFFF;enable-background:new    ;}
	.st60{fill:#FFC19F;}
	.st61{opacity:0.8;fill:#FFC19F;enable-background:new    ;}
	.st62{fill:url(#arm_1_);}
	.st63{opacity:0.6;fill:#FFC19F;enable-background:new    ;}
	.st64{fill:url(#SVGID_22_);}
	.st65{fill:url(#SVGID_23_);}
	.st66{fill:url(#SVGID_24_);}
	.st67{fill:url(#pants_1_);}
	.st68{opacity:0.2;fill:#1D280D;enable-background:new    ;}
	.st69{opacity:0.3;fill:#1D280D;enable-background:new    ;}
	.st70{fill:url(#SVGID_25_);}
	.st71{opacity:0.75;fill:#893700;enable-background:new    ;}
	.st72{fill:url(#SVGID_26_);}
	.st73{fill:url(#SVGID_27_);}
	.st74{fill:url(#SVGID_28_);}
	.st75{fill:url(#arm_2_);}
	.st76{fill:url(#SVGID_29_);}
	.st77{fill:url(#SVGID_30_);}
	.st78{fill:url(#SVGID_31_);}
	.st79{fill:url(#shirt_1_);}
	.st80{opacity:0.15;fill:url(#shadow_1_);enable-background:new    ;}
	.st81{fill:url(#belt_1_);}
	.st82{opacity:0.35;}
	.st83{fill:url(#SVGID_32_);}
	.st84{fill:url(#SVGID_33_);}
	.st85{opacity:0.8;}
	.st86{fill:url(#SVGID_34_);}
	.st87{fill:url(#SVGID_35_);}
	.st88{opacity:0.4;fill:url(#SVGID_36_);enable-background:new    ;}
	.st89{fill:url(#SVGID_37_);}
	.st90{opacity:0.6;fill:#FFEB78;enable-background:new    ;}
	.st91{opacity:0.75;fill:#FFEB78;enable-background:new    ;}
	.st92{fill:url(#SVGID_38_);}
	.st93{fill:url(#SVGID_39_);}
	.st94{fill:url(#SVGID_40_);}
	.st95{opacity:0.4;fill:#BF1604;enable-background:new    ;}
	.st96{fill:#541918;}
	.st97{fill:#9B071C;}
	.st98{fill:#FF2B15;}
	.st99{fill:url(#SVGID_41_);}
	.st100{fill:#A55311;}
	.st101{fill:#471A08;}
	.st102{fill:#FCC79A;}
	.st103{opacity:0.69;fill:#FFD3AB;enable-background:new    ;}
	.st104{fill:url(#SVGID_42_);}
	.st105{fill:url(#SVGID_43_);}
	.st106{fill:url(#SVGID_44_);}
	.st107{opacity:0.25;fill:url(#SVGID_45_);enable-background:new    ;}
	.st108{opacity:0.25;fill:#FC8460;enable-background:new    ;}
	.st109{fill:url(#SVGID_46_);}
	.st110{opacity:0.3;fill:url(#SVGID_47_);enable-background:new    ;}
	.st111{clip-path:url(#SVGID_49_);}
	.st112{fill:url(#SVGID_50_);}
	.st113{fill:url(#axe_2_);}
	.st114{fill:url(#arm_3_);}
	.st115{fill:url(#SVGID_51_);}
	.st116{fill:url(#SVGID_52_);}
	.st117{fill:url(#SVGID_53_);}
	.st118{fill:url(#SVGID_54_);}
	.st119{clip-path:url(#SVGID_56_);}
	.st120{fill:#FCC78C;}
	.st121{fill:url(#SVGID_57_);}
	.st122{fill:#AC7930;}
	.st123{fill:#1A171B;}
	.st124{fill:#EDEDEE;}
	.st125{fill:#939292;}
	.st126{fill:#C7D5DF;}
	.st127{fill:#98B7C9;}
	.st128{fill:url(#SVGID_58_);}
	.st129{fill:url(#SVGID_59_);}
	.st130{fill:url(#SVGID_60_);}
	.st131{fill:url(#SVGID_61_);}
	.st132{fill:url(#SVGID_62_);}
	.st133{fill:url(#SVGID_63_);}
	.st134{fill:url(#SVGID_64_);}
	.st135{fill:url(#SVGID_65_);}
	.st136{fill:url(#SVGID_66_);}
	.st137{fill:url(#SVGID_67_);}
	.st138{fill:url(#SVGID_68_);}
	.st139{fill:#EB3D00;}
	.st140{fill:#835527;}
	.st141{fill:#D0995B;}
	.st142{fill:#E4AC00;}
	.st143{fill:#553F24;}
	.st144{fill:#93723A;}
	.st145{fill:#B9391A;}
	.st146{fill:#D99C09;}
	.st147{fill:#FFCC00;}
	.st148{fill:#9C9D9F;}
	.st149{fill:#B1B3B4;}
	.st150{fill:#C6C7C9;}
	.st151{fill:#D9DADB;}
	.st152{fill:#87888A;}
	.st153{fill:#A65C44;}
	.st154{fill:url(#SVGID_69_);}
	.st155{fill:url(#SVGID_70_);}
	.st156{fill:#2A2C2E;}
	.st157{clip-path:url(#SVGID_72_);}
	.st158{fill:#FFF200;}
	.st159{fill:#FFE300;}
	.st160{fill:#FBB040;}
	.st161{fill:#FC873E;}
	.st162{fill:#FB983F;}
	.st163{fill:url(#SVGID_73_);}
	.st164{fill:#754629;}
	.st165{clip-path:url(#SVGID_75_);fill:#ED1C24;}
	.st166{clip-path:url(#SVGID_77_);fill:#FB983F;}
	.st167{clip-path:url(#SVGID_79_);fill:#FB983F;}
	.st168{clip-path:url(#SVGID_81_);}
	.st169{fill:#ED1C24;}
	.st170{fill:#FEFFFF;}
	.st171{fill:#B3151B;}
	.st172{fill:#ED5C62;}
	.st173{opacity:0.2;fill:#231F20;enable-background:new    ;}
	.st174{opacity:0.4;fill:#231F20;enable-background:new    ;}
	.st175{fill:#424345;}
	.st176{fill:#FFE3C2;}
	.st177{opacity:0.1;fill:#231F20;enable-background:new    ;}
	.st178{fill:#303842;}
	.st179{fill:#363F4A;}
	.st180{clip-path:url(#SVGID_83_);fill:#FFEEDB;}
	.st181{clip-path:url(#SVGID_85_);fill:#2A2C2E;}
	.st182{opacity:0.2;clip-path:url(#SVGID_87_);fill:#231F20;enable-background:new    ;}
	.st183{clip-path:url(#SVGID_89_);}
	.st184{fill:#08E4FF;stroke:#08E4FF;stroke-width:0.1289;stroke-miterlimit:10;}
	.st185{fill:#F5F38E;}
	.st186{fill:#90C53F;}
	.st187{clip-path:url(#SVGID_91_);}
	.st188{fill:#754444;}
	.st189{fill:#5E3636;}
	.st190{fill:#7A5E27;}
	.st191{fill:#D1AB65;}
	.st192{fill:#A78442;}
	.st193{fill:#FCCFA4;}
	.st194{fill:#C78E65;}
	.st195{fill:#DDDDDC;}
	.st196{fill:#3B212A;}
	.st197{fill:#24211D;}
	.st198{fill:#45413F;}
	.st199{fill:#968064;}
	.st200{fill:#706151;}
	.st201{fill:url(#SVGID_92_);}
	.st202{fill:#211D18;}
	.st203{fill:#352E27;}
	.st204{display:none;}
	.st205{display:inline;}
	.st206{fill:#A8A8A7;}
	.st207{fill:#3C3C3B;}
	.st208{fill:#C59221;}
	.st209{fill:#FDC800;}
	.st210{display:inline;fill:#FFFFFF;}
	.st211{fill:#949393;}
	.st212{fill:#DBE8B0;}
	.st213{clip-path:url(#SVGID_94_);}
	.st214{opacity:0.3;fill:#808080;enable-background:new    ;}
	.st215{display:none;fill:#4B4B63;}
	.st216{fill:#4F3927;}
	.st217{fill:#5F442D;}
	.st218{fill:#6C5236;}
	.st219{fill:#976F44;}
	.st220{fill:#AC824E;}
	.st221{fill:#826544;}
	.st222{fill:#6E6E6E;}
	.st223{fill:#595959;}
	.st224{fill:#545454;}
	.st225{fill:#424242;}
	.st226{fill:#9C9C9C;}
	.st227{fill:#6E8091;}
	.st228{fill:#7B8B9B;}
	.st229{opacity:0.25;fill:#696969;enable-background:new    ;}
	.st230{fill:#A4C639;}
	.st231{fill:#FFC639;}
	.st232{fill:#F1A530;}
	.st233{fill:none;}
	.st234{opacity:0.29;fill:#383838;}
	.st235{opacity:0.4;fill:#FFFFFF;enable-background:new    ;}
	.st236{opacity:0.8;fill:#FFFFFF;enable-background:new    ;}
	.st237{fill:#859F25;}
	.st238{fill:#D78507;}
	.st239{fill:#262626;}
	.st240{fill:#BFD773;}
	.st241{fill:#FBDD57;}
	.st242{clip-path:url(#SVGID_96_);fill:#F4B711;}
	.st243{fill:#F4B711;}
	.st244{clip-path:url(#SVGID_98_);fill:#F4B711;}
	.st245{fill:#F4BB3B;}
	.st246{fill:#383838;}
	.st247{fill:#E6E6E6;}
	.st248{fill:#B3B3B3;}
	.st249{fill:#7D7D7D;}
	.st250{fill:#2F2F2F;}
	.st251{fill:#F2D850;}
	.st252{clip-path:url(#SVGID_100_);}
	.st253{fill:#C62B12;}
	.st254{fill:#B3B729;}
	.st255{fill:#A3A321;}
	.st256{fill:#C8D340;}
	.st257{opacity:0.6;fill:#7F7C13;enable-background:new    ;}
	.st258{fill:#F6D88C;}
	.st259{fill:url(#SVGID_101_);}
	.st260{fill:#1D1D1B;}
	.st261{fill:#C96317;}
	.st262{fill:#B74C1D;}
	.st263{fill:#C91111;}
	.st264{fill:#F6F8F9;}
	.st265{fill:#F97450;}
	.st266{fill:#3D8699;}
	.st267{fill:#FC7800;}
	.st268{fill:#7A7A74;}
	.st269{opacity:0.6;fill:#7F2713;enable-background:new    ;}
	.st270{fill:#F5D78B;}
	.st271{fill:#F5D78C;}
	.st272{fill:#F09453;}
	.st273{fill:#EF8E4D;}
	.st274{fill:#F1A15E;}
	.st275{fill:#EF8A4D;}
	.st276{fill:#EF8848;}
	.st277{fill:#F3C078;}
	.st278{fill:#F2B26F;}
	.st279{fill:#F19D5B;}
	.st280{fill:#F1A562;}
	.st281{fill:#F09A58;}
	.st282{fill:#EE7F41;}
	.st283{fill:url(#SVGID_102_);}
	.st284{fill:none;stroke:url(#SVGID_103_);stroke-width:1.9316;stroke-miterlimit:10;}
	.st285{clip-path:url(#SVGID_105_);}
	.st286{fill:#547FA1;}
	.st287{fill:#D0BF90;}
	.st288{fill:#E5D6AC;}
	.st289{fill:#DBC99A;}
	.st290{fill:#DCC6A2;}
	.st291{fill:url(#Кофта_1_);}
	.st292{fill:#FFBD7B;}
	.st293{fill:#CCAF83;}
	.st294{fill:#DBC5A1;}
	.st295{fill:#D3B991;}
	.st296{fill:#3C3022;}
	.st297{fill:url(#SVGID_106_);}
	.st298{fill:#FF9E85;}
	.st299{fill:#292929;}
	.st300{fill:#2C3C53;}
	.st301{fill:none;stroke:url(#SVGID_107_);stroke-width:1.9316;stroke-miterlimit:10;}
	.st302{fill:#FFFFFF;stroke:url(#SVGID_108_);stroke-width:1.9311;stroke-miterlimit:10;}
	.st303{clip-path:url(#SVGID_110_);}
	.st304{fill:#363D67;}
	.st305{fill:#DCA54C;}
	.st306{fill:#FEFEFE;}
	.st307{fill:#F5183F;}
	.st308{fill:#FDCCBB;}
	.st309{fill:#FDFDFC;}
	.st310{fill:#FDFDFB;}
	.st311{fill:#F4183F;}
	.st312{fill:#F31840;}
	.st313{fill:#F4173F;}
	.st314{fill:#DBA44C;}
	.st315{fill:#FCF9F9;}
	.st316{fill:#FCFCFA;}
	.st317{fill:#DAA44C;}
	.st318{fill:#FBF5F6;}
	.st319{fill:#FCF6F6;}
	.st320{fill:#FBFAF7;}
	.st321{fill:#DD1F47;}
	.st322{fill:#FAF5F6;}
	.st323{fill:#CE9D54;}
	.st324{fill:#F8ECEF;}
	.st325{fill:#FCF6F7;}
	.st326{fill:#D5A254;}
	.st327{fill:#727693;}
	.st328{fill:#E91B43;}
	.st329{fill:#F5F5F6;}
	.st330{fill:#AFB6C1;}
	.st331{fill:#D6A14E;}
	.st332{fill:#F7F2F3;}
	.st333{fill:#363C67;}
	.st334{fill:#353C67;}
	.st335{fill:#F31C42;}
	.st336{fill:#EAD2DA;}
	.st337{fill:#DA1E45;}
	.st338{fill:#373E67;}
	.st339{fill:#FCCCB9;}
	.st340{fill:#3D4166;}
	.st341{fill:#FBCBB8;}
	.st342{fill:#F6CAB6;}
	.st343{fill:#FBC3CD;}
	.st344{fill:#FBDCE1;}
	.st345{fill:#ED1D44;}
	.st346{fill:#ECEBEE;}
	.st347{fill:#E1234A;}
	.st348{fill:#DED3DB;}
	.st349{fill:#DD2047;}
	.st350{fill:#D5CCD6;}
	.st351{fill:#F5DDE3;}
	.st352{fill:#383E67;}
</style>
<g>
	<circle class="st27" cx="39.6" cy="56.6" r="30.1"/>
	<g>
		<g>
			<defs>
				<path id="SVGID_16_" d="M73.1,57.7c-0.7,0-0.2,2.1-0.2,2.6c-0.2,5.2-5,7.6-7.7,11.8C60,80.8,50.4,86.5,39.6,86.5
					C23,86.5,9.5,73,9.5,56.5S25.7,6.3,42.3,6.3c16.3,0,44.5-1.3,36.4,50.2C78.7,56.9,73.5,57.7,73.1,57.7z"/>
			</defs>
			<clipPath id="SVGID_2_">
				<use xlink:href="#SVGID_16_"  style="overflow:visible;"/>
			</clipPath>
			<g class="st6">
				<polygon class="st33" points="54,90.7 51.8,90.7 51.8,88.5 49.4,88.5 49.4,86.1 47.1,86.1 47.1,83.8 44.7,83.8 44.7,88.5 
					47.1,88.5 47.1,90.7 49.4,90.7 49.4,93.1 51.8,93.1 51.8,95.5 54,95.5 				"/>
				<polygon class="st34" points="47.1,90.7 47.1,88.5 44.7,88.5 44.7,86.1 35.4,86.1 35.4,88.5 42.4,88.5 42.4,90.7 				"/>
				<rect x="51.8" y="86.1" class="st30" width="2.4" height="2.4"/>
				<rect x="49.4" y="86.1" class="st34" width="2.4" height="2.4"/>
				<rect x="26" y="86.1" class="st35" width="9.3" height="2.4"/>
				<rect x="23.6" y="86.1" class="st30" width="2.4" height="2.4"/>
				<rect x="49.4" y="83.8" class="st30" width="2.4" height="2.4"/>
				<rect x="47.1" y="83.8" class="st34" width="2.4" height="2.4"/>
				<rect x="37.8" y="83.8" class="st36" width="7.1" height="2.4"/>
				<rect x="23.6" y="83.8" class="st35" width="2.4" height="2.4"/>
				<rect x="21.4" y="83.8" class="st30" width="2.4" height="2.4"/>
				<rect x="51.8" y="81.4" class="st30" width="4.7" height="2.4"/>
				<rect x="35.4" y="81.4" class="st30" width="2.4" height="4.7"/>
				<polygon class="st37" points="33,81.4 33,79.1 28.3,79.1 28.3,76.7 21.4,76.7 21.4,79.1 23.6,79.1 23.6,81.4 28.3,81.4 
					28.3,83.8 35.4,83.8 35.4,81.4 				"/>
				<polygon class="st38" points="26,83.8 26,86.1 35.4,86.1 35.4,83.8 28.3,83.8 28.3,81.4 23.6,81.4 23.6,79.1 21.4,79.1 
					21.4,76.7 19,76.7 19,81.4 21.4,81.4 21.4,83.8 				"/>
				<rect x="19" y="81.4" class="st30" width="2.4" height="2.4"/>
				<rect x="56.4" y="79.1" class="st30" width="2.4" height="2.4"/>
				<rect x="49.4" y="74.5" class="st30" width="2.4" height="9.3"/>
				<polygon class="st39" points="47.1,81.4 47.1,76.7 44.7,76.7 44.7,74.5 47.1,74.5 47.1,72.1 40,72.1 40,74.5 42.4,74.5 
					42.4,79.1 40,79.1 40,81.4 37.8,81.4 37.8,83.8 44.7,83.8 44.7,81.4 				"/>
				<rect x="35.4" y="79.1" class="st40" width="2.4" height="2.4"/>
				<rect x="33" y="79.1" class="st30" width="2.4" height="2.4"/>
				<rect x="16.7" y="72.1" class="st30" width="2.4" height="9.3"/>
				<polygon class="st37" points="37.8,76.7 37.8,74.5 35.4,74.5 35.4,79.1 37.8,79.1 37.8,81.4 40,81.4 40,76.7 				"/>
				<rect x="28.3" y="76.7" class="st30" width="4.7" height="2.4"/>
				<rect x="58.7" y="74.5" class="st30" width="2.4" height="4.7"/>
				<polygon class="st38" points="58.7,74.5 56.4,74.5 56.4,76.7 54,76.7 54,79.1 51.8,79.1 51.8,81.4 56.4,81.4 56.4,79.1 
					58.7,79.1 				"/>
				<polygon class="st30" points="28.3,76.7 28.3,72.1 26,72.1 26,74.5 23.6,74.5 23.6,76.7 				"/>
				<rect x="21.4" y="74.5" class="st38" width="2.4" height="2.4"/>
				<polygon class="st37" points="21.4,74.5 23.6,74.5 23.6,69.8 21.4,69.8 21.4,72.1 19,72.1 19,76.7 21.4,76.7 				"/>
				<polygon class="st37" points="37.8,79.1 40,79.1 40,83.8 42.4,83.8 42.4,76.7 40,76.7 40,74.5 37.8,74.5 				"/>
				<polygon class="st38" points="40,83.8 42.4,83.8 42.4,83.8 44.7,83.8 44.7,81.4 42.4,81.4 42.4,79.1 40,79.1 				"/>
				<polygon class="st39" points="28.3,76.7 33,76.7 33,79.1 35.4,79.1 35.4,74.5 37.8,74.5 37.8,72.1 30.7,72.1 30.7,69.8 
					28.3,69.8 				"/>
				<rect x="23.6" y="72.1" class="st38" width="2.4" height="2.4"/>
				<rect x="58.7" y="69.8" class="st38" width="2.4" height="4.7"/>
				<polygon class="st37" points="56.4,72.1 51.8,72.1 51.8,79.1 54,79.1 54,76.7 56.4,76.7 56.4,74.5 58.7,74.5 58.7,69.8 
					56.4,69.8 				"/>
				<rect x="54" y="67.4" class="st30" width="2.4" height="4.7"/>
				<polygon class="st36" points="49.4,69.8 49.4,72.1 47.1,72.1 47.1,74.5 44.7,74.5 44.7,76.7 47.1,76.7 47.1,81.4 44.7,81.4 
					44.7,83.8 49.4,83.8 49.4,74.5 51.8,74.5 51.8,72.1 54,72.1 54,67.4 51.8,67.4 51.8,69.8 				"/>
				<rect x="33" y="69.8" class="st30" width="16.4" height="2.4"/>
				<rect x="30.7" y="69.8" class="st36" width="2.4" height="2.4"/>
				<rect x="26" y="69.8" class="st36" width="2.4" height="2.4"/>
				<rect x="19" y="67.4" class="st30" width="2.4" height="4.7"/>
				<rect x="56.4" y="67.4" class="st38" width="2.4" height="2.4"/>
				<rect x="49.4" y="67.4" class="st30" width="2.4" height="2.4"/>
				<rect x="30.7" y="67.4" class="st30" width="2.4" height="2.4"/>
				<rect x="28.3" y="67.4" class="st36" width="2.4" height="2.4"/>
				<polygon class="st39" points="23.6,69.8 23.6,72.1 26,72.1 26,69.8 28.3,69.8 28.3,67.4 26,67.4 26,65.1 23.6,65.1 23.6,67.4 
					21.4,67.4 21.4,69.8 				"/>
				<rect x="61.1" y="65.1" class="st30" width="2.4" height="9.3"/>
				<polygon class="st37" points="58.7,67.4 58.7,69.8 61.1,69.8 61.1,65.1 56.4,65.1 56.4,67.4 				"/>
				<rect x="28.3" y="65.1" class="st30" width="2.4" height="2.4"/>
				<rect x="26" y="65.1" class="st36" width="2.4" height="2.4"/>
				<rect x="21.4" y="65.1" class="st30" width="2.4" height="2.4"/>
				<rect x="56.4" y="62.7" class="st30" width="4.7" height="2.4"/>
				<polygon class="st41" points="49.4,65.1 47.1,65.1 47.1,67.4 35.4,67.4 35.4,65.1 30.7,65.1 30.7,67.4 33,67.4 33,69.8 
					49.4,69.8 49.4,67.4 51.8,67.4 51.8,62.7 49.4,62.7 				"/>
				<rect x="28.3" y="62.7" class="st41" width="2.4" height="2.4"/>
				<polygon class="st30" points="28.3,65.1 28.3,55.7 26,55.7 26,62.7 23.6,62.7 23.6,65.1 				"/>
				<rect x="44.7" y="60.4" class="st38" width="2.4" height="2.4"/>
				<rect x="37.8" y="60.4" class="st38" width="2.4" height="2.4"/>
				<rect x="49.4" y="58.1" class="st38" width="2.4" height="2.4"/>
				<rect x="37.8" y="58.1" class="st37" width="9.3" height="2.4"/>
				<polygon class="st30" points="51.8,67.4 56.4,67.4 56.4,65.1 54,65.1 54,53.4 51.8,53.4 				"/>
				<rect x="47.1" y="55.7" class="st38" width="2.4" height="2.4"/>
				<rect x="37.8" y="55.7" class="st42" width="9.3" height="2.4"/>
				<rect x="35.4" y="55.7" class="st38" width="2.4" height="2.4"/>
				<polygon class="st38" points="30.7,60.4 35.4,60.4 35.4,58.1 33,58.1 33,53.4 30.7,53.4 				"/>
				<polygon class="st42" points="28.3,62.7 30.7,62.7 30.7,65.1 35.4,65.1 35.4,67.4 47.1,67.4 47.1,65.1 49.4,65.1 49.4,62.7 
					51.8,62.7 51.8,60.4 49.4,60.4 49.4,58.1 47.1,58.1 47.1,62.7 44.7,62.7 44.7,60.4 40,60.4 40,62.7 37.8,62.7 37.8,58.1 
					35.4,58.1 35.4,60.4 30.7,60.4 30.7,53.4 28.3,53.4 				"/>
				<rect x="26" y="53.4" class="st38" width="2.4" height="2.4"/>
				<path class="st37" d="M51.8,48.7h-4.7v4.7h-2.4v-4.7h2.4v-2.4H33v2.4h-2.4v4.7H33v4.7h2.4v-2.4h14v2.4h2.4v-4.7l0,0V48.7z
					 M35.4,53.4v-4.7h2.4v4.7H35.4z"/>
				<rect x="28.3" y="51" class="st38" width="2.4" height="2.4"/>
				<rect x="26" y="51" class="st37" width="2.4" height="2.4"/>
				<rect x="23.6" y="51" class="st30" width="2.4" height="4.7"/>
				<rect x="44.7" y="48.7" class="st30" width="2.4" height="4.7"/>
				<rect x="35.4" y="48.7" class="st30" width="2.4" height="4.7"/>
				<rect x="26" y="39.4" class="st30" width="2.4" height="11.7"/>
				<polygon class="st43" points="28.3,51 30.7,51 30.7,48.7 33,48.7 33,44.1 28.3,44.1 				"/>
				<polygon class="st38" points="47.1,46.4 47.1,48.7 51.8,48.7 51.8,44.1 33,44.1 33,46.4 				"/>
				<polygon class="st30" points="51.8,41.7 51.8,44.1 51.8,44.1 51.8,53.4 54,53.4 54,41.7 				"/>
				<polygon class="st37" points="37.8,76.7 37.8,81.4 40,81.4 42.4,81.4 42.4,74.5 42.4,72.1 40,72.1 37.8,72.1 				"/>
				<polygon class="st38" points="35.4,81.4 37.8,81.4 37.8,83.8 40,83.8 40,79.1 37.8,79.1 37.8,74.5 35.4,74.5 				"/>
				<polygon class="st44" points="51.8,41.7 51.8,46.4 47.1,46.4 47.1,44.1 33,44.1 33,46.4 30.7,46.4 30.7,53.4 28.3,53.4 
					28.3,44.1 30.7,44.1 30.7,41.7 35.4,41.7 35.4,39.4 47.1,39.4 47.1,41.7 				"/>
				<rect x="47.1" y="39.4" class="st45" width="4.7" height="2.4"/>
				<polygon class="st45" points="49.4,37 49.4,39.4 35.4,39.4 35.4,41.7 30.7,41.7 30.7,44.1 28.3,44.1 28.3,39.4 30.7,39.4 
					30.7,37 				"/>
				<rect x="51.8" y="39.4" class="st30" width="2.4" height="2.4"/>
				<rect x="49.4" y="37" class="st30" width="2.4" height="2.4"/>
				<rect x="30.7" y="34.6" class="st30" width="18.7" height="2.4"/>
				<rect x="28.3" y="37" class="st30" width="2.4" height="2.4"/>
			</g>
		</g>
	</g>
</g>
<g>
	<g>
		<g>
			<defs>
				<path id="SVGID_80_" d="M72.5-36.4c-0.7,0-0.2,2.2-0.2,2.6c-0.2,5.2-5,7.5-7.6,11.7C59.6-13.4,50.1-7.7,39.3-7.7
					C22.8-7.7,9.5-21,9.5-37.6s15.9-49.8,32.5-49.8c16.1,0,44.3-1.3,36.2,49.8C78.1-37.2,72.9-36.4,72.5-36.4z"/>
			</defs>
			<clipPath id="SVGID_3_">
				<use xlink:href="#SVGID_80_"  style="overflow:visible;"/>
			</clipPath>
			<g style="clip-path:url(#SVGID_3_);">
				<g>
					<path class="st173" d="M60-49.1c-1.7-0.5-3.2-0.9-4.3-1.1c-1.6-0.3-7.8-1.4-15.8,0.4c-1.7,0.4-3.1,0.8-4.2,1.2
						c0.2,2.8,0.5,7,0.9,12.3c0.5,7.5,0.8,12.8,1,16.6c0.1,1.3,0.2,3.8,0.4,6.7c2,0.7,3.6,2.1,4.4,4.2c1.1,3-0.7,6.3-3.3,8
						c0,0.1,0,0.2,0.1,0.4c0,0.1,0,0.2,0,0.3c1.7,0.1,3.4,0.2,4.9,0.3c-0.1-2.5-0.2-4.9-0.3-7.4c3.7-0.1,7.3-0.1,11.1-0.2
						c-0.1,2.6-0.1,5-0.1,7.6c1.8,0.1,3.7-0.1,5.5-0.2c0-0.1,0-0.2,0-0.3c-1.8-0.8-3.2-2.4-3.8-4.6c-1.1-3.7,0.6-7.8,4.2-9
						c0-0.4,0-0.7,0-1C61.2-27.2,60.8-38.6,60-49.1z M57.1-24.2c-1.5,3.5-4.2,7.7-8.1,8.2c-1.7,0.2-3.5-0.4-4.9-1.3
						c-3.5-2.2-6-5.7-6.6-9.9c-0.6-4,0-8.2,1.3-11.9c1.3-3.6,3.8-8,7.4-9.3c2.6-0.9,5.2,0.3,7.1,2.1C59.4-40.6,60.3-31.7,57.1-24.2z
						"/>
				</g>
			</g>
		</g>
	</g>
</g>
<g>
	<rect x="20.9" y="38.1" class="st30" width="14.3" height="1.4"/>
	<rect x="20.9" y="19.4" class="st30" width="19.3" height="1.6"/>
	<rect x="19.5" y="20.9" class="st30" width="1.4" height="17.2"/>
	<polygon class="st30" points="40.2,20.9 40.2,41 38.7,41 38.7,42.4 41.6,42.4 41.6,20.9 	"/>
	<path class="st10" d="M40.3,20.9H20.9v17.2h14.3v1.4h1.4V41h3.5L40.3,20.9z"/>
	<rect x="35.3" y="39.6" class="st30" width="3.4" height="1.4"/>
	<g>
		<rect x="25.9" y="32.4" class="st45" width="4.3" height="1.4"/>
		<rect x="24.4" y="32.4" class="st30" width="1.4" height="1.4"/>
		<rect x="27.4" y="31" class="st185" width="2.9" height="1.4"/>
		<rect x="25.9" y="31" class="st27" width="1.4" height="1.4"/>
		<rect x="24.4" y="31" class="st45" width="1.4" height="1.4"/>
		<rect x="23" y="26.7" class="st30" width="1.4" height="5.7"/>
		<rect x="25.9" y="28.1" class="st45" width="1.4" height="2.9"/>
		<polygon class="st27" points="25.9,31 25.9,28.1 27.4,28.1 27.4,25.2 25.9,25.2 25.9,26.7 24.4,26.7 24.4,31 		"/>
		<polygon class="st27" points="31.7,28.1 31.7,31 30.2,31 30.2,33.8 31.7,33.8 31.7,32.4 33.1,32.4 33.1,28.1 		"/>
		<rect x="30.2" y="28.1" class="st185" width="1.4" height="2.9"/>
		<rect x="27.4" y="28.1" class="st27" width="2.9" height="2.9"/>
		<rect x="33.1" y="26.7" class="st30" width="1.4" height="5.7"/>
		<rect x="36" y="25.2" class="st30" width="1.4" height="5.7"/>
		<rect x="31.7" y="26.7" class="st185" width="1.4" height="1.4"/>
		<rect x="30.2" y="26.7" class="st27" width="1.4" height="1.4"/>
		<rect x="27.4" y="26.7" class="st45" width="2.9" height="1.4"/>
		<rect x="31.7" y="25.2" class="st30" width="1.4" height="1.4"/>
		<rect x="36" y="32.4" class="st30" width="1.4" height="1.4"/>
		<rect x="27.4" y="25.2" class="st185" width="4.3" height="1.4"/>
		<rect x="24.4" y="25.2" class="st30" width="1.4" height="1.4"/>
		<rect x="25.9" y="23.8" class="st30" width="5.7" height="1.4"/>
		<rect x="25.9" y="33.8" class="st30" width="5.7" height="1.4"/>
		<rect x="31.7" y="32.4" class="st30" width="1.4" height="1.4"/>
	</g>
</g>
</svg>
