<?xml version="1.0" encoding="utf-8"?>
<!-- Generator: Adobe Illustrator 21.0.1, SVG Export Plug-In . SVG Version: 6.00 Build 0)  -->
<svg version="1.1" id="Layer_1" xmlns="http://www.w3.org/2000/svg" xmlns:xlink="http://www.w3.org/1999/xlink" x="0px" y="0px"
	 viewBox="0 0 87.3 87.3" style="enable-background:new 0 0 87.3 87.3;" xml:space="preserve">
<style type="text/css">
	.st0{fill:#2CAB9F;}
	.st1{fill:#D8D8D2;}
	.st2{fill:#F2C6A1;}
	.st3{fill:#BC2F3D;}
	.st4{fill:#FECE08;}
	.st5{fill:#F3A27A;}
	.st6{clip-path:url(#SVGID_2_);}
	.st7{fill:#89684D;}
	.st8{fill:#414042;}
	.st9{fill:#EA7E78;}
	.st10{fill:#FFFFFF;}
	.st11{fill:#EE4500;}
	.st12{fill:#FEA708;}
	.st13{fill:url(#SVGID_3_);}
	.st14{fill:#92A9ED;}
	.st15{fill:#5F70AF;}
	.st16{fill:#A3A3A3;}
	.st17{fill:#C1C1C1;}
	.st18{fill:#A3A2A2;}
	.st19{fill:#E7E3E1;}
	.st20{clip-path:url(#SVGID_5_);fill:#BEBBBB;}
	.st21{clip-path:url(#SVGID_7_);fill:#BEBBBB;}
	.st22{clip-path:url(#SVGID_9_);fill:#BEBBBB;}
	.st23{clip-path:url(#SVGID_11_);fill:#BEBBBB;}
	.st24{clip-path:url(#SVGID_13_);fill:#BEBBBB;}
	.st25{clip-path:url(#SVGID_15_);fill:#BEBBBB;}
	.st26{fill:#58595B;}
	.st27{fill:#E2B436;}
	.st28{clip-path:url(#SVGID_17_);}
	.st29{fill:#36313B;}
	.st30{fill:#231E2B;}
	.st31{fill:#47414D;}
	.st32{fill:#273E42;}
	.st33{fill:#355860;}
	.st34{fill:#49727C;}
	.st35{fill:#3B2130;}
	.st36{fill:#5895A5;}
	.st37{fill:#E8BE9B;}
	.st38{fill:#C7936B;}
	.st39{fill:#69ACC4;}
	.st40{fill:#4FAB59;}
	.st41{fill:#915620;}
	.st42{fill:#AD661F;}
	.st43{fill:#A6644B;}
	.st44{fill:#C2751D;}
	.st45{fill:#CF8934;}
	.st46{fill:url(#SVGID_18_);}
	.st47{clip-path:url(#SVGID_20_);}
	.st48{fill:url(#hair_1_);}
	.st49{fill:url(#SVGID_21_);}
	.st50{opacity:0.3;fill:#A55311;enable-background:new    ;}
	.st51{opacity:0.2;fill:#FFA383;enable-background:new    ;}
	.st52{opacity:0.61;fill:#FFB273;enable-background:new    ;}
	.st53{opacity:0.4;fill:#FFB273;enable-background:new    ;}
	.st54{fill:url(#axe_1_);}
	.st55{opacity:0.3;fill:#676E7A;enable-background:new    ;}
	.st56{opacity:0.25;fill:#FFFFFF;enable-background:new    ;}
	.st57{opacity:0.5;fill:#FFFFFF;enable-background:new    ;}
	.st58{fill:#A8B5C1;}
	.st59{opacity:0.35;fill:#FFFFFF;enable-background:new    ;}
	.st60{fill:#FFC19F;}
	.st61{opacity:0.8;fill:#FFC19F;enable-background:new    ;}
	.st62{fill:url(#arm_1_);}
	.st63{opacity:0.6;fill:#FFC19F;enable-background:new    ;}
	.st64{fill:url(#SVGID_22_);}
	.st65{fill:url(#SVGID_23_);}
	.st66{fill:url(#SVGID_24_);}
	.st67{fill:url(#pants_1_);}
	.st68{opacity:0.2;fill:#1D280D;enable-background:new    ;}
	.st69{opacity:0.3;fill:#1D280D;enable-background:new    ;}
	.st70{fill:url(#SVGID_25_);}
	.st71{opacity:0.75;fill:#893700;enable-background:new    ;}
	.st72{fill:url(#SVGID_26_);}
	.st73{fill:url(#SVGID_27_);}
	.st74{fill:url(#SVGID_28_);}
	.st75{fill:url(#arm_2_);}
	.st76{fill:url(#SVGID_29_);}
	.st77{fill:url(#SVGID_30_);}
	.st78{fill:url(#SVGID_31_);}
	.st79{fill:url(#shirt_1_);}
	.st80{opacity:0.15;fill:url(#shadow_1_);enable-background:new    ;}
	.st81{fill:url(#belt_1_);}
	.st82{opacity:0.35;}
	.st83{fill:url(#SVGID_32_);}
	.st84{fill:url(#SVGID_33_);}
	.st85{opacity:0.8;}
	.st86{fill:url(#SVGID_34_);}
	.st87{fill:url(#SVGID_35_);}
	.st88{opacity:0.4;fill:url(#SVGID_36_);enable-background:new    ;}
	.st89{fill:url(#SVGID_37_);}
	.st90{opacity:0.6;fill:#FFEB78;enable-background:new    ;}
	.st91{opacity:0.75;fill:#FFEB78;enable-background:new    ;}
	.st92{fill:url(#SVGID_38_);}
	.st93{fill:url(#SVGID_39_);}
	.st94{fill:url(#SVGID_40_);}
	.st95{opacity:0.4;fill:#BF1604;enable-background:new    ;}
	.st96{fill:#541918;}
	.st97{fill:#9B071C;}
	.st98{fill:#FF2B15;}
	.st99{fill:url(#SVGID_41_);}
	.st100{fill:#A55311;}
	.st101{fill:#471A08;}
	.st102{fill:#FCC79A;}
	.st103{opacity:0.69;fill:#FFD3AB;enable-background:new    ;}
	.st104{fill:url(#SVGID_42_);}
	.st105{fill:url(#SVGID_43_);}
	.st106{fill:url(#SVGID_44_);}
	.st107{opacity:0.25;fill:url(#SVGID_45_);enable-background:new    ;}
	.st108{opacity:0.25;fill:#FC8460;enable-background:new    ;}
	.st109{fill:url(#SVGID_46_);}
	.st110{opacity:0.3;fill:url(#SVGID_47_);enable-background:new    ;}
	.st111{clip-path:url(#SVGID_49_);}
	.st112{fill:url(#SVGID_50_);}
	.st113{fill:url(#axe_2_);}
	.st114{fill:url(#arm_3_);}
	.st115{fill:url(#SVGID_51_);}
	.st116{fill:url(#SVGID_52_);}
	.st117{fill:url(#SVGID_53_);}
	.st118{fill:url(#SVGID_54_);}
	.st119{clip-path:url(#SVGID_56_);}
	.st120{fill:#FCC78C;}
	.st121{fill:url(#SVGID_57_);}
	.st122{fill:#AC7930;}
	.st123{fill:#1A171B;}
	.st124{fill:#EDEDEE;}
	.st125{fill:#939292;}
	.st126{fill:#C7D5DF;}
	.st127{fill:#98B7C9;}
	.st128{fill:url(#SVGID_58_);}
	.st129{fill:url(#SVGID_59_);}
	.st130{fill:url(#SVGID_60_);}
	.st131{fill:url(#SVGID_61_);}
	.st132{fill:url(#SVGID_62_);}
	.st133{fill:url(#SVGID_63_);}
	.st134{fill:url(#SVGID_64_);}
	.st135{fill:url(#SVGID_65_);}
	.st136{fill:url(#SVGID_66_);}
	.st137{fill:url(#SVGID_67_);}
	.st138{fill:url(#SVGID_68_);}
	.st139{fill:#EB3D00;}
	.st140{fill:#835527;}
	.st141{fill:#D0995B;}
	.st142{fill:#E4AC00;}
	.st143{fill:#553F24;}
	.st144{fill:#93723A;}
	.st145{fill:#B9391A;}
	.st146{fill:#D99C09;}
	.st147{fill:#FFCC00;}
	.st148{fill:#9C9D9F;}
	.st149{fill:#B1B3B4;}
	.st150{fill:#C6C7C9;}
	.st151{fill:#D9DADB;}
	.st152{fill:#87888A;}
	.st153{fill:#A65C44;}
	.st154{fill:url(#SVGID_69_);}
	.st155{fill:url(#SVGID_70_);}
	.st156{fill:#2A2C2E;}
	.st157{clip-path:url(#SVGID_72_);}
	.st158{fill:#FFF200;}
	.st159{fill:#FFE300;}
	.st160{fill:#FBB040;}
	.st161{fill:#FC873E;}
	.st162{fill:#FB983F;}
	.st163{fill:url(#SVGID_73_);}
	.st164{fill:#754629;}
	.st165{clip-path:url(#SVGID_75_);fill:#ED1C24;}
	.st166{clip-path:url(#SVGID_77_);fill:#FB983F;}
	.st167{clip-path:url(#SVGID_79_);fill:#FB983F;}
	.st168{clip-path:url(#SVGID_81_);}
	.st169{fill:#ED1C24;}
	.st170{fill:#FEFFFF;}
	.st171{fill:#B3151B;}
	.st172{fill:#ED5C62;}
	.st173{opacity:0.2;fill:#231F20;enable-background:new    ;}
	.st174{opacity:0.4;fill:#231F20;enable-background:new    ;}
	.st175{fill:#424345;}
	.st176{fill:#FFE3C2;}
	.st177{opacity:0.1;fill:#231F20;enable-background:new    ;}
	.st178{fill:#303842;}
	.st179{fill:#363F4A;}
	.st180{clip-path:url(#SVGID_83_);fill:#FFEEDB;}
	.st181{clip-path:url(#SVGID_85_);fill:#2A2C2E;}
	.st182{opacity:0.2;clip-path:url(#SVGID_87_);fill:#231F20;enable-background:new    ;}
	.st183{clip-path:url(#SVGID_89_);}
	.st184{fill:#08E4FF;stroke:#08E4FF;stroke-width:0.1289;stroke-miterlimit:10;}
	.st185{fill:#F5F38E;}
	.st186{fill:#90C53F;}
	.st187{clip-path:url(#SVGID_91_);}
	.st188{fill:#754444;}
	.st189{fill:#5E3636;}
	.st190{fill:#7A5E27;}
	.st191{fill:#D1AB65;}
	.st192{fill:#A78442;}
	.st193{fill:#FCCFA4;}
	.st194{fill:#C78E65;}
	.st195{fill:#DDDDDC;}
	.st196{fill:#3B212A;}
	.st197{fill:#24211D;}
	.st198{fill:#45413F;}
	.st199{fill:#968064;}
	.st200{fill:#706151;}
	.st201{fill:url(#SVGID_92_);}
	.st202{fill:#211D18;}
	.st203{fill:#352E27;}
	.st204{display:none;}
	.st205{display:inline;}
	.st206{fill:#A8A8A7;}
	.st207{fill:#3C3C3B;}
	.st208{fill:#C59221;}
	.st209{fill:#FDC800;}
	.st210{display:inline;fill:#FFFFFF;}
	.st211{fill:#949393;}
	.st212{fill:#DBE8B0;}
	.st213{clip-path:url(#SVGID_94_);}
	.st214{opacity:0.3;fill:#808080;enable-background:new    ;}
	.st215{display:none;fill:#4B4B63;}
	.st216{fill:#4F3927;}
	.st217{fill:#5F442D;}
	.st218{fill:#6C5236;}
	.st219{fill:#976F44;}
	.st220{fill:#AC824E;}
	.st221{fill:#826544;}
	.st222{fill:#6E6E6E;}
	.st223{fill:#595959;}
	.st224{fill:#545454;}
	.st225{fill:#424242;}
	.st226{fill:#9C9C9C;}
	.st227{fill:#6E8091;}
	.st228{fill:#7B8B9B;}
	.st229{opacity:0.25;fill:#696969;enable-background:new    ;}
	.st230{fill:#A4C639;}
	.st231{fill:#FFC639;}
	.st232{fill:#F1A530;}
	.st233{fill:none;}
	.st234{opacity:0.29;fill:#383838;}
	.st235{opacity:0.4;fill:#FFFFFF;enable-background:new    ;}
	.st236{opacity:0.8;fill:#FFFFFF;enable-background:new    ;}
	.st237{fill:#859F25;}
	.st238{fill:#D78507;}
	.st239{fill:#262626;}
	.st240{fill:#BFD773;}
	.st241{fill:#FBDD57;}
	.st242{clip-path:url(#SVGID_96_);fill:#F4B711;}
	.st243{fill:#F4B711;}
	.st244{clip-path:url(#SVGID_98_);fill:#F4B711;}
	.st245{fill:#F4BB3B;}
	.st246{fill:#383838;}
	.st247{fill:#E6E6E6;}
	.st248{fill:#B3B3B3;}
	.st249{fill:#7D7D7D;}
	.st250{fill:#2F2F2F;}
	.st251{fill:#F2D850;}
	.st252{clip-path:url(#SVGID_100_);}
	.st253{fill:#C62B12;}
	.st254{fill:#B3B729;}
	.st255{fill:#A3A321;}
	.st256{fill:#C8D340;}
	.st257{opacity:0.6;fill:#7F7C13;enable-background:new    ;}
	.st258{fill:#F6D88C;}
	.st259{fill:url(#SVGID_101_);}
	.st260{fill:#1D1D1B;}
	.st261{fill:#C96317;}
	.st262{fill:#B74C1D;}
	.st263{fill:#C91111;}
	.st264{fill:#F6F8F9;}
	.st265{fill:#F97450;}
	.st266{fill:#3D8699;}
	.st267{fill:#FC7800;}
	.st268{fill:#7A7A74;}
	.st269{opacity:0.6;fill:#7F2713;enable-background:new    ;}
	.st270{fill:#F5D78B;}
	.st271{fill:#F5D78C;}
	.st272{fill:#F09453;}
	.st273{fill:#EF8E4D;}
	.st274{fill:#F1A15E;}
	.st275{fill:#EF8A4D;}
	.st276{fill:#EF8848;}
	.st277{fill:#F3C078;}
	.st278{fill:#F2B26F;}
	.st279{fill:#F19D5B;}
	.st280{fill:#F1A562;}
	.st281{fill:#F09A58;}
	.st282{fill:#EE7F41;}
	.st283{fill:url(#SVGID_102_);}
	.st284{fill:none;stroke:url(#SVGID_103_);stroke-width:1.9316;stroke-miterlimit:10;}
	.st285{clip-path:url(#SVGID_105_);}
	.st286{fill:#547FA1;}
	.st287{fill:#D0BF90;}
	.st288{fill:#E5D6AC;}
	.st289{fill:#DBC99A;}
	.st290{fill:#DCC6A2;}
	.st291{fill:url(#Кофта_1_);}
	.st292{fill:#FFBD7B;}
	.st293{fill:#CCAF83;}
	.st294{fill:#DBC5A1;}
	.st295{fill:#D3B991;}
	.st296{fill:#3C3022;}
	.st297{fill:url(#SVGID_106_);}
	.st298{fill:#FF9E85;}
	.st299{fill:#292929;}
	.st300{fill:#2C3C53;}
	.st301{fill:none;stroke:url(#SVGID_107_);stroke-width:1.9316;stroke-miterlimit:10;}
	.st302{fill:#FFFFFF;stroke:url(#SVGID_108_);stroke-width:1.9311;stroke-miterlimit:10;}
	.st303{clip-path:url(#SVGID_110_);}
	.st304{fill:#363D67;}
	.st305{fill:#DCA54C;}
	.st306{fill:#FEFEFE;}
	.st307{fill:#F5183F;}
	.st308{fill:#FDCCBB;}
	.st309{fill:#FDFDFC;}
	.st310{fill:#FDFDFB;}
	.st311{fill:#F4183F;}
	.st312{fill:#F31840;}
	.st313{fill:#F4173F;}
	.st314{fill:#DBA44C;}
	.st315{fill:#FCF9F9;}
	.st316{fill:#FCFCFA;}
	.st317{fill:#DAA44C;}
	.st318{fill:#FBF5F6;}
	.st319{fill:#FCF6F6;}
	.st320{fill:#FBFAF7;}
	.st321{fill:#DD1F47;}
	.st322{fill:#FAF5F6;}
	.st323{fill:#CE9D54;}
	.st324{fill:#F8ECEF;}
	.st325{fill:#FCF6F7;}
	.st326{fill:#D5A254;}
	.st327{fill:#727693;}
	.st328{fill:#E91B43;}
	.st329{fill:#F5F5F6;}
	.st330{fill:#AFB6C1;}
	.st331{fill:#D6A14E;}
	.st332{fill:#F7F2F3;}
	.st333{fill:#363C67;}
	.st334{fill:#353C67;}
	.st335{fill:#F31C42;}
	.st336{fill:#EAD2DA;}
	.st337{fill:#DA1E45;}
	.st338{fill:#373E67;}
	.st339{fill:#FCCCB9;}
	.st340{fill:#3D4166;}
	.st341{fill:#FBCBB8;}
	.st342{fill:#F6CAB6;}
	.st343{fill:#FBC3CD;}
	.st344{fill:#FBDCE1;}
	.st345{fill:#ED1D44;}
	.st346{fill:#ECEBEE;}
	.st347{fill:#E1234A;}
	.st348{fill:#DED3DB;}
	.st349{fill:#DD2047;}
	.st350{fill:#D5CCD6;}
	.st351{fill:#F5DDE3;}
	.st352{fill:#383E67;}
</style>
<g>
	<circle class="st186" cx="39.8" cy="56.3" r="30.2"/>
	<g>
		<g>
			<g>
				<defs>
					<path id="SVGID_90_" d="M73.4,57.4c-0.7,0-0.2,2.2-0.2,2.6c-0.2,5.2-5,7.6-7.7,11.8c-5.2,8.8-14.8,14.6-25.7,14.6
						c-16.6,0-30.2-13.6-30.2-30.2S25.8,5.8,42.5,5.8c16.3,0,44.7-1.3,36.6,50.3C79,56.6,73.8,57.4,73.4,57.4z"/>
				</defs>
				<clipPath id="SVGID_2_">
					<use xlink:href="#SVGID_90_"  style="overflow:visible;"/>
				</clipPath>
				<g class="st6">
					<path class="st188" d="M45.8,53.5c8.5,6.5,12.7,12.4,15.3,18.8c-0.2,5.1-1.5,9.7-3,15.3c-6.8-7.5-8.4-13.6-8.7-21.5l1.9-1.8
						l-2.2-4L45.5,56L45.8,53.5z"/>
					<path class="st189" d="M45.8,53.5c0.4,0.3,0.8,0.6,1.1,0.9c-0.3,0.8-0.6,1.4-1.1,1.8l-0.2-1l-0.1,0.1L45.8,53.5z"/>
					<path class="st189" d="M51.2,64.3l-2.2-4L45.4,56l0.2-1.2c2.1,2.3,3.9,4.3,6,8.2l2-0.3L51.2,64.3z"/>
					<path class="st188" d="M34.5,52.1C28.2,57,21.7,65.7,19.9,70.9c-0.4,6.6,0.7,9.2,4,14.4c2.8-4.3,7.9-11.5,5.3-21.7l3.1-5.3
						l2.6-3.7L34.5,52.1z"/>
					<path class="st189" d="M34.5,52.1c-0.4,0.3-0.7,0.6-1.1,0.9c0.2,0.8,0.4,1.6,0.7,2.2l0.2-1.2c0.1,0.3,0.3,0.6,0.4,0.9l0.2-0.3
						L34.5,52.1z"/>
					<path class="st189" d="M29.7,62.7l2.5-4.3l2.6-3.7l-0.1-0.5l-0.1-0.4c-2.2,2.7-4.6,5.4-6.6,8.3c-2.4,1.3-3.3,2.1-5.3,4.3
						c2.1-1.5,4.1-3.2,6.5-3.9L29.7,62.7z"/>
					<path class="st188" d="M34.7,49c-0.9,8.8-0.7,17.1-3.4,25.7c7.1,1.8,10.4,1.9,17.4,1C46.6,65.9,45.6,57,45.6,48L34.7,49z"/>
					<path class="st189" d="M34.5,51.4c-0.1,1.1-0.2,2-0.2,3.1l0.1-0.4c1.2,2.4,2.3,3.1,5,4.6l0.8-1l0.5,1c1.8-0.4,4.1-2.1,5.1-3.5
						l0.2,1l0,0c-0.1-1-0.1-1.8-0.2-2.8v0.1L40.8,54l-0.4-0.7L40,54l-4.8-0.6C35,52.7,34.7,52.1,34.5,51.4z"/>
					<path class="st193" d="M37.7,53.3c0.7,2.8,1.5,5.5,2.2,8.4c1.3-2.8,2.5-5.8,2.6-9.2L37.7,53.3z"/>
					<path class="st194" d="M37.8,53.7c0.4,1.7,0.9,3.3,1.3,5l0.1,0.1l0.8-1l0.5,1c0.3-0.1,0.5-0.2,0.8-0.3c0.6-1.5,1-3,1.2-4.7
						L40.8,54l-0.4-0.7L40,54L37.8,53.7z"/>
					<path class="st10" d="M38.1,53.4c0.7,2.5,1.4,4,2.1,6.6c1.1-3,1.9-4.9,2.3-8.2l1.4-0.2c-0.8,4.5-1.6,8-3.4,12l-1-0.9l-2.6-9.2
						L38.1,53.4z"/>
					<g>
						<path class="st195" d="M38.1,53.7c0.5,1.8,1,2.9,1.5,4.5l-0.4,0.5c-0.4-0.2-0.7-0.4-1.1-0.6l-1.4-4.5L38.1,53.7L38.1,53.7z
							 M40.6,58.7c0.6-1.8,1.2-3.1,1.6-4.9l1.3-0.2c-0.3,1.5-0.6,2.8-1,4.2C41.9,58.2,41.2,58.5,40.6,58.7z"/>
					</g>
					<path class="st195" d="M40.1,60c0.1-0.2,0.1-0.4,0.2-0.6l0.5,2.4L40.1,60z"/>
					<path class="st189" d="M37.3,52.3c0.7,4,1.8,7.5,3,11.5l-1.9,1.8c-2.1-4.6-3.3-10.2-3.9-14.8L37.3,52.3z"/>
					<path class="st196" d="M37.6,53.7c0.3,1.7,0.7,3.2,1.2,4.8c-1.5-0.8-2.5-1.5-3.3-2.4c-0.3-1.3-0.5-2.5-0.7-3.7
						c0.2,0.4,0.3,0.8,0.5,1.1L37.6,53.7z"/>
					<path class="st196" d="M39.6,61.1c0.2,0.8,0.5,1.6,0.7,2.3l-1.5,1.9l-0.3,0.3c0-0.2-0.1-0.3-0.1-0.5L39.6,61.1z"/>
					<path class="st189" d="M45.6,51c-1,9.8-4.7,16.5-11.7,22.6l-2.5-1.1l0.2-0.8c6.2-5.3,10.7-11.2,11.4-20L45.6,51z"/>
					<path class="st196" d="M45.3,53.4c-0.1,1-0.3,1.8-0.5,2.7c-0.9,0.8-2,1.7-3.1,2.1c0.5-1.5,0.9-2.9,1.1-4.6L45.3,53.4z"/>
					<path class="st189" d="M45.4,52.5c-0.1,0.9-0.3,1.7-0.4,2.4c-0.8,0.8-1.9,1.7-3,2.2c0.4-1.4,0.7-2.8,0.9-4.4L45.4,52.5z"/>
					<path class="st197" d="M46.6,21.6c0.1,0.4,0.2,1,0.2,1.3l-1.3-0.7c1.8,2.8,1,4.7-0.7,8.3c-5.6,0-6.9,0-9.4-1.4
						c-1.3-1.7-1.5-2.9-1.2-4.9c-0.3,0.5-0.7,1-1,1.5L32.8,24c0.9-1.8,2.4-3.5,4.3-4.6l-1.5-0.3c1.3-0.7,2.7-1.5,4.1-0.6
						C41.9,17.6,44.5,18.7,46.6,21.6z"/>
					<path class="st198" d="M35,21.2c0.7-0.7,1.5-1.3,2.3-1.8l-1.5-0.3c1.3-0.7,2.7-1.5,4.1-0.6c1.8-0.8,4,0.1,5.9,2.1
						c-1.4,1-3.5,1.6-5.9,1.6C38,22.1,36.2,21.8,35,21.2z"/>
					<path class="st199" d="M38.9,23.3l1.5-0.5c1.9,1.4,2.5,1.8,2.8,4.1l-5.5-1C37.7,25,38.3,24.1,38.9,23.3z"/>
					<path class="st200" d="M42,24.1c0.4,0.4,0.7,0.7,0.9,1.2L40,24L42,24.1z"/>
					
						<radialGradient id="SVGID_3_" cx="40.694" cy="-885.8386" r="9.2527" gradientTransform="matrix(1 0 0 -1 0 -840)" gradientUnits="userSpaceOnUse">
						<stop  offset="0" style="stop-color:#F0A875"/>
						<stop  offset="1" style="stop-color:#F7BD7E"/>
					</radialGradient>
					<path class="st13" d="M31.8,28.5c-1,9.1,0.3,15.5,3,24.7l4,0.7l8.6-1.5c0.6-3.2,0.5-6.2,0.8-9.1c0.5-5,1.8-9.1,1.3-14.7
						C44.8,27.1,37,25.7,31.8,28.5z"/>
					<path class="st193" d="M40.5,53.6l6.8-1.2c0.6-3.3,0.5-6.2,0.8-9.1c0.5-5,1.1-9.6,0.6-15.3c-3.7-0.6-5.3-1.4-8.7-0.9
						c-0.8,6.3-1,12.4-1.4,18.9l1.7-0.6L40.5,53.6z"/>
					<path class="st10" d="M41.6,37.1c1.6-0.1,3-0.2,5.1,0C44.9,37.9,43.5,37.8,41.6,37.1z"/>
					<path class="st197" d="M44.9,37.1L44.9,37.1c-0.1,0.4-0.4,0.6-0.8,0.6c-0.3-0.1-0.5-0.3-0.6-0.6C44,37,44.4,37,44.9,37.1z"/>
					<path class="st197" d="M41.4,35l0.2,2c1.9-0.4,3.9-0.5,5.8-0.5l-0.1-1.4c-2.2-0.1-4.1,0.5-5.6,1.1L41.4,35L41.4,35z"/>
					<path class="st194" d="M41.6,37.2c0.2,2.2,1.8,3.3,4,2.4C43.4,39.6,42.4,39.3,41.6,37.2z"/>
					<path class="st197" d="M38.8,35.1L38.6,37c-1.8-0.5-3.7-0.6-5.6-0.6l0.1-1.3c2.1,0,4,0.6,5.5,1.2L38.8,35.1L38.8,35.1z"/>
					<path class="st194" d="M42.6,49.7c-1.6,0.1-3,0.1-5.1-0.2C39.4,48.9,40.7,49,42.6,49.7z"/>
					<g>
						<path class="st197" d="M32.9,26.5c-0.9,0.6-2.1,1.8-2.7,2.6c-0.1,4.3,0.2,8.7,1.8,14.3c0.2,3.7,1,7.4,2,10.9l0.2-1.2
							c1.2,2.4,2.3,3.1,5,4.6l0.8-1l0.5,1c1.8-0.4,4.1-2.1,5.1-3.5l0.2,1c0.6-0.7,1-1.6,1.5-2.8c0.6-3.4,0.8-5.9,1-9.1
							c1.7-5.5,2-10,2-14.6c-0.4-0.7-1.3-1.5-2.1-2.2C41.6,25.1,37.3,25.2,32.9,26.5L32.9,26.5z M39.3,28.1l0.7,1.1l0.8-1.1
							c2.6,0.1,5.3,0.7,8.3,1.6l-0.8,0.5c0.9,5.8-0.5,16.4-2.5,22.3L40.8,53l-0.4-0.7L40,53l-4.8-0.6c-3-5.9-4.1-16.5-2.5-22.3
							l-0.9-0.9C34.6,28.5,36.9,28.1,39.3,28.1z"/>
					</g>
					<path class="st198" d="M32.9,26.5c-0.4,0.3-1,0.7-1.5,1.2c2.7-0.2,5.3-0.8,8.1-0.9c3.9-0.1,7.2,0.7,10.7,1.8
						c-0.4-0.7-1.3-1.5-2.1-2.2C41.6,25.1,37.3,25.2,32.9,26.5z"/>
					<path class="st193" d="M49.1,38.4l-0.3,2.2c1.2,0.5,1.6,0.6,2.8,0.5c0.4-1.3,0.7-2.3-0.2-3.5C50.6,37.6,49.9,37.9,49.1,38.4z"
						/>
					<path class="st194" d="M51.3,38.4c-1.5-0.2-2,0.8-1.5,1.9C50.1,39.4,50.4,38.7,51.3,38.4z"/>
					<path class="st193" d="M31.7,38.4l0.3,2.2c-1.2,0.5-1.6,0.6-2.8,0.5c-0.4-1.3-0.7-2.3,0.2-3.5C30.1,37.6,30.8,37.9,31.7,38.4z"
						/>
					<path class="st194" d="M29.3,38.4c1.5-0.2,2,0.8,1.5,1.9C30.6,39.4,30.4,38.7,29.3,38.4z"/>
					<path class="st194" d="M38.7,37.2c-0.2,2.2-1.8,3.3-4,2.4C36.9,39.6,37.8,39.3,38.7,37.2z"/>
					<path class="st10" d="M38.6,37.2c-1.6-0.1-3-0.2-5.1,0C35.4,37.9,36.7,37.9,38.6,37.2z"/>
					<path class="st197" d="M35.4,37.1L35.4,37.1c0.1,0.4,0.4,0.6,0.8,0.6c0.3-0.1,0.5-0.3,0.6-0.6C36.2,37.1,35.8,37.1,35.4,37.1z"
						/>
					<g>
						<path class="st197" d="M39.1,27c-3.8,3.7-4.4,8.8-5.6,13.8l-0.3-2.6C34.1,33.3,35,30.1,39.1,27z"/>
						<path class="st197" d="M38.1,27.4c-3.1,2-4.3,5.5-5.8,8.8l0.2-1.8C33.8,31.1,34.9,29,38.1,27.4z"/>
					</g>
					<path class="st197" d="M43.5,27.8c3.9,2.7,5.2,7,7,11.3l-0.1-2.3C48.7,32.6,47.4,29.8,43.5,27.8z"/>
					<path class="st200" d="M37.8,25.3l2.1-1l-1.8,0.1C38,24.8,37.9,25,37.8,25.3z"/>
					<path class="st202" d="M30.6,72.4l19.7-0.1l-0.9,2.8c1,0.9,11.2,23.6,14.7,31.9c-2.3,0.1-6.9,0.3-12.4,0.3l0,0
						c0-0.4-0.2-0.9-0.5-0.9c-0.3-0.1-0.5,0.3-0.5,0.7c0,0.1,0,0.2,0,0.2c-1.3,0-2.5,0-3.8,0c0-0.6-0.3-1-0.7-1.1
						c-0.4-0.1-0.7,0.4-0.7,1c0,0.1,0,0.1,0,0.2h-0.4c0-0.3-0.2-0.6-0.4-0.7c-0.2-0.1-0.4,0.2-0.5,0.6l0,0c-10,0-20.6-0.1-25.3-0.5
						c4-9.9,10.2-28,12.3-31.5L30.6,72.4z"/>
					<path class="st203" d="M49.5,74.6l-0.1,0.5c0.2,0.1,0.6,0.9,1.1,1.9L42,76.6l-0.3,1.1l-0.9-0.2L43,93.3l-4.1,0.5l0.1-2.7
						l-2.8-1.2L39,77.4L37.7,77l0.1-0.6l0,0l-7.3,0.4c0.3-0.6,0.5-1.1,0.7-1.4l-0.1-0.7l6.8,0.1h0.3l0.1-0.5l1.8,0.1l0.1-0.3
						l2.1,0.1l-0.1,0.5L49.5,74.6z"/>
					<path class="st203" d="M53.1,107.3c-0.5,0-0.9,0-1.4,0l0,0c0-0.4-0.2-0.9-0.5-0.9c-0.3-0.1-0.5,0.3-0.5,0.7c0,0.1,0,0.2,0,0.2
						c-1,0-1.8,0-2.8,0l-1.6-18.5L53.1,107.3L53.1,107.3z M43.4,107.4c-1.1,0-2,0-3.1,0l0.9-7.8L43.4,107.4L43.4,107.4z M36.2,107.4
						c-1.3,0-2.5,0-3.7,0l1.8-16.4L36.2,107.4L36.2,107.4z M29.6,107.3l3.1-27.7L25,107.2C26.4,107.2,28,107.3,29.6,107.3z"/>
					<polygon class="st199" points="39.3,75.7 36.8,89.5 39.1,89.9 39,92.6 42.5,92.7 40.7,76.2 					"/>
					<polygon class="st200" points="39.3,75.7 39,77.4 39.4,77.6 39.9,77.3 40.8,77.6 40.7,76.2 					"/>
					<polygon class="st200" points="38.3,89.7 39.1,89.9 39.6,80.9 					"/>
					<polygon class="st199" points="30.8,74.3 37.9,74.4 49.7,74.2 50.6,76.7 37.8,75.9 30,76.4 					"/>
					<polygon class="st200" points="38.8,75.4 34.4,75.5 38.8,75.1 41.8,74.9 44.8,74.9 41.7,75.2 41.7,75.4 43.4,75.6 41.4,75.7 
											"/>
					<polygon class="st199" points="40.1,74 38.5,73.9 37.9,76.5 39.4,77.2 39.9,76.8 41.5,77.2 42.3,73.8 40.2,73.7 					"/>
					<polygon class="st200" points="40.1,74 39.8,74 39.7,76.2 					"/>
					<g class="st204">
						<g class="st205">
							<path class="st195" d="M40.2,78.4c-7-18.1-12.6-36.6-16.7-55.6l-1.4,4.5c3.9,17.3,9,33.8,15.6,51.7
								C38.6,78.8,39.4,78.6,40.2,78.4z"/>
							<path class="st206" d="M40.2,78.4c-7-18.1-12.6-36.6-16.7-55.6l-0.7,2.2c4.1,18,9.2,35.1,16.1,53.6L40.2,78.4z"/>
							<polygon class="st197" points="37.6,79.8 44,96.2 46.9,94.6 40.8,78.6 							"/>
							<polygon class="st207" points="45.4,95.5 46.9,94.6 40.8,78.6 39.3,79.2 							"/>
							<polygon class="st208" points="37.3,79.9 37,79 40.7,77.7 40.8,78.6 							"/>
							<polygon class="st209" points="36.7,80.8 36.3,80 41.8,77.7 42,78.6 							"/>
						</g>
						<polygon class="st210" points="39.9,80.8 40.8,81.1 40.3,82 39.5,81.7 						"/>
						<polygon class="st210" points="40.7,82.8 41.6,83.1 41.1,84 40.2,83.8 						"/>
						<polygon class="st210" points="41.4,84.7 42.3,85 41.9,86 40.9,85.7 						"/>
						<polygon class="st210" points="42.2,86.8 43.2,87.1 42.7,88.1 41.8,87.8 						"/>
					</g>
					<path class="st196" d="M24.4,77.7l-0.6,3c0.2,1,0.3,2,0.5,3c1.4-2,3.1-5.6,3.7-7.9L24.4,77.7z"/>
					<path class="st10" d="M24.9,81.2l-1.1-0.6c-0.8-7,0.7-11.9,5.2-17.7l1.2-0.3C32.1,71.3,30,75.8,24.9,81.2z"/>
					<path class="st211" d="M25.5,80c0.6-6.9,1.5-10.3,4.3-16.3C30.9,71.2,28.8,75.4,25.5,80z"/>
					<path class="st194" d="M32.9,63.7l0.6-1.8l2.6-0.7l1,0.1l1.2,4.1c-1.5,0.3-1.9-1-2.4-2.4c0,2-1.1,3.9-3,4.6L32.9,63.7z"/>
					<path class="st193" d="M28.9,65.5l3.9-2.5l1.1,4.5l-6.7,2.9C27.6,68.8,28.2,67.2,28.9,65.5z"/>
					<path class="st194" d="M28.9,65.5l0.5-0.3c-0.6,1.7-0.8,3-0.9,4.6l-1.4,0.6C27.6,68.8,28.2,67.2,28.9,65.5z"/>
					<polygon class="st194" points="30.3,64.6 32.8,62.9 33.9,67.4 32.2,68.2 32.1,67.9 31.6,67.5 31.5,66.3 30.9,65.9 30.9,64.9 
											"/>
					<polygon class="st193" points="35.2,60.5 36.2,62.1 35.8,62.8 36.9,64.2 36.3,64.8 37,66.1 36.2,66.5 36.3,68 32.8,68.6 
						32.5,67.5 32.1,67.1 31.9,66 31.4,65.6 31.4,64.5 30.3,64.1 30.3,62.9 					"/>
					<path class="st196" d="M56.9,80.4l0.9,2.9c-0.1,1.1-0.1,2-0.2,3.1c-1.6-1.9-3.7-5.3-4.5-7.5L56.9,80.4z"/>
					<path class="st10" d="M56.9,84l1-0.7c0.1-7.1-1.9-11.8-6.9-17.1l-1.3,0.5C48.5,75.5,51.2,79,56.9,84z"/>
					<path class="st211" d="M56.1,82.8C54.7,76,53.6,72.7,50.2,67C49.9,74.6,52.3,78.6,56.1,82.8z"/>
					<path class="st193" d="M50.9,68.3l-6,5.5l3.9,2.4l4.1-4.3C52.2,70.6,51.6,69.5,50.9,68.3z"/>
					<polygon class="st194" points="46.4,72.4 44.9,73.7 48.7,76.2 49.3,75.6 49.3,75.4 50.2,74.2 49.9,73.2 					"/>
					<path class="st194" d="M50.9,68.3l-0.4,0.4c0.6,1.6,0.9,2.9,1,4.7l1.4-1.4C52.2,70.6,51.6,69.5,50.9,68.3z"/>
					<g>
						<g>
							<path class="st206" d="M47.2,67.1c3.4-13.6,6.1-27.4,8.1-41.3l1.7,4.4c-1.8,12.6-4.2,24.7-7.3,37.3L47.2,67.1z"/>
							<path class="st195" d="M47.2,67.1c3.4-13.6,6.1-27.4,8.1-41.3l0.9,2.2c-1.9,13.2-4.5,26-7.8,39.3L47.2,67.1z"/>
						</g>
						<polygon class="st197" points="50,68.2 45.8,85.3 42.8,84.1 46.6,67.4 						"/>
						<polygon class="st207" points="44.3,84.6 42.8,84.1 46.6,67.4 48.2,67.8 						"/>
						<polygon class="st186" points="50.3,68.3 50.5,67.3 46.7,66.5 46.6,67.4 						"/>
						<polygon class="st186" points="51,69.1 51.2,68.2 45.6,66.7 45.5,67.6 						"/>
						<polygon class="st10" points="47.8,69.5 47,69.9 47.5,70.7 48.4,70.3 						"/>
						<polygon class="st10" points="47.3,71.5 46.5,72 47.1,72.8 47.9,72.5 						"/>
						<polygon class="st10" points="46.9,73.6 46,74 46.6,74.9 47.4,74.5 						"/>
						<polygon class="st10" points="46.4,75.7 45.5,76.2 46.1,77.1 47,76.7 						"/>
						<polygon class="st10" points="45.8,78 44.9,78.4 45.5,79.3 46.4,78.9 						"/>
						<polygon class="st10" points="45.3,80.1 44.4,80.6 45,81.3 45.9,80.9 						"/>
						<polygon class="st10" points="44.8,82.3 43.9,82.8 44.4,83.7 45.3,83.3 						"/>
					</g>
					<path class="st194" d="M47,74.9l-1-1.6h-2.7l-0.9,0.4l-0.2,4.2c1.6,0,1.7-1.4,1.8-2.9c0.5,2,1.9,3.5,4,3.7L47,74.9z"/>
					<polygon class="st193" points="44,72.4 43.4,74.1 43.9,74.8 43.2,76.3 43.8,76.8 43.6,78.2 44.4,78.4 44.6,79.9 48.2,79.6 
						48.2,78.5 48.6,78 48.5,76.9 48.9,76.4 48.6,75.3 49.6,74.6 49.3,73.5 					"/>
					<g>
						<path class="st10" d="M24.9,74.1c0,0.4-0.4,0.7-1.1,0.8c-0.6,0.1-1.2-0.2-1.2-0.6c0-0.4,0.4-0.7,1.1-0.8
							C24.3,73.5,24.8,73.7,24.9,74.1z"/>
						<path class="st10" d="M24.2,75.7c0,0.2-0.3,0.5-0.7,0.5s-0.7-0.1-0.8-0.4c0-0.2,0.3-0.5,0.7-0.5
							C23.9,75.3,24.2,75.5,24.2,75.7z"/>
					</g>
				</g>
			</g>
		</g>
	</g>
</g>
</svg>
