<?xml version="1.0" encoding="utf-8"?>
<!-- Generator: Adobe Illustrator 22.0.1, SVG Export Plug-In . SVG Version: 6.00 Build 0)  -->
<svg version="1.1" id="Layer_1" xmlns="http://www.w3.org/2000/svg" xmlns:xlink="http://www.w3.org/1999/xlink" x="0px" y="0px"
	 viewBox="0 0 87.3 87.3" enable-background="new 0 0 87.3 87.3" xml:space="preserve">
<linearGradient id="SVGID_1_" gradientUnits="userSpaceOnUse" x1="9.6342" y1="156.3" x2="69.1658" y2="156.3" gradientTransform="matrix(1 0 0 1 0 -100)">
	<stop  offset="0" style="stop-color:#90278E"/>
	<stop  offset="1" style="stop-color:#25A9E0"/>
</linearGradient>
<circle fill="#FFFFFF" stroke="url(#SVGID_1_)" stroke-width="1.9316" stroke-miterlimit="10" cx="39.4" cy="56.3" r="28.8"/>
<g>
	<g>
		<g>
			<defs>
				<path id="SVGID_2_" d="M67.3,56.5c-0.8,16.1-12.4,27.7-28,27.7s-27.7-12.4-27.7-28S-13.8,5.9,39.1,8.4
					C90.9,8.4,67.7,40.9,67.3,56.5z"/>
			</defs>
			<clipPath id="SVGID_3_">
				<use xlink:href="#SVGID_2_"  overflow="visible"/>
			</clipPath>
			<g clip-path="url(#SVGID_3_)">
				<path fill="#E1FAF8" d="M52,52.5c2.2,2.7,4.6,6.3,6.8,10.9c2.6,5.6,3.9,10.7,4.6,14.5c-0.5,0.7-1.5,1.6-2.8,2.2
					c-3.8,1.7-7.7-0.6-8.1-0.9c-1.3-2.2-3.9-7.4-3.8-14.5C48.9,59.1,50.8,54.7,52,52.5z"/>
				<path fill="#CCF3F0" d="M54.2,86.1c2.7,1.7,6.1,1.9,8.7,0.5c0.4-0.2,3.3-1.9,3.8-5.1c0.6-3.7-2.3-6.6-3.6-7.9
					c-3.5-3.5-8-4.1-9.7-4.2c-0.7,0.9-2.7,3.8-2.7,8.1C50.8,82.2,53.5,85.3,54.2,86.1z"/>
				<path fill="#7AE3E2" d="M42.4,46.2c0.9,0.5,1.9,1,2.8,1.5c2.6,1.5,4.9,3.2,6.8,4.8c0,0.7,0.2,8.5,0.3,9.2
					c0.3,12.3,0.5,18.6,0.4,24.6c0,3-0.1,5.4-0.2,6.9c-0.2,0.5-0.5,1-0.9,1.5c-1.2,1.5-2.7,2.2-3.5,2.5c-1.7,0.5-3.5,1-5.5,1.3
					c-7.3,1.2-13.7,0.3-18.2-0.9c-0.4-0.5-0.9-1.2-1.4-2c-0.8-1.4-1.3-2.7-1.5-3.8c-0.5-5.5-1.2-11.3-2.3-17.4
					c-1.5-8.6-3.4-16.5-5.4-23.6c1.5-0.8,3.5-1.7,5.9-2.6c2-0.7,5.3-1.7,9.6-2.3C34.3,45.5,38.8,45.7,42.4,46.2z"/>
				<path fill="#5FB7E1" d="M37.4,52.3c0,0,0,0.2,0.1,0.5s0.2,0.8,0.4,1.4c0.3,1.2,0.8,3,1.2,5.1c0.2,1.1,0.5,2.2,0.7,3.4
					c0.1,0.6,0.2,1.2,0.4,1.9c0.1,0.6,0.2,1.3,0.3,2s0.2,1.3,0.3,2s0.2,1.4,0.3,2.1c0,0.4,0.1,0.7,0.1,1.1s0.1,0.7,0.1,1.1
					c0.1,0.7,0.2,1.4,0.2,2.1c0.1,1.4,0.2,2.9,0.3,4.3c0,0.7,0.1,1.4,0.1,2.1s0,1.4,0.1,2.1c0,0.7,0,1.3,0,2c0,0.6,0,1.3,0,1.9
					s0,1.2,0,1.8c0,0.6,0,1.1,0,1.7c0,1.1-0.1,2.1-0.1,2.9c-0.1,0.9-0.1,1.6-0.1,2.3c-0.1,1.3-0.2,2-0.2,2s0-0.7,0.1-2
					c0-0.6,0-1.4,0.1-2.3c0-0.9,0-1.9,0-2.9c0-0.5,0-1.1,0-1.7s0-1.2,0-1.8c0-0.6,0-1.2,0-1.9c0-0.6,0-1.3-0.1-2
					c0-0.7-0.1-1.4-0.1-2c0-0.7-0.1-1.4-0.1-2.1c-0.1-1.4-0.2-2.8-0.3-4.3c-0.1-0.7-0.1-1.4-0.2-2.1c0-0.4-0.1-0.7-0.1-1.1
					s-0.1-0.7-0.1-1.1c-0.2-1.4-0.4-2.8-0.5-4.1c-0.1-0.7-0.2-1.3-0.3-2c-0.1-0.6-0.2-1.3-0.3-1.9c-0.2-1.2-0.4-2.4-0.6-3.4
					c-0.4-2.1-0.8-3.9-1.1-5.1C37.6,53,37.4,52.3,37.4,52.3z"/>
				<path opacity="0.25" fill="#034757" enable-background="new    " d="M53.2,84.5c0.6-4.3,1.1-10.2,0.4-17.2
					C53,61.3,51.7,56,51.5,56s0.7,4.7,1.2,10.8C53.4,74.5,53.4,80.6,53.2,84.5z"/>
				<path fill="#EEFFFF" d="M23.8,46.9c1.6,1.9,3.4,4.2,5,7c4.1,7.1,5.3,14,5.8,18.6c-0.8,6.2-1.7,12.6-2.7,18.9
					c-2.9,18.9-6.3,37.1-10,54.5c-1.5-0.1-3.7-0.3-6.1-1.3c-3.4-1.3-5.6-3.4-6.8-4.6l10-43c-0.9-0.2-1.4-1.1-1.2-1.8
					c0.2-0.6,0.8-1.1,1.5-1c0-10.4-1-22.2-4-34.8c-0.6-2.4-1.2-4.8-1.8-7c-0.2-0.8,0.1-1.6,0.8-1.9c0.8-0.4,1.5-0.8,2.4-1.1
					C19.3,48.2,21.7,47.4,23.8,46.9z"/>
				<path opacity="0.25" fill="#034757" enable-background="new    " d="M50,78.6c-2.2,2.7-6,6.6-11.8,9.7
					c-4.1,2.2-7.5,4.1-10.9,3.2c-5.3-1.4-8.9-9.2-9.1-19.1C28.8,74.5,39.4,76.6,50,78.6z"/>
				<path opacity="0.25" fill="#034757" enable-background="new    " d="M41.9,47.9c0.5,1.8,0.9,3.6,1.3,5.5
					C45,62,45.7,70,45.9,77.2c-0.1,2.1-0.2,4.3-0.3,6.4c0.5,1,0.9,2,1.4,3.1c0,1.3,0,2.5,0,3.8c0.1,9.3,0.9,18,2.2,26.2
					c0.5-9.9,0.9-17.8,1.2-22.4c1.1-19.4,1.8-26.2-1.5-34.8C46.7,54.2,43.8,50.3,41.9,47.9z"/>
				<path opacity="0.25" fill="#034757" enable-background="new    " d="M30.8,71.3c-0.9-1.4-2.4-3.6-4.2-6.1c-3-4.3-4.6-6.4-5-6.2
					c-0.6,0.3,0.1,4.2,2.2,7.3C25.9,69.3,29,70.7,30.8,71.3z"/>
				<path fill="#EEFFFF" d="M43.7,46.8c0.7,3.8,1.3,7.7,1.8,11.7c4.2,31.1,3.7,60.1,0.7,86.2c0.8,0.2,2.4,0.6,4.4,0.2
					c1.8-0.4,3.1-1.2,3.8-1.7c0.8-7.3,1.4-15.7,1.2-24.8c-0.1-8.1-0.8-15.4-1.7-22c-0.3-10.8-0.7-21.6-1-32.4
					c-0.1-3.2-0.2-7.4-0.4-10.7c0-0.6-0.3-1.1-0.7-1.5c-0.9-0.9-2.2-2-3.8-2.9C46.5,47.8,44.9,47.2,43.7,46.8z"/>
				<path fill="#FFC5C6" d="M82.5,67.9c-0.4,1.1-0.8,1.9-0.8,2.1c-0.3,0.8-0.8,1.8-1.5,3.1c-1.5,0.4-3.1,0.7-4.8,0.9
					c-6.2,0.8-11.5,0-15.4-1c-0.8,0.9-1.7,2.2-2.4,4c-1.4,3.7-0.6,7.1-0.3,8.4c2.3,0.4,5.5,0.6,9.1-0.3c9-2.1,13.9-8.8,15.3-10.8
					c0.4,0,0.8,0,1.3-0.2c1.8-0.7,2.3-2.8,2.4-3.1c0.6-0.3,0.9-0.3,1-0.2c0.1,0.2-0.2,0.7-1.1,1.6c0,0-0.1,0.3,0.1,0.5
					s0.4,0.2,0.7,0c0.2-0.2,0.5-0.5,0.7-0.9c0.3-0.4,1-1.5,0.7-2c-0.1-0.1-0.2-0.3-0.9-0.3c0.3-0.2,0.5-0.5,0.4-0.9
					s-0.5-0.6-0.5-0.6c0.1-0.4,0-0.6,0-0.7c-0.3-0.5-1.3-0.5-2.4,0c0.2-0.5,0.4-0.7,0.6-0.7c0.4-0.2,0.6,0,2,0.1
					c0.4,0,0.6,0.1,0.9,0s0.8-0.3,0.7-0.5c0-0.2-0.6-0.2-1.9-0.3c-2.1-0.2-2.4-0.4-2.8-0.1C83.3,66.1,83.2,66.3,82.5,67.9z"/>
				<path fill="#EEFFFF" d="M32.2,72.4c-1.4-1-2.8-2.3-4.2-3.9c-4.7-5.2-6.7-10.8-7.7-14.4c-0.3-0.5-0.9-1.5-2.1-2.2
					c-1.8-1.1-3.6-0.9-4.2-0.8c-0.8,1.2-1.9,3.1-2.5,5.5C9.2,65.2,14.1,72.9,16,76c3.1,5,7.1,8.3,10.4,10.4c1-1.6,2-3.4,2.9-5.4
					C30.7,77.8,31.6,74.9,32.2,72.4z"/>
				<path fill="#DCFDFC" d="M37,72.8c0,0.9,0,1.8-0.1,2.8c-0.5,5.2-3.1,9.1-4.9,11.4c-0.6,0.3-3,1.5-5.4,0.6
					c-3.3-1.2-4.3-5.6-3.9-8.4c0.6-3.9,4.1-7.1,8.8-8C33.4,71.7,35.2,72.3,37,72.8z"/>
				<path fill="#CCF3F0" d="M39.9,43.1c1.5,0.7,3.2,1.6,5,2.9c0.6,0.5,1.2,0.9,1.7,1.4c0.5,0.9,1,2.2,1.3,3.8
					c0.2,0.8,0.2,1.5,0.3,2.1c-0.6,0.3-1.2,0.7-1.9,1c0.7,0.4,1.3,0.9,2,1.3c0,1.8,0,3.7-0.2,5.9c-0.3,2.9-0.8,5.5-1.3,7.7
					c-0.4-3.3-1-6.9-1.8-10.8c-1-4.7-2.3-9-3.6-12.7C40.9,44.8,40.4,44,39.9,43.1z"/>
				<path fill="#FDAE94" d="M41.9,29.7c0.2-0.1,0.5-0.3,0.9-0.4c0.8-0.1,1.4,0.5,1.7,1c0.6,1.1,0,2.6-1,3.1c-0.5,0.2-1,0.1-1.2,0.1
					c-0.2-0.3-0.5-0.9-0.6-1.6C41.5,30.8,41.7,30.1,41.9,29.7z"/>
				<path opacity="0.4" fill="#FD6C5C" enable-background="new    " d="M43,33.4c0.2-0.1,0.9-0.3,1.2-1.1c0.2-0.5,0.5-1.5-0.2-2
					c-0.5-0.4-1.4-0.4-2,0.2c-0.1,0.1-0.5,1.1,0.1,2.1C42.4,33,42.8,33.3,43,33.4z"/>
				<path fill="#FFC7C7" d="M42,41.3c0,1.3,0,2.6,0.1,4c0.1,1.1,0.1,2.1,0.3,3c-1,0.8-2.7,1.9-5,2.1c-4,0.4-8-2.1-10.3-6.3
					c0-3.7-0.1-7.3-0.1-11C31.9,35.8,37,38.5,42,41.3z"/>
				<path opacity="0.4" fill="#FD8175" enable-background="new    " d="M42.1,41.8c-0.6,4.1-3,7.1-5.6,7.3c-2.8,0.3-5-2.9-6.3-4.6
					c-3.1-4.4-3.1-9.3-2.9-11.8c1.4-0.2,2.6-0.1,3.6,0C37.7,33.7,41.4,40.5,42.1,41.8z"/>
				<path fill="#FFC7C7" d="M42.2,40.7c0.3-1.1,0.7-2.5,0.8-4.3c0.1-2.2-0.3-3.9-0.6-5.2c0-0.3,0-0.6,0-1s-0.1-0.7-0.1-1.1
					c0.1-0.2,0.3-0.6,0.4-1c0.1-0.5,0.1-0.9,0-1.2c-0.3-0.2-0.5-0.5-0.8-0.7c0-0.5,0-1.3-0.3-2.2c-0.5-2-1.8-3.4-2.8-4.2
					c-2.3-1.8-6-2-9.2-0.3c-0.6,1.2-1.2,2.7-1.6,4.4c-1.6,7,1.2,13,2.4,15.4c0.7,0.7,1.8,1.7,3.4,2.3C37.9,43.1,41.6,41.1,42.2,40.7
					z"/>
				<path opacity="0.4" fill="#FD8175" enable-background="new    " d="M38.4,30.3c-0.2-0.1-0.6-0.3-1.2-0.3c-0.7,0-1.2,0.3-1.4,0.5
					c0,0.5,0,0.9,0,1.4c-0.1,0.2-0.2,0.5-0.4,0.8c-0.4,1-0.4,1.2-0.3,1.3c0.2,0.4,0.8,0.5,1,0.5c0.2,0.1,0.7,0.4,1.4,0.4
					c0.2,0,0.8,0,1.3-0.4c0.1-0.1,0.8-0.5,0.7-1.1c0,0,0-0.1-0.2-0.4c-0.2-0.3-0.4-0.6-0.5-0.7c-0.1-0.3-0.2-0.8-0.3-1.3
					C38.4,30.8,38.4,30.6,38.4,30.3z"/>
				<path fill="#4D0E16" d="M42.6,31.9c0.1,0.7,0.1,1.6,0,2.7s-0.4,2-0.6,2.8c-0.2,0-0.3,0.1-0.5,0.1c0.1-0.2,0.2-0.6,0.1-1.1
					c0-0.3-0.1-1.1-0.8-1.6c-0.8-0.6-1.8-0.2-1.9-0.2c-0.2,0.1-0.4,0.2-0.7,0.3c-0.1,0-0.4,0.1-0.8,0.1c-0.7,0-1.3-0.4-1.5-0.5
					c-0.2,0-0.4-0.1-0.7-0.1c0,0-0.7,0-1.2,0.1c-0.8,0.2-1.7,1.7-2,3.8c-0.2,0-0.5-0.1-0.7-0.3c-0.4-0.2-0.7-0.5-0.8-0.7
					c-0.3-0.4-0.6-0.9-0.9-1.5c-0.7-1.4-0.8-2.7-0.8-3.5c-0.4,0.1-0.8,0.2-1.2,0.3c-0.1,0.8-0.1,1.7-0.1,2.7
					c0.2,2.4,0.9,4.4,1.5,5.7c0.7,0.8,2.2,2.5,4.7,3.4c1,0.4,3,1,5.3,0.4c1.4-0.4,2.4-1.1,3-1.6c0.5-0.9,1-2,1.3-3.3
					c0.8-3.2,0.3-5.9-0.1-7.3C43,32.3,42.8,32.1,42.6,31.9z"/>
				<path opacity="0.4" fill="#FD8175" enable-background="new    " d="M39.4,33.7c-0.2,0.1-0.4,0.1-0.6,0.2
					c-1.5,0.3-2.9-0.1-3.7-0.4C35,33.6,34.9,33.8,35,34c0.1,0.4,0.5,0.6,1,0.6c0.2,0.1,0.7,0.4,1.4,0.4c0.3,0,1,0,1.5-0.5
					C39.3,34.2,39.4,33.9,39.4,33.7z"/>
				<path fill="#4B100B" d="M41.1,28.2c-0.3-0.1-0.6-0.1-0.9-0.2c-0.7-0.1-1.4,0-1.9,0c-0.1-0.2-0.1-0.4,0-0.7
					c0.2-0.6,1.2-0.6,1.8-0.5c0.5,0.1,1.3,0.4,1.3,0.9C41.3,27.8,41.3,28,41.1,28.2z"/>
				<path fill="#4B100B" d="M32.6,28c0.3-0.1,0.6-0.1,1-0.2c0.8-0.1,1.5,0,2,0c0.1-0.2,0.1-0.4,0-0.7c-0.2-0.6-1.3-0.6-1.9-0.5
					c-0.5,0.1-1.4,0.4-1.4,0.9C32.4,27.6,32.4,27.8,32.6,28z"/>
				<g>
					<path fill="#743026" d="M36,34.7L36,34.7c-0.2,0-0.4-0.1-0.5-0.1c-0.2-0.1-0.4-0.1-0.5-0.3s-0.1-0.4-0.1-0.5s0.1-0.1,0.1-0.1
						c0.1,0,0.1,0.1,0.1,0.1c0,0.1,0,0.2,0.1,0.3s0.1,0.1,0.3,0.2c0.2,0.1,0.3,0.1,0.5,0.1c0.1,0,0.1,0.1,0.1,0.1
						C36.1,34.6,36.1,34.7,36,34.7z"/>
				</g>
				<path fill="#FDBBA6" d="M41.4,31.1c-0.3,0-0.5-0.1-0.8-0.1c-0.8,0-1.4,0-2,0.2c0,0.2,0.1,0.4,0.2,0.7c0.1,0.2,0.2,0.3,0.3,0.4
					c0.9,0.3,1.8,0.1,2.2-0.5C41.3,31.7,41.4,31.5,41.4,31.1z"/>
				<path fill="#FDBBA6" d="M31.5,31.1c0.3,0,0.7-0.1,1.1-0.1c1,0,1.9,0,2.6,0.2c0,0.2-0.1,0.4-0.3,0.7c-0.1,0.2-0.2,0.3-0.4,0.4
					c-1.2,0.3-2.4,0.1-2.8-0.5C31.6,31.7,31.4,31.5,31.5,31.1z"/>
				<path fill="#4D0E16" stroke="#460B0B" stroke-miterlimit="10" d="M41.5,23.7c-0.1-0.6-0.3-1.4-0.9-2.3c-1.7-2.7-4.9-3.3-6.4-3.6
					c-2.4-0.5-4.9-0.2-5,0c0,0.1,0.5,0.3,1,0.4c-0.4,0.1-0.9,0.2-1.4,0.5c-1.5,0.8-2,2.3-2.3,3.2c-1.3,3.3-0.4,7.1-0.1,8.3
					c0.2,0.1,0.8,0.3,1.2,0.9C28.1,32,28,32.8,28,33c0.3,0.1,0.5,0.2,0.8,0.2c0-1,0-2,0.1-3.1c0.2-2.5,0.5-4.7,1-6.6
					c-0.1-0.5-0.2-1.1-0.2-1.9c0-0.5,0-1.1,0.2-1.9c0.5,0,1.1,0,1.7,0c2.9,0.3,5.1,1.7,6.3,2.7c0.2-0.1,0.4-0.4,0.6-0.8
					c0.3-0.5,0.3-1.1,0.3-1.3c0.4,0.4,1,0.9,1.5,1.6C40.8,22.6,41.2,23.2,41.5,23.7z"/>
				<path opacity="0.4" fill="#FD8175" enable-background="new    " d="M32.2,31.2c-0.9-0.2-2.4-0.1-2.8,0.8
					c-0.4,0.9,0.6,2.2,1.8,2.6c1.5,0.5,3.3-0.6,3.4-1.5C34.7,32.2,33.3,31.4,32.2,31.2z"/>
				<path opacity="0.4" fill="#FD8175" enable-background="new    " d="M40.8,31.3c0.6-0.1,1.4,0,1.7,0.6c0.4,0.7-0.2,1.8-1,2
					c-0.9,0.3-2-0.5-2-1.3C39.5,32,40.2,31.4,40.8,31.3z"/>
				<path fill="#FDBBA6" d="M40.5,36.8c0-0.3-0.3-0.5-0.6-0.4c-0.5,0.2-1.2,0.4-2,0.5c-1.5,0.2-2.8-0.1-3.7-0.4
					c-0.3-0.1-0.6,0.2-0.6,0.5c0,0.2,0.1,0.4,0.2,0.7c0.4,1.3,1.1,2.2,1.6,2.8c0.1,0.1,0.3,0.2,0.5,0.1c0.5-0.2,1.3-0.4,2.2-0.4
					c0.4,0,0.7,0.1,1,0.2c0.2,0.1,0.4,0,0.5-0.2c0.2-0.4,0.4-0.8,0.6-1.3C40.4,38,40.5,37.3,40.5,36.8z"/>
				<path fill="#881E2A" d="M39.4,38.1c0.3-0.5-0.1-1.2-0.8-1.2c-0.1,0-0.2,0-0.3,0c-1.3,0.1-2.5,0-3.4-0.2c-0.5-0.1-1,0.5-0.7,1
					c0,0,0,0,0,0.1c0.1,0.2,1.3,2,3.1,1.7C38.2,39.4,39,38.9,39.4,38.1z"/>
				<g>
					<g>
						<g>
							<defs>
								<path id="SVGID_4_" d="M39.4,38.1c0.3-0.5-0.1-1.2-0.8-1.2c-0.1,0-0.2,0-0.3,0c-1.3,0.1-2.5,0-3.4-0.2c-0.5-0.1-1,0.5-0.7,1
									c0,0,0,0,0,0.1c0.1,0.2,1.3,2,3.1,1.7C38.2,39.4,39,38.9,39.4,38.1z"/>
							</defs>
							<clipPath id="SVGID_5_">
								<use xlink:href="#SVGID_4_"  overflow="visible"/>
							</clipPath>
							<path clip-path="url(#SVGID_5_)" fill="#FFFFFF" d="M38.2,37.1c0.3,0,0.4,0.4,0.1,0.5l0,0c-1.8,0.7-3.3,0-3.8-0.3
								c-0.1,0,0.3-0.4,0.8-0.3C36.3,37.2,37.3,37.2,38.2,37.1z"/>
						</g>
						<path fill="#FFFFFF" d="M38.3,39.2c-0.3-0.1-0.6-0.2-1-0.2c-0.7-0.1-1.4,0-1.8,0c0.2,0.1,0.6,0.4,1.3,0.5S38.1,39.3,38.3,39.2
							z"/>
						<g opacity="0.4">
							<path fill="#FD8175" d="M40.8,25.8c-0.3,0-0.6-0.1-0.9-0.1c-0.3,0-0.6,0-0.9,0.1c-0.1,0-0.3,0.1-0.4,0.1
								c-0.1,0-0.3,0.1-0.4,0.1c-0.3,0.1-0.6,0.2-0.8,0.3h-0.1c-0.8-0.3-1.6-0.5-2.4-0.7c-0.4-0.1-0.8-0.1-1.2-0.2
								c-0.2,0-0.4,0-0.6,0c-0.2,0-0.4,0-0.6,0c0.2,0,0.4,0,0.6-0.1c0.2,0,0.4,0,0.6,0c0.4,0,0.9,0,1.3,0.1c0.8,0.1,1.7,0.4,2.5,0.7
								h-0.1c0.3-0.1,0.6-0.2,0.9-0.3c0.1,0,0.3-0.1,0.5-0.1s0.3,0,0.5-0.1c0.3,0,0.6,0,0.9,0C40.2,25.7,40.5,25.7,40.8,25.8z"/>
						</g>
						<path fill="#743026" d="M37.8,35c0,0,0.1,0,0.2-0.1c0.1,0,0.3-0.1,0.5-0.2c0.1-0.1,0.2-0.1,0.3-0.2c0.1-0.1,0.2-0.2,0.3-0.3
							c0.2-0.2,0.3-0.4,0.3-0.7v-0.1v-0.1c0-0.1,0-0.1-0.1-0.2c-0.1-0.1-0.2-0.2-0.2-0.3c-0.1-0.2-0.3-0.5-0.3-0.7
							c-0.1-0.2-0.1-0.4-0.1-0.5s0-0.2,0-0.2s0,0.1,0.1,0.2c0,0.1,0.1,0.3,0.2,0.5c0.1,0.2,0.2,0.4,0.4,0.6c0.1,0.1,0.2,0.2,0.2,0.3
							s0.1,0.1,0.1,0.2v0.1c0,0.1,0,0.1,0,0.1c0,0.2-0.1,0.3-0.1,0.5c-0.1,0.1-0.2,0.3-0.3,0.3c-0.1,0.1-0.2,0.2-0.3,0.3
							s-0.2,0.1-0.3,0.2C38.3,35,38.1,35,38,35S37.8,35,37.8,35z"/>
						<path opacity="0.15" fill="#FFFFFF" enable-background="new    " d="M39,33.6c-0.1-0.2-0.3-0.4-0.4-0.8
							c-0.3-0.5-0.2-0.5-0.4-0.7c-0.4-0.4-1.3-0.6-1.9-0.1c-0.7,0.5-0.7,1.3-0.7,1.4c0.5,0.2,1.1,0.3,2,0.4
							C38.1,33.8,38.6,33.7,39,33.6z"/>
						<path fill="#FFFFFF" d="M36.8,33.4c0,0.1-0.3,0.1-0.5,0s-0.4-0.3-0.4-0.3C36,33,36.8,33.3,36.8,33.4z"/>
						<path opacity="0.15" fill="#E32007" enable-background="new    " d="M38.7,34.4c0.1-0.1,0.3-0.3,0.2-0.4
							c-0.1-0.1-0.5,0.1-1.2,0.2c-1,0.1-1.6-0.2-1.7,0c0,0.1,0.3,0.4,0.6,0.5C37.4,35.1,38.3,34.9,38.7,34.4z"/>
						<path fill="#FDBBA6" d="M28,30.1c-0.1-0.2-0.5-0.7-1.2-0.9c-0.9-0.3-1.9,0.1-2.4,0.6c-0.8,0.8-0.9,2-0.7,2.8
							c0.4,1.5,2.1,2.5,4.2,2.4c0.2-0.4,0.3-0.9,0.4-1.5C28.5,32.1,28.2,30.8,28,30.1z"/>
						<path opacity="0.4" fill="#FD6C5C" enable-background="new    " d="M26.4,30.2c-0.7-0.2-1.7,0-2.2,0.7c-0.6,0.9-0.2,2,0.3,2.5
							c0.6,0.8,1.6,1.2,2.7,1c0-0.1-0.1-0.5,0.1-0.9s0.5-0.6,0.6-0.6C28.1,31.7,27.4,30.5,26.4,30.2z"/>
						<path fill="#743026" d="M36.8,34.8c0,0-0.1,0-0.2-0.1c-0.1,0-0.2-0.1-0.4-0.2c-0.1-0.1-0.3-0.1-0.4-0.1
							c-0.1,0-0.2-0.1-0.2-0.1s0.1,0,0.2-0.1c0.1,0,0.1,0,0.2,0c0.1,0,0.2,0,0.2,0.1c0.2,0.1,0.3,0.2,0.4,0.3S36.8,34.8,36.8,34.8z"
							/>
						<path fill="#A5F0EF" d="M42,43.6c0.2,0.2,0.4,0.4,0.6,0.7c0.1,0.8,0.2,1.9,0.2,3.1c0,0.7-0.1,1.4-0.2,1.9
							c-0.2,0.5-0.5,1.1-1,1.7c-0.5,0.7-1.1,1.2-1.5,1.6c-0.6-1.5-1.2-3-1.8-4.4c0.5-0.4,1.1-0.9,1.6-1.5
							C40.7,45.5,41.5,44.5,42,43.6z"/>
						<path fill="#A5F0EF" d="M27,42.6c1.1,1,2.5,2.2,4.2,3.3s3.3,1.9,4.7,2.4c-0.4,1.6-0.8,3.3-1.2,4.9c-1.3-0.4-3-1-4.9-2.1
							c-2.5-1.5-4.2-3.4-5.2-4.7c0.6-1.1,1.2-2.3,1.8-3.4L27,42.6z"/>
						<path fill="#CCF3F0" d="M25.6,44.4c-0.8,0.3-1.8,0.7-2.8,1.3c-1.2,0.7-2.1,1.4-2.9,2c0.1,1.2,0.3,2.6,0.8,4.3
							c0.7,2.1,1.6,3.7,2.4,4.9c1.2,0.1,2.4,0.2,3.6,0.3c-0.5,0.6-1,1.2-1.5,1.7c1.3,1.6,2.6,3.3,4,4.9c1.6,1.9,3.3,3.7,4.9,5.4
							c-0.3-2.7-0.9-5.8-2-9.2c-2-6.2-4.8-11-7.1-14.4C25.2,45.3,25.4,44.9,25.6,44.4z"/>
						<polygon fill="#76CBF3" points="38.2,48 37.5,49.6 36,49.6 35.8,48.3 34.6,53.2 35.7,51.8 38.2,51.8 40.1,52.6 						"/>
						<path fill="#52162A" d="M38,49.3c-0.3,0-0.6,0-1,0c-0.5,0.1-0.9,0.2-1.1,0.3c-0.1,0.8-0.3,1.7-0.4,2.5
							c0.4,0.5,0.7,0.9,1.1,1.4c0.6,0.1,1.2,0.2,1.7,0.4c0.2-0.6,0.4-1.3,0.7-1.9C38.6,51,38.3,50.1,38,49.3z"/>
						<path fill="#4A1212" d="M38.2,52.7c1.1,2.4,2.2,5.2,3.2,8.5c0.8,2.6,1.3,5,1.6,7.2c-0.8,1.2-1.6,2.4-2.4,3.5
							c-1.2-1.1-2.3-2.2-3.5-3.2c-0.1-2-0.2-4-0.3-6c-0.1-3.3-0.2-6.6-0.2-9.8C37.1,52.8,37.7,52.7,38.2,52.7z"/>
						<polygon fill="#52162A" points="37.8,49.6 38.7,49.2 39.5,51.2 38.5,51.8 						"/>
						<polygon fill="#52162A" points="35.5,49.6 36.1,49.9 35.8,51.9 35,51.7 						"/>
						<path fill="#DCB2B2" d="M39.5,57.4c-1,0.2-2,0.3-3,0.5c0,0.2,0,0.4,0,0.6c1-0.2,2-0.4,2.9-0.6L39.5,57.4L39.5,57.4z"/>
						<path fill="#12284D" d="M42.6,33c0.2-0.1,0.6-0.2,1-0.4c0.6-0.3,1-0.8,1.2-1.2c-0.9,0.1-1.7,0.3-2.7,0.4
							c-4.8,0.5-9.2,0.1-12.8-0.6c0.1,0.3,0.2,0.7,0.5,1.1c0.9,1,2.4,1,3.5,1c0.6,0,1.5-0.1,2.6-0.5c0.3-0.1,0.9-0.5,1.8-0.4
							c0.8,0,1.3,0.4,1.5,0.5c0.8,0.2,1.4,0.2,1.9,0.2C41.6,33.1,42,33.1,42.6,33z"/>
						<path fill="#12284D" d="M31.8,33c-0.9,0-1.5-0.3-1.8-0.6c-0.5-0.5-0.7-0.9-0.9-1.3c-0.4-0.7-1.2-1.5-3.1-2.1
							c-0.1-0.1-0.2-0.3-0.2-0.5c-0.1-0.3,0.1-0.6,0.1-0.7c1.2-0.3,2.4-0.6,3.6-0.9c0.8-0.2,1.5-0.3,2.3-0.5
							c-0.1,0.6-0.2,1.3-0.2,2.1C31.4,30.3,31.6,31.8,31.8,33z"/>
						<path fill="#253757" d="M44.3,26.5c-0.8-0.3-1.8-0.5-2.8-0.7c-4.5-0.8-8.4,0-11,0.8c-0.2,0.5-0.4,1.3-0.3,2.3
							c0,1.5,0.6,2.6,0.9,3.1c1.3,0.1,2.7,0.1,4.1,0.1c3.2,0,6.2-0.1,9.1-0.3c0.3-0.3,0.6-0.7,0.8-1.2
							C45.9,28.8,44.5,26.7,44.3,26.5z"/>
						<path fill="#374F7D" d="M43.8,26.7c-0.3,0.4-0.7,0.9-1.1,1.3c-1.5,1.7-3,2.9-4.4,3.8c-0.9,0-1.8,0-2.7,0
							c0.7-0.4,1.4-0.9,2.1-1.4c1.4-1.1,2.6-2.2,3.6-3.3c-0.8,0.5-1.6,1-2.4,1.6c-1.5,1-2.8,2.1-4,3.1c-0.3,0-0.5,0-0.8,0
							c0.4-0.4,0.8-0.8,1.2-1.2c1.8-1.8,3.7-3.3,5.5-4.6c0.5,0,1,0.1,1.6,0.2C42.8,26.4,43.3,26.5,43.8,26.7z"/>
						<path fill="#0F2148" d="M30.8,27.6c0,0.3,0,0.6,0,1c0,1.1,0.3,2,0.5,2.6c-0.3,0.1-0.6,0.2-0.9,0.3c-0.2-0.2-0.3-0.5-0.4-0.8
							c-0.5-1.2-0.3-2.4-0.1-3C30.2,27.7,30.5,27.6,30.8,27.6z"/>
						<path fill="#0F2148" d="M44.4,31.2c0.1-0.4,0.3-0.8,0.4-1.4c0.1-1,0-1.8-0.1-2.3c0.1,0,0.3,0,0.4-0.1c0.2,0.3,0.4,0.7,0.5,1.1
							c0.3,1.4-0.4,2.5-0.6,2.8C44.8,31.3,44.6,31.3,44.4,31.2z"/>
						<g>
							<path fill="#45E1FA" d="M28.7,29.9c-0.3,0-0.6-0.2-0.7-0.6c-0.2-0.5-0.1-1-0.1-1c0-0.1,0.1-0.1,0.2-0.1s0.1,0.1,0.1,0.2
								c0,0-0.1,0.4,0,0.8c0.1,0.3,0.3,0.4,0.4,0.4c0.2,0,0.3-0.4,0.2-0.8c0-0.3-0.2-0.5-0.2-0.6c-0.1-0.1,0-0.2,0-0.2
								c0.1-0.1,0.2,0,0.2,0c0.1,0.1,0.2,0.4,0.3,0.7c0.1,0.5-0.1,1-0.5,1.1C28.8,29.9,28.7,29.9,28.7,29.9z"/>
						</g>
						<g>
							<path fill="#45E1FA" d="M28.6,29.1c-0.1,0-0.1,0-0.2-0.1c0-0.2-0.1-0.3-0.1-0.5s-0.1-0.3-0.1-0.5c0-0.1,0.1-0.2,0.1-0.2
								c0.1,0,0.2,0.1,0.2,0.1c0,0.2,0,0.3,0.1,0.5c0,0.2,0.1,0.3,0.1,0.5C28.8,29,28.7,29.1,28.6,29.1L28.6,29.1z"/>
						</g>
						
							<radialGradient id="SVGID_6_" cx="45.9568" cy="51.9339" r="1.6093" gradientTransform="matrix(0.9985 5.450000e-02 -5.450000e-02 0.9985 -14.4743 -25.4752)" gradientUnits="userSpaceOnUse">
							<stop  offset="0" style="stop-color:#44D8F3"/>
							<stop  offset="1" style="stop-color:#000000"/>
						</radialGradient>
						<path fill="url(#SVGID_6_)" d="M30.5,29c-0.1,1.1-1,1.9-2.1,1.8s-1.9-1-1.8-2.1s1-1.9,2.1-1.8C29.8,27,30.6,27.9,30.5,29z"/>
						<path fill="#D8F5FF" d="M40.7,25.4c0,0.3,0.1,0.5,0.1,0.8c-0.6,0-1.1,0.1-1.7,0.1c-0.1,0.2-0.1,0.4-0.2,0.6
							c-0.8,0-1.5,0.1-2.3,0.1c-0.1-0.2-0.2-0.4-0.3-0.6c-0.8,0-1.5,0-2.3,0c0-0.3,0-0.5,0-0.8c0.8-0.2,1.9-0.5,3.2-0.6
							C38.6,25.1,39.8,25.2,40.7,25.4z"/>
						<path fill="#FFC5C6" d="M55.4,68c-0.4,1.1-0.8,1.9-0.8,2.1c-0.3,0.8-0.8,1.8-1.5,3.1c-1.5,0.4-3.1,0.7-4.8,0.9
							c-6.2,0.8-11.5,0-15.4-1c-0.8,0.9-1.7,2.2-2.4,4c-1.4,3.7-0.6,7.1-0.3,8.4c2.3,0.4,5.5,0.6,9.1-0.3c9-2.1,13.9-8.8,15.3-10.8
							c0.4,0,0.8,0,1.3-0.2c1.8-0.7,2.3-2.8,2.4-3.1c0.6-0.3,0.9-0.3,1-0.2c0.1,0.2-0.2,0.7-1.1,1.6c0,0-0.1,0.3,0.1,0.5
							c0.2,0.2,0.4,0.2,0.7,0c0.2-0.2,0.5-0.5,0.7-0.9c0.3-0.4,1-1.5,0.7-2c-0.1-0.1-0.2-0.3-0.9-0.3c0.3-0.2,0.5-0.5,0.4-0.9
							s-0.5-0.6-0.5-0.6c0.1-0.4,0-0.6,0-0.7c-0.3-0.5-1.3-0.5-2.4,0c0.2-0.5,0.4-0.7,0.6-0.7c0.4-0.2,0.6,0,2,0.1
							c0.4,0,0.6,0.1,0.9,0c0.3-0.1,0.8-0.3,0.7-0.5c0-0.2-0.6-0.2-1.9-0.3c-2.1-0.2-2.4-0.4-2.8-0.1C56.2,66.2,56.1,66.4,55.4,68z"
							/>
					</g>
				</g>
			</g>
		</g>
	</g>
</g>
</svg>
