<?xml version="1.0" encoding="utf-8"?>
<!-- Generator: Adobe Illustrator 21.0.1, SVG Export Plug-In . SVG Version: 6.00 Build 0)  -->
<svg version="1.1" id="Layer_1" xmlns="http://www.w3.org/2000/svg" xmlns:xlink="http://www.w3.org/1999/xlink" x="0px" y="0px"
	 viewBox="0 0 87.3 87.3" style="enable-background:new 0 0 87.3 87.3;" xml:space="preserve">
<style type="text/css">
	.st0{fill:#2CAB9F;}
	.st1{fill:#D8D8D2;}
	.st2{fill:#F2C6A1;}
	.st3{fill:#BC2F3D;}
	.st4{fill:#FECE08;}
	.st5{fill:#F3A27A;}
	.st6{clip-path:url(#SVGID_2_);}
	.st7{fill:#89684D;}
	.st8{fill:#414042;}
	.st9{fill:#EA7E78;}
	.st10{fill:#FFFFFF;}
	.st11{fill:#EE4500;}
	.st12{fill:#FEA708;}
	.st13{fill:url(#SVGID_3_);}
	.st14{fill:#92A9ED;}
	.st15{fill:#5F70AF;}
	.st16{fill:#A3A3A3;}
	.st17{fill:#C1C1C1;}
	.st18{fill:#A3A2A2;}
	.st19{fill:#E7E3E1;}
	.st20{clip-path:url(#SVGID_5_);fill:#BEBBBB;}
	.st21{clip-path:url(#SVGID_7_);fill:#BEBBBB;}
	.st22{clip-path:url(#SVGID_9_);fill:#BEBBBB;}
	.st23{clip-path:url(#SVGID_11_);fill:#BEBBBB;}
	.st24{clip-path:url(#SVGID_13_);fill:#BEBBBB;}
	.st25{clip-path:url(#SVGID_15_);fill:#BEBBBB;}
	.st26{fill:#58595B;}
	.st27{fill:#E2B436;}
	.st28{clip-path:url(#SVGID_17_);}
	.st29{fill:#36313B;}
	.st30{fill:#231E2B;}
	.st31{fill:#47414D;}
	.st32{fill:#273E42;}
	.st33{fill:#355860;}
	.st34{fill:#49727C;}
	.st35{fill:#3B2130;}
	.st36{fill:#5895A5;}
	.st37{fill:#E8BE9B;}
	.st38{fill:#C7936B;}
	.st39{fill:#69ACC4;}
	.st40{fill:#4FAB59;}
	.st41{fill:#915620;}
	.st42{fill:#AD661F;}
	.st43{fill:#A6644B;}
	.st44{fill:#C2751D;}
	.st45{fill:#CF8934;}
	.st46{fill:url(#SVGID_18_);}
	.st47{clip-path:url(#SVGID_20_);}
	.st48{fill:url(#hair_1_);}
	.st49{fill:url(#SVGID_21_);}
	.st50{opacity:0.3;fill:#A55311;enable-background:new    ;}
	.st51{opacity:0.2;fill:#FFA383;enable-background:new    ;}
	.st52{opacity:0.61;fill:#FFB273;enable-background:new    ;}
	.st53{opacity:0.4;fill:#FFB273;enable-background:new    ;}
	.st54{fill:url(#axe_1_);}
	.st55{opacity:0.3;fill:#676E7A;enable-background:new    ;}
	.st56{opacity:0.25;fill:#FFFFFF;enable-background:new    ;}
	.st57{opacity:0.5;fill:#FFFFFF;enable-background:new    ;}
	.st58{fill:#A8B5C1;}
	.st59{opacity:0.35;fill:#FFFFFF;enable-background:new    ;}
	.st60{fill:#FFC19F;}
	.st61{opacity:0.8;fill:#FFC19F;enable-background:new    ;}
	.st62{fill:url(#arm_1_);}
	.st63{opacity:0.6;fill:#FFC19F;enable-background:new    ;}
	.st64{fill:url(#SVGID_22_);}
	.st65{fill:url(#SVGID_23_);}
	.st66{fill:url(#SVGID_24_);}
	.st67{fill:url(#pants_1_);}
	.st68{opacity:0.2;fill:#1D280D;enable-background:new    ;}
	.st69{opacity:0.3;fill:#1D280D;enable-background:new    ;}
	.st70{fill:url(#SVGID_25_);}
	.st71{opacity:0.75;fill:#893700;enable-background:new    ;}
	.st72{fill:url(#SVGID_26_);}
	.st73{fill:url(#SVGID_27_);}
	.st74{fill:url(#SVGID_28_);}
	.st75{fill:url(#arm_2_);}
	.st76{fill:url(#SVGID_29_);}
	.st77{fill:url(#SVGID_30_);}
	.st78{fill:url(#SVGID_31_);}
	.st79{fill:url(#shirt_1_);}
	.st80{opacity:0.15;fill:url(#shadow_1_);enable-background:new    ;}
	.st81{fill:url(#belt_1_);}
	.st82{opacity:0.35;}
	.st83{fill:url(#SVGID_32_);}
	.st84{fill:url(#SVGID_33_);}
	.st85{opacity:0.8;}
	.st86{fill:url(#SVGID_34_);}
	.st87{fill:url(#SVGID_35_);}
	.st88{opacity:0.4;fill:url(#SVGID_36_);enable-background:new    ;}
	.st89{fill:url(#SVGID_37_);}
	.st90{opacity:0.6;fill:#FFEB78;enable-background:new    ;}
	.st91{opacity:0.75;fill:#FFEB78;enable-background:new    ;}
	.st92{fill:url(#SVGID_38_);}
	.st93{fill:url(#SVGID_39_);}
	.st94{fill:url(#SVGID_40_);}
	.st95{opacity:0.4;fill:#BF1604;enable-background:new    ;}
	.st96{fill:#541918;}
	.st97{fill:#9B071C;}
	.st98{fill:#FF2B15;}
	.st99{fill:url(#SVGID_41_);}
	.st100{fill:#A55311;}
	.st101{fill:#471A08;}
	.st102{fill:#FCC79A;}
	.st103{opacity:0.69;fill:#FFD3AB;enable-background:new    ;}
	.st104{fill:url(#SVGID_42_);}
	.st105{fill:url(#SVGID_43_);}
	.st106{fill:url(#SVGID_44_);}
	.st107{opacity:0.25;fill:url(#SVGID_45_);enable-background:new    ;}
	.st108{opacity:0.25;fill:#FC8460;enable-background:new    ;}
	.st109{fill:url(#SVGID_46_);}
	.st110{opacity:0.3;fill:url(#SVGID_47_);enable-background:new    ;}
	.st111{clip-path:url(#SVGID_49_);}
	.st112{fill:url(#SVGID_50_);}
	.st113{fill:url(#axe_2_);}
	.st114{fill:url(#arm_3_);}
	.st115{fill:url(#SVGID_51_);}
	.st116{fill:url(#SVGID_52_);}
	.st117{fill:url(#SVGID_53_);}
	.st118{fill:url(#SVGID_54_);}
	.st119{clip-path:url(#SVGID_56_);}
	.st120{fill:#FCC78C;}
	.st121{fill:url(#SVGID_57_);}
	.st122{fill:#AC7930;}
	.st123{fill:#1A171B;}
	.st124{fill:#EDEDEE;}
	.st125{fill:#939292;}
	.st126{fill:#C7D5DF;}
	.st127{fill:#98B7C9;}
	.st128{fill:url(#SVGID_58_);}
	.st129{fill:url(#SVGID_59_);}
	.st130{fill:url(#SVGID_60_);}
	.st131{fill:url(#SVGID_61_);}
	.st132{fill:url(#SVGID_62_);}
	.st133{fill:url(#SVGID_63_);}
	.st134{fill:url(#SVGID_64_);}
	.st135{fill:url(#SVGID_65_);}
	.st136{fill:url(#SVGID_66_);}
	.st137{fill:url(#SVGID_67_);}
	.st138{fill:url(#SVGID_68_);}
	.st139{fill:#EB3D00;}
	.st140{fill:#835527;}
	.st141{fill:#D0995B;}
	.st142{fill:#E4AC00;}
	.st143{fill:#553F24;}
	.st144{fill:#93723A;}
	.st145{fill:#B9391A;}
	.st146{fill:#D99C09;}
	.st147{fill:#FFCC00;}
	.st148{fill:#9C9D9F;}
	.st149{fill:#B1B3B4;}
	.st150{fill:#C6C7C9;}
	.st151{fill:#D9DADB;}
	.st152{fill:#87888A;}
	.st153{fill:#A65C44;}
	.st154{fill:url(#SVGID_69_);}
	.st155{fill:url(#SVGID_70_);}
	.st156{fill:#2A2C2E;}
	.st157{clip-path:url(#SVGID_72_);}
	.st158{fill:#FFF200;}
	.st159{fill:#FFE300;}
	.st160{fill:#FBB040;}
	.st161{fill:#FC873E;}
	.st162{fill:#FB983F;}
	.st163{fill:url(#SVGID_73_);}
	.st164{fill:#754629;}
	.st165{clip-path:url(#SVGID_75_);fill:#ED1C24;}
	.st166{clip-path:url(#SVGID_77_);fill:#FB983F;}
	.st167{clip-path:url(#SVGID_79_);fill:#FB983F;}
	.st168{clip-path:url(#SVGID_81_);}
	.st169{fill:#ED1C24;}
	.st170{fill:#FEFFFF;}
	.st171{fill:#B3151B;}
	.st172{fill:#ED5C62;}
	.st173{opacity:0.2;fill:#231F20;enable-background:new    ;}
	.st174{opacity:0.4;fill:#231F20;enable-background:new    ;}
	.st175{fill:#424345;}
	.st176{fill:#FFE3C2;}
	.st177{opacity:0.1;fill:#231F20;enable-background:new    ;}
	.st178{fill:#303842;}
	.st179{fill:#363F4A;}
	.st180{clip-path:url(#SVGID_83_);fill:#FFEEDB;}
	.st181{clip-path:url(#SVGID_85_);fill:#2A2C2E;}
	.st182{opacity:0.2;clip-path:url(#SVGID_87_);fill:#231F20;enable-background:new    ;}
	.st183{clip-path:url(#SVGID_89_);}
	.st184{fill:#08E4FF;stroke:#08E4FF;stroke-width:0.1289;stroke-miterlimit:10;}
	.st185{fill:#F5F38E;}
	.st186{fill:#90C53F;}
	.st187{clip-path:url(#SVGID_91_);}
	.st188{fill:#754444;}
	.st189{fill:#5E3636;}
	.st190{fill:#7A5E27;}
	.st191{fill:#D1AB65;}
	.st192{fill:#A78442;}
	.st193{fill:#FCCFA4;}
	.st194{fill:#C78E65;}
	.st195{fill:#DDDDDC;}
	.st196{fill:#3B212A;}
	.st197{fill:#24211D;}
	.st198{fill:#45413F;}
	.st199{fill:#968064;}
	.st200{fill:#706151;}
	.st201{fill:url(#SVGID_92_);}
	.st202{fill:#211D18;}
	.st203{fill:#352E27;}
	.st204{display:none;}
	.st205{display:inline;}
	.st206{fill:#A8A8A7;}
	.st207{fill:#3C3C3B;}
	.st208{fill:#C59221;}
	.st209{fill:#FDC800;}
	.st210{display:inline;fill:#FFFFFF;}
	.st211{fill:#949393;}
	.st212{fill:#DBE8B0;}
	.st213{clip-path:url(#SVGID_94_);}
	.st214{opacity:0.3;fill:#808080;enable-background:new    ;}
	.st215{display:none;fill:#4B4B63;}
	.st216{fill:#4F3927;}
	.st217{fill:#5F442D;}
	.st218{fill:#6C5236;}
	.st219{fill:#976F44;}
	.st220{fill:#AC824E;}
	.st221{fill:#826544;}
	.st222{fill:#6E6E6E;}
	.st223{fill:#595959;}
	.st224{fill:#545454;}
	.st225{fill:#424242;}
	.st226{fill:#9C9C9C;}
	.st227{fill:#6E8091;}
	.st228{fill:#7B8B9B;}
	.st229{opacity:0.25;fill:#696969;enable-background:new    ;}
	.st230{fill:#A4C639;}
	.st231{fill:#FFC639;}
	.st232{fill:#F1A530;}
	.st233{fill:none;}
	.st234{opacity:0.29;fill:#383838;}
	.st235{opacity:0.4;fill:#FFFFFF;enable-background:new    ;}
	.st236{opacity:0.8;fill:#FFFFFF;enable-background:new    ;}
	.st237{fill:#859F25;}
	.st238{fill:#D78507;}
	.st239{fill:#262626;}
	.st240{fill:#BFD773;}
	.st241{fill:#FBDD57;}
	.st242{clip-path:url(#SVGID_96_);fill:#F4B711;}
	.st243{fill:#F4B711;}
	.st244{clip-path:url(#SVGID_98_);fill:#F4B711;}
	.st245{fill:#F4BB3B;}
	.st246{fill:#383838;}
	.st247{fill:#E6E6E6;}
	.st248{fill:#B3B3B3;}
	.st249{fill:#7D7D7D;}
	.st250{fill:#2F2F2F;}
	.st251{fill:#F2D850;}
	.st252{clip-path:url(#SVGID_100_);}
	.st253{fill:#C62B12;}
	.st254{fill:#B3B729;}
	.st255{fill:#A3A321;}
	.st256{fill:#C8D340;}
	.st257{opacity:0.6;fill:#7F7C13;enable-background:new    ;}
	.st258{fill:#F6D88C;}
	.st259{fill:url(#SVGID_101_);}
	.st260{fill:#1D1D1B;}
	.st261{fill:#C96317;}
	.st262{fill:#B74C1D;}
	.st263{fill:#C91111;}
	.st264{fill:#F6F8F9;}
	.st265{fill:#F97450;}
	.st266{fill:#3D8699;}
	.st267{fill:#FC7800;}
	.st268{fill:#7A7A74;}
	.st269{opacity:0.6;fill:#7F2713;enable-background:new    ;}
	.st270{fill:#F5D78B;}
	.st271{fill:#F5D78C;}
	.st272{fill:#F09453;}
	.st273{fill:#EF8E4D;}
	.st274{fill:#F1A15E;}
	.st275{fill:#EF8A4D;}
	.st276{fill:#EF8848;}
	.st277{fill:#F3C078;}
	.st278{fill:#F2B26F;}
	.st279{fill:#F19D5B;}
	.st280{fill:#F1A562;}
	.st281{fill:#F09A58;}
	.st282{fill:#EE7F41;}
	.st283{fill:url(#SVGID_102_);}
	.st284{fill:none;stroke:url(#SVGID_103_);stroke-width:1.9316;stroke-miterlimit:10;}
	.st285{clip-path:url(#SVGID_105_);}
	.st286{fill:#547FA1;}
	.st287{fill:#D0BF90;}
	.st288{fill:#E5D6AC;}
	.st289{fill:#DBC99A;}
	.st290{fill:#DCC6A2;}
	.st291{fill:url(#Кофта_1_);}
	.st292{fill:#FFBD7B;}
	.st293{fill:#CCAF83;}
	.st294{fill:#DBC5A1;}
	.st295{fill:#D3B991;}
	.st296{fill:#3C3022;}
	.st297{fill:url(#SVGID_106_);}
	.st298{fill:#FF9E85;}
	.st299{fill:#292929;}
	.st300{fill:#2C3C53;}
	.st301{fill:none;stroke:url(#SVGID_107_);stroke-width:1.9316;stroke-miterlimit:10;}
	.st302{fill:#FFFFFF;stroke:url(#SVGID_108_);stroke-width:1.9311;stroke-miterlimit:10;}
	.st303{clip-path:url(#SVGID_110_);}
	.st304{fill:#363D67;}
	.st305{fill:#DCA54C;}
	.st306{fill:#FEFEFE;}
	.st307{fill:#F5183F;}
	.st308{fill:#FDCCBB;}
	.st309{fill:#FDFDFC;}
	.st310{fill:#FDFDFB;}
	.st311{fill:#F4183F;}
	.st312{fill:#F31840;}
	.st313{fill:#F4173F;}
	.st314{fill:#DBA44C;}
	.st315{fill:#FCF9F9;}
	.st316{fill:#FCFCFA;}
	.st317{fill:#DAA44C;}
	.st318{fill:#FBF5F6;}
	.st319{fill:#FCF6F6;}
	.st320{fill:#FBFAF7;}
	.st321{fill:#DD1F47;}
	.st322{fill:#FAF5F6;}
	.st323{fill:#CE9D54;}
	.st324{fill:#F8ECEF;}
	.st325{fill:#FCF6F7;}
	.st326{fill:#D5A254;}
	.st327{fill:#727693;}
	.st328{fill:#E91B43;}
	.st329{fill:#F5F5F6;}
	.st330{fill:#AFB6C1;}
	.st331{fill:#D6A14E;}
	.st332{fill:#F7F2F3;}
	.st333{fill:#363C67;}
	.st334{fill:#353C67;}
	.st335{fill:#F31C42;}
	.st336{fill:#EAD2DA;}
	.st337{fill:#DA1E45;}
	.st338{fill:#373E67;}
	.st339{fill:#FCCCB9;}
	.st340{fill:#3D4166;}
	.st341{fill:#FBCBB8;}
	.st342{fill:#F6CAB6;}
	.st343{fill:#FBC3CD;}
	.st344{fill:#FBDCE1;}
	.st345{fill:#ED1D44;}
	.st346{fill:#ECEBEE;}
	.st347{fill:#E1234A;}
	.st348{fill:#DED3DB;}
	.st349{fill:#DD2047;}
	.st350{fill:#D5CCD6;}
	.st351{fill:#F5DDE3;}
	.st352{fill:#383E67;}
</style>
<g>
	<g>
		<g>
			<defs>
				<circle id="SVGID_55_" cx="39.4" cy="-36" r="30"/>
			</defs>
			<clipPath id="SVGID_2_">
				<use xlink:href="#SVGID_55_"  style="overflow:visible;"/>
			</clipPath>
			<g class="st6">
				<path class="st122" d="M39.6-17.7l-1-0.1c-4.2,5.1-4,11.3-3.5,18l5-0.4C39-6.2,38.4-11.6,39.6-17.7z"/>
				<path class="st123" d="M52.7,27.9l-6.6-0.5l-0.2,0.5l-1.7-0.1l-0.4-3.6c0.9,0.5,2.9,0.7,4,0.8C49.6,26.5,50.8,27.2,52.7,27.9z"
					/>
				<polygon class="st124" points="41.5,23.5 40.9,25 39.3,24.8 40.3,26 39.3,27.2 40.9,27 41.5,28.5 42.1,27 43.6,27.2 42.6,26 
					43.6,24.8 42.1,25 				"/>
				<path class="st125" d="M41.6,25.5c-0.3,0-0.6,0.3-0.6,0.6c0,0.3,0.3,0.6,0.6,0.6c0.2,0,0.4-0.1,0.5-0.3c0.8,0.3,1.6,0.4,2.5,0.4
					c0.1,0.2,0.3,0.3,0.5,0.3c0.3,0,0.6-0.3,0.6-0.6c0-0.3-0.3-0.6-0.6-0.6c-0.3,0-0.5,0.2-0.6,0.4c-0.8,0-1.6-0.1-2.4-0.3
					C42.1,25.6,41.8,25.5,41.6,25.5z"/>
				<path class="st123" d="M33.5,30.4l-7.1-0.9L26.2,30l-1.7-0.2l0.2-4.2c0.9,0.6,2.4,1.1,3.6,1.3C30.2,28.7,31.5,29.5,33.5,30.4z"
					/>
				<polygon class="st124" points="21.8,25.4 21.2,26.8 19.6,26.6 20.6,27.8 19.6,29.1 21.2,28.8 21.8,30.3 22.4,28.8 23.9,29.1 
					22.9,27.8 23.9,26.6 22.4,26.8 				"/>
				<path class="st125" d="M21.9,27.3c-0.3,0-0.6,0.3-0.6,0.6s0.3,0.6,0.6,0.6c0.2,0,0.4-0.1,0.5-0.3c0.9,0.3,1.6,0.4,2.5,0.4
					c0.1,0.2,0.3,0.3,0.5,0.3c0.3,0,0.6-0.3,0.6-0.6c0-0.3-0.3-0.6-0.6-0.6c-0.3,0-0.5,0.2-0.6,0.4c-0.8,0-1.6-0.1-2.4-0.3
					C22.4,27.5,22.1,27.3,21.9,27.3z"/>
				
					<linearGradient id="SVGID_3_" gradientUnits="userSpaceOnUse" x1="34.924" y1="-286.152" x2="34.924" y2="-295.097" gradientTransform="matrix(1 0 0 -1 0 -280.3333)">
					<stop  offset="0" style="stop-color:#282F42"/>
					<stop  offset="0.1365" style="stop-color:#343D56"/>
					<stop  offset="0.316" style="stop-color:#404A68"/>
					<stop  offset="0.5024" style="stop-color:#475273"/>
					<stop  offset="0.7048" style="stop-color:#495577"/>
				</linearGradient>
				<path class="st13" d="M39.8,11.6c-1.7-1.4-2.3-2-4.9-3.1c-0.9,0.3-2.1,0.5-3.1,0.2c0.2,2.4,0.4,4.2,0.5,6
					c-1.7-1.1-3-3.7-3.3-8.3l8.1-0.6C41.9,7.5,41.3,10.4,39.8,11.6z"/>
				<g>
					
						<linearGradient id="SVGID_5_" gradientUnits="userSpaceOnUse" x1="22.274" y1="-303.592" x2="19.621" y2="-303.592" gradientTransform="matrix(1 0 0 -1 0 -280.3333)">
						<stop  offset="0" style="stop-color:#472E14"/>
						<stop  offset="0.6952" style="stop-color:#825226"/>
					</linearGradient>
					<polygon style="fill:url(#SVGID_5_);" points="21.9,24.3 19.6,23.3 20.4,22.2 22.3,23.7 					"/>
					
						<linearGradient id="SVGID_7_" gradientUnits="userSpaceOnUse" x1="23.441" y1="-301.795" x2="20.775" y2="-301.795" gradientTransform="matrix(1 0 0 -1 0 -280.3333)">
						<stop  offset="0" style="stop-color:#472E14"/>
						<stop  offset="0.6952" style="stop-color:#825226"/>
					</linearGradient>
					<polygon style="fill:url(#SVGID_7_);" points="23,22.5 20.8,21.5 21.6,20.4 23.4,21.9 					"/>
					
						<linearGradient id="SVGID_9_" gradientUnits="userSpaceOnUse" x1="24.663" y1="-299.8255" x2="21.995" y2="-299.8255" gradientTransform="matrix(1 0 0 -1 0 -280.3333)">
						<stop  offset="0" style="stop-color:#472E14"/>
						<stop  offset="0.6952" style="stop-color:#825226"/>
					</linearGradient>
					<polygon style="fill:url(#SVGID_9_);" points="24.3,20.6 22,19.5 22.8,18.4 24.7,19.9 					"/>
					
						<linearGradient id="SVGID_11_" gradientUnits="userSpaceOnUse" x1="25.776" y1="-297.808" x2="23.096" y2="-297.808" gradientTransform="matrix(1 0 0 -1 0 -280.3333)">
						<stop  offset="0" style="stop-color:#472E14"/>
						<stop  offset="0.6952" style="stop-color:#825226"/>
					</linearGradient>
					<polygon style="fill:url(#SVGID_11_);" points="25.5,18.4 23.1,17.7 23.7,16.5 25.8,17.7 					"/>
					
						<linearGradient id="SVGID_13_" gradientUnits="userSpaceOnUse" x1="26.572" y1="-295.759" x2="23.907" y2="-295.759" gradientTransform="matrix(1 0 0 -1 0 -280.3333)">
						<stop  offset="0" style="stop-color:#472E14"/>
						<stop  offset="0.6952" style="stop-color:#825226"/>
					</linearGradient>
					<polygon style="fill:url(#SVGID_13_);" points="26.4,16.3 23.9,15.9 24.4,14.6 26.6,15.5 					"/>
				</g>
				<g>
					
						<linearGradient id="SVGID_15_" gradientUnits="userSpaceOnUse" x1="41.724" y1="-303.4535" x2="39.417" y2="-303.4535" gradientTransform="matrix(1 0 0 -1 0 -280.3333)">
						<stop  offset="0" style="stop-color:#472E14"/>
						<stop  offset="0.6952" style="stop-color:#825226"/>
					</linearGradient>
					<polygon style="fill:url(#SVGID_15_);" points="41.6,23.8 39.4,23.5 39.8,22.4 41.7,23.2 					"/>
					
						<linearGradient id="SVGID_17_" gradientUnits="userSpaceOnUse" x1="42.294" y1="-301.4165" x2="40.08" y2="-301.4165" gradientTransform="matrix(1 0 0 -1 0 -280.3333)">
						<stop  offset="0" style="stop-color:#472E14"/>
						<stop  offset="0.6952" style="stop-color:#825226"/>
					</linearGradient>
					<polygon style="fill:url(#SVGID_17_);" points="42.2,21.6 40.1,21.7 40.3,20.5 42.3,21 					"/>
					
						<linearGradient id="SVGID_18_" gradientUnits="userSpaceOnUse" x1="42.72" y1="-299.4345" x2="40.531" y2="-299.4345" gradientTransform="matrix(1 0 0 -1 0 -280.3333)">
						<stop  offset="0" style="stop-color:#472E14"/>
						<stop  offset="0.6952" style="stop-color:#825226"/>
					</linearGradient>
					<polygon class="st46" points="42.7,19.6 40.5,19.7 40.7,18.5 42.7,18.9 					"/>
					
						<linearGradient id="SVGID_20_" gradientUnits="userSpaceOnUse" x1="42.535" y1="-297.451" x2="40.359" y2="-297.451" gradientTransform="matrix(1 0 0 -1 0 -280.3333)">
						<stop  offset="0" style="stop-color:#472E14"/>
						<stop  offset="0.6952" style="stop-color:#825226"/>
					</linearGradient>
					<polygon style="fill:url(#SVGID_20_);" points="42.5,17.1 40.5,17.8 40.4,16.6 42.4,16.5 					"/>
					
						<linearGradient id="SVGID_21_" gradientUnits="userSpaceOnUse" x1="42.149" y1="-295.566" x2="39.974" y2="-295.566" gradientTransform="matrix(1 0 0 -1 0 -280.3333)">
						<stop  offset="0" style="stop-color:#472E14"/>
						<stop  offset="0.6952" style="stop-color:#825226"/>
					</linearGradient>
					<polygon class="st49" points="42.1,15.2 40.1,15.9 40,14.7 42,14.6 					"/>
				</g>
				<path class="st126" d="M41.2-17.6l-5.3-3C27.1-11.3,25.9-2.1,27,5.5c3.5,0.4,7.3,0.3,9.7-0.2C35.5-0.8,35-7.4,41.2-17.6z"/>
				<path class="st127" d="M32.8-17c-6,8-6.7,15.9-5.8,22.5c1,0.1,2,0.2,3,0.2l0.5-0.1C29.2-2.2,31.2-8,33.6-15.5
					c0.6,2.4,1,5.2,3.1,6.8l-1.3-8.1L32.8-17z"/>
				<path class="st122" d="M36.1-19.7l-1.2-0.5c-6.4,4.8-8.8,12.1-10,20.2l6.8,1C32.1-6.4,32.9-12.9,36.1-19.7z"/>
				<path class="st140" d="M35.2-20.1l-0.4-0.1c-6.4,4.8-8.8,12.1-10,20.2l3.4,0.5C28.3-6.9,29.7-14.8,35.2-20.1z"/>
				<path class="st10" d="M34.3,2.3c-0.2-0.1-0.5,0-0.6,0.2c-0.1,0.2,0,0.5,0.2,0.7c0.2,0.1,0.5,0,0.7-0.2
					C34.7,2.8,34.6,2.5,34.3,2.3z"/>
				<path class="st122" d="M29.4,6.6l-0.1,0c0.3,4.4,1.7,6.9,3.4,7.9c0.7,4,0.7,7.2-0.3,12.4c-3.2,0.9-7.7,0.8-11.9-2
					c5.4-5.6,6.9-10.7,6.5-18.4l2.4-0.2L29.4,6.6L29.4,6.6z"/>
				<path class="st140" d="M22.3,26c-0.6-0.3-1.3-0.6-1.9-1.1c5.4-5.6,6.9-10.7,6.5-18.4l0.7,0C28,14.5,27.1,19.5,22.3,26z"/>
				<path class="st122" d="M37.5,5.9C44,7,50,12.3,50.8,23.7c-3.8,2.2-5.9,1.7-10.1,0.9c3.1-5.3,1.9-11-2.5-13.5
					c1.3-1.4,1.4-2.7-1.2-4.9V5.9L37.5,5.9z"/>
				<path class="st123" d="M37.1,4.5C33.5,4.8,30.1,5,26.4,5L27,7.3c3.9,0.2,7.2-0.2,11-1.1L37.1,4.5z"/>
				<path class="st146" d="M34.7,3.9c-1.2,0.1-2.1,0.9-2.1,1.8c0,0.9,1,1.6,2.1,1.6c1.2-0.1,2.1-0.9,2.1-1.8
					C36.8,4.5,35.9,3.8,34.7,3.9z"/>
				<path class="st147" d="M34.7,4.2C33.8,4.3,33,4.9,33,5.6c0,0.7,0.8,1.3,1.7,1.2c0.9-0.1,1.7-0.7,1.7-1.4
					C36.4,4.7,35.6,4.2,34.7,4.2z"/>
			</g>
		</g>
	</g>
</g>
<g>
	<circle class="st156" cx="39.3" cy="56.4" r="29.9"/>
	<g>
		<g>
			<defs>
				<path id="SVGID_71_" d="M72.5,57.6c-0.7,0-0.2,2.2-0.2,2.6c-0.2,5.2-5,7.5-7.6,11.7c-5.1,8.7-14.7,14.5-25.4,14.5
					C22.8,86.3,9.5,73,9.5,56.4S25.4,6.6,41.9,6.6c16.1,0,44.3-1.3,36.2,49.8C78.1,56.8,72.9,57.6,72.5,57.6z"/>
			</defs>
			<clipPath id="SVGID_22_">
				<use xlink:href="#SVGID_71_"  style="overflow:visible;"/>
			</clipPath>
			<g style="clip-path:url(#SVGID_22_);">
				<path class="st158" d="M53,33.4c1-1,2.4-2.6,3.5-4.9c1.8-4.2,1.2-7.9,0.8-9.4c-3.7-0.1-7.3-0.1-11.1-0.2
					c-1.1-0.8-2.2-1.7-3.3-2.5c0.1,0.9,0.1,1.8,0.2,2.7c-0.9-0.4-2-1-3.2-1.8c-1.2-0.8-2.1-1.7-2.7-2.5c-0.2,0.8-0.7,3,0.2,5.6
					c0.8,2.2,2.2,3.6,3.5,4.7C45.2,28.5,49.9,31.5,53,33.4z"/>
				<path class="st159" d="M37.1,18.9c0.1,0.4,0.2,0.9,0.4,1.4c0.8,2.2,2.2,3.6,3.5,4.7c4.3,3.7,8.9,6.6,12.2,8.5
					c1-1,2.4-2.6,3.5-4.9c1.2-2.8,1.3-5.4,1.2-7.3C50.5,22,42.9,22.4,37.1,18.9z"/>
				<path class="st160" d="M41.2,27.6c-0.5-0.7-1.6-0.9-2.3-0.4c-0.7,0.4-1,1.5-0.7,2.2c0.4,0.8,1.3,1.2,2.1,1
					c0.8-0.2,1.5-1,1.5-1.9C41.7,27.8,41.6,28.2,41.2,27.6z"/>
				<path class="st161" d="M38.8,29.4c0.1,0.2,0.4,0.4,0.6,0.4s0.5-0.1,0.6-0.3c0.2-0.3-0.1-0.5-0.3-0.8c-0.3-0.4-0.1-0.4,0.1-0.7
					c0.4-0.5-0.4-0.7-0.8-0.3C38.8,28.1,38.5,28.9,38.8,29.4z"/>
				<path class="st160" d="M54.5,26.9c0.5-0.7,1.6-0.9,2.3-0.4c0.7,0.4,1,1.5,0.7,2.2c-0.4,0.8-1.3,1.2-2.1,1
					c-0.8-0.2-1.5-1-1.5-1.9C53.9,27,54.1,27.5,54.5,26.9z"/>
				<path class="st161" d="M56.9,28.6c-0.1,0.2-0.4,0.4-0.6,0.4c-0.2,0-0.5-0.1-0.6-0.3c-0.2-0.3,0.1-0.5,0.3-0.8
					c0.3-0.4,0.1-0.4-0.1-0.7c-0.4-0.5,0.4-0.7,0.8-0.3C57,27.4,57.3,28.1,56.9,28.6z"/>
				<path class="st160" d="M40.3,22.7c0.4,7.6,0.8,15.2,1.2,23c2.7,0.9,5.2,1.7,7.9,2.6c2-0.6,4-1.2,5.9-1.8
					C55.2,38.3,55,30.2,54.9,22C50.1,22.2,45.2,22.4,40.3,22.7z"/>
				<path class="st162" d="M41.2,38.5c0.1,2.4,0.2,4.7,0.4,7c2.7,0.9,5.2,1.7,7.9,2.6c2-0.6,4-1.2,5.9-1.8c-0.1-2.8-0.1-5.4-0.1-8.2
					c-2.6,1-5.3,1.5-8,1.6C45.2,39.7,43,39.4,41.2,38.5z"/>
				
					<linearGradient id="SVGID_23_" gradientUnits="userSpaceOnUse" x1="48.3965" y1="-818.5703" x2="46.3897" y2="-810.8602" gradientTransform="matrix(1 0 0 -1 0 -784.3333)">
					<stop  offset="0" style="stop-color:#FC5F3C"/>
					<stop  offset="1" style="stop-color:#FBB040"/>
				</linearGradient>
				<path class="st65" d="M45.6,25.6c-0.1,0.4-1.9,6.8,0,7.9c0.4,0.2,0.8,0.2,0.9,0.1c1.8-0.2,2.8-3.6,2.9-6c0-0.7-0.1-1.4-0.1-1.7
					C48.1,25.8,46.9,25.7,45.6,25.6z"/>
				<g>
					<path class="st164" d="M41.7,29L41,28.9c0.1-0.9,0.8-1.6,1.6-1.7c1-0.2,2,0.5,2.3,1.6L44,29c-0.2-0.6-0.8-1.1-1.4-1
						C42.2,28.1,41.8,28.5,41.7,29z"/>
				</g>
				<g>
					<path class="st164" d="M50.2,28.9l-0.8-0.1c0.1-0.9,0.8-1.6,1.6-1.7c1-0.2,2,0.5,2.3,1.6l-0.8,0.2c-0.2-0.6-0.8-1.1-1.4-1
						C50.7,28,50.3,28.4,50.2,28.9z"/>
				</g>
				<path class="st158" d="M40.5,26.7c1.5-0.1,3-0.2,4.5-0.3c0-0.1-0.7-1.3-1.9-1.4C41.9,25,40.9,25.6,40.5,26.7z"/>
				<path class="st158" d="M49.1,26.4c1.5-0.1,3-0.2,4.5-0.3c0-0.1-0.7-1.3-1.9-1.4C50.6,24.7,49.5,25.3,49.1,26.4z"/>
				<path class="st10" d="M43.4,34.7c2.5-0.1,5-0.2,7.5-0.4c-0.1,0.2-1.4,2-3.8,2.1C45,36.4,43.6,34.8,43.4,34.7z"/>
			</g>
		</g>
		<g>
			<defs>
				<path id="SVGID_74_" d="M72.5,57.6c-0.7,0-0.2,2.2-0.2,2.6c-0.2,5.2-5,7.5-7.6,11.7c-5.1,8.7-14.7,14.5-25.4,14.5
					C22.8,86.3,9.5,73,9.5,56.4S25.4,6.6,41.9,6.6c16.1,0,44.3-1.3,36.2,49.8C78.1,56.8,72.9,57.6,72.5,57.6z"/>
			</defs>
			<clipPath id="SVGID_24_">
				<use xlink:href="#SVGID_74_"  style="overflow:visible;"/>
			</clipPath>
			<path style="clip-path:url(#SVGID_24_);fill:#ED1C24;" d="M40.7,44.6c-0.2-1.4-0.3-2.8-0.5-4.2c2,0,4.1,0.1,6,0.1
				c0.6,0.8,1.3,1.5,1.9,2.3c0.3-0.7,0.7-1.3,1-2c2.2,0.1,4.4,0.1,6.6,0.1c-0.2,1.3-0.4,2.7-0.5,4C50.3,44.8,45.5,44.7,40.7,44.6z"
				/>
		</g>
		<g>
			<defs>
				<path id="SVGID_76_" d="M72.5,57.6c-0.7,0-0.2,2.2-0.2,2.6c-0.2,5.2-5,7.5-7.6,11.7c-5.1,8.7-14.7,14.5-25.4,14.5
					C22.8,86.3,9.5,73,9.5,56.4S25.4,6.6,41.9,6.6c16.1,0,44.3-1.3,36.2,49.8C78.1,56.8,72.9,57.6,72.5,57.6z"/>
			</defs>
			<clipPath id="SVGID_25_">
				<use xlink:href="#SVGID_76_"  style="overflow:visible;"/>
			</clipPath>
			<path style="clip-path:url(#SVGID_25_);fill:#FB983F;" d="M41.5,31.3c0-0.1,0.4-0.8,1.1-0.9c0.6-0.1,1.3,0.2,1.7,0.8
				c-0.1,0.1-0.5,0.6-1.2,0.7C42.2,31.9,41.6,31.4,41.5,31.3z"/>
		</g>
		<g>
			<defs>
				<path id="SVGID_78_" d="M72.5,57.6c-0.7,0-0.2,2.2-0.2,2.6c-0.2,5.2-5,7.5-7.6,11.7c-5.1,8.7-14.7,14.5-25.4,14.5
					C22.8,86.3,9.5,73,9.5,56.4S25.4,6.6,41.9,6.6c16.1,0,44.3-1.3,36.2,49.8C78.1,56.8,72.9,57.6,72.5,57.6z"/>
			</defs>
			<clipPath id="SVGID_26_">
				<use xlink:href="#SVGID_78_"  style="overflow:visible;"/>
			</clipPath>
			<path style="clip-path:url(#SVGID_26_);fill:#FB983F;" d="M50.1,31.2c0-0.1,0.4-0.8,1.1-0.9c0.6-0.1,1.3,0.2,1.7,0.8
				c-0.1,0.1-0.5,0.6-1.2,0.7C50.8,31.8,50.2,31.2,50.1,31.2z"/>
		</g>
		<g>
			<defs>
				<path id="SVGID_80_" d="M72.5,57.6c-0.7,0-0.2,2.2-0.2,2.6c-0.2,5.2-5,7.5-7.6,11.7c-5.1,8.7-14.7,14.5-25.4,14.5
					C22.8,86.3,9.5,73,9.5,56.4S25.4,6.6,41.9,6.6c16.1,0,44.3-1.3,36.2,49.8C78.1,56.8,72.9,57.6,72.5,57.6z"/>
			</defs>
			<clipPath id="SVGID_27_">
				<use xlink:href="#SVGID_80_"  style="overflow:visible;"/>
			</clipPath>
			<g style="clip-path:url(#SVGID_27_);">
				<g>
					<path class="st169" d="M60.8,78.9c-0.1,4.1-0.2,11-0.5,14.8c-1.9,0.1-3.8,0.3-5.5,0.2c0.1-2.6,0.1-5,0.1-7.6
						c-3.7,0.1-7.3,0.1-11.1,0.2c0.1,2.5,0.2,4.9,0.3,7.4c-1.7-0.1-3.3-0.2-4.9-0.3c0-0.1,0-0.2,0-0.3c-1-7.7-1.4-16.4-1.6-19.4
						c-0.2-3.8-0.5-9-1-16.6c-0.4-5.2-0.7-9.5-0.9-12.3c1.1-0.4,2.5-0.8,4.2-1.2c2.7-0.6,5-0.8,7.2-0.9c0.6,0,1.2,0,1.7,0
						c3.5,0,5.9,0.4,6.8,0.6c1.2,0.2,2.7,0.6,4.3,1.1C60.8,55.4,61.2,66.8,60.8,78.9z"/>
					<path class="st170" d="M37.7,75.3c0.1,1.1,0.1,2.5,0.2,4.1c7.6-0.1,15.2-0.3,22.9-0.4v-0.1c0-1.3,0.1-2.6,0.1-3.9
						C53.1,75.1,45.4,75.2,37.7,75.3z"/>
					<g>
						<path class="st171" d="M49.9,83.9l-1.8,0.2c-0.4-12.6-0.6-28.4-1-41c0.6,0,1.2,0,1.7,0C49.2,55.6,49.5,71.3,49.9,83.9z"/>
						<path class="st172" d="M46.1,53.3v-2.4l2,0.8l0.2,1L46.1,53.3z M45.8,49.2v-2.4l2,0.8l0.2,1L45.8,49.2z M48.4,57.5l-0.2-1
							l-2-0.8v2.4L48.4,57.5z M48.5,62.6l-0.2-1l-2-0.8v2.4L48.5,62.6z M48.7,67.6l-0.2-1l-2-0.8v2.4L48.7,67.6z M48.9,72.6l-0.2-1
							l-2-0.8v2.4L48.9,72.6z M49.1,77.6l-0.2-1l-2-0.8v2.4L49.1,77.6z"/>
						<path class="st172" d="M47.7,50.4l0.1-1l2-0.8l0.1,2.4L47.7,50.4z M47.9,46.2l0.1-1l2-0.8l0.1,2.4L47.9,46.2z M50,55.7
							l-0.1-2.4l-2,0.8l-0.1,1L50,55.7z M50,60.8l-0.1-2.4l-2,0.8l-0.1,1L50,60.8z M50,65.8l-0.1-2.4l-2,0.8l-0.1,1L50,65.8z
							 M50,70.8l-0.1-2.4l-2,0.8l-0.1,1L50,70.8z M50,75.8l-0.1-2.3l-2,0.8l-0.1,1L50,75.8z M50,80.9l-0.1-2.4l-2,0.8l-0.1,1
							L50,80.9z"/>
						<polygon class="st172" points="47.4,82.2 50.5,82 50.5,83.9 47.4,84.2 						"/>
					</g>
					<path class="st173" d="M60,44.9c-1.7-0.5-3.2-0.9-4.3-1.1c-1.6-0.3-7.8-1.4-15.8,0.4c-1.7,0.4-3.1,0.8-4.2,1.2
						c0.2,2.8,0.5,7,0.9,12.3c0.5,7.5,0.8,12.8,1,16.6c0.1,1.3,0.2,3.8,0.4,6.7c2,0.7,3.6,2.1,4.4,4.2c1.1,3-0.7,6.3-3.3,8
						c0,0.1,0,0.2,0.1,0.4c0,0.1,0,0.2,0,0.3c1.7,0.1,3.4,0.2,4.9,0.3c-0.1-2.5-0.2-4.9-0.3-7.4c3.7-0.1,7.3-0.1,11.1-0.2
						c-0.1,2.6-0.1,5-0.1,7.6c1.8,0.1,3.7-0.1,5.5-0.2c0-0.1,0-0.2,0-0.3c-1.8-0.8-3.2-2.4-3.8-4.6c-1.1-3.7,0.6-7.8,4.2-9
						c0-0.4,0-0.7,0-1C61.2,66.8,60.8,55.4,60,44.9z M57.1,69.8c-1.5,3.5-4.2,7.7-8.1,8.2c-1.7,0.2-3.5-0.4-4.9-1.3
						c-3.5-2.2-6-5.7-6.6-9.9c-0.6-4,0-8.2,1.3-11.9c1.3-3.6,3.8-8,7.4-9.3c2.6-0.9,5.2,0.3,7.1,2.1C59.4,53.4,60.3,62.3,57.1,69.8z
						"/>
					<path class="st174" d="M60.9,69.6c0-2.1,0-4.1-0.1-6.1c-0.6,0.3-1.3,0.8-1.6,1.6C58.4,66.7,59.4,68.8,60.9,69.6
						C60.8,69.6,60.9,69.6,60.9,69.6z"/>
					<path class="st174" d="M47.8,64.4c0-5.9-3.8-12.4-10.3-14.3c-0.5-0.1-1-0.2-1.5-0.3c0.2,2.2,0.4,4.9,0.5,7.7
						c0.5,7.5,0.8,12.8,1,16.6c0.1,0.9,0.1,2.4,0.2,4.1c1.8-0.6,3.8-1.6,5.5-3.4C43.9,74.3,47.8,70.4,47.8,64.4z"/>
					<path class="st169" d="M36.8,45.3c-0.9-0.3-7.3-2.7-13.6,1.1c-4.9,3-7.9,8.6-7.6,14.7c1.5-0.1,3-0.1,4.6-0.2
						c0.1-0.8,0.5-6,5.2-9.6c4.3-3.2,9-2.5,9.8-2.4C35.7,47.7,36.2,46.5,36.8,45.3z"/>
					<path class="st169" d="M60,44.9c-0.3,0.5-0.8,1.5-0.9,2.8c-0.1,2.1,1,3.6,1.3,4c1.8,1.8,3.6,3.5,5.4,5.2
						c-1.4,1.4-2.8,2.7-4.2,4.1c1,1.3,2,2.7,3,4c4-1.8,6.6-5.2,6.8-9.1C71.4,50.4,66.7,45.1,60,44.9z"/>
					<path class="st173" d="M62.8,62.6c0.5,0.7,1.1,1.5,1.7,2.2c4-1.8,6.6-5.2,6.8-9.1c0-0.3,0-0.5,0-0.8
						C68.7,57.7,65.9,60.3,62.8,62.6z"/>
					<path class="st170" d="M69.1,49.3c-1.9,1.7-3.8,3.5-5.5,5.2c0.6,0.6,1.2,1.2,1.8,1.7c1.8-1.5,3.6-2.9,5.4-4.2
						C70.3,51.1,69.8,50.2,69.1,49.3z"/>
					<path class="st175" d="M61.5,60.8c-0.2,0.1-1.8,0.5-2.5,2c-0.8,1.7,0.2,3.8,1.6,4.5c0.6,0.3,1.5,0.4,1.6,0.1
						c0.2-0.4-1-1.3-1.4-1.6c-0.1-0.1,1.9,1.3,2.2,1c0.2-0.2-0.1-0.8-0.5-1.5c0.7-0.2,1.3-0.4,2-0.5C63.5,63.4,62.5,62.1,61.5,60.8z
						"/>
				</g>
				<g>
					<g>
						<path class="st176" d="M19.3,55.1c-2.2,4.8-1.9,11.2,2.1,15.6c3.4,3.9,7.9,4.4,9.2,4.6c1,0.1,7.2,0.7,12.2-4.1
							c0.6-0.6,4.5-4.5,4.5-10.5c0-5.9-3.8-12.4-10.3-14.3C29.5,44.5,22,49,19.3,55.1z"/>
						<path class="st175" d="M20.3,61.4c0.1-0.1,0.1-0.1,0.1-0.2c0-0.1-0.1-0.2-0.2-0.3c-0.5-0.3-1.6-0.1-2.2-0.1
							c-0.8,0.1-1.7,0.2-2.5,0.2c0.1,0.8,0.2,1.6,0.7,2.3c0.2,0.3,0.5,0.5,0.8,0.7c0.1,0.1,1,0.3,1,0.3c0.1,0.2,0.2,0.4,0.3,0.6
							c0.1,0.1,0.3,0.2,0.4,0.1s0.1-0.2,0.1-0.3c-0.1-1-0.4-1.9-0.6-2.8C18.3,62,19.9,61.7,20.3,61.4z"/>
						<path class="st177" d="M33.1,71.1c-7.8,0.3-13.2-3.9-14.5-4.9c0.5,1.7,1.5,3.3,2.7,4.7c3.4,3.9,7.9,4.4,9.2,4.6
							c1,0.1,7.2,0.7,12.2-4.1c0.4-0.4,2.3-2.3,3.5-5.2C44.7,67.2,40.1,70.8,33.1,71.1z"/>
						<path class="st178" d="M37.7,51.3c-6.9,5.2-13.9,10.5-20.9,15.6c0.5,0.3,7,4.2,13.5,1C36,65.2,39.3,58.3,37.7,51.3z"/>
					</g>
				</g>
				<path class="st179" d="M37.7,51.3c-6.9,5.2-13.9,10.5-20.9,15.6c0.2,0.2,2.1,1.3,4.7,1.9c4.1-5.2,9.9-9.2,16.2-11.1
					C38.2,55.6,38.2,53.5,37.7,51.3z"/>
				<path class="st178" d="M31.2,74.5c1.5-1.8,3.7-4.1,6.6-6.2c2.9-2.1,5.5-3.5,7.7-4.4c-0.3,1.1-1.6,5.4-5.9,8.3
					C35.9,74.5,32.4,74.6,31.2,74.5z"/>
			</g>
		</g>
		<g>
			<defs>
				<path id="SVGID_82_" d="M72.5,57.6c-0.7,0-0.2,2.2-0.2,2.6c-0.2,5.2-5,7.5-7.6,11.7c-5.1,8.7-14.7,14.5-25.4,14.5
					C22.8,86.3,9.5,73,9.5,56.4S25.4,6.6,41.9,6.6c16.1,0,44.3-1.3,36.2,49.8C78.1,56.8,72.9,57.6,72.5,57.6z"/>
			</defs>
			<clipPath id="SVGID_28_">
				<use xlink:href="#SVGID_82_"  style="overflow:visible;"/>
			</clipPath>
			<path style="clip-path:url(#SVGID_28_);fill:#FFEEDB;" d="M31.6,47.7c1.5,0.1,2.5,1,2,3.3c-0.3,1.5-1.5,2.7-2.6,3.7
				c-1.8,1.6-3.7,3.2-5.7,4.2c-2.1,1-5.5,1.1-5.1-2.1C20.5,52.2,27.1,47.3,31.6,47.7z"/>
		</g>
		<g>
			<defs>
				<path id="SVGID_84_" d="M72.5,57.6c-0.7,0-0.2,2.2-0.2,2.6c-0.2,5.2-5,7.5-7.6,11.7c-5.1,8.7-14.7,14.5-25.4,14.5
					C22.8,86.3,9.5,73,9.5,56.4S25.4,6.6,41.9,6.6c16.1,0,44.3-1.3,36.2,49.8C78.1,56.8,72.9,57.6,72.5,57.6z"/>
			</defs>
			<clipPath id="SVGID_29_">
				<use xlink:href="#SVGID_84_"  style="overflow:visible;"/>
			</clipPath>
			<ellipse style="clip-path:url(#SVGID_29_);fill:#2A2C2E;" cx="54.6" cy="51.7" rx="3.4" ry="3.6"/>
		</g>
		<g>
			<defs>
				<path id="SVGID_86_" d="M72.5,57.6c-0.7,0-0.2,2.2-0.2,2.6c-0.2,5.2-5,7.5-7.6,11.7c-5.1,8.7-14.7,14.5-25.4,14.5
					C22.8,86.3,9.5,73,9.5,56.4S25.4,6.6,41.9,6.6c16.1,0,44.3-1.3,36.2,49.8C78.1,56.8,72.9,57.6,72.5,57.6z"/>
			</defs>
			<clipPath id="SVGID_30_">
				<use xlink:href="#SVGID_86_"  style="overflow:visible;"/>
			</clipPath>
			
				<ellipse style="opacity:0.2;clip-path:url(#SVGID_30_);fill:#231F20;enable-background:new    ;" cx="54.9" cy="52.2" rx="3.4" ry="3.6"/>
		</g>
		<g>
			<defs>
				<path id="SVGID_88_" d="M72.5,57.6c-0.7,0-0.2,2.2-0.2,2.6c-0.2,5.2-5,7.5-7.6,11.7c-5.1,8.7-14.7,14.5-25.4,14.5
					C22.8,86.3,9.5,73,9.5,56.4S25.4,6.6,41.9,6.6c16.1,0,44.3-1.3,36.2,49.8C78.1,56.8,72.9,57.6,72.5,57.6z"/>
			</defs>
			<clipPath id="SVGID_31_">
				<use xlink:href="#SVGID_88_"  style="overflow:visible;"/>
			</clipPath>
			<g style="clip-path:url(#SVGID_31_);">
				<path class="st184" d="M56.7,51.4c-0.2-0.2-0.4-0.2-0.6-0.3C56,51.1,56,51,56,51c0-0.2,0.1-0.3,0.1-0.5v-0.1
					c0-0.5-0.3-0.6-0.8-0.5c-0.2,0.1-0.4,0.2-0.5,0.4c-0.1,0.1-0.1,0.1-0.1,0c-0.2-0.2-0.4-0.3-0.7-0.4c-0.3-0.1-0.5,0-0.6,0.4
					c-0.1,0.3,0,0.5,0,0.8c0,0.1,0,0.1-0.1,0.1c-0.2,0.1-0.4,0.2-0.6,0.3c-0.3,0.2-0.3,0.6,0,0.8c0.2,0.1,0.4,0.2,0.6,0.3
					c0.2,0.1,0.1,0.1,0.1,0.2c-0.1,0.3-0.1,0.5,0,0.8c0.1,0.2,0.3,0.3,0.5,0.3c0.3-0.1,0.5-0.2,0.7-0.4c0.1-0.1,0.1-0.1,0.2,0
					c0.2,0.2,0.4,0.3,0.6,0.4c0.3,0.1,0.6,0,0.7-0.4c0.1-0.2,0-0.5,0-0.7c0-0.1,0-0.1,0.1-0.1c0.2-0.1,0.4-0.2,0.6-0.3
					C57,52,57,51.7,56.7,51.4z M54.9,50.4c0.1-0.1,0.3-0.3,0.5-0.3c0.3-0.1,0.5,0,0.5,0.3c0,0.1,0,0.1,0,0.1c0,0.2,0,0.3-0.1,0.5
					c0,0.1,0,0.1-0.1,0.1c-0.2,0-0.3-0.1-0.5-0.1c0,0-0.1,0-0.1-0.1C55,50.8,54.9,50.6,54.9,50.4C54.9,50.5,54.9,50.4,54.9,50.4z
					 M53.8,52.1L53.8,52.1c0.1,0.1,0.2,0.3,0.3,0.4c0,0.1,0,0,0,0.1H54c-0.1,0-0.2,0-0.2-0.1C53.6,52.3,53.7,52.2,53.8,52.1z
					 M53.8,51.5c0-0.1-0.1-0.2-0.1-0.3v-0.1c0.1,0,0.2-0.1,0.4,0C54,51.3,53.9,51.4,53.8,51.5C53.8,51.6,53.8,51.6,53.8,51.5z
					 M53.9,51.9c0-0.1,0-0.1,0-0.2c0.1-0.2,0.2-0.4,0.3-0.6c0-0.1,0.1-0.1,0.1-0.1c0.1,0,0.2,0,0.3,0l0,0h0.1c0.4,0,0.3,0,0.5,0.3
					c0.1,0.1,0.1,0.2,0.2,0.3c0.1,0.1,0.1,0.3,0,0.4c-0.1,0.1-0.2,0.3-0.3,0.4c0,0.1-0.1,0.1-0.1,0.1c-0.2,0-0.4,0-0.6,0
					c-0.1,0-0.1,0-0.1-0.1C54.1,52.3,54,52.1,53.9,51.9z M55.4,52.4c0.1-0.1,0.1-0.2,0.2-0.3c0,0,0-0.1,0.1,0c0,0,0,0.1,0.1,0.1
					c0.1,0.2,0.1,0.2-0.1,0.2C55.5,52.5,55.5,52.5,55.4,52.4C55.4,52.5,55.4,52.5,55.4,52.4z M55.7,51.6c-0.1-0.2-0.2-0.3-0.2-0.4
					v-0.1c0.1,0,0.2,0,0.3,0.1c0,0,0,0,0,0.1C55.7,51.4,55.7,51.5,55.7,51.6z M54.7,50.6c0.1,0,0.2,0.2,0.2,0.2v0.1
					c-0.1,0-0.1,0-0.2,0l0,0c-0.1,0-0.1,0-0.2,0c-0.1,0-0.1,0,0-0.1C54.6,50.8,54.6,50.6,54.7,50.6z M53.5,50.5c0-0.1,0-0.2,0-0.3
					c0.1-0.2,0.2-0.3,0.4-0.2c0.3,0.1,0.5,0.2,0.6,0.4c0,0,0,0,0,0.1c-0.1,0.1-0.2,0.3-0.3,0.4h-0.1c-0.1,0-0.3,0-0.4,0.1
					c-0.1,0-0.1,0-0.1-0.1C53.5,50.8,53.5,50.6,53.5,50.5z M53.5,52.3C53.5,52.4,53.5,52.4,53.5,52.3c-0.3,0-0.6-0.1-0.7-0.3
					c-0.1-0.1-0.1-0.1-0.1-0.2s0.1-0.2,0.1-0.3c0.2-0.2,0.4-0.2,0.6-0.3h0.1c0.1,0.2,0.1,0.3,0.2,0.5v0.1
					C53.6,52,53.5,52.2,53.5,52.3z M54.6,53.2c-0.2,0.2-0.4,0.4-0.7,0.4c0,0,0,0-0.1,0c-0.2,0-0.3-0.1-0.3-0.3c0-0.2,0-0.4,0-0.7
					c0-0.1,0-0.1,0.1-0.1c0.2,0,0.3,0.1,0.5,0.1c0.1,0,0.1,0,0.1,0.1C54.3,52.9,54.4,53,54.6,53.2L54.6,53.2z M54.8,53
					C54.7,53.1,54.7,53.1,54.8,53C54.7,53,54.7,53,54.8,53c-0.2-0.1-0.3-0.2-0.3-0.3c0-0.1,0.2,0,0.3,0s0.1,0,0.2,0
					C54.9,52.9,54.8,52.9,54.8,53z M55.9,53.4c-0.1,0.2-0.2,0.2-0.4,0.2c-0.3-0.1-0.4-0.2-0.6-0.4v-0.1c0.1-0.1,0.2-0.3,0.3-0.4
					c0,0,0.1,0,0.1-0.1c0.2,0,0.3,0,0.5-0.1c0.1,0,0.1,0,0.1,0.1c0,0.1,0.1,0.3,0.1,0.5C55.9,53.2,55.9,53.3,55.9,53.4z M56.6,52.1
					c-0.2,0.1-0.4,0.2-0.6,0.3c-0.1,0-0.1,0-0.1-0.1c-0.1-0.1-0.1-0.3-0.2-0.4v-0.1c0.1-0.1,0.1-0.3,0.2-0.4c0-0.1,0-0.1,0.1-0.1
					c0.2,0.1,0.4,0.1,0.6,0.3c0.1,0.1,0.2,0.2,0.2,0.2C56.8,52,56.7,52,56.6,52.1z"/>
				<path class="st184" d="M54.7,52.2c0.2,0,0.4-0.2,0.4-0.4c0-0.2-0.2-0.4-0.4-0.4c-0.2,0-0.4,0.2-0.4,0.4
					C54.3,52,54.5,52.2,54.7,52.2z"/>
			</g>
		</g>
	</g>
</g>
</svg>
