<?xml version="1.0" encoding="utf-8"?>
<!-- Generator: Adobe Illustrator 21.0.1, SVG Export Plug-In . SVG Version: 6.00 Build 0)  -->
<svg version="1.1" id="Layer_1" xmlns="http://www.w3.org/2000/svg" xmlns:xlink="http://www.w3.org/1999/xlink" x="0px" y="0px"
	 viewBox="0 0 87.3 87.3" style="enable-background:new 0 0 87.3 87.3;" xml:space="preserve">
<style type="text/css">
	.st0{fill:#2CAB9F;}
	.st1{fill:#D8D8D2;}
	.st2{fill:#F2C6A1;}
	.st3{fill:#BC2F3D;}
	.st4{fill:#FECE08;}
	.st5{fill:#F3A27A;}
	.st6{clip-path:url(#SVGID_2_);}
	.st7{fill:#89684D;}
	.st8{fill:#414042;}
	.st9{fill:#EA7E78;}
	.st10{fill:#FFFFFF;}
	.st11{fill:#EE4500;}
	.st12{fill:#FEA708;}
	.st13{fill:url(#SVGID_3_);}
	.st14{fill:#92A9ED;}
	.st15{fill:#5F70AF;}
	.st16{fill:#A3A3A3;}
	.st17{fill:#C1C1C1;}
	.st18{fill:#A3A2A2;}
	.st19{fill:#E7E3E1;}
	.st20{clip-path:url(#SVGID_5_);fill:#BEBBBB;}
	.st21{clip-path:url(#SVGID_7_);fill:#BEBBBB;}
	.st22{clip-path:url(#SVGID_9_);fill:#BEBBBB;}
	.st23{clip-path:url(#SVGID_11_);fill:#BEBBBB;}
	.st24{clip-path:url(#SVGID_13_);fill:#BEBBBB;}
	.st25{clip-path:url(#SVGID_15_);fill:#BEBBBB;}
	.st26{fill:#58595B;}
	.st27{fill:#E2B436;}
	.st28{clip-path:url(#SVGID_17_);}
	.st29{fill:#36313B;}
	.st30{fill:#231E2B;}
	.st31{fill:#47414D;}
	.st32{fill:#273E42;}
	.st33{fill:#355860;}
	.st34{fill:#49727C;}
	.st35{fill:#3B2130;}
	.st36{fill:#5895A5;}
	.st37{fill:#E8BE9B;}
	.st38{fill:#C7936B;}
	.st39{fill:#69ACC4;}
	.st40{fill:#4FAB59;}
	.st41{fill:#915620;}
	.st42{fill:#AD661F;}
	.st43{fill:#A6644B;}
	.st44{fill:#C2751D;}
	.st45{fill:#CF8934;}
	.st46{fill:url(#SVGID_18_);}
	.st47{clip-path:url(#SVGID_20_);}
	.st48{fill:url(#hair_1_);}
	.st49{fill:url(#SVGID_21_);}
	.st50{opacity:0.3;fill:#A55311;enable-background:new    ;}
	.st51{opacity:0.2;fill:#FFA383;enable-background:new    ;}
	.st52{opacity:0.61;fill:#FFB273;enable-background:new    ;}
	.st53{opacity:0.4;fill:#FFB273;enable-background:new    ;}
	.st54{fill:url(#axe_1_);}
	.st55{opacity:0.3;fill:#676E7A;enable-background:new    ;}
	.st56{opacity:0.25;fill:#FFFFFF;enable-background:new    ;}
	.st57{opacity:0.5;fill:#FFFFFF;enable-background:new    ;}
	.st58{fill:#A8B5C1;}
	.st59{opacity:0.35;fill:#FFFFFF;enable-background:new    ;}
	.st60{fill:#FFC19F;}
	.st61{opacity:0.8;fill:#FFC19F;enable-background:new    ;}
	.st62{fill:url(#arm_1_);}
	.st63{opacity:0.6;fill:#FFC19F;enable-background:new    ;}
	.st64{fill:url(#SVGID_22_);}
	.st65{fill:url(#SVGID_23_);}
	.st66{fill:url(#SVGID_24_);}
	.st67{fill:url(#pants_1_);}
	.st68{opacity:0.2;fill:#1D280D;enable-background:new    ;}
	.st69{opacity:0.3;fill:#1D280D;enable-background:new    ;}
	.st70{fill:url(#SVGID_25_);}
	.st71{opacity:0.75;fill:#893700;enable-background:new    ;}
	.st72{fill:url(#SVGID_26_);}
	.st73{fill:url(#SVGID_27_);}
	.st74{fill:url(#SVGID_28_);}
	.st75{fill:url(#arm_2_);}
	.st76{fill:url(#SVGID_29_);}
	.st77{fill:url(#SVGID_30_);}
	.st78{fill:url(#SVGID_31_);}
	.st79{fill:url(#shirt_1_);}
	.st80{opacity:0.15;fill:url(#shadow_1_);enable-background:new    ;}
	.st81{fill:url(#belt_1_);}
	.st82{opacity:0.35;}
	.st83{fill:url(#SVGID_32_);}
	.st84{fill:url(#SVGID_33_);}
	.st85{opacity:0.8;}
	.st86{fill:url(#SVGID_34_);}
	.st87{fill:url(#SVGID_35_);}
	.st88{opacity:0.4;fill:url(#SVGID_36_);enable-background:new    ;}
	.st89{fill:url(#SVGID_37_);}
	.st90{opacity:0.6;fill:#FFEB78;enable-background:new    ;}
	.st91{opacity:0.75;fill:#FFEB78;enable-background:new    ;}
	.st92{fill:url(#SVGID_38_);}
	.st93{fill:url(#SVGID_39_);}
	.st94{fill:url(#SVGID_40_);}
	.st95{opacity:0.4;fill:#BF1604;enable-background:new    ;}
	.st96{fill:#541918;}
	.st97{fill:#9B071C;}
	.st98{fill:#FF2B15;}
	.st99{fill:url(#SVGID_41_);}
	.st100{fill:#A55311;}
	.st101{fill:#471A08;}
	.st102{fill:#FCC79A;}
	.st103{opacity:0.69;fill:#FFD3AB;enable-background:new    ;}
	.st104{fill:url(#SVGID_42_);}
	.st105{fill:url(#SVGID_43_);}
	.st106{fill:url(#SVGID_44_);}
	.st107{opacity:0.25;fill:url(#SVGID_45_);enable-background:new    ;}
	.st108{opacity:0.25;fill:#FC8460;enable-background:new    ;}
	.st109{fill:url(#SVGID_46_);}
	.st110{opacity:0.3;fill:url(#SVGID_47_);enable-background:new    ;}
	.st111{clip-path:url(#SVGID_49_);}
	.st112{fill:url(#SVGID_50_);}
	.st113{fill:url(#axe_2_);}
	.st114{fill:url(#arm_3_);}
	.st115{fill:url(#SVGID_51_);}
	.st116{fill:url(#SVGID_52_);}
	.st117{fill:url(#SVGID_53_);}
	.st118{fill:url(#SVGID_54_);}
	.st119{clip-path:url(#SVGID_56_);}
	.st120{fill:#FCC78C;}
	.st121{fill:url(#SVGID_57_);}
	.st122{fill:#AC7930;}
	.st123{fill:#1A171B;}
	.st124{fill:#EDEDEE;}
	.st125{fill:#939292;}
	.st126{fill:#C7D5DF;}
	.st127{fill:#98B7C9;}
	.st128{fill:url(#SVGID_58_);}
	.st129{fill:url(#SVGID_59_);}
	.st130{fill:url(#SVGID_60_);}
	.st131{fill:url(#SVGID_61_);}
	.st132{fill:url(#SVGID_62_);}
	.st133{fill:url(#SVGID_63_);}
	.st134{fill:url(#SVGID_64_);}
	.st135{fill:url(#SVGID_65_);}
	.st136{fill:url(#SVGID_66_);}
	.st137{fill:url(#SVGID_67_);}
	.st138{fill:url(#SVGID_68_);}
	.st139{fill:#EB3D00;}
	.st140{fill:#835527;}
	.st141{fill:#D0995B;}
	.st142{fill:#E4AC00;}
	.st143{fill:#553F24;}
	.st144{fill:#93723A;}
	.st145{fill:#B9391A;}
	.st146{fill:#D99C09;}
	.st147{fill:#FFCC00;}
	.st148{fill:#9C9D9F;}
	.st149{fill:#B1B3B4;}
	.st150{fill:#C6C7C9;}
	.st151{fill:#D9DADB;}
	.st152{fill:#87888A;}
	.st153{fill:#A65C44;}
	.st154{fill:url(#SVGID_69_);}
	.st155{fill:url(#SVGID_70_);}
	.st156{fill:#2A2C2E;}
	.st157{clip-path:url(#SVGID_72_);}
	.st158{fill:#FFF200;}
	.st159{fill:#FFE300;}
	.st160{fill:#FBB040;}
	.st161{fill:#FC873E;}
	.st162{fill:#FB983F;}
	.st163{fill:url(#SVGID_73_);}
	.st164{fill:#754629;}
	.st165{clip-path:url(#SVGID_75_);fill:#ED1C24;}
	.st166{clip-path:url(#SVGID_77_);fill:#FB983F;}
	.st167{clip-path:url(#SVGID_79_);fill:#FB983F;}
	.st168{clip-path:url(#SVGID_81_);}
	.st169{fill:#ED1C24;}
	.st170{fill:#FEFFFF;}
	.st171{fill:#B3151B;}
	.st172{fill:#ED5C62;}
	.st173{opacity:0.2;fill:#231F20;enable-background:new    ;}
	.st174{opacity:0.4;fill:#231F20;enable-background:new    ;}
	.st175{fill:#424345;}
	.st176{fill:#FFE3C2;}
	.st177{opacity:0.1;fill:#231F20;enable-background:new    ;}
	.st178{fill:#303842;}
	.st179{fill:#363F4A;}
	.st180{clip-path:url(#SVGID_83_);fill:#FFEEDB;}
	.st181{clip-path:url(#SVGID_85_);fill:#2A2C2E;}
	.st182{opacity:0.2;clip-path:url(#SVGID_87_);fill:#231F20;enable-background:new    ;}
	.st183{clip-path:url(#SVGID_89_);}
	.st184{fill:#08E4FF;stroke:#08E4FF;stroke-width:0.1289;stroke-miterlimit:10;}
	.st185{fill:#F5F38E;}
	.st186{fill:#90C53F;}
	.st187{clip-path:url(#SVGID_91_);}
	.st188{fill:#754444;}
	.st189{fill:#5E3636;}
	.st190{fill:#7A5E27;}
	.st191{fill:#D1AB65;}
	.st192{fill:#A78442;}
	.st193{fill:#FCCFA4;}
	.st194{fill:#C78E65;}
	.st195{fill:#DDDDDC;}
	.st196{fill:#3B212A;}
	.st197{fill:#24211D;}
	.st198{fill:#45413F;}
	.st199{fill:#968064;}
	.st200{fill:#706151;}
	.st201{fill:url(#SVGID_92_);}
	.st202{fill:#211D18;}
	.st203{fill:#352E27;}
	.st204{display:none;}
	.st205{display:inline;}
	.st206{fill:#A8A8A7;}
	.st207{fill:#3C3C3B;}
	.st208{fill:#C59221;}
	.st209{fill:#FDC800;}
	.st210{display:inline;fill:#FFFFFF;}
	.st211{fill:#949393;}
	.st212{fill:#DBE8B0;}
	.st213{clip-path:url(#SVGID_94_);}
	.st214{opacity:0.3;fill:#808080;enable-background:new    ;}
	.st215{display:none;fill:#4B4B63;}
	.st216{fill:#4F3927;}
	.st217{fill:#5F442D;}
	.st218{fill:#6C5236;}
	.st219{fill:#976F44;}
	.st220{fill:#AC824E;}
	.st221{fill:#826544;}
	.st222{fill:#6E6E6E;}
	.st223{fill:#595959;}
	.st224{fill:#545454;}
	.st225{fill:#424242;}
	.st226{fill:#9C9C9C;}
	.st227{fill:#6E8091;}
	.st228{fill:#7B8B9B;}
	.st229{opacity:0.25;fill:#696969;enable-background:new    ;}
	.st230{fill:#A4C639;}
	.st231{fill:#FFC639;}
	.st232{fill:#F1A530;}
	.st233{fill:none;}
	.st234{opacity:0.29;fill:#383838;}
	.st235{opacity:0.4;fill:#FFFFFF;enable-background:new    ;}
	.st236{opacity:0.8;fill:#FFFFFF;enable-background:new    ;}
	.st237{fill:#859F25;}
	.st238{fill:#D78507;}
	.st239{fill:#262626;}
	.st240{fill:#BFD773;}
	.st241{fill:#FBDD57;}
	.st242{clip-path:url(#SVGID_96_);fill:#F4B711;}
	.st243{fill:#F4B711;}
	.st244{clip-path:url(#SVGID_98_);fill:#F4B711;}
	.st245{fill:#F4BB3B;}
	.st246{fill:#383838;}
	.st247{fill:#E6E6E6;}
	.st248{fill:#B3B3B3;}
	.st249{fill:#7D7D7D;}
	.st250{fill:#2F2F2F;}
	.st251{fill:#F2D850;}
	.st252{clip-path:url(#SVGID_100_);}
	.st253{fill:#C62B12;}
	.st254{fill:#B3B729;}
	.st255{fill:#A3A321;}
	.st256{fill:#C8D340;}
	.st257{opacity:0.6;fill:#7F7C13;enable-background:new    ;}
	.st258{fill:#F6D88C;}
	.st259{fill:url(#SVGID_101_);}
	.st260{fill:#1D1D1B;}
	.st261{fill:#C96317;}
	.st262{fill:#B74C1D;}
	.st263{fill:#C91111;}
	.st264{fill:#F6F8F9;}
	.st265{fill:#F97450;}
	.st266{fill:#3D8699;}
	.st267{fill:#FC7800;}
	.st268{fill:#7A7A74;}
	.st269{opacity:0.6;fill:#7F2713;enable-background:new    ;}
	.st270{fill:#F5D78B;}
	.st271{fill:#F5D78C;}
	.st272{fill:#F09453;}
	.st273{fill:#EF8E4D;}
	.st274{fill:#F1A15E;}
	.st275{fill:#EF8A4D;}
	.st276{fill:#EF8848;}
	.st277{fill:#F3C078;}
	.st278{fill:#F2B26F;}
	.st279{fill:#F19D5B;}
	.st280{fill:#F1A562;}
	.st281{fill:#F09A58;}
	.st282{fill:#EE7F41;}
	.st283{fill:url(#SVGID_102_);}
	.st284{fill:none;stroke:url(#SVGID_103_);stroke-width:1.9316;stroke-miterlimit:10;}
	.st285{clip-path:url(#SVGID_105_);}
	.st286{fill:#547FA1;}
	.st287{fill:#D0BF90;}
	.st288{fill:#E5D6AC;}
	.st289{fill:#DBC99A;}
	.st290{fill:#DCC6A2;}
	.st291{fill:url(#Кофта_1_);}
	.st292{fill:#FFBD7B;}
	.st293{fill:#CCAF83;}
	.st294{fill:#DBC5A1;}
	.st295{fill:#D3B991;}
	.st296{fill:#3C3022;}
	.st297{fill:url(#SVGID_106_);}
	.st298{fill:#FF9E85;}
	.st299{fill:#292929;}
	.st300{fill:#2C3C53;}
	.st301{fill:none;stroke:url(#SVGID_107_);stroke-width:1.9316;stroke-miterlimit:10;}
	.st302{fill:#FFFFFF;stroke:url(#SVGID_108_);stroke-width:1.9311;stroke-miterlimit:10;}
	.st303{clip-path:url(#SVGID_110_);}
	.st304{fill:#363D67;}
	.st305{fill:#DCA54C;}
	.st306{fill:#FEFEFE;}
	.st307{fill:#F5183F;}
	.st308{fill:#FDCCBB;}
	.st309{fill:#FDFDFC;}
	.st310{fill:#FDFDFB;}
	.st311{fill:#F4183F;}
	.st312{fill:#F31840;}
	.st313{fill:#F4173F;}
	.st314{fill:#DBA44C;}
	.st315{fill:#FCF9F9;}
	.st316{fill:#FCFCFA;}
	.st317{fill:#DAA44C;}
	.st318{fill:#FBF5F6;}
	.st319{fill:#FCF6F6;}
	.st320{fill:#FBFAF7;}
	.st321{fill:#DD1F47;}
	.st322{fill:#FAF5F6;}
	.st323{fill:#CE9D54;}
	.st324{fill:#F8ECEF;}
	.st325{fill:#FCF6F7;}
	.st326{fill:#D5A254;}
	.st327{fill:#727693;}
	.st328{fill:#E91B43;}
	.st329{fill:#F5F5F6;}
	.st330{fill:#AFB6C1;}
	.st331{fill:#D6A14E;}
	.st332{fill:#F7F2F3;}
	.st333{fill:#363C67;}
	.st334{fill:#353C67;}
	.st335{fill:#F31C42;}
	.st336{fill:#EAD2DA;}
	.st337{fill:#DA1E45;}
	.st338{fill:#373E67;}
	.st339{fill:#FCCCB9;}
	.st340{fill:#3D4166;}
	.st341{fill:#FBCBB8;}
	.st342{fill:#F6CAB6;}
	.st343{fill:#FBC3CD;}
	.st344{fill:#FBDCE1;}
	.st345{fill:#ED1D44;}
	.st346{fill:#ECEBEE;}
	.st347{fill:#E1234A;}
	.st348{fill:#DED3DB;}
	.st349{fill:#DD2047;}
	.st350{fill:#D5CCD6;}
	.st351{fill:#F5DDE3;}
	.st352{fill:#383E67;}
</style>
<g>
	<circle class="st0" cx="39.4" cy="56.6" r="30.1"/>
	<g>
		<g>
			<path class="st1" d="M63.3,46.7L58.9,21c0,0,6.2-0.3,8.4,6.7S67,47.1,67,47.1L63.3,46.7z"/>
			
				<rect x="63.9" y="54.2" transform="matrix(0.9852 -0.1716 0.1716 0.9852 -8.7685 12.1975)" class="st2" width="4.5" height="5.2"/>
			<path class="st3" d="M68.8,56.1l-5.5,1c0.6,3.6,0.1,5.8-1.7,6.9c-2.4,1.3-7.8,0.3-9.9-0.5L50,68.8c1,0.3,9.3,3.1,14.5,0.1
				C66.6,67.6,70.2,64.2,68.8,56.1z"/>
			<path class="st4" d="M69,61.9l-5.8,0.4c0.3-0.7,0.4-1.6,0.4-2.6l5.6-0.3C69.2,60.2,69.1,61.1,69,61.9z"/>
			<path class="st2" d="M61,52.5c0.4,2.4,2.7,3.9,5.1,3.5c2.4-0.4,4-2.7,3.6-5.1s-2.7-3.9-5.1-3.5C62.2,47.9,60.5,50.2,61,52.5z"/>
			<path d="M65.1,56.8c0.1,0.5,0.6,1,1.2,0.9l0,0c0.5-0.1,1-0.6,0.9-1.2l-1.5-8.6c-0.1-0.5-0.6-1-1.2-0.9l0,0
				c-0.5,0.1-1,0.6-0.9,1.2L65.1,56.8z"/>
			<path class="st4" d="M68.2,45c0.1,0.7,0.8,1.2,1.6,1c0.8-0.2,1.2-0.8,1-1.6c-0.1-0.7-0.8-1.2-1.6-1C68.6,43.6,68,44.3,68.2,45z"
				/>
			<path class="st4" d="M58.2,49.5c0.1,0.7,0.8,1.2,1.6,1c0.8-0.2,1.2-0.8,1-1.5c-0.1-0.7-0.8-1.2-1.6-1
				C58.5,48.1,58,48.7,58.2,49.5z"/>
			<path class="st4" d="M60.1,49.1c0-1,4.8-1.2,6.4-1.3c2-0.1,3.2-0.5,3.7-1.3c0.3-0.5,0.2-1,0-1.4l-1.2,0.7l0,0c0,0,0,0,0,0.1
				s-0.4,0.5-2.4,0.6c-4.2,0.2-7.7,0.4-7.8,2.6H60.1z"/>
			<path class="st5" d="M62.2,52.2c0.1,0.7,0.8,1.2,1.6,1.1l0,0c0.7-0.1,1.2-0.8,1.1-1.6l-0.3-2c-0.1-0.7-0.8-1.2-1.6-1.1l0,0
				c-0.7,0.1-1.2,0.8-1.1,1.6L62.2,52.2z"/>
			<path class="st2" d="M63.8,51.6c0.3,2,1.9,3.4,3.4,3.1c1.6-0.3,2.5-2.1,2.2-4.2c-0.3-2-1.9-3.4-3.4-3.1
				C64.4,47.7,63.4,49.6,63.8,51.6z"/>
		</g>
	</g>
	<g>
		<g>
			<g>
				<defs>
					<path id="SVGID_1_" d="M69.5,56.6c0,16.7-13.5,30.1-30.1,30.1S9.4,73.2,9.4,56.6S25.5,6.4,42.2,6.4S69.5,40,69.5,56.6z"/>
				</defs>
				<clipPath id="SVGID_2_">
					<use xlink:href="#SVGID_1_"  style="overflow:visible;"/>
				</clipPath>
				<g class="st6">
					<g>
						<path class="st2" d="M20.9,86.6c0.9-1.1,2.4,0.8,2.4,0.8s-0.5-0.9-0.3-1.4c0,0-1.9-1.8-1.2-2.9c0.7-1.1,2.7-3.5,2.7-3.5
							l0.5-0.1c0,0,5.2,2.1,3.7,5.6c0-0.1-0.1-0.2-0.1-0.4c-0.1-0.1-0.1-0.2-0.2-0.3s-0.1-0.2-0.2-0.3c-0.1-0.1-0.1-0.1-0.2-0.2
							c-0.3-0.2-0.6-0.3-0.6-0.3l0,0c0,0,0.2,0.1,0.4,0.4c0.1,0.1,0.1,0.1,0.2,0.2s0.1,0.2,0.2,0.3c0.1,0.1,0,0.3,0,0.4
							s0.1,0.2,0.1,0.3c0,0.1,0,0.2,0,0.3s0,0.2,0,0.3s0,0.2-0.1,0.3c0,0.1-0.1,0.2-0.1,0.3c0,0.1-0.1,0.2-0.1,0.2
							c0,0.1-0.1,0.1-0.1,0.2c-0.1,0.1-0.1,0.1-0.1,0.1l0,0c-0.1,0.2-0.3,0.4-0.5,0.6c-0.6,0.6-1,0.8-1.3,0.7c0-0.1,0.1-0.2,0.1-0.4
							c0-0.1,0.1-0.3,0.1-0.4c0-0.1,0-0.3,0-0.4c0-0.1,0-0.3-0.1-0.4c0-0.1-0.1-0.2-0.1-0.4c0-0.1-0.1-0.2-0.1-0.3
							c0-0.1-0.1-0.2-0.1-0.2c0-0.1-0.1-0.1-0.1-0.2c-0.1-0.1-0.1-0.1-0.1-0.1l0,0c0,0,0.1,0.2,0.2,0.6c0,0.1,0.1,0.2,0.1,0.3
							c0,0.1,0,0.2,0,0.3c0,0.1,0,0.2,0,0.4c0,0.1,0,0.2,0,0.4c0,0.2,0,0.2-0.1,0.4c0,0.1-0.1,0.2-0.1,0.3c0,0.1-0.1,0.2-0.1,0.3
							c0,0.1-0.1,0.2-0.1,0.3c-0.1,0.2-0.2,0.3-0.2,0.4c-0.1,0.1-0.1,0.1-0.1,0.1l0,0c-0.1,0.2-0.3,0.3-0.6,0.4
							C23.6,90.5,19.6,88.1,20.9,86.6z"/>
						<path d="M56.2,84.3c0,0,0.1,0,0.1,0.1c0,0,0.1,0.1,0.2,0.1s0.1,0.1,0.2,0.1c0.4,0.2,0.9,0.4,1.5,0.8c0.6,0.4,1.3,0.8,2,1.2
							c0.4,0.2,0,1,0.3,1.2c0.2,0.2,1,0.3,1.4,0c0.1,0.1,0.3,0.2,0.5,0.4c0.4,0.3,0.7,0.6,1.1,0.9c0.3,0.3,0.7,0.6,1,0.9
							s0.6,0.6,0.9,0.9c0.1,0.1,0.3,0.3,0.4,0.4c0.1,0.1,0.1,0.1,0.2,0.2c0.1,0.1,0.1,0.1,0.2,0.2c0.2,0.3,0.4,0.5,0.6,0.7
							c0.2,0.2,0.3,0.4,0.4,0.6c0.2,0.3,0.4,0.5,0.4,0.5l1.5-0.8c0,0-0.1-0.2-0.3-0.6c-0.1-0.2-0.2-0.4-0.4-0.7
							c-0.2-0.3-0.4-0.6-0.6-0.9c-0.1-0.1-0.1-0.2-0.1-0.3c-0.1-0.1-0.1-0.2-0.2-0.2c-0.1-0.2-0.2-0.3-0.4-0.5
							c-0.2-0.4-0.5-0.7-0.8-1.1c-0.3-0.4-0.6-0.7-1-1.1c-0.3-0.4-0.7-0.7-1-1.1c0.3-0.5,0-1.1-0.2-1.3c-0.1-0.1-1.1,0.1-1.2-0.1
							c-0.4-0.3-0.4-0.3-0.7-0.6c-0.7-0.6-1.4-1.2-2-1.6c-0.6-0.5-1.1-0.8-1.5-1.1c-0.1-0.1-0.2-0.1-0.3-0.2
							c-0.1-0.1-0.1-0.1-0.2-0.1C58.1,81,58,81,58,81L56.2,84.3z"/>
						<path d="M60.8,77.7c0,0,0.5,8.6-13.2,11.1c-13.6,2.3-20.1-4.3-19.5-7.1c0,0,0,0,0-0.1C28.7,78.7,60.8,77.7,60.8,77.7z"/>
						<path class="st3" d="M21.2,84.1l4.3-4.9c-3.1-2.7-4.4-5.3-3.6-7.4c1.1-2.9,6.8-5.9,9.3-6.8l-2.2-6.1
							C28,59.3,18.4,63,15.9,69.4C14.8,72.1,14,77.8,21.2,84.1z"/>
						<path class="st5" d="M49.9,50.7c0,0-0.2-3.5,2.5-2.7s2.7,7.2-0.2,6.9L49.9,50.7z"/>
						<path class="st7" d="M51.9,53.3c0,0-0.1,0-0.1-0.1c-0.1-0.1-1.3-3-0.3-3.8c0.3-0.2,0.6-0.3,0.9-0.1c0.4,0.3,0.5,0.9,0.5,0.9
							c0,0.1,0,0.1-0.1,0.1c-0.1,0-0.1,0-0.1-0.1c0,0-0.1-0.5-0.4-0.7c-0.2-0.1-0.4-0.1-0.7,0.1c-0.9,0.6,0.3,3.5,0.3,3.5
							C52,53.2,52,53.3,51.9,53.3C52,53.3,51.9,53.3,51.9,53.3z"/>
						<path class="st7" d="M52.4,51.6C52.3,51.6,52.3,51.5,52.4,51.6c-0.5-0.8-1-0.5-1.1-0.5c0,0-0.1,0-0.1-0.1c0-0.1,0-0.1,0-0.1
							s0.7-0.4,1.2,0.5C52.4,51.5,52.4,51.5,52.4,51.6C52.4,51.5,52.4,51.6,52.4,51.6z"/>
						<path class="st5" d="M27.7,56.3c0,0-1.8-3.6-5.4-1.2c-3.6,2.2,0.5,8.6,4.7,6.7L27.7,56.3z"/>
						<path class="st2" d="M34.9,40.2c0,0,7.3-2,13.2,7.3s12.3,19.8,13.2,28.1c0,0,1.5,1.2,1.5,1.9c0,0.7-6.1,8.7-15.8,10
							c-9.8,1.3-21-5-21.3-5.9c-0.3-0.9,1.1-2.3,1.1-2.3S24.1,43,34.9,40.2z"/>
						<path class="st3" d="M26.6,79.4c0,0-0.4-5.8-0.2-12.9h0.4c0,0,4.2,7.2,16.7,6s12.7-10.1,12.7-10.1l0.5-0.1
							c2.3,4.7,4.1,9.2,4.5,13.2c0,0,1.5,1.2,1.5,1.9c0,0.7-6.1,8.7-15.8,10c-9.8,1.3-21-5-21.3-5.9C25.3,80.8,26.6,79.4,26.6,79.4z
							"/>
						<path d="M26.4,72.9c2.6,1,11.7,4.4,17.5,3.5c5.6-0.9,13-6.1,15.4-7.9c0.9,2.5,1.6,5,1.8,7.2c0,0-6.3,7.5-14.8,8.4
							c-8.6,0.9-19.7-4.7-19.7-4.7S26.5,76.8,26.4,72.9z"/>
						<path class="st4" d="M38.5,83.1l-0.9-5c-0.4-2.2,1.1-4.5,3.5-4.9l8.4-1.4c2.2-0.4,4.5,1.1,4.9,3.5l0.9,5
							c0.4,2.2-1.1,4.5-3.5,4.9l-8.4,1.4C41.1,86.9,38.9,85.4,38.5,83.1z M41.4,75c-1.2,0.2-2.1,1.4-1.8,2.6l0.9,5
							c0.2,1.2,1.4,2.1,2.6,1.8l8.4-1.4c1.2-0.2,2.1-1.4,1.8-2.6l-0.9-5c-0.2-1.2-1.4-2.1-2.6-1.8L41.4,75z"/>
						<g>
							<path class="st8" d="M41,64.8c0,0-0.3-1.5-2.5-1.2c-2.2,0.2-3.4,0.3-4.9-0.6s-2.1-1.5-3.5-0.7c-1.3,0.7-1,4.9,4.4,5.4
								C39.7,68.1,41.5,66.3,41,64.8z"/>
							<path d="M33.3,64.5c-1.6-0.2-2.5,0.3-2.9,0.9c-0.3-0.5-0.5-0.9-0.5-1.2c-0.2-0.8,0-1.5,0.5-1.7c0.2-0.1,0.4-0.2,0.6-0.2
								c-0.1,0.6,0,1.4,1,1.6c0.9,0.2,1.3-0.2,1.5-0.7h0.1c1.4,0.8,2.4,0.9,4.2,0.7c0.1,0.7,0.3,1.5,1.2,1.5s1.3-0.6,1.5-1.2
								c0.3,0.3,0.4,0.6,0.4,0.6c0.1,0.4,0.1,0.8-0.2,1.2c-0.4,0.7-1.5,1.2-3,1.3c-0.4,0-0.7,0.1-1.2,0.1
								C36.2,66.5,35.6,64.8,33.3,64.5z"/>
							<path class="st9" d="M30.3,65.4c0.5-0.6,1.3-1.1,2.9-0.9c2.2,0.3,2.9,2,3,2.9c-0.6,0-1.2,0-1.9-0.1
								C32.1,67.1,30.9,66.2,30.3,65.4z"/>
							<path class="st10" d="M38.8,65.4c-0.9,0-1.2-0.9-1.2-1.5c0.3,0,0.6-0.1,0.9-0.1c1-0.1,1.5,0.1,1.8,0.4
								C40.2,64.8,39.8,65.5,38.8,65.4z"/>
							<path class="st4" d="M31.8,63.7c-1-0.3-1.1-1-1-1.6c0.1,0,0.2,0,0.3-0.1c0.5-0.1,1,0.2,1.7,0.7c0.2,0.1,0.4,0.2,0.5,0.3
								C33.1,63.5,32.7,64.1,31.8,63.7z"/>
						</g>
						<path d="M52.4,47.9c0,0-6.5,3.6-12.1,4.7c-5.6,1.2-15.1,2.5-16.3,2.3c-1.1-0.2-4.5-5.4-5.6-8.7c0,0,0.3-1.3,2.3-0.9
							s3,1.5,5.2,1c2-0.5,2.5-6.6,5.1-7.9c2.4-1.3,8.4-2,9.9-2s5.2,5.8,7.4,5.2c2.2-0.6,1.9-3.8,2.9-4.1
							C52.1,37.2,55.7,39.3,52.4,47.9z"/>
						<g>
							<path class="st10" d="M19.2,46.7C19.3,46.7,19.3,46.7,19.2,46.7c0.1,0,0.1-0.1,0.1-0.2s0-0.1-0.1-0.2l0.1-0.1
								c0.1-0.1,0.1-0.1,0-0.2c-0.1-0.1-0.1-0.1-0.2,0c0,0.1,0,0.2-0.1,0.3v0.1c0,0.1,0.1,0.2,0.1,0.3
								C19.1,46.7,19.2,46.7,19.2,46.7z"/>
							<path class="st10" d="M35.8,53.2c-0.1,0-0.1,0-0.1-0.1s0-0.1,0.1-0.1H36l0.4-0.1l0,0c0.1,0,0.1,0,0.1,0.1
								c0,0.1,0,0.1-0.1,0.1L36,53.2H35.8z M35.3,53.3h-0.6c-0.1,0-0.1,0-0.1-0.1c0-0.1,0-0.1,0.1-0.1l0,0l0.5-0.1
								c0.1,0,0.1,0,0.1,0.1C35.4,53.2,35.3,53.2,35.3,53.3L35.3,53.3z M36.7,52.9c0-0.1,0-0.1,0.1-0.1l0.5-0.1l0,0
								c0.1,0,0.1,0,0.1,0.1c0,0.1,0,0.1-0.1,0.1L36.8,53l0,0C36.8,53,36.7,52.9,36.7,52.9z M34.1,53.4l-0.5,0.1
								c-0.1,0-0.1,0-0.1-0.1c0-0.1,0-0.1,0.1-0.1l0.5-0.1c0.1,0,0.1,0,0.1,0.1C34.3,53.3,34.3,53.4,34.1,53.4L34.1,53.4z
								 M37.7,52.7c0-0.1,0-0.1,0.1-0.2l0.5-0.1c0.1,0,0.1,0,0.1,0.1c0,0.1,0,0.1-0.1,0.1l-0.5,0.1l0,0
								C37.8,52.8,37.7,52.8,37.7,52.7z M33.1,53.6l-0.5,0.1c-0.1,0-0.1,0-0.1-0.1s0-0.1,0.1-0.1l0.5-0.1c0.1,0,0.1,0,0.1,0.1
								C33.2,53.5,33.1,53.6,33.1,53.6L33.1,53.6z M38.8,52.5c0-0.1,0-0.1,0.1-0.2c0.2,0,0.4-0.1,0.5-0.1c0.1,0,0.1,0,0.2,0.1
								c0,0.1,0,0.1-0.1,0.2c-0.2,0-0.3,0.1-0.5,0.1l0,0C38.9,52.6,38.8,52.5,38.8,52.5z M32,53.8l-0.5,0.1c-0.1,0-0.1,0-0.1-0.1
								c0-0.1,0-0.1,0.1-0.1l0.5-0.1c0.1,0,0.1,0,0.1,0.1C32.1,53.7,32.1,53.7,32,53.8L32,53.8z M39.8,52.3c0-0.1,0-0.1,0.1-0.2
								l0.5-0.1c0.1,0,0.1,0,0.2,0.1c0,0.1,0,0.1-0.1,0.2L40,52.4l0,0C39.9,52.4,39.8,52.3,39.8,52.3z M31,53.9L30.5,54
								c-0.1,0-0.1,0-0.1-0.1c0-0.1,0-0.1,0.1-0.1l0.5-0.1c0.1,0,0.1,0,0.1,0.1C31.1,53.8,31,53.9,31,53.9L31,53.9z M29.9,54.1
								l-0.5,0.1c-0.1,0-0.1,0-0.1-0.1s0-0.1,0.1-0.1l0.5-0.1c0.1,0,0.1,0,0.1,0.1C30,54,30,54.1,29.9,54.1L29.9,54.1z M41,52
								c0-0.1,0-0.1,0.1-0.2c0.2,0,0.3-0.1,0.5-0.1c0.1,0,0.1,0,0.2,0.1c0,0.1,0,0.1-0.1,0.2c-0.2,0-0.3,0.1-0.5,0.1l0,0
								C41,52.1,41,52.1,41,52z M28.9,54.2l-0.6,0.1c-0.1,0-0.1,0-0.1-0.1c0-0.1,0-0.1,0.1-0.1l0.5-0.1c0.1,0,0.1,0,0.1,0.1
								C29,54.1,28.9,54.2,28.9,54.2L28.9,54.2z M27.7,54.4h-0.5c-0.1,0-0.1,0-0.1-0.1c0-0.1,0-0.1,0.1-0.1l0.5-0.1
								c0.1,0,0.1,0,0.1,0.1C27.8,54.3,27.8,54.3,27.7,54.4C27.7,54.3,27.7,54.3,27.7,54.4z M42,51.8c0-0.1,0-0.1,0.1-0.2
								c0.2-0.1,0.3-0.1,0.5-0.1c0.1,0,0.1,0,0.2,0.1c0,0.1,0,0.1-0.1,0.2c-0.2,0.1-0.3,0.1-0.5,0.1l0,0C42.1,51.9,42,51.8,42,51.8z
								 M26.6,54.5c-0.2,0-0.4,0-0.5,0.1c-0.1,0-0.1,0-0.1-0.1c0-0.1,0-0.1,0.1-0.1c0.2,0,0.3,0,0.5-0.1c0.1,0,0.1,0,0.1,0.1
								C26.8,54.4,26.7,54.5,26.6,54.5L26.6,54.5z M25.6,54.6c-0.2,0-0.4,0-0.5,0c-0.1,0-0.1-0.1-0.1-0.1l0.1-0.1c0.2,0,0.3,0,0.5,0
								c0.1,0,0.1,0,0.1,0.1C25.7,54.5,25.7,54.6,25.6,54.6L25.6,54.6z M43,51.5c0-0.1,0-0.1,0.1-0.2c0.2-0.1,0.3-0.1,0.5-0.2
								c0.1,0,0.1,0,0.2,0.1c0,0.1,0,0.1-0.1,0.2c-0.2,0.1-0.3,0.1-0.5,0.2l0,0C43.1,51.6,43,51.5,43,51.5z M24.5,54.6
								c-0.1,0-0.2,0-0.3,0c-0.1,0-0.2-0.1-0.3-0.2c-0.1,0-0.1-0.1,0-0.2c0-0.1,0.1-0.1,0.2,0c0.1,0.1,0.2,0.1,0.2,0.1s0.1,0,0.2,0
								s0.1,0.1,0.1,0.1C24.6,54.6,24.6,54.6,24.5,54.6L24.5,54.6z M44,51c0-0.1,0-0.1,0.1-0.2c0.2-0.1,0.3-0.1,0.5-0.2
								c0.1,0,0.1,0,0.2,0.1c0.1,0.1,0,0.1-0.1,0.2c-0.2,0.1-0.3,0.1-0.5,0.2l0,0C44.1,51.1,44,51.1,44,51z M45,50.7
								c0-0.1,0-0.1,0.1-0.2c0.2-0.1,0.3-0.1,0.5-0.2c0.1,0,0.1,0,0.2,0.1c0,0.1,0,0.1-0.1,0.2c-0.2,0.1-0.3,0.1-0.5,0.2l0,0
								C45.1,50.8,45,50.7,45,50.7z M46,50.3c0-0.1,0-0.1,0.1-0.2c0.2-0.1,0.3-0.1,0.5-0.2c0.1,0,0.1,0,0.2,0.1c0,0.1,0,0.1-0.1,0.2
								c-0.2,0.1-0.3,0.1-0.5,0.2l0,0C46.1,50.4,46,50.3,46,50.3z M23.5,54.1c-0.1-0.1-0.2-0.3-0.4-0.4c0-0.1,0-0.1,0-0.2
								c0.1,0,0.1,0,0.2,0c0.1,0.1,0.2,0.3,0.3,0.4c0.1,0.1,0.1,0.1,0,0.2C23.6,54.1,23.6,54.1,23.5,54.1
								C23.6,54.1,23.6,54.1,23.5,54.1z M47.1,49.9c0-0.1,0-0.1,0.1-0.2c0.2-0.1,0.3-0.1,0.5-0.2c0.1,0,0.1,0,0.2,0.1
								c0,0.1,0,0.1-0.1,0.2c-0.2,0.1-0.3,0.1-0.5,0.2l0,0C47.2,50,47.1,49.9,47.1,49.9z M48.1,49.5c0-0.1,0-0.1,0.1-0.2
								c0.2-0.1,0.3-0.1,0.5-0.2c0.1,0,0.1,0,0.2,0.1c0.1,0.1,0,0.1-0.1,0.2c-0.2,0.1-0.3,0.1-0.5,0.2l0,0
								C48.2,49.5,48.1,49.5,48.1,49.5z M49,49c0-0.1,0-0.1,0.1-0.2c0.2-0.1,0.3-0.1,0.5-0.2c0.1,0,0.1,0,0.2,0.1
								c0,0.1,0,0.1-0.1,0.2c-0.2,0.1-0.3,0.1-0.5,0.2l0,0C49.1,49.1,49.1,49.1,49,49z M50,48.6c0-0.1,0-0.1,0.1-0.2
								c0.2-0.1,0.3-0.2,0.5-0.2c0.1,0,0.1,0,0.2,0.1c0,0.1,0,0.1-0.1,0.2c-0.1,0.1-0.3,0.1-0.5,0.2l0,0C50.1,48.7,50,48.6,50,48.6z
								 M22.8,53.3c-0.1-0.1-0.2-0.3-0.3-0.4c0-0.1,0-0.1,0-0.2c0.1,0,0.1,0,0.2,0c0.1,0.1,0.2,0.3,0.3,0.4c0,0.1,0,0.1,0,0.2
								c0,0,0,0-0.1,0C22.9,53.3,22.9,53.3,22.8,53.3z M51,48.1c0-0.1,0-0.1,0.1-0.2c0.2-0.1,0.3-0.2,0.5-0.2c0.1,0,0.1,0,0.2,0.1
								c0,0.1,0,0.1-0.1,0.2c-0.1,0.1-0.3,0.1-0.5,0.2l0,0C51,48.2,51,48.2,51,48.1z M52,47.7c-0.1,0-0.1-0.1-0.1-0.2
								c0.1-0.2,0.1-0.3,0.2-0.5c0-0.1,0.1-0.1,0.2-0.1c0.1,0,0.1,0.1,0.1,0.2c-0.1,0.2-0.1,0.3-0.2,0.5
								C52.1,47.6,52.1,47.7,52,47.7L52,47.7z M22.2,52.4c-0.1-0.1-0.2-0.3-0.3-0.4c0-0.1,0-0.1,0-0.2c0.1,0,0.1,0,0.2,0
								c0.1,0.1,0.2,0.3,0.3,0.4c0,0.1,0,0.1,0,0.2c0,0,0,0-0.1,0C22.3,52.5,22.2,52.4,22.2,52.4z M52.3,46.7
								c-0.1,0-0.1-0.1-0.1-0.2c0.1-0.2,0.1-0.3,0.1-0.5c0-0.1,0.1-0.1,0.2-0.1c0.1,0,0.1,0.1,0.1,0.2c-0.1,0.2-0.1,0.3-0.2,0.5
								C52.5,46.6,52.4,46.7,52.3,46.7C52.4,46.7,52.3,46.7,52.3,46.7z M21.6,51.5c-0.1-0.1-0.2-0.3-0.3-0.5c0-0.1,0-0.1,0-0.2
								c0.1,0,0.1,0,0.2,0c0.1,0.1,0.2,0.3,0.3,0.4c0,0.1,0,0.1,0,0.2c0,0,0,0-0.1,0C21.7,51.6,21.6,51.5,21.6,51.5z M52.6,45.6
								c-0.1,0-0.1-0.1-0.1-0.2c0-0.2,0.1-0.3,0.1-0.5c0-0.1,0.1-0.1,0.2-0.1c0.1,0,0.1,0.1,0.1,0.2c0,0.2-0.1,0.3-0.1,0.5
								C52.8,45.6,52.7,45.6,52.6,45.6C52.7,45.6,52.6,45.6,52.6,45.6z M21,50.5c-0.1-0.1-0.2-0.3-0.3-0.5c0-0.1,0-0.1,0.1-0.2
								c0.1,0,0.1,0,0.2,0.1c0.1,0.1,0.2,0.3,0.3,0.5c0,0.1,0,0.1,0,0.2l0,0C21,50.6,21,50.5,21,50.5z M52.9,44.5
								c-0.1,0-0.1-0.1-0.1-0.2c0-0.2,0.1-0.4,0.1-0.5c0-0.1,0.1-0.1,0.1-0.1c0.1,0,0.1,0.1,0.1,0.1c0,0.2-0.1,0.3-0.1,0.5
								C53,44.5,53,44.5,52.9,44.5L52.9,44.5z M20.4,49.5c-0.1-0.2-0.2-0.3-0.3-0.5c0-0.1,0-0.1,0.1-0.2c0.1,0,0.1,0,0.2,0.1
								c0.1,0.2,0.2,0.3,0.2,0.5c0,0.1,0,0.1-0.1,0.2l0,0C20.5,49.6,20.5,49.6,20.4,49.5z M53.1,43.5c-0.1,0-0.1-0.1-0.1-0.1
								c0-0.2,0-0.4,0.1-0.5c0-0.1,0.1-0.1,0.1-0.1c0.1,0,0.1,0.1,0.1,0.1c0,0.2,0,0.4-0.1,0.5C53.2,43.4,53.2,43.5,53.1,43.5
								L53.1,43.5z M19.9,48.6c-0.1-0.2-0.1-0.3-0.2-0.5c0-0.1,0-0.1,0.1-0.2c0.1,0,0.1,0,0.2,0.1c0.1,0.2,0.1,0.3,0.2,0.5
								c0,0.1,0,0.1-0.1,0.2l0,0C20,48.7,20,48.7,19.9,48.6z M53.2,42.4c-0.1,0-0.1-0.1-0.1-0.1c0-0.2,0-0.4,0-0.5
								c0-0.1,0.1-0.1,0.1-0.1c0.1,0,0.1,0.1,0.1,0.1c0,0.2,0,0.4,0,0.5C53.5,42.4,53.4,42.4,53.2,42.4L53.2,42.4z M25.5,47.2
								c-0.2,0-0.4,0-0.5,0s-0.1-0.1-0.1-0.1C24.9,47,25,47,25,47c0.2,0,0.3,0,0.5,0c0.1,0,0.1,0,0.1,0.1
								C25.7,47.1,25.6,47.1,25.5,47.2L25.5,47.2z M25.9,47c0-0.1,0-0.1,0.1-0.2h0.1c0.1,0,0.3-0.1,0.4-0.2c0.1,0,0.1,0,0.2,0.1
								c0,0.1,0,0.1-0.1,0.2c-0.1,0.1-0.3,0.1-0.4,0.2h-0.1l0,0C26,47.1,25.9,47,25.9,47z M24.5,47.2c-0.2,0-0.4-0.1-0.5-0.1
								c-0.1,0-0.1-0.1-0.1-0.2c0-0.1,0.1-0.1,0.2-0.1c0.2,0,0.3,0.1,0.5,0.1c0.1,0,0.1,0.1,0.1,0.1C24.6,47.1,24.5,47.2,24.5,47.2
								L24.5,47.2z M26.9,46.5c-0.1-0.1,0-0.1,0-0.2c0.1-0.1,0.2-0.2,0.3-0.4c0-0.1,0.1-0.1,0.2,0c0.1,0,0.1,0.1,0,0.2
								s-0.2,0.3-0.4,0.4C27,46.5,27,46.5,26.9,46.5C27,46.6,26.9,46.6,26.9,46.5z M19.5,47.6c-0.1-0.2-0.1-0.3-0.2-0.5
								c0-0.1,0-0.1,0.1-0.2c0.1,0,0.1,0,0.2,0.1c0.1,0.2,0.1,0.3,0.2,0.5c0,0.1,0,0.1-0.1,0.2l0,0C19.6,47.7,19.5,47.7,19.5,47.6z
								 M23.4,46.9c-0.2-0.1-0.3-0.1-0.5-0.2c-0.1,0-0.1-0.1-0.1-0.2s0.1-0.1,0.2-0.1c0.2,0.1,0.3,0.1,0.5,0.2
								c0.1,0,0.1,0.1,0.1,0.2C23.5,46.9,23.5,46.9,23.4,46.9L23.4,46.9z M48.4,42.1c0-0.1,0-0.1,0.1-0.2c0.2-0.1,0.3-0.1,0.5-0.2
								c0.1,0,0.1,0,0.2,0.1c0,0.1,0,0.1-0.1,0.2c-0.2,0.1-0.3,0.1-0.5,0.2l0,0C48.5,42.2,48.4,42.2,48.4,42.1z M48,42.3
								c-0.2,0-0.4,0-0.6-0.1c-0.1,0-0.1-0.1-0.1-0.2c0-0.1,0.1-0.1,0.2-0.1c0.2,0,0.3,0.1,0.5,0.1c0.1,0,0.1,0.1,0.1,0.1
								C48.2,42.2,48.1,42.3,48,42.3L48,42.3z M53.2,41.3c-0.1,0-0.1-0.1-0.1-0.1c0-0.2,0-0.4-0.1-0.5c0-0.1,0-0.1,0.1-0.1
								s0.1,0,0.1,0.1c0,0.2,0,0.4,0.1,0.5C53.4,41.3,53.4,41.3,53.2,41.3L53.2,41.3z M27.6,45.7c-0.1,0-0.1-0.1,0-0.2
								c0.1-0.1,0.2-0.3,0.3-0.5c0-0.1,0.1-0.1,0.2-0.1c0.1,0,0.1,0.1,0.1,0.2c-0.1,0.2-0.2,0.3-0.3,0.5
								C27.7,45.7,27.7,45.7,27.6,45.7L27.6,45.7z M22.4,46.5c-0.2-0.1-0.3-0.1-0.5-0.2c-0.1,0-0.1-0.1-0.1-0.2
								c0-0.1,0.1-0.1,0.2-0.1c0.2,0.1,0.3,0.1,0.5,0.2c0.1,0,0.1,0.1,0.1,0.2C22.6,46.5,22.5,46.5,22.4,46.5L22.4,46.5z M49.4,41.7
								c0-0.1,0-0.1,0-0.2c0.1-0.1,0.3-0.2,0.4-0.4c0.1-0.1,0.1-0.1,0.2,0c0.1,0.1,0.1,0.1,0,0.2c-0.1,0.1-0.3,0.3-0.4,0.4
								c0,0,0,0-0.1,0S49.4,41.7,49.4,41.7z M46.8,42.1c-0.2-0.1-0.3-0.1-0.5-0.2c-0.1,0-0.1-0.1-0.1-0.2c0-0.1,0.1-0.1,0.2-0.1
								c0.2,0.1,0.3,0.2,0.5,0.2c0.1,0,0.1,0.1,0.1,0.2C47.1,42,47,42.1,46.8,42.1C47,42.1,47,42.1,46.8,42.1z M21.3,46.2
								c-0.2-0.1-0.3-0.1-0.5-0.1c-0.1,0-0.1-0.1-0.1-0.1c0-0.1,0.1-0.1,0.1-0.1c0.2,0,0.4,0.1,0.5,0.1s0.1,0.1,0.1,0.2
								C21.6,46.1,21.4,46.2,21.3,46.2L21.3,46.2z M50.1,40.9c-0.1,0-0.1-0.1,0-0.2c0.1-0.1,0.2-0.3,0.3-0.4c0-0.1,0.1-0.1,0.2-0.1
								c0.1,0,0.1,0.1,0.1,0.2c-0.1,0.2-0.2,0.3-0.3,0.5C50.3,40.9,50.2,40.9,50.1,40.9C50.2,40.9,50.1,40.9,50.1,40.9z M28.2,44.7
								c-0.1,0-0.1-0.1-0.1-0.2c0.1-0.2,0.1-0.3,0.2-0.5c0-0.1,0.1-0.1,0.2-0.1s0.1,0.1,0.1,0.2c-0.1,0.2-0.1,0.3-0.2,0.5
								C28.3,44.7,28.3,44.7,28.2,44.7L28.2,44.7z M45.9,41.5c-0.1-0.1-0.3-0.2-0.4-0.3c-0.1,0-0.1-0.1,0-0.2c0.1-0.1,0.1-0.1,0.2,0
								c0.1,0.1,0.3,0.2,0.4,0.3c0.1,0,0.1,0.1,0,0.2C46,41.5,46,41.5,45.9,41.5L45.9,41.5z M52.9,40.2c0-0.2-0.1-0.3-0.1-0.5
								c0-0.1,0-0.1,0.1-0.2c0.1-0.1,0.1,0,0.2,0.1c0.1,0.2,0.1,0.3,0.2,0.5c0,0.1,0,0.1-0.1,0.2l0,0C53,40.3,52.9,40.3,52.9,40.2z
								 M20.3,46c-0.2,0-0.4,0-0.5,0c-0.1,0-0.1,0-0.2-0.1c0-0.1,0-0.1,0.1-0.2c0.2,0,0.4-0.1,0.6-0.1c0.1,0,0.1,0.1,0.1,0.1
								S20.4,46,20.3,46L20.3,46z M50.6,40c-0.1,0-0.1-0.1-0.1-0.2c0.1-0.2,0.1-0.3,0.2-0.5c0-0.1,0.1-0.1,0.2-0.1
								c0.1,0,0.1,0.1,0.1,0.2c-0.1,0.2-0.1,0.3-0.2,0.5C50.7,39.9,50.7,40,50.6,40L50.6,40z M45,40.9c-0.1-0.1-0.3-0.2-0.4-0.4
								c-0.1-0.1-0.1-0.1,0-0.2c0.1-0.1,0.1-0.1,0.2,0c0.1,0.1,0.3,0.2,0.4,0.4c0.1,0.1,0.1,0.1,0,0.2h-0.1
								C45.1,40.9,45.1,40.9,45,40.9z M28.6,43.7c-0.1,0-0.1-0.1-0.1-0.2c0.1-0.2,0.1-0.3,0.2-0.5c0-0.1,0.1-0.1,0.2-0.1
								c0.1,0,0.1,0.1,0.1,0.2c-0.1,0.2-0.1,0.3-0.2,0.5C28.8,43.7,28.7,43.7,28.6,43.7L28.6,43.7z M52.6,39.2
								c-0.1-0.2-0.2-0.3-0.3-0.4c0-0.1,0-0.1,0-0.2c0.1,0,0.1,0,0.2,0c0.1,0.1,0.2,0.3,0.3,0.5c0,0.1,0,0.1-0.1,0.2l0,0
								C52.6,39.3,52.6,39.3,52.6,39.2z M44.3,40.1c-0.1-0.1-0.3-0.2-0.4-0.4c-0.1-0.1-0.1-0.1,0-0.2c0.1-0.1,0.1-0.1,0.2,0
								c0.1,0.1,0.3,0.2,0.4,0.4c0.1,0.1,0.1,0.1,0,0.2c0,0,0,0-0.1,0C44.3,40.2,44.3,40.2,44.3,40.1z M51,39
								c-0.1,0-0.1-0.1-0.1-0.2c0.1-0.2,0.1-0.4,0.2-0.5c0-0.1,0.1-0.1,0.2-0.1c0.1,0,0.1,0.1,0.1,0.2c-0.1,0.1-0.1,0.3-0.2,0.5
								C51.1,38.9,51.1,39,51,39L51,39z M29,42.7c-0.1,0-0.1-0.1-0.1-0.2c0.1-0.2,0.1-0.3,0.2-0.5c0-0.1,0.1-0.1,0.2-0.1
								c0.1,0,0.1,0.1,0.1,0.2c-0.1,0.2-0.1,0.3-0.2,0.5C29.2,42.7,29.1,42.7,29,42.7L29,42.7z M51.9,38.4c-0.1-0.1-0.3-0.2-0.4-0.2
								c-0.1,0-0.1-0.1-0.1-0.2c0-0.1,0.1-0.1,0.2-0.1c0.1,0,0.3,0.1,0.5,0.3c0.1,0,0.1,0.1,0,0.2C52.1,38.4,52,38.4,51.9,38.4
								C52,38.4,52,38.4,51.9,38.4z M43.5,39.4L43.1,39c-0.1-0.1-0.1-0.1,0-0.2c0.1-0.1,0.1-0.1,0.2,0l0.4,0.4
								c0.1,0.1,0.1,0.1,0,0.2c0,0,0,0-0.1,0C43.6,39.4,43.5,39.4,43.5,39.4z M29.4,41.7c-0.1,0-0.1-0.1-0.1-0.2
								c0.1-0.2,0.1-0.3,0.2-0.5c0-0.1,0.1-0.1,0.2-0.1s0.1,0.1,0.1,0.2c-0.1,0.2-0.1,0.3-0.2,0.5C29.6,41.7,29.5,41.7,29.4,41.7
								C29.5,41.7,29.4,41.7,29.4,41.7z M42.7,38.5c-0.1-0.1-0.2-0.2-0.4-0.4c-0.1-0.1-0.1-0.1,0-0.2c0.1-0.1,0.1-0.1,0.2,0
								c0.1,0.1,0.3,0.3,0.4,0.4c0.1,0.1,0.1,0.1,0,0.2c0,0,0,0-0.1,0C42.8,38.7,42.8,38.5,42.7,38.5z M29.8,40.8
								c-0.1,0-0.1-0.1-0.1-0.2c0.1-0.2,0.2-0.3,0.3-0.5c0-0.1,0.1-0.1,0.2,0c0.1,0,0.1,0.1,0,0.2s-0.2,0.3-0.3,0.5
								C30,40.8,30,40.8,29.8,40.8C29.9,40.8,29.9,40.8,29.8,40.8z M42,37.8c-0.1-0.1-0.3-0.2-0.4-0.4c-0.1,0-0.1-0.1,0-0.2
								c0-0.1,0.1-0.1,0.2,0c0.1,0.1,0.3,0.2,0.4,0.4c0.1,0.1,0.1,0.1,0,0.2c0,0,0,0-0.1,0C42.1,37.8,42,37.8,42,37.8z M30.4,39.9
								c-0.1,0-0.1-0.1,0-0.2c0.1-0.2,0.2-0.3,0.4-0.4c0.1-0.1,0.1-0.1,0.2,0c0.1,0.1,0.1,0.1,0,0.2c-0.1,0.1-0.2,0.2-0.3,0.4
								c0,0-0.1,0-0.1,0.1C30.5,39.9,30.4,39.9,30.4,39.9z M31.1,39.1c0-0.1,0-0.1,0-0.2c0,0,0.1,0,0.1-0.1c0.1-0.1,0.2-0.1,0.4-0.2
								c0.1,0,0.1,0,0.2,0.1c0,0.1,0,0.1-0.1,0.2c-0.1,0.1-0.3,0.1-0.4,0.2c0,0-0.1,0-0.1,0.1l0,0C31.2,39.1,31.2,39.1,31.1,39.1z
								 M41.2,37.1C41,37,41,37,41,37c-0.1,0-0.1,0-0.2,0s-0.1-0.1-0.1-0.1l0.1-0.1c0.1,0,0.2,0,0.2,0c0.1,0,0.2,0,0.4,0.1
								c0.1,0,0.1,0.1,0,0.2C41.3,37.1,41.3,37.1,41.2,37.1C41.2,37.2,41.2,37.2,41.2,37.1z M32.1,38.5c0-0.1,0-0.1,0.1-0.2
								c0.2-0.1,0.3-0.1,0.5-0.2c0.1,0,0.1,0,0.2,0.1c0,0.1,0,0.1-0.1,0.2c-0.2,0.1-0.3,0.1-0.5,0.2l0,0
								C32.2,38.7,32.1,38.7,32.1,38.5z M40.1,37.1c-0.2,0-0.3,0-0.5,0c-0.1,0-0.1,0-0.1-0.1c0-0.1,0-0.1,0.1-0.1c0.2,0,0.4,0,0.5,0
								c0.1,0,0.1,0.1,0.1,0.1S40.2,37.1,40.1,37.1L40.1,37.1z M33.1,38.2c0-0.1,0-0.1,0.1-0.2c0.2-0.1,0.3-0.1,0.5-0.1
								c0.1,0,0.1,0,0.2,0.1c0,0.1,0,0.1-0.1,0.2c-0.2,0-0.3,0.1-0.5,0.1l0,0C33.2,38.3,33.1,38.2,33.1,38.2z M39.1,37.2
								c-0.2,0-0.3,0-0.5,0.1c-0.1,0-0.1,0-0.1-0.1c0-0.1,0.1-0.1,0.1-0.1c0.2,0,0.4,0,0.5-0.1c0.1,0,0.1,0,0.1,0.1
								C39.2,37.1,39.1,37.2,39.1,37.2L39.1,37.2z M34.1,37.9c0-0.1,0-0.1,0.1-0.2c0.2,0,0.3-0.1,0.5-0.1c0.1,0,0.1,0,0.2,0.1
								c0,0.1,0,0.1-0.1,0.2c-0.2,0-0.4,0.1-0.5,0.1l0,0C34.3,38,34.1,38,34.1,37.9z M38,37.3c-0.2,0-0.4,0.1-0.5,0.1
								c-0.1,0-0.1,0-0.1-0.1c0-0.1,0-0.1,0.1-0.1c0.2,0,0.4-0.1,0.5-0.1s0.1,0,0.1,0.1C38.1,37.2,38.1,37.3,38,37.3L38,37.3z
								 M35.2,37.7c0-0.1,0-0.1,0.1-0.2c0.2,0,0.3-0.1,0.5-0.1c0.1,0,0.1,0,0.1,0.1c0,0.1,0,0.1-0.1,0.1c-0.2,0-0.4,0.1-0.5,0.1l0,0
								C35.3,37.8,35.2,37.7,35.2,37.7z M37,37.5c-0.2,0-0.4,0.1-0.5,0.1c-0.1,0-0.1,0-0.1-0.1c0-0.1,0-0.1,0.1-0.1l0,0
								c0.2,0,0.4-0.1,0.5-0.1c0.1,0,0.1,0,0.1,0.1C37.1,37.4,37,37.5,37,37.5L37,37.5z"/>
						</g>
						<path class="st10" d="M33.7,43.6c0.2,1.3,1.4,2.4,2.9,2.7l0.8,2.1c0.6,0.2,1.2,0.3,1.7,0.2l-1-2.3c0-0.1,0-0.1,0.1-0.2
							c0.1,0,0.1,0,0.2,0.1l1.1,2.4c0.6-0.1,1.1-0.2,1.5-0.4l-0.4-2.5c0-0.1,0-0.1,0.1-0.1c0.1,0,0.1,0,0.1,0.1l0.4,2.5
							c0.4-0.2,0.7-0.4,0.8-0.5c0.2-0.2,0-1.7-0.1-2.5c1-0.9,1.5-2,1.3-3.3c-0.4-2-2.8-3.4-5.5-2.8C35.3,39.5,33.3,41.5,33.7,43.6z
							 M40,42.9c-0.1-0.7,0.3-1.3,0.8-1.4c0.5-0.1,1.2,0.4,1.3,1c0.1,0.7-0.3,1.3-0.8,1.4C40.8,44,40.1,43.6,40,42.9z M36.1,43.8
							c-0.1-0.7,0.3-1.3,0.8-1.4c0.6-0.1,1.2,0.4,1.3,1c0.1,0.7-0.3,1.3-0.8,1.4C36.8,45,36.2,44.5,36.1,43.8z"/>
						<path class="st8" d="M32.6,55.9c0.2,1.1,1,2.5,1.6,2.4s0.8-1.1,0.6-2.2c-0.2-1.1-0.7-2-1.3-1.9C32.9,54.3,32.4,54.7,32.6,55.9
							z"/>
						<path class="st10" d="M32.8,55.1c-0.1,0.6,0,1.2,0.3,1.2c0.3,0.1,0.7-0.3,0.8-0.9c0.1-0.6,0-1.1-0.3-1.2
							C33.4,54.3,32.9,54.6,32.8,55.1z"/>
						<path class="st8" d="M46.3,52.4c0.2,1.1,0.9,2.5,1.4,2.4c0.5-0.1,0.6-1,0.4-2.2c-0.2-1.1-0.6-2-1.1-1.9
							C46.5,50.7,46.1,51.2,46.3,52.4z"/>
						<path class="st10" d="M46.4,51.7c-0.1,0.6,0.1,1.1,0.3,1.2c0.2,0.1,0.5-0.3,0.6-0.8c0.1-0.6,0-1.1-0.2-1.2
							C46.8,50.7,46.5,51,46.4,51.7z"/>
						<path class="st7" d="M31.2,58.8c-0.1-0.1-0.1-0.1,0-0.2c0.1-0.1,0.1-0.1,0.2,0c0,0,0.2,0.2,0.5,0.3l0.2-0.3
							c0-0.1,0.1-0.1,0.2,0c0.1,0.1,0.1,0.1,0,0.2l-0.2,0.3c0.2,0.1,0.4,0.2,0.7,0.3V59c0-0.1,0.1-0.1,0.1-0.1C33,58.9,33,59,33,59
							v0.4c0.2,0,0.5,0,0.7,0V59c0-0.1,0.1-0.1,0.1-0.1c0.1,0,0.1,0.1,0.1,0.1v0.4c0.2,0,0.4-0.1,0.6-0.1l-0.1-0.2
							c0-0.1,0-0.1,0.1-0.2c0.1,0,0.1,0,0.2,0.1l0.1,0.3c0.1-0.1,0.3-0.1,0.4-0.2c0.1,0,0.1,0,0.2,0.1c0,0.1,0,0.1-0.1,0.2
							c-0.1,0.1-0.3,0.1-0.4,0.2l0.1,0.3c0,0.1,0,0.1-0.1,0.2l0,0c-0.1,0-0.1,0-0.1-0.1l-0.1-0.6c-0.2,0.1-0.4,0.1-0.6,0.1
							c0,0,0,0-0.1,0v0.4c0,0.1,0,0.1-0.1,0.1l0,0c-0.1,0-0.1-0.1-0.1-0.1v-0.4c-0.3,0-0.5,0-0.8,0v0.3c0,0.1-0.1,0.1-0.1,0.1l0,0
							c-0.1,0-0.1-0.1-0.1-0.1v-0.4c-0.3-0.1-0.6-0.2-0.9-0.3l-0.2,0.3l-0.1,0.1h-0.1c-0.1,0-0.1-0.1,0-0.2l0.2-0.3
							C31.4,58.9,31.2,58.8,31.2,58.8z"/>
						<path class="st11" d="M53,55.7c0,0,0.3-0.4,1.7-0.2c1.4,0.2,3.4,4.5,5.6,3.6c0,0-0.8,1.2-2.6,0.8c0,0,0.9,1,1.1,1.8
							c0.1,0.8,1.5,1.6,2.5,1.5c0,0-2.2,2.1-4.1,0.8c0,0,1.4,1.2,1.9,2.3s0.9,2.4,2.1,2.4c0,0-1.8,0.8-4-0.3c0,0,0.9,1.3,0.5,2.5
							c-0.5,1.2-0.7,2.6-0.2,3.6c0,0-1.1-0.1-1.4-1.4c0,0,0.1,2.8,0.4,3.7c0,0-0.9-1.4-1.5-1.8s-1.3-0.8-1.8-2.1
							c0,0,0.7,1.8,0.5,2.9c-0.2,1.1-0.2,2.5,0.2,3c0,0-1-0.5-1.2-1.3c0,0,0.3,1.1,0.6,1.2c0,0-0.7-0.2-0.9-0.7c0,0,0.4,1.1,0,2.1
							c0,0-0.3-1.9-1.4-2.8c0,0,1.2,1.8-0.1,3.8c-1.3,1.8-2.1,3.6-2.1,3.6s-3.4-2.3-4.9-2.5l-0.1,1.5c0,0-0.4-1.8-1.2-2.2
							c-0.8-0.4-1.3-1.6-1.3-1.6s0.1,1.3-0.4,1.7s-0.3,2.2-0.3,2.2s-1.1-1.4-1.3-2.3c-0.2-0.9-2.1-2.7-2.1-2.7s0.2,1-0.6,1.7
							c-0.7,0.7-0.6,1.8-0.6,1.8s-2-2.9-2.9-3.7c-0.9-0.7-0.6-3.7-0.6-3.7s-0.6,1.7-0.4,2.7c0,0-0.9-2.2-0.9-3c0,0-1.5,1.4-1.4,2.5
							c0,0-1.3-3.1-1.2-5.9c0,0-0.1,0.7-1.3,0.9c0,0,1.2-1.3,0.9-2.5c0,0-2.7,2-4.9,1c0,0,1.5-0.6,1.5-1c0,0-0.6,0.6-1.2,0.4
							c0,0,2-1.3,2-1.8c0-0.5,0.9-1.4,0.9-1.4s-1.8,0.2-2.2-0.2c0,0,1.5-0.4,1.7-1.1c0,0-1.7-0.4-2.4-1.2c0,0,2.7-0.7,3.1-2.1
							c0,0,0.4,4.9,3.7,6.6c3.3,1.7,5.8,2.6,6,0.1c0,0-0.5-0.4-1.2-0.1c0,0,0.1-0.8,1.8-0.6c1.8,0.2,1.6,1.1,1.6,1.1
							s-0.7-0.6-0.9-0.1c-0.2,0.5-0.4,1.5,0.8,1.9c1.2,0.4,10.2-1,13.7-4.3C55.7,63.5,54.6,58.3,53,55.7z"/>
						<g>
							<path class="st2" d="M54.6,60.7c1.4-0.7,2.2-1.6,2.4-2.6c0.3-1.6-0.9-3-0.9-3c-0.1-0.1-0.2-0.1-0.3-0.1l0,0
								c-0.1,0.1-0.2,0.2-0.1,0.3c0.2,0.5,0,0.9-0.5,1.1l0,0c-0.7,0.4-1.9,0.4-3.4,0.6c-1.6,0.1-3.3,0.2-4.4,0.8
								c-0.5,0.3-0.9,0.6-1.1,1.1c-0.3,0.7-0.1,1.5,0.4,2.1c0.5,0.5,2.3,1.9,6.9,0.2C54.1,61,54.4,60.9,54.6,60.7L54.6,60.7z"/>
							<path class="st11" d="M55.9,55.1c0,0,3.3,3.7-2.2,5.8c-5.5,2.1-7.7-0.4-7-2C48,55.9,56.9,58.3,55.9,55.1z"/>
							<path class="st2" d="M38.5,64.8c2.4-0.4,4.2-1.6,4.6-3c0.2-0.8,0-1.6-0.5-2.1c-0.6-0.5-1.5-0.7-2.7-0.5c-1,0.2-2.1,0.6-3.3,1
								c-1,0.4-1.9,0.7-2.6,0.8c-0.6,0.1-1,0.1-1.3-0.1c-0.2-0.1-0.3-0.4-0.3-0.7c0-0.1-0.1-0.2-0.2-0.2H32c-0.1,0-0.2,0.1-0.2,0.2
								c0,0.1-0.6,2,0.5,3.5c0.8,1,2.2,1.5,4.4,1.4C37.3,65,37.9,64.9,38.5,64.8z"/>
							<path class="st11" d="M32.1,60.1c0,0-1.5,4.9,4.6,4.6c6.1-0.3,7.1-3.7,5.7-4.9C39.9,57.5,32.5,63.6,32.1,60.1z"/>
						</g>
						<path class="st9" d="M46.7,55.9c0,0-0.8-5.8-4.4-5.2c-3.6,0.6-2.5,10.9,2.7,11.6c5.2,0.6,7.2-4.1,4.7-6.1
							c-2.1-1.7-4.3,2.1-4.3,2.1S46.2,56.6,46.7,55.9z"/>
						<path class="st7" d="M26.4,60c0.1,0,0.1-0.1,0.1-0.1c0-0.1,0-3.8-1.9-3.9c-0.6,0-1.1,0.1-1.3,0.4c-0.4,0.5-0.2,1.2-0.2,1.2
							c0,0.1,0.1,0.1,0.2,0.1s0.1-0.1,0.1-0.2c0,0-0.2-0.6,0.1-0.9c0.2-0.2,0.6-0.4,1.1-0.3c1.7,0.1,1.7,3.6,1.7,3.6
							C26.3,59.9,26.3,60,26.4,60L26.4,60z"/>
						<path class="st7" d="M24.7,58.5c0.1,0,0.1-0.1,0.1-0.1c0.1-0.9,1.1-1,1.1-1c0.1,0,0.1-0.1,0.1-0.1l-0.1-0.1c0,0-1.2,0-1.4,1.2
							C24.5,58.4,24.5,58.5,24.7,58.5C24.6,58.5,24.6,58.5,24.7,58.5z"/>
						<path class="st12" d="M64.5,86.2c0,0-1.3,1.4-2.3,1.7c0.1,0.1,0.3,0.2,0.5,0.4c0.4,0.3,0.7,0.6,1.1,0.9c0.3,0.3,0.7,0.6,1,0.9
							c0.3,0.3,0.6,0.6,0.9,0.9c0.1,0.1,0.3,0.3,0.4,0.4c0.1,0.1,0.1,0.1,0.2,0.2s0.1,0.1,0.2,0.2c0.2,0.3,0.4,0.5,0.6,0.7
							c0.2,0.2,0.3,0.4,0.4,0.6c0.2,0.3,0.4,0.5,0.4,0.5l1.5-0.8c0,0-0.1-0.2-0.3-0.6c-0.1-0.2-0.2-0.4-0.4-0.7
							c-0.2-0.3-0.4-0.6-0.6-0.9c-0.1-0.1-0.1-0.2-0.1-0.3c-0.1-0.1-0.1-0.2-0.2-0.2c-0.1-0.2-0.2-0.3-0.4-0.5
							c-0.2-0.4-0.5-0.7-0.8-1.1s-0.6-0.7-1-1.1C65.2,86.9,64.8,86.5,64.5,86.2z"/>
						<path class="st4" d="M23.4,77c-0.9,0.5-3,1.9-4.8,4.5c-0.7-0.8-1.2-1.5-1.6-2.3c1.8-2.4,4-3.9,5-4.5
							C22.3,75.3,22.8,76.1,23.4,77z"/>
					</g>
				</g>
			</g>
		</g>
	</g>
</g>
<g>
	<g>
		<g>
			<defs>
				<path id="SVGID_93_" d="M70.6-37.6c-0.7,0-1.2,3.4-1.2,3.8c-0.6,16.1-13.8,28.9-30,28.9C22.8-4.9,9.3-18.4,9.3-35
					s16.1-50.2,32.8-50.2c16.3,0,42.8-7.9,34.7,43.6C76.8-41.2,71-37.6,70.6-37.6z"/>
			</defs>
			<clipPath id="SVGID_3_">
				<use xlink:href="#SVGID_93_"  style="overflow:visible;"/>
			</clipPath>
			<g id="Layer_10_1_" style="clip-path:url(#SVGID_3_);">
				<ellipse class="st215" cx="54.8" cy="12.7" rx="47.1" ry="2.4"/>
				<path class="st218" d="M72.8-1v1.4l3,3V0.3C74.7,0,73.7-0.5,72.8-1z"/>
				<path class="st218" d="M80.5,1.3v6.8l3.9,3.9h0.9V1.2C83.7,1.4,82.1,1.5,80.5,1.3z"/>
				<polygon class="st219" points="80.5,12.1 84.5,12.1 80.5,8.2 				"/>
				<polygon class="st219" points="72.8,0.4 72.8,12.1 75.7,12.1 75.7,3.4 				"/>
				<path class="st218" d="M86.4,12.1h10.7V-4.3c-3,2.8-6.6,4.7-10.7,5.4V12.1z"/>
				<path class="st220" d="M67.6-4.8c-4-4-6.2-9.4-6.2-15v31.8h11.4V0.4L67.6-4.8z"/>
				<polygon class="st220" points="75.7,3.4 75.7,12.1 80.5,12.1 80.5,8.2 				"/>
				<path class="st218" d="M86.4-32.8V1.1c4-0.7,7.7-2.6,10.7-5.4v-28.4H86.4z"/>
				<path class="st218" d="M85.3,1.2v-34h-4.8V1.3C82.1,1.5,83.7,1.4,85.3,1.2z"/>
				<path class="st218" d="M75.7,0.3v-33.1h-3V-1C73.7-0.5,74.7,0,75.7,0.3z"/>
				<path class="st221" d="M65.9-32.8h-4.5v13c0,5.6,2.2,11,6.2,15l5.2,5.2v-33.2L65.9-32.8L65.9-32.8z"/>
				<polygon class="st221" points="75.7,-32.8 75.7,0.3 75.7,3.4 80.5,8.2 80.5,1.3 80.5,-32.8 				"/>
				<polygon class="st221" points="85.3,-32.8 85.3,1.2 85.3,12.1 86.4,12.1 86.4,1.1 86.4,-32.8 				"/>
				<polygon class="st222" points="44.9,12.8 43.8,12.8 40.1,-12.9 41.2,-12.9 				"/>
				<polygon class="st223" points="46,12.8 44.9,12.8 41.2,-12.9 42.3,-12.9 				"/>
				<polygon class="st222" points="34.2,-2.3 34.2,11.3 35.3,11.3 35.3,-1.2 				"/>
				<polygon class="st224" points="35.3,-1.2 35.3,11.3 36.4,11.3 36.4,-0.1 				"/>
				<polygon class="st226" points="27,-3.9 24.7,12.8 25.7,12.8 28,-2.9 				"/>
				<polygon class="st222" points="25.7,12.8 26.8,12.8 29,-2 28,-2.9 				"/>
			</g>
		</g>
	</g>
</g>
</svg>
