<?xml version="1.0" encoding="utf-8"?>
<!-- Generator: Adobe Illustrator 21.0.1, SVG Export Plug-In . SVG Version: 6.00 Build 0)  -->
<svg version="1.1" id="Layer_1" xmlns="http://www.w3.org/2000/svg" xmlns:xlink="http://www.w3.org/1999/xlink" x="0px" y="0px"
	 viewBox="0 0 87.3 87.3" style="enable-background:new 0 0 87.3 87.3;" xml:space="preserve">
<style type="text/css">
	.st0{fill:#2CAB9F;}
	.st1{fill:#D8D8D2;}
	.st2{fill:#F2C6A1;}
	.st3{fill:#BC2F3D;}
	.st4{fill:#FECE08;}
	.st5{fill:#F3A27A;}
	.st6{clip-path:url(#SVGID_2_);}
	.st7{fill:#89684D;}
	.st8{fill:#414042;}
	.st9{fill:#EA7E78;}
	.st10{fill:#FFFFFF;}
	.st11{fill:#EE4500;}
	.st12{fill:#FEA708;}
	.st13{fill:url(#SVGID_3_);}
	.st14{fill:#92A9ED;}
	.st15{fill:#5F70AF;}
	.st16{fill:#A3A3A3;}
	.st17{fill:#C1C1C1;}
	.st18{fill:#A3A2A2;}
	.st19{fill:#E7E3E1;}
	.st20{clip-path:url(#SVGID_5_);fill:#BEBBBB;}
	.st21{clip-path:url(#SVGID_7_);fill:#BEBBBB;}
	.st22{clip-path:url(#SVGID_9_);fill:#BEBBBB;}
	.st23{clip-path:url(#SVGID_11_);fill:#BEBBBB;}
	.st24{clip-path:url(#SVGID_13_);fill:#BEBBBB;}
	.st25{clip-path:url(#SVGID_15_);fill:#BEBBBB;}
	.st26{fill:#58595B;}
	.st27{fill:#E2B436;}
	.st28{clip-path:url(#SVGID_17_);}
	.st29{fill:#36313B;}
	.st30{fill:#231E2B;}
	.st31{fill:#47414D;}
	.st32{fill:#273E42;}
	.st33{fill:#355860;}
	.st34{fill:#49727C;}
	.st35{fill:#3B2130;}
	.st36{fill:#5895A5;}
	.st37{fill:#E8BE9B;}
	.st38{fill:#C7936B;}
	.st39{fill:#69ACC4;}
	.st40{fill:#4FAB59;}
	.st41{fill:#915620;}
	.st42{fill:#AD661F;}
	.st43{fill:#A6644B;}
	.st44{fill:#C2751D;}
	.st45{fill:#CF8934;}
	.st46{fill:url(#SVGID_18_);}
	.st47{clip-path:url(#SVGID_20_);}
	.st48{fill:url(#hair_1_);}
	.st49{fill:url(#SVGID_21_);}
	.st50{opacity:0.3;fill:#A55311;enable-background:new    ;}
	.st51{opacity:0.2;fill:#FFA383;enable-background:new    ;}
	.st52{opacity:0.61;fill:#FFB273;enable-background:new    ;}
	.st53{opacity:0.4;fill:#FFB273;enable-background:new    ;}
	.st54{fill:url(#axe_1_);}
	.st55{opacity:0.3;fill:#676E7A;enable-background:new    ;}
	.st56{opacity:0.25;fill:#FFFFFF;enable-background:new    ;}
	.st57{opacity:0.5;fill:#FFFFFF;enable-background:new    ;}
	.st58{fill:#A8B5C1;}
	.st59{opacity:0.35;fill:#FFFFFF;enable-background:new    ;}
	.st60{fill:#FFC19F;}
	.st61{opacity:0.8;fill:#FFC19F;enable-background:new    ;}
	.st62{fill:url(#arm_1_);}
	.st63{opacity:0.6;fill:#FFC19F;enable-background:new    ;}
	.st64{fill:url(#SVGID_22_);}
	.st65{fill:url(#SVGID_23_);}
	.st66{fill:url(#SVGID_24_);}
	.st67{fill:url(#pants_1_);}
	.st68{opacity:0.2;fill:#1D280D;enable-background:new    ;}
	.st69{opacity:0.3;fill:#1D280D;enable-background:new    ;}
	.st70{fill:url(#SVGID_25_);}
	.st71{opacity:0.75;fill:#893700;enable-background:new    ;}
	.st72{fill:url(#SVGID_26_);}
	.st73{fill:url(#SVGID_27_);}
	.st74{fill:url(#SVGID_28_);}
	.st75{fill:url(#arm_2_);}
	.st76{fill:url(#SVGID_29_);}
	.st77{fill:url(#SVGID_30_);}
	.st78{fill:url(#SVGID_31_);}
	.st79{fill:url(#shirt_1_);}
	.st80{opacity:0.15;fill:url(#shadow_1_);enable-background:new    ;}
	.st81{fill:url(#belt_1_);}
	.st82{opacity:0.35;}
	.st83{fill:url(#SVGID_32_);}
	.st84{fill:url(#SVGID_33_);}
	.st85{opacity:0.8;}
	.st86{fill:url(#SVGID_34_);}
	.st87{fill:url(#SVGID_35_);}
	.st88{opacity:0.4;fill:url(#SVGID_36_);enable-background:new    ;}
	.st89{fill:url(#SVGID_37_);}
	.st90{opacity:0.6;fill:#FFEB78;enable-background:new    ;}
	.st91{opacity:0.75;fill:#FFEB78;enable-background:new    ;}
	.st92{fill:url(#SVGID_38_);}
	.st93{fill:url(#SVGID_39_);}
	.st94{fill:url(#SVGID_40_);}
	.st95{opacity:0.4;fill:#BF1604;enable-background:new    ;}
	.st96{fill:#541918;}
	.st97{fill:#9B071C;}
	.st98{fill:#FF2B15;}
	.st99{fill:url(#SVGID_41_);}
	.st100{fill:#A55311;}
	.st101{fill:#471A08;}
	.st102{fill:#FCC79A;}
	.st103{opacity:0.69;fill:#FFD3AB;enable-background:new    ;}
	.st104{fill:url(#SVGID_42_);}
	.st105{fill:url(#SVGID_43_);}
	.st106{fill:url(#SVGID_44_);}
	.st107{opacity:0.25;fill:url(#SVGID_45_);enable-background:new    ;}
	.st108{opacity:0.25;fill:#FC8460;enable-background:new    ;}
	.st109{fill:url(#SVGID_46_);}
	.st110{opacity:0.3;fill:url(#SVGID_47_);enable-background:new    ;}
	.st111{clip-path:url(#SVGID_49_);}
	.st112{fill:url(#SVGID_50_);}
	.st113{fill:url(#axe_2_);}
	.st114{fill:url(#arm_3_);}
	.st115{fill:url(#SVGID_51_);}
	.st116{fill:url(#SVGID_52_);}
	.st117{fill:url(#SVGID_53_);}
	.st118{fill:url(#SVGID_54_);}
	.st119{clip-path:url(#SVGID_56_);}
	.st120{fill:#FCC78C;}
	.st121{fill:url(#SVGID_57_);}
	.st122{fill:#AC7930;}
	.st123{fill:#1A171B;}
	.st124{fill:#EDEDEE;}
	.st125{fill:#939292;}
	.st126{fill:#C7D5DF;}
	.st127{fill:#98B7C9;}
	.st128{fill:url(#SVGID_58_);}
	.st129{fill:url(#SVGID_59_);}
	.st130{fill:url(#SVGID_60_);}
	.st131{fill:url(#SVGID_61_);}
	.st132{fill:url(#SVGID_62_);}
	.st133{fill:url(#SVGID_63_);}
	.st134{fill:url(#SVGID_64_);}
	.st135{fill:url(#SVGID_65_);}
	.st136{fill:url(#SVGID_66_);}
	.st137{fill:url(#SVGID_67_);}
	.st138{fill:url(#SVGID_68_);}
	.st139{fill:#EB3D00;}
	.st140{fill:#835527;}
	.st141{fill:#D0995B;}
	.st142{fill:#E4AC00;}
	.st143{fill:#553F24;}
	.st144{fill:#93723A;}
	.st145{fill:#B9391A;}
	.st146{fill:#D99C09;}
	.st147{fill:#FFCC00;}
	.st148{fill:#9C9D9F;}
	.st149{fill:#B1B3B4;}
	.st150{fill:#C6C7C9;}
	.st151{fill:#D9DADB;}
	.st152{fill:#87888A;}
	.st153{fill:#A65C44;}
	.st154{fill:url(#SVGID_69_);}
	.st155{fill:url(#SVGID_70_);}
	.st156{fill:#2A2C2E;}
	.st157{clip-path:url(#SVGID_72_);}
	.st158{fill:#FFF200;}
	.st159{fill:#FFE300;}
	.st160{fill:#FBB040;}
	.st161{fill:#FC873E;}
	.st162{fill:#FB983F;}
	.st163{fill:url(#SVGID_73_);}
	.st164{fill:#754629;}
	.st165{clip-path:url(#SVGID_75_);fill:#ED1C24;}
	.st166{clip-path:url(#SVGID_77_);fill:#FB983F;}
	.st167{clip-path:url(#SVGID_79_);fill:#FB983F;}
	.st168{clip-path:url(#SVGID_81_);}
	.st169{fill:#ED1C24;}
	.st170{fill:#FEFFFF;}
	.st171{fill:#B3151B;}
	.st172{fill:#ED5C62;}
	.st173{opacity:0.2;fill:#231F20;enable-background:new    ;}
	.st174{opacity:0.4;fill:#231F20;enable-background:new    ;}
	.st175{fill:#424345;}
	.st176{fill:#FFE3C2;}
	.st177{opacity:0.1;fill:#231F20;enable-background:new    ;}
	.st178{fill:#303842;}
	.st179{fill:#363F4A;}
	.st180{clip-path:url(#SVGID_83_);fill:#FFEEDB;}
	.st181{clip-path:url(#SVGID_85_);fill:#2A2C2E;}
	.st182{opacity:0.2;clip-path:url(#SVGID_87_);fill:#231F20;enable-background:new    ;}
	.st183{clip-path:url(#SVGID_89_);}
	.st184{fill:#08E4FF;stroke:#08E4FF;stroke-width:0.1289;stroke-miterlimit:10;}
	.st185{fill:#F5F38E;}
	.st186{fill:#90C53F;}
	.st187{clip-path:url(#SVGID_91_);}
	.st188{fill:#754444;}
	.st189{fill:#5E3636;}
	.st190{fill:#7A5E27;}
	.st191{fill:#D1AB65;}
	.st192{fill:#A78442;}
	.st193{fill:#FCCFA4;}
	.st194{fill:#C78E65;}
	.st195{fill:#DDDDDC;}
	.st196{fill:#3B212A;}
	.st197{fill:#24211D;}
	.st198{fill:#45413F;}
	.st199{fill:#968064;}
	.st200{fill:#706151;}
	.st201{fill:url(#SVGID_92_);}
	.st202{fill:#211D18;}
	.st203{fill:#352E27;}
	.st204{display:none;}
	.st205{display:inline;}
	.st206{fill:#A8A8A7;}
	.st207{fill:#3C3C3B;}
	.st208{fill:#C59221;}
	.st209{fill:#FDC800;}
	.st210{display:inline;fill:#FFFFFF;}
	.st211{fill:#949393;}
	.st212{fill:#DBE8B0;}
	.st213{clip-path:url(#SVGID_94_);}
	.st214{opacity:0.3;fill:#808080;enable-background:new    ;}
	.st215{display:none;fill:#4B4B63;}
	.st216{fill:#4F3927;}
	.st217{fill:#5F442D;}
	.st218{fill:#6C5236;}
	.st219{fill:#976F44;}
	.st220{fill:#AC824E;}
	.st221{fill:#826544;}
	.st222{fill:#6E6E6E;}
	.st223{fill:#595959;}
	.st224{fill:#545454;}
	.st225{fill:#424242;}
	.st226{fill:#9C9C9C;}
	.st227{fill:#6E8091;}
	.st228{fill:#7B8B9B;}
	.st229{opacity:0.25;fill:#696969;enable-background:new    ;}
	.st230{fill:#A4C639;}
	.st231{fill:#FFC639;}
	.st232{fill:#F1A530;}
	.st233{fill:none;}
	.st234{opacity:0.29;fill:#383838;}
	.st235{opacity:0.4;fill:#FFFFFF;enable-background:new    ;}
	.st236{opacity:0.8;fill:#FFFFFF;enable-background:new    ;}
	.st237{fill:#859F25;}
	.st238{fill:#D78507;}
	.st239{fill:#262626;}
	.st240{fill:#BFD773;}
	.st241{fill:#FBDD57;}
	.st242{clip-path:url(#SVGID_96_);fill:#F4B711;}
	.st243{fill:#F4B711;}
	.st244{clip-path:url(#SVGID_98_);fill:#F4B711;}
	.st245{fill:#F4BB3B;}
	.st246{fill:#383838;}
	.st247{fill:#E6E6E6;}
	.st248{fill:#B3B3B3;}
	.st249{fill:#7D7D7D;}
	.st250{fill:#2F2F2F;}
	.st251{fill:#F2D850;}
	.st252{clip-path:url(#SVGID_100_);}
	.st253{fill:#C62B12;}
	.st254{fill:#B3B729;}
	.st255{fill:#A3A321;}
	.st256{fill:#C8D340;}
	.st257{opacity:0.6;fill:#7F7C13;enable-background:new    ;}
	.st258{fill:#F6D88C;}
	.st259{fill:url(#SVGID_101_);}
	.st260{fill:#1D1D1B;}
	.st261{fill:#C96317;}
	.st262{fill:#B74C1D;}
	.st263{fill:#C91111;}
	.st264{fill:#F6F8F9;}
	.st265{fill:#F97450;}
	.st266{fill:#3D8699;}
	.st267{fill:#FC7800;}
	.st268{fill:#7A7A74;}
	.st269{opacity:0.6;fill:#7F2713;enable-background:new    ;}
	.st270{fill:#F5D78B;}
	.st271{fill:#F5D78C;}
	.st272{fill:#F09453;}
	.st273{fill:#EF8E4D;}
	.st274{fill:#F1A15E;}
	.st275{fill:#EF8A4D;}
	.st276{fill:#EF8848;}
	.st277{fill:#F3C078;}
	.st278{fill:#F2B26F;}
	.st279{fill:#F19D5B;}
	.st280{fill:#F1A562;}
	.st281{fill:#F09A58;}
	.st282{fill:#EE7F41;}
	.st283{fill:url(#SVGID_102_);}
	.st284{fill:none;stroke:url(#SVGID_103_);stroke-width:1.9316;stroke-miterlimit:10;}
	.st285{clip-path:url(#SVGID_105_);}
	.st286{fill:#547FA1;}
	.st287{fill:#D0BF90;}
	.st288{fill:#E5D6AC;}
	.st289{fill:#DBC99A;}
	.st290{fill:#DCC6A2;}
	.st291{fill:url(#Кофта_1_);}
	.st292{fill:#FFBD7B;}
	.st293{fill:#CCAF83;}
	.st294{fill:#DBC5A1;}
	.st295{fill:#D3B991;}
	.st296{fill:#3C3022;}
	.st297{fill:url(#SVGID_106_);}
	.st298{fill:#FF9E85;}
	.st299{fill:#292929;}
	.st300{fill:#2C3C53;}
	.st301{fill:none;stroke:url(#SVGID_107_);stroke-width:1.9316;stroke-miterlimit:10;}
	.st302{fill:#FFFFFF;stroke:url(#SVGID_108_);stroke-width:1.9311;stroke-miterlimit:10;}
	.st303{clip-path:url(#SVGID_110_);}
	.st304{fill:#363D67;}
	.st305{fill:#DCA54C;}
	.st306{fill:#FEFEFE;}
	.st307{fill:#F5183F;}
	.st308{fill:#FDCCBB;}
	.st309{fill:#FDFDFC;}
	.st310{fill:#FDFDFB;}
	.st311{fill:#F4183F;}
	.st312{fill:#F31840;}
	.st313{fill:#F4173F;}
	.st314{fill:#DBA44C;}
	.st315{fill:#FCF9F9;}
	.st316{fill:#FCFCFA;}
	.st317{fill:#DAA44C;}
	.st318{fill:#FBF5F6;}
	.st319{fill:#FCF6F6;}
	.st320{fill:#FBFAF7;}
	.st321{fill:#DD1F47;}
	.st322{fill:#FAF5F6;}
	.st323{fill:#CE9D54;}
	.st324{fill:#F8ECEF;}
	.st325{fill:#FCF6F7;}
	.st326{fill:#D5A254;}
	.st327{fill:#727693;}
	.st328{fill:#E91B43;}
	.st329{fill:#F5F5F6;}
	.st330{fill:#AFB6C1;}
	.st331{fill:#D6A14E;}
	.st332{fill:#F7F2F3;}
	.st333{fill:#363C67;}
	.st334{fill:#353C67;}
	.st335{fill:#F31C42;}
	.st336{fill:#EAD2DA;}
	.st337{fill:#DA1E45;}
	.st338{fill:#373E67;}
	.st339{fill:#FCCCB9;}
	.st340{fill:#3D4166;}
	.st341{fill:#FBCBB8;}
	.st342{fill:#F6CAB6;}
	.st343{fill:#FBC3CD;}
	.st344{fill:#FBDCE1;}
	.st345{fill:#ED1D44;}
	.st346{fill:#ECEBEE;}
	.st347{fill:#E1234A;}
	.st348{fill:#DED3DB;}
	.st349{fill:#DD2047;}
	.st350{fill:#D5CCD6;}
	.st351{fill:#F5DDE3;}
	.st352{fill:#383E67;}
</style>
<g>
	
		<radialGradient id="SVGID_2_" cx="39.334" cy="29.7213" r="30" gradientTransform="matrix(1 0 0 -1 0 86.6667)" gradientUnits="userSpaceOnUse">
		<stop  offset="0" style="stop-color:#A49494"/>
		<stop  offset="0.6882" style="stop-color:#556886"/>
		<stop  offset="1" style="stop-color:#36455F"/>
	</radialGradient>
	<circle style="fill:url(#SVGID_2_);" cx="39.3" cy="56.9" r="30"/>
	<g>
		<g>
			<defs>
				<circle id="SVGID_19_" cx="39.3" cy="56.9" r="30"/>
			</defs>
			<clipPath id="SVGID_3_">
				<use xlink:href="#SVGID_19_"  style="overflow:visible;"/>
			</clipPath>
			<g id="viking_1_" style="clip-path:url(#SVGID_3_);">
				
					<linearGradient id="hair_1_" gradientUnits="userSpaceOnUse" x1="396.4328" y1="45.2528" x2="395.1786" y2="22.0046" gradientTransform="matrix(-1 0 0 -1 439.6758 86.6667)">
					<stop  offset="0" style="stop-color:#FF2B15"/>
					<stop  offset="0.2842" style="stop-color:#E3200F"/>
					<stop  offset="0.7562" style="stop-color:#BB1007"/>
					<stop  offset="1" style="stop-color:#AB0A04"/>
				</linearGradient>
				<path id="hair_6_" class="st48" d="M26.4,50.1c3.3-4.7,5.2-3.1,6.4-4.3c1.8-1.9,2-2.4,4.4-3.8c6-3.3,9.8,1.1,10.6,2.7
					c0.8,1.6,1.4,3.2,2,4.2c0.8,1.4,3,1.5,4.1,2.9c1.2,1.5,0.4,2.5,1.8,4.3c0.6,0.8,3.2,1.8,3.7,3.4c0.8,2.3-0.1,3.3,2.5,6.2
					C45,65.8,25,52.1,26.4,50.1z"/>
				<g id="arm_with_axe_2_">
					<g id="axe_10_">
						<g id="handle_9_">
							<g id="handle_10_">
								
									<linearGradient id="SVGID_5_" gradientUnits="userSpaceOnUse" x1="206.5461" y1="1103.8022" x2="206.5461" y2="1145.7231" gradientTransform="matrix(0.5398 0.8417 -0.8417 0.5398 854.5003 -753.2461)">
									<stop  offset="0" style="stop-color:#6E1D05"/>
									<stop  offset="4.000000e-03" style="stop-color:#6F1D05"/>
									<stop  offset="0.2988" style="stop-color:#943807"/>
									<stop  offset="0.5724" style="stop-color:#AF4A09"/>
									<stop  offset="0.8145" style="stop-color:#BF560A"/>
									<stop  offset="1" style="stop-color:#C55A0A"/>
								</linearGradient>
								<path style="fill:url(#SVGID_5_);" d="M2.5,39c0,0,25.2-19,31-24.6c1,0,2.1,0.1,2.1,0.1s0,1.3-0.2,2.2
									C30.2,19.8,5.1,41,4.4,41.5C4.4,41.5,1.7,41.1,2.5,39z"/>
								<path class="st50" d="M7.2,35.5c1.4,1.4,3-0.1,4.4-1c0.8-0.5,11.8-8.8,14.8-11c-9.2,7.3-21.5,17.6-22,18
									c0,0-2.7-0.4-1.8-2.5C2.5,39,4.4,37.6,7.2,35.5z"/>
								<path class="st51" d="M26.2,20.6c0.4,2.5-16.6,15.9-18,14.1C13.2,30.9,20.5,25.3,26.2,20.6z"/>
							</g>
							<g id="tip_4_">
								<path class="st52" d="M33.5,14.4c1,0,2.1,0.1,2.1,0.1s0,1.3-0.2,2.2c-0.1-0.2-0.5-0.8-0.6-1.1
									C34.6,15.3,33.7,14.6,33.5,14.4z"/>
								<path class="st53" d="M33.5,14.4c1,0,2.1,0.1,2.1,0.1s-0.5,0.8-0.7,1.1C34.6,15.3,33.7,14.6,33.5,14.4z"/>
							</g>
						</g>
						<g id="axe_11_">
							
								<linearGradient id="axe_1_" gradientUnits="userSpaceOnUse" x1="108.2644" y1="-271.6637" x2="135.3765" y2="-271.6637" gradientTransform="matrix(0.6258 0.7799 0.7799 -0.6258 167.4487 -247.3417)">
								<stop  offset="0" style="stop-color:#A8B5C1"/>
								<stop  offset="0.5064" style="stop-color:#819BB0"/>
								<stop  offset="1" style="stop-color:#A8B5C1"/>
							</linearGradient>
							<path id="axe_12_" class="st54" d="M42.9,26l-0.8-1.2l1.6,0.4c1.2-1.5,2.1-3.2,2.2-5.1c-7.7,4.7-12.4-1.9-12.4-1.9
								c0.3-0.2,0-0.9-0.5-1.4c-0.4-0.6-1-1-1.3-0.8c0,0-5.4-6,0.8-12.5c-4.9-0.7-10.7,4.3-11.9,7.1l1.2,1.3l-1.7-0.2
								c-0.3,0.6-1,2.4-0.9,3.5l1.1,0.4l-1.2,0.1c-0.1,0.4,0.1,1.2,0.1,1.5c3.1-0.8,7,1.5,7.9,2.3c-0.3,0.1,0,0.9,0.5,1.5
								c0.5,0.6,1.2,1.1,1.4,0.9c0.6,1.1,2,5.4,0.5,8.2c0.2,0.1,1.9,0.7,4.3,0.5l0.1-1.5l0.9,1.4c0.5-0.1,0.9-0.2,1.4-0.3L36.2,29
								l0.8,1C38.9,29.2,41.1,27.9,42.9,26z"/>
							<path id="shadow_16_" class="st55" d="M30.2,21.6l3.3-3.4c0.3-0.2,0-0.9-0.5-1.4c-0.4-0.6-1-1-1.3-0.8l-3.9,2.5
								c-4.6-2.6-8.6-1.6-8.5-1.4c3.1-0.8,7,1.5,7.9,2.3c-0.3,0.1,0,0.9,0.5,1.5c0.5,0.6,1.2,1.1,1.4,0.9c0.6,1.1,2,5.4,0.5,8.2
								C29.8,30.1,31.7,27,30.2,21.6z"/>
							<g id="lights_3_">
								<g>
									<path class="st56" d="M42.9,26l-0.8-1.2l1.6,0.4c1.2-1.5,2.1-3.2,2.2-5.1c-0.7,0.5-1.5,0.8-2.2,1.1
										c-2.6,5.6-8.8,8.3-13.5,7.4c-0.1,0.5-0.3,1-0.5,1.5c0.2,0.1,1.9,0.7,4.3,0.5l0.1-1.5l0.9,1.4c0.5-0.1,0.9-0.2,1.4-0.3
										L36.2,29l0.8,1C38.9,29.2,41.1,27.9,42.9,26z"/>
									<path class="st57" d="M38.7,26.7l1,1.9c0.8-0.5,1.5-1,2.2-1.7l-1.4-1.5C40,25.9,39.4,26.3,38.7,26.7z"/>
								</g>
								<g>
									<path class="st56" d="M30.9,5.5c0.4-0.7,0.9-1.3,1.6-2c-4.9-0.7-10.7,4.3-11.9,7.1l1.2,1.3l-1.7-0.2
										c-0.3,0.6-1,2.4-0.9,3.5l1.1,0.4l-1.2,0.1c-0.1,0.4,0.1,1.2,0.1,1.5c0.6-0.1,1.2-0.2,1.8-0.2C21.5,11.6,25.1,6.9,30.9,5.5z
										"/>
									<path class="st57" d="M21.2,9.6l1.9,1.4c0.2-0.4,0.5-0.7,0.7-1l-1.6-1.8C21.8,8.7,21.4,9.2,21.2,9.6z"/>
								</g>
							</g>
							<g id="middle_part_3_">
								<path class="st58" d="M33.5,18.2c0.3-0.2,0-0.9-0.5-1.4c-0.4-0.6-1-1-1.3-0.8l-4.5,3.5c-0.3,0.1,0,0.9,0.5,1.5
									c0.5,0.6,1.2,1.1,1.4,0.9L33.5,18.2z"/>
								<path class="st59" d="M27.3,20.2c0.1,0.1,0.2,0.3,0.2,0.4l5.2-4.3c-0.1-0.1-0.2-0.2-0.3-0.2L27.3,20.2z"/>
							</g>
						</g>
					</g>
					<g id="arm_13_">
						<g id="fingers_2_">
							<path class="st60" d="M9.9,31.7c-0.1-0.8,0.7-1.3,1.3-1.2c-0.1-0.8,0.8-1.4,1.4-1.2c0.1-0.2,0.1-0.4,0.1-0.5
								c1.1-0.5,2.1,0.3,3.1,0.6c-0.1,1.5,0.4,2.6-0.8,2.7c0.3,0.5-0.5,1.7-1.5,1.3c0,1-1,1.1-1.4,0.8c0.3,1.3-1.6,0.8-2.5-0.6
								L9,34.1C8.1,33.3,8.8,31.7,9.9,31.7z"/>
							<path class="st61" d="M15.8,29.4c-0.1,1.5,0.4,2.6-0.8,2.7c0.3,0.5-0.5,1.7-1.5,1.3c0,1-1,1.1-1.4,0.8
								c0.3,1.3-1.6,0.8-2.5-0.6L9,34.1c-0.4-0.3-0.5-0.8-0.4-1.2c0.6,0.4,1.5,0.5,1.9,0.2c0.6-0.5,0-1-0.7-1.3
								c0.5,0.1,1.4,0.6,1.9,0.3c0.9-0.5,0-1-0.6-1.5c0.9,0.4,2.8,0.9,3-0.4c-0.4-0.4-1.1-0.6-1.6-0.8C13.7,29.5,15,30.2,15.8,29.4z
								"/>
						</g>
						
							<linearGradient id="arm_1_" gradientUnits="userSpaceOnUse" x1="410.8341" y1="27.4866" x2="431.482" y2="53.8311" gradientTransform="matrix(-1 0 0 -1 439.6758 86.6667)">
							<stop  offset="0" style="stop-color:#FF9163"/>
							<stop  offset="0.1186" style="stop-color:#FF9A6E"/>
							<stop  offset="0.4617" style="stop-color:#FFAF89"/>
							<stop  offset="0.7665" style="stop-color:#FFBC99"/>
							<stop  offset="1" style="stop-color:#FFC19F"/>
						</linearGradient>
						<path id="arm_14_" class="st62" d="M14.1,33.4c-0.5,0.1-1-0.1-1.1-0.7c0.8-0.6,1.8-1.4,2.6-1.8c1,0.2,2.9,1.8,2.6,1.9
							c-0.5,1.8-1.1,2.7-0.5,4.6c0.5,1.7,11.3,11,12.7,15.8c-2.1,3.1-5.5,11.4-6.9,12.3c-7.9-10.9-11-26.2-11.5-27
							c-1-0.5-1.7-1.5-1.9-1.9C11.4,35.7,13.2,34,14.1,33.4z"/>
						<g id="shadows_12_">
							<path class="st63" d="M16.7,44.3c0.9-0.6,5.6-1.4,6.3-1c0,0,0.1,0.1,0.1,0.1l0,0c-2.6,0.7-6.9,4-6.5,5.7
								c0.2,1,1.2,4.3,2.3,4.6c0,0,0.5-2.6,1.2-3c0.6-0.4,1.9-0.5,2.6-0.7c0.5-0.2,1.9-2.9,2.8-3.9c1.6,1.8,3.1,3.7,4.1,5.3
								c-1.1,2.1-5.7,8.8-7.5,9.2c-0.3,0.1-0.9,0.1-1.6,0.1c-2.9-5.2-5-10.7-6.3-15C15,45.2,15.9,44.8,16.7,44.3z"/>
							<path class="st61" d="M11.5,35.6c1-0.8,2-1.7,2.6-2.2c0.2-0.1,1.2-0.4,1.6-0.7c0.6,0.4,0.3,1.2,0.3,1.2
								c-1.5,0.8-1.4,2.2-1.4,3.1C14.2,36.6,12.9,35.4,11.5,35.6z"/>
						</g>
						<g id="bracers_10_">
							
								<linearGradient id="SVGID_7_" gradientUnits="userSpaceOnUse" x1="416.5428" y1="43.2503" x2="426.8868" y2="43.2503" gradientTransform="matrix(-1 0 0 -1 439.6758 86.6667)">
								<stop  offset="0" style="stop-color:#C55A0A"/>
								<stop  offset="0.1855" style="stop-color:#BF560A"/>
								<stop  offset="0.4276" style="stop-color:#AF4A09"/>
								<stop  offset="0.7012" style="stop-color:#943807"/>
								<stop  offset="0.9959" style="stop-color:#6F1D05"/>
								<stop  offset="1" style="stop-color:#6E1D05"/>
							</linearGradient>
							<path style="fill:url(#SVGID_7_);" d="M18.1,38c0.8,1.1,2.8,3.1,5,5.4c-2.8,0.3-6.5,3-7.8,5.4c-1.2-3.4-2-6.3-2.5-8.2
								C14.1,39.3,16.3,38.2,18.1,38z"/>
							
								<linearGradient id="SVGID_9_" gradientUnits="userSpaceOnUse" x1="416.5438" y1="41.1008" x2="424.9758" y2="41.1008" gradientTransform="matrix(-1 0 0 -1 439.6758 86.6667)">
								<stop  offset="0" style="stop-color:#C55A0A"/>
								<stop  offset="0.3517" style="stop-color:#BF560A"/>
								<stop  offset="0.8099" style="stop-color:#AF4B09"/>
								<stop  offset="1" style="stop-color:#A64508"/>
							</linearGradient>
							<path style="fill:url(#SVGID_9_);" d="M23.1,43.5c-2.8,0.3-6.5,3-7.8,5.4c-0.2-0.6-0.4-1.2-0.6-1.8c1.5-2,5-4.6,7.3-4.8
								C22.4,42.7,22.8,43.1,23.1,43.5z"/>
							
								<linearGradient id="SVGID_11_" gradientUnits="userSpaceOnUse" x1="420.7698" y1="46.7278" x2="426.8868" y2="46.7278" gradientTransform="matrix(-1 0 0 -1 439.6758 86.6667)">
								<stop  offset="0" style="stop-color:#C55A0A"/>
								<stop  offset="0.3589" style="stop-color:#BF560A"/>
								<stop  offset="0.8265" style="stop-color:#AF4B09"/>
								<stop  offset="1" style="stop-color:#A74508"/>
							</linearGradient>
							<path style="fill:url(#SVGID_11_);" d="M18.1,38c0.2,0.3,0.5,0.6,0.8,1c-1.8,0.1-4.3,1.3-5.8,2.9c-0.1-0.5-0.2-0.9-0.3-1.2
								C14.1,39.3,16.3,38.2,18.1,38z"/>
						</g>
					</g>
				</g>
				<g id="pants_8_">
					
						<linearGradient id="pants_1_" gradientUnits="userSpaceOnUse" x1="402.674" y1="-20.4927" x2="402.674" y2="1.8403" gradientTransform="matrix(-1 0 0 -1 439.6758 86.6667)">
						<stop  offset="0" style="stop-color:#0D1700"/>
						<stop  offset="0.3425" style="stop-color:#1D290C"/>
						<stop  offset="1" style="stop-color:#435628"/>
					</linearGradient>
					<path id="pants_9_" class="st67" d="M59.3,89.2c-2.7,5.2-11.7,4.7-13.9,18l-4.3-0.5c0.5-2.6,1.1-8.1,0-9.2
						c-2-2.1-8.5-3-9.5-2.1c-1,0.8,1,9.6,1,9.6l-4.3,0.4c-1.7-11-14.1-15.5-13.6-20.4C17.5,85.9,39.6,92.7,59.3,89.2z"/>
					<g id="shadows_11_">
						<path class="st69" d="M14.7,84.8c2.8,1.1,24.9,7.9,44.7,4.4c-2.6,5-10.8,4.7-13.5,16.1c0,0,0,0,0,0c0.8-6.1,4-9.5,3-10.7
							c-1.2-1.5-7.9-2.5-9.8-2.4c-0.6,0-0.9,0.5-1,1.2c-0.8,0.4-5.7-0.4-6.8-0.7c-0.5-0.1-0.3-0.9-1-1.1c-0.9-0.2-5.8-1.2-6.8,0.7
							c-0.6,1.2,3.4,6.8,5,11c-0.1-0.1-0.3-0.1-0.5,0.1C25.2,93.7,14.3,89.5,14.7,84.8z"/>
					</g>
				</g>
				<g id="right_arm_4_">
					
						<linearGradient id="arm_2_" gradientUnits="userSpaceOnUse" x1="382.8188" y1="17.8692" x2="366.3117" y2="-11.5654" gradientTransform="matrix(-1 0 0 -1 439.6758 86.6667)">
						<stop  offset="0" style="stop-color:#FF9163"/>
						<stop  offset="0.1186" style="stop-color:#FF9A6E"/>
						<stop  offset="0.4617" style="stop-color:#FFAF89"/>
						<stop  offset="0.7665" style="stop-color:#FFBC99"/>
						<stop  offset="1" style="stop-color:#FFC19F"/>
					</linearGradient>
					<path id="arm_12_" class="st75" d="M58.8,63.7c5.8,4.3,13.3,11.8,13.7,29.9c0,1-2.8,4.8-4,3.8c-1.5,0.2-2.7-0.5-2.6-1.2
						c-0.6,0.2-2.2,0-2.6-1.3c-0.1-0.3,0.2-0.6,0.5-1.1c-0.2,0.2-0.4,0.2-0.5,0.2c-0.1-0.1-0.7-0.8-0.9-2.3c0-0.6,1.8-2.4,2.6-3.3
						c-0.2-3.2-5.6-9.7-7.4-11.7C57.6,76.7,55.8,66.3,58.8,63.7z"/>
					<g id="shadows_10_">
						<path class="st61" d="M65.5,74.2c-0.2-1.2-1.3-2.1-1.6-2.5c0.2,1.9,0.9,3.7-0.2,5.9c0-1.4-0.9-2.7-1.6-3.8
							c0.2,1.5-0.1,2.9-0.2,4.4c0-0.8-2-3.3-4.7-4.6c-0.3-3-0.3-7.6,1.2-9.6l0.9,0.4C60.2,65.2,64.9,69.4,65.5,74.2z"/>
					</g>
					<g id="bracers_9_">
						
							<linearGradient id="SVGID_13_" gradientUnits="userSpaceOnUse" x1="367.6058" y1="3.9364" x2="379.0318" y2="3.9364" gradientTransform="matrix(-1 0 0 -1 439.6758 86.6667)">
							<stop  offset="0" style="stop-color:#C55A0A"/>
							<stop  offset="0.1855" style="stop-color:#BF560A"/>
							<stop  offset="0.4276" style="stop-color:#AF4A09"/>
							<stop  offset="0.7012" style="stop-color:#943807"/>
							<stop  offset="0.9959" style="stop-color:#6F1D05"/>
							<stop  offset="1" style="stop-color:#6E1D05"/>
						</linearGradient>
						<path style="fill:url(#SVGID_13_);" d="M69.7,77.9c1,2.7,1.9,5.9,2.3,9.6c-2.2-0.7-5.1-0.6-7.2,0.1c-0.5-2-2.4-4.8-4.2-7.2
							C63.1,78.7,67,77.6,69.7,77.9z"/>
						
							<linearGradient id="SVGID_15_" gradientUnits="userSpaceOnUse" x1="367.6058" y1="0.113" x2="375.3758" y2="0.113" gradientTransform="matrix(-1 0 0 -1 439.6758 86.6667)">
							<stop  offset="0" style="stop-color:#C55A0A"/>
							<stop  offset="0.3517" style="stop-color:#BF560A"/>
							<stop  offset="0.8099" style="stop-color:#AF4B09"/>
							<stop  offset="1" style="stop-color:#A64508"/>
						</linearGradient>
						<path style="fill:url(#SVGID_15_);" d="M71.8,85.8c0.1,0.6,0.2,1.1,0.2,1.7c-2.2-0.7-5.1-0.6-7.2,0.1c-0.1-0.5-0.3-1-0.6-1.5
							C66.3,85.3,69.7,85.3,71.8,85.8z"/>
						
							<linearGradient id="SVGID_17_" gradientUnits="userSpaceOnUse" x1="369.3848" y1="6.8584" x2="379.0308" y2="6.8584" gradientTransform="matrix(-1 0 0 -1 439.6758 86.6667)">
							<stop  offset="0" style="stop-color:#C55A0A"/>
							<stop  offset="0.3589" style="stop-color:#BF560A"/>
							<stop  offset="0.8265" style="stop-color:#AF4B09"/>
							<stop  offset="1" style="stop-color:#A74508"/>
						</linearGradient>
						<path style="fill:url(#SVGID_17_);" d="M70.3,79.4c-2.3-0.4-6.5,0.6-8.7,2.4c-0.3-0.5-0.7-0.9-1-1.3c2.4-1.8,6.3-2.9,9.1-2.6
							C69.9,78.4,70.1,78.9,70.3,79.4z"/>
					</g>
				</g>
				<g id="shirt_4_">
					
						<linearGradient id="shirt_1_" gradientUnits="userSpaceOnUse" x1="395.5348" y1="35.1873" x2="403.1053" y2="-3.7467" gradientTransform="matrix(-1 0 0 -1 439.6758 86.6667)">
						<stop  offset="0" style="stop-color:#380800"/>
						<stop  offset="0.2009" style="stop-color:#3C0900"/>
						<stop  offset="0.396" style="stop-color:#480E01"/>
						<stop  offset="0.5887" style="stop-color:#5B1602"/>
						<stop  offset="0.7789" style="stop-color:#762003"/>
						<stop  offset="0.9063" style="stop-color:#8D2904"/>
					</linearGradient>
					<path id="shirt_5_" class="st79" d="M20.5,61c-0.2-0.5-1.4-1.7-2.9-1.9c1-0.5,2.8-0.3,3.3-0.1c-0.3-0.6-2.2-1.7-4.6-1.2
						c1.4-1.3,3.7-1.7,5.3-1.7c-0.5-0.8-1.8-2.5-3-2.6c1-0.5,2.9-0.7,3.9-0.5c-0.6-0.6-1.4-1.3-3.2-1.6c0.7-0.4,4.8-0.7,5.9-0.4
						c-0.3-1.8-2.2-3.9-3.4-4.9c2,0.4,3.7,1.9,5,3c-0.2-1.5-1-4.8-2.6-5.7c2.8,1,4.8,4.1,5.5,7.3c0,0,23.6,8.7,25,9.1
						c7,0.1,12.7,9.6,12.7,11.5c-1.1-1.8-2.7-3.4-4.3-3.9c2.3,3.3,3,5.4,3,7.1c-0.6-2.1-1.9-3.5-3-4.3c0.9,1.6,1.8,4.9,1.2,7
						c-0.4-2.4-1.9-4.7-3.3-5.3c0.3,0.8,0.9,3.5,0.5,4.3c-0.2-0.3-0.5-1.1-1.4-1.7c0,0.6,3.7,11.2-0.1,13.5
						c-4.3,4.1-41.8-1.4-46.5-4.8C9.1,79.1,15.8,65.2,20.5,61z"/>
					
						<linearGradient id="shadow_1_" gradientUnits="userSpaceOnUse" x1="397.2495" y1="23.8371" x2="404.0352" y2="-4.4366" gradientTransform="matrix(-1 0 0 -1 439.6758 86.6667)">
						<stop  offset="0" style="stop-color:#380800"/>
						<stop  offset="0.1897" style="stop-color:#3C0900"/>
						<stop  offset="0.3739" style="stop-color:#480E01"/>
						<stop  offset="0.556" style="stop-color:#5B1601"/>
						<stop  offset="0.7368" style="stop-color:#772003"/>
						<stop  offset="0.9149" style="stop-color:#992D04"/>
						<stop  offset="1" style="stop-color:#AD3505"/>
					</linearGradient>
					<path id="shadow_15_" class="st80" d="M20.5,61c-6.9,11.4-6.9,22.3,11.1,24.8c6.6,0.9,16.1,1.7,21.1-0.3
						c6.4-2.6,8.1-12.1,4.9-16.5c1,0.8,3.6,2.6,4.7,2.8c-0.6-1.6-1.4-3.3-2.3-4.3c0.6,0.4,1.4,0.9,2.9,1.9c-1.1-1.9-2.1-3.6-3.8-4.8
						c0,0,4.5,2.1,4.8,2.4c-0.5-1.2-4.1-6-9.4-7c7,0.1,12.7,9.6,12.7,11.5c-1.1-1.8-2.7-3.4-4.3-3.9c2.3,3.3,3,5.4,3,7.1
						c-0.6-2.1-1.9-3.5-3-4.3c0.9,1.6,1.8,4.9,1.2,7c-0.4-2.4-1.9-4.7-3.3-5.3c0.3,0.8,0.9,3.5,0.5,4.3c-0.2-0.3-0.5-1.1-1.4-1.7
						c0,0.6,3.7,11.2-0.1,13.5c-4.3,4.1-41.8-1.4-46.5-4.8C9.1,79.1,15.8,65.2,20.5,61z"/>
				</g>
				<g id="belt_10_">
					<g id="belt_11_">
						
							<linearGradient id="belt_1_" gradientUnits="userSpaceOnUse" x1="379.5938" y1="-1.1036" x2="426.1548" y2="-1.1036" gradientTransform="matrix(-1 0 0 -1 439.6758 86.6667)">
							<stop  offset="0" style="stop-color:#9F3F08"/>
							<stop  offset="0.1418" style="stop-color:#AD4909"/>
							<stop  offset="0.3683" style="stop-color:#BF560A"/>
							<stop  offset="0.5352" style="stop-color:#C55A0A"/>
							<stop  offset="0.6792" style="stop-color:#BF560A"/>
							<stop  offset="0.8669" style="stop-color:#AF4A09"/>
							<stop  offset="1" style="stop-color:#9F3F08"/>
						</linearGradient>
						<path id="belt_12_" class="st81" d="M60.1,88c-0.5,1.4-2.1,3.4-3.1,3.9C48.9,93.3,20.1,90,15.1,87c-0.4-0.5-1.6-2.5-1.6-3.8
							C16.5,84.7,49.8,90.2,60.1,88z"/>
						<g class="st82">
							
								<linearGradient id="SVGID_18_" gradientUnits="userSpaceOnUse" x1="379.5967" y1="0.2933" x2="426.1544" y2="0.2933" gradientTransform="matrix(-1 0 0 -1 439.6758 86.6667)">
								<stop  offset="0" style="stop-color:#9F3F08"/>
								<stop  offset="0.1418" style="stop-color:#AD4909"/>
								<stop  offset="0.3683" style="stop-color:#BF560A"/>
								<stop  offset="0.5352" style="stop-color:#C55A0A"/>
								<stop  offset="0.6792" style="stop-color:#BF560A"/>
								<stop  offset="0.8669" style="stop-color:#AF4A09"/>
								<stop  offset="1" style="stop-color:#9F3F08"/>
							</linearGradient>
							<path class="st46" d="M23.5,85.4c-0.3,0-3.4-0.2-3.6,1.4c-0.1,1.2,2,2.3,3.8,2.6c-4-0.8-7.2-1.6-8.6-2.4
								c-0.4-0.5-1.6-2.5-1.6-3.8C14.4,83.7,18.3,84.5,23.5,85.4z"/>
						</g>
						<g class="st85">
							
								<linearGradient id="SVGID_20_" gradientUnits="userSpaceOnUse" x1="405.8468" y1="-2.1687" x2="409.1174" y2="-2.1687" gradientTransform="matrix(-1 0 0 -1 439.6758 86.6667)">
								<stop  offset="0" style="stop-color:#9F3F08"/>
								<stop  offset="0.1418" style="stop-color:#AD4909"/>
								<stop  offset="0.3683" style="stop-color:#BF560A"/>
								<stop  offset="0.5352" style="stop-color:#C55A0A"/>
								<stop  offset="0.6792" style="stop-color:#BF560A"/>
								<stop  offset="0.8669" style="stop-color:#AF4A09"/>
								<stop  offset="1" style="stop-color:#9F3F08"/>
							</linearGradient>
							<path style="fill:url(#SVGID_20_);" d="M32.4,88.1l0.6,0c0.3,0,0.5,0.3,0.6,0.6c0,0.4-0.2,0.7-0.7,0.7l-0.7,0
								c0.1,0.7,0.4,1.1,1.1,1.5c-0.6-0.1-1.2-0.2-1.8-0.2c-0.3-0.5-0.5-1-0.5-1.6c-0.2-0.1-0.4-0.3-0.3-0.6c0-0.3,0.3-0.5,0.5-0.5
								c0.2-0.5,0.5-0.9,1-1.3c0.6,0.1,1.2,0.2,1.7,0.2C33.2,87.2,32.7,87.6,32.4,88.1z"/>
						</g>
						
							<linearGradient id="SVGID_21_" gradientUnits="userSpaceOnUse" x1="400.8063" y1="-2.6937" x2="404.2658" y2="-2.6937" gradientTransform="matrix(-1 0 0 -1 439.6758 86.6667)">
							<stop  offset="0" style="stop-color:#9F3F08"/>
							<stop  offset="0.1418" style="stop-color:#AD4909"/>
							<stop  offset="0.3683" style="stop-color:#BF560A"/>
							<stop  offset="0.5352" style="stop-color:#C55A0A"/>
							<stop  offset="0.6792" style="stop-color:#BF560A"/>
							<stop  offset="0.8669" style="stop-color:#AF4A09"/>
							<stop  offset="1" style="stop-color:#9F3F08"/>
						</linearGradient>
						<path style="opacity:0.4;fill:url(#SVGID_21_);enable-background:new    ;" d="M36.1,87.2c0.8,0.1,1.5,0.2,2.3,0.3
							c0.3,0.5,0.6,1.2,0.5,2.3c-0.1,0.7-0.4,1.3-0.8,1.7c-0.9-0.1-1.7-0.2-2.6-0.3C37.4,91,37.2,87.9,36.1,87.2z"/>
					</g>
					<g id="buckle_5_">
						<g>
							
								<linearGradient id="SVGID_22_" gradientUnits="userSpaceOnUse" x1="403.8626" y1="0.9163" x2="404.5053" y2="-5.8667" gradientTransform="matrix(-1 0 0 -1 439.6758 86.6667)">
								<stop  offset="0" style="stop-color:#FED65B"/>
								<stop  offset="0.1988" style="stop-color:#FDCB4F"/>
								<stop  offset="0.5" style="stop-color:#FCBD40"/>
								<stop  offset="1" style="stop-color:#FCB538"/>
							</linearGradient>
							<path class="st64" d="M31.3,88.8c-0.1,1.9,1.6,3.5,3.9,3.7c2.3,0.2,4.3-1.2,4.5-3.1c0.1-1.9-1.6-3.5-3.9-3.7
								C33.4,85.6,31.4,87,31.3,88.8z M32.5,88.9c0.1-1.3,1.5-2.3,3.2-2.2c1.6,0.1,2.9,1.3,2.8,2.6s-1.5,2.3-3.2,2.2
								C33.7,91.4,32.4,90.2,32.5,88.9z"/>
							<path class="st90" d="M31.6,87.7c0.7-1.3,2.3-2.1,4.1-2c1.9,0.1,3.5,1.3,3.9,2.8C38.7,86.6,34.6,84.7,31.6,87.7z"/>
						</g>
					</g>
				</g>
				<g id="head_4_">
					<g id="beard_6_">
						
							<linearGradient id="SVGID_23_" gradientUnits="userSpaceOnUse" x1="401.7868" y1="1.8383" x2="401.7868" y2="36.9882" gradientTransform="matrix(-1 0 0 -1 439.6758 86.6667)">
							<stop  offset="0" style="stop-color:#BF1604"/>
							<stop  offset="0.1533" style="stop-color:#CE1B08"/>
							<stop  offset="0.4828" style="stop-color:#E9240F"/>
							<stop  offset="0.7757" style="stop-color:#F92913"/>
							<stop  offset="1" style="stop-color:#FF2B15"/>
						</linearGradient>
						<path class="st65" d="M23.1,74.7c-4-4.3-0.9-30,17-24.1c21.8,7.2,12.7,24.1,9.1,27.3c0.3-0.8,0.6-2.9,0.4-3.1
							c-0.6,1.6-3.5,5.9-5.6,6.4c0,0,1.7-2.8,1.6-4.4c-0.6,0.9-3,5.1-6.5,6c0,0,1.1-3.3,1-2.9c-0.8,2-2.2,2.9-3.8,3.9
							c-0.3-0.6-2.5-5-2.7-5.4c-0.1,3.3,0.9,5,1.3,6.5c-1.9-0.9-5.4-3.8-8.2-7.4c0.2,1,0.7,2,1.3,2.7c-3.1-2.2-5.3-7.5-4.9-9.9
							C22.9,71.2,22.6,72.7,23.1,74.7z"/>
						<path class="st95" d="M23.1,74.7C21,72.5,20.9,64.4,23.8,58c1.6-1.9,14-7.4,16.3-6.2c-1.9,0.2-8.2,5-15.1,7.5
							c-2.1,0.8-3,8.8-2.5,10.7c0.3-1,0.7-3.2,1-4.2c-0.3,1.3,0.8,8.9,2.3,10.4c-0.5-0.7-0.3-2.2-0.4-2.9c0.4,1.6,5.1,8.1,7.5,9.4
							c-0.7-1.2-1.6-5.3-0.6-9.5c0.4,1.2,4.2,7.1,5.6,7.9c1.5-0.8,3.9-5,4.8-6.4c0,1.3-1.4,5.1-2.4,6.5c4.3-2.7,5.5-5.8,6.9-9.5
							c0.4,1.9,0.7,4.5,0.1,6.6c1.1-2.4,3.1-5.2,3.4-7.9c0.6,1.2,0.6,2.8,0.6,4.2c1.8-3.2,2.1-8.3-0.6-11
							c-5.2-5.1-8.6-10.6-10.5-11.9c0,0,0.2-0.7,2.6-0.3c18.5,7.6,10,23.3,6.6,26.4c0.3-0.8,0.6-2.9,0.4-3.1
							c-0.6,1.6-3.5,5.9-5.6,6.4c0,0,1.7-2.8,1.6-4.4c-0.6,0.9-3,5.1-6.5,6c0,0,1.1-3.3,1-2.9c-0.8,2-2.2,2.9-3.8,3.9
							c-0.3-0.6-2.5-5-2.7-5.4c-0.1,3.3,0.9,5,1.3,6.5c-1.9-0.9-5.4-3.8-8.2-7.4c0.2,1,0.7,2,1.3,2.7c-3.1-2.2-5.3-7.5-4.9-9.9
							C22.9,71.2,22.6,72.7,23.1,74.7z"/>
					</g>
					<g id="mouth_3_">
						<path class="st96" d="M34.3,50.6c3.8-1,10,1.2,11.6,3.3c-1.6,2.9-3.5,5.6-7.9,4.5C32.8,57.1,34,51,34.3,50.6z"/>
						<path class="st97" d="M42.3,58.2c-1.1,0.5-2.5,0.7-4.2,0.2c-1.6-0.4-2.6-1.3-3.2-2.2C36.9,55.4,40.9,56.6,42.3,58.2z"/>
						<path class="st10" d="M34.3,50.6c3.8-1,10,1.2,11.6,3.3c-0.4,0.7-0.8,1.4-1.3,2.1c-1.9-1.7-7.2-2.8-10.6-2.4c0,0,0,0,0,0
							C33.9,52.2,34.2,50.8,34.3,50.6z"/>
					</g>
					<path id="moustache_6_" class="st98" d="M40.9,48.9c16.2-2.6,9.6,13.7,17.4,17.7C49.1,65.6,42.5,51.9,40,51.8
						c-4.3-0.2-13.5,9-19.8,6.6C26.7,56,29.6,40.8,40.9,48.9z"/>
					<g id="face_4_">
						
							<linearGradient id="SVGID_24_" gradientUnits="userSpaceOnUse" x1="397.0619" y1="42.9393" x2="399.3294" y2="36.1365" gradientTransform="matrix(-1 0 0 -1 439.6758 86.6667)">
							<stop  offset="0" style="stop-color:#FFC19F"/>
							<stop  offset="0.2335" style="stop-color:#FFBC99"/>
							<stop  offset="0.5383" style="stop-color:#FFAF89"/>
							<stop  offset="0.8814" style="stop-color:#FF9A6E"/>
							<stop  offset="1" style="stop-color:#FF9163"/>
						</linearGradient>
						<path class="st66" d="M39,42.8c2.2,0.7,6.8,1.8,6.8,1.8c2.2,4.3-0.2,5.9-3.2,4.1c0.3,0.6,0.3,2.4-2.4,1.9
							c-1-0.2-2.6-1.3-1-2.5C33.5,48.3,37.8,43.4,39,42.8z"/>
						<path class="st63" d="M40.2,50.6c-1-0.2-2.6-1.3-1-2.5c-4.3,0.2-2.8-2.7-1.3-4.3c-1.3,1.9-1.5,2.9-0.8,3.6
							c0.7,0.7,2.6,0.1,3.1-0.4c-0.7,0.7-1.4,2.3,0,2.8c1.2,0.4,2.7,0.3,2.1-2.3c0.1,0.5,1.7,1.8,2.9,1.7c1.9-0.2,1.3-2.8,1.3-2.8
							c0.8,3-1.3,4-3.9,2.4C42.9,49.3,42.9,51.1,40.2,50.6z"/>
					</g>
					<g id="eyes_4_">
						<g>
							<path class="st63" d="M40.3,46c-0.1-0.1-1.6-2-2.5-1.7c-0.1,0.2-0.3,0.9-0.1,1.1c0.5,0.5,2,1.2,2.1,1.2
								C40,46.6,40.2,46.2,40.3,46z"/>
							<path class="st10" d="M39.8,46.7c-0.6-0.4-1.8-0.8-1.8-1.1C38.3,44.6,40.5,45.2,39.8,46.7z"/>
							<g>
								<path class="st100" d="M38.5,45.1c0.3-0.1,0.7,0,1,0.2c0.1,0.1,0.1,0.3,0.1,0.4c0,0.2-0.1,0.5-0.3,0.6
									c-0.4-0.2-1-0.5-1.2-0.7C38.1,45.5,38.3,45.2,38.5,45.1z"/>
								<path class="st101" d="M38.4,45.8c0-0.3,0.2-0.5,0.5-0.5c0.3,0,0.5,0.2,0.5,0.5c0,0.2-0.1,0.4-0.3,0.5
									C38.8,46.1,38.6,46,38.4,45.8C38.4,45.9,38.4,45.8,38.4,45.8z"/>
								<path class="st10" d="M38.8,45.5c-0.1,0-0.2-0.1-0.2-0.2c0-0.1,0-0.1,0.1-0.2c0.1,0,0.2,0,0.3,0c0,0,0.1,0.1,0.1,0.2
									C39,45.4,38.9,45.5,38.8,45.5z"/>
							</g>
							<path class="st98" d="M38.7,43.6c0.5,0.2,1.4,1.9,1.6,1.9c0.1,0,0.4-0.2,0.7-0.4c-0.3,0.5-0.6,1-0.8,1.1c0,0-1.9-1.4-2.5-1.7
								C37.7,43.4,38.1,43.3,38.7,43.6z"/>
						</g>
						<g>
							<path class="st63" d="M42.5,46.6c0.1,0,3-0.6,3.6,0.2c0,0.2-0.5,0.9-0.8,0.9c-0.9,0.1-2.7-0.3-2.7-0.3
								C42.5,47.2,42.5,46.7,42.5,46.6z"/>
							<path class="st10" d="M42.8,47.4c0.7,0.1,1.9,0.4,2.1,0.3C45.2,46.7,43.1,45.8,42.8,47.4z"/>
							<g>
								<path class="st100" d="M43.4,46.6c0,0,0.1,0,0.1-0.1c0.3-0.1,0.6,0,0.9,0.2c0,0,0,0,0,0c0.2,0.3,0.2,0.6,0,0.9
									c-0.4,0-0.9-0.2-1.4-0.2C43,47.1,43.1,46.8,43.4,46.6z"/>
								<path class="st101" d="M43.5,46.8c0.2-0.2,0.5-0.1,0.7,0.1c0.2,0.2,0.1,0.5-0.1,0.7c-0.2,0-0.5-0.1-0.7-0.1
									C43.3,47.3,43.3,47,43.5,46.8z"/>
								<circle class="st10" cx="43.5" cy="46.9" r="0.2"/>
							</g>
							<path class="st98" d="M42.5,45.6c0.1,0.1,0.2,0.5,0.3,0.6c0.9-0.3,2.2-0.5,2.7-0.3c0.5,0.3,0.6,0.9,0.6,0.9
								c-0.4,0-1.1-0.5-3.6,0.2C42.4,46.6,42.4,45.9,42.5,45.6z"/>
						</g>
					</g>
				</g>
				<g id="helmet_8_">
					<g id="horns_4_">
						<g>
							<path class="st102" d="M40.2,29.3c-6.7,5.6,0.8,9.8,0.8,9.8c-0.4,0.8-2.2,1.4-3.2,2.1C32,35.9,34.9,30.7,40.2,29.3z"/>
							<path class="st103" d="M36.8,38.9c0.7,0.6,2.6,0.1,2.8-0.3c0.1-0.1-0.1-0.5-0.3-0.8c0.9,0.8,1.7,1.3,1.7,1.3
								c-0.4,0.8-2.2,1.4-3.2,2.1c-5.8-5.2-2.9-10.4,2.5-11.9C34.1,31.6,34.8,37.2,36.8,38.9z"/>
							
								<linearGradient id="SVGID_25_" gradientUnits="userSpaceOnUse" x1="72.9252" y1="-214.9228" x2="75.8916" y2="-214.9228" gradientTransform="matrix(-0.9054 -0.4246 0.4246 -0.9054 197.7491 -122.9679)">
								<stop  offset="0" style="stop-color:#923607"/>
								<stop  offset="1" style="stop-color:#C55A0A"/>
							</linearGradient>
							<path class="st70" d="M40.3,38.4c0.3-0.1,0.8,0.5,0.9,0.8c0,0-3,2.5-3.2,2.5c-0.1,0-0.9-0.8-0.8-0.9
								C37.6,40.1,40,38.5,40.3,38.4z"/>
						</g>
						<g>
							<path class="st102" d="M50.5,32c4.5,8.2-3.3,8.7-3.3,8.7c-0.4,0.8,0.1,2.4,0.2,3.6C53.6,45.1,56.3,37.1,50.5,32z"/>
							<path class="st103" d="M47.3,44.3c0-1.2-0.6-2.8-0.2-3.6c0,0,1.1-0.1,2.2-0.6c-0.4,0.3-0.8,0.7-0.8,0.8
								c-0.2,0.4,0.3,1.9,1.2,2.1c2.2,0.5,6.4-5.2,0.7-11.1C56.3,37.1,53.6,45.1,47.3,44.3z"/>
							
								<linearGradient id="SVGID_26_" gradientUnits="userSpaceOnUse" x1="63.8218" y1="-213.6603" x2="67.3286" y2="-213.6603" gradientTransform="matrix(-0.9054 -0.4246 0.4246 -0.9054 197.7491 -122.9679)">
								<stop  offset="0" style="stop-color:#923607"/>
								<stop  offset="1" style="stop-color:#C55A0A"/>
							</linearGradient>
							<path class="st72" d="M47.9,40.7c-0.1-0.3-1-0.1-1.3,0.1c0,0,0.8,3.8,0.9,3.9c0.1,0.1,1.2-0.1,1.2-0.2
								C48.6,42.9,48,41,47.9,40.7z"/>
						</g>
					</g>
					<g id="helmet_9_">
						<g>
							
								<linearGradient id="SVGID_27_" gradientUnits="userSpaceOnUse" x1="344.9575" y1="-7.5418" x2="346.3065" y2="-13.1832" gradientTransform="matrix(-0.9956 -9.310000e-02 9.310000e-02 -0.9956 388.4914 62.91)">
								<stop  offset="0" style="stop-color:#AD3505"/>
								<stop  offset="1" style="stop-color:#380800"/>
							</linearGradient>
							<path class="st73" d="M44.2,38.6c2.5,0.8,4.3,3.5,3.6,6.6c-1.7,0-5.2-0.3-10.7-2.8C37.8,39.6,41.4,37.7,44.2,38.6z"/>
							
								<linearGradient id="SVGID_28_" gradientUnits="userSpaceOnUse" x1="344.9579" y1="-7.5426" x2="346.3071" y2="-13.1849" gradientTransform="matrix(-0.9956 -9.310000e-02 9.310000e-02 -0.9956 388.4914 62.91)">
								<stop  offset="0" style="stop-color:#AD3505"/>
								<stop  offset="1" style="stop-color:#380800"/>
							</linearGradient>
							<path style="opacity:0.25;fill:url(#SVGID_28_);enable-background:new    ;" d="M38.1,40.5c1.1,1.5,3.4,1.9,5.1,1.5
								c0.9-0.3,2-1,2-2.1c0-0.4-0.1-0.7-0.3-0.9c2.1,1.1,3.5,3.5,2.8,6.3c-1.7,0-5.2-0.3-10.7-2.8C37.3,41.7,37.7,41.1,38.1,40.5z"
								/>
							
								<ellipse transform="matrix(0.9477 -0.3191 0.3191 0.9477 -10.5327 15.438)" class="st108" cx="41.8" cy="39.9" rx="1.9" ry="1.2"/>
						</g>
						<g>
							
								<linearGradient id="SVGID_29_" gradientUnits="userSpaceOnUse" x1="340.6182" y1="-12.5992" x2="351.9545" y2="-12.5992" gradientTransform="matrix(-0.9956 -9.310000e-02 9.310000e-02 -0.9956 388.4914 62.91)">
								<stop  offset="0" style="stop-color:#923607"/>
								<stop  offset="1" style="stop-color:#C55A0A"/>
							</linearGradient>
							<path class="st76" d="M37.6,40.9c2.5,1.6,7.4,3.1,10.5,2.8c0,0.9,0,1.2-0.1,1.7c-3.3,0.2-8.9-1.4-11.1-2.9
								C37.2,41.6,37.6,40.9,37.6,40.9z"/>
							
								<linearGradient id="SVGID_30_" gradientUnits="userSpaceOnUse" x1="340.6172" y1="-13.2996" x2="351.9527" y2="-13.2996" gradientTransform="matrix(-0.9956 -9.310000e-02 9.310000e-02 -0.9956 388.4914 62.91)">
								<stop  offset="0" style="stop-color:#923607"/>
								<stop  offset="1" style="stop-color:#C55A0A"/>
							</linearGradient>
							<path style="opacity:0.3;fill:url(#SVGID_30_);enable-background:new    ;" d="M41.4,44c0.6-0.4,0.5-0.9,0.1-1.4
								c2.2,0.7,4.8,1.2,6.6,1c0,0.9,0,1.2-0.1,1.7c-1.9,0.1-4.7-0.4-7.1-1.2C41,44.2,41.2,44.1,41.4,44z"/>
						</g>
					</g>
				</g>
			</g>
		</g>
	</g>
	<g>
		<g>
			<defs>
				<polygon id="SVGID_48_" points="8.2,49.9 27.3,39.9 49,32.2 51.9,15.9 32.7,0.7 0.7,4.1 -5.1,36.2 2.4,49.9 				"/>
			</defs>
			<clipPath id="SVGID_31_">
				<use xlink:href="#SVGID_48_"  style="overflow:visible;"/>
			</clipPath>
			<g id="arm_with_axe_3_" style="clip-path:url(#SVGID_31_);">
				<g id="axe_13_">
					<g id="handle_11_">
						<g id="handle_12_">
							
								<linearGradient id="SVGID_32_" gradientUnits="userSpaceOnUse" x1="206.5461" y1="1103.8022" x2="206.5461" y2="1145.7231" gradientTransform="matrix(0.5398 0.8417 -0.8417 0.5398 854.5003 -753.2461)">
								<stop  offset="0" style="stop-color:#6E1D05"/>
								<stop  offset="4.000000e-03" style="stop-color:#6F1D05"/>
								<stop  offset="0.2988" style="stop-color:#943807"/>
								<stop  offset="0.5724" style="stop-color:#AF4A09"/>
								<stop  offset="0.8145" style="stop-color:#BF560A"/>
								<stop  offset="1" style="stop-color:#C55A0A"/>
							</linearGradient>
							<path class="st83" d="M2.5,39c0,0,25.2-19,31-24.6c1,0,2.1,0.1,2.1,0.1s0,1.3-0.2,2.2C30.2,19.8,5.1,41,4.4,41.5
								C4.4,41.5,1.7,41.1,2.5,39z"/>
							<path class="st50" d="M7.2,35.5c1.4,1.4,3-0.1,4.4-1c0.8-0.5,11.8-8.8,14.8-11c-9.2,7.3-21.5,17.6-22,18c0,0-2.7-0.4-1.8-2.5
								C2.5,39,4.4,37.6,7.2,35.5z"/>
							<path class="st51" d="M26.2,20.6c0.4,2.5-16.6,15.9-18,14.1C13.2,30.9,20.5,25.3,26.2,20.6z"/>
						</g>
						<g id="tip_5_">
							<path class="st52" d="M33.5,14.4c1,0,2.1,0.1,2.1,0.1s0,1.3-0.2,2.2c-0.1-0.2-0.5-0.8-0.6-1.1C34.6,15.3,33.7,14.6,33.5,14.4
								z"/>
							<path class="st53" d="M33.5,14.4c1,0,2.1,0.1,2.1,0.1s-0.5,0.8-0.7,1.1C34.6,15.3,33.7,14.6,33.5,14.4z"/>
						</g>
					</g>
					<g id="axe_14_">
						
							<linearGradient id="axe_2_" gradientUnits="userSpaceOnUse" x1="108.2644" y1="-271.6637" x2="135.3765" y2="-271.6637" gradientTransform="matrix(0.6258 0.7799 0.7799 -0.6258 167.4487 -247.3417)">
							<stop  offset="0" style="stop-color:#A8B5C1"/>
							<stop  offset="0.5064" style="stop-color:#819BB0"/>
							<stop  offset="1" style="stop-color:#A8B5C1"/>
						</linearGradient>
						<path id="axe_15_" class="st113" d="M42.9,26l-0.8-1.2l1.6,0.4c1.2-1.5,2.1-3.2,2.2-5.1c-7.7,4.7-12.4-1.9-12.4-1.9
							c0.3-0.2,0-0.9-0.5-1.4c-0.4-0.6-1-1-1.3-0.8c0,0-5.4-6,0.8-12.5c-4.9-0.7-10.7,4.3-11.9,7.1l1.2,1.3l-1.7-0.2
							c-0.3,0.6-1,2.4-0.9,3.5l1.1,0.4l-1.2,0.1c-0.1,0.4,0.1,1.2,0.1,1.5c3.1-0.8,7,1.5,7.9,2.3c-0.3,0.1,0,0.9,0.5,1.5
							c0.5,0.6,1.2,1.1,1.4,0.9c0.6,1.1,2,5.4,0.5,8.2c0.2,0.1,1.9,0.7,4.3,0.5l0.1-1.5l0.9,1.4c0.5-0.1,0.9-0.2,1.4-0.3L36.2,29
							l0.8,1C38.9,29.2,41.1,27.9,42.9,26z"/>
						<path id="shadow_17_" class="st55" d="M30.2,21.6l3.3-3.4c0.3-0.2,0-0.9-0.5-1.4c-0.4-0.6-1-1-1.3-0.8l-3.9,2.5
							c-4.6-2.6-8.6-1.6-8.5-1.4c3.1-0.8,7,1.5,7.9,2.3c-0.3,0.1,0,0.9,0.5,1.5c0.5,0.6,1.2,1.1,1.4,0.9c0.6,1.1,2,5.4,0.5,8.2
							C29.8,30.1,31.7,27,30.2,21.6z"/>
						<g id="lights_5_">
							<g>
								<path class="st56" d="M42.9,26l-0.8-1.2l1.6,0.4c1.2-1.5,2.1-3.2,2.2-5.1c-0.7,0.5-1.5,0.8-2.2,1.1
									c-2.6,5.6-8.8,8.3-13.5,7.4c-0.1,0.5-0.3,1-0.5,1.5c0.2,0.1,1.9,0.7,4.3,0.5l0.1-1.5l0.9,1.4c0.5-0.1,0.9-0.2,1.4-0.3
									L36.2,29l0.8,1C38.9,29.2,41.1,27.9,42.9,26z"/>
								<path class="st57" d="M38.7,26.7l1,1.9c0.8-0.5,1.5-1,2.2-1.7l-1.4-1.5C40,25.9,39.4,26.3,38.7,26.7z"/>
							</g>
							<g>
								<path class="st56" d="M30.9,5.5c0.4-0.7,0.9-1.3,1.6-2c-4.9-0.7-10.7,4.3-11.9,7.1l1.2,1.3l-1.7-0.2c-0.3,0.6-1,2.4-0.9,3.5
									l1.1,0.4l-1.2,0.1c-0.1,0.4,0.1,1.2,0.1,1.5c0.6-0.1,1.2-0.2,1.8-0.2C21.5,11.6,25.1,6.9,30.9,5.5z"/>
								<path class="st57" d="M21.2,9.6l1.9,1.4c0.2-0.4,0.5-0.7,0.7-1l-1.6-1.8C21.8,8.7,21.4,9.2,21.2,9.6z"/>
							</g>
						</g>
						<g id="middle_part_5_">
							<path class="st58" d="M33.5,18.2c0.3-0.2,0-0.9-0.5-1.4c-0.4-0.6-1-1-1.3-0.8l-4.5,3.5c-0.3,0.1,0,0.9,0.5,1.5
								c0.5,0.6,1.2,1.1,1.4,0.9L33.5,18.2z"/>
							<path class="st59" d="M27.3,20.2c0.1,0.1,0.2,0.3,0.2,0.4l5.2-4.3c-0.1-0.1-0.2-0.2-0.3-0.2L27.3,20.2z"/>
						</g>
					</g>
				</g>
				<g id="arm_15_">
					<g id="fingers_3_">
						<path class="st60" d="M9.9,31.7c-0.1-0.8,0.7-1.3,1.3-1.2c-0.1-0.8,0.8-1.4,1.4-1.2c0.1-0.2,0.1-0.4,0.1-0.5
							c1.1-0.5,2.1,0.3,3.1,0.6c-0.1,1.5,0.4,2.6-0.8,2.7c0.3,0.5-0.5,1.7-1.5,1.3c0,1-1,1.1-1.4,0.8c0.3,1.3-1.6,0.8-2.5-0.6
							L9,34.1C8.1,33.3,8.8,31.7,9.9,31.7z"/>
						<path class="st61" d="M15.8,29.4c-0.1,1.5,0.4,2.6-0.8,2.7c0.3,0.5-0.5,1.7-1.5,1.3c0,1-1,1.1-1.4,0.8
							c0.3,1.3-1.6,0.8-2.5-0.6L9,34.1c-0.4-0.3-0.5-0.8-0.4-1.2c0.6,0.4,1.5,0.5,1.9,0.2c0.6-0.5,0-1-0.7-1.3
							c0.5,0.1,1.4,0.6,1.9,0.3c0.9-0.5,0-1-0.6-1.5c0.9,0.4,2.8,0.9,3-0.4c-0.4-0.4-1.1-0.6-1.6-0.8C13.7,29.5,15,30.2,15.8,29.4z"
							/>
					</g>
					
						<linearGradient id="arm_3_" gradientUnits="userSpaceOnUse" x1="410.8341" y1="27.4866" x2="431.482" y2="53.8311" gradientTransform="matrix(-1 0 0 -1 439.6758 86.6667)">
						<stop  offset="0" style="stop-color:#FF9163"/>
						<stop  offset="0.1186" style="stop-color:#FF9A6E"/>
						<stop  offset="0.4617" style="stop-color:#FFAF89"/>
						<stop  offset="0.7665" style="stop-color:#FFBC99"/>
						<stop  offset="1" style="stop-color:#FFC19F"/>
					</linearGradient>
					<path id="arm_16_" class="st114" d="M14.1,33.4c-0.5,0.1-1-0.1-1.1-0.7c0.8-0.6,1.8-1.4,2.6-1.8c1,0.2,2.9,1.8,2.6,1.9
						c-0.5,1.8-1.1,2.7-0.5,4.6c0.5,1.7,11.3,11,12.7,15.8c-2.1,3.1-5.5,11.4-6.9,12.3c-7.9-10.9-11-26.2-11.5-27
						c-1-0.5-1.7-1.5-1.9-1.9C11.4,35.7,13.2,34,14.1,33.4z"/>
					<g id="shadows_13_">
						<path class="st63" d="M16.7,44.3c0.9-0.6,5.6-1.4,6.3-1c0,0,0.1,0.1,0.1,0.1l0,0c-2.6,0.7-6.9,4-6.5,5.7
							c0.2,1,1.2,4.3,2.3,4.6c0,0,0.5-2.6,1.2-3c0.6-0.4,1.9-0.5,2.6-0.7c0.5-0.2,1.9-2.9,2.8-3.9c1.6,1.8,3.1,3.7,4.1,5.3
							c-1.1,2.1-5.7,8.8-7.5,9.2c-0.3,0.1-0.9,0.1-1.6,0.1c-2.9-5.2-5-10.7-6.3-15C15,45.2,15.9,44.8,16.7,44.3z"/>
						<path class="st61" d="M11.5,35.6c1-0.8,2-1.7,2.6-2.2c0.2-0.1,1.2-0.4,1.6-0.7c0.6,0.4,0.3,1.2,0.3,1.2
							c-1.5,0.8-1.4,2.2-1.4,3.1C14.2,36.6,12.9,35.4,11.5,35.6z"/>
					</g>
					<g id="bracers_11_">
						
							<linearGradient id="SVGID_33_" gradientUnits="userSpaceOnUse" x1="416.5428" y1="43.2503" x2="426.8868" y2="43.2503" gradientTransform="matrix(-1 0 0 -1 439.6758 86.6667)">
							<stop  offset="0" style="stop-color:#C55A0A"/>
							<stop  offset="0.1855" style="stop-color:#BF560A"/>
							<stop  offset="0.4276" style="stop-color:#AF4A09"/>
							<stop  offset="0.7012" style="stop-color:#943807"/>
							<stop  offset="0.9959" style="stop-color:#6F1D05"/>
							<stop  offset="1" style="stop-color:#6E1D05"/>
						</linearGradient>
						<path class="st84" d="M18.1,38c0.8,1.1,2.8,3.1,5,5.4c-2.8,0.3-6.5,3-7.8,5.4c-1.2-3.4-2-6.3-2.5-8.2
							C14.1,39.3,16.3,38.2,18.1,38z"/>
						
							<linearGradient id="SVGID_34_" gradientUnits="userSpaceOnUse" x1="416.5438" y1="41.1008" x2="424.9758" y2="41.1008" gradientTransform="matrix(-1 0 0 -1 439.6758 86.6667)">
							<stop  offset="0" style="stop-color:#C55A0A"/>
							<stop  offset="0.3517" style="stop-color:#BF560A"/>
							<stop  offset="0.8099" style="stop-color:#AF4B09"/>
							<stop  offset="1" style="stop-color:#A64508"/>
						</linearGradient>
						<path class="st86" d="M23.1,43.5c-2.8,0.3-6.5,3-7.8,5.4c-0.2-0.6-0.4-1.2-0.6-1.8c1.5-2,5-4.6,7.3-4.8
							C22.4,42.7,22.8,43.1,23.1,43.5z"/>
						
							<linearGradient id="SVGID_35_" gradientUnits="userSpaceOnUse" x1="420.7698" y1="46.7278" x2="426.8868" y2="46.7278" gradientTransform="matrix(-1 0 0 -1 439.6758 86.6667)">
							<stop  offset="0" style="stop-color:#C55A0A"/>
							<stop  offset="0.3589" style="stop-color:#BF560A"/>
							<stop  offset="0.8265" style="stop-color:#AF4B09"/>
							<stop  offset="1" style="stop-color:#A74508"/>
						</linearGradient>
						<path class="st87" d="M18.1,38c0.2,0.3,0.5,0.6,0.8,1c-1.8,0.1-4.3,1.3-5.8,2.9c-0.1-0.5-0.2-0.9-0.3-1.2
							C14.1,39.3,16.3,38.2,18.1,38z"/>
					</g>
				</g>
			</g>
		</g>
	</g>
</g>
</svg>
