<?xml version="1.0" encoding="utf-8"?>
<!-- Generator: Adobe Illustrator 21.0.1, SVG Export Plug-In . SVG Version: 6.00 Build 0)  -->
<svg version="1.1" id="Layer_1" xmlns="http://www.w3.org/2000/svg" xmlns:xlink="http://www.w3.org/1999/xlink" x="0px" y="0px"
	 viewBox="0 0 87.3 87.3" style="enable-background:new 0 0 87.3 87.3;" xml:space="preserve">
<style type="text/css">
	.st0{fill:#2CAB9F;}
	.st1{fill:#D8D8D2;}
	.st2{fill:#F2C6A1;}
	.st3{fill:#BC2F3D;}
	.st4{fill:#FECE08;}
	.st5{fill:#F3A27A;}
	.st6{clip-path:url(#SVGID_2_);}
	.st7{fill:#89684D;}
	.st8{fill:#414042;}
	.st9{fill:#EA7E78;}
	.st10{fill:#FFFFFF;}
	.st11{fill:#EE4500;}
	.st12{fill:#FEA708;}
	.st13{fill:url(#SVGID_3_);}
	.st14{fill:#92A9ED;}
	.st15{fill:#5F70AF;}
	.st16{fill:#A3A3A3;}
	.st17{fill:#C1C1C1;}
	.st18{fill:#A3A2A2;}
	.st19{fill:#E7E3E1;}
	.st20{clip-path:url(#SVGID_5_);fill:#BEBBBB;}
	.st21{clip-path:url(#SVGID_7_);fill:#BEBBBB;}
	.st22{clip-path:url(#SVGID_9_);fill:#BEBBBB;}
	.st23{clip-path:url(#SVGID_11_);fill:#BEBBBB;}
	.st24{clip-path:url(#SVGID_13_);fill:#BEBBBB;}
	.st25{clip-path:url(#SVGID_15_);fill:#BEBBBB;}
	.st26{fill:#58595B;}
	.st27{fill:#E2B436;}
	.st28{clip-path:url(#SVGID_17_);}
	.st29{fill:#36313B;}
	.st30{fill:#231E2B;}
	.st31{fill:#47414D;}
	.st32{fill:#273E42;}
	.st33{fill:#355860;}
	.st34{fill:#49727C;}
	.st35{fill:#3B2130;}
	.st36{fill:#5895A5;}
	.st37{fill:#E8BE9B;}
	.st38{fill:#C7936B;}
	.st39{fill:#69ACC4;}
	.st40{fill:#4FAB59;}
	.st41{fill:#915620;}
	.st42{fill:#AD661F;}
	.st43{fill:#A6644B;}
	.st44{fill:#C2751D;}
	.st45{fill:#CF8934;}
	.st46{fill:url(#SVGID_18_);}
	.st47{clip-path:url(#SVGID_20_);}
	.st48{fill:url(#hair_1_);}
	.st49{fill:url(#SVGID_21_);}
	.st50{opacity:0.3;fill:#A55311;enable-background:new    ;}
	.st51{opacity:0.2;fill:#FFA383;enable-background:new    ;}
	.st52{opacity:0.61;fill:#FFB273;enable-background:new    ;}
	.st53{opacity:0.4;fill:#FFB273;enable-background:new    ;}
	.st54{fill:url(#axe_1_);}
	.st55{opacity:0.3;fill:#676E7A;enable-background:new    ;}
	.st56{opacity:0.25;fill:#FFFFFF;enable-background:new    ;}
	.st57{opacity:0.5;fill:#FFFFFF;enable-background:new    ;}
	.st58{fill:#A8B5C1;}
	.st59{opacity:0.35;fill:#FFFFFF;enable-background:new    ;}
	.st60{fill:#FFC19F;}
	.st61{opacity:0.8;fill:#FFC19F;enable-background:new    ;}
	.st62{fill:url(#arm_1_);}
	.st63{opacity:0.6;fill:#FFC19F;enable-background:new    ;}
	.st64{fill:url(#SVGID_22_);}
	.st65{fill:url(#SVGID_23_);}
	.st66{fill:url(#SVGID_24_);}
	.st67{fill:url(#pants_1_);}
	.st68{opacity:0.2;fill:#1D280D;enable-background:new    ;}
	.st69{opacity:0.3;fill:#1D280D;enable-background:new    ;}
	.st70{fill:url(#SVGID_25_);}
	.st71{opacity:0.75;fill:#893700;enable-background:new    ;}
	.st72{fill:url(#SVGID_26_);}
	.st73{fill:url(#SVGID_27_);}
	.st74{fill:url(#SVGID_28_);}
	.st75{fill:url(#arm_2_);}
	.st76{fill:url(#SVGID_29_);}
	.st77{fill:url(#SVGID_30_);}
	.st78{fill:url(#SVGID_31_);}
	.st79{fill:url(#shirt_1_);}
	.st80{opacity:0.15;fill:url(#shadow_1_);enable-background:new    ;}
	.st81{fill:url(#belt_1_);}
	.st82{opacity:0.35;}
	.st83{fill:url(#SVGID_32_);}
	.st84{fill:url(#SVGID_33_);}
	.st85{opacity:0.8;}
	.st86{fill:url(#SVGID_34_);}
	.st87{fill:url(#SVGID_35_);}
	.st88{opacity:0.4;fill:url(#SVGID_36_);enable-background:new    ;}
	.st89{fill:url(#SVGID_37_);}
	.st90{opacity:0.6;fill:#FFEB78;enable-background:new    ;}
	.st91{opacity:0.75;fill:#FFEB78;enable-background:new    ;}
	.st92{fill:url(#SVGID_38_);}
	.st93{fill:url(#SVGID_39_);}
	.st94{fill:url(#SVGID_40_);}
	.st95{opacity:0.4;fill:#BF1604;enable-background:new    ;}
	.st96{fill:#541918;}
	.st97{fill:#9B071C;}
	.st98{fill:#FF2B15;}
	.st99{fill:url(#SVGID_41_);}
	.st100{fill:#A55311;}
	.st101{fill:#471A08;}
	.st102{fill:#FCC79A;}
	.st103{opacity:0.69;fill:#FFD3AB;enable-background:new    ;}
	.st104{fill:url(#SVGID_42_);}
	.st105{fill:url(#SVGID_43_);}
	.st106{fill:url(#SVGID_44_);}
	.st107{opacity:0.25;fill:url(#SVGID_45_);enable-background:new    ;}
	.st108{opacity:0.25;fill:#FC8460;enable-background:new    ;}
	.st109{fill:url(#SVGID_46_);}
	.st110{opacity:0.3;fill:url(#SVGID_47_);enable-background:new    ;}
	.st111{clip-path:url(#SVGID_49_);}
	.st112{fill:url(#SVGID_50_);}
	.st113{fill:url(#axe_2_);}
	.st114{fill:url(#arm_3_);}
	.st115{fill:url(#SVGID_51_);}
	.st116{fill:url(#SVGID_52_);}
	.st117{fill:url(#SVGID_53_);}
	.st118{fill:url(#SVGID_54_);}
	.st119{clip-path:url(#SVGID_56_);}
	.st120{fill:#FCC78C;}
	.st121{fill:url(#SVGID_57_);}
	.st122{fill:#AC7930;}
	.st123{fill:#1A171B;}
	.st124{fill:#EDEDEE;}
	.st125{fill:#939292;}
	.st126{fill:#C7D5DF;}
	.st127{fill:#98B7C9;}
	.st128{fill:url(#SVGID_58_);}
	.st129{fill:url(#SVGID_59_);}
	.st130{fill:url(#SVGID_60_);}
	.st131{fill:url(#SVGID_61_);}
	.st132{fill:url(#SVGID_62_);}
	.st133{fill:url(#SVGID_63_);}
	.st134{fill:url(#SVGID_64_);}
	.st135{fill:url(#SVGID_65_);}
	.st136{fill:url(#SVGID_66_);}
	.st137{fill:url(#SVGID_67_);}
	.st138{fill:url(#SVGID_68_);}
	.st139{fill:#EB3D00;}
	.st140{fill:#835527;}
	.st141{fill:#D0995B;}
	.st142{fill:#E4AC00;}
	.st143{fill:#553F24;}
	.st144{fill:#93723A;}
	.st145{fill:#B9391A;}
	.st146{fill:#D99C09;}
	.st147{fill:#FFCC00;}
	.st148{fill:#9C9D9F;}
	.st149{fill:#B1B3B4;}
	.st150{fill:#C6C7C9;}
	.st151{fill:#D9DADB;}
	.st152{fill:#87888A;}
	.st153{fill:#A65C44;}
	.st154{fill:url(#SVGID_69_);}
	.st155{fill:url(#SVGID_70_);}
	.st156{fill:#2A2C2E;}
	.st157{clip-path:url(#SVGID_72_);}
	.st158{fill:#FFF200;}
	.st159{fill:#FFE300;}
	.st160{fill:#FBB040;}
	.st161{fill:#FC873E;}
	.st162{fill:#FB983F;}
	.st163{fill:url(#SVGID_73_);}
	.st164{fill:#754629;}
	.st165{clip-path:url(#SVGID_75_);fill:#ED1C24;}
	.st166{clip-path:url(#SVGID_77_);fill:#FB983F;}
	.st167{clip-path:url(#SVGID_79_);fill:#FB983F;}
	.st168{clip-path:url(#SVGID_81_);}
	.st169{fill:#ED1C24;}
	.st170{fill:#FEFFFF;}
	.st171{fill:#B3151B;}
	.st172{fill:#ED5C62;}
	.st173{opacity:0.2;fill:#231F20;enable-background:new    ;}
	.st174{opacity:0.4;fill:#231F20;enable-background:new    ;}
	.st175{fill:#424345;}
	.st176{fill:#FFE3C2;}
	.st177{opacity:0.1;fill:#231F20;enable-background:new    ;}
	.st178{fill:#303842;}
	.st179{fill:#363F4A;}
	.st180{clip-path:url(#SVGID_83_);fill:#FFEEDB;}
	.st181{clip-path:url(#SVGID_85_);fill:#2A2C2E;}
	.st182{opacity:0.2;clip-path:url(#SVGID_87_);fill:#231F20;enable-background:new    ;}
	.st183{clip-path:url(#SVGID_89_);}
	.st184{fill:#08E4FF;stroke:#08E4FF;stroke-width:0.1289;stroke-miterlimit:10;}
	.st185{fill:#F5F38E;}
	.st186{fill:#90C53F;}
	.st187{clip-path:url(#SVGID_91_);}
	.st188{fill:#754444;}
	.st189{fill:#5E3636;}
	.st190{fill:#7A5E27;}
	.st191{fill:#D1AB65;}
	.st192{fill:#A78442;}
	.st193{fill:#FCCFA4;}
	.st194{fill:#C78E65;}
	.st195{fill:#DDDDDC;}
	.st196{fill:#3B212A;}
	.st197{fill:#24211D;}
	.st198{fill:#45413F;}
	.st199{fill:#968064;}
	.st200{fill:#706151;}
	.st201{fill:url(#SVGID_92_);}
	.st202{fill:#211D18;}
	.st203{fill:#352E27;}
	.st204{display:none;}
	.st205{display:inline;}
	.st206{fill:#A8A8A7;}
	.st207{fill:#3C3C3B;}
	.st208{fill:#C59221;}
	.st209{fill:#FDC800;}
	.st210{display:inline;fill:#FFFFFF;}
	.st211{fill:#949393;}
	.st212{fill:#DBE8B0;}
	.st213{clip-path:url(#SVGID_94_);}
	.st214{opacity:0.3;fill:#808080;enable-background:new    ;}
	.st215{display:none;fill:#4B4B63;}
	.st216{fill:#4F3927;}
	.st217{fill:#5F442D;}
	.st218{fill:#6C5236;}
	.st219{fill:#976F44;}
	.st220{fill:#AC824E;}
	.st221{fill:#826544;}
	.st222{fill:#6E6E6E;}
	.st223{fill:#595959;}
	.st224{fill:#545454;}
	.st225{fill:#424242;}
	.st226{fill:#9C9C9C;}
	.st227{fill:#6E8091;}
	.st228{fill:#7B8B9B;}
	.st229{opacity:0.25;fill:#696969;enable-background:new    ;}
	.st230{fill:#A4C639;}
	.st231{fill:#FFC639;}
	.st232{fill:#F1A530;}
	.st233{fill:none;}
	.st234{opacity:0.29;fill:#383838;}
	.st235{opacity:0.4;fill:#FFFFFF;enable-background:new    ;}
	.st236{opacity:0.8;fill:#FFFFFF;enable-background:new    ;}
	.st237{fill:#859F25;}
	.st238{fill:#D78507;}
	.st239{fill:#262626;}
	.st240{fill:#BFD773;}
	.st241{fill:#FBDD57;}
	.st242{clip-path:url(#SVGID_96_);fill:#F4B711;}
	.st243{fill:#F4B711;}
	.st244{clip-path:url(#SVGID_98_);fill:#F4B711;}
	.st245{fill:#F4BB3B;}
	.st246{fill:#383838;}
	.st247{fill:#E6E6E6;}
	.st248{fill:#B3B3B3;}
	.st249{fill:#7D7D7D;}
	.st250{fill:#2F2F2F;}
	.st251{fill:#F2D850;}
	.st252{clip-path:url(#SVGID_100_);}
	.st253{fill:#C62B12;}
	.st254{fill:#B3B729;}
	.st255{fill:#A3A321;}
	.st256{fill:#C8D340;}
	.st257{opacity:0.6;fill:#7F7C13;enable-background:new    ;}
	.st258{fill:#F6D88C;}
	.st259{fill:url(#SVGID_101_);}
	.st260{fill:#1D1D1B;}
	.st261{fill:#C96317;}
	.st262{fill:#B74C1D;}
	.st263{fill:#C91111;}
	.st264{fill:#F6F8F9;}
	.st265{fill:#F97450;}
	.st266{fill:#3D8699;}
	.st267{fill:#FC7800;}
	.st268{fill:#7A7A74;}
	.st269{opacity:0.6;fill:#7F2713;enable-background:new    ;}
	.st270{fill:#F5D78B;}
	.st271{fill:#F5D78C;}
	.st272{fill:#F09453;}
	.st273{fill:#EF8E4D;}
	.st274{fill:#F1A15E;}
	.st275{fill:#EF8A4D;}
	.st276{fill:#EF8848;}
	.st277{fill:#F3C078;}
	.st278{fill:#F2B26F;}
	.st279{fill:#F19D5B;}
	.st280{fill:#F1A562;}
	.st281{fill:#F09A58;}
	.st282{fill:#EE7F41;}
	.st283{fill:url(#SVGID_102_);}
	.st284{fill:none;stroke:url(#SVGID_103_);stroke-width:1.9316;stroke-miterlimit:10;}
	.st285{clip-path:url(#SVGID_105_);}
	.st286{fill:#547FA1;}
	.st287{fill:#D0BF90;}
	.st288{fill:#E5D6AC;}
	.st289{fill:#DBC99A;}
	.st290{fill:#DCC6A2;}
	.st291{fill:url(#Кофта_1_);}
	.st292{fill:#FFBD7B;}
	.st293{fill:#CCAF83;}
	.st294{fill:#DBC5A1;}
	.st295{fill:#D3B991;}
	.st296{fill:#3C3022;}
	.st297{fill:url(#SVGID_106_);}
	.st298{fill:#FF9E85;}
	.st299{fill:#292929;}
	.st300{fill:#2C3C53;}
	.st301{fill:none;stroke:url(#SVGID_107_);stroke-width:1.9316;stroke-miterlimit:10;}
	.st302{fill:#FFFFFF;stroke:url(#SVGID_108_);stroke-width:1.9311;stroke-miterlimit:10;}
	.st303{clip-path:url(#SVGID_110_);}
	.st304{fill:#363D67;}
	.st305{fill:#DCA54C;}
	.st306{fill:#FEFEFE;}
	.st307{fill:#F5183F;}
	.st308{fill:#FDCCBB;}
	.st309{fill:#FDFDFC;}
	.st310{fill:#FDFDFB;}
	.st311{fill:#F4183F;}
	.st312{fill:#F31840;}
	.st313{fill:#F4173F;}
	.st314{fill:#DBA44C;}
	.st315{fill:#FCF9F9;}
	.st316{fill:#FCFCFA;}
	.st317{fill:#DAA44C;}
	.st318{fill:#FBF5F6;}
	.st319{fill:#FCF6F6;}
	.st320{fill:#FBFAF7;}
	.st321{fill:#DD1F47;}
	.st322{fill:#FAF5F6;}
	.st323{fill:#CE9D54;}
	.st324{fill:#F8ECEF;}
	.st325{fill:#FCF6F7;}
	.st326{fill:#D5A254;}
	.st327{fill:#727693;}
	.st328{fill:#E91B43;}
	.st329{fill:#F5F5F6;}
	.st330{fill:#AFB6C1;}
	.st331{fill:#D6A14E;}
	.st332{fill:#F7F2F3;}
	.st333{fill:#363C67;}
	.st334{fill:#353C67;}
	.st335{fill:#F31C42;}
	.st336{fill:#EAD2DA;}
	.st337{fill:#DA1E45;}
	.st338{fill:#373E67;}
	.st339{fill:#FCCCB9;}
	.st340{fill:#3D4166;}
	.st341{fill:#FBCBB8;}
	.st342{fill:#F6CAB6;}
	.st343{fill:#FBC3CD;}
	.st344{fill:#FBDCE1;}
	.st345{fill:#ED1D44;}
	.st346{fill:#ECEBEE;}
	.st347{fill:#E1234A;}
	.st348{fill:#DED3DB;}
	.st349{fill:#DD2047;}
	.st350{fill:#D5CCD6;}
	.st351{fill:#F5DDE3;}
	.st352{fill:#383E67;}
</style>
<circle class="st10" cx="39.3" cy="56.3" r="28.1"/>
<linearGradient id="SVGID_2_" gradientUnits="userSpaceOnUse" x1="9.61" y1="56.3337" x2="69.1897" y2="56.3337">
	<stop  offset="0" style="stop-color:#90278E"/>
	<stop  offset="1" style="stop-color:#25A9E0"/>
</linearGradient>
<circle style="fill:none;stroke:url(#SVGID_2_);stroke-width:1.9316;stroke-miterlimit:10;" cx="39.4" cy="56.3" r="28.8"/>
<g>
	<defs>
		<path id="SVGID_104_" d="M67.3,56.5c0,15.6-12.4,27.7-28,27.7s-27.9-12.4-27.9-28S-13.8,5.9,39.1,8.4
			C90.9,8.4,67.3,40.9,67.3,56.5z"/>
	</defs>
	<clipPath id="SVGID_3_">
		<use xlink:href="#SVGID_104_"  style="overflow:visible;"/>
	</clipPath>
	<g style="clip-path:url(#SVGID_3_);">
		<path id="Штаны" class="st286" d="M35.3,100.1c0,0-6.4-1.1-11.6-1.9S13,96.1,11.5,96.4c-1.5,0.3-3.8,1.8-3.8,3.1
			c0,1.4,2.9,9.8,3.8,12.5c0.8,2.7,5.6,14.4,5.6,14.4l5.3-4.7c0,0-3.7-6.6-5-9.7c-1.4-3.1-2.8-8.5-2.8-8.5s23.9,7.3,34.5,4.4
			c10.9-3,16.4-8.5,20-11c3.7-2.5,9.2-8.4,11-8.1c1.8,0.2,5,5.1,7.2,8.5c2.2,3.3,7.5,13.2,7.5,13.2l6-3.8c0,0-7.4-10.9-9.1-13.2
			s-5.6-8.1-7.2-9.4c-1.5-1.2-3.5-1.7-5.3-1.3c-1.7,0.4-8.9,5.1-11,6.6c-2.1,1.5-10.6,7.2-10.6,7.2L35.3,100.1z"/>
		<linearGradient id="Кофта_1_" gradientUnits="userSpaceOnUse" x1="2.8202" y1="91.8029" x2="85.3396" y2="13.3966">
			<stop  offset="0" style="stop-color:#D51317"/>
			<stop  offset="0.5225" style="stop-color:#E96323"/>
			<stop  offset="1" style="stop-color:#E74310"/>
		</linearGradient>
		<path id="Кофта" class="st291" d="M58.5,80.1c-0.1,6.8-0.9,16.6-0.9,16.6s-5.4,4.5-11.3,5.3S35,100.4,35,100.4
			s-5.1-12.9-6.3-16c-1.1-3-4-13.2-5-14.1c-0.9-0.8-1.8-1-3.8-1.6S4.5,70.2,1.5,70.1C-2,70-5.4,70.3-8.8,71c-3,0.6-13,1.7-15,1.3
			c-0.6-0.2-1.1-0.5-1.6-0.9l-2.2-0.3v-7.2h2.5c0.8-0.8,1.8-1.3,2.8-1.6c1.9-0.5,10.1-0.3,12.5,0.3c2.8,0.7,9.2,1.6,11.6,1.9
			c2.4,0.3,5,0,7.8,0s11.9-1.1,14.7-1.9s6.3-5,6.3-5l24.7-0.6c0,0,9.5,1.4,13.2,1.3c3.7-0.1,11.9-0.3,11.9-0.3s5.5-6.6,7.8-8.8
			c2.3-2.2,5.6-6.4,7.2-6.6c1-0.1,2,0.1,2.8,0.6l1.9-1.9c0,0,2.5-0.7,4.1,1.3s1.3,2.5,1.3,2.5l-2.2,2.2c0,0,0.9,0.1,0.3,1.6
			s-5.2,5-7.5,6.6s-8.5,5-11.3,5.6c-2.8,0.6-10.3,1.8-13.5,1.9c-1.6,0.1-12,0-12.8,0.9C57.8,64.6,58.6,76.8,58.5,80.1z"/>
		<ellipse id="Эллипс_2" class="st120" cx="36.9" cy="40.2" rx="14.4" ry="13.6"/>
		<g>
			<path class="st292" d="M48.1,34.2c0,0.8,0,1.7,0,2.5c-0.3,1.2-0.4,2.5-1.3,3.5c-2.4,2.6-5.4,4.1-8.9,4.4
				c-2.4,0.2-4.9,0.2-7.3-0.1c-3-0.4-5.6-1.8-7.7-3.9c-0.5-0.5-1-1.1-0.9-1.9c0.4-0.5,1-0.4,1.5-0.4c3.1,0,6.2,0,9.3-0.6
				c3.4-0.6,6.5-2,9.1-4.4c0.3-0.3,0.6-0.6,0.8-0.9c0.4-0.5,0.4-0.9-0.2-1.4c-1.3-1.1-1.4-1.6-0.3-2.9c0.4-0.3,0.9-0.1,1.3,0.1
				c1.6,1,3.1,2.1,4.1,3.8C47.9,32.7,47.7,33.5,48.1,34.2z"/>
			<path class="st292" d="M42.3,28.2c0,0.1,0,0.2,0,0.3c-0.6,1.4-0.5,1.7,0.8,2.4c0.7,0.4,0.7,0.7,0.3,1.3c-0.5,0.8-1.1,1.3-1.7,1.9
				c-2.8,2.5-6.2,3.7-9.9,4.2c-3.2,0.5-6.5,0.4-9.7,0.4c-0.9-0.3-0.6-1.2-0.9-1.9c0-0.9,0-1.8,0-2.7c0.3-0.3-0.3-1.1,0.6-1.2
				c0.3,0.1,0.4,0.3,0.5,0.5c0.4,0.9,1.1,1.2,2.1,1.3c0.7,0.1,1.3,0.4,1.9,0.8c0.4,0.3,0.8,0.4,1.4,0.3c1.7-0.4,3.4-0.7,5.1-1.5
				c1-0.4,2.1-0.5,3.1-0.9c1.4-0.5,2.5-1.3,3.5-2.3c0.2-0.2,0.4-0.3,0.3-0.6c-0.1-0.2-0.4-0.2-0.6-0.3c-0.4-0.1-0.7,0.1-1.1,0.2
				c-0.5,0.1-0.9,0.3-1.4,0c-0.2-0.2-0.1-0.5,0.1-0.7c0.9-1.1,1.6-2.3,2.9-3C40.4,26.9,41.6,26.9,42.3,28.2z"/>
			<path class="st293" d="M21.7,33.1c0-0.5,0.2-0.9,0.7-1.2c1-0.7,2-0.7,3.2-0.5c1.2,0.3,2.5,0.6,3.8,0.2c0.6-0.2,1.3-0.1,2,0
				c0.9,0,1.8-0.1,2.6-0.5c0.5-0.1,0.9-0.3,1.3-0.5c0.3-0.2,0.6-0.4,1-0.2c0.5,0,1-0.2,1.5-0.4c0.7-0.4,1.5-0.2,2.1,0.1
				c0.7,0.3,0.2,0.7-0.1,1.1c-1.2,1.3-2.6,2.5-4.4,2.9c-2.6,0.6-5,1.8-7.6,2.2c-0.8,0.1-1.5,0.2-2.1-0.5c-0.4-0.5-1.1-0.6-1.7-0.6
				C22.5,35.1,22,34.5,21.7,33.1z"/>
			<path class="st294" d="M36.2,30.4c-0.7,0.4-1.2,1-2.1,1c-2.1,0.4-4.2,0.1-6.3,0.5c-0.5,0.1-1.3-0.1-1.6-0.4
				c-1-0.7-1.9-0.3-2.9-0.2c-0.2,0-0.5,0.1-0.7-0.1c1.2-1.5,2.7-2.5,4.4-3.2c3.7-1.6,7.5-1.9,11.4-1.1c0.2,0,0.4,0.1,0.6,0.2
				C38.1,28.2,37.4,29.5,36.2,30.4z"/>
			<path class="st295" d="M22.7,31.2c0.4-0.1,0.9-0.2,1.3-0.4c0.8-0.2,1.4-0.5,2.3,0.3c0.5,0.5,1.8,0.7,2.9,0.5
				c1.6-0.4,3.3-0.3,5-0.2c-0.7,0.3-1.4,0.4-2.2,0.4c-1.1,0-2.3-0.1-3.4,0.2c-1,0.3-2-0.2-2.9-0.3c-1.1-0.1-2.2-0.1-3.3,0.1
				C22.5,31.7,22.6,31.5,22.7,31.2z"/>
		</g>
		<path id="Борода" class="st296" d="M20.9,34.4c0,0-1.6,4-2.6,7.3c-0.4,1.3-0.7,2.6-0.8,4l1.3-0.6c-0.1,0.6-0.2,1.2-0.2,1.8
			c0.1,0.7,0.2,1.3,0.5,2c0.4-0.6,0.8-1.1,1.3-1.6c0.4-0.3,0.9-0.5,1.5-0.6l3.8,4.1c0.7,1.3,1.4,2.6,2,3.9c0.6,1.4,1.1,2.8,1.5,4.2
			c0.2-0.4,0.4-0.9,0.5-1.4c0-0.4,0-0.8-0.2-1.2c0.5,1.2,0.9,2.4,1.1,3.7c0.1,1.1,0.1,2.2-0.2,3.2c0.6-0.2,1.2-0.5,1.8-0.8
			c0.4-0.4,0.8-0.8,1-1.4c0,0.9,0,1.8-0.1,2.7c-0.2,1-0.5,2-0.8,3c0.8-0.4,1.6-0.9,2.3-1.4c0.6-0.5,1.2-1.1,1.8-1.7
			c0.4,1,0.6,2,0.6,3c0,0.9-0.2,1.8-0.6,2.7c1-0.3,1.9-0.7,2.8-1.3c0.8-0.7,1.4-1.5,1.9-2.4c0.2,0.8,0.2,1.5,0,2.3
			c-0.3,1.2-0.7,2.3-1.3,3.3c0,0,2.6-1.2,3.8-2.9c1.1-1.6,0.9-3.7,0.9-3.7c0.2,0.6,0.3,1.3,0.3,1.9c0,1-0.1,2.1-0.3,3.1
			c0,0,2.3-1.4,3.6-3.3c1.2-1.8,1.4-4.2,1.4-4.2c0.1,0.8,0.1,1.5,0,2.3c-0.1,0.8-0.3,1.6-0.6,2.4c0,0,1.6-1.3,2.2-2.9
			c0.6-1.5,0.3-3.3,0.3-3.3s0.1,0.8,0.1,1.7c0.1,1,0.2,2.1,0.2,2.1s1.5-1.7,2.1-3.3c0.3-1,0.4-2,0.1-3l0.4,1.4c0.3,0.9,0.6,2,0.6,2
			s1.4-2.8,1.9-5.4c0.3-1.6,0.2-3.3,0-4.9c0.4,0.1,0.8,0.2,1.2,0.2c0.5-0.1,0.9-0.2,1.3-0.5c-1.2-1-2.3-2.1-3.2-3.4
			c-0.9-1.3-1.6-2.7-2.1-4.1l0.6-0.3l-5.3-10.3l-0.6,0.3c0.8,2,1.5,4.1,1.9,6.3c0.7,3.5-0.1,9.6-5.6,11S30.5,52.7,27.2,46
			s-2.8-10.3-2.8-10.3L20.9,34.4z"/>
		<g>
			<linearGradient id="SVGID_5_" gradientUnits="userSpaceOnUse" x1="19.2866" y1="25.9539" x2="47.4435" y2="25.9539">
				<stop  offset="0" style="stop-color:#31435B"/>
				<stop  offset="1" style="stop-color:#465971"/>
			</linearGradient>
			<path style="fill:url(#SVGID_5_);" d="M46.5,24.9c-0.6-1.4-1.4-2.8-1.9-4.3c-1.9-4.3-12.8-3.9-14.4-3.8c-0.8,0.1-1.8,0-2.1,1
				c0,0.1,0,0.1,0,0.2c-0.4,0.2-0.7,0.4-1,0.6c0,0,0,0,0,0c-0.6-0.2-1.1,0-1.6,0.3c-1.1,0.6-2,1.4-3,2.2c-1.4,1.1-2.9,2.2-3.3,4.1
				c0,0.7,0.2,6,0.5,7.9c0.2,1.6,0.7,1.9,2.2,2c2.4,0.1,4.9,0,7.3-0.2c2-0.2,4.1,0,5.8-1.4c0.1-0.2,0.1-0.4,0.2-0.5
				c0.9-0.2,1.7-0.6,2.5-1.1c2.8-0.8,5.3-2,7.5-3.8C47.3,27,48.3,28.3,46.5,24.9z"/>
		</g>
		<g>
			<path class="st126" d="M48.1,33.3c-3,1.4-6.2,2.4-9.4,3.4c-1-1.4-0.9-1.7,1.1-3.6c-0.7-0.3-1.3-0.1-2-0.2c-0.5,0-1.1-0.1-0.7-0.9
				c1.6-0.8,3.3-1.5,4.9-2.3c1.1-0.5,2.1-1.1,3.1-1.8c1.3-1,2.6-1.4,4.2-1.2c0.9,1.3,1,2.5-0.2,3.8C48.4,31.4,48.1,32.3,48.1,33.3z"
				/>
			<path class="st126" d="M24.3,35.9c0-0.4,0-0.8,0-1.2c2-0.2,4-0.4,5.9-0.7c0.9-0.2,1.7,0.3,2.6,0.2c1.1-0.1,2.2,0,3.2-0.5
				c0.4-0.2,0.8-0.3,1.2-0.3c0.5,0,1-0.1,1.2,0.4c0.3,0.5-0.1,1-0.4,1.2c-1.1,0.7-1.6,1.7-2.1,2.8c-2.4,0.8-4.8,0.3-7.2-0.3
				C27.2,36.9,25.8,36.4,24.3,35.9z"/>
			<path class="st126" d="M48.1,33.3c-0.6-0.9-0.6-1.7,0.2-2.4c1.4-1.1,1.6-2.5,1-4.1c1.4,0,2.8,0,4.2,0c0.8,0,1.6,0.1,1.9,1
				c0.3,1-0.3,1.7-1,2.1c-1.2,0.8-2.6,1.5-3.9,2.2C49.8,32.5,48.9,32.9,48.1,33.3z"/>
			<path class="st126" d="M35.9,37.7c-0.3-1.4,0.4-2.2,1.6-2.8c0.4-0.2,1-0.5,0.7-1c-0.2-0.4-0.8-0.2-1.3-0.1
				c-1,0.2-1.8,0.9-2.9,0.8c-1.3-0.1-2.6,0.1-3.7-0.7c2.3-0.6,4.6-1.3,6.9-1.9c0.5,1.4,1.7-0.1,2.4,0.6c0.2,0.2,1-0.3,1.2,0.3
				c0.2,0.6-0.6,0.6-0.9,0.8c-1.1,0.8-1.7,1.7-1,3C37.8,37.1,36.8,37.4,35.9,37.7z"/>
			<path class="st126" d="M21.2,34.6c1,0,2.1,0,3.1,0c0.3,0.4,0.4,0.8,0,1.2c-1.1-0.1-2.1-0.6-3.1-0.9
				C21.2,34.8,21.2,34.7,21.2,34.6z"/>
		</g>
		<path id="Нос" class="st298" d="M41.3,44c-0.9,0.8-0.7,1.8,0,2.7c0.7,0.9,2.1,2.6,3.8,3.1c1.7,0.5,4.6,0.3,5.5-0.7
			s0.9-1.4,0.7-2c-0.2-0.6-1-1.6-2.1-1.4c-1,0.2-2.3,0.4-3.8-0.3C44.1,44.7,42.2,43.2,41.3,44z"/>
		<path id="Фигура_1" class="st298" d="M24.1,44.4l2.5,5.3c0,0-2.5,2.2-4.1-0.3C20.9,46.9,24.1,44.4,24.1,44.4z"/>
		<g id="Глаза">
			<path id="Эллипс_1" class="st299" d="M34.7,42c0.5-0.1,1.1,0.6,1.3,1.6s0,1.9-0.5,2S34.5,45,34.3,44
				C34,43,34.2,42.1,34.7,42z"/>
			<path id="Эллипс_1_копия" class="st299" d="M46.3,39.1c0.5-0.1,1.1,0.6,1.3,1.6s0,1.9-0.5,2c-0.5,0.1-1.1-0.6-1.3-1.6
				S45.8,39.2,46.3,39.1z"/>
		</g>
		<g id="Брови">
			<path id="Эллипс_1_копия_2" class="st296" d="M47.2,35.4c0.3,0.5-0.5,1.2-1.8,1.5c-1.3,0.4-2.5,0.3-2.8-0.1
				s0.5-1.2,1.8-1.5S46.9,34.9,47.2,35.4z"/>
			<path id="Эллипс_1_копия_3" class="st296" d="M36.5,38.8c0.3,0.5-0.6,1.2-2.1,1.5c-1.4,0.4-2.9,0.3-3.2-0.1
				c-0.3-0.5,0.6-1.2,2.1-1.5C34.8,38.3,36.2,38.4,36.5,38.8z"/>
		</g>
		<path class="st300" d="M26,18.8c0,0,0.3-2.1,2.6-1.5C28.6,19,26,18.8,26,18.8z"/>
	</g>
</g>
</svg>
