<?xml version="1.0" encoding="utf-8"?>
<!-- Generator: Adobe Illustrator 22.0.1, SVG Export Plug-In . SVG Version: 6.00 Build 0)  -->
<svg version="1.0" id="Layer_1" xmlns="http://www.w3.org/2000/svg" xmlns:xlink="http://www.w3.org/1999/xlink" x="0px" y="0px"
	 viewBox="0 0 80 80" enable-background="new 0 0 80 80" xml:space="preserve">
<g>
	<radialGradient id="SVGID_2_" cx="38.1667" cy="49.25" r="29.9282" gradientUnits="userSpaceOnUse">
		<stop  offset="0.4316" style="stop-color:#363365"/>
		<stop  offset="0.6044" style="stop-color:#363365"/>
		<stop  offset="0.684" style="stop-color:#28264B"/>
		<stop  offset="0.8228" style="stop-color:#131223"/>
		<stop  offset="0.9329" style="stop-color:#06060A"/>
		<stop  offset="1" style="stop-color:#010101"/>
	</radialGradient>
	<circle fill="url(#SVGID_2_)" cx="38.6" cy="49.2" r="30"/>
	<g>
		<defs>
			<path id="SVGID_230_" d="M38.3-1.1c9.4,0,28.7,4.9,34.2,17.3c4.2,9.4-4.2,25.7-4.2,32.9c0,16.6-13.4,30-30,30s-30-13.4-30-30
				c0-7.8-9.4-23.5-4.5-33.6C9.3,4.3,29.6-1.1,38.3-1.1z"/>
		</defs>
		<clipPath id="SVGID_3_">
			<use xlink:href="#SVGID_230_"  overflow="visible"/>
		</clipPath>
		<g id="Layer_1_1_" clip-path="url(#SVGID_3_)">
			<g>
				<g>
					<path display="none" fill="#61F8FF" d="M32.7,68.2l-3.4,6.9c-0.5,1-0.1,2.2,0.9,2.7l3.3,1.6c1,0.5,2.2,0.1,2.7-0.9l0.8-1.6
						c0.4-0.2,0.7-0.5,0.9-0.9l2.3-4.6c1.4-0.1,2.8-0.9,3.4-2.3l6.1-12.5c0.6-0.1,1.1-0.5,1.3-1.1l0.5-1l0,0l2.5-5.2
						c0.3-0.6,0.3-1.1,0-1.7l4.1-8.5c1.1-0.4,2-1.2,2.5-2.3l0.5-1c0.5-1.1,0.6-2.4,0.2-3.6C61,31,60.1,30,59,29.5l-2-0.9
						c-0.1-1.1-0.8-2.1-1.9-2.6L45,23.5c-1.1-0.5-1.3-2.6-2.3-2l-2.2-1.1c-2.3-1.1-5.1-0.2-6.3,2.2l-0.2,0.3l0.8,0.4l-0.8-0.4
						l-0.3,0.7c-0.5,1.1-0.6,2.4-0.2,3.6c0,0.1,0.1,0.1,0.1,0.2l-4.3,8.7c-0.6,0.1-1.2,0.5-1.4,1.1l-0.5,1L32.7,68.2z M27.4,38.1
						C27.4,38.1,27.4,38.1,27.4,38.1l-2.3,4.7c-0.3,0.6-0.3,1.3,0,1.8l-4.5,9.3l0,0L19.1,57c-0.7,1.4-0.5,2.9,0.3,4.1l-2.3,4.6
						c-0.2,0.3-0.2,0.7-0.2,1l-0.9,1.8c-0.5,1-0.1,2.2,0.9,2.7l3.3,1.6c1,0.5,2.2,0.1,2.7-0.9l1-2.1c0-0.1,0.1-0.1,0.1-0.2
						c0.1-0.1,0.2-0.2,0.2-0.3l2-4.2l6.3,3.1L27.4,38.1z M38.3,21.6c-0.7,0.1-1.4,0.4-2.1,0.9C36.8,22,37.5,21.7,38.3,21.6z"/>
					<g>
						<path fill="#D0C9AF" d="M42.5,77.5c-1.2,2.4-4.1,3.4-6.5,2.2l-20.6-10c-2.4-1.2-3.4-4.1-2.2-6.5l17.3-35.6
							c1.2-2.4,3.7-3.6,5.7-2.6c2,1,5.6,2.7,8,3.9l8,3.9c2.4,1.2,5.6,2.7,7.1,3.5c1.5,0.7,1.7,3.3,0.6,5.7L42.5,77.5z"/>
						<g>
							<path fill="#5C4540" d="M57.2,45.7c-1.2,0.2-2.4,0-3.5-0.5L31.5,34.4c-1.4-0.6-2.3-1.8-2.8-3.2c-0.5-1.4-0.4-2.9,0.3-4.3
								l0.4-0.8l1.9,0.9l-0.4,0.8c-0.4,0.8-0.5,1.8-0.2,2.7c0.3,0.9,0.9,1.6,1.8,2l22.2,10.8c0.8,0.4,1.8,0.5,2.7,0.2s1.6-0.9,2-1.8
								l0.6-1.2c0.8-1.7,0.1-3.9-1.6-4.7L36.1,25l0.9-1.9l22.2,10.8c2.8,1.4,4,4.7,2.6,7.5l-0.6,1.2c-0.6,1.4-1.8,2.3-3.2,2.8
								C57.7,45.5,57.4,45.6,57.2,45.7z"/>
						</g>
						<path fill="#FFF9F8" d="M39.9,77.2c-1.4,2.8-4.8,4-7.6,2.6l-14.7-7.2c-2.8-1.4-4-4.8-2.6-7.6l14.6-30c1.4-2.8,4.8-4,7.6-2.6
							l14.7,7.2c2.8,1.4,4,4.8,2.6,7.6L39.9,77.2z"/>
						<g>
							<path fill="#5C4540" d="M30.4,27.5c-0.2,0-0.4,0-0.6-0.1c-0.5-0.3-0.7-0.9-0.5-1.4l0.2-0.4c1.4-2.8,4.7-4,7.5-2.6
								c0.5,0.3,0.7,0.9,0.5,1.4c-0.3,0.5-0.9,0.7-1.4,0.5c-1.7-0.8-3.9-0.1-4.7,1.6L31.2,27C31.1,27.3,30.8,27.5,30.4,27.5z"/>
						</g>
						<g>
							<g>
								<path fill="#FFFFFF" d="M35.6,62.9c-0.2,0-0.5,0-0.6-0.1l-5.5-2.7c-0.6-0.3-0.8-0.9-0.5-1.5l2-4.2c0.1-0.3,0.4-0.5,0.8-0.6
									c0.2,0,0.5,0,0.6,0.1l5.5,2.7c0.6,0.3,0.8,0.9,0.5,1.5l-2,4.2C36.2,62.6,35.9,62.9,35.6,62.9z"/>
								<g>
									<path fill="#D0C9AF" d="M31.8,54.4L31.8,54.4c0.1,0,0.2,0,0.4,0.1l5.5,2.7c0.3,0.1,0.4,0.6,0.3,0.8l-2,4.2
										c-0.1,0.2-0.2,0.3-0.4,0.3c-0.1,0-0.2,0-0.4-0.1l-5.5-2.7c-0.3-0.1-0.4-0.6-0.3-0.8l2-4.2C31.4,54.6,31.6,54.4,31.8,54.4
										L31.8,54.4z M31.6,53.5c-0.5,0.1-0.9,0.4-1.1,0.8l-2,4.2c-0.4,0.8,0,1.7,0.7,2.1l5.5,2.7c0.3,0.1,0.6,0.2,1,0.1
										c0.5-0.1,0.9-0.4,1.1-0.8l2-4.2c0.4-0.8,0-1.7-0.7-2.1l-5.5-2.7C32.3,53.4,31.9,53.4,31.6,53.5L31.6,53.5z"/>
								</g>
							</g>
							<g>
								<path fill="#491D2A" d="M35.7,59.8c-0.1,0-0.2,0-0.3,0L33,58.5c-0.2-0.1-0.3-0.4-0.2-0.6c0.1-0.2,0.4-0.3,0.6-0.2l2.4,1.2
									c0.2,0.1,0.3,0.4,0.2,0.6C36,59.6,35.9,59.7,35.7,59.8z"/>
							</g>
							<g>
								<path fill="#FF5649" d="M32.1,58c-0.1,0-0.2,0-0.3,0l-0.2-0.1c-0.2-0.1-0.3-0.4-0.2-0.6c0.1-0.2,0.4-0.3,0.6-0.2l0.2,0.1
									c0.2,0.1,0.3,0.4,0.2,0.6C32.4,57.9,32.3,58,32.1,58z"/>
							</g>
							<g>
								<path fill="#491D2A" d="M36.4,58.5c-0.1,0-0.2,0-0.3,0l-2.4-1.2c-0.2-0.1-0.3-0.4-0.2-0.6c0.1-0.2,0.4-0.3,0.6-0.2l2.4,1.2
									c0.2,0.1,0.3,0.4,0.2,0.6C36.6,58.4,36.5,58.4,36.4,58.5z"/>
							</g>
							<g>
								<path fill="#491D2A" d="M42.6,61.5c-0.1,0-0.2,0-0.3,0l-2.4-1.2c-0.2-0.1-0.3-0.4-0.2-0.6c0.1-0.2,0.4-0.3,0.6-0.2l2.4,1.2
									c0.2,0.1,0.3,0.4,0.2,0.6C42.8,61.4,42.7,61.5,42.6,61.5z"/>
							</g>
							<g>
								<path fill="#491D2A" d="M28.9,54.8c-0.1,0-0.2,0-0.3,0l-2.4-1.2C26,53.5,25.9,53.2,26,53c0.1-0.2,0.4-0.3,0.6-0.2l2.4,1.2
									c0.2,0.1,0.3,0.4,0.2,0.6C29.2,54.7,29,54.8,28.9,54.8z"/>
							</g>
							<g>
								<path fill="#FFA847" d="M32.8,56.7c-0.1,0-0.2,0-0.3,0l-0.2-0.1c-0.2-0.1-0.3-0.4-0.2-0.6c0.1-0.2,0.4-0.3,0.6-0.2l0.2,0.1
									c0.2,0.1,0.3,0.4,0.2,0.6C33,56.6,32.9,56.7,32.8,56.7z"/>
							</g>
						</g>
						<path fill="#AE9A82" d="M49.1,36.2c-1-1.1-2.2-2-3.5-2.7l0,0c-5.7-2.8-12.7-0.4-15.4,5.3c-2.3,4.8-1.1,10.5,3,14
							c0.7,0.6,1.5,1.1,2.3,1.5l0,0c5.7,2.8,12.7,0.4,15.4-5.3C53,44.8,52.3,39.8,49.1,36.2z"/>
						<g opacity="0.6">
							<path fill="#6D6052" d="M56.4,37.8c-1,2-3.4,2.8-5.4,1.9l-12.9-6.3c-2-1-2.8-3.4-1.9-5.4l0.4-0.8c1-2,3.4-2.8,5.4-1.9
								L55,31.6c2,1,2.8,3.4,1.9,5.4L56.4,37.8z"/>
						</g>
						<path fill="#FCF1F0" d="M56.5,34.9c-0.3,0.5-0.6,1-1.1,1.3c-1.2,1-2.9,1.2-4.3,0.5l-6-3L40,31.3c-1.5-0.7-2.4-2.4-2.3-4
							c0-0.5,0.2-0.9,0.4-1.4c1-2,3.4-2.8,5.4-1.8l11.1,5.4c0.8,0.4,1.4,1,1.8,1.7C57,32.4,57.1,33.8,56.5,34.9z"/>
						<path fill="#D0C9AF" d="M51.9,36.3l-6-3l-5.1-2.5c-1.5-0.7-2.4-2.4-2.3-4c0-0.5,0.2-0.9,0.4-1.4c0.3-0.6,0.7-1.1,1.2-1.5
							c-0.9,0.4-1.6,1-2.1,1.9c-0.2,0.4-0.3,0.9-0.4,1.4c-0.1,1.6,0.7,3.2,2.3,4l5.1,2.5l6,3c1.4,0.7,3,0.5,4.1-0.3
							C54.2,36.8,53,36.8,51.9,36.3z"/>
						<path fill="#FFFFFF" d="M49.1,30c-0.1,0.3-0.3,0.5-0.5,0.7c-0.6,0.5-1.4,0.6-2.1,0.2l-2.9-1.5L41,28.3c-0.8-0.4-1.2-1.1-1.1-2
							c0-0.2,0.1-0.4,0.2-0.7c0.5-1,1.7-1.3,2.6-0.9l5.4,2.7c0.4,0.2,0.7,0.5,0.9,0.9C49.3,28.8,49.3,29.4,49.1,30z"/>
						<g>
							<path fill="#BFB8A1" d="M43.2,25.4c-0.1,0-0.2,0-0.3,0c-0.2-0.1-0.3-0.4-0.2-0.6L43,24c0.1-0.2,0.4-0.3,0.6-0.2
								c0.2,0.1,0.3,0.4,0.2,0.6l-0.4,0.8C43.4,25.3,43.3,25.4,43.2,25.4z"/>
						</g>
						<g>
							<path fill="#D0C9AF" d="M41.6,28.8c-0.1,0-0.2,0-0.3,0c-0.2-0.1-0.3-0.4-0.2-0.6l1.6-3.4c0.1-0.2,0.4-0.3,0.6-0.2
								c0.2,0.1,0.3,0.4,0.2,0.6l-1.6,3.4C41.8,28.7,41.7,28.8,41.6,28.8z"/>
						</g>
						<g>
							<path fill="#BFB8A1" d="M40.1,31.8c-0.1,0-0.2,0-0.3,0c-0.2-0.1-0.3-0.4-0.2-0.6l1.4-3c0.1-0.2,0.4-0.3,0.6-0.2
								c0.2,0.1,0.3,0.4,0.2,0.6l-1.4,3C40.4,31.7,40.3,31.8,40.1,31.8z"/>
						</g>
						<g>
							<path fill="#6C2031" d="M48.2,48.2c2.2-4.3,0.5-9.5-3.8-11.6s-9.5-0.5-11.6,3.8l-1.7,3.4c-1.4,2.8,0.9,6.8,5.1,9
								c4.3,2.2,8.9,1.6,10.3-1.1L48.2,48.2z"/>
							<path fill="none" stroke="#877D94" stroke-width="1.1724" stroke-miterlimit="10" d="M48.3,48c2.2-4.3,0.5-9.5-3.8-11.6
								c-4.3-2.2-9.5-0.5-11.6,3.8l-1.7,3.4c-1.4,2.8,0.9,6.8,5.1,9c4.3,2.2,8.9,1.6,10.3-1.1L48.3,48z"/>
							<g>
								<path fill="#FFE8E2" d="M45.3,39.8c-0.2,0-0.4,0-0.6-0.2c-0.4-0.4-0.9-0.7-1.4-0.9c-1.9-1-4.1-0.9-6,0.2
									c-0.3,0.2-0.8,0.1-0.9-0.3c-0.2-0.3-0.1-0.8,0.3-0.9c2.2-1.3,5-1.4,7.3-0.2c0.6,0.3,1.2,0.7,1.7,1.1c0.3,0.3,0.3,0.7,0,1
									C45.5,39.6,45.4,39.7,45.3,39.8z"/>
							</g>
							<g>
								<path fill="#FFE8E2" d="M34.4,41.8c-0.1,0-0.3,0-0.4-0.1c-0.3-0.2-0.5-0.6-0.3-0.9c0.4-0.7,0.8-1.4,1.4-1.9
									c0.3-0.3,0.7-0.3,1,0c0.3,0.3,0.3,0.7,0,1c-0.5,0.5-0.9,1-1.2,1.6C34.8,41.6,34.6,41.7,34.4,41.8z"/>
							</g>
							<path fill="#491D2A" stroke="#5C4540" stroke-width="0.4598" stroke-miterlimit="10" d="M36,53c-0.8-0.4-1.5-0.9-2.1-1.4
								c-3.7-3.2-4.9-8.6-2.6-13.1c2.7-5.3,9.2-7.5,14.5-4.8c1.3,0.6,2.4,1.5,3.3,2.5c2.8,3.2,3.6,8,1.5,12
								C47.9,53.6,41.4,55.7,36,53z"/>
							<path fill="none" d="M49.1,36.2L49.1,36.2c-5.3-3.2-12.1-1.4-15.3,3.8c-2.2,3.7-2,8.1,0.1,11.5c-3.7-3.2-4.9-8.6-2.6-13.1
								c2.7-5.3,9.2-7.5,14.5-4.8C47.1,34.3,48.2,35.2,49.1,36.2z"/>
							<g>
								<g>
									<defs>
										<path id="SVGID_232_" d="M36.5,51.6c-0.7-0.4-1.3-0.8-1.8-1.3c-3.1-2.8-4-7.5-2-11.3c2.4-4.5,8.1-6.3,12.6-3.8
											c1.1,0.6,2,1.4,2.8,2.2c2.4,2.8,2.9,6.9,1,10.4C46.7,52.3,41.1,54,36.5,51.6z"/>
									</defs>
									<clipPath id="SVGID_5_">
										<use xlink:href="#SVGID_232_"  overflow="visible"/>
									</clipPath>
									<g clip-path="url(#SVGID_5_)">
										
											<rect x="39.9" y="36.6" transform="matrix(0.4063 -0.9137 0.9137 0.4063 -14.903 63.8726)" fill="#FFFFFF" width="3.6" height="13.5"/>
										<path fill="#A4C639" d="M47.6,41.4l2.9-2.1c0.1,0,0.1-0.2,0.1-0.3l0,0c0-0.1-0.2-0.1-0.3-0.1l-2.9,2.1
											c-2.1-2.3-5.2-3.7-8.3-3.7l-0.4-3.6c0-0.1-0.1-0.2-0.2-0.2c-0.1,0-0.2,0.1-0.2,0.2l0.4,3.6c-3.6,0.1-6.9,2.1-8.3,5.4
											l19,8.4C50.6,47.9,49.9,44.2,47.6,41.4z M36.6,41.8c-0.5-0.2-0.7-0.8-0.5-1.3l0,0c0.2-0.5,0.8-0.7,1.3-0.5
											c0.5,0.2,0.7,0.8,0.5,1.3C37.7,41.8,37.1,42,36.6,41.8L36.6,41.8z M45.6,45.8c-0.5-0.2-0.7-0.8-0.5-1.3l0,0
											c0.2-0.5,0.8-0.7,1.3-0.5c0.5,0.2,0.7,0.8,0.5,1.3C46.7,45.8,46.1,46,45.6,45.8L45.6,45.8L45.6,45.8z"/>
										<path fill="none" d="M44.8,46l1.7,0.7c0.4,0.1,0.7,0.2,1.1,0c0.8-0.3,1.5-1.3,1.8-2l-5.7-2.5C43.4,43.3,43.3,45.4,44.8,46
											z"/>
										<path fill="none" d="M34.5,41c0.2,0.3,0.4,0.6,0.7,0.8l1.7,0.7c0.8,0.3,1.7,0.1,2.6-0.7c0.3-0.3,0.7-0.6,0.9-1l-5.7-2.5
											C34.6,39.1,34.3,40.2,34.5,41z"/>
										<path fill="none" d="M45.1,44.5c-0.2,0.5,0,1.1,0.5,1.3c0.5,0.2,1.1,0,1.3-0.5c0.2-0.3,0.1-0.7-0.1-1L45.9,44
											C45.5,44,45.3,44.2,45.1,44.5z"/>
										<path fill="none" d="M36.1,40.5c-0.2,0.5,0,1.1,0.5,1.3c0.5,0.2,1.1,0,1.3-0.5c0.2-0.3,0.1-0.7-0.1-1L36.9,40
											C36.5,40,36.2,40.2,36.1,40.5z"/>
										<path fill="#A4C639" d="M49.9,46.8c-0.5,0.7-1.1,1.2-1.8,1.6c-0.7,0.3-1.6,0.3-2.3-0.1l-1.7-0.7c-0.9-0.4-2.1-1.4-2.2-3.8
											c0-0.7-0.1-1-0.3-1.1c-0.2-0.1-0.5,0.1-1,0.6c-1.8,1.6-3.3,1.4-4.2,0.9l-1.7-0.7c-0.7-0.3-1.3-0.9-1.6-1.7
											c-0.3-0.8-0.3-1.6-0.1-2.4c-1.2,0.9-2.2,2.1-2.8,3.4l19,8.4C49.8,49.8,50,48.3,49.9,46.8z"/>
										<path fill="#A4C639" d="M47.6,41.4l2.9-2.1c0.1,0,0.1-0.2,0.1-0.3l0,0c0-0.1-0.2-0.1-0.3-0.1l-2.9,2.1
											c-2.1-2.3-5.2-3.7-8.3-3.7l-0.4-3.6c0-0.1-0.1-0.2-0.2-0.2c-0.1,0-0.2,0.1-0.2,0.2l0.4,3.6c-0.9,0-1.8,0.2-2.6,0.5
											L49,43.7C48.7,42.8,48.2,42.1,47.6,41.4z"/>
										<path opacity="0.46" fill="#383838" enable-background="new    " d="M49.7,46.1c-0.4,0.7-1.1,1.4-1.9,1.7
											c-0.6,0.3-1.3,0.3-1.9,0l-1.7-0.7c-1.1-0.5-1.8-1.7-1.8-3.3c0-0.7-0.1-1.4-0.6-1.6c-0.5-0.2-1,0.2-1.6,0.6
											c-1.3,1.1-2.6,1.4-3.7,0.9l-1.7-0.7c-0.6-0.2-1.1-0.7-1.3-1.4c-0.3-0.8-0.2-1.8,0.1-2.6c0,0,0,0,0-0.1
											c-0.2,0.1-0.4,0.3-0.6,0.4c-0.2,0.8-0.2,1.6,0.1,2.4c0.2,0.8,0.8,1.4,1.6,1.7l1.7,0.7c0.9,0.4,2.4,0.6,4.2-0.9
											c0.5-0.4,0.8-0.7,1-0.6c0.2,0.1,0.3,0.4,0.3,1.1c0.1,2.4,1.2,3.4,2.2,3.8l1.7,0.7c0.7,0.4,1.5,0.4,2.3,0.1
											c0.7-0.3,1.4-0.9,1.8-1.6c0-0.3-0.1-0.5-0.1-0.7C49.8,46,49.8,46.1,49.7,46.1z"/>
										<path fill="none" d="M34.5,41.1c0.2,0.3,0.4,0.6,0.7,0.8l1.7,0.7c0.8,0.3,1.7,0.1,2.6-0.7c0.3-0.3,0.7-0.6,0.9-1l-5.7-2.5
											C34.6,39.2,34.2,40.4,34.5,41.1z"/>
										<path fill="none" d="M44.7,46.2l1.7,0.7c0.4,0.1,0.7,0.2,1.1,0c0.8-0.3,1.5-1.3,1.8-2l-5.7-2.5
											C43.4,43.4,43.3,45.5,44.7,46.2z"/>
										<path opacity="0.4" fill="#FFFFFF" enable-background="new    " d="M36.2,39.1l-1.7,0.6c0,0.1,0,0.3-0.1,0.4l2.2-0.9
											L36.2,39.1z"/>
										<path opacity="0.4" fill="#FFFFFF" enable-background="new    " d="M34.8,38.5c-0.1,0.3-0.2,0.5-0.3,0.8l1.1-0.4
											L34.8,38.5z"/>
										<path opacity="0.4" fill="#FFFFFF" enable-background="new    " d="M34.4,40.9c0,0.1,0,0.2,0.1,0.3
											c0.2,0.3,0.4,0.6,0.7,0.8l1.7,0.7c0.8,0.3,1.7,0.1,2.6-0.7c0.3-0.3,0.7-0.6,0.9-1l-3-1.3L34.4,40.9z"/>
										<path opacity="0.4" fill="#FFFFFF" enable-background="new    " d="M43.6,42.4c0,0.3-0.1,0.5-0.1,0.8l1-0.4L43.6,42.4z"/>
										<path opacity="0.4" fill="#FFFFFF" enable-background="new    " d="M45,43l-1.5,0.6c0,0.1,0,0.3,0,0.4l1.9-0.8L45,43z"/>
										<path opacity="0.4" fill="#FFFFFF" enable-background="new    " d="M46.4,43.6l-2.8,1c0.1,0.6,0.5,1.2,1.1,1.5l1.7,0.7
											c0.4,0.1,0.7,0.2,1.1,0c0.8-0.3,1.5-1.3,1.8-2L46.4,43.6z"/>
										<path opacity="0.8" fill="#FFFFFF" enable-background="new    " d="M35.7,38.8l-1.1,0.4c0,0.1-0.1,0.3-0.1,0.4l1.7-0.6
											L35.7,38.8z"/>
										<path opacity="0.8" fill="#FFFFFF" enable-background="new    " d="M36.6,39.3l-2.2,0.9c0,0.3,0,0.5,0,0.8l3.1-1.2
											L36.6,39.3z"/>
										<path opacity="0.8" fill="#FFFFFF" enable-background="new    " d="M44.5,42.8l-1,0.4c0,0.1,0,0.3,0,0.4l1.5-0.6
											L44.5,42.8z"/>
										<path opacity="0.8" fill="#FFFFFF" enable-background="new    " d="M45.4,43.2L43.5,44c0,0.2,0,0.5,0.1,0.7l2.8-1.1
											L45.4,43.2z"/>
										<path fill="#262626" d="M42.5,49.6c-1.7,1.5-4.3,1.3-5.7-0.4c-0.6-0.7-1-1.6-1-2.5l-6.2-2.7c-2.3,5.3,0,11.4,5.3,13.8
											c5.3,2.3,11.4,0,13.8-5.3L42.5,49.6z"/>
										<path fill="#A4C639" d="M38.2,50.2c1.5,0.6,3.1,0.4,4.3-0.6l-6.7-3C35.8,48.2,36.8,49.6,38.2,50.2z"/>
										<path fill="#A4C639" d="M47.6,41.4l2.9-2.1c0.1,0,0.1-0.2,0.1-0.3l0,0c0-0.1-0.2-0.1-0.3-0.1l-2.9,2.1
											c-2.2-0.8,1.8,2.7,1.8,2.7C48.7,43,48.2,42.1,47.6,41.4z"/>
										<path fill="#262626" d="M49.3,44.3l-15.7-7c-0.3,0.8,0.1,0.8,0,1.5c0,0,0,0.1,0,0.1c-0.2,0.8-0.3,1.7-0.1,2.6
											c0.2,0.6,0.7,1.1,1.3,1.4l1.7,0.7c1.1,0.5,2.4,0.2,3.7-0.9c0.6-0.4,1.1-0.9,1.6-0.6c0.5,0.2,0.6,0.9,0.6,1.6
											c0,1.7,0.7,2.8,1.8,3.3l1.7,0.7c0.6,0.3,1.3,0.3,1.9,0c0.8-0.3,1.4-1.1,1.9-1.7c0,0,0.1-0.1,0.1-0.1
											c0.4-0.5,0.7-0.1,1.1-1L49.3,44.3L49.3,44.3z M39.6,42c-1,0.8-1.8,1.1-2.6,0.7L35.2,42c-0.4-0.1-0.6-0.4-0.7-0.8
											c-0.3-0.8,0-2,0.3-2.7l5.7,2.5C40.2,41.4,39.9,41.7,39.6,42z M47.5,47c-0.3,0.2-0.7,0.1-1.1,0l-1.7-0.7
											c-1.5-0.6-1.3-2.8-1.1-3.8l5.7,2.5C48.9,45.6,48.3,46.6,47.5,47L47.5,47z"/>
										<path fill="#383838" d="M50.4,44.3l-15.8-7c-0.2-0.1-0.7-0.3-0.9,0.1L50.9,45C51.1,44.6,50.6,44.4,50.4,44.3z"/>
									</g>
								</g>
							</g>
							<g>
								<path fill="#35141F" d="M39.4,34.1c2-0.3,4-0.1,5.8,0.9c1.1,0.6,2,1.3,2.8,2.2c2.5,2.9,3,6.9,1.3,10.4c-1,2.1-2.8,3.7-5,4.5
									c-0.4,0.1-0.8,0.3-1.2,0.4l0,0l0,0c-0.2,0-0.4,0.1-0.6,0.1c-1.4,0.2-2.7,0.2-4-0.2c-0.3-0.1-0.7-0.2-1-0.3
									c-0.3-0.1-0.5-0.2-0.8-0.4c-0.2-0.1-0.3-0.2-0.5-0.3c-0.3-0.1-0.6-0.3-0.8-0.5c-0.2-0.1-0.4-0.3-0.5-0.4
									c-1-0.9-1.8-1.9-2.4-3.1c-0.2-0.4-0.4-0.8-0.5-1.3c-0.7-2.3-0.5-4.8,0.6-6.9C34,36.5,36.4,34.7,39.4,34.1L39.4,34.1z
									 M39.2,33.4c-3.2,0.5-5.8,2.5-7.3,5.4c-1.2,2.4-1.4,5.1-0.7,7.5c0.1,0.5,0.3,0.9,0.5,1.4c0.6,1.2,1.4,2.4,2.5,3.3
									c0.2,0.2,0.4,0.3,0.6,0.5c0.3,0.2,0.6,0.4,0.9,0.6c0.2,0.1,0.4,0.2,0.6,0.3c0.3,0.1,0.5,0.3,0.9,0.4
									c0.4,0.1,0.7,0.2,1.1,0.4c1.4,0.4,2.9,0.5,4.4,0.2c0.2,0,0.4-0.1,0.6-0.1c0.4-0.1,0.9-0.3,1.3-0.4c2.3-0.9,4.2-2.6,5.4-4.9
									c1.9-3.7,1.3-8.1-1.4-11.2c-0.8-1-1.9-1.8-3-2.3C43.5,33.3,41.4,33,39.2,33.4L39.2,33.4z"/>
							</g>
						</g>
						<path opacity="0.17" fill="#B77B93" enable-background="new    " d="M37.4,43.7c-0.4-0.2-0.7-0.4-1-0.7
							c-1.7-1.4-2.3-3.9-1.3-6c1.2-2.5,4.2-3.5,6.7-2.3c0.6,0.3,1.1,0.7,1.5,1.2c1.3,1.5,1.7,3.7,0.8,5.5
							C42.9,43.9,39.9,44.9,37.4,43.7z"/>
						<path fill="#FFF9F8" d="M41,35.7c0,0-0.1-0.1-0.1-0.1c-0.2-0.2-0.3-0.4-0.2-0.7c0.1-0.3,0.5-0.4,0.8-0.3
							c0.1,0,0.1,0.1,0.2,0.1c0.2,0.2,0.2,0.4,0.1,0.7C41.7,35.7,41.3,35.8,41,35.7z"/>
						<path fill="#FFF9F8" d="M37.8,37.5c-0.1,0-0.2-0.1-0.3-0.2c-0.4-0.4-0.6-1-0.3-1.5c0.3-0.6,1.1-0.9,1.7-0.6
							c0.1,0.1,0.3,0.2,0.4,0.3c0.3,0.4,0.4,1,0.2,1.4C39.3,37.6,38.5,37.8,37.8,37.5z"/>
						<g>
							
								<rect x="28.8" y="51.9" transform="matrix(0.4378 -0.8991 0.8991 0.4378 -42.2404 64.0088)" fill="#491D2A" width="2.6" height="27.9"/>
						</g>
						<g>
							<path fill="#491D2A" d="M31.9,68.9c-0.5,0.1-1,0-1.5-0.2l-2.8-1.4c-1.2-0.6-1.7-2.1-1.1-3.2c0.6-1.2,2.1-1.7,3.2-1.1l2.8,1.4
								c1.2,0.6,1.7,2.1,1.1,3.2C33.3,68.3,32.6,68.7,31.9,68.9z"/>
						</g>
						<g>
							<path fill="#D0C9AF" d="M52.8,33.7c-0.1,0-0.2,0-0.3,0c-0.2-0.1-0.3-0.4-0.2-0.6l1.7-3.7c0.1-0.2,0.4-0.3,0.6-0.2
								c0.2,0.1,0.3,0.4,0.2,0.6l-1.7,3.7C53,33.5,52.9,33.6,52.8,33.7z"/>
						</g>
						<g>
							<path fill="#BFB8A1" d="M51.1,37.1c-0.1,0-0.2,0-0.3,0c-0.2-0.1-0.3-0.4-0.2-0.6l1.6-3.4c0.1-0.2,0.4-0.3,0.6-0.2
								c0.2,0.1,0.3,0.4,0.2,0.6l-1.6,3.4C51.4,37,51.3,37.1,51.1,37.1z"/>
						</g>
					</g>
				</g>
				<g>
					<path fill="#A4C639" d="M16.5,53.6c0.1-0.2,0.3-0.4,0.4-0.6l2.7-5.4l-6-3l-2.7,5.4c-0.9,1.7-0.2,3.7,1.5,4.6
						C13.8,55.2,15.5,54.8,16.5,53.6L16.5,53.6z"/>
					<path fill="#FFF9F8" d="M22,35.2c1.7,0.9,2.3,2.9,1.5,4.6l0,0L20,46.9l-3.4-1.7l0.3-0.7l4.6-9.1L22,35.2z"/>
					
						<rect x="18.7" y="42.4" transform="matrix(0.4505 -0.8928 0.8928 0.4505 -29.081 41.4142)" fill="#491D2A" width="0.8" height="3.8"/>
					<path fill="#D0C9AF" d="M17.4,36.8L17.4,36.8c0.9-1.7,2.9-2.4,4.6-1.5l0,0l-5.1,10.1l-3-1.5L17.4,36.8z"/>
					
						<rect x="16.5" y="41.3" transform="matrix(0.4505 -0.8928 0.8928 0.4505 -30.4107 39.9349)" fill="#FFF9F8" width="1.5" height="6.8"/>
					
						<rect x="16.4" y="42.3" transform="matrix(0.4505 -0.8928 0.8928 0.4505 -31.5816 40.0482)" fill="#859F25" width="0.8" height="6.8"/>
					
						<rect x="15.9" y="41.2" transform="matrix(0.4505 -0.8928 0.8928 0.4505 -29.3484 38.073)" fill="#491D2A" width="0.8" height="3.4"/>
				</g>
				<g>
					<path fill="#A4C639" d="M55,69.9c0.1-0.2,0.3-0.4,0.4-0.6l2.7-5.4L52,60.8l-2.7,5.4c-0.9,1.7-0.2,3.7,1.5,4.6
						C52.3,71.6,54,71.2,55,69.9L55,69.9z"/>
					<path fill="#FFF9F8" d="M60.6,51.5c1.7,0.9,2.3,2.9,1.5,4.6l0,0l-3.6,7.1l-3.4-1.7l0.3-0.7l4.6-9.1L60.6,51.5z"/>
					
						<rect x="57.3" y="58.8" transform="matrix(0.4505 -0.8928 0.8928 0.4505 -22.4946 84.803)" fill="#491D2A" width="0.8" height="3.8"/>
					<path fill="#D0C9AF" d="M56,53.1L56,53.1c0.9-1.7,2.9-2.4,4.6-1.5l0,0l-5.1,10.1l-3-1.5L56,53.1z"/>
					
						<rect x="55" y="57.6" transform="matrix(0.4505 -0.8928 0.8928 0.4505 -23.8244 83.3238)" fill="#FFF9F8" width="1.5" height="6.8"/>
					
						<rect x="54.9" y="58.6" transform="matrix(0.4505 -0.8928 0.8928 0.4505 -24.9952 83.4371)" fill="#859F25" width="0.8" height="6.8"/>
					
						<rect x="54.4" y="57.5" transform="matrix(0.4505 -0.8928 0.8928 0.4505 -22.7621 81.4619)" fill="#491D2A" width="0.8" height="3.4"/>
				</g>
			</g>
		</g>
	</g>
</g>
<linearGradient id="SVGID_7_" gradientUnits="userSpaceOnUse" x1="12.9181" y1="32.0434" x2="12.9181" y2="225.8781">
	<stop  offset="0" style="stop-color:#FF8CC4"/>
	<stop  offset="0.5824" style="stop-color:#FF7492"/>
	<stop  offset="1" style="stop-color:#FFAF7D"/>
</linearGradient>
<polygon display="none" fill="url(#SVGID_7_)" points="438.8,30.6 -413.2,30.6 -413.8,293.8 439.6,293.8 "/>
</svg>
