<?xml version="1.0" encoding="utf-8"?>
<!-- Generator: Adobe Illustrator 21.0.1, SVG Export Plug-In . SVG Version: 6.00 Build 0)  -->
<svg version="1.1" id="Layer_1" xmlns="http://www.w3.org/2000/svg" xmlns:xlink="http://www.w3.org/1999/xlink" x="0px" y="0px"
	 viewBox="0 0 87.3 87.3" style="enable-background:new 0 0 87.3 87.3;" xml:space="preserve">
<style type="text/css">
	.st0{fill:#2CAB9F;}
	.st1{fill:#D8D8D2;}
	.st2{fill:#F2C6A1;}
	.st3{fill:#BC2F3D;}
	.st4{fill:#FECE08;}
	.st5{fill:#F3A27A;}
	.st6{clip-path:url(#SVGID_2_);}
	.st7{fill:#89684D;}
	.st8{fill:#414042;}
	.st9{fill:#EA7E78;}
	.st10{fill:#FFFFFF;}
	.st11{fill:#EE4500;}
	.st12{fill:#FEA708;}
	.st13{fill:url(#SVGID_3_);}
	.st14{fill:#92A9ED;}
	.st15{fill:#5F70AF;}
	.st16{fill:#A3A3A3;}
	.st17{fill:#C1C1C1;}
	.st18{fill:#A3A2A2;}
	.st19{fill:#E7E3E1;}
	.st20{clip-path:url(#SVGID_5_);fill:#BEBBBB;}
	.st21{clip-path:url(#SVGID_7_);fill:#BEBBBB;}
	.st22{clip-path:url(#SVGID_9_);fill:#BEBBBB;}
	.st23{clip-path:url(#SVGID_11_);fill:#BEBBBB;}
	.st24{clip-path:url(#SVGID_13_);fill:#BEBBBB;}
	.st25{clip-path:url(#SVGID_15_);fill:#BEBBBB;}
	.st26{fill:#58595B;}
	.st27{fill:#E2B436;}
	.st28{clip-path:url(#SVGID_17_);}
	.st29{fill:#36313B;}
	.st30{fill:#231E2B;}
	.st31{fill:#47414D;}
	.st32{fill:#273E42;}
	.st33{fill:#355860;}
	.st34{fill:#49727C;}
	.st35{fill:#3B2130;}
	.st36{fill:#5895A5;}
	.st37{fill:#E8BE9B;}
	.st38{fill:#C7936B;}
	.st39{fill:#69ACC4;}
	.st40{fill:#4FAB59;}
	.st41{fill:#915620;}
	.st42{fill:#AD661F;}
	.st43{fill:#A6644B;}
	.st44{fill:#C2751D;}
	.st45{fill:#CF8934;}
	.st46{fill:url(#SVGID_18_);}
	.st47{clip-path:url(#SVGID_20_);}
	.st48{fill:url(#hair_1_);}
	.st49{fill:url(#SVGID_21_);}
	.st50{opacity:0.3;fill:#A55311;enable-background:new    ;}
	.st51{opacity:0.2;fill:#FFA383;enable-background:new    ;}
	.st52{opacity:0.61;fill:#FFB273;enable-background:new    ;}
	.st53{opacity:0.4;fill:#FFB273;enable-background:new    ;}
	.st54{fill:url(#axe_1_);}
	.st55{opacity:0.3;fill:#676E7A;enable-background:new    ;}
	.st56{opacity:0.25;fill:#FFFFFF;enable-background:new    ;}
	.st57{opacity:0.5;fill:#FFFFFF;enable-background:new    ;}
	.st58{fill:#A8B5C1;}
	.st59{opacity:0.35;fill:#FFFFFF;enable-background:new    ;}
	.st60{fill:#FFC19F;}
	.st61{opacity:0.8;fill:#FFC19F;enable-background:new    ;}
	.st62{fill:url(#arm_1_);}
	.st63{opacity:0.6;fill:#FFC19F;enable-background:new    ;}
	.st64{fill:url(#SVGID_22_);}
	.st65{fill:url(#SVGID_23_);}
	.st66{fill:url(#SVGID_24_);}
	.st67{fill:url(#pants_1_);}
	.st68{opacity:0.2;fill:#1D280D;enable-background:new    ;}
	.st69{opacity:0.3;fill:#1D280D;enable-background:new    ;}
	.st70{fill:url(#SVGID_25_);}
	.st71{opacity:0.75;fill:#893700;enable-background:new    ;}
	.st72{fill:url(#SVGID_26_);}
	.st73{fill:url(#SVGID_27_);}
	.st74{fill:url(#SVGID_28_);}
	.st75{fill:url(#arm_2_);}
	.st76{fill:url(#SVGID_29_);}
	.st77{fill:url(#SVGID_30_);}
	.st78{fill:url(#SVGID_31_);}
	.st79{fill:url(#shirt_1_);}
	.st80{opacity:0.15;fill:url(#shadow_1_);enable-background:new    ;}
	.st81{fill:url(#belt_1_);}
	.st82{opacity:0.35;}
	.st83{fill:url(#SVGID_32_);}
	.st84{fill:url(#SVGID_33_);}
	.st85{opacity:0.8;}
	.st86{fill:url(#SVGID_34_);}
	.st87{fill:url(#SVGID_35_);}
	.st88{opacity:0.4;fill:url(#SVGID_36_);enable-background:new    ;}
	.st89{fill:url(#SVGID_37_);}
	.st90{opacity:0.6;fill:#FFEB78;enable-background:new    ;}
	.st91{opacity:0.75;fill:#FFEB78;enable-background:new    ;}
	.st92{fill:url(#SVGID_38_);}
	.st93{fill:url(#SVGID_39_);}
	.st94{fill:url(#SVGID_40_);}
	.st95{opacity:0.4;fill:#BF1604;enable-background:new    ;}
	.st96{fill:#541918;}
	.st97{fill:#9B071C;}
	.st98{fill:#FF2B15;}
	.st99{fill:url(#SVGID_41_);}
	.st100{fill:#A55311;}
	.st101{fill:#471A08;}
	.st102{fill:#FCC79A;}
	.st103{opacity:0.69;fill:#FFD3AB;enable-background:new    ;}
	.st104{fill:url(#SVGID_42_);}
	.st105{fill:url(#SVGID_43_);}
	.st106{fill:url(#SVGID_44_);}
	.st107{opacity:0.25;fill:url(#SVGID_45_);enable-background:new    ;}
	.st108{opacity:0.25;fill:#FC8460;enable-background:new    ;}
	.st109{fill:url(#SVGID_46_);}
	.st110{opacity:0.3;fill:url(#SVGID_47_);enable-background:new    ;}
	.st111{clip-path:url(#SVGID_49_);}
	.st112{fill:url(#SVGID_50_);}
	.st113{fill:url(#axe_2_);}
	.st114{fill:url(#arm_3_);}
	.st115{fill:url(#SVGID_51_);}
	.st116{fill:url(#SVGID_52_);}
	.st117{fill:url(#SVGID_53_);}
	.st118{fill:url(#SVGID_54_);}
	.st119{clip-path:url(#SVGID_56_);}
	.st120{fill:#FCC78C;}
	.st121{fill:url(#SVGID_57_);}
	.st122{fill:#AC7930;}
	.st123{fill:#1A171B;}
	.st124{fill:#EDEDEE;}
	.st125{fill:#939292;}
	.st126{fill:#C7D5DF;}
	.st127{fill:#98B7C9;}
	.st128{fill:url(#SVGID_58_);}
	.st129{fill:url(#SVGID_59_);}
	.st130{fill:url(#SVGID_60_);}
	.st131{fill:url(#SVGID_61_);}
	.st132{fill:url(#SVGID_62_);}
	.st133{fill:url(#SVGID_63_);}
	.st134{fill:url(#SVGID_64_);}
	.st135{fill:url(#SVGID_65_);}
	.st136{fill:url(#SVGID_66_);}
	.st137{fill:url(#SVGID_67_);}
	.st138{fill:url(#SVGID_68_);}
	.st139{fill:#EB3D00;}
	.st140{fill:#835527;}
	.st141{fill:#D0995B;}
	.st142{fill:#E4AC00;}
	.st143{fill:#553F24;}
	.st144{fill:#93723A;}
	.st145{fill:#B9391A;}
	.st146{fill:#D99C09;}
	.st147{fill:#FFCC00;}
	.st148{fill:#9C9D9F;}
	.st149{fill:#B1B3B4;}
	.st150{fill:#C6C7C9;}
	.st151{fill:#D9DADB;}
	.st152{fill:#87888A;}
	.st153{fill:#A65C44;}
	.st154{fill:url(#SVGID_69_);}
	.st155{fill:url(#SVGID_70_);}
	.st156{fill:#2A2C2E;}
	.st157{clip-path:url(#SVGID_72_);}
	.st158{fill:#FFF200;}
	.st159{fill:#FFE300;}
	.st160{fill:#FBB040;}
	.st161{fill:#FC873E;}
	.st162{fill:#FB983F;}
	.st163{fill:url(#SVGID_73_);}
	.st164{fill:#754629;}
	.st165{clip-path:url(#SVGID_75_);fill:#ED1C24;}
	.st166{clip-path:url(#SVGID_77_);fill:#FB983F;}
	.st167{clip-path:url(#SVGID_79_);fill:#FB983F;}
	.st168{clip-path:url(#SVGID_81_);}
	.st169{fill:#ED1C24;}
	.st170{fill:#FEFFFF;}
	.st171{fill:#B3151B;}
	.st172{fill:#ED5C62;}
	.st173{opacity:0.2;fill:#231F20;enable-background:new    ;}
	.st174{opacity:0.4;fill:#231F20;enable-background:new    ;}
	.st175{fill:#424345;}
	.st176{fill:#FFE3C2;}
	.st177{opacity:0.1;fill:#231F20;enable-background:new    ;}
	.st178{fill:#303842;}
	.st179{fill:#363F4A;}
	.st180{clip-path:url(#SVGID_83_);fill:#FFEEDB;}
	.st181{clip-path:url(#SVGID_85_);fill:#2A2C2E;}
	.st182{opacity:0.2;clip-path:url(#SVGID_87_);fill:#231F20;enable-background:new    ;}
	.st183{clip-path:url(#SVGID_89_);}
	.st184{fill:#08E4FF;stroke:#08E4FF;stroke-width:0.1289;stroke-miterlimit:10;}
	.st185{fill:#F5F38E;}
	.st186{fill:#90C53F;}
	.st187{clip-path:url(#SVGID_91_);}
	.st188{fill:#754444;}
	.st189{fill:#5E3636;}
	.st190{fill:#7A5E27;}
	.st191{fill:#D1AB65;}
	.st192{fill:#A78442;}
	.st193{fill:#FCCFA4;}
	.st194{fill:#C78E65;}
	.st195{fill:#DDDDDC;}
	.st196{fill:#3B212A;}
	.st197{fill:#24211D;}
	.st198{fill:#45413F;}
	.st199{fill:#968064;}
	.st200{fill:#706151;}
	.st201{fill:url(#SVGID_92_);}
	.st202{fill:#211D18;}
	.st203{fill:#352E27;}
	.st204{display:none;}
	.st205{display:inline;}
	.st206{fill:#A8A8A7;}
	.st207{fill:#3C3C3B;}
	.st208{fill:#C59221;}
	.st209{fill:#FDC800;}
	.st210{display:inline;fill:#FFFFFF;}
	.st211{fill:#949393;}
	.st212{fill:#DBE8B0;}
	.st213{clip-path:url(#SVGID_94_);}
	.st214{opacity:0.3;fill:#808080;enable-background:new    ;}
	.st215{display:none;fill:#4B4B63;}
	.st216{fill:#4F3927;}
	.st217{fill:#5F442D;}
	.st218{fill:#6C5236;}
	.st219{fill:#976F44;}
	.st220{fill:#AC824E;}
	.st221{fill:#826544;}
	.st222{fill:#6E6E6E;}
	.st223{fill:#595959;}
	.st224{fill:#545454;}
	.st225{fill:#424242;}
	.st226{fill:#9C9C9C;}
	.st227{fill:#6E8091;}
	.st228{fill:#7B8B9B;}
	.st229{opacity:0.25;fill:#696969;enable-background:new    ;}
	.st230{fill:#A4C639;}
	.st231{fill:#FFC639;}
	.st232{fill:#F1A530;}
	.st233{fill:none;}
	.st234{opacity:0.29;fill:#383838;}
	.st235{opacity:0.4;fill:#FFFFFF;enable-background:new    ;}
	.st236{opacity:0.8;fill:#FFFFFF;enable-background:new    ;}
	.st237{fill:#859F25;}
	.st238{fill:#D78507;}
	.st239{fill:#262626;}
	.st240{fill:#BFD773;}
	.st241{fill:#FBDD57;}
	.st242{clip-path:url(#SVGID_96_);fill:#F4B711;}
	.st243{fill:#F4B711;}
	.st244{clip-path:url(#SVGID_98_);fill:#F4B711;}
	.st245{fill:#F4BB3B;}
	.st246{fill:#383838;}
	.st247{fill:#E6E6E6;}
	.st248{fill:#B3B3B3;}
	.st249{fill:#7D7D7D;}
	.st250{fill:#2F2F2F;}
	.st251{fill:#F2D850;}
	.st252{clip-path:url(#SVGID_100_);}
	.st253{fill:#C62B12;}
	.st254{fill:#B3B729;}
	.st255{fill:#A3A321;}
	.st256{fill:#C8D340;}
	.st257{opacity:0.6;fill:#7F7C13;enable-background:new    ;}
	.st258{fill:#F6D88C;}
	.st259{fill:url(#SVGID_101_);}
	.st260{fill:#1D1D1B;}
	.st261{fill:#C96317;}
	.st262{fill:#B74C1D;}
	.st263{fill:#C91111;}
	.st264{fill:#F6F8F9;}
	.st265{fill:#F97450;}
	.st266{fill:#3D8699;}
	.st267{fill:#FC7800;}
	.st268{fill:#7A7A74;}
	.st269{opacity:0.6;fill:#7F2713;enable-background:new    ;}
	.st270{fill:#F5D78B;}
	.st271{fill:#F5D78C;}
	.st272{fill:#F09453;}
	.st273{fill:#EF8E4D;}
	.st274{fill:#F1A15E;}
	.st275{fill:#EF8A4D;}
	.st276{fill:#EF8848;}
	.st277{fill:#F3C078;}
	.st278{fill:#F2B26F;}
	.st279{fill:#F19D5B;}
	.st280{fill:#F1A562;}
	.st281{fill:#F09A58;}
	.st282{fill:#EE7F41;}
	.st283{fill:url(#SVGID_102_);}
	.st284{fill:none;stroke:url(#SVGID_103_);stroke-width:1.9316;stroke-miterlimit:10;}
	.st285{clip-path:url(#SVGID_105_);}
	.st286{fill:#547FA1;}
	.st287{fill:#D0BF90;}
	.st288{fill:#E5D6AC;}
	.st289{fill:#DBC99A;}
	.st290{fill:#DCC6A2;}
	.st291{fill:url(#Кофта_1_);}
	.st292{fill:#FFBD7B;}
	.st293{fill:#CCAF83;}
	.st294{fill:#DBC5A1;}
	.st295{fill:#D3B991;}
	.st296{fill:#3C3022;}
	.st297{fill:url(#SVGID_106_);}
	.st298{fill:#FF9E85;}
	.st299{fill:#292929;}
	.st300{fill:#2C3C53;}
	.st301{fill:none;stroke:url(#SVGID_107_);stroke-width:1.9316;stroke-miterlimit:10;}
	.st302{fill:#FFFFFF;stroke:url(#SVGID_108_);stroke-width:1.9311;stroke-miterlimit:10;}
	.st303{clip-path:url(#SVGID_110_);}
	.st304{fill:#363D67;}
	.st305{fill:#DCA54C;}
	.st306{fill:#FEFEFE;}
	.st307{fill:#F5183F;}
	.st308{fill:#FDCCBB;}
	.st309{fill:#FDFDFC;}
	.st310{fill:#FDFDFB;}
	.st311{fill:#F4183F;}
	.st312{fill:#F31840;}
	.st313{fill:#F4173F;}
	.st314{fill:#DBA44C;}
	.st315{fill:#FCF9F9;}
	.st316{fill:#FCFCFA;}
	.st317{fill:#DAA44C;}
	.st318{fill:#FBF5F6;}
	.st319{fill:#FCF6F6;}
	.st320{fill:#FBFAF7;}
	.st321{fill:#DD1F47;}
	.st322{fill:#FAF5F6;}
	.st323{fill:#CE9D54;}
	.st324{fill:#F8ECEF;}
	.st325{fill:#FCF6F7;}
	.st326{fill:#D5A254;}
	.st327{fill:#727693;}
	.st328{fill:#E91B43;}
	.st329{fill:#F5F5F6;}
	.st330{fill:#AFB6C1;}
	.st331{fill:#D6A14E;}
	.st332{fill:#F7F2F3;}
	.st333{fill:#363C67;}
	.st334{fill:#353C67;}
	.st335{fill:#F31C42;}
	.st336{fill:#EAD2DA;}
	.st337{fill:#DA1E45;}
	.st338{fill:#373E67;}
	.st339{fill:#FCCCB9;}
	.st340{fill:#3D4166;}
	.st341{fill:#FBCBB8;}
	.st342{fill:#F6CAB6;}
	.st343{fill:#FBC3CD;}
	.st344{fill:#FBDCE1;}
	.st345{fill:#ED1D44;}
	.st346{fill:#ECEBEE;}
	.st347{fill:#E1234A;}
	.st348{fill:#DED3DB;}
	.st349{fill:#DD2047;}
	.st350{fill:#D5CCD6;}
	.st351{fill:#F5DDE3;}
	.st352{fill:#383E67;}
</style>
<g>
	<g>
		<g>
			<g>
				<defs>
					<path id="SVGID_90_" d="M73.4-34.6c-0.7,0-0.2,2.2-0.2,2.6c-0.2,5.2-5,7.6-7.7,11.8C60.2-11.4,50.7-5.6,39.8-5.6
						C23.2-5.6,9.6-19.2,9.6-35.8s16.2-50.3,32.9-50.3c16.3,0,44.7-1.3,36.6,50.3C79-35.4,73.8-34.6,73.4-34.6z"/>
				</defs>
				<clipPath id="SVGID_2_">
					<use xlink:href="#SVGID_90_"  style="overflow:visible;"/>
				</clipPath>
				<g class="st6">
					<polygon class="st190" points="63,17.6 62.8,18.9 61.4,18.9 61.2,17.7 					"/>
					<polygon class="st190" points="19.3,17.6 19.5,18.9 21.1,18.9 21.3,17.7 					"/>
					<polygon class="st190" points="57.9,17.6 57.7,18.8 56.2,18.8 56,17.6 					"/>
					<polygon class="st190" points="24.5,17.6 24.7,18.8 26.1,18.8 26.4,17.6 					"/>
					<polygon class="st191" points="64.9,16.7 65.2,17.2 54.3,17.2 55.1,16.4 					"/>
					<polygon class="st191" points="17.5,16.7 17.3,17.2 28.1,17.2 27.2,16.4 					"/>
					<polygon class="st192" points="65,18 65.2,17.2 54.3,17.2 54.6,18.1 					"/>
					<polygon class="st192" points="17.4,18 17.3,17.2 28.1,17.2 27.9,18.1 					"/>
					<polygon class="st193" points="58.6,13.5 62.8,15.8 64.4,16.1 64.4,17 59.7,16.9 58.1,16.7 56.6,16.9 55.4,16.8 56.1,13 					
						"/>
					<polygon class="st193" points="23.7,13.5 19.6,15.8 18,16.1 17.9,17 22.6,16.9 24.3,16.7 25.8,16.9 27,16.8 26.2,13 					"/>
					<path class="st194" d="M58.6,13.5l4,2.2c-1.9,0-4.3,0-7.1,0L56,13L58.6,13.5z"/>
					<path class="st194" d="M23.7,13.5l-4,2.2c1.9,0,4.3,0,7.1,0L26.2,13L23.7,13.5z"/>
					<polygon class="st190" points="61.6,17 62.4,15.8 63.1,15.8 62.5,15.3 62,15.3 61,17 					"/>
					<polygon class="st190" points="20.8,17 19.9,15.8 19.2,15.8 19.8,15.3 20.4,15.3 21.4,17 					"/>
					<path class="st202" d="M30.6-19.6l19.7-0.1l-0.9,2.8C50.4-16,60.6,6.7,64.1,15c-2.3,0.1-6.9,0.3-12.4,0.3l0,0
						c0-0.4-0.2-0.9-0.5-0.9c-0.3-0.1-0.5,0.3-0.5,0.7c0,0.1,0,0.2,0,0.2c-1.3,0-2.5,0-3.8,0c0-0.6-0.3-1-0.7-1.1
						c-0.4-0.1-0.7,0.4-0.7,1c0,0.1,0,0.1,0,0.2h-0.4c0-0.3-0.2-0.6-0.4-0.7c-0.2-0.1-0.4,0.2-0.5,0.6l0,0c-10,0-20.6-0.1-25.3-0.5
						c4-9.9,10.2-28,12.3-31.5L30.6-19.6z"/>
					<path class="st203" d="M49.5-17.4l-0.1,0.5c0.2,0.1,0.6,0.9,1.1,1.9L42-15.4l-0.3,1.1l-0.9-0.2L43,1.3l-4.1,0.5L39-0.9
						l-2.8-1.2L39-14.6L37.7-15l0.1-0.6l0,0l-7.3,0.4c0.3-0.6,0.5-1.1,0.7-1.4l-0.1-0.7l6.8,0.1h0.3l0.1-0.5l1.8,0.1l0.1-0.3
						l2.1,0.1l-0.1,0.5L49.5-17.4z"/>
					<path class="st203" d="M53.1,15.3c-0.5,0-0.9,0-1.4,0l0,0c0-0.4-0.2-0.9-0.5-0.9c-0.3-0.1-0.5,0.3-0.5,0.7c0,0.1,0,0.2,0,0.2
						c-1,0-1.8,0-2.8,0L46.4-3.2L53.1,15.3L53.1,15.3z M43.4,15.4c-1.1,0-2,0-3.1,0l0.9-7.8L43.4,15.4L43.4,15.4z M36.2,15.4
						c-1.3,0-2.5,0-3.7,0l1.8-16.4L36.2,15.4L36.2,15.4z M29.6,15.3l3.1-27.7L25,15.2C26.4,15.2,28,15.3,29.6,15.3z"/>
					<polygon class="st199" points="39.3,-16.3 36.8,-2.5 39.1,-2.1 39,0.6 42.5,0.7 40.7,-15.8 					"/>
					<g class="st204">
						<g class="st205">
							<polygon class="st197" points="37.6,-12.2 44,4.2 46.9,2.6 40.8,-13.4 							"/>
							<polygon class="st207" points="45.4,3.5 46.9,2.6 40.8,-13.4 39.3,-12.8 							"/>
						</g>
						<polygon class="st210" points="43.8,-1 44.7,-0.7 44.2,0.2 43.4,0 						"/>
						<polygon class="st210" points="44.6,1.2 45.6,1.5 45.1,2.4 44.2,2.1 						"/>
					</g>
				</g>
			</g>
		</g>
	</g>
</g>
<g>
	<circle class="st212" cx="39.4" cy="56.5" r="30.1"/>
	<g>
		<g>
			<defs>
				<path id="SVGID_93_" d="M70.6,54c-0.7,0-1.2,3.4-1.2,3.8c-0.6,16.1-13.8,28.9-30,28.9c-16.6,0-30.1-13.5-30.1-30.1
					S25.5,6.5,42.1,6.5c16.3,0,42.8-7.9,34.7,43.6C76.8,50.5,71,54,70.6,54z"/>
			</defs>
			<clipPath id="SVGID_3_">
				<use xlink:href="#SVGID_93_"  style="overflow:visible;"/>
			</clipPath>
			<g id="Layer_10_1_" style="clip-path:url(#SVGID_3_);">
				<path class="st214" d="M84.2,32.1c-0.2,0-0.3,0.2-0.4,0.3v6.8C83.6,39,83.3,39,83.1,39c-0.8,0-1.5,0.5-1.5,1.1
					c0,0.6,0.7,1.1,1.5,1.1c0.8,0,1.5-0.5,1.5-1.1v-7.7C84.5,32.2,84.4,32.1,84.2,32.1z"/>
				<path class="st216" d="M43.8,77.3H23.9c0,0.8,0.7,1.5,1.5,1.5h19.8c0.8,0,1.5-0.7,1.5-1.5H43.8z"/>
				<path class="st217" d="M45.2,75.8H25.4c-0.8,0-1.5,0.7-1.5,1.5h22.8C46.7,76.4,46.1,75.8,45.2,75.8L45.2,75.8z"/>
				<path class="st218" d="M86.4,103.7h10.7V87.3c-3,2.8-6.6,4.7-10.7,5.4V103.7z"/>
				<path class="st220" d="M67.6,86.9c-4-4-6.2-9.4-6.2-15v31.8h11.4V92.1L67.6,86.9z"/>
				<path class="st218" d="M86.4,58.9v33.8c4-0.7,7.7-2.6,10.7-5.4V58.9H86.4z"/>
				<path class="st218" d="M85.3,92.9v-34h-4.8V93C82.1,93.1,83.7,93.1,85.3,92.9z"/>
				<path class="st218" d="M75.7,92V58.9h-3v31.8C73.7,91.2,74.7,91.6,75.7,92z"/>
				<path class="st221" d="M65.9,58.9h-4.5v13c0,5.6,2.2,11,6.2,15l5.2,5.2V58.9L65.9,58.9L65.9,58.9z"/>
				<polygon class="st221" points="75.7,58.9 75.7,92 75.7,95 80.5,99.8 80.5,93 80.5,58.9 				"/>
				<polygon class="st221" points="85.3,58.9 85.3,92.9 85.3,103.7 86.4,103.7 86.4,92.7 86.4,58.9 				"/>
				<polygon class="st222" points="44.9,104.5 43.8,104.5 40.1,78.7 41.2,78.7 				"/>
				<polygon class="st223" points="46,104.5 44.9,104.5 41.2,78.7 42.3,78.7 				"/>
				<polygon class="st224" points="35.3,78.7 34.2,78.7 34.2,89.4 35.3,90.5 				"/>
				<polygon class="st225" points="36.4,91.6 36.4,78.7 35.3,78.7 35.3,90.5 				"/>
				<polygon class="st222" points="29.4,78.7 28.3,78.7 27,87.7 28,88.7 				"/>
				<polygon class="st223" points="29.4,78.7 28,88.7 29,89.7 30.5,78.7 				"/>
				<rect x="29.4" y="75.7" class="st227" width="3.3" height="8.1"/>
				<polygon class="st228" points="29.4,75.7 26.1,75.7 26.1,83.9 26.1,83.9 29.4,83.9 				"/>
				<rect x="26.1" y="75.7" class="st229" width="6.6" height="1.5"/>
				<rect x="41.2" y="75.7" class="st227" width="3.3" height="8.1"/>
				<polygon class="st228" points="41.2,75.7 37.9,75.7 37.9,83.9 37.9,83.9 41.2,83.9 				"/>
				<rect x="37.9" y="75.7" class="st229" width="6.6" height="1.5"/>
				<path class="st230" d="M42.5,37l2.6-4.5c0.1-0.1,0-0.3-0.1-0.4l0,0c-0.1-0.1-0.3,0-0.4,0.1l-2.6,4.5c-4.2-1.9-9-1.9-13.2,0
					l-2.6-4.5C26,32,25.9,31.9,25.7,32c-0.2,0.1-0.2,0.2-0.1,0.4l2.6,4.5c-4.7,2.3-7.9,6.8-7.9,12h30.1C50.4,43.8,47.2,39.2,42.5,37
					z M28.2,44c-0.8,0-1.4-0.6-1.4-1.4l0,0c0-0.8,0.6-1.4,1.4-1.4c0.8,0,1.4,0.6,1.4,1.4C29.6,43.4,29,44,28.2,44L28.2,44z M42.5,44
					c-0.8,0-1.4-0.6-1.4-1.4l0,0c0-0.8,0.6-1.4,1.4-1.4c0.8,0,1.4,0.6,1.4,1.4C43.9,43.4,43.3,44,42.5,44L42.5,44L42.5,44z"/>
				<path class="st231" d="M15.5,50.8c-1.8,0-3.3,1.5-3.3,3.3c0,0,0,0,0,0l0,0v7.7h3.7v-0.7v-9.9L15.5,50.8z"/>
				<rect x="12.2" y="59.6" class="st231" width="3.7" height="0.7"/>
				<path class="st232" d="M18.8,54.1L18.8,54.1c0-1.9-1.5-3.3-3.3-3.3l0,0v11h3.3V54.1z"/>
				<rect x="12.2" y="60.3" class="st232" width="6.6" height="1.5"/>
				<path class="st233" d="M41.5,44.8h2.6c0.5,0,1.1-0.2,1.4-0.6c0.9-0.9,1.1-2.6,1.2-3.7h-9C38.1,41.9,39.2,44.8,41.5,44.8z"/>
				<path class="st233" d="M25,44.2c0.4,0.4,0.9,0.6,1.4,0.6h2.7c1.2,0,2.3-0.9,3.1-2.5c0.3-0.6,0.5-1.2,0.7-1.9h-9
					C24,41.5,24.2,43.2,25,44.2z"/>
				<path class="st233" d="M41,42.6c0,0.8,0.6,1.4,1.4,1.4c0.8,0,1.4-0.6,1.4-1.4c0-0.5-0.3-1-0.7-1.2h-1.4
					C41.3,41.6,41,42.1,41,42.6z"/>
				<path class="st233" d="M26.8,42.6c0,0.8,0.6,1.4,1.4,1.4c0.8,0,1.4-0.6,1.4-1.4c0-0.5-0.3-1-0.7-1.2h-1.4
					C27,41.6,26.8,42.1,26.8,42.6z"/>
				<path class="st230" d="M48.7,42.7c-0.2,1.2-0.7,2.3-1.5,3.1c-0.8,0.9-1.9,1.3-3.1,1.3h-2.7c-1.5,0-3.6-0.7-5-3.7
					c-0.4-0.9-0.8-1.3-1.1-1.3c-0.3,0-0.7,0.5-1,1.3c-1.5,3.1-3.6,3.7-5,3.7h-2.7c-1.2,0-2.3-0.4-3.1-1.3c-0.8-0.9-1.3-2-1.5-3.1
					c-1.1,1.9-1.7,4-1.7,6.2h30.1C50.4,46.8,49.8,44.6,48.7,42.7z"/>
				<path class="st230" d="M42.5,37l2.6-4.5c0.1-0.1,0-0.3-0.1-0.4l0,0c-0.1-0.1-0.3,0-0.4,0.1l-2.6,4.5c-4.2-1.9-9-1.9-13.2,0
					l-2.6-4.5C26,32,25.9,31.9,25.7,32c-0.2,0.1-0.2,0.2-0.1,0.4l2.6,4.5c-1.2,0.6-2.3,1.3-3.2,2.1h20.7
					C44.7,38.2,43.6,37.5,42.5,37z"/>
				<path class="st234" d="M44.1,47.1c1.2,0,2.3-0.4,3.1-1.3c0.8-0.9,1.3-2,1.5-3.1c-0.2-0.3-0.4-0.6-0.6-0.9c0,0.1,0,0.2,0,0.2
					c-0.2,1.1-0.6,2.5-1.4,3.4c-0.7,0.7-1.6,1.1-2.5,1h-2.7c-1.8,0-3.3-1.2-4.4-3.3c-0.5-0.9-0.9-1.7-1.8-1.7
					c-0.9,0-1.3,0.8-1.7,1.7c-1,2.2-2.6,3.3-4.4,3.3h-2.7c-1,0-1.9-0.3-2.5-1c-0.9-0.9-1.3-2.3-1.4-3.4c0,0,0-0.1,0-0.2
					c-0.2,0.3-0.4,0.6-0.6,0.9c0.2,1.2,0.7,2.3,1.5,3.1c0.8,0.9,1.9,1.3,3.1,1.3h2.7c1.5,0,3.6-0.7,5-3.7c0.4-0.9,0.7-1.3,1-1.3
					c0.3,0,0.7,0.4,1.1,1.3c1.5,3.1,3.6,3.7,5,3.7"/>
				<path class="st233" d="M25,44.3c0.4,0.4,0.9,0.6,1.4,0.6h2.7c1.2,0,2.3-0.9,3.1-2.5c0.3-0.6,0.5-1.2,0.7-1.9h-9
					C24,41.7,24.2,43.4,25,44.3z"/>
				<path class="st233" d="M41.5,45h2.6c0.5,0,1.1-0.2,1.4-0.6c0.9-0.9,1.1-2.6,1.2-3.7h-9C38.1,42.1,39.2,45,41.5,45z"/>
				<path class="st235" d="M26,40.6l-1.8,1.8c0,0.2,0.1,0.4,0.2,0.6l2.4-2.4H26z"/>
				<path class="st235" d="M23.9,40.6c0,0.4,0.1,0.8,0.1,1.2l1.2-1.2L23.9,40.6z"/>
				<path class="st235" d="M24.8,44c0.1,0.1,0.2,0.2,0.3,0.3c0.4,0.4,0.9,0.6,1.4,0.6h2.7c1.2,0,2.3-0.9,3.1-2.5
					c0.3-0.6,0.5-1.2,0.7-1.9h-4.7L24.8,44z"/>
				<path class="st235" d="M37.7,40.6c0.1,0.4,0.2,0.7,0.3,1.1l1.1-1.1L37.7,40.6z"/>
				<path class="st235" d="M40,40.6l-1.7,1.6c0.1,0.2,0.2,0.3,0.2,0.5l2.1-2.1H40z"/>
				<path class="st235" d="M42.2,40.6l-3.1,3c0.5,0.8,1.4,1.3,2.3,1.3h2.7c0.5,0,1.1-0.2,1.4-0.6c0.9-0.9,1.1-2.6,1.2-3.7L42.2,40.6
					z"/>
				<path class="st236" d="M25.2,40.6L24,41.8c0,0.2,0.1,0.4,0.1,0.6l1.8-1.8L25.2,40.6z"/>
				<path class="st236" d="M26.7,40.6L24.3,43c0.1,0.3,0.3,0.7,0.5,1l3.4-3.4H26.7z"/>
				<path class="st236" d="M39.2,40.6l-1.1,1.1c0.1,0.2,0.2,0.3,0.2,0.5l1.6-1.6L39.2,40.6z"/>
				<path class="st236" d="M40.7,40.6l-2.1,2.1c0.2,0.3,0.3,0.6,0.6,0.9l3-3H40.7z"/>
				<path class="st230" d="M29.4,84.6h-3.2c0.4,1.8,2.2,2.9,4,2.5c1.2-0.3,2.2-1.2,2.5-2.5H29.4z"/>
				<path class="st230" d="M41.2,84.6h-3.2c0.4,1.8,2.2,2.9,4,2.5c1.2-0.3,2.2-1.2,2.5-2.5H41.2z"/>
				<path class="st237" d="M29.4,83.9h-3.3c0,0,0,0,0,0c0,0.2,0,0.5,0.1,0.7h6.4c0-0.2,0.1-0.5,0.1-0.7c0,0,0,0,0,0H29.4z"/>
				<path class="st237" d="M44.5,83.9h-6.6c0,0,0,0,0,0c0,0.2,0,0.5,0.1,0.7h6.4C44.5,84.4,44.5,84.1,44.5,83.9L44.5,83.9z"/>
				<path class="st230" d="M18.8,61.8h-6.6v5.9l0,0c0,0,0,0,0,0c0.1,1.8,1.7,3.2,3.5,3.1c1.6-0.1,3-1.4,3.1-3.1c0,0,0,0,0,0l0,0
					V61.8z"/>
				<path class="st230" d="M67.6,50.9c-0.2,0-0.5-0.1-0.7-0.1H61v6.6h5.9c1.8,0,3.3-1.5,3.3-3.3C70.2,52.5,69.2,51.2,67.6,50.9
					L67.6,50.9z"/>
				<rect x="12.2" y="61.8" class="st237" width="6.6" height="0.7"/>
				<path class="st231" d="M51.8,54.1c0-1.8,1.5-3.3,3.3-3.3l0,0h7.7v3.7h-0.7h-9.9L51.8,54.1z"/>
				<rect x="60.7" y="50.8" class="st231" width="0.7" height="3.7"/>
				<path class="st232" d="M55.2,57.4L55.2,57.4c-1.9,0-3.3-1.5-3.3-3.3l0,0h11v3.3H55.2z"/>
				<rect x="61.4" y="50.8" class="st232" width="1.5" height="6.6"/>
				<rect x="62.9" y="50.8" class="st237" width="0.7" height="6.6"/>
				<rect x="60.7" y="54.1" class="st231" width="0.7" height="3.3"/>
				<rect x="15.5" y="59.6" class="st231" width="3.3" height="0.7"/>
				<path class="st231" d="M36.8,67.4c-8.3,0-15.1-6.8-15.1-15.1h9.7c1,2.1,3,3.3,5.3,3.3c2.3,0,12.7-2.9,13.6-4.9l-15.5,2.9v-2.1
					l-14.7-0.8v22.1c0,1.6,1.3,3,3,3l0,0h24.3c1.6,0,3-1.3,3-3l0,0V58.8C47.8,64,42.6,67.4,36.8,67.4z"/>
				<path class="st238" d="M36.8,55.6c-2.3,0-4.3-1.3-5.3-3.3h-9.8c0,8.3,6.8,15.1,15.1,15.1c5.8,0,11.1-3.3,13.6-8.6v-8
					C49.4,52.8,39.1,55.6,36.8,55.6z"/>
				<path class="st239" d="M40.6,50.8c-1.4,3-4.9,4.2-7.8,2.8C31.6,53,30.6,52,30,50.8h-9.8c0,8.3,6.8,15.1,15.1,15.1
					s15.1-6.8,15.1-15.1H40.6z"/>
				<path class="st230" d="M35.3,54.1c2.3,0,4.3-1.3,5.3-3.3H30C30.9,52.8,33,54.1,35.3,54.1z"/>
				<rect x="28.3" y="35.3" class="st230" width="14" height="1.8"/>
				<path class="st240" d="M40.9,33.8h-11c-0.8,0-1.5,0.7-1.5,1.5h14C42.3,34.5,41.7,33.8,40.9,33.8L40.9,33.8z"/>
				<path class="st217" d="M54.8,57.4h-3c0,0.8,0.7,1.5,1.5,1.5h43.8v-1.5H54.8z"/>
				<path class="st220" d="M95.6,55.9H53.3c-0.8,0-1.5,0.7-1.5,1.5H97C97.1,56.6,96.4,55.9,95.6,55.9L95.6,55.9z"/>
				<g>
					<g>
						<g>
							<g>
								<path class="st241" d="M22.4,30c-2.8,3-4,7.4-2.7,11.7l11.4-3.5l-1.4-4.6l-2.1-6.8l-0.3-1C25.1,26.5,23.4,28,22.4,30z"/>
								<g>
									<g>
										<g>
											<defs>
												<path id="SVGID_95_" d="M22.4,30c-2.8,3-4,7.4-2.7,11.7l11.4-3.5l-1.4-4.6l-2.1-6.8l-0.3-1C25.1,26.5,23.4,28,22.4,30z"
													/>
											</defs>
											<clipPath id="SVGID_5_">
												<use xlink:href="#SVGID_95_"  style="overflow:visible;"/>
											</clipPath>
											<path style="clip-path:url(#SVGID_5_);fill:#F4B711;" d="M12.9,30.2c5.6-1.7,11.5,0.2,15.1,4.4c-2.9-4.5-8.6-6.8-14-5.1
												c-1.2,0.4-2.3,0.9-3.3,1.6C11.4,30.7,12.2,30.4,12.9,30.2z"/>
										</g>
									</g>
								</g>
							</g>
							<g>
								<path class="st243" d="M33.7,26.5c4,0.9,7.5,3.9,8.8,8.1l-11.4,3.5l-1.4-4.6l-2.1-6.8l-0.3-1C29.6,25.1,31.8,25.4,33.7,26.5
									z"/>
							</g>
						</g>
						<g>
							<g>
								<path class="st231" d="M22.4,30c-2.8,3-4,7.4-2.7,11.7l11.4-3.5l-1.4-4.6l-2.1-6.8l-0.3-1C25.1,26.5,23.4,28,22.4,30z"/>
								<g>
									<g>
										<g>
											<defs>
												<path id="SVGID_97_" d="M22.4,30c-2.8,3-4,7.4-2.7,11.7l11.4-3.5l-1.4-4.6l-2.1-6.8l-0.3-1C25.1,26.5,23.4,28,22.4,30z"
													/>
											</defs>
											<clipPath id="SVGID_7_">
												<use xlink:href="#SVGID_97_"  style="overflow:visible;"/>
											</clipPath>
											<path style="clip-path:url(#SVGID_7_);fill:#F4B711;" d="M12.9,30.2c5.6-1.7,11.5,0.2,15.1,4.4c-2.9-4.5-8.6-6.8-14-5.1
												c-1.2,0.4-2.3,0.9-3.3,1.6C11.4,30.7,12.2,30.4,12.9,30.2z"/>
										</g>
									</g>
								</g>
							</g>
							<g>
								<path class="st245" d="M33.6,26.5c4,0.9,7.5,3.9,8.8,8.1L31,38.1l-1.4-4.6l-2.1-6.8l-0.3-1C29.4,25.1,31.7,25.4,33.6,26.5z"
									/>
							</g>
						</g>
					</g>
					<g>
						<g>
							
								<rect x="18.7" y="37.7" transform="matrix(0.956 -0.2935 0.2935 0.956 -9.8329 10.7461)" class="st241" width="24.3" height="0.9"/>
							
								<rect x="19" y="38.5" transform="matrix(0.956 -0.2935 0.2935 0.956 -10.0714 10.8636)" class="st243" width="24.3" height="0.9"/>
						</g>
						<g>
							
								<rect x="18.7" y="37.7" transform="matrix(0.956 -0.2935 0.2935 0.956 -9.8329 10.7461)" class="st241" width="24.3" height="0.9"/>
							
								<rect x="19" y="38.5" transform="matrix(0.956 -0.2935 0.2935 0.956 -10.0714 10.8636)" class="st232" width="24.3" height="0.9"/>
						</g>
					</g>
				</g>
				<path class="st230" d="M42.5,37l2.6-4.5c0.1-0.1,0-0.3-0.1-0.4l0,0c-0.1-0.1-0.3,0-0.4,0.1l-2.6,4.5c-3.4,0.2,3.9,2.5,3.9,2.5
					C44.9,38.4,43.6,37.5,42.5,37z"/>
				<path class="st239" d="M46.5,39.8H21.7c0,1.3,0.6,1,0.9,2c0,0,0,0.1,0,0.2c0.2,1.1,0.6,2.5,1.4,3.4c0.7,0.7,1.6,1.1,2.5,1h2.7
					c1.8,0,3.3-1.2,4.4-3.3c0.5-0.9,0.9-1.7,1.7-1.7c0.8,0,1.3,0.8,1.8,1.7c1,2.2,2.6,3.3,4.4,3.3h2.6c1,0,1.9-0.3,2.5-1
					c0.9-0.9,1.3-2.3,1.4-3.4c0,0,0-0.1,0-0.2c0.2-0.9,0.9-0.6,0.9-2L46.5,39.8L46.5,39.8z M32.2,42.5c-0.8,1.7-1.8,2.5-3.1,2.5
					h-2.7c-0.5,0-1.1-0.2-1.4-0.6c-0.9-0.9-1.1-2.6-1.2-3.7h9C32.7,41.3,32.5,41.9,32.2,42.5z M45.6,44.4c-0.4,0.4-0.9,0.6-1.4,0.6
					h-2.7c-2.3,0-3.3-2.9-3.7-4.3h9C46.7,41.7,46.4,43.4,45.6,44.4L45.6,44.4z"/>
				<path class="st246" d="M47.8,39.1H22.8c-0.4,0-1.1,0-1.1,0.7h27.3C49,39.2,48.2,39.1,47.8,39.1z"/>
				<g>
					<path class="st247" d="M57.5,48.6l0.9,7.4h1.8l-0.7-5.7C58.8,49.8,58.1,49.2,57.5,48.6z"/>
					<g>
						<path class="st248" d="M60.3,56h5.5l0.4-3.4c-2.4-0.2-4.6-1-6.6-2.3L60.3,56z"/>
						<path class="st248" d="M59.6,50.3l-0.4-3.1h-1.8l0.2,1.4C58.1,49.2,58.8,49.8,59.6,50.3z"/>
						<path class="st226" d="M59.2,47.2l0.4,3.1c2,1.2,4.3,2.1,6.7,2.3l0.7-5.4H59.2z"/>
						<path class="st249" d="M57.4,47.9h9.6c0.4,0,0.7-0.3,0.7-0.7l0,0h-11C56.6,47.6,56.9,47.9,57.4,47.9L57.4,47.9z"/>
						<path class="st247" d="M66.9,46.4h-9.6c-0.4,0-0.7,0.3-0.7,0.7h11C67.6,46.8,67.3,46.4,66.9,46.4L66.9,46.4z"/>
						<polygon class="st248" points="57.7,46.4 59.2,45 65.1,45 66.6,46.4 						"/>
						<polygon class="st247" points="59.2,45 60.3,45 59.6,46.4 57.7,46.4 						"/>
					</g>
				</g>
				<path class="st226" d="M65.4,19.6c-0.2,0-0.5,0-0.7,0c-5.7,0-10.3,4.6-10.3,10.3v10.3h1.5V29.8C55.9,24.4,60.1,20,65.4,19.6z"/>
				<path class="st249" d="M65.4,19.6c-5.4,0.4-9.6,4.9-9.6,10.3v10.3h8.8c0.2,0,0.5,0,0.7,0c5.7-0.4,9.9-5.3,9.6-11
					C74.6,24,70.6,19.9,65.4,19.6L65.4,19.6z"/>
				<g>
					<path class="st231" d="M58.5,33.1v-0.5c0-0.1,0-0.2,0-0.3c0-1.2,0.2-2.3,0.5-3.4c0.2-0.7,0.6-1.4,1-2.1c0.4-0.5,0.9-1,1.4-1.3
						c0.6-0.4,1.3-0.6,2-0.7c0.5-0.1,1-0.1,1.5-0.1c0.7,0,1.5,0.2,2.2,0.5c0.5,0.2,0.9,0.5,1.3,0.8c0.8,0.7,1.4,1.6,1.8,2.6
						c0.3,0.7,0.5,1.6,0.6,2.3c0.1,0.7,0.1,1.4,0.1,2.1c0,0.3-0.1,0.6-0.3,0.8c-0.3,0.3-0.7,0.6-1.1,0.8c-0.7,0.3-1.5,0.5-2.3,0.7
						c-0.5,0.1-0.9,0.1-1.4,0.2c-0.5,0-1.1,0-1.7,0c-0.5,0-1.1-0.1-1.6-0.2c-0.6-0.1-1.2-0.2-1.9-0.5c-0.5-0.2-1.1-0.5-1.5-0.8
						c-0.2-0.2-0.3-0.3-0.4-0.5C58.6,33.4,58.5,33.2,58.5,33.1z"/>
					<path class="st231" d="M58.5,32.3L58.5,32.3c0,0.1,0,0.2,0,0.3V32.3z"/>
					<path class="st250" d="M65,33c-0.8,0-1.6-0.2-2.3-0.7c-0.1-0.1-0.2-0.2-0.3-0.3c-0.1-0.1-0.2-0.3,0-0.4c0.1-0.1,0.3-0.2,0.4,0
						c0,0,0,0,0.1,0.1c0.3,0.3,0.7,0.6,1.2,0.7c0.6,0.2,1.2,0.2,1.8,0c0.4-0.1,0.7-0.4,1-0.7c0.1-0.2,0.3-0.2,0.4-0.1c0,0,0,0,0,0
						c0.2,0.1,0.2,0.3,0,0.5c0,0,0,0,0,0c-0.4,0.5-1,0.9-1.7,1C65.4,33,65.2,33,65,33z"/>
					<path class="st250" d="M61.6,29.4c0-0.3,0.1-0.5,0.3-0.7c0.3-0.3,0.7-0.3,1,0c0,0,0.1,0.1,0.1,0.1c0.3,0.4,0.3,0.9,0,1.3
						c-0.2,0.3-0.7,0.4-1,0.2c-0.1-0.1-0.2-0.2-0.2-0.3C61.6,29.8,61.6,29.6,61.6,29.4z"/>
					<path class="st250" d="M67,29.7c0.3,0,0.6,0,0.9,0.1c0.2,0,0.3,0.2,0.2,0.3c0,0.2-0.2,0.2-0.3,0.2c0,0,0,0,0,0
						c-0.6-0.1-1.2-0.1-1.8,0c-0.1,0-0.3,0-0.3-0.2c0-0.1,0-0.3,0.1-0.3c0.6-0.5,1.2-0.8,1.9-1c0.1,0,0.3,0,0.3,0.1c0,0,0,0,0,0
						c0,0.2,0,0.3-0.2,0.3l0,0C67.6,29.4,67.3,29.5,67,29.7z"/>
				</g>
				<circle class="st236" cx="42.5" cy="42.6" r="1.4"/>
				<circle class="st236" cx="28.2" cy="42.6" r="1.5"/>
			</g>
		</g>
	</g>
</g>
</svg>
