<?xml version="1.0" encoding="utf-8"?>
<!-- Generator: Adobe Illustrator 22.0.1, SVG Export Plug-In . SVG Version: 6.00 Build 0)  -->
<svg version="1.0" id="Layer_1" xmlns="http://www.w3.org/2000/svg" xmlns:xlink="http://www.w3.org/1999/xlink" x="0px" y="0px"
	 viewBox="0 0 208.9 158.1" enable-background="new 0 0 208.9 158.1" xml:space="preserve">
<g>
	
		<linearGradient id="SVGID_1_" gradientUnits="userSpaceOnUse" x1="109.8526" y1="-8.503629e-02" x2="109.8525" y2="144.769" gradientTransform="matrix(1 0 0 -1 0 158)">
		<stop  offset="0" style="stop-color:#E74744"/>
		<stop  offset="1" style="stop-color:#EE5B2E"/>
	</linearGradient>
	<path fill="url(#SVGID_1_)" d="M181.9,91.4c12.1-4.8,20.7-16.5,20.7-30.3c0-12.1-6.6-22.7-16.5-28.3c0.1-0.6,0.1-1.3,0.1-1.9
		c0-9.5-7.5-17.2-16.9-17.6v0h-84c-9,0-16.4,6.7-17.5,15.4h-7.5c-9.7,0-17.6,7.9-17.6,17.6c0,8.4,5.9,15.4,13.8,17.2H43.9v0.1
		c-14.9,0.8-26.7,13-26.7,28.1c0,15.1,11.8,27.3,26.7,28.1v0.1H54c-0.7,2.6-1.1,5.4-1.1,8.2c0,16.1,12.6,29.1,28.5,30v0.1h72.9V158
		c15.8-0.9,28.3-13.9,28.3-29.9c0-10.1-5-19-12.7-24.5C175.1,100.9,179.2,96.6,181.9,91.4z"/>
	
		<linearGradient id="SVGID_2_" gradientUnits="userSpaceOnUse" x1="200.262" y1="129.6835" x2="208.92" y2="129.6835" gradientTransform="matrix(1 0 0 -1 0 158)">
		<stop  offset="0" style="stop-color:#E74744"/>
		<stop  offset="1" style="stop-color:#EE5B2E"/>
	</linearGradient>
	<path fill="url(#SVGID_2_)" d="M204.6,24c0,2.4-1.9,4.3-4.3,4.3c2.4,0,4.3,1.9,4.3,4.3c0-2.4,1.9-4.3,4.3-4.3
		C206.5,28.3,204.6,26.4,204.6,24z"/>
	
		<linearGradient id="SVGID_3_" gradientUnits="userSpaceOnUse" x1="34.154" y1="13.2645" x2="42.812" y2="13.2645" gradientTransform="matrix(1 0 0 -1 0 158)">
		<stop  offset="0" style="stop-color:#E74744"/>
		<stop  offset="1" style="stop-color:#EE5B2E"/>
	</linearGradient>
	<path fill="url(#SVGID_3_)" d="M38.5,140.4c0,2.4-1.9,4.3-4.3,4.3c2.4,0,4.3,1.9,4.3,4.3c0-2.4,1.9-4.3,4.3-4.3
		C40.4,144.7,38.5,142.8,38.5,140.4z"/>
	
		<linearGradient id="SVGID_4_" gradientUnits="userSpaceOnUse" x1="74.659" y1="153.6705" x2="83.317" y2="153.6705" gradientTransform="matrix(1 0 0 -1 0 158)">
		<stop  offset="0" style="stop-color:#E74744"/>
		<stop  offset="1" style="stop-color:#EE5B2E"/>
	</linearGradient>
	<path fill="url(#SVGID_4_)" d="M79,0c0,2.4-1.9,4.3-4.3,4.3C77,4.3,79,6.3,79,8.7c0-2.4,1.9-4.3,4.3-4.3C80.9,4.3,79,2.4,79,0z"/>
	
		<linearGradient id="SVGID_5_" gradientUnits="userSpaceOnUse" x1="195.934" y1="41.8255" x2="204.592" y2="41.8255" gradientTransform="matrix(1 0 0 -1 0 158)">
		<stop  offset="0" style="stop-color:#E74744"/>
		<stop  offset="1" style="stop-color:#EE5B2E"/>
	</linearGradient>
	<path fill="url(#SVGID_5_)" d="M200.3,111.8c0,2.4-1.9,4.3-4.3,4.3c2.4,0,4.3,1.9,4.3,4.3c0-2.4,1.9-4.3,4.3-4.3
		C202.2,116.2,200.3,114.2,200.3,111.8z"/>
	
		<linearGradient id="SVGID_6_" gradientUnits="userSpaceOnUse" x1="503.2783" y1="20.4956" x2="548.9133" y2="20.4956" gradientTransform="matrix(0.7071 -0.7071 -0.7071 -0.7071 -313.2654 481.8068)">
		<stop  offset="0" style="stop-color:#E74744"/>
		<stop  offset="1" style="stop-color:#EE5B2E"/>
	</linearGradient>
	<path fill="url(#SVGID_6_)" d="M60.4,79.2c0.6,0.6,0.6,1.7,0,2.3l-30,30c-0.6,0.6-1.7,0.6-2.3,0l0,0c-0.6-0.6-0.6-1.7,0-2.3l30-30
		C58.7,78.5,59.7,78.5,60.4,79.2L60.4,79.2z"/>
	<path opacity="0.5" fill="#FFFFFF" enable-background="new    " d="M130.2,120.5c0,2.4-1.9,4.3-4.3,4.3c2.4,0,4.3,1.9,4.3,4.3
		c0-2.4,1.9-4.3,4.3-4.3C132.1,124.8,130.2,122.9,130.2,120.5z"/>
	<path opacity="0.5" fill="#FFFFFF" enable-background="new    " d="M155.3,28.9c0,2.4-1.9,4.3-4.3,4.3c2.4,0,4.3,1.9,4.3,4.3
		c0-2.4,1.9-4.3,4.3-4.3C157.3,33.2,155.3,31.3,155.3,28.9z"/>
	<path opacity="0.5" fill="#FFFFFF" enable-background="new    " d="M177.6,70c0,2.4-1.9,4.3-4.3,4.3c2.4,0,4.3,1.9,4.3,4.3
		c0-2.4,1.9-4.3,4.3-4.3C179.5,74.4,177.6,72.4,177.6,70z"/>
	<path opacity="0.5" fill="#FFFFFF" enable-background="new    " d="M79,74.4c0,2.4-1.9,4.3-4.3,4.3c2.4,0,4.3,1.9,4.3,4.3
		c0-2.4,1.9-4.3,4.3-4.3C80.9,78.7,79,76.8,79,74.4z"/>
	
		<linearGradient id="SVGID_7_" gradientUnits="userSpaceOnUse" x1="38.038" y1="28.837" x2="83.672" y2="28.837" gradientTransform="matrix(1 0 0 -1 0 158)">
		<stop  offset="0" style="stop-color:#E74744"/>
		<stop  offset="1" style="stop-color:#EE5B2E"/>
	</linearGradient>
	<path fill="url(#SVGID_7_)" d="M83.7,129.2c0,0.9-0.7,1.6-1.6,1.6H39.7c-0.9,0-1.6-0.7-1.6-1.6l0,0c0-0.9,0.7-1.6,1.6-1.6H82
		C82.9,127.5,83.7,128.3,83.7,129.2L83.7,129.2z"/>
	<g>
		<g>
			<defs>
				<path id="SVGID_8_" d="M181.9,91.4c12.1-4.8,20.7-16.5,20.7-30.3c0-12.1-6.6-22.7-16.5-28.3c0.1-0.6,0.1-1.3,0.1-1.9
					c0-9.5-7.5-17.2-16.9-17.6v0h-84c-9,0-16.4,6.7-17.5,15.4h-7.5c-9.7,0-17.6,7.9-17.6,17.6c0,8.4,5.9,15.4,13.8,17.2H43.9v0.1
					c-14.9,0.8-26.7,13-26.7,28.1c0,15.1,11.8,27.3,26.7,28.1v0.1H54c-0.7,2.6-1.1,5.4-1.1,8.2c0,16.1,12.6,29.1,28.5,30v0.1h72.9
					V158c15.8-0.9,28.3-13.9,28.3-29.9c0-10.1-5-19-12.7-24.5C175.1,100.9,179.2,96.6,181.9,91.4z"/>
			</defs>
			<clipPath id="SVGID_9_">
				<use xlink:href="#SVGID_8_"  overflow="visible"/>
			</clipPath>
			<g clip-path="url(#SVGID_9_)">
				<g opacity="0.2">
					<path fill="#FFCD2E" d="M149.2,27c0,3.4-2.8,6.2-6.2,6.2h-20.9c-3.4,0-6.2-2.8-6.2-6.2l0,0c0-3.4,2.8-6.2,6.2-6.2h20.9
						C146.5,20.9,149.2,23.6,149.2,27L149.2,27z"/>
					<path fill="#FFCD2E" d="M143.1,54.1c-3.4,0-6.2-2.8-6.2-6.2V27c0-3.4,2.8-6.2,6.2-6.2l0,0c3.4,0,6.2,2.8,6.2,6.2V48
						C149.2,51.4,146.5,54.1,143.1,54.1L143.1,54.1z"/>
					<path fill="#FFCD2E" d="M62.8,107.3c-2.4-2.4-2.4-6.3,0-8.7l75.7-75.7c2.4-2.4,6.3-2.4,8.7,0l0,0c2.4,2.4,2.4,6.3,0,8.7
						l-75.7,75.7C69.1,109.7,65.2,109.7,62.8,107.3L62.8,107.3z"/>
				</g>
				<g opacity="0.2">
					<path fill="#FFCD2E" d="M123.1,131.2c0,2.3-1.8,4.1-4.1,4.1h-13.9c-2.3,0-4.1-1.8-4.1-4.1l0,0c0-2.3,1.8-4.1,4.1-4.1H119
						C121.3,127.1,123.1,128.9,123.1,131.2L123.1,131.2z"/>
					<path fill="#FFCD2E" d="M119,149.2c-2.3,0-4.1-1.8-4.1-4.1v-13.9c0-2.3,1.8-4.1,4.1-4.1l0,0c2.3,0,4.1,1.8,4.1,4.1v13.9
						C123.1,147.4,121.3,149.2,119,149.2L119,149.2z"/>
					<path fill="#FFCD2E" d="M65.6,184.6c-1.6-1.6-1.6-4.2,0-5.8l50.3-50.3c1.6-1.6,4.2-1.6,5.8,0l0,0c1.6,1.6,1.6,4.2,0,5.8
						l-50.3,50.3C69.8,186.2,67.2,186.2,65.6,184.6L65.6,184.6z"/>
				</g>
				<g>
					
						<linearGradient id="SVGID_10_" gradientUnits="userSpaceOnUse" x1="73.928" y1="64.952" x2="51.542" y2="64.952" gradientTransform="matrix(1 0 0 -1 0 158)">
						<stop  offset="0" style="stop-color:#444448"/>
						<stop  offset="1" style="stop-color:#797C7C"/>
					</linearGradient>
					<path fill="url(#SVGID_10_)" d="M73.9,93c0,2.3-1.9,4.1-4.1,4.1H55.7c-2.3,0-4.1-1.9-4.1-4.1l0,0c0-2.3,1.9-4.1,4.1-4.1h14.1
						C72.1,88.9,73.9,90.8,73.9,93L73.9,93z"/>
					
						<linearGradient id="SVGID_11_" gradientUnits="userSpaceOnUse" x1="73.928" y1="57.905" x2="65.636" y2="57.905" gradientTransform="matrix(1 0 0 -1 0 158)">
						<stop  offset="0" style="stop-color:#444448"/>
						<stop  offset="1" style="stop-color:#797C7C"/>
					</linearGradient>
					<path fill="url(#SVGID_11_)" d="M69.8,111.3c-2.3,0-4.1-1.9-4.1-4.1V93c0-2.3,1.9-4.1,4.1-4.1l0,0c2.3,0,4.1,1.9,4.1,4.1v14.1
						C73.9,109.4,72.1,111.3,69.8,111.3L69.8,111.3z"/>
					
						<linearGradient id="SVGID_12_" gradientUnits="userSpaceOnUse" x1="73.7653" y1="39.3334" x2="14.5608" y2="39.3334" gradientTransform="matrix(1 0 0 -1 0 158)">
						<stop  offset="0" style="stop-color:#444448"/>
						<stop  offset="1" style="stop-color:#797C7C"/>
					</linearGradient>
					<path fill="url(#SVGID_12_)" d="M15.8,147.1c-1.6-1.6-1.6-4.2,0-5.9l50.9-50.9c1.6-1.6,4.2-1.6,5.9,0l0,0
						c1.6,1.6,1.6,4.2,0,5.9l-50.9,50.9C20,148.7,17.4,148.7,15.8,147.1L15.8,147.1z"/>
				</g>
				<g>
					
						<linearGradient id="SVGID_13_" gradientUnits="userSpaceOnUse" x1="119.186" y1="129.684" x2="105.471" y2="129.684" gradientTransform="matrix(1 0 0 -1 0 158)">
						<stop  offset="0" style="stop-color:#E74744"/>
						<stop  offset="1" style="stop-color:#EE5B2E"/>
					</linearGradient>
					<path fill="url(#SVGID_13_)" d="M119.2,28.3c0,1.4-1.1,2.5-2.5,2.5H108c-1.4,0-2.5-1.1-2.5-2.5l0,0c0-1.4,1.1-2.5,2.5-2.5h8.6
						C118,25.8,119.2,26.9,119.2,28.3L119.2,28.3z"/>
					
						<linearGradient id="SVGID_14_" gradientUnits="userSpaceOnUse" x1="119.186" y1="125.366" x2="114.106" y2="125.366" gradientTransform="matrix(1 0 0 -1 0 158)">
						<stop  offset="0" style="stop-color:#E74744"/>
						<stop  offset="1" style="stop-color:#EE5B2E"/>
					</linearGradient>
					<path fill="url(#SVGID_14_)" d="M116.6,39.5c-1.4,0-2.5-1.1-2.5-2.5v-8.6c0-1.4,1.1-2.5,2.5-2.5l0,0c1.4,0,2.5,1.1,2.5,2.5V37
						C119.2,38.4,118,39.5,116.6,39.5L116.6,39.5z"/>
					
						<linearGradient id="SVGID_15_" gradientUnits="userSpaceOnUse" x1="119.089" y1="113.9879" x2="82.8138" y2="113.9879" gradientTransform="matrix(1 0 0 -1 0 158)">
						<stop  offset="0" style="stop-color:#E74744"/>
						<stop  offset="1" style="stop-color:#EE5B2E"/>
					</linearGradient>
					<path fill="url(#SVGID_15_)" d="M83.6,61.4c-1-1-1-2.6,0-3.6l31.2-31.2c1-1,2.6-1,3.6,0l0,0c1,1,1,2.6,0,3.6L87.1,61.4
						C86.2,62.4,84.5,62.4,83.6,61.4L83.6,61.4z"/>
				</g>
				<g>
					
						<linearGradient id="SVGID_16_" gradientUnits="userSpaceOnUse" x1="151.005" y1="38.802" x2="173.391" y2="38.802" gradientTransform="matrix(1 0 0 -1 0 158)">
						<stop  offset="0" style="stop-color:#56AF5E"/>
						<stop  offset="1" style="stop-color:#C1D24D"/>
					</linearGradient>
					<path fill="url(#SVGID_16_)" d="M173.4,119.2c0,2.3-1.9,4.1-4.1,4.1h-14.1c-2.3,0-4.1-1.9-4.1-4.1l0,0c0-2.3,1.9-4.1,4.1-4.1
						h14.1C171.5,115.1,173.4,116.9,173.4,119.2L173.4,119.2z"/>
					
						<linearGradient id="SVGID_17_" gradientUnits="userSpaceOnUse" x1="165.1" y1="31.7555" x2="173.391" y2="31.7555" gradientTransform="matrix(1 0 0 -1 0 158)">
						<stop  offset="0" style="stop-color:#56AF5E"/>
						<stop  offset="1" style="stop-color:#C1D24D"/>
					</linearGradient>
					<path fill="url(#SVGID_17_)" d="M169.2,137.4c-2.3,0-4.1-1.9-4.1-4.1v-14.1c0-2.3,1.9-4.1,4.1-4.1l0,0c2.3,0,4.1,1.9,4.1,4.1
						v14.1C173.4,135.6,171.5,137.4,169.2,137.4L169.2,137.4z"/>
					
						<linearGradient id="SVGID_18_" gradientUnits="userSpaceOnUse" x1="114.0247" y1="13.1834" x2="173.2283" y2="13.1834" gradientTransform="matrix(1 0 0 -1 0 158)">
						<stop  offset="0" style="stop-color:#56AF5E"/>
						<stop  offset="1" style="stop-color:#C1D24D"/>
					</linearGradient>
					<path fill="url(#SVGID_18_)" d="M115.2,173.2c-1.6-1.6-1.6-4.2,0-5.9l50.9-50.9c1.6-1.6,4.2-1.6,5.9,0l0,0
						c1.6,1.6,1.6,4.2,0,5.9l-50.9,50.9C119.5,174.8,116.9,174.8,115.2,173.2L115.2,173.2z"/>
				</g>
				<g>
					
						<linearGradient id="SVGID_19_" gradientUnits="userSpaceOnUse" x1="60.36" y1="111.7255" x2="87.685" y2="111.7255" gradientTransform="matrix(1 0 0 -1 0 158)">
						<stop  offset="0" style="stop-color:#F79D2A"/>
						<stop  offset="1" style="stop-color:#FFCD2E"/>
					</linearGradient>
					<path fill="url(#SVGID_19_)" d="M87.7,46.3c0,2.8-2.3,5.1-5.1,5.1H65.4c-2.8,0-5.1-2.3-5.1-5.1l0,0c0-2.8,2.3-5.1,5.1-5.1h17.2
						C85.4,41.2,87.7,43.5,87.7,46.3L87.7,46.3z"/>
					
						<linearGradient id="SVGID_20_" gradientUnits="userSpaceOnUse" x1="77.564" y1="103.1235" x2="87.685" y2="103.1235" gradientTransform="matrix(1 0 0 -1 0 158)">
						<stop  offset="0" style="stop-color:#F79D2A"/>
						<stop  offset="1" style="stop-color:#FFCD2E"/>
					</linearGradient>
					<path fill="url(#SVGID_20_)" d="M82.6,68.5c-2.8,0-5.1-2.3-5.1-5.1V46.3c0-2.8,2.3-5.1,5.1-5.1l0,0c2.8,0,5.1,2.3,5.1,5.1v17.2
						C87.7,66.3,85.4,68.5,82.6,68.5L82.6,68.5z"/>
					
						<linearGradient id="SVGID_21_" gradientUnits="userSpaceOnUse" x1="15.2202" y1="80.4554" x2="87.487" y2="80.4554" gradientTransform="matrix(1 0 0 -1 0 158)">
						<stop  offset="0" style="stop-color:#F79D2A"/>
						<stop  offset="1" style="stop-color:#FFCD2E"/>
					</linearGradient>
					<path fill="url(#SVGID_21_)" d="M16.7,112.2c-2-2-2-5.2,0-7.2l62.1-62.1c2-2,5.2-2,7.2,0l0,0c2,2,2,5.2,0,7.2l-62.1,62.1
						C21.9,114.2,18.7,114.2,16.7,112.2L16.7,112.2z"/>
				</g>
				<g>
					<path fill="#D9DCDD" d="M166.8,57c0,5.5-4.5,9.9-9.9,9.9H123c-5.5,0-9.9-4.5-9.9-9.9l0,0c0-5.5,4.5-9.9,9.9-9.9h33.8
						C162.4,47,166.8,51.5,166.8,57L166.8,57z"/>
					<path fill="#D9DCDD" d="M156.9,100.7c-5.5,0-9.9-4.5-9.9-9.9V57c0-5.5,4.5-9.9,9.9-9.9l0,0c5.5,0,9.9,4.5,9.9,9.9v33.8
						C166.8,96.3,162.4,100.7,156.9,100.7L156.9,100.7z"/>
					<path fill="#D9DCDD" d="M27.3,186.6c-3.9-3.9-3.9-10.2,0-14.1L149.4,50.3c3.9-3.9,10.2-3.9,14.1,0l0,0c3.9,3.9,3.9,10.2,0,14.1
						L41.3,186.6C37.4,190.5,31.1,190.5,27.3,186.6L27.3,186.6z"/>
				</g>
			</g>
		</g>
	</g>
	
		<linearGradient id="SVGID_22_" gradientUnits="userSpaceOnUse" x1="0" y1="89.586" x2="45.634" y2="89.586" gradientTransform="matrix(1 0 0 -1 0 158)">
		<stop  offset="0" style="stop-color:#E74744"/>
		<stop  offset="1" style="stop-color:#EE5B2E"/>
	</linearGradient>
	<path fill="url(#SVGID_22_)" d="M45.6,68.4c0,0.9-0.7,1.6-1.6,1.6H1.6C0.7,70,0,69.3,0,68.4l0,0c0-0.9,0.7-1.6,1.6-1.6H44
		C44.9,66.8,45.6,67.5,45.6,68.4L45.6,68.4z"/>
	
		<linearGradient id="SVGID_23_" gradientUnits="userSpaceOnUse" x1="149.393" y1="52.199" x2="195.028" y2="52.199" gradientTransform="matrix(1 0 0 -1 0 158)">
		<stop  offset="0" style="stop-color:#E74744"/>
		<stop  offset="1" style="stop-color:#EE5B2E"/>
	</linearGradient>
	<path fill="url(#SVGID_23_)" d="M195,105.8c0,0.9-0.7,1.6-1.6,1.6H151c-0.9,0-1.6-0.7-1.6-1.6l0,0c0-0.9,0.7-1.6,1.6-1.6h42.4
		C194.3,104.2,195,104.9,195,105.8L195,105.8z"/>
	<path opacity="0.5" fill="#BFD6DD" enable-background="new    " d="M91.3,22.4c0,0.9-0.7,1.6-1.6,1.6H47.3c-0.9,0-1.6-0.7-1.6-1.6
		l0,0c0-0.9,0.7-1.6,1.6-1.6h42.4C90.5,20.7,91.3,21.5,91.3,22.4L91.3,22.4z"/>
</g>
</svg>
