<?xml version="1.0" encoding="utf-8"?>
<!-- Generator: Adobe Illustrator 22.0.1, SVG Export Plug-In . SVG Version: 6.00 Build 0)  -->
<svg version="1.0" id="Layer_1" xmlns="http://www.w3.org/2000/svg" xmlns:xlink="http://www.w3.org/1999/xlink" x="0px" y="0px"
	 viewBox="0 0 208.9 158.1" enable-background="new 0 0 208.9 158.1" xml:space="preserve">
<g>
	
		<linearGradient id="SVGID_1_" gradientUnits="userSpaceOnUse" x1="1131.9658" y1="18.812" x2="1131.9658" y2="134.786" gradientTransform="matrix(-1 0 0 -1 1238.3174 158)">
		<stop  offset="0" style="stop-color:#E74945"/>
		<stop  offset="1" style="stop-color:#EE4E2E"/>
	</linearGradient>
	<path fill="url(#SVGID_1_)" d="M54.2,64.5L54.2,64.5l14-0.1c0-0.6-0.1-1.2-0.1-1.9c0-3.3,0.6-6.4,1.7-9.3
		C63.1,51.7,58,45.7,58,38.4c0-8.2,6.5-14.9,14.6-15.2v0h72.5c8.1,0,14.8,6.4,15.2,14.4c11.1,2.9,19.2,12.9,19.2,24.9
		c0,10.9-6.8,20.2-16.3,24c-2.1,4.1-5.4,7.5-9.4,9.6c6,4.3,10,11.3,10,19.3c0,12.6-9.9,23-22.4,23.7v0.1H83.8v-0.1
		c-12.5-0.6-22.5-11-22.5-23.7c0-2.3,0.3-4.4,0.9-6.5h-8v-0.1c-11.8-0.6-21.1-10.3-21.1-22.2C33.1,74.8,42.5,65.1,54.2,64.5z"/>
	<g>
		<g>
			<defs>
				<path id="SVGID_25_" d="M54.2,64.5L54.2,64.5l14-0.1c0-0.6-0.1-1.2-0.1-1.9c0-3.3,0.6-6.4,1.7-9.3C63.1,51.7,58,45.7,58,38.4
					c0-8.2,6.5-14.9,14.6-15.2v0h72.5c8.1,0,14.8,6.4,15.2,14.4c11.1,2.9,19.2,12.9,19.2,24.9c0,10.9-6.8,20.2-16.3,24
					c-2.1,4.1-5.4,7.5-9.4,9.6c6,4.3,10,11.3,10,19.3c0,12.6-9.9,23-22.4,23.7v0.1H83.8v-0.1c-12.5-0.6-22.5-11-22.5-23.7
					c0-2.3,0.3-4.4,0.9-6.5h-8v-0.1c-11.8-0.6-21.1-10.3-21.1-22.2C33.1,74.8,42.5,65.1,54.2,64.5z"/>
			</defs>
			<clipPath id="SVGID_2_">
				<use xlink:href="#SVGID_25_"  overflow="visible"/>
			</clipPath>
			<path opacity="0.2" clip-path="url(#SVGID_2_)" fill="#FECE33" enable-background="new    " d="M110.8,114.4
				c0,4.2,6.9,8.3-2.4,8.3H-36.3c-9.2,0-16.7-3.4-16.7-7.5V50.8c0-4.2,7.5-7.5,16.7-7.5l113.5-0.9C81.5,49,92,61.4,92,65.5
				L110.8,114.4z"/>
		</g>
	</g>
	
		<linearGradient id="SVGID_3_" gradientUnits="userSpaceOnUse" x1="162.876" y1="138.2875" x2="171.534" y2="138.2875" gradientTransform="matrix(1 0 0 -1 0 158)">
		<stop  offset="0" style="stop-color:#E74945"/>
		<stop  offset="1" style="stop-color:#EE4E2E"/>
	</linearGradient>
	<path fill="url(#SVGID_3_)" d="M167.2,15.4c0,2.4-1.9,4.3-4.3,4.3c2.4,0,4.3,1.9,4.3,4.3c0-2.4,1.9-4.3,4.3-4.3
		C169.1,19.7,167.2,17.8,167.2,15.4z"/>
	
		<linearGradient id="SVGID_4_" gradientUnits="userSpaceOnUse" x1="40.647" y1="41.6125" x2="49.305" y2="41.6125" gradientTransform="matrix(1 0 0 -1 0 158)">
		<stop  offset="0" style="stop-color:#E74945"/>
		<stop  offset="1" style="stop-color:#EE4E2E"/>
	</linearGradient>
	<path fill="url(#SVGID_4_)" d="M45,112.1c0,2.4-1.9,4.3-4.3,4.3c2.4,0,4.3,1.9,4.3,4.3c0-2.4,1.9-4.3,4.3-4.3
		C46.9,116.4,45,114.4,45,112.1z"/>
	
		<linearGradient id="SVGID_5_" gradientUnits="userSpaceOnUse" x1="102.023" y1="11.6525" x2="110.681" y2="11.6525" gradientTransform="matrix(1 0 0 -1 0 158)">
		<stop  offset="0" style="stop-color:#E74945"/>
		<stop  offset="1" style="stop-color:#EE4E2E"/>
	</linearGradient>
	<path fill="url(#SVGID_5_)" d="M106.4,142c0,2.4-1.9,4.3-4.3,4.3c2.4,0,4.3,1.9,4.3,4.3c0-2.4,1.9-4.3,4.3-4.3
		C108.3,146.3,106.4,144.4,106.4,142z"/>
	
		<linearGradient id="SVGID_6_" gradientUnits="userSpaceOnUse" x1="36.318" y1="110.6245" x2="44.976" y2="110.6245" gradientTransform="matrix(1 0 0 -1 0 158)">
		<stop  offset="0" style="stop-color:#E74945"/>
		<stop  offset="1" style="stop-color:#EE4E2E"/>
	</linearGradient>
	<path fill="url(#SVGID_6_)" d="M40.6,43c0,2.4-1.9,4.3-4.3,4.3c2.4,0,4.3,1.9,4.3,4.3c0-2.4,1.9-4.3,4.3-4.3
		C42.6,47.4,40.6,45.4,40.6,43z"/>
	
		<linearGradient id="SVGID_7_" gradientUnits="userSpaceOnUse" x1="414.986" y1="-165.4705" x2="451.4535" y2="-165.4705" gradientTransform="matrix(0.792 -0.6105 -0.6105 -0.792 -299.5974 208.0025)">
		<stop  offset="0" style="stop-color:#523F8F"/>
		<stop  offset="1" style="stop-color:#2997C2"/>
	</linearGradient>
	<path fill="url(#SVGID_7_)" d="M159.8,67.7c-0.2,0.1-0.4,0.1-0.6,0.2c-0.1,1.6-0.8,3.2-2.2,4.3c-2.5,1.9-6,1.4-7.9-1
		c-1.9-2.5-1.5-6,1-7.9c1.4-1.1,3.1-1.4,4.7-1c0.1-0.2,0.2-0.3,0.3-0.5c-2.8-4-5.2-8.2-7.3-12.6l0,0l0,0c-4.4,2.1-8.6,4.5-12.6,7.3
		c-0.2-0.1-0.4-0.2-0.5-0.3c0.4-1.6,0-3.3-1-4.7c-1.9-2.5-5.5-2.9-7.9-1c-2.5,1.9-2.9,5.5-1,7.9c1.1,1.4,2.7,2.1,4.3,2.2
		c0.1,0.2,0.1,0.4,0.2,0.6c-3.7,3.1-7.1,6.6-10.2,10.3l0,0l0,0c3.7,3.1,7.2,6.5,10.3,10.2c0.2-0.1,0.4-0.1,0.6-0.2
		c0.1-1.6,0.8-3.2,2.2-4.3c2.5-1.9,6-1.4,7.9,1c1.9,2.5,1.5,6-1,7.9c-1.4,1.1-3.1,1.4-4.7,1c-0.1,0.2-0.2,0.3-0.3,0.5
		c2.8,4,5.2,8.2,7.3,12.6l0,0l0,0l0,0c4.4-2.1,8.6-4.5,12.6-7.3c0.2,0.1,0.4,0.2,0.5,0.3c-0.4,1.6,0,3.3,1,4.7
		c1.9,2.5,5.5,2.9,7.9,1c2.5-1.9,2.9-5.5,1-7.9c-1.1-1.4-2.7-2.1-4.3-2.2c-0.1-0.2-0.1-0.4-0.2-0.6c3.7-3.1,7.1-6.6,10.2-10.3l0,0
		l0,0l0,0C166.4,74.8,162.9,71.3,159.8,67.7z"/>
	
		<linearGradient id="SVGID_9_" gradientUnits="userSpaceOnUse" x1="378.5197" y1="-128.9972" x2="414.9867" y2="-128.9972" gradientTransform="matrix(0.792 -0.6105 -0.6105 -0.792 -299.5974 208.0025)">
		<stop  offset="0" style="stop-color:#F49D2E"/>
		<stop  offset="1" style="stop-color:#FECE33"/>
	</linearGradient>
	<path fill="url(#SVGID_9_)" d="M108.6,61c-0.2,0.1-0.4,0.1-0.6,0.2c-0.1,1.6-0.8,3.2-2.2,4.3c-2.5,1.9-6,1.5-7.9-1
		c-1.9-2.5-1.4-6,1-7.9c1.4-1.1,3.1-1.4,4.7-1c0.1-0.2,0.2-0.3,0.3-0.5c-2.8-4-5.2-8.2-7.3-12.6l0,0l0,0c-4.4,2.1-8.6,4.5-12.6,7.3
		c-0.2-0.1-0.4-0.2-0.5-0.3c0.4-1.6,0-3.3-1-4.7c-1.9-2.5-5.5-2.9-7.9-1c-2.5,1.9-2.9,5.5-1,7.9c1.1,1.4,2.7,2.1,4.3,2.2
		c0.1,0.2,0.1,0.4,0.2,0.6c-3.7,3.1-7.1,6.6-10.2,10.3l0,0l0,0c3.7,3.1,7.2,6.5,10.3,10.2c0.2-0.1,0.4-0.1,0.6-0.2
		c0.1-1.6,0.8-3.2,2.2-4.3c2.5-1.9,6-1.4,7.9,1c1.9,2.5,1.5,6-1,7.9c-1.4,1.1-3.1,1.4-4.7,1c-0.1,0.2-0.2,0.3-0.3,0.5
		c2.8,4,5.2,8.2,7.3,12.6l0,0l0,0l0,0c4.4-2.1,8.6-4.5,12.6-7.3c0.2,0.1,0.4,0.2,0.5,0.3c-0.4,1.6,0,3.3,1,4.7
		c1.9,2.5,5.5,2.9,7.9,1c2.5-1.9,2.9-5.5,1-7.9c-1.1-1.4-2.7-2.1-4.3-2.2c-0.1-0.2-0.1-0.4-0.2-0.6c3.7-3.1,7.1-6.6,10.2-10.3l0,0v0
		l0,0C115.2,68.1,111.8,64.7,108.6,61z"/>
	<path fill="#E8E8E8" d="M122.6,112.1c-0.1-0.2-0.1-0.4-0.2-0.6c-1.6-0.1-3.2-0.8-4.3-2.2c-1.9-2.5-1.4-6,1-7.9c2.5-1.9,6-1.4,7.9,1
		c1.1,1.4,1.4,3.1,1,4.7c0.2,0.1,0.3,0.2,0.5,0.3c4-2.8,8.2-5.2,12.6-7.3l0,0c0,0,0,0,0,0c-2.1-4.4-4.5-8.6-7.3-12.6
		c0.1-0.2,0.2-0.4,0.3-0.5c1.6,0.4,3.3,0,4.7-1c2.5-1.9,2.9-5.5,1-7.9c-1.9-2.5-5.5-2.9-7.9-1c-1.4,1.1-2.1,2.7-2.2,4.3
		c-0.2,0.1-0.4,0.1-0.6,0.2c-3.1-3.7-6.6-7.1-10.3-10.2c0,0,0,0,0,0l0,0c-3.1,3.7-6.5,7.2-10.2,10.3c0.1,0.2,0.1,0.4,0.2,0.6
		c1.6,0.1,3.2,0.8,4.3,2.2c1.9,2.5,1.4,6-1,7.9s-6,1.4-7.9-1c-1.1-1.4-1.4-3.1-1-4.7c-0.2-0.1-0.3-0.2-0.5-0.3
		c-4,2.8-8.2,5.2-12.6,7.3l0,0l0,0l0,0c2.1,4.4,4.5,8.6,7.3,12.6c-0.1,0.2-0.2,0.4-0.3,0.5c-1.6-0.4-3.3,0-4.7,1
		c-2.5,1.9-2.9,5.5-1,7.9c1.9,2.5,5.5,2.9,7.9,1c1.4-1.1,2.1-2.7,2.2-4.3c0.2-0.1,0.4-0.1,0.6-0.2c3.1,3.7,6.6,7.1,10.3,10.2l0,0
		l0,0v0C115.5,118.7,118.9,115.2,122.6,112.1z"/>
	<path opacity="0.5" fill="#FFFFFF" enable-background="new    " d="M90.8,21.9c0,2.4-1.9,4.3-4.3,4.3c2.4,0,4.3,1.9,4.3,4.3
		c0-2.4,1.9-4.3,4.3-4.3C92.7,26.2,90.8,24.3,90.8,21.9z"/>
	<path opacity="0.5" fill="#FFFFFF" enable-background="new    " d="M153.8,33.7c0,2.4-1.9,4.3-4.3,4.3c2.4,0,4.3,1.9,4.3,4.3
		c0-2.4,1.9-4.3,4.3-4.3C155.8,38,153.8,36.1,153.8,33.7z"/>
	<path opacity="0.5" fill="#FFFFFF" enable-background="new    " d="M66.3,86.6c0,2.4-1.9,4.3-4.3,4.3c2.4,0,4.3,1.9,4.3,4.3
		c0-2.4,1.9-4.3,4.3-4.3C68.2,91,66.3,89,66.3,86.6z"/>
	
		<linearGradient id="SVGID_10_" gradientUnits="userSpaceOnUse" x1="153.827" y1="108.998" x2="199.462" y2="108.998" gradientTransform="matrix(1 0 0 -1 0 158)">
		<stop  offset="0" style="stop-color:#E74945"/>
		<stop  offset="1" style="stop-color:#EE4E2E"/>
	</linearGradient>
	<path fill="url(#SVGID_10_)" d="M199.5,49c0,0.9-0.7,1.6-1.6,1.6h-42.4c-0.9,0-1.6-0.7-1.6-1.6l0,0c0-0.9,0.7-1.6,1.6-1.6h42.4
		C198.7,47.4,199.5,48.1,199.5,49L199.5,49z"/>
	
		<linearGradient id="SVGID_11_" gradientUnits="userSpaceOnUse" x1="17.83" y1="83.426" x2="63.464" y2="83.426" gradientTransform="matrix(1 0 0 -1 0 158)">
		<stop  offset="0" style="stop-color:#E74945"/>
		<stop  offset="1" style="stop-color:#EE4E2E"/>
	</linearGradient>
	<path fill="url(#SVGID_11_)" d="M63.5,74.6c0,0.9-0.7,1.6-1.6,1.6H19.5c-0.9,0-1.6-0.7-1.6-1.6l0,0c0-0.9,0.7-1.6,1.6-1.6h42.4
		C62.7,72.9,63.5,73.7,63.5,74.6L63.5,74.6z"/>
	<path opacity="0.5" fill="#C0D6DD" enable-background="new    " d="M172.3,124.8c0,0.9-0.7,1.6-1.6,1.6h-42.4
		c-0.9,0-1.6-0.7-1.6-1.6l0,0c0-0.9,0.7-1.6,1.6-1.6h42.4C171.6,123.1,172.3,123.9,172.3,124.8L172.3,124.8z"/>
	<path opacity="0.5" fill="#FFFFFF" enable-background="new    " d="M144.5,112.1c0,2.4-1.9,4.3-4.3,4.3c2.4,0,4.3,1.9,4.3,4.3
		c0-2.4,1.9-4.3,4.3-4.3C146.5,116.4,144.5,114.4,144.5,112.1z"/>
</g>
</svg>
