<?xml version="1.0" encoding="utf-8"?>
<!-- Generator: Adobe Illustrator 22.0.1, SVG Export Plug-In . SVG Version: 6.00 Build 0)  -->
<svg version="1.0" id="Layer_1" xmlns="http://www.w3.org/2000/svg" xmlns:xlink="http://www.w3.org/1999/xlink" x="0px" y="0px"
	 viewBox="0 0 208.9 158.1" enable-background="new 0 0 208.9 158.1" xml:space="preserve">
<g>
	
		<linearGradient id="SVGID_1_" gradientUnits="userSpaceOnUse" x1="-397.6929" y1="16.6968" x2="-397.6929" y2="139.5505" gradientTransform="matrix(-1 0 0 -1 -284.042 158)">
		<stop  offset="0" style="stop-color:#E74744"/>
		<stop  offset="1" style="stop-color:#EE5E2E"/>
	</linearGradient>
	<path fill="url(#SVGID_1_)" d="M51.5,78.1C41,73.6,33.6,62.5,33.6,49.4c0-16.5,11.8-29.9,26.6-30.8v-0.1h68.4v0.1
		c14.9,0.8,26.7,14.3,26.7,30.8c0,0.8,0,1.5-0.1,2.3h15.3v0.1c12.8,0.7,23.1,12.4,23.1,26.6c0,14.3-10.2,25.9-23.1,26.6v0.1h-8.7
		c0.6,2.5,1,5.1,1,7.8c0,15.2-10.9,27.6-24.6,28.4v0.1h-63v-0.1c-13.6-0.8-24.5-13.2-24.5-28.4c0-9.6,4.3-18,10.9-23.2
		C57.3,87.1,53.7,83,51.5,78.1z"/>
	<g>
		<g>
			<defs>
				<path id="SVGID_71_" d="M51.5,78.1C41,73.6,33.6,62.5,33.6,49.4c0-16.5,11.8-29.9,26.6-30.8v-0.1h68.4v0.1
					c14.9,0.8,26.7,14.3,26.7,30.8c0,0.8,0,1.5-0.1,2.3h15.3v0.1c12.8,0.7,23.1,12.4,23.1,26.6c0,14.3-10.2,25.9-23.1,26.6v0.1h-8.7
					c0.6,2.5,1,5.1,1,7.8c0,15.2-10.9,27.6-24.6,28.4v0.1h-63v-0.1c-13.6-0.8-24.5-13.2-24.5-28.4c0-9.6,4.3-18,10.9-23.2
					C57.3,87.1,53.7,83,51.5,78.1z"/>
			</defs>
			<clipPath id="SVGID_2_">
				<use xlink:href="#SVGID_71_"  overflow="visible"/>
			</clipPath>
			<path opacity="0.2" clip-path="url(#SVGID_2_)" fill="#FFCD2E" enable-background="new    " d="M93.8,13.6l-15.9,6.8l3,18.2
				c0.3,0,0.6,0.1,0.9,0.1c0.3,0,0.5,0,0.8,0c0,0,0.1,0,0.1,0c0,0.3-0.1,0.6-0.1,0.9c0,0.3,0,0.6,0.1,0.9c0,0-0.1,0-0.1,0
				c-0.3,0-0.5,0-0.8,0c-0.3,0-0.6,0-0.9,0.1c0,0,0,0,0,0c-2.8,2.1-5.4,4.5-7.7,7.1c0.2,0,0.5,0,0.7,0c0,0.3-0.1,0.6-0.1,0.9
				c0,0.3,0,0.6,0.1,0.9c-0.3,0-0.6-0.1-0.9-0.1c-0.3,0-0.6,0-0.9,0.1c0-0.2,0-0.3,0-0.5c-0.8,1-1.6,1.9-2.3,2.9l-13.6-2.6
				c0,0,0,0.1,0,0.1c-0.3,0-0.6-0.1-0.9-0.1c-0.3,0-0.6,0-0.9,0.1c0-0.1,0-0.3,0-0.4l-4.1-0.8l-3.3,8.2c0.1,0,0.1,0,0.2,0
				c0,0,0.1,0,0.1,0c0,0.3-0.1,0.6-0.1,1c0,0.3,0,0.6,0.1,0.9c0,0-0.1,0-0.1,0c-0.3,0-0.5,0-0.8,0c0,0-0.1,0-0.1,0l-2.4,6.1L60,75.9
				c-0.7,5.3-0.7,10.8,0.2,16.2l-15.5,10.6l6.8,15.9l18.7-3.1c0.8,1,1.6,2,2.4,3c0.1,0,0.1,0,0.2,0c0.3,0,0.6,0,0.9-0.1
				c0,0.3-0.1,0.6-0.1,0.9c0,0.1,0,0.2,0,0.4c2.4,2.6,5,4.9,7.8,6.9l-0.1,0.7c0.1,0,0.2,0,0.3,0c0.3,0,0.5,0,0.8,0c0,0,0.1,0,0.1,0
				c0,0.3-0.1,0.6-0.1,0.9c0,0.3,0,0.6,0.1,1c0,0-0.1,0-0.1,0c-0.3,0-0.5,0-0.8,0c-0.2,0-0.4,0-0.6,0l-3.2,17.3l16.1,6.4l4.6-6.5
				c0-0.1,0-0.2,0-0.4c0-0.3,0-0.6-0.1-0.9c0.3,0,0.6,0.1,0.9,0.1l6.2-8.7c0.6,0.1,1.2,0.2,1.8,0.2c0-0.2,0-0.3,0-0.5
				c0.3,0,0.6,0.1,0.9,0.1c0.3,0,0.6,0,0.9-0.1c0,0.2,0,0.4,0,0.6c4.4,0.3,8.9,0.1,13.3-0.7l11,16.2l15.9-6.8l-3.3-19.9
				c4.1-3.2,7.7-7,10.7-11.2l19.5,3.7l6.4-16.1l-11.6-8.3c-0.2,0-0.5,0-0.7,0c-0.3,0-0.6,0-0.9,0.1c0-0.3,0.1-0.6,0.1-1
				c0-0.1,0-0.2,0-0.2l-3.1-2.2c0.7-5.1,0.6-10.4-0.2-15.6l12.3-8.4c0,0,0-0.1,0-0.1c0-0.3,0-0.6-0.1-1c0.3,0,0.6,0.1,0.9,0.1
				c0.2,0,0.4,0,0.6,0l3.5-2.4L176.7,47l-14.1,2.3c0,0,0,0.1,0,0.1c-0.1,0-0.3,0-0.4,0l-6.5,1.1c-3.3-4.3-7.2-7.9-11.5-11l3.6-19.3
				l-16.1-6.4L120.1,30c-3.5-0.5-7.1-0.6-10.8-0.3c0,0.3-0.1,0.6-0.1,0.9c0,0.3,0,0.6,0.1,1c-0.3,0-0.6-0.1-0.9-0.1
				c-0.3,0-0.6,0-0.9,0.1c0-0.3,0.1-0.6,0.1-1c0-0.3,0-0.5,0-0.8c-0.8,0.1-1.5,0.2-2.3,0.3l-5.1-7.5c-0.2,0-0.4,0-0.5,0
				c-0.3,0-0.6,0-0.9,0.1c0-0.3,0.1-0.6,0.1-0.9c0-0.3,0-0.6-0.1-1c0.1,0,0.2,0,0.2,0L93.8,13.6z M80.9,21.8c0-0.3,0-0.6-0.1-1
				c0.3,0,0.6,0.1,0.9,0.1c0.3,0,0.5,0,0.8,0c0,0,0.1,0,0.1,0c0,0.3-0.1,0.6-0.1,1c0,0.3,0,0.6,0.1,0.9c0,0-0.1,0-0.1,0
				c-0.3,0-0.5,0-0.8,0c-0.3,0-0.6,0-0.9,0.1C80.9,22.4,80.9,22.1,80.9,21.8z M98.6,38.6c0.3,0,0.6,0.1,0.9,0.1c0.3,0,0.6,0,1-0.1
				c0,0.3-0.1,0.6-0.1,0.9c0,0.3,0,0.6,0.1,0.9c-0.3,0-0.6-0.1-1-0.1c-0.3,0-0.6,0-0.9,0.1c0-0.3,0.1-0.6,0.1-0.9
				C98.6,39.2,98.6,38.9,98.6,38.6z M116.3,38.6c0.3,0,0.6,0.1,0.9,0.1c0.3,0,0.5,0,0.8,0c0,0,0.1,0,0.1,0c0,0.3-0.1,0.6-0.1,0.9
				c0,0.3,0,0.6,0.1,0.9c0,0-0.1,0-0.1,0c-0.3,0-0.5,0-0.8,0c-0.3,0-0.6,0-0.9,0.1c0-0.3,0.1-0.6,0.1-0.9
				C116.4,39.2,116.4,38.9,116.3,38.6z M162.6,102.6c-0.3,0-0.6-0.1-0.9-0.1c-0.3,0-0.6,0-0.9,0.1c0-0.3,0.1-0.6,0.1-0.9
				s0-0.6-0.1-1c0.3,0,0.6,0.1,0.9,0.1c0.3,0,0.6,0,0.9-0.1c0,0.3-0.1,0.6-0.1,1S162.6,102.3,162.6,102.6z M127,119.4
				c0,0.3,0,0.6,0.1,1c-0.3,0-0.6-0.1-1-0.1c-0.3,0-0.6,0-0.9,0.1c0-0.3,0.1-0.6,0.1-1c0-0.3,0-0.6-0.1-0.9c0.3,0,0.6,0.1,0.9,0.1
				c0.3,0,0.6,0,1-0.1C127.1,118.8,127,119.1,127,119.4z M136,129.3c-0.3,0-0.6-0.1-0.9-0.1c-0.3,0-0.6,0-1,0.1c0-0.3,0.1-0.6,0.1-1
				c0-0.3,0-0.6-0.1-0.9c0.3,0,0.6,0.1,1,0.1c0.3,0,0.6,0,0.9-0.1c0,0.3-0.1,0.6-0.1,0.9C135.9,128.6,135.9,129,136,129.3z
				 M153.7,93.8c0,0-0.1,0-0.1,0c-0.3,0-0.5,0-0.8,0c-0.3,0-0.6,0-0.9,0.1c0-0.3,0.1-0.6,0.1-1c0-0.3,0-0.6-0.1-0.9
				c0.3,0,0.6,0.1,0.9,0.1c0.3,0,0.5,0,0.8,0c0,0,0.1,0,0.1,0c0,0.3-0.1,0.6-0.1,0.9C153.7,93.1,153.7,93.4,153.7,93.8z M153.7,76
				c0,0-0.1,0-0.1,0c-0.3,0-0.5,0-0.8,0c-0.3,0-0.6,0-0.9,0.1c0-0.3,0.1-0.6,0.1-1c0-0.3,0-0.6-0.1-0.9c0.3,0,0.6,0.1,0.9,0.1
				c0.3,0,0.5,0,0.8,0c0,0,0.1,0,0.1,0c0,0.3-0.1,0.6-0.1,0.9C153.7,75.4,153.7,75.7,153.7,76z M144.9,49.4c-0.3,0-0.6-0.1-1-0.1
				c-0.3,0-0.6,0-0.9,0.1c0-0.3,0.1-0.6,0.1-0.9c0-0.3,0-0.6-0.1-0.9c0.3,0,0.6,0.1,0.9,0.1c0.3,0,0.6,0,1-0.1
				c0,0.3-0.1,0.6-0.1,0.9C144.8,48.7,144.8,49.1,144.9,49.4z M136,40.5c-0.3,0-0.6-0.1-0.9-0.1c-0.3,0-0.6,0-1,0.1
				c0-0.3,0.1-0.6,0.1-0.9c0-0.3,0-0.6-0.1-0.9c0.3,0,0.6,0.1,1,0.1c0.3,0,0.6,0,0.9-0.1c0,0.3-0.1,0.6-0.1,0.9
				C135.9,39.9,135.9,40.2,136,40.5z M125.3,48.4c0-0.3,0-0.6-0.1-0.9c0.3,0,0.6,0.1,0.9,0.1c0.3,0,0.6,0,1-0.1
				c0,0.3-0.1,0.6-0.1,0.9c0,0.3,0,0.6,0.1,0.9c-0.3,0-0.6-0.1-1-0.1c-0.3,0-0.6,0-0.9,0.1C125.2,49.1,125.3,48.7,125.3,48.4z
				 M127,30.7c0,0.3,0,0.6,0.1,1c-0.3,0-0.6-0.1-1-0.1c-0.3,0-0.6,0-0.9,0.1c0-0.3,0.1-0.6,0.1-1c0-0.3,0-0.6-0.1-0.9
				c0.3,0,0.6,0.1,0.9,0.1c0.3,0,0.6,0,1-0.1C127.1,30,127,30.4,127,30.7z M144.5,65.3c0.1,0,0.3,0,0.4,0c0,0.2,0,0.4,0,0.6
				c0.7,1.2,1.4,2.5,1.9,3.8c4.6,10.7,3.5,22.5-1.9,31.9c0,0.1,0,0.1,0,0.2c0,0.3,0,0.6,0.1,0.9c-0.2,0-0.5,0-0.7,0
				c-3.7,5.9-9.1,10.7-16,13.7c-6.2,2.7-12.7,3.4-18.9,2.6c0,0.2,0,0.4,0,0.6c0,0.3,0,0.6,0.1,1c-0.3,0-0.6-0.1-0.9-0.1
				c-0.3,0-0.6,0-0.9,0.1c0-0.3,0.1-0.6,0.1-1c0-0.3,0-0.6-0.1-0.9c-11.1-2.2-21.1-9.6-25.9-20.8c-7.7-18,0.6-38.9,18.6-46.6
				c2.4-1,4.9-1.8,7.4-2.3c0-0.1,0-0.3,0-0.4c0-0.3,0-0.6-0.1-0.9c0.3,0,0.6,0.1,0.9,0.1c0.3,0,0.6,0,0.9-0.1c0,0.3-0.1,0.6-0.1,0.9
				c0,0,0,0.1,0,0.1C123.1,46.6,137.1,53.1,144.5,65.3z M73.8,102.6c-0.3,0-0.6-0.1-0.9-0.1c-0.3,0-0.6,0-0.9,0.1
				c0-0.3,0.1-0.6,0.1-0.9s0-0.6-0.1-1c0.3,0,0.6,0.1,0.9,0.1c0.3,0,0.6,0,0.9-0.1c0,0.3-0.1,0.6-0.1,1S73.8,102.3,73.8,102.6z
				 M72,65.2c0.3,0,0.6,0.1,0.9,0.1c0.3,0,0.6,0,0.9-0.1c0,0.3-0.1,0.6-0.1,1c0,0.3,0,0.6,0.1,0.9c-0.3,0-0.6-0.1-0.9-0.1
				c-0.3,0-0.6,0-0.9,0.1c0-0.3,0.1-0.6,0.1-0.9C72,65.9,72,65.5,72,65.2z M72.9,84.8c-0.3,0-0.6,0-0.9,0.1c0-0.3,0.1-0.6,0.1-1
				c0-0.3,0-0.6-0.1-0.9c0.3,0,0.6,0.1,0.9,0.1c0.3,0,0.6,0,0.9-0.1c0,0.3-0.1,0.6-0.1,0.9c0,0.3,0,0.6,0.1,1
				C73.5,84.8,73.2,84.8,72.9,84.8z M89.8,119.4c0-0.3,0-0.6-0.1-0.9c0.3,0,0.6,0.1,0.9,0.1c0.3,0,0.6,0,0.9-0.1
				c0,0.3-0.1,0.6-0.1,0.9c0,0.3,0,0.6,0.1,1c-0.3,0-0.6-0.1-0.9-0.1c-0.3,0-0.6,0-0.9,0.1C89.7,120.1,89.8,119.8,89.8,119.4z
				 M98.6,128.3c0-0.3,0-0.6-0.1-0.9c0.3,0,0.6,0.1,0.9,0.1c0.3,0,0.6,0,1-0.1c0,0.3-0.1,0.6-0.1,0.9c0,0.3,0,0.6,0.1,1
				c-0.3,0-0.6-0.1-1-0.1c-0.3,0-0.6,0-0.9,0.1C98.6,129,98.6,128.6,98.6,128.3z M91.5,48.4c0,0.3,0,0.6,0.1,0.9
				c-0.3,0-0.6-0.1-0.9-0.1c-0.3,0-0.6,0-0.9,0.1c0-0.3,0.1-0.6,0.1-0.9c0-0.3,0-0.6-0.1-0.9c0.3,0,0.6,0.1,0.9,0.1
				c0.3,0,0.6,0,0.9-0.1C91.6,47.8,91.5,48.1,91.5,48.4z M82.6,56.4c0,0,0.1,0,0.1,0c0,0.3-0.1,0.6-0.1,1c0,0.3,0,0.6,0.1,0.9
				c0,0-0.1,0-0.1,0c-0.3,0-0.5,0-0.8,0c-0.3,0-0.6,0-0.9,0.1c0-0.3,0.1-0.6,0.1-0.9c0-0.3,0-0.6-0.1-1c0.3,0,0.6,0.1,0.9,0.1
				C82.1,56.4,82.3,56.4,82.6,56.4z M65,56.4c0,0.3-0.1,0.6-0.1,1c0,0.3,0,0.6,0.1,0.9c-0.3,0-0.6-0.1-0.9-0.1c-0.3,0-0.6,0-0.9,0.1
				c0-0.3,0.1-0.6,0.1-0.9c0-0.3,0-0.6-0.1-1c0.3,0,0.6,0.1,0.9,0.1C64.3,56.4,64.7,56.4,65,56.4z M54.2,67.1c0-0.3,0.1-0.6,0.1-0.9
				c0-0.3,0-0.6-0.1-1c0.3,0,0.6,0.1,0.9,0.1c0.3,0,0.6,0,0.9-0.1c0,0.3-0.1,0.6-0.1,1c0,0.3,0,0.6,0.1,0.9c-0.3,0-0.6-0.1-0.9-0.1
				C54.8,67.1,54.5,67.1,54.2,67.1z M63.1,75.1c0-0.3,0-0.6-0.1-0.9c0.3,0,0.6,0.1,0.9,0.1c0.3,0,0.6,0,0.9-0.1
				c0,0.3-0.1,0.6-0.1,0.9c0,0.3,0,0.6,0.1,1c-0.3,0-0.6-0.1-0.9-0.1c-0.3,0-0.6,0-0.9,0.1C63.1,75.7,63.1,75.4,63.1,75.1z
				 M63.1,91.9c0.3,0,0.6,0.1,0.9,0.1c0.3,0,0.6,0,0.9-0.1c0,0.3-0.1,0.6-0.1,0.9c0,0.3,0,0.6,0.1,1c-0.3,0-0.6-0.1-0.9-0.1
				c-0.3,0-0.6,0-0.9,0.1c0-0.3,0.1-0.6,0.1-1C63.1,92.5,63.1,92.2,63.1,91.9z M56.1,100.7c0,0.3-0.1,0.6-0.1,1s0,0.6,0.1,0.9
				c-0.3,0-0.6-0.1-0.9-0.1c-0.3,0-0.6,0-0.9,0.1c0-0.3,0.1-0.6,0.1-0.9s0-0.6-0.1-1c0.3,0,0.6,0.1,0.9,0.1
				C55.5,100.8,55.8,100.8,56.1,100.7z M64,111.5c-0.3,0-0.6,0-0.9,0.1c0-0.3,0.1-0.6,0.1-0.9c0-0.3,0-0.6-0.1-0.9
				c0.3,0,0.6,0.1,0.9,0.1c0.3,0,0.6,0,0.9-0.1c0,0.3-0.1,0.6-0.1,0.9c0,0.3,0,0.6,0.1,0.9C64.7,111.5,64.3,111.5,64,111.5z
				 M81.8,111.5c-0.3,0-0.6,0-0.9,0.1c0-0.3,0.1-0.6,0.1-0.9c0-0.3,0-0.6-0.1-0.9c0.3,0,0.6,0.1,0.9,0.1c0.3,0,0.5,0,0.8,0
				c0,0,0.1,0,0.1,0c0,0.3-0.1,0.6-0.1,0.9c0,0.3,0,0.6,0.1,0.9c0,0-0.1,0-0.1,0C82.3,111.5,82.1,111.5,81.8,111.5z M81.8,147
				c-0.3,0-0.6,0-0.9,0.1c0-0.3,0.1-0.6,0.1-0.9c0-0.3,0-0.6-0.1-0.9c0.3,0,0.6,0.1,0.9,0.1c0.3,0,0.5,0,0.8,0c0,0,0.1,0,0.1,0
				c0,0.3-0.1,0.6-0.1,0.9s0,0.6,0.1,0.9c0,0-0.1,0-0.1,0C82.3,147,82.1,147,81.8,147z M91.6,138.1c-0.3,0-0.6-0.1-0.9-0.1
				c-0.3,0-0.6,0-0.9,0.1c0-0.3,0.1-0.6,0.1-0.9c0-0.3,0-0.6-0.1-1c0.3,0,0.6,0.1,0.9,0.1c0.3,0,0.6,0,0.9-0.1c0,0.3-0.1,0.6-0.1,1
				C91.5,137.5,91.6,137.8,91.6,138.1z M117.3,129.2c-0.3,0-0.6,0-0.9,0.1c0-0.3,0.1-0.6,0.1-1c0-0.3,0-0.6-0.1-0.9
				c0.3,0,0.6,0.1,0.9,0.1c0.3,0,0.5,0,0.8,0c0,0,0.1,0,0.1,0c0,0.3-0.1,0.6-0.1,0.9c0,0.3,0,0.6,0.1,1c0,0-0.1,0-0.1,0
				C117.8,129.2,117.6,129.2,117.3,129.2z M125.2,138.1c0-0.3,0.1-0.6,0.1-0.9c0-0.3,0-0.6-0.1-1c0.3,0,0.6,0.1,0.9,0.1
				c0.3,0,0.6,0,1-0.1c0,0.3-0.1,0.6-0.1,1c0,0.3,0,0.6,0.1,0.9c-0.3,0-0.6-0.1-1-0.1C125.8,138.1,125.5,138.1,125.2,138.1z
				 M135,147c-0.3,0-0.6,0-1,0.1c0-0.3,0.1-0.6,0.1-0.9c0-0.3,0-0.6-0.1-0.9c0.3,0,0.6,0.1,1,0.1c0.3,0,0.6,0,0.9-0.1
				c0,0.3-0.1,0.6-0.1,0.9c0,0.3,0,0.6,0.1,0.9C135.7,147,135.4,147,135,147z M144.9,138.1c-0.3,0-0.6-0.1-1-0.1
				c-0.3,0-0.6,0-0.9,0.1c0-0.3,0.1-0.6,0.1-0.9c0-0.3,0-0.6-0.1-1c0.3,0,0.6,0.1,0.9,0.1c0.3,0,0.6,0,1-0.1c0,0.3-0.1,0.6-0.1,1
				C144.8,137.5,144.8,137.8,144.9,138.1z M143.9,120.3c-0.3,0-0.6,0-0.9,0.1c0-0.3,0.1-0.6,0.1-1c0-0.3,0-0.6-0.1-0.9
				c0.3,0,0.6,0.1,0.9,0.1c0.3,0,0.6,0,1-0.1c0,0.3-0.1,0.6-0.1,0.9c0,0.3,0,0.6,0.1,1C144.6,120.4,144.2,120.3,143.9,120.3z
				 M152.8,111.5c-0.3,0-0.6,0-0.9,0.1c0-0.3,0.1-0.6,0.1-0.9c0-0.3,0-0.6-0.1-0.9c0.3,0,0.6,0.1,0.9,0.1c0.3,0,0.5,0,0.8,0
				c0,0,0.1,0,0.1,0c0,0.3-0.1,0.6-0.1,0.9c0,0.3,0,0.6,0.1,0.9c0,0-0.1,0-0.1,0C153.3,111.5,153.1,111.5,152.8,111.5z M169.6,111.5
				c0-0.3,0.1-0.6,0.1-0.9c0-0.3,0-0.6-0.1-0.9c0.3,0,0.6,0.1,0.9,0.1c0.3,0,0.6,0,1-0.1c0,0.3-0.1,0.6-0.1,0.9c0,0.3,0,0.6,0.1,0.9
				c-0.3,0-0.6-0.1-1-0.1C170.2,111.5,169.9,111.5,169.6,111.5z M179.4,100.8c0.3,0,0.6,0,0.9-0.1c0,0.3-0.1,0.6-0.1,1
				s0,0.6,0.1,0.9c-0.3,0-0.6-0.1-0.9-0.1c-0.3,0-0.6,0-0.9,0.1c0-0.3,0.1-0.6,0.1-0.9s0-0.6-0.1-1
				C178.8,100.8,179.1,100.8,179.4,100.8z M162.6,84.9c-0.3,0-0.6-0.1-0.9-0.1c-0.3,0-0.6,0-0.9,0.1c0-0.3,0.1-0.6,0.1-1
				c0-0.3,0-0.6-0.1-0.9c0.3,0,0.6,0.1,0.9,0.1c0.3,0,0.6,0,0.9-0.1c0,0.3-0.1,0.6-0.1,0.9C162.6,84.3,162.6,84.6,162.6,84.9z
				 M162.6,67.1c-0.3,0-0.6-0.1-0.9-0.1c-0.3,0-0.6,0-0.9,0.1c0-0.3,0.1-0.6,0.1-0.9c0-0.3,0-0.6-0.1-1c0.3,0,0.6,0.1,0.9,0.1
				c0.3,0,0.6,0,0.9-0.1c0,0.3-0.1,0.6-0.1,1C162.6,66.5,162.6,66.8,162.6,67.1z M171.5,56.4c0,0.3-0.1,0.6-0.1,1
				c0,0.3,0,0.6,0.1,0.9c-0.3,0-0.6-0.1-1-0.1c-0.3,0-0.6,0-0.9,0.1c0-0.3,0.1-0.6,0.1-0.9c0-0.3,0-0.6-0.1-1c0.3,0,0.6,0.1,0.9,0.1
				C170.9,56.4,171.2,56.4,171.5,56.4z M153.6,56.4c0,0,0.1,0,0.1,0c0,0.3-0.1,0.6-0.1,1c0,0.3,0,0.6,0.1,0.9c0,0-0.1,0-0.1,0
				c-0.3,0-0.5,0-0.8,0c-0.3,0-0.6,0-0.9,0.1c0-0.3,0.1-0.6,0.1-0.9c0-0.3,0-0.6-0.1-1c0.3,0,0.6,0.1,0.9,0.1
				C153.1,56.4,153.3,56.4,153.6,56.4z M144.9,31.6c-0.3,0-0.6-0.1-1-0.1c-0.3,0-0.6,0-0.9,0.1c0-0.3,0.1-0.6,0.1-1
				c0-0.3,0-0.6-0.1-0.9c0.3,0,0.6,0.1,0.9,0.1c0.3,0,0.6,0,1-0.1c0,0.3-0.1,0.6-0.1,0.9C144.8,31,144.8,31.3,144.9,31.6z M136,20.8
				c0,0.3-0.1,0.6-0.1,1c0,0.3,0,0.6,0.1,0.9c-0.3,0-0.6-0.1-0.9-0.1c-0.3,0-0.6,0-1,0.1c0-0.3,0.1-0.6,0.1-0.9c0-0.3,0-0.6-0.1-1
				c0.3,0,0.6,0.1,1,0.1C135.4,20.9,135.7,20.9,136,20.8z M91.6,31.6c-0.3,0-0.6-0.1-0.9-0.1c-0.3,0-0.6,0-0.9,0.1
				c0-0.3,0.1-0.6,0.1-1c0-0.3,0-0.6-0.1-0.9c0.3,0,0.6,0.1,0.9,0.1c0.3,0,0.6,0,0.9-0.1c0,0.3-0.1,0.6-0.1,0.9
				C91.5,31,91.6,31.3,91.6,31.6z"/>
		</g>
	</g>
	<path opacity="0.5" fill="#FFFFFF" enable-background="new    " d="M62.3,27.7c0,2.3-1.9,4.2-4.2,4.2c2.3,0,4.2,1.9,4.2,4.2
		c0-2.3,1.9-4.2,4.2-4.2C64.2,31.9,62.3,30,62.3,27.7z"/>
	<path opacity="0.5" fill="#FFFFFF" enable-background="new    " d="M74.9,58.5c0,2.3-1.9,4.2-4.2,4.2c2.3,0,4.2,1.9,4.2,4.2
		c0-2.3,1.9-4.2,4.2-4.2C76.8,62.7,74.9,60.8,74.9,58.5z"/>
	<path opacity="0.5" fill="#FFFFFF" enable-background="new    " d="M136.8,112.1c0,2.3-1.9,4.2-4.2,4.2c2.3,0,4.2,1.9,4.2,4.2
		c0-2.3,1.9-4.2,4.2-4.2C138.7,116.3,136.8,114.5,136.8,112.1z"/>
	
		<linearGradient id="SVGID_3_" gradientUnits="userSpaceOnUse" x1="162.0934" y1="123.6876" x2="170.4732" y2="123.6876" gradientTransform="matrix(1 0 0 -1 0 158)">
		<stop  offset="0" style="stop-color:#E74744"/>
		<stop  offset="1" style="stop-color:#EE5E2E"/>
	</linearGradient>
	<path fill="url(#SVGID_3_)" d="M166.3,30.1c0,2.3-1.9,4.2-4.2,4.2c2.3,0,4.2,1.9,4.2,4.2c0-2.3,1.9-4.2,4.2-4.2
		C168.2,34.3,166.3,32.4,166.3,30.1z"/>
	
		<linearGradient id="SVGID_4_" gradientUnits="userSpaceOnUse" x1="106.9228" y1="150.155" x2="115.3026" y2="150.155" gradientTransform="matrix(1 0 0 -1 0 158)">
		<stop  offset="0" style="stop-color:#E74744"/>
		<stop  offset="1" style="stop-color:#EE5E2E"/>
	</linearGradient>
	<path fill="url(#SVGID_4_)" d="M111.1,3.7c0,2.3-1.9,4.2-4.2,4.2c2.3,0,4.2,1.9,4.2,4.2c0-2.3,1.9-4.2,4.2-4.2
		C113,7.8,111.1,6,111.1,3.7z"/>
	
		<linearGradient id="SVGID_5_" gradientUnits="userSpaceOnUse" x1="167.6267" y1="37.4774" x2="176.0065" y2="37.4774" gradientTransform="matrix(1 0 0 -1 0 158)">
		<stop  offset="0" style="stop-color:#E74744"/>
		<stop  offset="1" style="stop-color:#EE5E2E"/>
	</linearGradient>
	<path fill="url(#SVGID_5_)" d="M171.8,116.3c0,2.3-1.9,4.2-4.2,4.2c2.3,0,4.2,1.9,4.2,4.2c0-2.3,1.9-4.2,4.2-4.2
		C173.7,120.5,171.8,118.6,171.8,116.3z"/>
	
		<linearGradient id="SVGID_6_" gradientUnits="userSpaceOnUse" x1="66.4968" y1="7.758" x2="74.8766" y2="7.758" gradientTransform="matrix(1 0 0 -1 0 158)">
		<stop  offset="0" style="stop-color:#E74744"/>
		<stop  offset="1" style="stop-color:#EE5E2E"/>
	</linearGradient>
	<path fill="url(#SVGID_6_)" d="M70.7,146.1c0,2.3-1.9,4.2-4.2,4.2c2.3,0,4.2,1.9,4.2,4.2c0-2.3,1.9-4.2,4.2-4.2
		C72.6,150.2,70.7,148.4,70.7,146.1z"/>
	
		<linearGradient id="SVGID_7_" gradientUnits="userSpaceOnUse" x1="37.6755" y1="72.255" x2="46.0553" y2="72.255" gradientTransform="matrix(1 0 0 -1 0 158)">
		<stop  offset="0" style="stop-color:#E74744"/>
		<stop  offset="1" style="stop-color:#EE5E2E"/>
	</linearGradient>
	<path fill="url(#SVGID_7_)" d="M41.9,81.6c0,2.3-1.9,4.2-4.2,4.2c2.3,0,4.2,1.9,4.2,4.2c0-2.3,1.9-4.2,4.2-4.2
		C43.7,85.7,41.9,83.9,41.9,81.6z"/>
	<path opacity="0.3" fill="#FFCD2E" enable-background="new    " d="M107.3,20.9l-7,3l1.3,8c0.1,0,0.3,0,0.4,0c0.1,0,0.2,0,0.4,0
		c0,0,0,0,0.1,0c0,0.1,0,0.3,0,0.4c0,0.1,0,0.3,0,0.4c0,0,0,0-0.1,0c-0.1,0-0.2,0-0.4,0c-0.1,0-0.3,0-0.4,0c0,0,0,0,0,0
		c-1.2,0.9-2.4,2-3.4,3.1c0.1,0,0.2,0,0.3,0c0,0.1,0,0.3,0,0.4c0,0.1,0,0.3,0,0.4c-0.1,0-0.3,0-0.4,0c-0.1,0-0.3,0-0.4,0
		c0-0.1,0-0.1,0-0.2c-0.4,0.4-0.7,0.9-1,1.3l-6-1.1c0,0,0,0,0,0c-0.1,0-0.3,0-0.4,0s-0.3,0-0.4,0c0-0.1,0-0.1,0-0.2L88,36.1
		l-1.4,3.6c0,0,0.1,0,0.1,0c0,0,0,0,0.1,0c0,0.1,0,0.3,0,0.4c0,0.1,0,0.3,0,0.4c0,0,0,0-0.1,0c-0.1,0-0.2,0-0.4,0c0,0,0,0-0.1,0
		l-1.1,2.7l7.2,5.2c-0.3,2.3-0.3,4.7,0.1,7.1l-6.8,4.7l3,7l8.2-1.4c0.3,0.5,0.7,0.9,1.1,1.3c0,0,0.1,0,0.1,0c0.1,0,0.3,0,0.4,0
		c0,0.1,0,0.3,0,0.4c0,0.1,0,0.1,0,0.2c1.1,1.1,2.2,2.2,3.4,3.1l-0.1,0.3c0,0,0.1,0,0.1,0c0.1,0,0.2,0,0.4,0c0,0,0,0,0.1,0
		c0,0.1,0,0.3,0,0.4c0,0.1,0,0.3,0,0.4c0,0,0,0-0.1,0c-0.1,0-0.2,0-0.4,0c-0.1,0-0.2,0-0.3,0l-1.4,7.6l7.1,2.8l2-2.9
		c0-0.1,0-0.1,0-0.2c0-0.1,0-0.3,0-0.4c0.1,0,0.3,0,0.4,0l2.7-3.8c0.3,0,0.5,0.1,0.8,0.1c0-0.1,0-0.1,0-0.2c0.1,0,0.3,0,0.4,0
		s0.3,0,0.4,0c0,0.1,0,0.2,0,0.3c1.9,0.1,3.9,0.1,5.9-0.3l4.9,7.1l7-3l-1.4-8.8c1.8-1.4,3.4-3.1,4.7-4.9l8.6,1.6l2.8-7.1l-5.1-3.7
		c-0.1,0-0.2,0-0.3,0c-0.1,0-0.3,0-0.4,0c0-0.1,0-0.3,0-0.4c0,0,0-0.1,0-0.1l-1.4-1c0.3-2.3,0.3-4.6-0.1-6.9l5.4-3.7c0,0,0,0,0-0.1
		c0-0.1,0-0.3,0-0.4c0.1,0,0.3,0,0.4,0c0.1,0,0.2,0,0.3,0l1.5-1.1l-3-7l-6.2,1c0,0,0,0,0,0c-0.1,0-0.1,0-0.2,0l-2.9,0.5
		c-1.5-1.9-3.2-3.5-5.1-4.8l1.6-8.5L124,21l-5.1,7.2c-1.6-0.2-3.2-0.2-4.7-0.1c0,0.1,0,0.3,0,0.4c0,0.1,0,0.3,0,0.4
		c-0.1,0-0.3,0-0.4,0s-0.3,0-0.4,0c0-0.1,0-0.3,0-0.4c0-0.1,0-0.2,0-0.3c-0.3,0-0.7,0.1-1,0.1l-2.3-3.3c-0.1,0-0.2,0-0.2,0
		c-0.1,0-0.3,0-0.4,0c0-0.1,0-0.3,0-0.4c0-0.1,0-0.3,0-0.4c0,0,0.1,0,0.1,0L107.3,20.9z M101.6,24.5c0-0.1,0-0.3,0-0.4
		c0.1,0,0.3,0,0.4,0c0.1,0,0.2,0,0.4,0c0,0,0,0,0.1,0c0,0.1,0,0.3,0,0.4c0,0.1,0,0.3,0,0.4c0,0,0,0-0.1,0c-0.1,0-0.2,0-0.4,0
		c-0.1,0-0.3,0-0.4,0C101.6,24.8,101.6,24.7,101.6,24.5z M109.4,31.9c0.1,0,0.3,0,0.4,0s0.3,0,0.4,0c0,0.1,0,0.3,0,0.4s0,0.3,0,0.4
		c-0.1,0-0.3,0-0.4,0s-0.3,0-0.4,0c0-0.1,0-0.3,0-0.4C109.4,32.2,109.4,32.1,109.4,31.9z M117.2,31.9c0.1,0,0.3,0,0.4,0
		c0.1,0,0.2,0,0.4,0c0,0,0,0,0.1,0c0,0.1,0,0.3,0,0.4c0,0.1,0,0.3,0,0.4c0,0,0,0-0.1,0c-0.1,0-0.2,0-0.4,0c-0.1,0-0.3,0-0.4,0
		c0-0.1,0-0.3,0-0.4C117.2,32.2,117.2,32.1,117.2,31.9z M137.6,60.2c-0.1,0-0.3,0-0.4,0c-0.1,0-0.3,0-0.4,0c0-0.1,0-0.3,0-0.4
		c0-0.1,0-0.3,0-0.4c0.1,0,0.3,0,0.4,0c0.1,0,0.3,0,0.4,0c0,0.1,0,0.3,0,0.4C137.6,59.9,137.6,60,137.6,60.2z M121.9,67.6
		c0,0.1,0,0.3,0,0.4c-0.1,0-0.3,0-0.4,0c-0.1,0-0.3,0-0.4,0c0-0.1,0-0.3,0-0.4c0-0.1,0-0.3,0-0.4c0.1,0,0.3,0,0.4,0
		c0.1,0,0.3,0,0.4,0C122,67.3,121.9,67.4,121.9,67.6z M125.9,71.9c-0.1,0-0.3,0-0.4,0s-0.3,0-0.4,0c0-0.1,0-0.3,0-0.4
		c0-0.1,0-0.3,0-0.4c0.1,0,0.3,0,0.4,0s0.3,0,0.4,0c0,0.1,0,0.3,0,0.4C125.9,71.6,125.9,71.8,125.9,71.9z M133.7,56.3
		C133.7,56.2,133.7,56.2,133.7,56.3c-0.2,0-0.3,0-0.4,0c-0.1,0-0.3,0-0.4,0c0-0.1,0-0.3,0-0.4c0-0.1,0-0.3,0-0.4c0.1,0,0.3,0,0.4,0
		c0.1,0,0.2,0,0.4,0c0,0,0,0,0.1,0c0,0.1,0,0.3,0,0.4C133.7,56,133.7,56.1,133.7,56.3z M133.7,48.4
		C133.7,48.4,133.7,48.4,133.7,48.4c-0.2,0-0.3,0-0.4,0c-0.1,0-0.3,0-0.4,0c0-0.1,0-0.3,0-0.4c0-0.1,0-0.3,0-0.4c0.1,0,0.3,0,0.4,0
		c0.1,0,0.2,0,0.4,0c0,0,0,0,0.1,0c0,0.1,0,0.3,0,0.4C133.7,48.1,133.7,48.3,133.7,48.4z M129.8,36.7c-0.1,0-0.3,0-0.4,0
		c-0.1,0-0.3,0-0.4,0c0-0.1,0-0.3,0-0.4c0-0.1,0-0.3,0-0.4c0.1,0,0.3,0,0.4,0c0.1,0,0.3,0,0.4,0c0,0.1,0,0.3,0,0.4
		C129.8,36.4,129.8,36.5,129.8,36.7z M125.9,32.8c-0.1,0-0.3,0-0.4,0s-0.3,0-0.4,0c0-0.1,0-0.3,0-0.4c0-0.1,0-0.3,0-0.4
		c0.1,0,0.3,0,0.4,0s0.3,0,0.4,0c0,0.1,0,0.3,0,0.4C125.9,32.5,125.9,32.6,125.9,32.8z M121.2,36.3c0-0.1,0-0.3,0-0.4
		c0.1,0,0.3,0,0.4,0c0.1,0,0.3,0,0.4,0c0,0.1,0,0.3,0,0.4c0,0.1,0,0.3,0,0.4c-0.1,0-0.3,0-0.4,0c-0.1,0-0.3,0-0.4,0
		C121.1,36.5,121.2,36.4,121.2,36.3z M121.9,28.4c0,0.1,0,0.3,0,0.4c-0.1,0-0.3,0-0.4,0c-0.1,0-0.3,0-0.4,0c0-0.1,0-0.3,0-0.4
		c0-0.1,0-0.3,0-0.4c0.1,0,0.3,0,0.4,0c0.1,0,0.3,0,0.4,0C122,28.1,121.9,28.3,121.9,28.4z M129.6,43.7c0.1,0,0.1,0,0.2,0
		c0,0.1,0,0.2,0,0.3c0.3,0.5,0.6,1.1,0.8,1.7c2,4.7,1.6,9.9-0.9,14.1c0,0,0,0,0,0.1c0,0.1,0,0.3,0,0.4c-0.1,0-0.2,0-0.3,0
		c-1.6,2.6-4,4.7-7.1,6c-2.7,1.2-5.6,1.5-8.3,1.1c0,0.1,0,0.2,0,0.3c0,0.1,0,0.3,0,0.4c-0.1,0-0.3,0-0.4,0s-0.3,0-0.4,0
		c0-0.1,0-0.3,0-0.4c0-0.1,0-0.3,0-0.4c-4.9-0.9-9.3-4.2-11.4-9.2c-3.4-7.9,0.3-17.1,8.2-20.5c1.1-0.5,2.1-0.8,3.2-1
		c0-0.1,0-0.1,0-0.2c0-0.1,0-0.3,0-0.4c0.1,0,0.3,0,0.4,0s0.3,0,0.4,0c0,0.1,0,0.3,0,0.4c0,0,0,0,0,0.1
		C120.2,35.5,126.4,38.3,129.6,43.7z M98.5,60.2c-0.1,0-0.3,0-0.4,0c-0.1,0-0.3,0-0.4,0c0-0.1,0-0.3,0-0.4c0-0.1,0-0.3,0-0.4
		c0.1,0,0.3,0,0.4,0c0.1,0,0.3,0,0.4,0c0,0.1,0,0.3,0,0.4C98.4,59.9,98.5,60,98.5,60.2z M97.6,43.7c0.1,0,0.3,0,0.4,0
		c0.1,0,0.3,0,0.4,0c0,0.1,0,0.3,0,0.4c0,0.1,0,0.3,0,0.4c-0.1,0-0.3,0-0.4,0c-0.1,0-0.3,0-0.4,0c0-0.1,0-0.3,0-0.4
		C97.7,43.9,97.7,43.8,97.6,43.7z M98.1,52.3c-0.1,0-0.3,0-0.4,0c0-0.1,0-0.3,0-0.4c0-0.1,0-0.3,0-0.4c0.1,0,0.3,0,0.4,0
		c0.1,0,0.3,0,0.4,0c0,0.1,0,0.3,0,0.4c0,0.1,0,0.3,0,0.4C98.3,52.3,98.2,52.3,98.1,52.3z M105.5,67.6c0-0.1,0-0.3,0-0.4
		c0.1,0,0.3,0,0.4,0s0.3,0,0.4,0c0,0.1,0,0.3,0,0.4c0,0.1,0,0.3,0,0.4c-0.1,0-0.3,0-0.4,0s-0.3,0-0.4,0
		C105.5,67.9,105.5,67.7,105.5,67.6z M109.4,71.5c0-0.1,0-0.3,0-0.4c0.1,0,0.3,0,0.4,0s0.3,0,0.4,0c0,0.1,0,0.3,0,0.4
		c0,0.1,0,0.3,0,0.4c-0.1,0-0.3,0-0.4,0s-0.3,0-0.4,0C109.4,71.8,109.4,71.6,109.4,71.5z M106.3,36.3c0,0.1,0,0.3,0,0.4
		c-0.1,0-0.3,0-0.4,0s-0.3,0-0.4,0c0-0.1,0-0.3,0-0.4c0-0.1,0-0.3,0-0.4c0.1,0,0.3,0,0.4,0s0.3,0,0.4,0
		C106.3,36,106.3,36.1,106.3,36.3z M102.3,39.8C102.4,39.8,102.4,39.8,102.3,39.8c0,0.1,0,0.3,0,0.4c0,0.1,0,0.3,0,0.4
		c0,0,0,0-0.1,0c-0.1,0-0.2,0-0.4,0c-0.1,0-0.3,0-0.4,0c0-0.1,0-0.3,0-0.4s0-0.3,0-0.4c0.1,0,0.3,0,0.4,0
		C102.1,39.8,102.2,39.8,102.3,39.8z M94.6,39.8c0,0.1,0,0.3,0,0.4c0,0.1,0,0.3,0,0.4c-0.1,0-0.3,0-0.4,0s-0.3,0-0.4,0
		c0-0.1,0-0.3,0-0.4s0-0.3,0-0.4c0.1,0,0.3,0,0.4,0S94.4,39.8,94.6,39.8z M89.8,44.5c0-0.1,0-0.3,0-0.4c0-0.1,0-0.3,0-0.4
		c0.1,0,0.3,0,0.4,0s0.3,0,0.4,0c0,0.1,0,0.3,0,0.4c0,0.1,0,0.3,0,0.4c-0.1,0-0.3,0-0.4,0S89.9,44.5,89.8,44.5z M93.8,48
		c0-0.1,0-0.3,0-0.4c0.1,0,0.3,0,0.4,0c0.1,0,0.3,0,0.4,0c0,0.1,0,0.3,0,0.4s0,0.3,0,0.4c-0.1,0-0.3,0-0.4,0c-0.1,0-0.3,0-0.4,0
		C93.7,48.3,93.8,48.1,93.8,48z M93.7,55.4c0.1,0,0.3,0,0.4,0s0.3,0,0.4,0c0,0.1,0,0.3,0,0.4c0,0.1,0,0.3,0,0.4c-0.1,0-0.3,0-0.4,0
		s-0.3,0-0.4,0c0-0.1,0-0.3,0-0.4C93.8,55.7,93.7,55.5,93.7,55.4z M90.6,59.3c0,0.1,0,0.3,0,0.4c0,0.1,0,0.3,0,0.4
		c-0.1,0-0.3,0-0.4,0s-0.3,0-0.4,0c0-0.1,0-0.3,0-0.4c0-0.1,0-0.3,0-0.4c0.1,0,0.3,0,0.4,0S90.5,59.3,90.6,59.3z M94.1,64.1
		c-0.1,0-0.3,0-0.4,0c0-0.1,0-0.3,0-0.4c0-0.1,0-0.3,0-0.4c0.1,0,0.3,0,0.4,0s0.3,0,0.4,0c0,0.1,0,0.3,0,0.4s0,0.3,0,0.4
		C94.4,64.1,94.3,64.1,94.1,64.1z M102,64.1c-0.1,0-0.3,0-0.4,0c0-0.1,0-0.3,0-0.4c0-0.1,0-0.3,0-0.4c0.1,0,0.3,0,0.4,0
		c0.1,0,0.2,0,0.4,0c0,0,0,0,0.1,0c0,0.1,0,0.3,0,0.4s0,0.3,0,0.4c0,0,0,0-0.1,0C102.2,64.1,102.1,64.1,102,64.1z M102,79.7
		c-0.1,0-0.3,0-0.4,0c0-0.1,0-0.3,0-0.4s0-0.3,0-0.4c0.1,0,0.3,0,0.4,0c0.1,0,0.2,0,0.4,0c0,0,0,0,0.1,0c0,0.1,0,0.3,0,0.4
		s0,0.3,0,0.4c0,0,0,0-0.1,0C102.2,79.7,102.1,79.7,102,79.7z M106.3,75.8c-0.1,0-0.3,0-0.4,0s-0.3,0-0.4,0c0-0.1,0-0.3,0-0.4
		c0-0.1,0-0.3,0-0.4c0.1,0,0.3,0,0.4,0s0.3,0,0.4,0c0,0.1,0,0.3,0,0.4C106.3,75.5,106.3,75.7,106.3,75.8z M117.6,71.9
		c-0.1,0-0.3,0-0.4,0c0-0.1,0-0.3,0-0.4c0-0.1,0-0.3,0-0.4c0.1,0,0.3,0,0.4,0c0.1,0,0.2,0,0.4,0c0,0,0,0,0.1,0c0,0.1,0,0.3,0,0.4
		c0,0.1,0,0.3,0,0.4c0,0,0,0-0.1,0C117.9,71.9,117.8,71.9,117.6,71.9z M121.1,75.8c0-0.1,0-0.3,0-0.4c0-0.1,0-0.3,0-0.4
		c0.1,0,0.3,0,0.4,0c0.1,0,0.3,0,0.4,0c0,0.1,0,0.3,0,0.4c0,0.1,0,0.3,0,0.4c-0.1,0-0.3,0-0.4,0C121.4,75.8,121.3,75.8,121.1,75.8z
		 M125.5,79.7c-0.1,0-0.3,0-0.4,0c0-0.1,0-0.3,0-0.4s0-0.3,0-0.4c0.1,0,0.3,0,0.4,0s0.3,0,0.4,0c0,0.1,0,0.3,0,0.4s0,0.3,0,0.4
		C125.7,79.7,125.6,79.7,125.5,79.7z M129.8,75.8c-0.1,0-0.3,0-0.4,0c-0.1,0-0.3,0-0.4,0c0-0.1,0-0.3,0-0.4c0-0.1,0-0.3,0-0.4
		c0.1,0,0.3,0,0.4,0c0.1,0,0.3,0,0.4,0c0,0.1,0,0.3,0,0.4C129.8,75.5,129.8,75.7,129.8,75.8z M129.4,68c-0.1,0-0.3,0-0.4,0
		c0-0.1,0-0.3,0-0.4c0-0.1,0-0.3,0-0.4c0.1,0,0.3,0,0.4,0c0.1,0,0.3,0,0.4,0c0,0.1,0,0.3,0,0.4c0,0.1,0,0.3,0,0.4
		C129.7,68,129.5,68,129.4,68z M133.3,64.1c-0.1,0-0.3,0-0.4,0c0-0.1,0-0.3,0-0.4c0-0.1,0-0.3,0-0.4c0.1,0,0.3,0,0.4,0
		c0.1,0,0.2,0,0.4,0c0,0,0,0,0.1,0c0,0.1,0,0.3,0,0.4s0,0.3,0,0.4c0,0,0,0-0.1,0C133.5,64.1,133.4,64.1,133.3,64.1z M140.7,64.1
		c0-0.1,0-0.3,0-0.4c0-0.1,0-0.3,0-0.4c0.1,0,0.3,0,0.4,0s0.3,0,0.4,0c0,0.1,0,0.3,0,0.4s0,0.3,0,0.4c-0.1,0-0.3,0-0.4,0
		S140.8,64.1,140.7,64.1z M145,59.4c0.1,0,0.3,0,0.4,0c0,0.1,0,0.3,0,0.4s0,0.3,0,0.4c-0.1,0-0.3,0-0.4,0c-0.1,0-0.3,0-0.4,0
		c0-0.1,0-0.3,0-0.4c0-0.1,0-0.3,0-0.4C144.8,59.3,144.9,59.4,145,59.4z M137.6,52.3c-0.1,0-0.3,0-0.4,0c-0.1,0-0.3,0-0.4,0
		c0-0.1,0-0.3,0-0.4c0-0.1,0-0.3,0-0.4c0.1,0,0.3,0,0.4,0c0.1,0,0.3,0,0.4,0c0,0.1,0,0.3,0,0.4C137.6,52.1,137.6,52.2,137.6,52.3z
		 M137.6,44.5c-0.1,0-0.3,0-0.4,0c-0.1,0-0.3,0-0.4,0c0-0.1,0-0.3,0-0.4c0-0.1,0-0.3,0-0.4c0.1,0,0.3,0,0.4,0c0.1,0,0.3,0,0.4,0
		c0,0.1,0,0.3,0,0.4C137.6,44.2,137.6,44.4,137.6,44.5z M141.5,39.8c0,0.1,0,0.3,0,0.4c0,0.1,0,0.3,0,0.4c-0.1,0-0.3,0-0.4,0
		s-0.3,0-0.4,0c0-0.1,0-0.3,0-0.4s0-0.3,0-0.4c0.1,0,0.3,0,0.4,0S141.4,39.8,141.5,39.8z M133.7,39.8
		C133.7,39.8,133.7,39.8,133.7,39.8c0,0.1,0,0.3,0,0.4c0,0.1,0,0.3,0,0.4c0,0,0,0-0.1,0c-0.1,0-0.2,0-0.4,0c-0.1,0-0.3,0-0.4,0
		c0-0.1,0-0.3,0-0.4s0-0.3,0-0.4c0.1,0,0.3,0,0.4,0C133.4,39.8,133.5,39.8,133.7,39.8z M129.8,28.8c-0.1,0-0.3,0-0.4,0
		c-0.1,0-0.3,0-0.4,0c0-0.1,0-0.3,0-0.4c0-0.1,0-0.3,0-0.4c0.1,0,0.3,0,0.4,0c0.1,0,0.3,0,0.4,0c0,0.1,0,0.3,0,0.4
		C129.8,28.6,129.8,28.7,129.8,28.8z M125.9,24.1c0,0.1,0,0.3,0,0.4c0,0.1,0,0.3,0,0.4c-0.1,0-0.3,0-0.4,0s-0.3,0-0.4,0
		c0-0.1,0-0.3,0-0.4c0-0.1,0-0.3,0-0.4c0.1,0,0.3,0,0.4,0S125.7,24.1,125.9,24.1z M106.3,28.8c-0.1,0-0.3,0-0.4,0s-0.3,0-0.4,0
		c0-0.1,0-0.3,0-0.4c0-0.1,0-0.3,0-0.4c0.1,0,0.3,0,0.4,0s0.3,0,0.4,0c0,0.1,0,0.3,0,0.4C106.3,28.6,106.3,28.7,106.3,28.8z"/>
	<path fill="#E8E8E8" d="M102.4,123.7c2.1-0.5,4-1.3,5.8-2.3c0-0.1,0-0.1,0-0.2c0-0.1,0-0.2,0-0.3c0.1,0,0.2,0,0.3,0
		c0.1,0,0.2,0,0.3,0c0,0.1,0,0.1,0,0.2c0.1,0,0.1-0.1,0.2-0.1l7.6,5.1l5.7-5.7l-4.7-7.9c0,0,0,0,0,0c0,0.1,0,0.2,0,0.3c0,0,0,0,0,0
		c-0.1,0-0.2,0-0.3,0c-0.1,0-0.2,0-0.3,0c0-0.1,0-0.2,0-0.3s0-0.2,0-0.3c0.1,0,0.2,0,0.3,0c0.1,0,0.2,0,0.3,0c0,0,0,0,0,0
		c0,0,0,0.1,0,0.1c1.2-2,2.1-4.2,2.7-6.5l9.5-1.9v-8l-9.5-2.4c-0.1-0.3-0.2-0.6-0.3-0.9c0,0-0.1,0-0.1,0c0-0.1,0-0.2,0-0.3
		c-0.6-2-1.5-3.8-2.5-5.6l5-7.5l-5.7-5.7l-2.1,1.2c0,0,0,0.1,0,0.1c0,0.1,0,0.2,0,0.3c-0.1,0-0.2,0-0.3,0c-0.1,0-0.2,0-0.3,0
		c0,0,0,0,0,0l-5.2,3.2c-2-1.2-4.1-2.1-6.4-2.7l-1.8-9.1h-8l-2.2,9c-2.5,0.6-4.8,1.6-7,2.8L82.9,78c0,0,0,0.1,0,0.1c0,0,0,0,0,0
		c-0.1,0-0.2,0-0.3,0c-0.1,0-0.2,0-0.3,0c0-0.1,0-0.2,0-0.3c0-0.1,0-0.1,0-0.2l-6.4-4.3l-1.6,1.6c0,0,0,0,0,0c0,0.1,0,0.2,0,0.3
		c-0.1,0-0.2,0-0.3,0c0,0,0,0,0,0l-2.6,2.6c0,0,0,0,0,0c0,0.1,0,0.2,0,0.3c0,0,0,0,0,0c-0.1,0-0.2,0-0.3,0c0,0,0,0,0,0L70.2,79
		l4.8,7.9c-1.3,2.1-2.3,4.4-2.9,6.9l-6.5,1.3c0,0,0,0.1,0,0.1c0,0.1,0,0.2,0,0.3c-0.1,0-0.2,0-0.3,0c-0.1,0-0.2,0-0.3,0
		c0-0.1,0-0.2,0-0.3l-1.4,0.3v8l8.5,2.1c0.6,2.4,1.5,4.7,2.8,6.8L71,118c0.1,0,0.2,0,0.2,0c0,0,0,0,0,0c0,0.1,0,0.2,0,0.3
		s0,0.2,0,0.3c0,0,0,0,0,0c-0.1,0-0.2,0-0.3,0c-0.1,0-0.2,0-0.3,0c0,0,0-0.1,0-0.1l-1.1,1.6l5.7,5.7l8-4.8c2.2,1.3,4.6,2.3,7.2,2.9
		l0.5,2.8c0.1,0,0.1,0,0.2,0c0.1,0,0.2,0,0.3,0c0,0.1,0,0.2,0,0.3c0,0.1,0,0.2,0,0.3c-0.1,0-0.2,0-0.3,0c0,0-0.1,0-0.1,0l1.1,5.5
		h4.5c0,0,0,0,0,0c0-0.1,0-0.2,0-0.3c0.1,0,0.2,0,0.3,0c0.1,0,0.2,0,0.3,0c0,0.1,0,0.2,0,0.3c0,0,0,0,0,0l2.9,0L102.4,123.7z
		 M97.3,127.2c-0.1,0-0.2,0-0.3,0c-0.1,0-0.2,0-0.3,0c0-0.1,0-0.2,0-0.3c0-0.1,0-0.2,0-0.3c0.1,0,0.2,0,0.3,0c0.1,0,0.2,0,0.3,0
		c0,0.1,0,0.2,0,0.3C97.3,127,97.3,127.1,97.3,127.2z M77.1,118.6c-0.1,0-0.2,0-0.3,0c-0.1,0-0.2,0-0.3,0c0-0.1,0-0.2,0-0.3
		s0-0.2,0-0.3c0.1,0,0.2,0,0.3,0c0.1,0,0.2,0,0.3,0c0,0.1,0,0.2,0,0.3S77.1,118.5,77.1,118.6z M73.6,121.1c0-0.1,0-0.2,0-0.3
		c0.1,0,0.2,0,0.3,0c0.1,0,0.2,0,0.3,0c0,0.1,0,0.2,0,0.3c0,0.1,0,0.2,0,0.3c-0.1,0-0.2,0-0.3,0c-0.1,0-0.2,0-0.3,0
		C73.6,121.3,73.6,121.2,73.6,121.1z M68.4,98.3c-0.1,0-0.2,0-0.3,0c-0.1,0-0.2,0-0.3,0c0-0.1,0-0.2,0-0.3c0-0.1,0-0.2,0-0.3
		c0.1,0,0.2,0,0.3,0c0.1,0,0.2,0,0.3,0c0,0.1,0,0.2,0,0.3C68.4,98.1,68.4,98.2,68.4,98.3z M70.7,101.2c0-0.1,0-0.2,0-0.3
		s0-0.2,0-0.3c0.1,0,0.2,0,0.3,0c0.1,0,0.2,0,0.3,0c0,0,0,0,0,0c0,0.1,0,0.2,0,0.3c0,0.1,0,0.2,0,0.3c0,0,0,0,0,0
		c-0.1,0-0.2,0-0.3,0C70.9,101.2,70.8,101.2,70.7,101.2z M73.6,81c0-0.1,0-0.2,0-0.3c0-0.1,0-0.2,0-0.3c0.1,0,0.2,0,0.3,0
		c0.1,0,0.2,0,0.3,0c0,0.1,0,0.2,0,0.3c0,0.1,0,0.2,0,0.3c-0.1,0-0.2,0-0.3,0C73.8,81,73.7,81,73.6,81z M79.4,80.4
		c0.1,0,0.2,0,0.3,0c0.1,0,0.2,0,0.3,0c0,0.1,0,0.2,0,0.3c0,0.1,0,0.2,0,0.3c-0.1,0-0.2,0-0.3,0c-0.1,0-0.2,0-0.3,0
		c0-0.1,0-0.2,0-0.3C79.4,80.6,79.4,80.5,79.4,80.4z M114,80.4c0.1,0,0.2,0,0.3,0c0.1,0,0.2,0,0.3,0c0,0.1,0,0.2,0,0.3
		c0,0.1,0,0.2,0,0.3c-0.1,0-0.2,0-0.3,0c-0.1,0-0.2,0-0.3,0c0-0.1,0-0.2,0-0.3C114,80.6,114,80.5,114,80.4z M117.5,117.9
		c0,0.1,0,0.2,0,0.3s0,0.2,0,0.3c0,0,0,0,0,0c-0.1,0-0.2,0-0.3,0c-0.1,0-0.2,0-0.3,0c0-0.1,0-0.2,0-0.3s0-0.2,0-0.3
		c0.1,0,0.2,0,0.3,0C117.3,118,117.4,118,117.5,117.9C117.5,117.9,117.5,117.9,117.5,117.9z M108.9,115.7c-0.1,0-0.2,0-0.3,0
		c-0.1,0-0.2,0-0.3,0c0-0.1,0-0.2,0-0.3c0-0.1,0-0.2,0-0.3c0.1,0,0.2,0,0.3,0c0.1,0,0.2,0,0.3,0c0,0.1,0,0.2,0,0.3
		C108.8,115.5,108.8,115.6,108.9,115.7z M100.2,118.6c-0.1,0-0.2,0-0.3,0c-0.1,0-0.2,0-0.3,0c0-0.1,0-0.2,0-0.3s0-0.2,0-0.3
		c0.1,0,0.2,0,0.3,0c0.1,0,0.2,0,0.3,0c0,0.1,0,0.2,0,0.3S100.2,118.5,100.2,118.6z M93.8,118.3c0-0.1,0-0.2,0-0.3
		c0.1,0,0.2,0,0.3,0c0.1,0,0.2,0,0.3,0c0,0,0,0,0,0c0,0.1,0,0.2,0,0.3s0,0.2,0,0.3c0,0,0,0,0,0c-0.1,0-0.2,0-0.3,0
		c-0.1,0-0.2,0-0.3,0C93.8,118.5,93.8,118.4,93.8,118.3z M96.7,121.1c0-0.1,0-0.2,0-0.3c0.1,0,0.2,0,0.3,0c0.1,0,0.2,0,0.3,0
		c0,0.1,0,0.2,0,0.3c0,0.1,0,0.2,0,0.3c-0.1,0-0.2,0-0.3,0c-0.1,0-0.2,0-0.3,0C96.7,121.3,96.7,121.2,96.7,121.1z M114,120.8
		c0.1,0,0.2,0,0.3,0c0.1,0,0.2,0,0.3,0c0,0.1,0,0.2,0,0.3c0,0.1,0,0.2,0,0.3c-0.1,0-0.2,0-0.3,0c-0.1,0-0.2,0-0.3,0
		c0-0.1,0-0.2,0-0.3C114,121,114,120.9,114,120.8z M114.6,115.4c0,0.1,0,0.2,0,0.3c-0.1,0-0.2,0-0.3,0c-0.1,0-0.2,0-0.3,0
		c0-0.1,0-0.2,0-0.3c0-0.1,0-0.2,0-0.3c0.1,0,0.2,0,0.3,0c0.1,0,0.2,0,0.3,0C114.6,115.2,114.6,115.3,114.6,115.4z M111.7,112.8
		c-0.1,0-0.2,0-0.3,0s-0.2,0-0.3,0c0-0.1,0-0.2,0-0.3s0-0.2,0-0.3c0.1,0,0.2,0,0.3,0s0.2,0,0.3,0c0,0.1,0,0.2,0,0.3
		S111.7,112.7,111.7,112.8z M114,109.3c0.1,0,0.2,0,0.3,0c0.1,0,0.2,0,0.3,0c0,0.1,0,0.2,0,0.3c0,0.1,0,0.2,0,0.3
		c-0.1,0-0.2,0-0.3,0c-0.1,0-0.2,0-0.3,0c0-0.1,0-0.2,0-0.3C114,109.5,114,109.4,114,109.3z M114.6,104.1c-0.1,0-0.2,0-0.3,0
		c-0.1,0-0.2,0-0.3,0c0-0.1,0-0.2,0-0.3c0-0.1,0-0.2,0-0.3c0.1,0,0.2,0,0.3,0c0.1,0,0.2,0,0.3,0c0,0.1,0,0.2,0,0.3
		C114.6,103.9,114.6,104,114.6,104.1z M108.3,86.5c0-0.1,0-0.2,0-0.3c0.1,0,0.2,0,0.3,0c0.1,0,0.2,0,0.3,0c0,0.1,0,0.2,0,0.3
		c0,0.1,0,0.2,0,0.3c-0.1,0-0.2,0-0.3,0c-0.1,0-0.2,0-0.3,0C108.3,86.7,108.3,86.6,108.3,86.5z M111.1,89.1c0.1,0,0.2,0,0.3,0
		c0.1,0,0.2,0,0.3,0c0,0.1,0,0.2,0,0.3s0,0.2,0,0.3c-0.1,0-0.2,0-0.3,0c-0.1,0-0.2,0-0.3,0c0-0.1,0-0.2,0-0.3S111.1,89.2,111.1,89.1
		z M114.3,86.2c0.1,0,0.2,0,0.3,0c0,0.1,0,0.2,0,0.3c0,0.1,0,0.2,0,0.3c-0.1,0-0.2,0-0.3,0c-0.1,0-0.2,0-0.3,0c0-0.1,0-0.2,0-0.3
		c0-0.1,0-0.2,0-0.3C114.1,86.2,114.2,86.2,114.3,86.2z M114.3,97.8c0.1,0,0.2,0,0.3,0c0,0.1,0,0.2,0,0.3c0,0.1,0,0.2,0,0.3
		c-0.1,0-0.2,0-0.3,0c-0.1,0-0.2,0-0.3,0c0-0.1,0-0.2,0-0.3c0-0.1,0-0.2,0-0.3C114.1,97.7,114.2,97.8,114.3,97.8z M117.5,101.2
		C117.5,101.2,117.5,101.2,117.5,101.2c-0.1,0-0.2,0-0.3,0c-0.1,0-0.2,0-0.3,0c0-0.1,0-0.2,0-0.3s0-0.2,0-0.3c0.1,0,0.2,0,0.3,0
		c0.1,0,0.2,0,0.3,0c0,0,0,0,0,0c0,0.1,0,0.2,0,0.3C117.5,101,117.5,101.1,117.5,101.2z M126.2,98.3c-0.1,0-0.2,0-0.3,0
		c-0.1,0-0.2,0-0.3,0c0-0.1,0-0.2,0-0.3c0-0.1,0-0.2,0-0.3c0.1,0,0.2,0,0.3,0c0.1,0,0.2,0,0.3,0c0,0.1,0,0.2,0,0.3
		C126.2,98.1,126.2,98.2,126.2,98.3z M123.3,100.9c0,0.1,0,0.2,0,0.3c-0.1,0-0.2,0-0.3,0s-0.2,0-0.3,0c0-0.1,0-0.2,0-0.3
		s0-0.2,0-0.3c0.1,0,0.2,0,0.3,0s0.2,0,0.3,0C123.3,100.7,123.3,100.8,123.3,100.9z M120.4,98c0,0.1,0,0.2,0,0.3c-0.1,0-0.2,0-0.3,0
		c-0.1,0-0.2,0-0.3,0c0-0.1,0-0.2,0-0.3c0-0.1,0-0.2,0-0.3c0.1,0,0.2,0,0.3,0c0.1,0,0.2,0,0.3,0C120.4,97.8,120.4,97.9,120.4,98z
		 M117.5,94.8c0,0.1,0,0.2,0,0.3c0,0.1,0,0.2,0,0.3c0,0,0,0,0,0c-0.1,0-0.2,0-0.3,0c-0.1,0-0.2,0-0.3,0c0-0.1,0-0.2,0-0.3
		c0-0.1,0-0.2,0-0.3c0.1,0,0.2,0,0.3,0C117.3,94.9,117.4,94.9,117.5,94.8C117.5,94.8,117.5,94.8,117.5,94.8z M114.6,92.6
		c-0.1,0-0.2,0-0.3,0c-0.1,0-0.2,0-0.3,0c0-0.1,0-0.2,0-0.3c0-0.1,0-0.2,0-0.3c0.1,0,0.2,0,0.3,0c0.1,0,0.2,0,0.3,0
		c0,0.1,0,0.2,0,0.3C114.6,92.4,114.6,92.5,114.6,92.6z M111.1,83.3c0.1,0,0.2,0,0.3,0c0.1,0,0.2,0,0.3,0c0,0.1,0,0.2,0,0.3
		c0,0.1,0,0.2,0,0.3c-0.1,0-0.2,0-0.3,0c-0.1,0-0.2,0-0.3,0c0-0.1,0-0.2,0-0.3C111.1,83.5,111.1,83.4,111.1,83.3z M106,83.9
		C106,83.9,105.9,83.9,106,83.9c-0.1,0-0.2,0-0.3,0c-0.1,0-0.2,0-0.3,0c0-0.1,0-0.2,0-0.3c0-0.1,0-0.2,0-0.3c0.1,0,0.2,0,0.3,0
		c0.1,0,0.2,0,0.3,0c0,0,0,0,0,0c0,0.1,0,0.2,0,0.3C106,83.7,106,83.8,106,83.9z M88.6,83.9c-0.1,0-0.2,0-0.3,0c-0.1,0-0.2,0-0.3,0
		c0-0.1,0-0.2,0-0.3c0-0.1,0-0.2,0-0.3c0.1,0,0.2,0,0.3,0c0.1,0,0.2,0,0.3,0c0,0.1,0,0.2,0,0.3C88.6,83.7,88.6,83.8,88.6,83.9z
		 M82.8,89.7c-0.1,0-0.2,0-0.3,0c-0.1,0-0.2,0-0.3,0c0-0.1,0-0.2,0-0.3s0-0.2,0-0.3c0.1,0,0.2,0,0.3,0c0.1,0,0.2,0,0.3,0
		c0,0,0,0,0,0c0,0.1,0,0.2,0,0.3S82.9,89.6,82.8,89.7C82.9,89.7,82.8,89.7,82.8,89.7z M82.9,112.2c0,0.1,0,0.2,0,0.3
		c0,0.1,0,0.2,0,0.3c0,0,0,0,0,0c-0.1,0-0.2,0-0.3,0c-0.1,0-0.2,0-0.3,0c0-0.1,0-0.2,0-0.3c0-0.1,0-0.2,0-0.3c0.1,0,0.2,0,0.3,0
		C82.7,112.2,82.7,112.2,82.9,112.2C82.8,112.2,82.9,112.2,82.9,112.2z M79.7,86.8c-0.1,0-0.2,0-0.3,0c0-0.1,0-0.2,0-0.3
		c0-0.1,0-0.2,0-0.3c0.1,0,0.2,0,0.3,0c0.1,0,0.2,0,0.3,0c0,0.1,0,0.2,0,0.3c0,0.1,0,0.2,0,0.3C79.9,86.8,79.8,86.8,79.7,86.8z
		 M76.5,94.8c0.1,0,0.2,0,0.3,0c0.1,0,0.2,0,0.3,0c0,0.1,0,0.2,0,0.3c0,0.1,0,0.2,0,0.3c-0.1,0-0.2,0-0.3,0c-0.1,0-0.2,0-0.3,0
		c0-0.1,0-0.2,0-0.3C76.5,95,76.5,94.9,76.5,94.8z M74.2,98c0,0.1,0,0.2,0,0.3c-0.1,0-0.2,0-0.3,0c-0.1,0-0.2,0-0.3,0
		c0-0.1,0-0.2,0-0.3c0-0.1,0-0.2,0-0.3c0.1,0,0.2,0,0.3,0c0.1,0,0.2,0,0.3,0C74.2,97.8,74.2,97.9,74.2,98z M76.5,100.6
		c0.1,0,0.2,0,0.3,0c0.1,0,0.2,0,0.3,0c0,0.1,0,0.2,0,0.3s0,0.2,0,0.3c-0.1,0-0.2,0-0.3,0c-0.1,0-0.2,0-0.3,0c0-0.1,0-0.2,0-0.3
		S76.5,100.7,76.5,100.6z M79.7,109.3c0.1,0,0.2,0,0.3,0c0,0.1,0,0.2,0,0.3c0,0.1,0,0.2,0,0.3c-0.1,0-0.2,0-0.3,0
		c-0.1,0-0.2,0-0.3,0c0-0.1,0-0.2,0-0.3c0-0.1,0-0.2,0-0.3C79.5,109.3,79.6,109.3,79.7,109.3z M80,104.1c-0.1,0-0.2,0-0.3,0
		c-0.1,0-0.2,0-0.3,0c0-0.1,0-0.2,0-0.3c0-0.1,0-0.2,0-0.3c0.1,0,0.2,0,0.3,0c0.1,0,0.2,0,0.3,0c0,0.1,0,0.2,0,0.3
		C80,103.9,80,104,80,104.1z M79.4,98.3c0-0.1,0-0.2,0-0.3c0-0.1,0-0.2,0-0.3c0.1,0,0.2,0,0.3,0c0.1,0,0.2,0,0.3,0
		c0,0.1,0,0.2,0,0.3c0,0.1,0,0.2,0,0.3c-0.1,0-0.2,0-0.3,0C79.6,98.3,79.5,98.3,79.4,98.3z M80,92.6c-0.1,0-0.2,0-0.3,0
		c-0.1,0-0.2,0-0.3,0c0-0.1,0-0.2,0-0.3c0-0.1,0-0.2,0-0.3c0.1,0,0.2,0,0.3,0c0.1,0,0.2,0,0.3,0c0,0.1,0,0.2,0,0.3
		C80,92.4,80,92.5,80,92.6z M85.2,86.5c0-0.1,0-0.2,0-0.3c0.1,0,0.2,0,0.3,0c0.1,0,0.2,0,0.3,0c0,0.1,0,0.2,0,0.3c0,0.1,0,0.2,0,0.3
		c-0.1,0-0.2,0-0.3,0c-0.1,0-0.2,0-0.3,0C85.2,86.7,85.2,86.6,85.2,86.5z M97.3,74.9c0,0.1,0,0.2,0,0.3c-0.1,0-0.2,0-0.3,0
		c-0.1,0-0.2,0-0.3,0c0-0.1,0-0.2,0-0.3c0-0.1,0-0.2,0-0.3c0.1,0,0.2,0,0.3,0c0.1,0,0.2,0,0.3,0C97.3,74.7,97.3,74.8,97.3,74.9z
		 M97.3,81c-0.1,0-0.2,0-0.3,0c-0.1,0-0.2,0-0.3,0c0-0.1,0-0.2,0-0.3c0-0.1,0-0.2,0-0.3c0.1,0,0.2,0,0.3,0c0.1,0,0.2,0,0.3,0
		c0,0.1,0,0.2,0,0.3C97.3,80.8,97.3,80.9,97.3,81z M99.6,83.3c0.1,0,0.2,0,0.3,0c0.1,0,0.2,0,0.3,0c0,0.1,0,0.2,0,0.3
		c0,0.1,0,0.2,0,0.3c-0.1,0-0.2,0-0.3,0c-0.1,0-0.2,0-0.3,0c0-0.1,0-0.2,0-0.3C99.6,83.5,99.6,83.4,99.6,83.3z M103.1,80.7
		c0,0.1,0,0.2,0,0.3c-0.1,0-0.2,0-0.3,0c-0.1,0-0.2,0-0.3,0c0-0.1,0-0.2,0-0.3c0-0.1,0-0.2,0-0.3c0.1,0,0.2,0,0.3,0
		c0.1,0,0.2,0,0.3,0C103.1,80.5,103.1,80.6,103.1,80.7z M100.2,78.1c-0.1,0-0.2,0-0.3,0c-0.1,0-0.2,0-0.3,0c0-0.1,0-0.2,0-0.3
		s0-0.2,0-0.3c0.1,0,0.2,0,0.3,0c0.1,0,0.2,0,0.3,0c0,0.1,0,0.2,0,0.3S100.2,78,100.2,78.1z M90.9,80.4c0.1,0,0.2,0,0.3,0
		c0.1,0,0.2,0,0.3,0c0,0.1,0,0.2,0,0.3c0,0.1,0,0.2,0,0.3c-0.1,0-0.2,0-0.3,0c-0.1,0-0.2,0-0.3,0c0-0.1,0-0.2,0-0.3
		C90.9,80.6,90.9,80.5,90.9,80.4z M85.7,80.7c0,0.1,0,0.2,0,0.3c-0.1,0-0.2,0-0.3,0c-0.1,0-0.2,0-0.3,0c0-0.1,0-0.2,0-0.3
		c0-0.1,0-0.2,0-0.3c0.1,0,0.2,0,0.3,0c0.1,0,0.2,0,0.3,0C85.7,80.5,85.7,80.6,85.7,80.7z M82.9,83.3c0,0.1,0,0.2,0,0.3
		c0,0.1,0,0.2,0,0.3c0,0,0,0,0,0c-0.1,0-0.2,0-0.3,0c-0.1,0-0.2,0-0.3,0c0-0.1,0-0.2,0-0.3c0-0.1,0-0.2,0-0.3c0.1,0,0.2,0,0.3,0
		C82.7,83.3,82.7,83.3,82.9,83.3C82.8,83.3,82.9,83.3,82.9,83.3z M76.5,83.3c0.1,0,0.2,0,0.3,0c0.1,0,0.2,0,0.3,0c0,0.1,0,0.2,0,0.3
		c0,0.1,0,0.2,0,0.3c-0.1,0-0.2,0-0.3,0c-0.1,0-0.2,0-0.3,0c0-0.1,0-0.2,0-0.3C76.5,83.5,76.5,83.4,76.5,83.3z M76.8,89.1
		c0.1,0,0.2,0,0.3,0c0,0.1,0,0.2,0,0.3s0,0.2,0,0.3c-0.1,0-0.2,0-0.3,0c-0.1,0-0.2,0-0.3,0c0-0.1,0-0.2,0-0.3s0-0.2,0-0.3
		C76.6,89.1,76.7,89.1,76.8,89.1z M74.2,92.3c0,0.1,0,0.2,0,0.3c-0.1,0-0.2,0-0.3,0c-0.1,0-0.2,0-0.3,0c0-0.1,0-0.2,0-0.3
		c0-0.1,0-0.2,0-0.3c0.1,0,0.2,0,0.3,0c0.1,0,0.2,0,0.3,0C74.2,92.1,74.2,92.2,74.2,92.3z M73.6,104.1c0-0.1,0-0.2,0-0.3
		c0-0.1,0-0.2,0-0.3c0.1,0,0.2,0,0.3,0c0.1,0,0.2,0,0.3,0c0,0.1,0,0.2,0,0.3c0,0.1,0,0.2,0,0.3c-0.1,0-0.2,0-0.3,0
		C73.8,104.1,73.7,104.1,73.6,104.1z M76.5,107c0-0.1,0-0.2,0-0.3s0-0.2,0-0.3c0.1,0,0.2,0,0.3,0c0.1,0,0.2,0,0.3,0
		c0,0.1,0,0.2,0,0.3s0,0.2,0,0.3c-0.1,0-0.2,0-0.3,0C76.7,107,76.6,107,76.5,107z M80,115.7c-0.1,0-0.2,0-0.3,0c-0.1,0-0.2,0-0.3,0
		c0-0.1,0-0.2,0-0.3c0-0.1,0-0.2,0-0.3c0.1,0,0.2,0,0.3,0c0.1,0,0.2,0,0.3,0c0,0.1,0,0.2,0,0.3C80,115.5,80,115.6,80,115.7z
		 M85.8,115.7c-0.1,0-0.2,0-0.3,0c-0.1,0-0.2,0-0.3,0c0-0.1,0-0.2,0-0.3c0-0.1,0-0.2,0-0.3c0.1,0,0.2,0,0.3,0c0.1,0,0.2,0,0.3,0
		c0,0.1,0,0.2,0,0.3C85.7,115.5,85.7,115.6,85.8,115.7z M80.1,100c0-8.1,5.9-14.9,13.7-16.1c0-0.1,0-0.2,0-0.3c0-0.1,0-0.2,0-0.3
		c0.1,0,0.2,0,0.3,0c0.1,0,0.2,0,0.3,0c0,0,0,0,0,0c0,0.1,0,0.2,0,0.3c0,0.1,0,0.1,0,0.2c0.7-0.1,1.4-0.1,2.1-0.1
		c9,0,16.4,7.3,16.4,16.4c0,2.3-0.5,4.4-1.3,6.4c0.1,0,0.1,0,0.2,0c0,0.1,0,0.2,0,0.3s0,0.2,0,0.3c-0.1,0-0.2,0-0.3,0
		c-0.1,0-0.1,0-0.2,0c-1.7,3.6-4.7,6.5-8.4,8.1c0.1,0,0.1,0,0.2,0c0,0.1,0,0.2,0,0.3c0,0.1,0,0.2,0,0.3c-0.1,0-0.2,0-0.3,0
		c-0.1,0-0.2,0-0.3,0c0-0.1,0-0.2,0-0.3c0,0,0-0.1,0-0.1c-1.9,0.7-3.9,1.1-6,1.1c-1.7,0-3.4-0.3-4.9-0.8c0,0,0,0,0,0
		c-0.1,0-0.2,0-0.3,0c-0.1,0-0.2,0-0.3,0c0-0.1,0-0.2,0-0.3C84.6,113.2,80.1,107.1,80.1,100z M90.9,120.8c0.1,0,0.2,0,0.3,0
		c0.1,0,0.2,0,0.3,0c0,0.1,0,0.2,0,0.3c0,0.1,0,0.2,0,0.3c-0.1,0-0.2,0-0.3,0c-0.1,0-0.2,0-0.3,0c0-0.1,0-0.2,0-0.3
		C90.9,121,90.9,120.9,90.9,120.8z M93.8,124.3c0-0.1,0-0.2,0-0.3c0-0.1,0-0.2,0-0.3c0.1,0,0.2,0,0.3,0c0.1,0,0.2,0,0.3,0
		c0,0,0,0,0,0c0,0.1,0,0.2,0,0.3c0,0.1,0,0.2,0,0.3c0,0,0,0,0,0c-0.1,0-0.2,0-0.3,0C94,124.3,93.9,124.3,93.8,124.3z M100.2,124.3
		c-0.1,0-0.2,0-0.3,0c-0.1,0-0.2,0-0.3,0c0-0.1,0-0.2,0-0.3c0-0.1,0-0.2,0-0.3c0.1,0,0.2,0,0.3,0c0.1,0,0.2,0,0.3,0
		c0,0.1,0,0.2,0,0.3C100.2,124.1,100.2,124.2,100.2,124.3z M102.5,121.4c0-0.1,0-0.2,0-0.3c0-0.1,0-0.2,0-0.3c0.1,0,0.2,0,0.3,0
		c0.1,0,0.2,0,0.3,0c0,0.1,0,0.2,0,0.3c0,0.1,0,0.2,0,0.3c-0.1,0-0.2,0-0.3,0C102.7,121.4,102.6,121.4,102.5,121.4z M105.7,118.5
		c-0.1,0-0.2,0-0.3,0c0-0.1,0-0.2,0-0.3s0-0.2,0-0.3c0.1,0,0.2,0,0.3,0c0.1,0,0.2,0,0.3,0c0,0,0,0,0,0c0,0.1,0,0.2,0,0.3
		s0,0.2,0,0.3c0,0,0,0,0,0C105.8,118.5,105.8,118.5,105.7,118.5z M111.1,118.6c0-0.1,0-0.2,0-0.3s0-0.2,0-0.3c0.1,0,0.2,0,0.3,0
		c0.1,0,0.2,0,0.3,0c0,0.1,0,0.2,0,0.3s0,0.2,0,0.3c-0.1,0-0.2,0-0.3,0C111.3,118.5,111.2,118.5,111.1,118.6z M117.5,124.3
		C117.5,124.3,117.5,124.3,117.5,124.3c-0.1,0-0.2,0-0.3,0c-0.1,0-0.2,0-0.3,0c0-0.1,0-0.2,0-0.3c0-0.1,0-0.2,0-0.3
		c0.1,0,0.2,0,0.3,0c0.1,0,0.2,0,0.3,0c0,0,0,0,0,0c0,0.1,0,0.2,0,0.3C117.5,124.1,117.5,124.2,117.5,124.3z M120.1,121.4
		c-0.1,0-0.2,0-0.3,0c0-0.1,0-0.2,0-0.3c0-0.1,0-0.2,0-0.3c0.1,0,0.2,0,0.3,0c0.1,0,0.2,0,0.3,0c0,0.1,0,0.2,0,0.3
		c0,0.1,0,0.2,0,0.3C120.3,121.4,120.2,121.4,120.1,121.4z M117.5,107C117.5,107,117.5,107,117.5,107c-0.1,0-0.2,0-0.3,0
		c-0.1,0-0.2,0-0.3,0c0-0.1,0-0.2,0-0.3s0-0.2,0-0.3c0.1,0,0.2,0,0.3,0c0.1,0,0.2,0,0.3,0c0,0,0,0,0,0c0,0.1,0,0.2,0,0.3
		S117.5,106.9,117.5,107z M120.1,104.1c-0.1,0-0.2,0-0.3,0c0-0.1,0-0.2,0-0.3c0-0.1,0-0.2,0-0.3c0.1,0,0.2,0,0.3,0
		c0.1,0,0.2,0,0.3,0c0,0.1,0,0.2,0,0.3c0,0.1,0,0.2,0,0.3C120.3,104.1,120.2,104.1,120.1,104.1z M125.9,104.1c-0.1,0-0.2,0-0.3,0
		c0-0.1,0-0.2,0-0.3c0-0.1,0-0.2,0-0.3c0.1,0,0.2,0,0.3,0c0.1,0,0.2,0,0.3,0c0,0.1,0,0.2,0,0.3c0,0.1,0,0.2,0,0.3
		C126.1,104.1,126,104.1,125.9,104.1z M129,100.6C129,100.6,129.1,100.6,129,100.6c0,0.1,0,0.2,0,0.3s0,0.2,0,0.3c0,0,0,0,0,0
		c-0.1,0-0.2,0-0.3,0c-0.1,0-0.2,0-0.3,0c0-0.1,0-0.2,0-0.3s0-0.2,0-0.3c0.1,0,0.2,0,0.3,0C128.9,100.6,128.9,100.6,129,100.6z
		 M123.3,94.8c0,0.1,0,0.2,0,0.3c0,0.1,0,0.2,0,0.3c-0.1,0-0.2,0-0.3,0s-0.2,0-0.3,0c0-0.1,0-0.2,0-0.3c0-0.1,0-0.2,0-0.3
		c0.1,0,0.2,0,0.3,0S123.2,94.9,123.3,94.8z M117.5,89.1C117.5,89.1,117.5,89.1,117.5,89.1c0,0.1,0,0.2,0,0.3s0,0.2,0,0.3
		c0,0,0,0,0,0c-0.1,0-0.2,0-0.3,0c-0.1,0-0.2,0-0.3,0c0-0.1,0-0.2,0-0.3s0-0.2,0-0.3c0.1,0,0.2,0,0.3,0
		C117.3,89.1,117.4,89.1,117.5,89.1z M117.5,83.9C117.5,83.9,117.5,83.9,117.5,83.9c-0.1,0-0.2,0-0.3,0c-0.1,0-0.2,0-0.3,0
		c0-0.1,0-0.2,0-0.3c0-0.1,0-0.2,0-0.3c0.1,0,0.2,0,0.3,0c0.1,0,0.2,0,0.3,0c0,0,0,0,0,0c0,0.1,0,0.2,0,0.3
		C117.5,83.7,117.5,83.8,117.5,83.9z M120.4,81c-0.1,0-0.2,0-0.3,0c-0.1,0-0.2,0-0.3,0c0-0.1,0-0.2,0-0.3c0-0.1,0-0.2,0-0.3
		c0.1,0,0.2,0,0.3,0c0.1,0,0.2,0,0.3,0c0,0.1,0,0.2,0,0.3C120.4,80.8,120.4,80.9,120.4,81z M117.5,77.5
		C117.5,77.5,117.5,77.5,117.5,77.5c0,0.1,0,0.2,0,0.3s0,0.2,0,0.3c0,0,0,0,0,0c-0.1,0-0.2,0-0.3,0c-0.1,0-0.2,0-0.3,0
		c0-0.1,0-0.2,0-0.3s0-0.2,0-0.3c0.1,0,0.2,0,0.3,0C117.3,77.5,117.4,77.5,117.5,77.5z M111.1,77.5c0.1,0,0.2,0,0.3,0
		c0.1,0,0.2,0,0.3,0c0,0.1,0,0.2,0,0.3s0,0.2,0,0.3c-0.1,0-0.2,0-0.3,0c-0.1,0-0.2,0-0.3,0c0-0.1,0-0.2,0-0.3S111.1,77.6,111.1,77.5
		z M108.9,80.4c0,0.1,0,0.2,0,0.3c0,0.1,0,0.2,0,0.3c-0.1,0-0.2,0-0.3,0c-0.1,0-0.2,0-0.3,0c0-0.1,0-0.2,0-0.3c0-0.1,0-0.2,0-0.3
		c0.1,0,0.2,0,0.3,0C108.7,80.4,108.8,80.4,108.9,80.4z M105.7,77.5c0.1,0,0.2,0,0.3,0c0,0,0,0,0,0c0,0.1,0,0.2,0,0.3s0,0.2,0,0.3
		c0,0,0,0,0,0c-0.1,0-0.2,0-0.3,0c-0.1,0-0.2,0-0.3,0c0-0.1,0-0.2,0-0.3s0-0.2,0-0.3C105.5,77.5,105.6,77.5,105.7,77.5z M100.2,72.1
		c0,0.1,0,0.2,0,0.3c-0.1,0-0.2,0-0.3,0c-0.1,0-0.2,0-0.3,0c0-0.1,0-0.2,0-0.3c0-0.1,0-0.2,0-0.3c0.1,0,0.2,0,0.3,0
		c0.1,0,0.2,0,0.3,0C100.2,71.8,100.2,71.9,100.2,72.1z M97.3,68.9c0,0.1,0,0.2,0,0.3c0,0.1,0,0.2,0,0.3c-0.1,0-0.2,0-0.3,0
		c-0.1,0-0.2,0-0.3,0c0-0.1,0-0.2,0-0.3c0-0.1,0-0.2,0-0.3c0.1,0,0.2,0,0.3,0C97.1,68.9,97.2,68.9,97.3,68.9z M93.8,71.7
		c0.1,0,0.2,0,0.3,0c0.1,0,0.2,0,0.3,0c0,0,0,0,0,0c0,0.1,0,0.2,0,0.3c0,0.1,0,0.2,0,0.3c0,0,0,0,0,0c-0.1,0-0.2,0-0.3,0
		c-0.1,0-0.2,0-0.3,0c0-0.1,0-0.2,0-0.3C93.8,71.9,93.8,71.8,93.8,71.7z M90.9,74.6c0.1,0,0.2,0,0.3,0c0.1,0,0.2,0,0.3,0
		c0,0.1,0,0.2,0,0.3c0,0.1,0,0.2,0,0.3c-0.1,0-0.2,0-0.3,0c-0.1,0-0.2,0-0.3,0c0-0.1,0-0.2,0-0.3C90.9,74.8,90.9,74.7,90.9,74.6z
		 M88.3,77.5c0.1,0,0.2,0,0.3,0c0,0.1,0,0.2,0,0.3s0,0.2,0,0.3c-0.1,0-0.2,0-0.3,0c-0.1,0-0.2,0-0.3,0c0-0.1,0-0.2,0-0.3
		s0-0.2,0-0.3C88.1,77.5,88.2,77.5,88.3,77.5z M77.1,77.5c0,0.1,0,0.2,0,0.3s0,0.2,0,0.3c-0.1,0-0.2,0-0.3,0c-0.1,0-0.2,0-0.3,0
		c0-0.1,0-0.2,0-0.3s0-0.2,0-0.3c0.1,0,0.2,0,0.3,0C76.9,77.5,77,77.5,77.1,77.5z M71,94.9c0.1,0,0.2,0,0.3,0c0,0,0,0,0,0
		c0,0.1,0,0.2,0,0.3c0,0.1,0,0.2,0,0.3c0,0,0,0,0,0c-0.1,0-0.2,0-0.3,0c-0.1,0-0.2,0-0.3,0c0-0.1,0-0.2,0-0.3c0-0.1,0-0.2,0-0.3
		C70.8,94.9,70.9,94.9,71,94.9z M65,100.9c0-0.1,0-0.2,0-0.3c0.1,0,0.2,0,0.3,0c0.1,0,0.2,0,0.3,0c0,0.1,0,0.2,0,0.3s0,0.2,0,0.3
		c-0.1,0-0.2,0-0.3,0c-0.1,0-0.2,0-0.3,0C64.9,101.1,65,101,65,100.9z M67.8,104.1c0-0.1,0-0.2,0-0.3c0-0.1,0-0.2,0-0.3
		c0.1,0,0.2,0,0.3,0c0.1,0,0.2,0,0.3,0c0,0.1,0,0.2,0,0.3c0,0.1,0,0.2,0,0.3c-0.1,0-0.2,0-0.3,0C68,104.1,67.9,104.1,67.8,104.1z
		 M73.6,109.9c0-0.1,0-0.2,0-0.3c0-0.1,0-0.2,0-0.3c0.1,0,0.2,0,0.3,0c0.1,0,0.2,0,0.3,0c0,0.1,0,0.2,0,0.3c0,0.1,0,0.2,0,0.3
		c-0.1,0-0.2,0-0.3,0C73.8,109.9,73.7,109.9,73.6,109.9z M76.5,112.2c0.1,0,0.2,0,0.3,0c0.1,0,0.2,0,0.3,0c0,0.1,0,0.2,0,0.3
		c0,0.1,0,0.2,0,0.3c-0.1,0-0.2,0-0.3,0c-0.1,0-0.2,0-0.3,0c0-0.1,0-0.2,0-0.3C76.5,112.4,76.5,112.3,76.5,112.2z M74.2,115.1
		c0,0.1,0,0.2,0,0.3c0,0.1,0,0.2,0,0.3c-0.1,0-0.2,0-0.3,0c-0.1,0-0.2,0-0.3,0c0-0.1,0-0.2,0-0.3c0-0.1,0-0.2,0-0.3
		c0.1,0,0.2,0,0.3,0C74,115.1,74.1,115.1,74.2,115.1z M77.1,124.3c-0.1,0-0.2,0-0.3,0c-0.1,0-0.2,0-0.3,0c0-0.1,0-0.2,0-0.3
		c0-0.1,0-0.2,0-0.3c0.1,0,0.2,0,0.3,0c0.1,0,0.2,0,0.3,0c0,0.1,0,0.2,0,0.3C77.1,124.1,77.1,124.2,77.1,124.3z M79.7,121.4
		c-0.1,0-0.2,0-0.3,0c0-0.1,0-0.2,0-0.3c0-0.1,0-0.2,0-0.3c0.1,0,0.2,0,0.3,0c0.1,0,0.2,0,0.3,0c0,0.1,0,0.2,0,0.3
		c0,0.1,0,0.2,0,0.3C79.9,121.4,79.8,121.4,79.7,121.4z M82.6,118.5c-0.1,0-0.2,0-0.3,0c0-0.1,0-0.2,0-0.3s0-0.2,0-0.3
		c0.1,0,0.2,0,0.3,0c0.1,0,0.2,0,0.3,0c0,0,0,0,0,0c0,0.1,0,0.2,0,0.3s0,0.2,0,0.3c0,0,0,0,0,0C82.7,118.5,82.7,118.5,82.6,118.5z
		 M85.5,121.4c-0.1,0-0.2,0-0.3,0c0-0.1,0-0.2,0-0.3c0-0.1,0-0.2,0-0.3c0.1,0,0.2,0,0.3,0c0.1,0,0.2,0,0.3,0c0,0.1,0,0.2,0,0.3
		c0,0.1,0,0.2,0,0.3C85.7,121.4,85.6,121.4,85.5,121.4z M88,118.6c0-0.1,0-0.2,0-0.3s0-0.2,0-0.3c0.1,0,0.2,0,0.3,0
		c0.1,0,0.2,0,0.3,0c0,0.1,0,0.2,0,0.3s0,0.2,0,0.3c-0.1,0-0.2,0-0.3,0C88.2,118.5,88.1,118.5,88,118.6z M94.1,130.1
		c-0.1,0-0.2,0-0.3,0c0-0.1,0-0.2,0-0.3s0-0.2,0-0.3c0.1,0,0.2,0,0.3,0c0.1,0,0.2,0,0.3,0c0,0,0,0,0,0c0,0.1,0,0.2,0,0.3
		c0,0.1,0,0.2,0,0.3c0,0,0,0,0,0C94.3,130.1,94.2,130.1,94.1,130.1z M99.6,130.1c0-0.1,0-0.2,0-0.3c0-0.1,0-0.2,0-0.3
		c0.1,0,0.2,0,0.3,0c0.1,0,0.2,0,0.3,0c0,0.1,0,0.2,0,0.3c0,0.1,0,0.2,0,0.3c-0.1,0-0.2,0-0.3,0C99.8,130.1,99.7,130.1,99.6,130.1z"
		/>
	
		<linearGradient id="SVGID_9_" gradientUnits="userSpaceOnUse" x1="93.2903" y1="106.3879" x2="138.7793" y2="106.3879" gradientTransform="matrix(1 0 0 -1 0 158)">
		<stop  offset="0" style="stop-color:#523F8F"/>
		<stop  offset="1" style="stop-color:#2996C1"/>
	</linearGradient>
	<path fill="url(#SVGID_9_)" d="M109.6,28.9l-5.2,2.2l1,5.9c0.1,0,0.2,0,0.3,0c0.1,0,0.2,0,0.3,0c0,0,0,0,0,0c0,0.1,0,0.2,0,0.3
		s0,0.2,0,0.3c0,0,0,0,0,0c-0.1,0-0.2,0-0.3,0c-0.1,0-0.2,0-0.3,0c0,0,0,0,0,0c-0.9,0.7-1.7,1.5-2.5,2.3c0.1,0,0.1,0,0.2,0
		c0,0.1,0,0.2,0,0.3c0,0.1,0,0.2,0,0.3c-0.1,0-0.2,0-0.3,0c-0.1,0-0.2,0-0.3,0c0-0.1,0-0.1,0-0.2c-0.3,0.3-0.5,0.6-0.7,1l-4.4-0.8
		c0,0,0,0,0,0c-0.1,0-0.2,0-0.3,0c-0.1,0-0.2,0-0.3,0c0,0,0-0.1,0-0.1l-1.3-0.3l-1.1,2.7c0,0,0,0,0.1,0c0,0,0,0,0,0
		c0,0.1,0,0.2,0,0.3s0,0.2,0,0.3c0,0,0,0,0,0c-0.1,0-0.2,0-0.3,0c0,0,0,0,0,0l-0.8,2l5.3,3.8c-0.2,1.7-0.2,3.5,0.1,5.3l-5,3.4
		l2.2,5.2l6.1-1c0.3,0.3,0.5,0.7,0.8,1c0,0,0,0,0.1,0c0.1,0,0.2,0,0.3,0c0,0.1,0,0.2,0,0.3c0,0,0,0.1,0,0.1c0.8,0.8,1.6,1.6,2.5,2.3
		l0,0.2c0,0,0.1,0,0.1,0c0.1,0,0.2,0,0.3,0c0,0,0,0,0,0c0,0.1,0,0.2,0,0.3s0,0.2,0,0.3c0,0,0,0,0,0c-0.1,0-0.2,0-0.3,0
		c-0.1,0-0.1,0-0.2,0l-1.1,5.6l5.2,2.1l1.5-2.1c0,0,0-0.1,0-0.1c0-0.1,0-0.2,0-0.3c0.1,0,0.2,0,0.3,0l2-2.8c0.2,0,0.4,0.1,0.6,0.1
		c0-0.1,0-0.1,0-0.2c0.1,0,0.2,0,0.3,0c0.1,0,0.2,0,0.3,0c0,0.1,0,0.1,0,0.2c1.4,0.1,2.9,0,4.3-0.2l3.6,5.3l5.2-2.2l-1.1-6.5
		c1.3-1,2.5-2.3,3.5-3.6l6.3,1.2l2.1-5.2l-3.8-2.7c-0.1,0-0.2,0-0.2,0c-0.1,0-0.2,0-0.3,0c0-0.1,0-0.2,0-0.3c0,0,0-0.1,0-0.1l-1-0.7
		c0.2-1.7,0.2-3.4-0.1-5.1l4-2.7c0,0,0,0,0,0c0-0.1,0-0.2,0-0.3c0.1,0,0.2,0,0.3,0c0.1,0,0.1,0,0.2,0l1.1-0.8l-2.2-5.2l-4.6,0.8
		c0,0,0,0,0,0c0,0-0.1,0-0.1,0l-2.1,0.3c-1.1-1.4-2.3-2.6-3.7-3.6l1.2-6.3l-5.2-2.1l-3.8,5.3c-1.2-0.1-2.3-0.2-3.5-0.1
		c0,0.1,0,0.2,0,0.3c0,0.1,0,0.2,0,0.3c-0.1,0-0.2,0-0.3,0c-0.1,0-0.2,0-0.3,0c0-0.1,0-0.2,0-0.3c0-0.1,0-0.2,0-0.3
		c-0.2,0-0.5,0.1-0.8,0.1l-1.7-2.4c-0.1,0-0.1,0-0.2,0c-0.1,0-0.2,0-0.3,0c0-0.1,0-0.2,0-0.3c0-0.1,0-0.2,0-0.3c0,0,0,0,0.1,0
		L109.6,28.9z M105.4,31.6c0-0.1,0-0.2,0-0.3c0.1,0,0.2,0,0.3,0c0.1,0,0.2,0,0.3,0c0,0,0,0,0,0c0,0.1,0,0.2,0,0.3c0,0.1,0,0.2,0,0.3
		c0,0,0,0,0,0c-0.1,0-0.2,0-0.3,0c-0.1,0-0.2,0-0.3,0C105.4,31.8,105.4,31.7,105.4,31.6z M111.1,37.1c0.1,0,0.2,0,0.3,0
		c0.1,0,0.2,0,0.3,0c0,0.1,0,0.2,0,0.3s0,0.2,0,0.3c-0.1,0-0.2,0-0.3,0c-0.1,0-0.2,0-0.3,0c0-0.1,0-0.2,0-0.3S111.1,37.2,111.1,37.1
		z M116.9,37.1c0.1,0,0.2,0,0.3,0c0.1,0,0.2,0,0.3,0c0,0,0,0,0,0c0,0.1,0,0.2,0,0.3s0,0.2,0,0.3c0,0,0,0,0,0c-0.1,0-0.2,0-0.3,0
		c-0.1,0-0.2,0-0.3,0c0-0.1,0-0.2,0-0.3S116.9,37.2,116.9,37.1z M132,57.9c-0.1,0-0.2,0-0.3,0c-0.1,0-0.2,0-0.3,0c0-0.1,0-0.2,0-0.3
		c0-0.1,0-0.2,0-0.3c0.1,0,0.2,0,0.3,0c0.1,0,0.2,0,0.3,0c0,0.1,0,0.2,0,0.3C131.9,57.7,131.9,57.8,132,57.9z M120.4,63.4
		c0,0.1,0,0.2,0,0.3c-0.1,0-0.2,0-0.3,0c-0.1,0-0.2,0-0.3,0c0-0.1,0-0.2,0-0.3c0-0.1,0-0.2,0-0.3c0.1,0,0.2,0,0.3,0
		c0.1,0,0.2,0,0.3,0C120.4,63.2,120.4,63.3,120.4,63.4z M123.3,66.6c-0.1,0-0.2,0-0.3,0s-0.2,0-0.3,0c0-0.1,0-0.2,0-0.3s0-0.2,0-0.3
		c0.1,0,0.2,0,0.3,0s0.2,0,0.3,0c0,0.1,0,0.2,0,0.3S123.3,66.5,123.3,66.6z M129.1,55C129.1,55,129,55,129.1,55c-0.1,0-0.2,0-0.3,0
		c-0.1,0-0.2,0-0.3,0c0-0.1,0-0.2,0-0.3c0-0.1,0-0.2,0-0.3c0.1,0,0.2,0,0.3,0c0.1,0,0.2,0,0.3,0c0,0,0,0,0,0c0,0.1,0,0.2,0,0.3
		C129.1,54.8,129.1,54.9,129.1,55z M129.1,49.3C129.1,49.3,129,49.3,129.1,49.3c-0.1,0-0.2,0-0.3,0c-0.1,0-0.2,0-0.3,0
		c0-0.1,0-0.2,0-0.3c0-0.1,0-0.2,0-0.3c0.1,0,0.2,0,0.3,0c0.1,0,0.2,0,0.3,0c0,0,0,0,0,0c0,0.1,0,0.2,0,0.3
		C129.1,49.1,129.1,49.2,129.1,49.3z M126.2,40.6c-0.1,0-0.2,0-0.3,0c-0.1,0-0.2,0-0.3,0c0-0.1,0-0.2,0-0.3c0-0.1,0-0.2,0-0.3
		c0.1,0,0.2,0,0.3,0c0.1,0,0.2,0,0.3,0c0,0.1,0,0.2,0,0.3C126.2,40.4,126.2,40.5,126.2,40.6z M123.3,37.7c-0.1,0-0.2,0-0.3,0
		s-0.2,0-0.3,0c0-0.1,0-0.2,0-0.3c0-0.1,0-0.2,0-0.3c0.1,0,0.2,0,0.3,0s0.2,0,0.3,0c0,0.1,0,0.2,0,0.3
		C123.3,37.5,123.3,37.6,123.3,37.7z M119.8,40.3c0-0.1,0-0.2,0-0.3c0.1,0,0.2,0,0.3,0c0.1,0,0.2,0,0.3,0c0,0.1,0,0.2,0,0.3
		c0,0.1,0,0.2,0,0.3c-0.1,0-0.2,0-0.3,0c-0.1,0-0.2,0-0.3,0C119.8,40.5,119.8,40.4,119.8,40.3z M120.4,34.5c0,0.1,0,0.2,0,0.3
		c-0.1,0-0.2,0-0.3,0c-0.1,0-0.2,0-0.3,0c0-0.1,0-0.2,0-0.3c0-0.1,0-0.2,0-0.3c0.1,0,0.2,0,0.3,0c0.1,0,0.2,0,0.3,0
		C120.4,34.3,120.4,34.4,120.4,34.5z M126.1,45.8c0,0,0.1,0,0.1,0c0,0.1,0,0.1,0,0.2c0.2,0.4,0.4,0.8,0.6,1.2
		c1.5,3.5,1.1,7.3-0.6,10.4c0,0,0,0,0,0.1c0,0.1,0,0.2,0,0.3c-0.1,0-0.2,0-0.2,0c-1.2,1.9-3,3.5-5.2,4.4c-2,0.9-4.1,1.1-6.1,0.8
		c0,0.1,0,0.1,0,0.2c0,0.1,0,0.2,0,0.3c-0.1,0-0.2,0-0.3,0c-0.1,0-0.2,0-0.3,0c0-0.1,0-0.2,0-0.3c0-0.1,0-0.2,0-0.3
		c-3.6-0.7-6.8-3.1-8.4-6.8c-2.5-5.9,0.2-12.6,6-15.2c0.8-0.3,1.6-0.6,2.4-0.7c0,0,0-0.1,0-0.1c0-0.1,0-0.2,0-0.3c0.1,0,0.2,0,0.3,0
		c0.1,0,0.2,0,0.3,0c0,0.1,0,0.2,0,0.3c0,0,0,0,0,0C119.1,39.7,123.7,41.8,126.1,45.8z M103.1,57.9c-0.1,0-0.2,0-0.3,0
		c-0.1,0-0.2,0-0.3,0c0-0.1,0-0.2,0-0.3c0-0.1,0-0.2,0-0.3c0.1,0,0.2,0,0.3,0c0.1,0,0.2,0,0.3,0c0,0.1,0,0.2,0,0.3
		C103.1,57.7,103.1,57.8,103.1,57.9z M102.5,45.8c0.1,0,0.2,0,0.3,0c0.1,0,0.2,0,0.3,0c0,0.1,0,0.2,0,0.3c0,0.1,0,0.2,0,0.3
		c-0.1,0-0.2,0-0.3,0c-0.1,0-0.2,0-0.3,0c0-0.1,0-0.2,0-0.3C102.5,46,102.5,45.9,102.5,45.8z M102.8,52.1c-0.1,0-0.2,0-0.3,0
		c0-0.1,0-0.2,0-0.3c0-0.1,0-0.2,0-0.3c0.1,0,0.2,0,0.3,0c0.1,0,0.2,0,0.3,0c0,0.1,0,0.2,0,0.3c0,0.1,0,0.2,0,0.3
		C103,52.1,102.9,52.1,102.8,52.1z M108.3,63.4c0-0.1,0-0.2,0-0.3c0.1,0,0.2,0,0.3,0c0.1,0,0.2,0,0.3,0c0,0.1,0,0.2,0,0.3
		c0,0.1,0,0.2,0,0.3c-0.1,0-0.2,0-0.3,0c-0.1,0-0.2,0-0.3,0C108.3,63.6,108.3,63.5,108.3,63.4z M111.1,66.3c0-0.1,0-0.2,0-0.3
		c0.1,0,0.2,0,0.3,0c0.1,0,0.2,0,0.3,0c0,0.1,0,0.2,0,0.3c0,0.1,0,0.2,0,0.3c-0.1,0-0.2,0-0.3,0c-0.1,0-0.2,0-0.3,0
		C111.1,66.5,111.1,66.4,111.1,66.3z M108.8,40.3c0,0.1,0,0.2,0,0.3c-0.1,0-0.2,0-0.3,0c-0.1,0-0.2,0-0.3,0c0-0.1,0-0.2,0-0.3
		c0-0.1,0-0.2,0-0.3c0.1,0,0.2,0,0.3,0c0.1,0,0.2,0,0.3,0C108.8,40.1,108.8,40.2,108.8,40.3z M105.9,42.9
		C105.9,42.9,106,42.9,105.9,42.9c0,0.1,0,0.2,0,0.3s0,0.2,0,0.3c0,0,0,0,0,0c-0.1,0-0.2,0-0.3,0c-0.1,0-0.2,0-0.3,0
		c0-0.1,0-0.2,0-0.3c0-0.1,0-0.2,0-0.3c0.1,0,0.2,0,0.3,0C105.8,42.9,105.8,42.9,105.9,42.9z M100.2,42.9c0,0.1,0,0.2,0,0.3
		s0,0.2,0,0.3c-0.1,0-0.2,0-0.3,0c-0.1,0-0.2,0-0.3,0c0-0.1,0-0.2,0-0.3s0-0.2,0-0.3c0.1,0,0.2,0,0.3,0
		C100,42.9,100.1,42.9,100.2,42.9z M96.7,46.4c0-0.1,0-0.2,0-0.3c0-0.1,0-0.2,0-0.3c0.1,0,0.2,0,0.3,0s0.2,0,0.3,0
		c0,0.1,0,0.2,0,0.3c0,0.1,0,0.2,0,0.3c-0.1,0-0.2,0-0.3,0S96.8,46.4,96.7,46.4z M99.6,49c0-0.1,0-0.2,0-0.3c0.1,0,0.2,0,0.3,0
		c0.1,0,0.2,0,0.3,0c0,0.1,0,0.2,0,0.3c0,0.1,0,0.2,0,0.3c-0.1,0-0.2,0-0.3,0c-0.1,0-0.2,0-0.3,0C99.6,49.2,99.6,49.1,99.6,49z
		 M99.6,54.4c0.1,0,0.2,0,0.3,0c0.1,0,0.2,0,0.3,0c0,0.1,0,0.2,0,0.3c0,0.1,0,0.2,0,0.3c-0.1,0-0.2,0-0.3,0c-0.1,0-0.2,0-0.3,0
		c0-0.1,0-0.2,0-0.3C99.6,54.6,99.6,54.5,99.6,54.4z M97.3,57.3c0,0.1,0,0.2,0,0.3c0,0.1,0,0.2,0,0.3c-0.1,0-0.2,0-0.3,0
		c-0.1,0-0.2,0-0.3,0c0-0.1,0-0.2,0-0.3c0-0.1,0-0.2,0-0.3c0.1,0,0.2,0,0.3,0C97.1,57.3,97.2,57.3,97.3,57.3z M99.9,60.8
		c-0.1,0-0.2,0-0.3,0c0-0.1,0-0.2,0-0.3c0-0.1,0-0.2,0-0.3c0.1,0,0.2,0,0.3,0c0.1,0,0.2,0,0.3,0c0,0.1,0,0.2,0,0.3
		c0,0.1,0,0.2,0,0.3C100.1,60.8,100,60.8,99.9,60.8z M105.7,60.8c-0.1,0-0.2,0-0.3,0c0-0.1,0-0.2,0-0.3c0-0.1,0-0.2,0-0.3
		c0.1,0,0.2,0,0.3,0c0.1,0,0.2,0,0.3,0c0,0,0,0,0,0c0,0.1,0,0.2,0,0.3c0,0.1,0,0.2,0,0.3c0,0,0,0,0,0
		C105.8,60.8,105.8,60.8,105.7,60.8z M105.7,72.3c-0.1,0-0.2,0-0.3,0c0-0.1,0-0.2,0-0.3c0-0.1,0-0.2,0-0.3c0.1,0,0.2,0,0.3,0
		c0.1,0,0.2,0,0.3,0c0,0,0,0,0,0c0,0.1,0,0.2,0,0.3c0,0.1,0,0.2,0,0.3c0,0,0,0,0,0C105.8,72.3,105.8,72.3,105.7,72.3z M108.9,69.5
		c-0.1,0-0.2,0-0.3,0c-0.1,0-0.2,0-0.3,0c0-0.1,0-0.2,0-0.3c0-0.1,0-0.2,0-0.3c0.1,0,0.2,0,0.3,0c0.1,0,0.2,0,0.3,0
		c0,0.1,0,0.2,0,0.3C108.8,69.3,108.8,69.4,108.9,69.5z M117.2,66.6c-0.1,0-0.2,0-0.3,0c0-0.1,0-0.2,0-0.3c0-0.1,0-0.2,0-0.3
		c0.1,0,0.2,0,0.3,0c0.1,0,0.2,0,0.3,0c0,0,0,0,0,0c0,0.1,0,0.2,0,0.3c0,0.1,0,0.2,0,0.3c0,0,0,0,0,0
		C117.4,66.6,117.3,66.6,117.2,66.6z M119.8,69.5c0-0.1,0-0.2,0-0.3c0-0.1,0-0.2,0-0.3c0.1,0,0.2,0,0.3,0c0.1,0,0.2,0,0.3,0
		c0,0.1,0,0.2,0,0.3c0,0.1,0,0.2,0,0.3c-0.1,0-0.2,0-0.3,0C120,69.5,119.9,69.5,119.8,69.5z M123,72.3c-0.1,0-0.2,0-0.3,0
		c0-0.1,0-0.2,0-0.3c0-0.1,0-0.2,0-0.3c0.1,0,0.2,0,0.3,0c0.1,0,0.2,0,0.3,0c0,0.1,0,0.2,0,0.3c0,0.1,0,0.2,0,0.3
		C123.2,72.3,123.1,72.3,123,72.3z M126.2,69.5c-0.1,0-0.2,0-0.3,0c-0.1,0-0.2,0-0.3,0c0-0.1,0-0.2,0-0.3c0-0.1,0-0.2,0-0.3
		c0.1,0,0.2,0,0.3,0c0.1,0,0.2,0,0.3,0c0,0.1,0,0.2,0,0.3C126.2,69.3,126.2,69.4,126.2,69.5z M125.9,63.7c-0.1,0-0.2,0-0.3,0
		c0-0.1,0-0.2,0-0.3c0-0.1,0-0.2,0-0.3c0.1,0,0.2,0,0.3,0c0.1,0,0.2,0,0.3,0c0,0.1,0,0.2,0,0.3c0,0.1,0,0.2,0,0.3
		C126.1,63.7,126,63.7,125.9,63.7z M128.8,60.8c-0.1,0-0.2,0-0.3,0c0-0.1,0-0.2,0-0.3c0-0.1,0-0.2,0-0.3c0.1,0,0.2,0,0.3,0
		c0.1,0,0.2,0,0.3,0c0,0,0,0,0,0c0,0.1,0,0.2,0,0.3c0,0.1,0,0.2,0,0.3c0,0,0,0,0,0C128.9,60.8,128.9,60.8,128.8,60.8z M134.2,60.8
		c0-0.1,0-0.2,0-0.3c0-0.1,0-0.2,0-0.3c0.1,0,0.2,0,0.3,0s0.2,0,0.3,0c0,0.1,0,0.2,0,0.3c0,0.1,0,0.2,0,0.3c-0.1,0-0.2,0-0.3,0
		S134.3,60.8,134.2,60.8z M137.4,57.3c0.1,0,0.2,0,0.3,0c0,0.1,0,0.2,0,0.3c0,0.1,0,0.2,0,0.3c-0.1,0-0.2,0-0.3,0
		c-0.1,0-0.2,0-0.3,0c0-0.1,0-0.2,0-0.3c0-0.1,0-0.2,0-0.3C137.2,57.3,137.3,57.3,137.4,57.3z M132,52.1c-0.1,0-0.2,0-0.3,0
		c-0.1,0-0.2,0-0.3,0c0-0.1,0-0.2,0-0.3c0-0.1,0-0.2,0-0.3c0.1,0,0.2,0,0.3,0c0.1,0,0.2,0,0.3,0c0,0.1,0,0.2,0,0.3
		C131.9,51.9,131.9,52,132,52.1z M132,46.4c-0.1,0-0.2,0-0.3,0c-0.1,0-0.2,0-0.3,0c0-0.1,0-0.2,0-0.3c0-0.1,0-0.2,0-0.3
		c0.1,0,0.2,0,0.3,0c0.1,0,0.2,0,0.3,0c0,0.1,0,0.2,0,0.3C131.9,46.2,131.9,46.3,132,46.4z M134.8,42.9c0,0.1,0,0.2,0,0.3
		s0,0.2,0,0.3c-0.1,0-0.2,0-0.3,0s-0.2,0-0.3,0c0-0.1,0-0.2,0-0.3s0-0.2,0-0.3c0.1,0,0.2,0,0.3,0S134.7,42.9,134.8,42.9z M129,42.9
		C129,42.9,129.1,42.9,129,42.9c0,0.1,0,0.2,0,0.3s0,0.2,0,0.3c0,0,0,0,0,0c-0.1,0-0.2,0-0.3,0c-0.1,0-0.2,0-0.3,0
		c0-0.1,0-0.2,0-0.3c0-0.1,0-0.2,0-0.3c0.1,0,0.2,0,0.3,0C128.9,42.9,128.9,42.9,129,42.9z M126.2,34.8c-0.1,0-0.2,0-0.3,0
		c-0.1,0-0.2,0-0.3,0c0-0.1,0-0.2,0-0.3c0-0.1,0-0.2,0-0.3c0.1,0,0.2,0,0.3,0c0.1,0,0.2,0,0.3,0c0,0.1,0,0.2,0,0.3
		C126.2,34.6,126.2,34.7,126.2,34.8z M123.3,31.3c0,0.1,0,0.2,0,0.3c0,0.1,0,0.2,0,0.3c-0.1,0-0.2,0-0.3,0s-0.2,0-0.3,0
		c0-0.1,0-0.2,0-0.3c0-0.1,0-0.2,0-0.3c0.1,0,0.2,0,0.3,0S123.2,31.3,123.3,31.3z M108.9,34.8c-0.1,0-0.2,0-0.3,0
		c-0.1,0-0.2,0-0.3,0c0-0.1,0-0.2,0-0.3c0-0.1,0-0.2,0-0.3c0.1,0,0.2,0,0.3,0c0.1,0,0.2,0,0.3,0c0,0.1,0,0.2,0,0.3
		C108.8,34.6,108.8,34.7,108.9,34.8z"/>
	
		<linearGradient id="SVGID_10_" gradientUnits="userSpaceOnUse" x1="125.5466" y1="75.1576" x2="156.9026" y2="75.1576" gradientTransform="matrix(1 0 0 -1 0 158)">
		<stop  offset="0" style="stop-color:#56AF5E"/>
		<stop  offset="1" style="stop-color:#C1D24D"/>
	</linearGradient>
	<path fill="url(#SVGID_10_)" d="M149.3,96.8l-0.7-4.5c0,0,0.1-0.1,0.1-0.1c0-0.1,0-0.2,0-0.3c0.1,0,0.2,0,0.3,0c0,0,0,0,0,0
		c0.7-0.6,1.4-1.3,1.9-2.1l4.4,0.8l1.4-3.6l-3.7-2.6c0.2-1.1,0.1-2.3-0.1-3.5l3.9-2.7l-1.5-3.6l-0.3,0.1c0,0.1,0,0.1,0,0.2
		c0,0.1,0,0.2,0,0.3c-0.1,0-0.2,0-0.3,0c-0.1,0-0.2,0-0.3,0c0-0.1,0-0.2,0-0.3c0,0,0-0.1,0-0.1l-3.8,0.6c-0.7-1-1.6-1.8-2.6-2.5
		l0.7-3.6c0,0-0.1,0-0.1,0c0-0.1,0-0.2,0-0.3c0-0.1,0-0.2,0-0.3c0.1,0,0.1,0,0.2,0l0-0.2l-3.6-1.4l-2.6,3.6c-1.1-0.1-2.2-0.1-3.3,0
		l-2.5-3.7l-3.6,1.5l0.7,4.4c-0.7,0.6-1.4,1.2-2,1.9c0,0.1,0,0.1,0,0.2c0,0-0.1,0-0.2,0c-0.2,0.2-0.3,0.4-0.4,0.6L127,75l-1.4,3.6
		l3.7,2.6c-0.2,1.2-0.2,2.4,0,3.6l-3.5,2.4l1.5,3.6l4.2-0.7c0.7,1,1.6,1.8,2.5,2.5l-0.8,4.4l3.6,1.4l0.3-0.5c0-0.1,0-0.2,0-0.3
		c0.1,0,0.1,0,0.2,0l2.1-3c0.2,0,0.4,0,0.6,0.1c0,0,0,0,0,0c0.1,0,0.2,0,0.3,0c0.1,0,0.2,0,0.3,0c0,0,0,0,0,0c0,0,0,0,0,0
		c0.9,0,1.7,0,2.6-0.2l2.5,3.6L149.3,96.8z M134,86.1c-1.7-4,0.1-8.7,4.2-10.4c1.5-0.7,3.2-0.8,4.7-0.5c0-0.1,0-0.1,0-0.2
		c0-0.1,0-0.2,0-0.3c0.1,0,0.2,0,0.3,0c0.1,0,0.2,0,0.3,0c0,0.1,0,0.2,0,0.3c0,0.1,0,0.2,0,0.3c-0.1,0-0.1,0-0.2,0
		c2.3,0.6,4.3,2.2,5.4,4.6c0.1,0.2,0.2,0.4,0.2,0.6c0,0,0.1,0,0.1,0c0.1,0,0.2,0,0.3,0c0,0.1,0,0.2,0,0.3c0,0.1,0,0.2,0,0.3
		c-0.1,0-0.2,0-0.2,0c0.8,3-0.3,6.1-2.7,8.1c0,0.1,0,0.2,0,0.3c0,0.1,0,0.2,0,0.3c-0.1,0-0.2,0-0.3,0c-0.1,0-0.2,0-0.3,0
		c0-0.1,0-0.1,0-0.2c-0.4,0.3-0.8,0.5-1.3,0.7C140.4,92,135.8,90.1,134,86.1z M134.8,89.7c-0.1,0-0.2,0-0.3,0s-0.2,0-0.3,0
		c0-0.1,0-0.2,0-0.3s0-0.2,0-0.3c0.1,0,0.2,0,0.3,0s0.2,0,0.3,0c0,0.1,0,0.2,0,0.3S134.8,89.6,134.8,89.7z M131.4,86.5
		c0-0.1,0-0.2,0-0.3c0.1,0,0.2,0,0.3,0c0.1,0,0.2,0,0.3,0c0,0.1,0,0.2,0,0.3c0,0.1,0,0.2,0,0.3c-0.1,0-0.2,0-0.3,0
		c-0.1,0-0.2,0-0.3,0C131.4,86.7,131.4,86.6,131.4,86.5z M131.3,81c0-0.1,0-0.2,0-0.3c0-0.1,0-0.2,0-0.3c0.1,0,0.2,0,0.3,0
		c0.1,0,0.2,0,0.3,0c0,0.1,0,0.2,0,0.3c0,0.1,0,0.2,0,0.3c-0.1,0-0.2,0-0.3,0C131.5,81,131.4,81,131.3,81z M137.7,74.6
		c0,0.1,0,0.2,0,0.3c0,0.1,0,0.2,0,0.3c-0.1,0-0.2,0-0.3,0c-0.1,0-0.2,0-0.3,0c0-0.1,0-0.2,0-0.3c0-0.1,0-0.2,0-0.3
		c0.1,0,0.2,0,0.3,0C137.5,74.6,137.6,74.6,137.7,74.6z M134.2,77.8c0-0.1,0-0.2,0-0.3c0.1,0,0.2,0,0.3,0s0.2,0,0.3,0
		c0,0.1,0,0.2,0,0.3s0,0.2,0,0.3c-0.1,0-0.2,0-0.3,0s-0.2,0-0.3,0C134.2,78,134.2,77.9,134.2,77.8z M149,86.8c-0.1,0-0.2,0-0.3,0
		c0-0.1,0-0.2,0-0.3c0-0.1,0-0.2,0-0.3c0.1,0,0.2,0,0.3,0c0.1,0,0.2,0,0.3,0c0,0.1,0,0.2,0,0.3c0,0.1,0,0.2,0,0.3
		C149.2,86.8,149.1,86.8,149,86.8z M152.1,89.7c-0.1,0-0.2,0-0.3,0c-0.1,0-0.2,0-0.3,0c0-0.1,0-0.2,0-0.3s0-0.2,0-0.3
		c0.1,0,0.2,0,0.3,0c0.1,0,0.2,0,0.3,0c0,0,0,0,0,0c0,0.1,0,0.2,0,0.3S152.2,89.6,152.1,89.7C152.2,89.7,152.1,89.7,152.1,89.7z
		 M154.8,86.2c0.1,0,0.2,0,0.3,0c0,0.1,0,0.2,0,0.3c0,0.1,0,0.2,0,0.3c-0.1,0-0.2,0-0.3,0c-0.1,0-0.2,0-0.3,0c0-0.1,0-0.2,0-0.3
		c0-0.1,0-0.2,0-0.3C154.5,86.2,154.6,86.2,154.8,86.2z M152.2,83.6c0,0.1,0,0.2,0,0.3c0,0,0,0,0,0c-0.1,0-0.2,0-0.3,0
		c-0.1,0-0.2,0-0.3,0c0-0.1,0-0.2,0-0.3c0-0.1,0-0.2,0-0.3c0.1,0,0.2,0,0.3,0c0.1,0,0.2,0,0.3,0c0,0,0,0,0,0
		C152.2,83.4,152.2,83.5,152.2,83.6z M152.1,77.5C152.1,77.5,152.2,77.5,152.1,77.5c0,0.1,0,0.2,0,0.3s0,0.2,0,0.3c0,0,0,0,0,0
		c-0.1,0-0.2,0-0.3,0c-0.1,0-0.2,0-0.3,0c0-0.1,0-0.2,0-0.3s0-0.2,0-0.3c0.1,0,0.2,0,0.3,0C152,77.5,152,77.5,152.1,77.5z
		 M149.3,74.6c0,0.1,0,0.2,0,0.3c0,0.1,0,0.2,0,0.3c-0.1,0-0.2,0-0.3,0c-0.1,0-0.2,0-0.3,0c0-0.1,0-0.2,0-0.3c0-0.1,0-0.2,0-0.3
		c0.1,0,0.2,0,0.3,0C149.1,74.6,149.2,74.6,149.3,74.6z M146.4,72.4c-0.1,0-0.2,0-0.3,0c-0.1,0-0.2,0-0.3,0c0-0.1,0-0.2,0-0.3
		c0-0.1,0-0.2,0-0.3c0.1,0,0.2,0,0.3,0c0.1,0,0.2,0,0.3,0c0,0.1,0,0.2,0,0.3C146.4,72.2,146.4,72.3,146.4,72.4z M140.6,71.7
		C140.6,71.7,140.6,71.7,140.6,71.7c0,0.1,0,0.2,0,0.3c0,0.1,0,0.2,0,0.3c0,0,0,0,0,0c-0.1,0-0.2,0-0.3,0c-0.1,0-0.2,0-0.3,0
		c0-0.1,0-0.2,0-0.3c0-0.1,0-0.2,0-0.3c0.1,0,0.2,0,0.3,0C140.4,71.8,140.5,71.8,140.6,71.7z M137.1,68.9c0.1,0,0.2,0,0.3,0
		c0.1,0,0.2,0,0.3,0c0,0.1,0,0.2,0,0.3c0,0.1,0,0.2,0,0.3c-0.1,0-0.2,0-0.3,0c-0.1,0-0.2,0-0.3,0c0-0.1,0-0.2,0-0.3
		C137.1,69.1,137.1,69,137.1,68.9z M134.2,72.1c0-0.1,0-0.2,0-0.3c0.1,0,0.2,0,0.3,0s0.2,0,0.3,0c0,0.1,0,0.2,0,0.3
		c0,0.1,0,0.2,0,0.3c-0.1,0-0.2,0-0.3,0s-0.2,0-0.3,0C134.2,72.3,134.2,72.2,134.2,72.1z M129,77.5C129,77.5,129.1,77.5,129,77.5
		c0,0.1,0,0.2,0,0.3s0,0.2,0,0.3c0,0,0,0,0,0c-0.1,0-0.2,0-0.3,0c-0.1,0-0.2,0-0.3,0c0-0.1,0-0.2,0-0.3s0-0.2,0-0.3
		c0.1,0,0.2,0,0.3,0C128.9,77.5,128.9,77.5,129,77.5z M129.1,89.7C129.1,89.7,129,89.7,129.1,89.7c-0.1,0-0.2,0-0.3,0
		c-0.1,0-0.2,0-0.3,0c0-0.1,0-0.2,0-0.3s0-0.2,0-0.3c0.1,0,0.2,0,0.3,0c0.1,0,0.2,0,0.3,0c0,0,0,0,0,0c0,0.1,0,0.2,0,0.3
		S129.1,89.6,129.1,89.7z M137.1,92c0.1,0,0.2,0,0.3,0c0.1,0,0.2,0,0.3,0c0,0.1,0,0.2,0,0.3c0,0.1,0,0.2,0,0.3c-0.1,0-0.2,0-0.3,0
		c-0.1,0-0.2,0-0.3,0c0-0.1,0-0.2,0-0.3C137.1,92.2,137.1,92.1,137.1,92z M134.2,95.5c0-0.1,0-0.2,0-0.3c0-0.1,0-0.2,0-0.3
		c0.1,0,0.2,0,0.3,0s0.2,0,0.3,0c0,0.1,0,0.2,0,0.3c0,0.1,0,0.2,0,0.3c-0.1,0-0.2,0-0.3,0S134.3,95.4,134.2,95.5z M143.2,92.6
		c-0.1,0-0.2,0-0.3,0c0-0.1,0-0.2,0-0.3c0-0.1,0-0.2,0-0.3c0.1,0,0.2,0,0.3,0c0.1,0,0.2,0,0.3,0c0,0.1,0,0.2,0,0.3
		c0,0.1,0,0.2,0,0.3C143.4,92.6,143.3,92.6,143.2,92.6z M145.8,95.5c0-0.1,0-0.2,0-0.3c0-0.1,0-0.2,0-0.3c0.1,0,0.2,0,0.3,0
		s0.2,0,0.3,0c0,0.1,0,0.2,0,0.3c0,0.1,0,0.2,0,0.3c-0.1,0-0.2,0-0.3,0S145.9,95.4,145.8,95.5z"/>
	
		<linearGradient id="SVGID_11_" gradientUnits="userSpaceOnUse" x1="68.0444" y1="100.1756" x2="91.5007" y2="100.1756" gradientTransform="matrix(1 0 0 -1 0 158)">
		<stop  offset="0" style="stop-color:#444448"/>
		<stop  offset="1" style="stop-color:#797C7C"/>
	</linearGradient>
	<path fill="url(#SVGID_11_)" d="M85.6,68.4l-0.5-3.3c0,0,0.1-0.1,0.1-0.1c0-0.1,0-0.1,0-0.2c0.1,0,0.2,0,0.2,0c0,0,0,0,0,0
		c0.6-0.5,1.1-1,1.5-1.6l3.3,0.7l1.1-2.7l-2.7-2c0.1-0.9,0.1-1.7,0-2.6l2.9-1.9L90.4,52l-0.2,0c0,0,0,0.1,0,0.1c0,0.1,0,0.2,0,0.2
		c-0.1,0-0.2,0-0.2,0c-0.1,0-0.2,0-0.2,0c0-0.1,0-0.2,0-0.2c0,0,0,0,0-0.1l-2.8,0.4c-0.5-0.7-1.2-1.4-1.9-1.9l0.5-2.7c0,0,0,0-0.1,0
		c0-0.1,0-0.2,0-0.2c0-0.1,0-0.2,0-0.2c0,0,0.1,0,0.1,0l0-0.1L83,46.3l-2,2.7c-0.8-0.1-1.7-0.1-2.5,0l-1.9-2.8l-2.7,1.1l0.5,3.3
		c-0.6,0.4-1.1,0.9-1.5,1.4c0,0,0,0.1,0,0.1c0,0-0.1,0-0.1,0c-0.1,0.1-0.2,0.3-0.3,0.4l-3.3-0.7L68,54.5l2.7,2
		c-0.1,0.9-0.1,1.8,0,2.7l-2.6,1.7l1.1,2.7l3.1-0.5c0.5,0.7,1.2,1.4,1.9,1.9l-0.7,3.3l2.7,1.1l0.2-0.3c0-0.1,0-0.1,0-0.2
		c0.1,0,0.1,0,0.2,0l1.6-2.2c0.1,0,0.3,0,0.4,0.1c0,0,0,0,0,0c0.1,0,0.2,0,0.2,0c0.1,0,0.1,0,0.2,0c0,0,0,0,0,0c0,0,0,0,0,0
		c0.6,0,1.3,0,2-0.1l1.8,2.7L85.6,68.4z M74.3,60.2c-1.2-3,0.2-6.5,3.2-7.8c1.2-0.5,2.4-0.6,3.5-0.3c0-0.1,0-0.1,0-0.2
		c0-0.1,0-0.2,0-0.2c0.1,0,0.2,0,0.2,0c0.1,0,0.2,0,0.2,0c0,0.1,0,0.2,0,0.2c0,0.1,0,0.2,0,0.2c-0.1,0-0.1,0-0.2,0
		c1.7,0.5,3.2,1.7,4,3.5c0.1,0.2,0.1,0.3,0.2,0.5c0,0,0,0,0.1,0c0.1,0,0.2,0,0.2,0c0,0.1,0,0.2,0,0.2c0,0.1,0,0.2,0,0.2
		c-0.1,0-0.1,0-0.2,0c0.5,2.3-0.3,4.6-2.1,6c0,0.1,0,0.1,0,0.2c0,0.1,0,0.2,0,0.2c-0.1,0-0.2,0-0.2,0c-0.1,0-0.2,0-0.2,0
		c0,0,0-0.1,0-0.1c-0.3,0.2-0.6,0.4-1,0.5C79,64.7,75.5,63.2,74.3,60.2z M74.9,62.9c-0.1,0-0.2,0-0.2,0c-0.1,0-0.2,0-0.2,0
		c0-0.1,0-0.2,0-0.2c0-0.1,0-0.2,0-0.2c0.1,0,0.2,0,0.2,0c0.1,0,0.2,0,0.2,0c0,0.1,0,0.2,0,0.2C74.8,62.8,74.9,62.8,74.9,62.9z
		 M72.3,60.5c0-0.1,0-0.2,0-0.2c0.1,0,0.2,0,0.2,0c0.1,0,0.2,0,0.2,0c0,0.1,0,0.2,0,0.2c0,0.1,0,0.2,0,0.2c-0.1,0-0.2,0-0.2,0
		c-0.1,0-0.2,0-0.2,0C72.3,60.6,72.3,60.6,72.3,60.5z M72.3,56.4c0-0.1,0-0.2,0-0.2c0-0.1,0-0.2,0-0.2c0.1,0,0.2,0,0.2,0
		c0.1,0,0.2,0,0.2,0c0,0.1,0,0.2,0,0.2c0,0.1,0,0.2,0,0.2c-0.1,0-0.2,0-0.2,0C72.5,56.4,72.4,56.4,72.3,56.4z M77.2,51.7
		c0,0.1,0,0.2,0,0.2c0,0.1,0,0.2,0,0.2c-0.1,0-0.2,0-0.2,0c-0.1,0-0.2,0-0.2,0c0-0.1,0-0.2,0-0.2c0-0.1,0-0.2,0-0.2
		c0.1,0,0.2,0,0.2,0C77.1,51.7,77.1,51.7,77.2,51.7z M74.6,54c0-0.1,0-0.2,0-0.2c0.1,0,0.2,0,0.2,0c0.1,0,0.2,0,0.2,0
		c0,0.1,0,0.2,0,0.2c0,0.1,0,0.2,0,0.2c-0.1,0-0.2,0-0.2,0c-0.1,0-0.2,0-0.2,0C74.6,54.2,74.6,54.1,74.6,54z M85.5,60.9
		c-0.1,0-0.2,0-0.2,0c0-0.1,0-0.2,0-0.2c0-0.1,0-0.2,0-0.2c0.1,0,0.2,0,0.2,0c0.1,0,0.2,0,0.2,0c0,0.1,0,0.2,0,0.2
		c0,0.1,0,0.2,0,0.2C85.6,60.9,85.5,60.9,85.5,60.9z M87.8,63.1c-0.1,0-0.1,0-0.2,0c-0.1,0-0.2,0-0.2,0c0-0.1,0-0.2,0-0.2
		c0-0.1,0-0.2,0-0.2c0.1,0,0.2,0,0.2,0c0.1,0,0.1,0,0.2,0c0,0,0,0,0,0c0,0.1,0,0.2,0,0.2C87.8,63,87.8,63,87.8,63.1
		C87.8,63.1,87.8,63.1,87.8,63.1z M89.8,60.5c0.1,0,0.2,0,0.2,0c0,0.1,0,0.2,0,0.2c0,0.1,0,0.2,0,0.2c-0.1,0-0.2,0-0.2,0
		c-0.1,0-0.2,0-0.2,0c0-0.1,0-0.2,0-0.2c0-0.1,0-0.2,0-0.2C89.6,60.5,89.7,60.5,89.8,60.5z M87.9,58.6c0,0.1,0,0.2,0,0.2
		c0,0,0,0,0,0c-0.1,0-0.1,0-0.2,0c-0.1,0-0.2,0-0.2,0c0-0.1,0-0.2,0-0.2c0-0.1,0-0.2,0-0.2c0.1,0,0.2,0,0.2,0c0.1,0,0.1,0,0.2,0
		c0,0,0,0,0,0C87.9,58.4,87.9,58.5,87.9,58.6z M87.9,54C88,54,88,54,87.9,54c0,0.1,0,0.1,0,0.2c0,0.1,0,0.2,0,0.2c0,0,0,0,0,0
		c-0.1,0-0.1,0-0.2,0c-0.1,0-0.2,0-0.2,0c0-0.1,0-0.2,0-0.2c0-0.1,0-0.2,0-0.2c0.1,0,0.2,0,0.2,0C87.8,54,87.9,54,87.9,54z
		 M85.8,51.8c0,0.1,0,0.2,0,0.2c0,0.1,0,0.2,0,0.2c-0.1,0-0.2,0-0.2,0c-0.1,0-0.2,0-0.2,0c0-0.1,0-0.2,0-0.2c0-0.1,0-0.2,0-0.2
		c0.1,0,0.2,0,0.2,0C85.7,51.8,85.8,51.8,85.8,51.8z M83.7,50.1c-0.1,0-0.2,0-0.2,0c-0.1,0-0.2,0-0.2,0c0-0.1,0-0.2,0-0.2
		c0-0.1,0-0.2,0-0.2c0.1,0,0.2,0,0.2,0c0.1,0,0.2,0,0.2,0c0,0.1,0,0.2,0,0.2C83.7,49.9,83.7,50,83.7,50.1z M79.4,49.6
		C79.4,49.6,79.4,49.6,79.4,49.6c0,0.1,0,0.1,0,0.2c0,0.1,0,0.2,0,0.2c0,0,0,0,0,0c-0.1,0-0.1,0-0.2,0c-0.1,0-0.2,0-0.2,0
		c0-0.1,0-0.2,0-0.2c0-0.1,0-0.2,0-0.2c0.1,0,0.2,0,0.2,0C79.2,49.6,79.3,49.6,79.4,49.6z M76.8,47.4c0.1,0,0.2,0,0.2,0
		c0.1,0,0.2,0,0.2,0c0,0.1,0,0.2,0,0.2c0,0.1,0,0.2,0,0.2c-0.1,0-0.2,0-0.2,0c-0.1,0-0.2,0-0.2,0c0-0.1,0-0.2,0-0.2
		C76.8,47.5,76.8,47.4,76.8,47.4z M74.6,49.7c0-0.1,0-0.2,0-0.2c0.1,0,0.2,0,0.2,0c0.1,0,0.2,0,0.2,0c0,0.1,0,0.2,0,0.2
		c0,0.1,0,0.2,0,0.2c-0.1,0-0.2,0-0.2,0c-0.1,0-0.2,0-0.2,0C74.6,49.9,74.6,49.8,74.6,49.7z M70.7,53.7
		C70.7,53.7,70.7,53.7,70.7,53.7c0,0.1,0,0.1,0,0.2c0,0.1,0,0.2,0,0.2c0,0,0,0,0,0c-0.1,0-0.1,0-0.2,0c-0.1,0-0.2,0-0.2,0
		c0-0.1,0-0.2,0-0.2c0-0.1,0-0.2,0-0.2c0.1,0,0.2,0,0.2,0C70.5,53.7,70.6,53.7,70.7,53.7z M70.5,62.8C70.5,62.8,70.5,62.8,70.5,62.8
		c-0.1,0-0.2,0-0.2,0c-0.1,0-0.2,0-0.2,0c0-0.1,0-0.2,0-0.2c0-0.1,0-0.2,0-0.2c0.1,0,0.2,0,0.2,0c0.1,0,0.1,0,0.2,0c0,0,0,0,0,0
		c0,0.1,0,0.2,0,0.2S70.5,62.8,70.5,62.8z M76.5,64.6c0.1,0,0.2,0,0.2,0c0.1,0,0.2,0,0.2,0c0,0.1,0,0.2,0,0.2c0,0.1,0,0.2,0,0.2
		c-0.1,0-0.2,0-0.2,0c-0.1,0-0.2,0-0.2,0c0-0.1,0-0.2,0-0.2C76.5,64.8,76.5,64.7,76.5,64.6z M74.3,67.2c0-0.1,0-0.2,0-0.2
		c0-0.1,0-0.2,0-0.2c0.1,0,0.2,0,0.2,0c0.1,0,0.2,0,0.2,0c0,0.1,0,0.2,0,0.2c0,0.1,0,0.2,0,0.2c-0.1,0-0.2,0-0.2,0
		C74.5,67.2,74.4,67.2,74.3,67.2z M81.1,65.2c-0.1,0-0.2,0-0.2,0c0-0.1,0-0.2,0-0.2c0-0.1,0-0.2,0-0.2c0.1,0,0.2,0,0.2,0
		c0.1,0,0.2,0,0.2,0c0,0.1,0,0.2,0,0.2c0,0.1,0,0.2,0,0.2C81.2,65.2,81.2,65.2,81.1,65.2z M83,67.4c0-0.1,0-0.2,0-0.2
		c0-0.1,0-0.2,0-0.2c0.1,0,0.2,0,0.2,0c0.1,0,0.2,0,0.2,0c0,0.1,0,0.2,0,0.2s0,0.2,0,0.2c-0.1,0-0.2,0-0.2,0
		C83.1,67.4,83,67.4,83,67.4z"/>
	<path opacity="0.5" fill="#FFFFFF" enable-background="new    " d="M55.6,116.3c0,2.3-1.9,4.2-4.2,4.2c2.3,0,4.2,1.9,4.2,4.2
		c0-2.3,1.9-4.2,4.2-4.2C57.5,120.5,55.6,118.6,55.6,116.3z"/>
	
		<linearGradient id="SVGID_12_" gradientUnits="userSpaceOnUse" x1="19.7815" y1="106.3864" x2="63.9493" y2="106.3864" gradientTransform="matrix(1 0 0 -1 0 158)">
		<stop  offset="0" style="stop-color:#E74744"/>
		<stop  offset="1" style="stop-color:#EE5E2E"/>
	</linearGradient>
	<path fill="url(#SVGID_12_)" d="M63.9,51.6c0,0.9-0.7,1.6-1.6,1.6h-41c-0.9,0-1.6-0.7-1.6-1.6l0,0c0-0.9,0.7-1.6,1.6-1.6h41
		C63.2,50,63.9,50.7,63.9,51.6L63.9,51.6z"/>
	
		<linearGradient id="SVGID_13_" gradientUnits="userSpaceOnUse" x1="156.9037" y1="61.1704" x2="201.0705" y2="61.1704" gradientTransform="matrix(1 0 0 -1 0 158)">
		<stop  offset="0" style="stop-color:#E74744"/>
		<stop  offset="1" style="stop-color:#EE5E2E"/>
	</linearGradient>
	<path fill="url(#SVGID_13_)" d="M201.1,96.8c0,0.9-0.7,1.6-1.6,1.6h-41c-0.9,0-1.6-0.7-1.6-1.6l0,0c0-0.9,0.7-1.6,1.6-1.6h41
		C200.4,95.3,201.1,96,201.1,96.8L201.1,96.8z"/>
	<path opacity="0.5" fill="#BFD6DD" enable-background="new    " d="M81.9,132.7c0,0.9-0.7,1.6-1.6,1.6h-41c-0.9,0-1.6-0.7-1.6-1.6
		l0,0c0-0.9,0.7-1.6,1.6-1.6h41C81.2,131.1,81.9,131.8,81.9,132.7L81.9,132.7z"/>
</g>
</svg>
