<?xml version="1.0" encoding="utf-8"?>
<!-- Generator: Adobe Illustrator 22.0.1, SVG Export Plug-In . SVG Version: 6.00 Build 0)  -->
<svg version="1.0" id="Layer_1" xmlns="http://www.w3.org/2000/svg" xmlns:xlink="http://www.w3.org/1999/xlink" x="0px" y="0px"
	 viewBox="0 0 80 80" enable-background="new 0 0 80 80" xml:space="preserve">
<g>
	<defs>
		<path id="SVGID_101_" d="M66.3-61c0,15.6-12.4,27.7-28,27.7s-27.9-12.4-27.9-28s-25.3-50.3,27.7-47.8
			C89.9-109.1,66.3-76.6,66.3-61z"/>
	</defs>
	<clipPath id="SVGID_2_">
		<use xlink:href="#SVGID_101_"  overflow="visible"/>
	</clipPath>
	<g clip-path="url(#SVGID_2_)">
		<path fill="#1D2828" d="M11.5,61.9c-0.1,0.7-0.4,4-0.4,4.9c-1.3,0.8-4.4,2.8-4.5,3.4c-0.1,0.6,6.9,0.7,8.3,0.6
			c1.4-0.1,2.7-1.9,3.1-3.5c0.4-1.6,0.4-1.6,0.4-1.6l1.1-1c0,0,0.6-5.4-0.6-5.5C17.8,59.2,11.5,61.9,11.5,61.9z"/>
		<path fill="#4A5353" d="M40.3-19.9c1.7,0.3,12.2-1.4,14.6-2.3c0.9,3.6,1,4.9,1,4.9s4.2,3.8,4.7,4.5c1.3,0.6,2.1,1.3,2,1.7
			C65.1-8.4,81,8.5,85.3,16.6c2.9,8.1,7.1,21.5,10.6,37.2c1.7,4,1.6,5.1,1.4,5.9c2.1,3.1,2.9,7,2.6,7.6c-0.3,0.6-1,2.5-0.9,0.8
			c0.1-1.7-1.4-5.2-3-5.2s-7.5,4.9-8.3,9.3C87,66.9,87.5,65.4,87,64c-0.5-1.4-1-2.6-0.3-3.7c0.7-1,0.5-0.9-0.6-1
			c-1.1-0.2-0.9-1.9-1.4-4.5c-0.5-2.6-5.2-20.8-8.2-27.3c-1.4-0.9-1.1-1.7-1-2.3c0.2-0.5-6.8-4.5-15.6-13.5S47.3-3.7,47.3-3.7
			s-1.5,1.1-1.6,1c-0.1-0.2-5.4,12.1-11.5,20.8s-7,9.3-6.9,10c0.1,0.7,0.4,2.7,0.2,3.1c-0.3,0.3-4.9,23.4-5.4,27
			c0.2,4-6.5,8.7-10.8,7.7c-2.5-0.6,0.9-1.5,0.7-9.1c0-0.8,1.6-22.3,3.9-27.1c-0.3-3.8-0.6-4.9-0.3-5.1c0.3-0.2,3.7-20.3,9.3-30.4
			S40.3-19.9,40.3-19.9z"/>
		<path fill="#3D4747" d="M45.2-1.6c-2.4,0.7-7.7-0.1-11.4,2.9c-3.3,2.7-4.9,9.2-6.9,12.6c-4.8,8-5.9,14.6-5.9,14.6l-0.6,1.4
			c0,0,0.7,0.2,0.5,0.7c-0.2,0.5-4.4,0.5-5.8,7.2c-1.4,6.7-0.9,22.7-0.9,22.7s-1.7,2.6-2,5.4c4.2,0.1,9.9-4.1,9.8-7.8
			c0.5-3.6,5.1-26.6,5.4-27c0.3-0.3-0.1-2.4-0.2-3.1c-0.1-0.7,0.8-1.3,6.9-10C39.2,11,43.7,1.6,45.2-1.6z"/>
		<path fill="#3D4747" d="M90.9,60c-0.3-0.5-2.4,0-2.4,0s-0.3-3.2-0.2-4.1c-3.1-14.4-11.4-32.1-11.4-32.1s1.4-0.7,1.4-1.7L76,22.4
			l-1.4-3.9c0,0-23.8-17.1-26.7-22.7c-0.1,0.3-0.2,0.8-0.2,1.2c1.2,1.9,5,7.4,12.2,14.7c8.8,9,15.8,13,15.6,13.5
			c-0.2,0.5-0.4,1.4,1,2.3c3.1,6.5,7.7,24.6,8.2,27.3c0.5,2.6,0.3,4.4,1.4,4.5c1.1,0.2,1.3,0,0.6,1c-0.7,1-0.3,2.3,0.3,3.7
			c0.5,1.4,0,2.9,0.8,8.2c0.1-0.4,0.2-0.8,0.3-1.1C87.2,63,91.2,60.4,90.9,60z"/>
		<path fill="#3D4747" d="M62.7-11c0.1-0.4-0.7-1.1-2-1.7c-0.5-0.7-4.7-4.5-4.7-4.5s-0.2-1.3-1-4.9c-2.4,0.9-12.9,2.5-14.6,2.3
			c0,0-9.8,3.9-15.5,14.1c-0.5,0.9-0.9,1.8-1.4,2.8c3.8,2.1,9,4.8,9.8,4.6c1.3-0.3,5.5-5.2,5.5-5.2s13.8-7.3,16-8.2
			c2.2-0.9-4.4,4.3-4.4,4.3l-4.3,1.9c0,0,1.3,1.7-3.5,4.1c1.2-0.5,2.6-1,3.9-1.5c0.4-0.3,0.8-0.5,0.8-0.5s0,0.1,0.1,0.2
			c6-2.2,12.3-4.2,12.3-4.2l3.4-2.9C63-10.7,62.8-10.9,62.7-11z"/>
		<path fill="#343E3E" d="M38.4,0.2c0,0,8.2-4.6,14.9-5.5C51.1-4.6,41.8-1.2,38.4,0.2z"/>
	</g>
</g>
<g>
	
		<radialGradient id="SVGID_3_" cx="38.1257" cy="-2448.9036" r="30" gradientTransform="matrix(1 0 0 -1 0 -2399.5)" gradientUnits="userSpaceOnUse">
		<stop  offset="0" style="stop-color:#8566B7"/>
		<stop  offset="0.565" style="stop-color:#7260AA"/>
		<stop  offset="1" style="stop-color:#695DA4"/>
	</radialGradient>
	<circle fill="url(#SVGID_3_)" cx="38.1" cy="49.4" r="30"/>
	<g>
		<defs>
			<path id="SVGID_235_" d="M36.8,10.4c9.4,0,24.5,2.7,30,15.2C71,35,68.3,42,68.3,49.1c0,16.6-13.4,30-30,30s-30-13.4-30-30
				c0-7.8-2.7-10.8,2.2-20.9C16,17,28.1,10.4,36.8,10.4z"/>
		</defs>
		<clipPath id="SVGID_5_">
			<use xlink:href="#SVGID_235_"  overflow="visible"/>
		</clipPath>
		<g clip-path="url(#SVGID_5_)">
			<g>
				<g>
					<polygon fill="#FFA875" points="32.7,42.8 33.3,46.1 37.9,45.4 37.5,41.7 					"/>
					<path fill="#8C4033" d="M23.1,30.4l0.3,2.2c0,0-0.2,2.3-0.3,2.5c-0.1,0.2,1.4,0.8,1.4,0.8s0.1,3.9,0.4,4
						c0.2,0.1,3.9,0.4,3.9,0.4l0.1-10.7L23.1,30.4z"/>
					<path fill="#FFC58F" d="M41.2,26.8c0,0,1.5,6.8,1.8,7.6c0.3,0.8-1.4,2.6-1.4,2.6l-13.7,0.4l-0.6-1.2l-0.9-6.1L41.2,26.8z"/>
					<polygon fill="#FFA875" points="41.5,28 40.4,28.9 40.1,30.9 38.4,31.2 36.5,30.1 34.8,30.7 35.9,35.8 34.6,35.9 33.5,31.8 
						32.7,32 31.7,33.8 30.6,33.7 29.4,31.9 25.9,31 25.5,28.9 41.1,26.1 					"/>
					<path fill="#AB4C3F" d="M26.4,30.2c0,0.1,1.5,6.5,1.5,6.5l15.4-2.5c0,0,1.4,0.3,1.6,0.6c0.3,0.3,0.3,5.8,0.3,6.2
						c0,0.5-0.8,1.4-1.3,1.6c-0.5,0.2-13.1,1.1-13.4,1c-0.3-0.1-2.3-1.2-2.4-1.6s-0.6-4.6-0.6-4.6l-1.2-1.2l0.5-1
						c0,0-0.9-0.8-0.9-1.1c0-0.3,0.2-1,0.2-1l-0.8-2.6L26.4,30.2z"/>
					<path fill="#8C4033" d="M34.5,35.7c0,0,0.4,1.3,0.6,1.5c0.2,0.2,1.7,0.2,1.9,0.1c0.2-0.1,0.4-2,0.4-2L34.5,35.7z"/>
					<path fill="#FF735E" d="M36.5,29.3c0,0,0,1.9,0.3,2.6s1,2.5,0.7,3.8c-0.2,0.9-1.7,1-2,0c-0.3-1-0.5-3.7-0.7-4.5
						C34.5,29.6,36.4,28.3,36.5,29.3z"/>
					<path fill="#3D3D3D" d="M31.7,29.4c0,0-0.9,0.6-0.9,0.8s0.4,3.9,0.7,4c0.3,0.1,1.3-0.2,1.4-0.3c0.1-0.2-0.1-2.4-0.2-2.5
						C32.7,31.3,31.8,29.4,31.7,29.4z"/>
					<path fill="#3D3D3D" d="M39.2,28.5c0,0-0.9,0.6-0.9,0.8s0.4,3.9,0.7,4c0.3,0.1,1.3-0.2,1.4-0.3c0.1-0.2-0.1-2.4-0.2-2.5
						C40.2,30.4,39.3,28.5,39.2,28.5z"/>
					<path fill="#FFA875" d="M25.4,32.3c0,0-1-1.1-1.2-0.9c-0.2,0.2-0.4,3.2-0.4,3.2l1.3,1.2l1-0.4l-0.9-1.6l0.5-0.8L25.4,32.3z"/>
					<path fill="#FFC24F" d="M16.5,30.7c0,0,11.3,0.1,11.5,0c0.2-0.1,12.2-2.9,12.2-2.9l8.1-3.4l-7.4-1.3l-3.4-6.6l-10.6,2.1h-2.2
						L23.8,26L16.5,30.7z"/>
					<polygon fill="#FAA94D" points="28.8,18.3 29.8,25.7 35.9,25.2 28.9,27.8 27.7,30.7 16.5,30.7 23.8,26 24.5,18.7 26.9,18.7 
											"/>
					<path fill="#E06347" d="M23.8,26c0,0,3.1,0.4,3.3,0.4s6.3-0.8,6.3-0.8l7.6-2.4L39.8,21c0,0-7.3,2.1-7.5,2
						c-0.2-0.1-5.4,0.5-5.4,0.5L24,23.7L23.8,26z"/>
					<polygon fill="#FF7151" points="29.5,23.3 29.6,25 33.5,25.6 40.9,23.2 39.8,21 32.4,23.1 					"/>
				</g>
				<path fill="#FFAE63" d="M36.5,33.5l-0.1,1.4l0.4,0.9c0,0,0.3-1,0.3-1.3C37.2,34.2,36.5,33.5,36.5,33.5z"/>
				<path fill="#FFFFFF" d="M38.7,38.4c0,0-5.2,0.7-5.6,0.6c-0.4,0-1.3-0.3-1.3-0.3l0.3,1.9l1.8-0.5L38.7,38.4z"/>
			</g>
			<polygon fill="#7A524D" points="31.4,76.5 31.4,78.3 36.9,80 42,80.4 46.4,78.6 46.8,76.1 			"/>
			<polygon fill="#FFE385" points="48.3,60.9 47.7,63.2 49.1,63.5 49.3,64.9 52.4,65.5 53.3,66.2 56.5,65.8 57.3,59.1 53.3,57.7 			
				"/>
			<polygon fill="#FFCB6B" points="49.7,60 52.2,59.1 50,61.4 52.1,60.4 50.7,63.1 51.5,63.8 56.6,64.8 56.5,65.8 53.1,66.5 
				52.1,65.7 49.2,65.2 48.9,63.5 47.7,63.4 48.2,60.9 			"/>
			<polygon fill="#FFC58F" points="58.3,49.2 58.6,62.9 55.3,66.3 51.5,63.8 53.3,59.3 55.6,48.2 			"/>
			<path fill="#703B3B" d="M54.1,47c0,0-2.9-1.8-3.1-2.1c-0.1-0.3,0.6-4.1,0.6-4.1l1.5-0.4l1.4,1.9L54.1,47z"/>
			<polygon fill="#A13D3D" points="55.5,39.4 53.3,45.3 53.8,47 56.6,48.2 58,47.2 60.6,41.5 			"/>
			<polygon fill="#703B3B" points="55.3,40 58,41.1 60.3,42.2 60.7,41.4 58.5,40.2 55.6,39.3 			"/>
			<polygon fill="#FFB22E" points="53,40.5 51.6,40.9 51.5,40.3 52.6,39.9 			"/>
			<path fill="#382E2E" d="M52.6,39.9l-2.2-2.6l-3.6-0.7l0,0.3c0,0,2.5,0.8,3,1.1c0.5,0.3,1.7,2.3,1.7,2.3L52.6,39.9z"/>
			<polygon fill="#FFC58F" points="55.3,42.9 57.2,42.4 61.2,43.3 62,44.5 60.8,45.3 61.2,46.9 60.1,47.9 60,49 57.8,49.7 
				54.7,47.6 54.7,46.1 55.3,46.1 54.7,44.8 55.3,44.3 55,43.6 			"/>
			<polygon fill="#FFA875" points="58.4,52.4 54.7,56.6 55.3,66.3 51.5,63.8 53.3,59.3 55.6,48.2 57.8,49.7 58.4,49.6 			"/>
			<polygon fill="#FFC24F" points="31.4,44.4 36.5,43.9 39.3,45 39.4,47 47.9,48.9 52.3,58.5 48.3,60.9 46.8,59.4 48.2,75.8 
				44.6,77.5 37.9,78 30.8,76.7 28.9,74.8 30.2,70.6 27.1,59.5 26.4,61.8 20.6,60.6 21.7,50.4 31.4,47 			"/>
			<polygon fill="#FAA94D" points="47.9,48.9 37.9,49.3 26.2,50.8 23.1,61.1 20.6,60.6 21.7,50.4 31.4,46.9 31.4,44.4 36.5,43.9 
				39.3,45 39.5,46.8 			"/>
			<polygon fill="#FAA94D" points="27.1,59.5 28.9,55.7 31.7,69.9 30.8,74.9 37.9,78 30.8,76.7 28.9,74.8 30.1,70.6 			"/>
			<polygon fill="#FAA94D" points="37.1,48.2 39.2,59.3 40.8,77.8 41.5,77.7 40,59.2 38.3,48 			"/>
			<polygon fill="#FFD64F" points="31.2,56.3 37.5,55.5 37.9,57.6 35.3,59.1 31.5,58.2 			"/>
			<polygon fill="#FFD64F" points="41,55 41.3,57.1 45,58.2 46.4,57.1 46.3,54.8 			"/>
			<polygon fill="#FFE385" points="20.6,60.6 19.5,61.1 20,62.1 19,63.2 19.8,63.7 19.2,64.8 19.8,65.7 26.5,66 27.1,65.3 
				26.7,64.4 27.3,63.7 26.8,63.1 27.1,62.5 26.3,61.8 			"/>
			<polygon fill="#FAA94D" points="46.8,59.4 47.1,55.1 49.7,60.1 48.3,60.9 			"/>
			<polygon fill="#FFCB6B" points="23.1,61.1 21.9,61.8 24,62.5 22.1,62.8 22.7,63.6 21.6,64.4 22.5,65.8 19.8,65.7 19.2,64.8 
				19.8,63.7 19,63.2 20,62.1 19.5,61.1 20.6,60.6 			"/>
			<ellipse fill="#474744" cx="35" cy="58.1" rx="0.5" ry="0.5"/>
			<ellipse fill="#474744" cx="44.7" cy="57.3" rx="0.5" ry="0.5"/>
			<ellipse fill="#474744" cx="36.7" cy="46.3" rx="0.5" ry="0.5"/>
			<polygon fill="#FFD64F" points="40.1,77.8 40.1,80.2 42,80.4 42.5,77.6 			"/>
			<polygon fill="#FFC58F" points="20.1,65.7 20.4,70.8 29.8,71.8 30.2,70.7 29.1,66.7 26.5,66 			"/>
			<polygon fill="#FFA875" points="26.5,66 23.2,67.7 30.2,70.7 29.8,71.8 20.4,70.8 20.1,65.7 			"/>
			<polygon fill="#FAA94D" points="36.7,76.8 34.7,79.6 35.7,80.2 37.4,77.5 			"/>
			<path fill="#FFFFFF" d="M57.4,39.3c0-0.1-2.1-4.7-2.1-4.7l3-0.6l-2.5-5.5l2.1-0.6v-2.8l1.8-0.5l-0.1,5.7l-2.5-0.6l2.1,4.8
				L57,35.2L57.4,39.3z"/>
		</g>
	</g>
</g>
</svg>
