<?xml version="1.0" encoding="utf-8"?>
<!-- Generator: Adobe Illustrator 22.0.1, SVG Export Plug-In . SVG Version: 6.00 Build 0)  -->
<svg version="1.0" id="Layer_1" xmlns="http://www.w3.org/2000/svg" xmlns:xlink="http://www.w3.org/1999/xlink" x="0px" y="0px"
	 viewBox="0 0 208.9 158.1" enable-background="new 0 0 208.9 158.1" xml:space="preserve">
<g>
	
		<linearGradient id="SVGID_1_" gradientUnits="userSpaceOnUse" x1="108.4742" y1="388.7578" x2="108.4742" y2="504.3967" gradientTransform="matrix(1 0 0 -1 0 525.0203)">
		<stop  offset="0" style="stop-color:#E74945"/>
		<stop  offset="1" style="stop-color:#EE542E"/>
	</linearGradient>
	<path fill="url(#SVGID_1_)" d="M167.3,102.1c13.3-0.7,23.8-11.6,23.8-25.1c0-13.4-10.6-24.4-23.8-25.1v-0.1h-15.8
		c0-0.7,0.1-1.4,0.1-2.1c0-15.6-12.2-28.2-27.6-29v-0.1H53.3v0.1c-15.3,0.9-27.5,13.5-27.5,29c0,12.3,7.6,22.8,18.4,27
		c2.3,4.6,6.1,8.4,10.6,10.9c-6.8,4.8-11.3,12.8-11.3,21.8c0,14.3,11.2,25.9,25.3,26.7v0.1h3.4h61.7h22.3v0
		c9.4-0.4,16.9-8.1,16.9-17.6c0-7.6-4.8-14-11.5-16.5L167.3,102.1L167.3,102.1L167.3,102.1z"/>
	
		<linearGradient id="SVGID_2_" gradientUnits="userSpaceOnUse" x1="137.7598" y1="511.1563" x2="146.4178" y2="511.1563" gradientTransform="matrix(1 0 0 -1 0 525.0203)">
		<stop  offset="0" style="stop-color:#E74945"/>
		<stop  offset="1" style="stop-color:#EE542E"/>
	</linearGradient>
	<path fill="url(#SVGID_2_)" d="M142.1,9.5c0,2.4-1.9,4.3-4.3,4.3c2.4,0,4.3,1.9,4.3,4.3c0-2.4,1.9-4.3,4.3-4.3
		C144,13.9,142.1,11.9,142.1,9.5z"/>
	
		<linearGradient id="SVGID_3_" gradientUnits="userSpaceOnUse" x1="68.1718" y1="380.2182" x2="76.8298" y2="380.2182" gradientTransform="matrix(1 0 0 -1 0 525.0203)">
		<stop  offset="0" style="stop-color:#E74945"/>
		<stop  offset="1" style="stop-color:#EE542E"/>
	</linearGradient>
	<path fill="url(#SVGID_3_)" d="M72.5,140.5c0,2.4-1.9,4.3-4.3,4.3c2.4,0,4.3,1.9,4.3,4.3c0-2.4,1.9-4.3,4.3-4.3
		C74.4,144.8,72.5,142.9,72.5,140.5z"/>
	
		<linearGradient id="SVGID_4_" gradientUnits="userSpaceOnUse" x1="15.8158" y1="490.1472" x2="24.4737" y2="490.1472" gradientTransform="matrix(1 0 0 -1 0 525.0203)">
		<stop  offset="0" style="stop-color:#E74945"/>
		<stop  offset="1" style="stop-color:#EE542E"/>
	</linearGradient>
	<path fill="url(#SVGID_4_)" d="M20.1,30.5c0,2.4-1.9,4.3-4.3,4.3c2.4,0,4.3,1.9,4.3,4.3c0-2.4,1.9-4.3,4.3-4.3
		C22.1,34.9,20.1,32.9,20.1,30.5z"/>
	
		<linearGradient id="SVGID_5_" gradientUnits="userSpaceOnUse" x1="171.1288" y1="394.3872" x2="179.7868" y2="394.3872" gradientTransform="matrix(1 0 0 -1 0 525.0203)">
		<stop  offset="0" style="stop-color:#E74945"/>
		<stop  offset="1" style="stop-color:#EE542E"/>
	</linearGradient>
	<path fill="url(#SVGID_5_)" d="M175.5,126.3c0,2.4-1.9,4.3-4.3,4.3c2.4,0,4.3,1.9,4.3,4.3c0-2.4,1.9-4.3,4.3-4.3
		C177.4,130.6,175.5,128.7,175.5,126.3z"/>
	<g opacity="0.3">
		<circle fill="none" stroke="#FECE33" stroke-width="6" stroke-miterlimit="10" cx="105.4" cy="76.9" r="8.1"/>
		<path fill="none" stroke="#FECE33" stroke-width="6" stroke-miterlimit="10" d="M83.3,35.1c-3.4,0.5-5.6,2.6-6.9,5.7
			c-1.4,3.3-1.6,6.8-1.5,10.4c0.1,3.4,0.7,6.7,1.5,10c0.1,0.6,0,0.7-0.5,0.9c-4.4,1.3-8.6,3-12.5,5.5c-2.7,1.8-5,3.9-6.5,6.9
			c-0.4,0.9-0.5,1.9-0.9,2.7c0,0.1,0,0.1,0,0.2c0.3,0.4,0.3,0.8,0,1.2c0,0.1,0,0.1,0,0.2c0,0,0,0.1,0.1,0.1c0.3,0.5,0.3,1.1,0.5,1.7
			c0.9,2.7,2.7,4.7,4.8,6.5c4.2,3.5,9.1,5.6,14.3,7.2c0.7,0.2,0.8,0.4,0.7,1.1c-1.1,4.6-1.7,9.3-1.3,14c0.2,2.5,0.7,4.8,1.9,7
			c1.8,3.3,4.6,4.9,8.3,4.8c3.6-0.1,6.8-1.5,9.9-3.2c3.3-1.9,6.3-4.2,9-6.8c0.5-0.5,0.8-0.4,1.2,0c3.6,3.4,7.5,6.4,12.1,8.4
			c1.9,0.8,3.9,1.5,6.1,1.6c4.4,0.3,7.6-1.8,9.3-6c1.4-3.4,1.7-7,1.6-10.7c-0.1-3.1-0.5-6.1-1.2-9.1c-0.3-1.2-0.3-1.2,0.8-1.5
			c4.5-1.4,8.7-3.3,12.5-6c2.6-1.9,4.9-4.2,6.1-7.3c0.2-0.6,0.1-1.2,0.5-1.7c0-0.1,0-0.1,0-0.2c-0.3-0.4-0.1-0.9-0.1-1.4
			c0,0,0,0,0.1,0c0.1-2.5-1.1-4.5-2.7-6.3c-2.1-2.3-4.6-4-7.4-5.5c-2.8-1.5-5.9-2.7-8.9-3.6c-0.7-0.2-0.9-0.5-0.8-1.2
			c0.9-3.8,1.3-7.7,1.2-11.7c-0.1-2.3-0.3-4.5-1-6.7c-0.6-2.2-1.7-4.1-3.4-5.6c-1.4-1.3-3-1.7-4.7-1.8c-0.3,0-0.6,0-0.9,0
			c-0.2,0.2-0.4,0.2-0.7,0.2c-0.2,0-0.4,0-0.5-0.2c-0.3,0-0.6,0-0.9,0c0,0.1-0.1,0.2-0.3,0.2c-4.7,0.8-8.6,3.2-12.4,6
			c-1.7,1.2-3.3,2.6-4.7,4c-0.5,0.5-0.8,0.4-1.3,0c-3.4-3.2-7.1-6-11.4-8c-2.2-1-4.5-1.8-7-2c-0.1,0-0.2,0-0.3-0.2
			c-0.4,0-0.8,0-1.2,0C83.9,35.2,83.5,35.1,83.3,35.1z M77.7,90c-0.1,0.4-0.2,0.5-0.7,0.4c-5-1.6-9.8-3.6-13.8-7.2
			c-0.9-0.8-1.6-1.7-2.3-2.7c-1.1-1.8-1-3.5,0.2-5.3c1.2-1.8,2.8-3.1,4.5-4.2c3.5-2.3,7.4-3.8,11.4-5c0.1,0,0.2,0,0.3-0.1
			c0.3-0.1,0.4,0.1,0.5,0.4c1.2,3.9,2.7,7.7,4.4,11.4c0.1,0.3,0.1,0.6-0.1,0.9C80.4,82.3,78.9,86.1,77.7,90z M124.6,72.9
			c0,0-0.1,0.1-0.2,0.1c-1.7-3.3-3.6-6.5-5.6-9.7c2.2,0.2,4.2,0.6,6.2,1c0.7,0.1,1.3,0.3,2,0.4c0.4,0.1,0.5,0.2,0.4,0.6
			C126.6,67.9,125.7,70.5,124.6,72.9z M126.1,86.7c0.5,1.3,1,2.7,1.5,4c0.1,0.4,0.2,0.6-0.3,0.7c-2.6,0.5-5.1,1-7.7,1.3
			c-0.2,0.1-0.4,0.2-0.7,0c-0.1-0.1,0-0.2,0.1-0.3c1.9-3.1,3.7-6.3,5.6-9.7C125.1,84.2,125.7,85.5,126.1,86.7z M122,77.5
			c0.2,0.4,0.2,0.7,0,1.1c-2.5,4.9-5.2,9.7-8.2,14.3c-0.2,0.4-0.5,0.6-1,0.6c-2.8,0.1-5.5,0.2-8.3,0.3c-2.8-0.1-5.5-0.2-8.3-0.3
			c-0.4,0-0.6-0.2-0.8-0.5c-3.1-4.6-5.9-9.4-8.3-14.4c-0.2-0.4-0.2-0.7,0-1c2.4-4.9,5.2-9.7,8.2-14.3c0.3-0.4,0.6-0.6,1.1-0.6
			c5.4-0.3,10.8-0.3,16.2,0c0.5,0,0.9,0.2,1.2,0.7C116.8,67.9,119.6,72.6,122,77.5z M90.5,92.9c-3-0.3-5.7-0.8-8.4-1.3
			c-0.4-0.1-0.4-0.3-0.3-0.6c0.9-2.7,1.8-5.3,3-8C86.5,86.4,88.4,89.6,90.5,92.9z M84.7,73.2c-1.1-2.7-2.1-5.2-2.9-7.9
			c-0.1-0.3-0.2-0.5,0.3-0.6c2.7-0.6,5.4-1.1,8.3-1.4C88.4,66.6,86.5,69.8,84.7,73.2z M101.6,108c-4.2,3.9-8.7,7.3-14.3,8.7
			c-1.1,0.3-2.1,0.4-3.2,0.2c-1.4-0.2-2.4-0.9-3.1-2.1c-1.1-1.7-1.5-3.6-1.7-5.6c-0.1-1-0.1-2-0.2-2.6c0.1-3.9,0.6-7.3,1.4-10.6
			c0.1-0.5,0.3-0.6,0.8-0.5c4,0.8,8,1.4,12,1.7c0.4,0,0.6,0.2,0.7,0.5c2.4,3.3,4.9,6.4,7.6,9.4C101.7,107.5,101.9,107.7,101.6,108z
			 M105,104.4c-0.3,0.3-0.4,0.2-0.6,0c-1.9-2.1-3.7-4.2-5.5-6.7c3.9,0.2,7.6,0.1,11.5,0C108.7,100.1,106.9,102.3,105,104.4z
			 M129,113.5c-1.2,2.9-3,3.9-6.1,3.4c-1.1-0.2-2.1-0.5-3.1-0.9c-4.5-1.8-8.2-4.8-11.7-8c-0.3-0.2-0.3-0.4,0-0.7
			c2.8-3,5.2-6.3,7.6-9.6c0.2-0.3,0.5-0.4,0.9-0.4c4-0.4,8-0.9,11.9-1.8c0.5-0.1,0.6,0,0.7,0.5c0.7,3.2,1.2,6.4,1.2,9.7
			C130.3,108.4,130.1,111,129,113.5z M131.4,66.5c0.1-0.3,0.1-0.7,0.7-0.5c4.8,1.5,9.4,3.3,13.4,6.5c1.1,0.9,2.1,1.9,2.8,3.2
			c0.4,0.7,0.6,1.4,0.6,1.8c0,1.8-0.7,2.9-1.5,3.9c-1.6,2-3.7,3.5-6,4.8c-2.9,1.6-5.9,2.8-9,3.8c-0.5,0.2-0.7,0.1-0.8-0.4
			c-1.2-3.8-2.7-7.5-4.5-11.1c-0.2-0.4-0.2-0.7,0-1.1C128.8,73.9,130.2,70.3,131.4,66.5z M107.8,48.3c3.9-3.6,8-6.9,13.2-8.6
			c1.4-0.5,2.8-0.7,4.2-0.5c1.4,0.2,2.4,1,3,2.2c1.2,2.1,1.6,4.4,1.7,6.7c0,0.7,0,1.5,0,2.2c0,3.4-0.5,6.6-1.2,9.9
			c-0.1,0.6-0.4,0.7-0.9,0.6c-3.8-0.9-7.7-1.4-11.7-1.8c-0.4,0-0.6-0.2-0.8-0.5c-2.3-3.3-4.8-6.4-7.5-9.4
			C107.8,48.8,107.5,48.6,107.8,48.3z M104.3,51.9c0.2-0.2,0.3-0.4,0.6-0.1c1.9,2.1,3.7,4.2,5.4,6.6c-3.8-0.1-7.5-0.1-11.3,0
			c1.2-1.7,2.4-3.1,3.7-4.6C103.2,53.2,103.7,52.6,104.3,51.9z M87.1,39.5c4,1,7.3,3.1,10.5,5.6c1.3,1,2.5,2.1,3.7,3.1
			c0.3,0.3,0.4,0.5,0.1,0.8c-2.7,3-5.3,6.1-7.6,9.4c-0.2,0.3-0.4,0.5-0.8,0.5c-4,0.4-7.9,0.9-11.8,1.8c-0.6,0.1-0.7-0.1-0.8-0.6
			c-0.8-3.4-1.3-6.8-1.4-10.6c0-1.7,0.2-3.7,0.7-5.7C80.9,39.7,83.1,38.4,87.1,39.5z"/>
	</g>
	<path opacity="0.5" fill="#FFFFFF" enable-background="new    " d="M65.7,30.5c0,2.4-1.9,4.3-4.3,4.3c2.4,0,4.3,1.9,4.3,4.3
		c0-2.4,1.9-4.3,4.3-4.3C67.6,34.9,65.7,32.9,65.7,30.5z"/>
	<path opacity="0.5" fill="#FFFFFF" enable-background="new    " d="M161,57.5c0,2.4-1.9,4.3-4.3,4.3c2.4,0,4.3,1.9,4.3,4.3
		c0-2.4,1.9-4.3,4.3-4.3C163,61.8,161,59.8,161,57.5z"/>
	<path opacity="0.5" fill="#FFFFFF" enable-background="new    " d="M57,109.3c0,2.4-1.9,4.3-4.3,4.3c2.4,0,4.3,1.9,4.3,4.3
		c0-2.4,1.9-4.3,4.3-4.3C59,113.6,57,111.7,57,109.3z"/>
	<path opacity="0.5" fill="#FFFFFF" enable-background="new    " d="M150.7,98.8c0,2.4-1.9,4.3-4.3,4.3c2.4,0,4.3,1.9,4.3,4.3
		c0-2.4,1.9-4.3,4.3-4.3C152.7,103.1,150.7,101.2,150.7,98.8z"/>
	<path opacity="0.5" fill="#FFFFFF" enable-background="new    " d="M36.1,48.1c0,2.4-1.9,4.3-4.3,4.3c2.4,0,4.3,1.9,4.3,4.3
		c0-2.4,1.9-4.3,4.3-4.3C38.1,52.4,36.1,50.5,36.1,48.1z"/>
	<g>
		<g>
			<defs>
				<path id="SVGID_88_" d="M167.3,102.1c13.3-0.7,23.8-11.6,23.8-25.1c0-13.4-10.6-24.4-23.8-25.1v-0.1h-15.8
					c0-0.7,0.1-1.4,0.1-2.1c0-15.6-12.2-28.2-27.6-29v-0.1H53.3v0.1c-15.3,0.9-27.5,13.5-27.5,29c0,12.3,7.6,22.8,18.4,27
					c2.3,4.6,6.1,8.4,10.6,10.9c-6.8,4.8-11.3,12.8-11.3,21.8c0,14.3,11.2,25.9,25.3,26.7v0.1h3.4h61.7h22.3v0
					c9.4-0.4,16.9-8.1,16.9-17.6c0-7.6-4.8-14-11.5-16.5L167.3,102.1L167.3,102.1L167.3,102.1z"/>
			</defs>
			<clipPath id="SVGID_6_">
				<use xlink:href="#SVGID_88_"  overflow="visible"/>
			</clipPath>
			<g opacity="0.2" clip-path="url(#SVGID_6_)">
				<circle fill="#FECE33" cx="105.6" cy="76.8" r="12.8"/>
				<path fill="#FECE33" d="M128.7,5.8c-4.5-3.3-9.2-3.3-14.2-1.3c-5.3,2.2-9.5,5.9-13.4,10c-3.6,3.9-6.8,8.3-9.5,12.8
					c-0.5,0.8-0.8,0.8-1.6,0.4c-6.4-3.5-13-6.4-20.2-7.8c-5-1-10.1-1.3-15,0.4c-1.5,0.5-2.6,1.6-4.1,2.1c-0.1,0.1-0.1,0.1-0.2,0.2
					c-0.1,0.8-0.6,1.2-1.4,1.4c-0.1,0.1-0.1,0.1-0.2,0.2c0,0.1,0,0.1,0,0.2c-0.2,0.9-1,1.6-1.4,2.4c-2,4-2.3,8.3-1.9,12.7
					c0.8,8.7,3.9,16.6,7.9,24.2c0.5,1,0.4,1.4-0.5,2c-6.4,4-12.4,8.5-17.2,14.3c-2.5,3-4.6,6.3-5.7,10.1c-1.7,5.7-0.3,10.7,4,14.7
					c4.2,3.9,9.3,6,14.8,7.5c5.8,1.6,11.7,2.4,17.8,2.5c1.1,0,1.3,0.4,1.3,1.4c0.2,7.9,1.3,15.6,4.1,23c1.2,3.1,2.8,6.1,5,8.6
					c4.7,5.2,10.5,6.5,17.2,3.8c5.5-2.2,9.8-6,13.8-10.2c3.4-3.6,6.3-7.5,8.9-11.6c1-1.6,1-1.6,2.6-0.7c6.6,3.4,13.5,6.2,20.9,7.3
					c5.1,0.8,10.2,0.9,15.1-1.4c0.9-0.4,1.5-1.2,2.5-1.3c0.1-0.1,0.1-0.1,0.2-0.2c0.1-0.9,0.9-1.2,1.4-1.7c0,0,0,0.1,0.1,0.1
					c3-2.7,3.9-6.3,4.1-10.1c0.3-4.9-0.7-9.7-2.1-14.4c-1.5-4.9-3.6-9.6-6-14.1c-0.5-1-0.5-1.6,0.6-2.3c5.3-3.4,10.2-7.2,14.5-11.8
					c2.5-2.6,4.8-5.4,6.5-8.6c1.7-3.1,2.7-6.5,2.5-10.1c-0.1-2.9-1.5-5.2-3.3-7.3c-0.3-0.3-0.6-0.6-1-1c-0.5,0-0.7-0.3-1-0.6
					c-0.2-0.2-0.5-0.4-0.4-0.7c-0.3-0.3-0.6-0.6-1-1c-0.2,0.1-0.3,0-0.5-0.1c-6.2-4.4-13.3-6.1-20.6-7.2c-3.3-0.5-6.5-0.8-9.8-0.8
					c-1.2,0-1.4-0.4-1.4-1.5c-0.3-7.4-1.3-14.8-3.8-21.8c-1.3-3.7-3.1-7.1-5.6-10.1c-0.1-0.1-0.2-0.3-0.1-0.5
					c-0.5-0.5-0.9-0.9-1.4-1.4C129.3,6.6,129.1,6,128.7,5.8z M60.7,61.3c-0.5,0.3-0.8,0.3-1.2-0.3c-3.9-7.4-7-15.1-7.5-23.6
					c-0.1-1.9,0-3.7,0.5-5.6c0.8-3.2,2.9-5.1,6.1-5.7c3.3-0.7,6.6-0.3,9.8,0.3c6.6,1.3,12.6,4,18.5,7.2c0.1,0.1,0.2,0.1,0.3,0.2
					c0.5,0.3,0.3,0.6,0.1,0.9c-3,5.8-5.6,11.7-7.9,17.8c-0.2,0.5-0.6,0.8-1.1,0.9C72.4,55.7,66.5,58.2,60.7,61.3z M132.6,94.8
					c-0.1,0-0.2,0-0.3,0c1.7-5.6,3.2-11.3,4.6-17.2c2.2,2.7,4.1,5.4,5.9,8.1c0.6,0.9,1.2,1.9,1.8,2.7c0.4,0.5,0.3,0.9-0.3,1.2
					C140.5,91.4,136.6,93.2,132.6,94.8z M118.9,112c-0.9,2.1-1.9,4.1-2.9,6.2c-0.3,0.6-0.5,0.9-1.2,0.4c-3.4-2.3-6.9-4.6-10.1-7.3
					c-0.4-0.1-0.8-0.2-0.8-0.7c0-0.2,0.2-0.2,0.4-0.2c5.7-1.3,11.3-2.9,17.2-4.7C120.5,108.1,119.7,110.1,118.9,112z M124.6,97
					c-0.2,0.7-0.6,1-1.2,1.3c-8.3,2.7-16.7,5.1-25.3,6.8c-0.7,0.1-1.2,0.1-1.7-0.4c-3.2-3-6.4-6-9.7-8.9c-3-3.2-6-6.5-9-9.7
					c-0.4-0.5-0.5-0.9-0.4-1.5c1.7-8.7,3.9-17.2,6.8-25.5c0.2-0.6,0.6-1,1.2-1.2c8.3-2.8,16.7-5,25.3-6.8c0.8-0.2,1.3,0,1.9,0.5
					c6.4,5.7,12.5,11.8,18.2,18.2c0.6,0.6,0.8,1.2,0.6,2.1C129.5,80.4,127.3,88.8,124.6,97z M71.8,79c-3-3.7-5.6-7.3-8-11
					c-0.3-0.5-0.2-0.8,0.3-1.1c4-2,8-3.9,12.4-5.7C74.6,67.1,73.2,72.9,71.8,79z M87.5,50.3C89.2,46,91,42,93,38.1
					c0.2-0.5,0.4-0.8,1-0.4c3.7,2.4,7.3,4.9,10.9,7.8C99,47,93.3,48.4,87.5,50.3z M67.3,108.3c-9.1-0.4-18-1.5-26-6.3
					c-1.5-0.9-2.8-2-3.9-3.4c-1.3-1.8-1.7-3.7-1.2-5.8c0.7-3.1,2.4-5.7,4.3-8.2c1-1.3,2.1-2.4,2.7-3.1c4.4-4.3,8.8-7.5,13.5-10.4
					c0.7-0.4,1-0.3,1.4,0.3c3.5,5.4,7.4,10.5,11.6,15.5c0.4,0.5,0.4,0.9,0.3,1.4c-1,6.3-1.8,12.7-2,19.1
					C68,107.8,68.1,108.4,67.3,108.3z M75.2,108.2c-0.6,0-0.7-0.2-0.6-0.7c0.2-4.5,0.6-8.9,1.3-13.7c4.2,4.6,8.4,8.7,13,13
					C84.1,107.5,79.7,107.9,75.2,108.2z M91.9,145.4c-4.7,1.9-7.8,1-10.7-3.1c-1-1.4-1.9-2.9-2.5-4.5c-3-7.1-3.9-14.6-4.2-22.2
					c0-0.6,0.2-0.8,0.8-0.8c6.5-0.3,12.9-1.1,19.3-2.3c0.6-0.1,1,0.2,1.5,0.5c4.9,4.1,10,7.9,15.5,11.3c0.7,0.4,0.7,0.7,0.3,1.4
					c-2.8,4.4-5.9,8.6-9.6,12.3C99.2,141.1,95.9,143.8,91.9,145.4z M147.5,95.3c0.5-0.3,0.9-0.6,1.3,0.2c3.7,7.1,6.9,14.4,7.7,22.4
					c0.2,2.3,0.2,4.6-0.5,6.8c-0.3,1.2-0.9,2.3-1.3,2.8c-2,2-4,2.5-6.1,2.7c-4.1,0.5-8.1-0.3-12.1-1.3c-5-1.4-9.8-3.5-14.5-5.8
					c-0.7-0.4-0.9-0.7-0.5-1.4c2.9-5.7,5.4-11.5,7.5-17.5c0.2-0.7,0.6-1,1.3-1.3C136.3,100.6,142,98.1,147.5,95.3z M141.5,48.2
					c8.5,0.3,16.8,1.2,24.5,5.1c2,1,3.9,2.3,5.3,4.2c1.3,1.8,1.5,3.8,1,5.9c-0.9,3.7-3.1,6.7-5.6,9.5c-0.8,0.9-1.7,1.7-2.5,2.5
					c-3.7,3.8-8,7-12.5,9.8c-0.9,0.6-1.2,0.3-1.7-0.4c-3.3-5.3-7.1-10.3-11.1-15.2c-0.4-0.5-0.5-0.9-0.4-1.5
					c1.1-6.3,1.8-12.6,2.1-18.9C140.8,48.7,140.7,48.2,141.5,48.2z M133.4,48.3c0.4,0,0.9-0.1,0.8,0.5c-0.2,4.4-0.6,8.8-1.3,13.5
					c-4.2-4.4-8.3-8.6-12.8-12.8c3.2-0.6,6.3-0.8,9.3-1C130.7,48.5,132.1,48.4,133.4,48.3z M128.1,15c3.3,5.6,4.7,11.8,5.5,18.1
					c0.3,2.5,0.4,5.1,0.6,7.7c0.1,0.7-0.1,0.9-0.9,1c-6.4,0.2-12.8,1-19.1,2c-0.6,0.1-1,0-1.5-0.4c-4.8-4-9.9-7.8-15.2-11.2
					c-0.9-0.5-0.7-0.9-0.3-1.6c2.9-4.7,6.2-9.1,10.4-13.5c1.9-1.8,4.4-4,7.3-5.6C120.9,8.3,124.7,9.3,128.1,15z"/>
			</g>
		</g>
	</g>
	<g>
		<circle fill="#E8E8E8" cx="105.4" cy="76.9" r="8.1"/>
		<path fill="#E8E8E8" d="M83.3,35.1c-3.4,0.5-5.6,2.6-6.9,5.7c-1.4,3.3-1.6,6.8-1.5,10.4c0.1,3.4,0.7,6.7,1.5,10
			c0.1,0.6,0,0.7-0.5,0.9c-4.4,1.3-8.6,3-12.5,5.5c-2.7,1.8-5,3.9-6.5,6.9c-0.4,0.9-0.5,1.9-0.9,2.7c0,0.1,0,0.1,0,0.2
			c0.3,0.4,0.3,0.8,0,1.2c0,0.1,0,0.1,0,0.2c0,0,0,0.1,0.1,0.1c0.3,0.5,0.3,1.1,0.5,1.7c0.9,2.7,2.7,4.7,4.8,6.5
			c4.2,3.5,9.1,5.6,14.3,7.2c0.7,0.2,0.8,0.4,0.7,1.1c-1.1,4.6-1.7,9.3-1.3,14c0.2,2.5,0.7,4.8,1.9,7c1.8,3.3,4.6,4.9,8.3,4.8
			c3.6-0.1,6.8-1.5,9.9-3.2c3.3-1.9,6.3-4.2,9-6.8c0.5-0.5,0.8-0.4,1.2,0c3.6,3.4,7.5,6.4,12.1,8.4c1.9,0.8,3.9,1.5,6.1,1.6
			c4.4,0.3,7.6-1.8,9.3-6c1.4-3.4,1.7-7,1.6-10.7c-0.1-3.1-0.5-6.1-1.2-9.1c-0.3-1.2-0.3-1.2,0.8-1.5c4.5-1.4,8.7-3.3,12.5-6
			c2.6-1.9,4.9-4.2,6.1-7.3c0.2-0.6,0.1-1.2,0.5-1.7c0-0.1,0-0.1,0-0.2c-0.3-0.4-0.1-0.9-0.1-1.4c0,0,0,0,0.1,0
			c0.1-2.5-1.1-4.5-2.7-6.3c-2.1-2.3-4.6-4-7.4-5.5c-2.8-1.5-5.9-2.7-8.9-3.6c-0.7-0.2-0.9-0.5-0.8-1.2c0.9-3.8,1.3-7.7,1.2-11.7
			c-0.1-2.3-0.3-4.5-1-6.7c-0.6-2.2-1.7-4.1-3.4-5.6c-1.4-1.3-3-1.7-4.7-1.8c-0.3,0-0.6,0-0.9,0c-0.2,0.2-0.4,0.2-0.7,0.2
			c-0.2,0-0.4,0-0.5-0.2c-0.3,0-0.6,0-0.9,0c0,0.1-0.1,0.2-0.3,0.2c-4.7,0.8-8.6,3.2-12.4,6c-1.7,1.2-3.3,2.6-4.7,4
			c-0.5,0.5-0.8,0.4-1.3,0c-3.4-3.2-7.1-6-11.4-8c-2.2-1-4.5-1.8-7-2c-0.1,0-0.2,0-0.3-0.2c-0.4,0-0.8,0-1.2,0
			C83.9,35.2,83.5,35.1,83.3,35.1z M77.7,90c-0.1,0.4-0.2,0.5-0.7,0.4c-5-1.6-9.8-3.6-13.8-7.2c-0.9-0.8-1.6-1.7-2.3-2.7
			c-1.1-1.8-1-3.5,0.2-5.3c1.2-1.8,2.8-3.1,4.5-4.2c3.5-2.3,7.4-3.8,11.4-5c0.1,0,0.2,0,0.3-0.1c0.3-0.1,0.4,0.1,0.5,0.4
			c1.2,3.9,2.7,7.7,4.4,11.4c0.1,0.3,0.1,0.6-0.1,0.9C80.4,82.3,78.9,86.1,77.7,90z M124.6,72.9c0,0-0.1,0.1-0.2,0.1
			c-1.7-3.3-3.6-6.5-5.6-9.7c2.2,0.2,4.2,0.6,6.2,1c0.7,0.1,1.3,0.3,2,0.4c0.4,0.1,0.5,0.2,0.4,0.6
			C126.6,67.9,125.7,70.5,124.6,72.9z M126.1,86.7c0.5,1.3,1,2.7,1.5,4c0.1,0.4,0.2,0.6-0.3,0.7c-2.6,0.5-5.1,1-7.7,1.3
			c-0.2,0.1-0.4,0.2-0.7,0c-0.1-0.1,0-0.2,0.1-0.3c1.9-3.1,3.7-6.3,5.6-9.7C125.1,84.2,125.7,85.5,126.1,86.7z M122,77.5
			c0.2,0.4,0.2,0.7,0,1.1c-2.5,4.9-5.2,9.7-8.2,14.3c-0.2,0.4-0.5,0.6-1,0.6c-2.8,0.1-5.5,0.2-8.3,0.3c-2.8-0.1-5.5-0.2-8.3-0.3
			c-0.4,0-0.6-0.2-0.8-0.5c-3.1-4.6-5.9-9.4-8.3-14.4c-0.2-0.4-0.2-0.7,0-1c2.4-4.9,5.2-9.7,8.2-14.3c0.3-0.4,0.6-0.6,1.1-0.6
			c5.4-0.3,10.8-0.3,16.2,0c0.5,0,0.9,0.2,1.2,0.7C116.8,67.9,119.6,72.6,122,77.5z M90.5,92.9c-3-0.3-5.7-0.8-8.4-1.3
			c-0.4-0.1-0.4-0.3-0.3-0.6c0.9-2.7,1.8-5.3,3-8C86.5,86.4,88.4,89.6,90.5,92.9z M84.7,73.2c-1.1-2.7-2.1-5.2-2.9-7.9
			c-0.1-0.3-0.2-0.5,0.3-0.6c2.7-0.6,5.4-1.1,8.3-1.4C88.4,66.6,86.5,69.8,84.7,73.2z M101.6,108c-4.2,3.9-8.7,7.3-14.3,8.7
			c-1.1,0.3-2.1,0.4-3.2,0.2c-1.4-0.2-2.4-0.9-3.1-2.1c-1.1-1.7-1.5-3.6-1.7-5.6c-0.1-1-0.1-2-0.2-2.6c0.1-3.9,0.6-7.3,1.4-10.6
			c0.1-0.5,0.3-0.6,0.8-0.5c4,0.8,8,1.4,12,1.7c0.4,0,0.6,0.2,0.7,0.5c2.4,3.3,4.9,6.4,7.6,9.4C101.7,107.5,101.9,107.7,101.6,108z
			 M105,104.4c-0.3,0.3-0.4,0.2-0.6,0c-1.9-2.1-3.7-4.2-5.5-6.7c3.9,0.2,7.6,0.1,11.5,0C108.7,100.1,106.9,102.3,105,104.4z
			 M129,113.5c-1.2,2.9-3,3.9-6.1,3.4c-1.1-0.2-2.1-0.5-3.1-0.9c-4.5-1.8-8.2-4.8-11.7-8c-0.3-0.2-0.3-0.4,0-0.7
			c2.8-3,5.2-6.3,7.6-9.6c0.2-0.3,0.5-0.4,0.9-0.4c4-0.4,8-0.9,11.9-1.8c0.5-0.1,0.6,0,0.7,0.5c0.7,3.2,1.2,6.4,1.2,9.7
			C130.3,108.4,130.1,111,129,113.5z M131.4,66.5c0.1-0.3,0.1-0.7,0.7-0.5c4.8,1.5,9.4,3.3,13.4,6.5c1.1,0.9,2.1,1.9,2.8,3.2
			c0.4,0.7,0.6,1.4,0.6,1.8c0,1.8-0.7,2.9-1.5,3.9c-1.6,2-3.7,3.5-6,4.8c-2.9,1.6-5.9,2.8-9,3.8c-0.5,0.2-0.7,0.1-0.8-0.4
			c-1.2-3.8-2.7-7.5-4.5-11.1c-0.2-0.4-0.2-0.7,0-1.1C128.8,73.9,130.2,70.3,131.4,66.5z M107.8,48.3c3.9-3.6,8-6.9,13.2-8.6
			c1.4-0.5,2.8-0.7,4.2-0.5c1.4,0.2,2.4,1,3,2.2c1.2,2.1,1.6,4.4,1.7,6.7c0,0.7,0,1.5,0,2.2c0,3.4-0.5,6.6-1.2,9.9
			c-0.1,0.6-0.4,0.7-0.9,0.6c-3.8-0.9-7.7-1.4-11.7-1.8c-0.4,0-0.6-0.2-0.8-0.5c-2.3-3.3-4.8-6.4-7.5-9.4
			C107.8,48.8,107.5,48.6,107.8,48.3z M104.3,51.9c0.2-0.2,0.3-0.4,0.6-0.1c1.9,2.1,3.7,4.2,5.4,6.6c-3.8-0.1-7.5-0.1-11.3,0
			c1.2-1.7,2.4-3.1,3.7-4.6C103.2,53.2,103.7,52.6,104.3,51.9z M87.1,39.5c4,1,7.3,3.1,10.5,5.6c1.3,1,2.5,2.1,3.7,3.1
			c0.3,0.3,0.4,0.5,0.1,0.8c-2.7,3-5.3,6.1-7.6,9.4c-0.2,0.3-0.4,0.5-0.8,0.5c-4,0.4-7.9,0.9-11.8,1.8c-0.6,0.1-0.7-0.1-0.8-0.6
			c-0.8-3.4-1.3-6.8-1.4-10.6c0-1.7,0.2-3.7,0.7-5.7C80.9,39.7,83.1,38.4,87.1,39.5z"/>
	</g>
	
		<linearGradient id="SVGID_7_" gradientUnits="userSpaceOnUse" x1="124.5559" y1="751.3817" x2="170.1909" y2="751.3817" gradientTransform="matrix(1 0 0 -1 -9.6152 779.0887)">
		<stop  offset="0" style="stop-color:#E74945"/>
		<stop  offset="1" style="stop-color:#EE542E"/>
	</linearGradient>
	<path fill="url(#SVGID_7_)" d="M160.6,27.7c0,0.9-0.7,1.6-1.6,1.6l-42.4,0c-0.9,0-1.6-0.7-1.6-1.6l0,0c0-0.9,0.7-1.6,1.6-1.6
		l42.4,0C159.8,26.1,160.6,26.8,160.6,27.7L160.6,27.7z"/>
	
		<linearGradient id="SVGID_9_" gradientUnits="userSpaceOnUse" x1="29.76" y1="680.2996" x2="75.394" y2="680.2996" gradientTransform="matrix(1 0 0 -1 -9.6152 779.0887)">
		<stop  offset="0" style="stop-color:#E74945"/>
		<stop  offset="1" style="stop-color:#EE542E"/>
	</linearGradient>
	<path fill="url(#SVGID_9_)" d="M65.8,98.8c0,0.9-0.7,1.6-1.6,1.6l-42.4,0c-0.9,0-1.6-0.7-1.6-1.6l0,0c0-0.9,0.7-1.6,1.6-1.6l42.4,0
		C65,97.2,65.8,97.9,65.8,98.8L65.8,98.8z"/>
	<path opacity="0.5" fill="#C0D6DD" enable-background="new    " d="M202.6,86.6c0,0.9-0.7,1.6-1.6,1.6l-42.4,0
		c-0.9,0-1.6-0.7-1.6-1.6l0,0c0-0.9,0.7-1.6,1.6-1.6l42.4,0C201.9,85,202.6,85.7,202.6,86.6L202.6,86.6z"/>
</g>
</svg>
