<?xml version="1.0" encoding="utf-8"?>
<!-- Generator: Adobe Illustrator 22.0.1, SVG Export Plug-In . SVG Version: 6.00 Build 0)  -->
<svg version="1.0" id="Layer_1" xmlns="http://www.w3.org/2000/svg" xmlns:xlink="http://www.w3.org/1999/xlink" x="0px" y="0px"
	 viewBox="0 0 208.9 158.1" enable-background="new 0 0 208.9 158.1" xml:space="preserve">
<g>
	
		<linearGradient id="SVGID_1_" gradientUnits="userSpaceOnUse" x1="102.549" y1="378.3012" x2="102.549" y2="493.9413" gradientTransform="matrix(1 0 0 -1 0 525.0203)">
		<stop  offset="0" style="stop-color:#E74945"/>
		<stop  offset="1" style="stop-color:#EE5E2E"/>
	</linearGradient>
	<path fill="url(#SVGID_1_)" d="M166.8,87.2c10.8-4.3,18.4-14.7,18.4-27c0-15.5-12.2-28.2-27.5-29v-0.1H87.1v0.1
		c-15.4,0.8-27.6,13.5-27.6,29c0,0.7,0,1.4,0.1,2.1H43.7v0.1C30.4,63.1,19.9,74,19.9,87.5c0,13.4,10.6,24.4,23.8,25.1v0.1h9
		c-0.7,2.3-1,4.8-1,7.3c0,14.3,11.3,26,25.4,26.7v0.1h65.1v-0.1c14.1-0.8,25.3-12.4,25.3-26.7c0-9-4.5-17-11.3-21.8
		C160.7,95.7,164.4,91.9,166.8,87.2z"/>
	
		<linearGradient id="SVGID_2_" gradientUnits="userSpaceOnUse" x1="182.75" y1="483.1628" x2="191.408" y2="483.1628" gradientTransform="matrix(1 0 0 -1 0 525.0203)">
		<stop  offset="0" style="stop-color:#E74945"/>
		<stop  offset="1" style="stop-color:#EE5E2E"/>
	</linearGradient>
	<path fill="url(#SVGID_2_)" d="M187.1,37.5c0,2.4-1.9,4.3-4.3,4.3c2.4,0,4.3,1.9,4.3,4.3c0-2.4,1.9-4.3,4.3-4.3
		C189,41.9,187.1,39.9,187.1,37.5z"/>
	
		<linearGradient id="SVGID_3_" gradientUnits="userSpaceOnUse" x1="38.708" y1="402.1997" x2="47.366" y2="402.1997" gradientTransform="matrix(1 0 0 -1 0 525.0203)">
		<stop  offset="0" style="stop-color:#E74945"/>
		<stop  offset="1" style="stop-color:#EE5E2E"/>
	</linearGradient>
	<path fill="url(#SVGID_3_)" d="M43,118.5c0,2.4-1.9,4.3-4.3,4.3c2.4,0,4.3,1.9,4.3,4.3c0-2.4,1.9-4.3,4.3-4.3
		C45,122.8,43,120.9,43,118.5z"/>
	
		<linearGradient id="SVGID_4_" gradientUnits="userSpaceOnUse" x1="74.211" y1="509.3228" x2="82.869" y2="509.3228" gradientTransform="matrix(1 0 0 -1 0 525.0203)">
		<stop  offset="0" style="stop-color:#E74945"/>
		<stop  offset="1" style="stop-color:#EE5E2E"/>
	</linearGradient>
	<path fill="url(#SVGID_4_)" d="M78.5,11.4c0,2.4-1.9,4.3-4.3,4.3c2.4,0,4.3,1.9,4.3,4.3c0-2.4,1.9-4.3,4.3-4.3
		C80.5,15.7,78.5,13.8,78.5,11.4z"/>
	
		<linearGradient id="SVGID_5_" gradientUnits="userSpaceOnUse" x1="164.26" y1="424.7588" x2="172.918" y2="424.7588" gradientTransform="matrix(1 0 0 -1 0 525.0203)">
		<stop  offset="0" style="stop-color:#E74945"/>
		<stop  offset="1" style="stop-color:#EE5E2E"/>
	</linearGradient>
	<path fill="url(#SVGID_5_)" d="M168.6,95.9c0,2.4-1.9,4.3-4.3,4.3c2.4,0,4.3,1.9,4.3,4.3c0-2.4,1.9-4.3,4.3-4.3
		C170.5,100.3,168.6,98.3,168.6,95.9z"/>
	
		<linearGradient id="SVGID_6_" gradientUnits="userSpaceOnUse" x1="165.4672" y1="714.9532" x2="211.1002" y2="714.9532" gradientTransform="matrix(1 0 0 -1 -9.6152 779.0887)">
		<stop  offset="0" style="stop-color:#E74945"/>
		<stop  offset="1" style="stop-color:#EE5E2E"/>
	</linearGradient>
	<path fill="url(#SVGID_6_)" d="M201.5,64.1c0,0.9-0.7,1.6-1.6,1.6l-42.4,0c-0.9,0-1.6-0.7-1.6-1.6l0,0c0-0.9,0.7-1.6,1.6-1.6
		l42.4,0C200.8,62.5,201.5,63.2,201.5,64.1L201.5,64.1z"/>
	<g>
		<g>
			<defs>
				<path id="SVGID_61_" d="M166.8,87.2c10.8-4.3,18.4-14.7,18.4-27c0-15.5-12.2-28.2-27.5-29v-0.1H87.1v0.1
					c-15.4,0.8-27.6,13.5-27.6,29c0,0.7,0,1.4,0.1,2.1H43.7v0.1C30.4,63.1,19.9,74,19.9,87.5c0,13.4,10.6,24.4,23.8,25.1v0.1h9
					c-0.7,2.3-1,4.8-1,7.3c0,14.3,11.3,26,25.4,26.7v0.1h65.1v-0.1c14.1-0.8,25.3-12.4,25.3-26.7c0-9-4.5-17-11.3-21.8
					C160.7,95.7,164.4,91.9,166.8,87.2z"/>
			</defs>
			<clipPath id="SVGID_7_">
				<use xlink:href="#SVGID_61_"  overflow="visible"/>
			</clipPath>
			<g clip-path="url(#SVGID_7_)">
				<g>
					<defs>
						
							<ellipse id="SVGID_63_" transform="matrix(1 -2.868016e-03 2.868016e-03 1 -0.2304 0.3378)" cx="117.7" cy="80.5" rx="80" ry="80"/>
					</defs>
					<clipPath id="SVGID_9_">
						<use xlink:href="#SVGID_63_"  overflow="visible"/>
					</clipPath>
					<polygon opacity="0.3" clip-path="url(#SVGID_9_)" fill="#FECE33" enable-background="new    " points="137,77.7 177.1,-6 
						54.6,-6 94.8,77.7 					"/>
				</g>
			</g>
			<path opacity="0.5" clip-path="url(#SVGID_7_)" fill="#C0D6DD" enable-background="new    " d="M61.5,93.4c0,0.9-0.7,1.6-1.6,1.6
				l-42.4,0c-0.9,0-1.6-0.7-1.6-1.6l0,0c0-0.9,0.7-1.6,1.6-1.6l42.4,0C60.8,91.8,61.5,92.5,61.5,93.4L61.5,93.4z"/>
			
				<linearGradient id="SVGID_10_" gradientUnits="userSpaceOnUse" x1="23.1122" y1="677.1996" x2="68.7462" y2="677.1996" gradientTransform="matrix(1 0 0 -1 -9.6152 779.0887)">
				<stop  offset="0" style="stop-color:#E74945"/>
				<stop  offset="1" style="stop-color:#EE5E2E"/>
			</linearGradient>
			<path clip-path="url(#SVGID_7_)" fill="url(#SVGID_10_)" d="M59.1,101.9c0,0.9-0.7,1.6-1.6,1.6l-42.4,0c-0.9,0-1.6-0.7-1.6-1.6
				l0,0c0-0.9,0.7-1.6,1.6-1.6l42.4,0C58.4,100.3,59.1,101,59.1,101.9L59.1,101.9z"/>
			
				<linearGradient id="SVGID_11_" gradientUnits="userSpaceOnUse" x1="138.0062" y1="648.7001" x2="183.6412" y2="648.7001" gradientTransform="matrix(1 0 0 -1 -9.6152 779.0887)">
				<stop  offset="0" style="stop-color:#E74945"/>
				<stop  offset="1" style="stop-color:#EE5E2E"/>
			</linearGradient>
			<path clip-path="url(#SVGID_7_)" fill="url(#SVGID_11_)" d="M174,130.4c0,0.9-0.7,1.6-1.6,1.6l-42.4,0c-0.9,0-1.6-0.7-1.6-1.6
				l0,0c0-0.9,0.7-1.6,1.6-1.6l42.4,0C173.3,128.8,174,129.5,174,130.4L174,130.4z"/>
			<g clip-path="url(#SVGID_7_)">
				<g>
					<defs>
						<path id="SVGID_67_" d="M197,84.1c0,44.2-35.8,80-80,80c-44.2,0-80-35.8-80-80s35.8-80,80-80C161.2,4.1,197,40,197,84.1z"/>
					</defs>
					<clipPath id="SVGID_12_">
						<use xlink:href="#SVGID_67_"  overflow="visible"/>
					</clipPath>
					<g clip-path="url(#SVGID_12_)">
						
							<linearGradient id="SVGID_13_" gradientUnits="userSpaceOnUse" x1="116.5845" y1="416.1333" x2="116.5845" y2="459.605" gradientTransform="matrix(1 0 0 -1 0 525.0203)">
							<stop  offset="0" style="stop-color:#57AF5E"/>
							<stop  offset="1" style="stop-color:#C1D24D"/>
						</linearGradient>
						<path fill="url(#SVGID_13_)" d="M119.5,75.9c0,0-6-10.1-13.4-10.3c-7.4-0.2-15.5,8.5-10.9,19.9c4.7,11.4,20.1,23.4,20.1,23.4
							s18.6-14.1,20.7-19.2c2.1-5.1,6.9-19.3-1.5-22.4c-8.3-3.1-11.1-2-15.1,1.3C119.5,68.5,119.5,75.9,119.5,75.9z"/>
						<g id="love_1_">
							<g id="hands_1_">
								<path fill="#E8E8E8" d="M157.9,162.8V93.7c5-19.2,3.5-36,7-44.8c3.8-9.6-3.5-8.8-5.9-2.2c-2.6,7.3-5.7,13.3-5.7,26.8
									c-1.7-2.6-2.6-17.2,0-28.3c2.6-11.1-3.9-12.2-6.3-2.6c-2.4,9.6-1.3,27,1.1,31.2c-4.4-3.9-7.8-15.9-7.2-26.6
									c0.7-10.7-5.7-14.6-7,0.2c-1.3,14.8,5,24.6,7,27.7c0,0-5-12.4-14.2-12.4s-13.6,13.6-10.7,15.5c2.9,1.9,4.4-9.5,11.5-9.2
									c6.8,0.2,11.9,9.9,6.6,19.6c-5.2,9.7-9.8,12.6-14.3,14.8c-4.4,2.2-6.1,8.3,1.6,6.8c7.6-1.4,13.9-6.9,21.2-8.2
									c0,18.3,0,60.9,0,60.9"/>
								<path fill="#E8E8E8" d="M75.6,162.8V93.7c-5-19.2-3.5-36-7-44.8c-3.8-9.6,3.5-8.8,5.9-2.2c2.6,7.3,5.7,13.3,5.7,26.8
									c1.7-2.6,2.6-17.2,0-28.3c-2.6-11.1,3.9-12.2,6.3-2.6c2.4,9.6,1.3,27-1.1,31.2c4.4-3.9,7.8-15.9,7.2-26.6s5.7-14.6,7,0.2
									c1.3,14.8-5,24.6-7,27.7c0,0,5-12.4,14.2-12.4s13.6,13.6,10.7,15.5c-2.9,1.9-4.4-9.5-11.5-9.2C99,69,93.7,78.9,99.2,88.4
									c4.9,8.5,9.8,12.6,14.3,14.8c4.4,2.2,6.1,8.3-1.6,6.8c-7.6-1.4-13.9-6.9-21.2-8.2c0,18.3,0,60.9,0,60.9"/>
							</g>
						</g>
					</g>
				</g>
			</g>
			<path opacity="0.5" clip-path="url(#SVGID_7_)" fill="#FFFFFF" enable-background="new    " d="M106.9,37.5
				c0,2.4-1.9,4.3-4.3,4.3c2.4,0,4.3,1.9,4.3,4.3c0-2.4,1.9-4.3,4.3-4.3C108.8,41.9,106.9,39.9,106.9,37.5z"/>
			<path opacity="0.5" clip-path="url(#SVGID_7_)" fill="#FFFFFF" enable-background="new    " d="M47.4,75.5c0,2.4-1.9,4.3-4.3,4.3
				c2.4,0,4.3,1.9,4.3,4.3c0-2.4,1.9-4.3,4.3-4.3C49.3,79.8,47.4,77.9,47.4,75.5z"/>
			<path opacity="0.5" clip-path="url(#SVGID_7_)" fill="#FFFFFF" enable-background="new    " d="M128.4,114.2
				c0,2.4-1.9,4.3-4.3,4.3c2.4,0,4.3,1.9,4.3,4.3c0-2.4,1.9-4.3,4.3-4.3C130.3,118.5,128.4,116.6,128.4,114.2z"/>
		</g>
	</g>
</g>
</svg>
