<?xml version="1.0" encoding="utf-8"?>
<!-- Generator: Adobe Illustrator 22.0.1, SVG Export Plug-In . SVG Version: 6.00 Build 0)  -->
<svg version="1.0" id="Layer_1" xmlns="http://www.w3.org/2000/svg" xmlns:xlink="http://www.w3.org/1999/xlink" x="0px" y="0px"
	 viewBox="0 0 208.9 158.1" enable-background="new 0 0 208.9 158.1" xml:space="preserve">
<g>
	
		<linearGradient id="SVGID_1_" gradientUnits="userSpaceOnUse" x1="102.1667" y1="382.7654" x2="102.1667" y2="503.4464" gradientTransform="matrix(1 0 0 -1 0 525.0203)">
		<stop  offset="0" style="stop-color:#E74945"/>
		<stop  offset="1" style="stop-color:#EE542E"/>
	</linearGradient>
	<path fill="url(#SVGID_1_)" d="M156.4,64.5L156.4,64.5l-14.6-0.1c0-0.6,0.1-1.3,0.1-2c0-3.4-0.6-6.7-1.8-9.7
		c7.1-1.6,12.4-7.9,12.4-15.4c0-8.5-6.8-15.5-15.2-15.8v0H61.8c-8.5,0-15.4,6.7-15.8,15c-11.5,3-20,13.5-20,25.9
		c0,11.3,7,21,17,24.9c2.2,4.3,5.6,7.8,9.8,10c-6.3,4.5-10.4,11.8-10.4,20.1c0,13.2,10.3,23.9,23.3,24.6v0.1h60v-0.1
		c13-0.7,23.4-11.4,23.4-24.6c0-2.3-0.3-4.6-0.9-6.8h8.3v-0.1c12.2-0.6,22-10.7,22-23.1C178.4,75.2,168.6,65.2,156.4,64.5z"/>
	<g>
		<g>
			<defs>
				<path id="SVGID_36_" d="M156.4,64.5L156.4,64.5l-14.6-0.1c0-0.6,0.1-1.3,0.1-2c0-3.4-0.6-6.7-1.8-9.7
					c7.1-1.6,12.4-7.9,12.4-15.4c0-8.5-6.8-15.5-15.2-15.8v0H61.8c-8.5,0-15.4,6.7-15.8,15c-11.5,3-20,13.5-20,25.9
					c0,11.3,7,21,17,24.9c2.2,4.3,5.6,7.8,9.8,10c-6.3,4.5-10.4,11.8-10.4,20.1c0,13.2,10.3,23.9,23.3,24.6v0.1h60v-0.1
					c13-0.7,23.4-11.4,23.4-24.6c0-2.3-0.3-4.6-0.9-6.8h8.3v-0.1c12.2-0.6,22-10.7,22-23.1C178.4,75.2,168.6,65.2,156.4,64.5z"/>
			</defs>
			<clipPath id="SVGID_2_">
				<use xlink:href="#SVGID_36_"  overflow="visible"/>
			</clipPath>
			<path opacity="0.3" clip-path="url(#SVGID_2_)" fill="#FECE33" enable-background="new    " d="M84,92.5c0,3.3-4.3,5.9-9.7,5.9
				H-9.1c-5.3,0-9.7-2.6-9.7-5.9V42.1c0-3.3,4.3-5.9,9.7-5.9h83.4c5.3,0,9.7,2.6,9.7,5.9V92.5z"/>
		</g>
		<g>
			<defs>
				<path id="SVGID_38_" d="M156.4,64.5L156.4,64.5l-14.6-0.1c0-0.6,0.1-1.3,0.1-2c0-3.4-0.6-6.7-1.8-9.7
					c7.1-1.6,12.4-7.9,12.4-15.4c0-8.5-6.8-15.5-15.2-15.8v0H61.8c-8.5,0-15.4,6.7-15.8,15c-11.5,3-20,13.5-20,25.9
					c0,11.3,7,21,17,24.9c2.2,4.3,5.6,7.8,9.8,10c-6.3,4.5-10.4,11.8-10.4,20.1c0,13.2,10.3,23.9,23.3,24.6v0.1h60v-0.1
					c13-0.7,23.4-11.4,23.4-24.6c0-2.3-0.3-4.6-0.9-6.8h8.3v-0.1c12.2-0.6,22-10.7,22-23.1C178.4,75.2,168.6,65.2,156.4,64.5z"/>
			</defs>
			<clipPath id="SVGID_3_">
				<use xlink:href="#SVGID_38_"  overflow="visible"/>
			</clipPath>
			<path opacity="0.3" clip-path="url(#SVGID_3_)" fill="#FECE33" enable-background="new    " d="M207.9,133.1
				c0,3.2-4.3,5.9-9.6,5.9h-82.9c-5.3,0-9.6-2.6-9.6-5.9V83.1c0-3.2,4.3-5.9,9.6-5.9h82.9c5.3,0,9.6,2.6,9.6,5.9L207.9,133.1
				L207.9,133.1z"/>
		</g>
	</g>
	<path opacity="0.5" fill="#C0D6DD" enable-background="new    " d="M208.1,103.7c0,0.9-0.7,1.6-1.6,1.6h-41.1
		c-0.9,0-1.6-0.7-1.6-1.6l0,0c0-0.9,0.7-1.6,1.6-1.6h41.1C207.4,102.1,208.1,102.8,208.1,103.7L208.1,103.7z"/>
	
		<linearGradient id="SVGID_4_" gradientUnits="userSpaceOnUse" x1="132.5158" y1="478.0274" x2="176.7462" y2="478.0274" gradientTransform="matrix(1 0 0 -1 0 525.0203)">
		<stop  offset="0" style="stop-color:#E74945"/>
		<stop  offset="1" style="stop-color:#EE542E"/>
	</linearGradient>
	<path fill="url(#SVGID_4_)" d="M176.7,47c0,0.9-0.7,1.6-1.6,1.6h-41.1c-0.9,0-1.6-0.7-1.6-1.6l0,0c0-0.9,0.7-1.6,1.6-1.6h41.1
		C176,45.4,176.7,46.1,176.7,47L176.7,47z"/>
	
		<linearGradient id="SVGID_5_" gradientUnits="userSpaceOnUse" x1="140.9077" y1="406.8884" x2="185.1381" y2="406.8884" gradientTransform="matrix(1 0 0 -1 0 525.0203)">
		<stop  offset="0" style="stop-color:#E74945"/>
		<stop  offset="1" style="stop-color:#EE542E"/>
	</linearGradient>
	<path fill="url(#SVGID_5_)" d="M185.1,118.1c0,0.9-0.7,1.6-1.6,1.6h-41.1c-0.9,0-1.6-0.7-1.6-1.6l0,0c0-0.9,0.7-1.6,1.6-1.6h41.1
		C184.4,116.6,185.1,117.3,185.1,118.1L185.1,118.1z"/>
	
		<linearGradient id="SVGID_6_" gradientUnits="userSpaceOnUse" x1="16.6646" y1="456.5088" x2="60.896" y2="456.5088" gradientTransform="matrix(1 0 0 -1 0 525.0203)">
		<stop  offset="0" style="stop-color:#E74945"/>
		<stop  offset="1" style="stop-color:#EE542E"/>
	</linearGradient>
	<path fill="url(#SVGID_6_)" d="M60.9,68.5c0,0.9-0.7,1.6-1.6,1.6H18.2c-0.9,0-1.6-0.7-1.6-1.6l0,0c0-0.9,0.7-1.6,1.6-1.6h41.1
		C60.2,66.9,60.9,67.6,60.9,68.5L60.9,68.5z"/>
	<g>
		<path fill="#E8E8E8" d="M114.3,92.6c0,3.3-2.6,5.9-5.9,5.9H57.3c-3.3,0-5.9-2.6-5.9-5.9V42.1c0-3.3,2.6-5.9,5.9-5.9h51.1
			c3.3,0,5.9,2.6,5.9,5.9L114.3,92.6L114.3,92.6z"/>
		<path fill="#444448" d="M114.3,45.4v-3.4c0-3.3-2.6-5.9-5.9-5.9H57.3c-3.3,0-5.9,2.6-5.9,5.9v3.4H114.3z"/>
		<circle fill="#E74945" cx="57.8" cy="41" r="1.8"/>
		<circle fill="#FECE33" cx="62.7" cy="41" r="1.8"/>
		<circle fill="#C1D24D" cx="67.8" cy="41" r="1.8"/>
		
			<linearGradient id="SVGID_7_" gradientUnits="userSpaceOnUse" x1="55.9673" y1="469.8701" x2="91.4549" y2="469.8701" gradientTransform="matrix(1 0 0 -1 0 525.0203)">
			<stop  offset="0" style="stop-color:#57AF5E"/>
			<stop  offset="1" style="stop-color:#C1D24D"/>
		</linearGradient>
		<path fill="url(#SVGID_7_)" d="M91.5,55.1c0,1.3-1,2.3-2.3,2.3H58.3c-1.3,0-2.3-1-2.3-2.3l0,0c0-1.3,1-2.3,2.3-2.3h30.8
			C90.4,52.8,91.5,53.9,91.5,55.1L91.5,55.1z"/>
		
			<linearGradient id="SVGID_9_" gradientUnits="userSpaceOnUse" x1="62.6552" y1="462.2987" x2="98.1428" y2="462.2987" gradientTransform="matrix(1 0 0 -1 0 525.0203)">
			<stop  offset="0" style="stop-color:#E74945"/>
			<stop  offset="1" style="stop-color:#EE542E"/>
		</linearGradient>
		<path fill="url(#SVGID_9_)" d="M98.1,62.7c0,1.3-1,2.3-2.3,2.3H65c-1.3,0-2.3-1-2.3-2.3l0,0c0-1.3,1-2.3,2.3-2.3h30.8
			C97.1,60.4,98.1,61.4,98.1,62.7L98.1,62.7z"/>
		
			<linearGradient id="SVGID_10_" gradientUnits="userSpaceOnUse" x1="62.6552" y1="454.1676" x2="98.1428" y2="454.1676" gradientTransform="matrix(1 0 0 -1 0 525.0203)">
			<stop  offset="0" style="stop-color:#E74945"/>
			<stop  offset="1" style="stop-color:#EE542E"/>
		</linearGradient>
		<path fill="url(#SVGID_10_)" d="M98.1,70.9c0,1.3-1,2.3-2.3,2.3H65c-1.3,0-2.3-1-2.3-2.3l0,0c0-1.3,1-2.3,2.3-2.3h30.8
			C97.1,68.5,98.1,69.6,98.1,70.9L98.1,70.9z"/>
		
			<linearGradient id="SVGID_11_" gradientUnits="userSpaceOnUse" x1="57.0306" y1="445.5411" x2="92.5172" y2="445.5411" gradientTransform="matrix(1 0 0 -1 0 525.0203)">
			<stop  offset="0" style="stop-color:#57AF5E"/>
			<stop  offset="1" style="stop-color:#C1D24D"/>
		</linearGradient>
		<path fill="url(#SVGID_11_)" d="M92.5,79.5c0,1.3-1,2.3-2.3,2.3H59.4c-1.3,0-2.3-1-2.3-2.3l0,0c0-1.3,1-2.3,2.3-2.3h30.8
			C91.5,77.1,92.5,78.2,92.5,79.5L92.5,79.5z"/>
		
			<linearGradient id="SVGID_12_" gradientUnits="userSpaceOnUse" x1="62.6552" y1="437.1633" x2="98.1428" y2="437.1633" gradientTransform="matrix(1 0 0 -1 0 525.0203)">
			<stop  offset="0" style="stop-color:#523F8F"/>
			<stop  offset="1" style="stop-color:#2997C2"/>
		</linearGradient>
		<path fill="url(#SVGID_12_)" d="M98.1,87.9c0,1.3-1,2.3-2.3,2.3H65c-1.3,0-2.3-1-2.3-2.3l0,0c0-1.3,1-2.3,2.3-2.3h30.8
			C97.1,85.5,98.1,86.6,98.1,87.9L98.1,87.9z"/>
	</g>
	<g>
		<path fill="#444448" d="M161.1,133.6c0,3.3-2.6,5.9-5.9,5.9h-51.1c-3.3,0-5.9-2.6-5.9-5.9V83.1c0-3.3,2.6-5.9,5.9-5.9h51.1
			c3.3,0,5.9,2.6,5.9,5.9V133.6z"/>
		<path fill="#E8E8E8" d="M161.1,86.4v-3.4c0-3.3-2.6-5.9-5.9-5.9h-51.1c-3.3,0-5.9,2.6-5.9,5.9v3.4H161.1z"/>
		<circle fill="#E74945" cx="104.6" cy="82" r="1.8"/>
		<circle fill="#FECE33" cx="109.5" cy="82" r="1.8"/>
		<circle fill="#C1D24D" cx="114.5" cy="82" r="1.8"/>
		
			<linearGradient id="SVGID_13_" gradientUnits="userSpaceOnUse" x1="102.7265" y1="428.8761" x2="138.2141" y2="428.8761" gradientTransform="matrix(1 0 0 -1 0 525.0203)">
			<stop  offset="0" style="stop-color:#F49D2E"/>
			<stop  offset="1" style="stop-color:#FECE33"/>
		</linearGradient>
		<path fill="url(#SVGID_13_)" d="M138.2,96.1c0,1.3-1,2.3-2.3,2.3h-30.8c-1.3,0-2.3-1-2.3-2.3l0,0c0-1.3,1-2.3,2.3-2.3h30.8
			C137.2,93.8,138.2,94.9,138.2,96.1L138.2,96.1z"/>
		
			<linearGradient id="SVGID_14_" gradientUnits="userSpaceOnUse" x1="109.4144" y1="421.3047" x2="144.902" y2="421.3047" gradientTransform="matrix(1 0 0 -1 0 525.0203)">
			<stop  offset="0" style="stop-color:#523F8F"/>
			<stop  offset="1" style="stop-color:#2997C2"/>
		</linearGradient>
		<path fill="url(#SVGID_14_)" d="M144.9,103.7c0,1.3-1,2.3-2.3,2.3h-30.8c-1.3,0-2.3-1-2.3-2.3l0,0c0-1.3,1-2.3,2.3-2.3h30.8
			C143.9,101.4,144.9,102.4,144.9,103.7L144.9,103.7z"/>
		
			<linearGradient id="SVGID_15_" gradientUnits="userSpaceOnUse" x1="103.1869" y1="413.1736" x2="138.6745" y2="413.1736" gradientTransform="matrix(1 0 0 -1 0 525.0203)">
			<stop  offset="0" style="stop-color:#E74945"/>
			<stop  offset="1" style="stop-color:#EE542E"/>
		</linearGradient>
		<path fill="url(#SVGID_15_)" d="M138.7,111.8c0,1.3-1,2.3-2.3,2.3h-30.8c-1.3,0-2.3-1-2.3-2.3l0,0c0-1.3,1-2.3,2.3-2.3h30.8
			C137.6,109.5,138.7,110.6,138.7,111.8L138.7,111.8z"/>
		
			<linearGradient id="SVGID_16_" gradientUnits="userSpaceOnUse" x1="103.7907" y1="404.5471" x2="139.2764" y2="404.5471" gradientTransform="matrix(1 0 0 -1 0 525.0203)">
			<stop  offset="0" style="stop-color:#523F8F"/>
			<stop  offset="1" style="stop-color:#2997C2"/>
		</linearGradient>
		<path fill="url(#SVGID_16_)" d="M139.3,120.5c0,1.3-1,2.3-2.3,2.3h-30.8c-1.3,0-2.3-1-2.3-2.3l0,0c0-1.3,1-2.3,2.3-2.3h30.8
			C138.2,118.1,139.3,119.2,139.3,120.5L139.3,120.5z"/>
		
			<linearGradient id="SVGID_17_" gradientUnits="userSpaceOnUse" x1="120.9302" y1="396.1693" x2="156.4178" y2="396.1693" gradientTransform="matrix(1 0 0 -1 0 525.0203)">
			<stop  offset="0" style="stop-color:#E74945"/>
			<stop  offset="1" style="stop-color:#EE542E"/>
		</linearGradient>
		<path fill="url(#SVGID_17_)" d="M156.4,128.9c0,1.3-1,2.3-2.3,2.3h-30.8c-1.3,0-2.3-1-2.3-2.3l0,0c0-1.3,1-2.3,2.3-2.3h30.8
			C155.4,126.5,156.4,127.6,156.4,128.9L156.4,128.9z"/>
	</g>
	<path opacity="0.5" fill="#C0D6DD" enable-background="new    " d="M45,51.2c0,0.9-0.7,1.6-1.6,1.6H2.4c-0.9,0-1.6-0.7-1.6-1.6l0,0
		c0-0.9,0.7-1.6,1.6-1.6h41.1C44.3,49.7,45,50.4,45,51.2L45,51.2z"/>
	<path opacity="0.5" fill="#FFFFFF" enable-background="new    " d="M158.8,62.7c0,2.3-1.9,4.2-4.2,4.2c2.3,0,4.2,1.9,4.2,4.2
		c0-2.3,1.9-4.2,4.2-4.2C160.7,66.9,158.8,65.1,158.8,62.7z"/>
	<path opacity="0.5" fill="#FFFFFF" enable-background="new    " d="M114.5,20.1c0,2.3-1.9,4.2-4.2,4.2c2.3,0,4.2,1.9,4.2,4.2
		c0-2.3,1.9-4.2,4.2-4.2C116.4,24.3,114.5,22.5,114.5,20.1z"/>
	<path opacity="0.5" fill="#FFFFFF" enable-background="new    " d="M36.2,94.3c0,2.3-1.9,4.2-4.2,4.2c2.3,0,4.2,1.9,4.2,4.2
		c0-2.3,1.9-4.2,4.2-4.2C38.1,98.5,36.2,96.6,36.2,94.3z"/>
	<path opacity="0.5" fill="#FFFFFF" enable-background="new    " d="M80.4,112.4c0,2.3-1.9,4.2-4.2,4.2c2.3,0,4.2,1.9,4.2,4.2
		c0-2.3,1.9-4.2,4.2-4.2C82.3,116.6,80.4,114.7,80.4,112.4z"/>
	
		<linearGradient id="SVGID_18_" gradientUnits="userSpaceOnUse" x1="159.6891" y1="496.4807" x2="168.081" y2="496.4807" gradientTransform="matrix(1 0 0 -1 0 525.0203)">
		<stop  offset="0" style="stop-color:#E74945"/>
		<stop  offset="1" style="stop-color:#EE542E"/>
	</linearGradient>
	<path fill="url(#SVGID_18_)" d="M163.9,24.3c0,2.3-1.9,4.2-4.2,4.2c2.3,0,4.2,1.9,4.2,4.2c0-2.3,1.9-4.2,4.2-4.2
		C165.8,28.5,163.9,26.7,163.9,24.3z"/>
	
		<linearGradient id="SVGID_19_" gradientUnits="userSpaceOnUse" x1="172.5512" y1="393.829" x2="180.9431" y2="393.829" gradientTransform="matrix(1 0 0 -1 0 525.0203)">
		<stop  offset="0" style="stop-color:#E74945"/>
		<stop  offset="1" style="stop-color:#EE542E"/>
	</linearGradient>
	<path fill="url(#SVGID_19_)" d="M176.7,127c0,2.3-1.9,4.2-4.2,4.2c2.3,0,4.2,1.9,4.2,4.2c0-2.3,1.9-4.2,4.2-4.2
		C178.6,131.2,176.7,129.3,176.7,127z"/>
</g>
</svg>
