<?xml version="1.0" encoding="utf-8"?>
<!-- Generator: Adobe Illustrator 21.0.1, SVG Export Plug-In . SVG Version: 6.00 Build 0)  -->
<svg version="1.1" id="Layer_1" xmlns="http://www.w3.org/2000/svg" xmlns:xlink="http://www.w3.org/1999/xlink" x="0px" y="0px"
	 viewBox="0 0 87.3 87.3" style="enable-background:new 0 0 87.3 87.3;" xml:space="preserve">
<style type="text/css">
	.st0{fill:#2CAB9F;}
	.st1{fill:#D8D8D2;}
	.st2{fill:#F2C6A1;}
	.st3{fill:#BC2F3D;}
	.st4{fill:#FECE08;}
	.st5{fill:#F3A27A;}
	.st6{clip-path:url(#SVGID_2_);}
	.st7{fill:#89684D;}
	.st8{fill:#414042;}
	.st9{fill:#EA7E78;}
	.st10{fill:#FFFFFF;}
	.st11{fill:#EE4500;}
	.st12{fill:#FEA708;}
	.st13{fill:url(#SVGID_3_);}
	.st14{fill:#92A9ED;}
	.st15{fill:#5F70AF;}
	.st16{fill:#A3A3A3;}
	.st17{fill:#C1C1C1;}
	.st18{fill:#A3A2A2;}
	.st19{fill:#E7E3E1;}
	.st20{clip-path:url(#SVGID_5_);fill:#BEBBBB;}
	.st21{clip-path:url(#SVGID_7_);fill:#BEBBBB;}
	.st22{clip-path:url(#SVGID_9_);fill:#BEBBBB;}
	.st23{clip-path:url(#SVGID_11_);fill:#BEBBBB;}
	.st24{clip-path:url(#SVGID_13_);fill:#BEBBBB;}
	.st25{clip-path:url(#SVGID_15_);fill:#BEBBBB;}
	.st26{fill:#58595B;}
	.st27{fill:#E2B436;}
	.st28{clip-path:url(#SVGID_17_);}
	.st29{fill:#36313B;}
	.st30{fill:#231E2B;}
	.st31{fill:#47414D;}
	.st32{fill:#273E42;}
	.st33{fill:#355860;}
	.st34{fill:#49727C;}
	.st35{fill:#3B2130;}
	.st36{fill:#5895A5;}
	.st37{fill:#E8BE9B;}
	.st38{fill:#C7936B;}
	.st39{fill:#69ACC4;}
	.st40{fill:#4FAB59;}
	.st41{fill:#915620;}
	.st42{fill:#AD661F;}
	.st43{fill:#A6644B;}
	.st44{fill:#C2751D;}
	.st45{fill:#CF8934;}
	.st46{fill:url(#SVGID_18_);}
	.st47{clip-path:url(#SVGID_20_);}
	.st48{fill:url(#hair_1_);}
	.st49{fill:url(#SVGID_21_);}
	.st50{opacity:0.3;fill:#A55311;enable-background:new    ;}
	.st51{opacity:0.2;fill:#FFA383;enable-background:new    ;}
	.st52{opacity:0.61;fill:#FFB273;enable-background:new    ;}
	.st53{opacity:0.4;fill:#FFB273;enable-background:new    ;}
	.st54{fill:url(#axe_1_);}
	.st55{opacity:0.3;fill:#676E7A;enable-background:new    ;}
	.st56{opacity:0.25;fill:#FFFFFF;enable-background:new    ;}
	.st57{opacity:0.5;fill:#FFFFFF;enable-background:new    ;}
	.st58{fill:#A8B5C1;}
	.st59{opacity:0.35;fill:#FFFFFF;enable-background:new    ;}
	.st60{fill:#FFC19F;}
	.st61{opacity:0.8;fill:#FFC19F;enable-background:new    ;}
	.st62{fill:url(#arm_1_);}
	.st63{opacity:0.6;fill:#FFC19F;enable-background:new    ;}
	.st64{fill:url(#SVGID_22_);}
	.st65{fill:url(#SVGID_23_);}
	.st66{fill:url(#SVGID_24_);}
	.st67{fill:url(#pants_1_);}
	.st68{opacity:0.2;fill:#1D280D;enable-background:new    ;}
	.st69{opacity:0.3;fill:#1D280D;enable-background:new    ;}
	.st70{fill:url(#SVGID_25_);}
	.st71{opacity:0.75;fill:#893700;enable-background:new    ;}
	.st72{fill:url(#SVGID_26_);}
	.st73{fill:url(#SVGID_27_);}
	.st74{fill:url(#SVGID_28_);}
	.st75{fill:url(#arm_2_);}
	.st76{fill:url(#SVGID_29_);}
	.st77{fill:url(#SVGID_30_);}
	.st78{fill:url(#SVGID_31_);}
	.st79{fill:url(#shirt_1_);}
	.st80{opacity:0.15;fill:url(#shadow_1_);enable-background:new    ;}
	.st81{fill:url(#belt_1_);}
	.st82{opacity:0.35;}
	.st83{fill:url(#SVGID_32_);}
	.st84{fill:url(#SVGID_33_);}
	.st85{opacity:0.8;}
	.st86{fill:url(#SVGID_34_);}
	.st87{fill:url(#SVGID_35_);}
	.st88{opacity:0.4;fill:url(#SVGID_36_);enable-background:new    ;}
	.st89{fill:url(#SVGID_37_);}
	.st90{opacity:0.6;fill:#FFEB78;enable-background:new    ;}
	.st91{opacity:0.75;fill:#FFEB78;enable-background:new    ;}
	.st92{fill:url(#SVGID_38_);}
	.st93{fill:url(#SVGID_39_);}
	.st94{fill:url(#SVGID_40_);}
	.st95{opacity:0.4;fill:#BF1604;enable-background:new    ;}
	.st96{fill:#541918;}
	.st97{fill:#9B071C;}
	.st98{fill:#FF2B15;}
	.st99{fill:url(#SVGID_41_);}
	.st100{fill:#A55311;}
	.st101{fill:#471A08;}
	.st102{fill:#FCC79A;}
	.st103{opacity:0.69;fill:#FFD3AB;enable-background:new    ;}
	.st104{fill:url(#SVGID_42_);}
	.st105{fill:url(#SVGID_43_);}
	.st106{fill:url(#SVGID_44_);}
	.st107{opacity:0.25;fill:url(#SVGID_45_);enable-background:new    ;}
	.st108{opacity:0.25;fill:#FC8460;enable-background:new    ;}
	.st109{fill:url(#SVGID_46_);}
	.st110{opacity:0.3;fill:url(#SVGID_47_);enable-background:new    ;}
	.st111{clip-path:url(#SVGID_49_);}
	.st112{fill:url(#SVGID_50_);}
	.st113{fill:url(#axe_2_);}
	.st114{fill:url(#arm_3_);}
	.st115{fill:url(#SVGID_51_);}
	.st116{fill:url(#SVGID_52_);}
	.st117{fill:url(#SVGID_53_);}
	.st118{fill:url(#SVGID_54_);}
	.st119{clip-path:url(#SVGID_56_);}
	.st120{fill:#FCC78C;}
	.st121{fill:url(#SVGID_57_);}
	.st122{fill:#AC7930;}
	.st123{fill:#1A171B;}
	.st124{fill:#EDEDEE;}
	.st125{fill:#939292;}
	.st126{fill:#C7D5DF;}
	.st127{fill:#98B7C9;}
	.st128{fill:url(#SVGID_58_);}
	.st129{fill:url(#SVGID_59_);}
	.st130{fill:url(#SVGID_60_);}
	.st131{fill:url(#SVGID_61_);}
	.st132{fill:url(#SVGID_62_);}
	.st133{fill:url(#SVGID_63_);}
	.st134{fill:url(#SVGID_64_);}
	.st135{fill:url(#SVGID_65_);}
	.st136{fill:url(#SVGID_66_);}
	.st137{fill:url(#SVGID_67_);}
	.st138{fill:url(#SVGID_68_);}
	.st139{fill:#EB3D00;}
	.st140{fill:#835527;}
	.st141{fill:#D0995B;}
	.st142{fill:#E4AC00;}
	.st143{fill:#553F24;}
	.st144{fill:#93723A;}
	.st145{fill:#B9391A;}
	.st146{fill:#D99C09;}
	.st147{fill:#FFCC00;}
	.st148{fill:#9C9D9F;}
	.st149{fill:#B1B3B4;}
	.st150{fill:#C6C7C9;}
	.st151{fill:#D9DADB;}
	.st152{fill:#87888A;}
	.st153{fill:#A65C44;}
	.st154{fill:url(#SVGID_69_);}
	.st155{fill:url(#SVGID_70_);}
	.st156{fill:#2A2C2E;}
	.st157{clip-path:url(#SVGID_72_);}
	.st158{fill:#FFF200;}
	.st159{fill:#FFE300;}
	.st160{fill:#FBB040;}
	.st161{fill:#FC873E;}
	.st162{fill:#FB983F;}
	.st163{fill:url(#SVGID_73_);}
	.st164{fill:#754629;}
	.st165{clip-path:url(#SVGID_75_);fill:#ED1C24;}
	.st166{clip-path:url(#SVGID_77_);fill:#FB983F;}
	.st167{clip-path:url(#SVGID_79_);fill:#FB983F;}
	.st168{clip-path:url(#SVGID_81_);}
	.st169{fill:#ED1C24;}
	.st170{fill:#FEFFFF;}
	.st171{fill:#B3151B;}
	.st172{fill:#ED5C62;}
	.st173{opacity:0.2;fill:#231F20;enable-background:new    ;}
	.st174{opacity:0.4;fill:#231F20;enable-background:new    ;}
	.st175{fill:#424345;}
	.st176{fill:#FFE3C2;}
	.st177{opacity:0.1;fill:#231F20;enable-background:new    ;}
	.st178{fill:#303842;}
	.st179{fill:#363F4A;}
	.st180{clip-path:url(#SVGID_83_);fill:#FFEEDB;}
	.st181{clip-path:url(#SVGID_85_);fill:#2A2C2E;}
	.st182{opacity:0.2;clip-path:url(#SVGID_87_);fill:#231F20;enable-background:new    ;}
	.st183{clip-path:url(#SVGID_89_);}
	.st184{fill:#08E4FF;stroke:#08E4FF;stroke-width:0.1289;stroke-miterlimit:10;}
	.st185{fill:#F5F38E;}
	.st186{fill:#90C53F;}
	.st187{clip-path:url(#SVGID_91_);}
	.st188{fill:#754444;}
	.st189{fill:#5E3636;}
	.st190{fill:#7A5E27;}
	.st191{fill:#D1AB65;}
	.st192{fill:#A78442;}
	.st193{fill:#FCCFA4;}
	.st194{fill:#C78E65;}
	.st195{fill:#DDDDDC;}
	.st196{fill:#3B212A;}
	.st197{fill:#24211D;}
	.st198{fill:#45413F;}
	.st199{fill:#968064;}
	.st200{fill:#706151;}
	.st201{fill:url(#SVGID_92_);}
	.st202{fill:#211D18;}
	.st203{fill:#352E27;}
	.st204{display:none;}
	.st205{display:inline;}
	.st206{fill:#A8A8A7;}
	.st207{fill:#3C3C3B;}
	.st208{fill:#C59221;}
	.st209{fill:#FDC800;}
	.st210{display:inline;fill:#FFFFFF;}
	.st211{fill:#949393;}
	.st212{fill:#DBE8B0;}
	.st213{clip-path:url(#SVGID_94_);}
	.st214{opacity:0.3;fill:#808080;enable-background:new    ;}
	.st215{display:none;fill:#4B4B63;}
	.st216{fill:#4F3927;}
	.st217{fill:#5F442D;}
	.st218{fill:#6C5236;}
	.st219{fill:#976F44;}
	.st220{fill:#AC824E;}
	.st221{fill:#826544;}
	.st222{fill:#6E6E6E;}
	.st223{fill:#595959;}
	.st224{fill:#545454;}
	.st225{fill:#424242;}
	.st226{fill:#9C9C9C;}
	.st227{fill:#6E8091;}
	.st228{fill:#7B8B9B;}
	.st229{opacity:0.25;fill:#696969;enable-background:new    ;}
	.st230{fill:#A4C639;}
	.st231{fill:#FFC639;}
	.st232{fill:#F1A530;}
	.st233{fill:none;}
	.st234{opacity:0.29;fill:#383838;}
	.st235{opacity:0.4;fill:#FFFFFF;enable-background:new    ;}
	.st236{opacity:0.8;fill:#FFFFFF;enable-background:new    ;}
	.st237{fill:#859F25;}
	.st238{fill:#D78507;}
	.st239{fill:#262626;}
	.st240{fill:#BFD773;}
	.st241{fill:#FBDD57;}
	.st242{clip-path:url(#SVGID_96_);fill:#F4B711;}
	.st243{fill:#F4B711;}
	.st244{clip-path:url(#SVGID_98_);fill:#F4B711;}
	.st245{fill:#F4BB3B;}
	.st246{fill:#383838;}
	.st247{fill:#E6E6E6;}
	.st248{fill:#B3B3B3;}
	.st249{fill:#7D7D7D;}
	.st250{fill:#2F2F2F;}
	.st251{fill:#F2D850;}
	.st252{clip-path:url(#SVGID_100_);}
	.st253{fill:#C62B12;}
	.st254{fill:#B3B729;}
	.st255{fill:#A3A321;}
	.st256{fill:#C8D340;}
	.st257{opacity:0.6;fill:#7F7C13;enable-background:new    ;}
	.st258{fill:#F6D88C;}
	.st259{fill:url(#SVGID_101_);}
	.st260{fill:#1D1D1B;}
	.st261{fill:#C96317;}
	.st262{fill:#B74C1D;}
	.st263{fill:#C91111;}
	.st264{fill:#F6F8F9;}
	.st265{fill:#F97450;}
	.st266{fill:#3D8699;}
	.st267{fill:#FC7800;}
	.st268{fill:#7A7A74;}
	.st269{opacity:0.6;fill:#7F2713;enable-background:new    ;}
	.st270{fill:#F5D78B;}
	.st271{fill:#F5D78C;}
	.st272{fill:#F09453;}
	.st273{fill:#EF8E4D;}
	.st274{fill:#F1A15E;}
	.st275{fill:#EF8A4D;}
	.st276{fill:#EF8848;}
	.st277{fill:#F3C078;}
	.st278{fill:#F2B26F;}
	.st279{fill:#F19D5B;}
	.st280{fill:#F1A562;}
	.st281{fill:#F09A58;}
	.st282{fill:#EE7F41;}
	.st283{fill:url(#SVGID_102_);}
	.st284{fill:none;stroke:url(#SVGID_103_);stroke-width:1.9316;stroke-miterlimit:10;}
	.st285{clip-path:url(#SVGID_105_);}
	.st286{fill:#547FA1;}
	.st287{fill:#D0BF90;}
	.st288{fill:#E5D6AC;}
	.st289{fill:#DBC99A;}
	.st290{fill:#DCC6A2;}
	.st291{fill:url(#Кофта_1_);}
	.st292{fill:#FFBD7B;}
	.st293{fill:#CCAF83;}
	.st294{fill:#DBC5A1;}
	.st295{fill:#D3B991;}
	.st296{fill:#3C3022;}
	.st297{fill:url(#SVGID_106_);}
	.st298{fill:#FF9E85;}
	.st299{fill:#292929;}
	.st300{fill:#2C3C53;}
	.st301{fill:none;stroke:url(#SVGID_107_);stroke-width:1.9316;stroke-miterlimit:10;}
	.st302{fill:#FFFFFF;stroke:url(#SVGID_108_);stroke-width:1.9311;stroke-miterlimit:10;}
	.st303{clip-path:url(#SVGID_110_);}
	.st304{fill:#363D67;}
	.st305{fill:#DCA54C;}
	.st306{fill:#FEFEFE;}
	.st307{fill:#F5183F;}
	.st308{fill:#FDCCBB;}
	.st309{fill:#FDFDFC;}
	.st310{fill:#FDFDFB;}
	.st311{fill:#F4183F;}
	.st312{fill:#F31840;}
	.st313{fill:#F4173F;}
	.st314{fill:#DBA44C;}
	.st315{fill:#FCF9F9;}
	.st316{fill:#FCFCFA;}
	.st317{fill:#DAA44C;}
	.st318{fill:#FBF5F6;}
	.st319{fill:#FCF6F6;}
	.st320{fill:#FBFAF7;}
	.st321{fill:#DD1F47;}
	.st322{fill:#FAF5F6;}
	.st323{fill:#CE9D54;}
	.st324{fill:#F8ECEF;}
	.st325{fill:#FCF6F7;}
	.st326{fill:#D5A254;}
	.st327{fill:#727693;}
	.st328{fill:#E91B43;}
	.st329{fill:#F5F5F6;}
	.st330{fill:#AFB6C1;}
	.st331{fill:#D6A14E;}
	.st332{fill:#F7F2F3;}
	.st333{fill:#363C67;}
	.st334{fill:#353C67;}
	.st335{fill:#F31C42;}
	.st336{fill:#EAD2DA;}
	.st337{fill:#DA1E45;}
	.st338{fill:#373E67;}
	.st339{fill:#FCCCB9;}
	.st340{fill:#3D4166;}
	.st341{fill:#FBCBB8;}
	.st342{fill:#F6CAB6;}
	.st343{fill:#FBC3CD;}
	.st344{fill:#FBDCE1;}
	.st345{fill:#ED1D44;}
	.st346{fill:#ECEBEE;}
	.st347{fill:#E1234A;}
	.st348{fill:#DED3DB;}
	.st349{fill:#DD2047;}
	.st350{fill:#D5CCD6;}
	.st351{fill:#F5DDE3;}
	.st352{fill:#383E67;}
</style>
<g>
	<g>
		<g>
			<g>
				<defs>
					<path id="SVGID_1_" d="M69.5-34.1C69.5-17.5,56-4,39.4-4S9.4-17.6,9.4-34.1s16.2-50.2,32.8-50.2S69.5-50.8,69.5-34.1z"/>
				</defs>
				<clipPath id="SVGID_2_">
					<use xlink:href="#SVGID_1_"  style="overflow:visible;"/>
				</clipPath>
				<g class="st6">
					<g>
						<path d="M56.2-6.5c0,0,0.1,0,0.1,0.1c0,0,0.1,0.1,0.2,0.1s0.1,0.1,0.2,0.1c0.4,0.2,0.9,0.4,1.5,0.8s1.3,0.8,2,1.2
							c0.4,0.2,0,1,0.3,1.2c0.2,0.2,1,0.3,1.4,0c0.1,0.1,0.3,0.2,0.5,0.4c0.4,0.3,0.7,0.6,1.1,0.9c0.3,0.3,0.7,0.6,1,0.9
							s0.6,0.6,0.9,0.9c0.1,0.1,0.3,0.3,0.4,0.4c0.1,0.1,0.1,0.1,0.2,0.2c0.1,0.1,0.1,0.1,0.2,0.2c0.2,0.3,0.4,0.5,0.6,0.7
							c0.2,0.2,0.3,0.4,0.4,0.6c0.2,0.3,0.4,0.5,0.4,0.5l1.5-0.8c0,0-0.1-0.2-0.3-0.6c-0.1-0.2-0.2-0.4-0.4-0.7
							c-0.2-0.3-0.4-0.6-0.6-0.9c-0.1-0.1-0.1-0.2-0.1-0.3c-0.1-0.1-0.1-0.2-0.2-0.2c-0.1-0.2-0.2-0.3-0.4-0.5
							c-0.2-0.4-0.5-0.7-0.8-1.1s-0.6-0.7-1-1.1c-0.3-0.4-0.7-0.7-1-1.1c0.3-0.5,0-1.1-0.2-1.3C64.1-6,63.1-5.8,63-6
							c-0.4-0.3-0.4-0.3-0.7-0.6c-0.7-0.6-1.4-1.2-2-1.6c-0.6-0.5-1.1-0.8-1.5-1.1c-0.1-0.1-0.2-0.1-0.3-0.2
							c-0.1-0.1-0.1-0.1-0.2-0.1C58.1-9.7,58-9.7,58-9.7L56.2-6.5z"/>
						<path class="st12" d="M64.5-4.5c0,0-1.3,1.4-2.3,1.7c0.1,0.1,0.3,0.2,0.5,0.4c0.4,0.3,0.7,0.6,1.1,0.9c0.3,0.3,0.7,0.6,1,0.9
							s0.6,0.6,0.9,0.9c0.1,0.1,0.3,0.3,0.4,0.4c0.1,0.1,0.1,0.1,0.2,0.2s0.1,0.1,0.2,0.2c0.2,0.3,0.4,0.5,0.6,0.7
							c0.2,0.2,0.3,0.4,0.4,0.6C67.8,2.8,68,3,68,3l1.5-0.8c0,0-0.1-0.2-0.3-0.6c-0.1-0.2-0.2-0.4-0.4-0.7c-0.2-0.3-0.4-0.6-0.6-0.9
							c-0.1-0.1-0.1-0.2-0.1-0.3C68-0.5,68-0.6,67.9-0.6c-0.1-0.2-0.2-0.3-0.4-0.5c-0.2-0.4-0.5-0.7-0.8-1.1s-0.6-0.7-1-1.1
							C65.2-3.8,64.8-4.2,64.5-4.5z"/>
					</g>
				</g>
			</g>
		</g>
	</g>
</g>
<g>
	<circle class="st251" cx="39.3" cy="56.5" r="30"/>
	<g>
		<g>
			<defs>
				<circle id="SVGID_99_" cx="39.3" cy="56.5" r="30"/>
			</defs>
			<clipPath id="SVGID_3_">
				<use xlink:href="#SVGID_99_"  style="overflow:visible;"/>
			</clipPath>
			<g style="clip-path:url(#SVGID_3_);">
				<path class="st253" d="M52.2,55.3c0,0,12.3,12.4,22.3,12.9c-0.3,3.2-0.6,6.1-0.6,6.1S58,70.7,50.3,61.6
					C50,57.9,50.9,55.2,52.2,55.3z"/>
				<path class="st254" d="M41.4,28.5c0,0-16.4-1.5-20.4,2.2c-5,13.9-7.5,48.7-6.1,53.5c5.6,5.9,15.3,5.9,15.3,5.9
					c6.2-5.7,15.7-37.9,15.7-37.9L41.4,28.5z"/>
				<path class="st255" d="M24.9,55.6c0,0-9.7-1.4-13.1,0.2c-4.7,8-1.9,18.7-1.9,18.7c4.6,2.4,12.1,1.6,12.1,1.6
					C20.8,67.4,23.5,56.8,24.9,55.6z"/>
				<path class="st256" d="M18.9,63.9c0,0-10.1,1.8-10.3-1.1c1.2-5,3-7.6,3-7.6c4.7-1.4,12.6-0.3,12.6-0.3
					C22.4,57.6,18.9,63.9,18.9,63.9z"/>
				<path class="st256" d="M21,30.7c4-3.7,20.4-2.2,20.4-2.2l1.3,6.6c-1.1,4.8-2.2,9.5-2.4,9.5l-22.1-2.3
					C18.9,37.8,19.9,33.8,21,30.7z"/>
				<path class="st257" d="M25.4,56.6c1.1-4.5,2.9-5.8,4.8-6.9l-1.3-6.2l2.2,0.2l2.8,5.4c0,0,1.1,0.2,2.7,0.3c0,0,0.4-1.3,1.1-3
					c0,0-0.6-3-0.5-6.2c-3.4-3.8,0.7-6.4,0.7-6.4c1.6,1.3,3,20.2,3,20.2S38,69.2,36.1,79.8c-2,4.7-4.1,8.6-5.9,10.2
					c0,0-0.8,0-2.1-0.1c0.1-1.1,0.4-3.2,0.6-4.3c-0.1,0.1,1.7-8.7,0.6-15.2c-0.5-3.1-2.1-3.7-3.3-7C24.9,60.3,25,58.2,25.4,56.6z"/>
				<path class="st256" d="M50.1,48.6c0,0,7.5,11.3,0.8,20.4C49.7,61.9,49,53.6,49,53.6L50.1,48.6z"/>
				<path class="st253" d="M38.4,50.9l-4.9-0.5L30,83.7c0,0,12.2,4.8,19.4,2c2.2-12.1,3.8-28.2,0.1-32.4
					C46.5,51.7,38.4,50.9,38.4,50.9z"/>
				<path class="st258" d="M39.6,46l-1.2,4.9c0,0,2.7,8.8,9.8,5.4c0.1-2-0.1-2.9-0.1-2.9S41.6,46.7,39.6,46z"/>
				<path class="st258" d="M39.4,40.7c-0.4,3.7,2.3,7,6,7.4l0.5,0c3.7,0.4,7-2.3,7.4-6l0.7-6.6c0.4-3.7-2.3-7-6-7.4l-0.5,0
					c-3.7-0.4-7,2.3-7.4,6L39.4,40.7z"/>
				
					<linearGradient id="SVGID_5_" gradientUnits="userSpaceOnUse" x1="-1373.5165" y1="-1480.7219" x2="-1373.5165" y2="-1500.7443" gradientTransform="matrix(-0.9947 -0.1032 0.1032 -0.9947 -1162.437 -1580.5505)">
					<stop  offset="0" style="stop-color:#EF7C3E"/>
					<stop  offset="1" style="stop-color:#F6D88C"/>
				</linearGradient>
				<path style="fill:url(#SVGID_5_);" d="M50,40.5c0,0-1.2-2.1-1.2-6.3c0-7.5,4.9-1.5,4.9-1.5c0.3,0.9,0.4,1.8,0.3,2.7l-0.7,6.6
					c-0.3,3.2-2.8,5.6-5.8,6c0,0-1.3-2.1-0.5-6.1C47,42,49,42.2,50,40.5z"/>
				
					<ellipse transform="matrix(0.1037 -0.9946 0.9946 0.1037 9.9988 82.6292)" class="st260" cx="50.8" cy="35.8" rx="0.7" ry="0.4"/>
				<path class="st260" d="M45.2,35.2c0,0.4,0.1,0.7,0.3,0.7c0.2,0,0.4-0.3,0.5-0.7c0-0.4-0.1-0.7-0.3-0.7
					C45.5,34.5,45.3,34.8,45.2,35.2z"/>
				<path class="st261" d="M38.9,39.7c0.7-1.1,2-1.5,2-1.5s0,4.6,1.6,6.9c0.6-2.4,2.2-3.4,4.5-3.1c1.8,0.2,3.2-0.3,3.5,2.2
					c1.9-1.3,2.9-7.6,3.3-12.1c0.5,0.7,0.6,4.4,0.5,5.3c-0.2,2.1-0.4,14.1-5.6,17.9c0-0.6,0-1.3-0.3-1.6c-0.1,0.6-0.6,1.6-0.9,2.3
					c-0.1,0-0.2,0.1-0.2,0.1c-0.9,0.1-1.8,0.1-2.5-0.1c0.1-0.6,0.2-1.4,0.2-1.4l-1.2,1.1c-2-0.9-3.2-3.2-3.2-8
					c-0.4,1.6-0.5,2.8-0.5,2.8C39.4,48.4,38.4,41.8,38.9,39.7z"/>
				<polygon class="st262" points="44.3,33.1 46.3,32.3 46.4,31.1 44.1,32.7 				"/>
				<polygon class="st262" points="52.2,34.1 50.8,33 50.9,31.8 52.5,33.7 				"/>
				<path class="st263" d="M49.5,43.7c0,0-2.1,1.6-5.1-0.4C44.7,45.6,48.2,48.9,49.5,43.7z"/>
				<path class="st264" d="M45,44.8c-0.4-0.5-0.6-1.1-0.6-1.6c3,1.9,5.2,0.4,5.2,0.4c-0.1,0.3-0.2,0.7-0.3,1
					C48.7,45,47.6,45.9,45,44.8z"/>
				<path class="st261" d="M42.8,32c0,0,6.4-4.6,11,0.8c1,0.2,4.2-1.8,2.2-4.6c-1.4-2-3.7-0.9-3.7-0.9c0.3-1.3-0.5-3-2.6-3.3
					c-2-0.3-2.7,2-2.7,2c-0.1-1.9-2-3.1-3.9-2.4c-2.3,0.8-1.8,3.4-1.8,3.4c-0.7-0.7-2.4-1.1-4,0.6c-1,1.1,0,2.8,0.2,3
					c-2,0.4-2,4.5,0.7,4.7c-1.9,0.7-1.7,4.3,1.2,4.9C40.5,39.7,42.7,35.2,42.8,32z"/>
				<path class="st265" d="M51.4,70.6l-19.8-2.1l0.3-3.3l19.7,2C51.5,68.4,51.4,69.5,51.4,70.6z"/>
				<path class="st266" d="M51.6,65.6l-19.6-2l0.2-1.5l19.4,2C51.6,64.6,51.6,65.1,51.6,65.6z"/>
				<path class="st267" d="M31.1,72.4l0.8,1.8l2-2.5l1.9,3.1l2.4-2.9l1.7,3.2l2.2-3l2.2,3.6l2.7-3l1.8,3.5l2.3-2.5
					c-0.1,0.7-0.1,1.4-0.2,2.1l-2.3,2.5l-1.8-3.4l-2.6,2.9L42,74.2l-2.3,3.2L38,74l-2.3,2.8l-1.9-3l-2.2,2.7l-0.8-1.7L31.1,72.4z"/>
				
					<ellipse transform="matrix(9.999875e-02 -0.995 0.995 9.999875e-02 6.3513 76.8709)" class="st268" cx="45.7" cy="34.9" rx="0.3" ry="0.2"/>
				
					<ellipse transform="matrix(0.1028 -0.9947 0.9947 0.1028 10.3761 82.4266)" class="st268" cx="50.9" cy="35.5" rx="0.3" ry="0.2"/>
				<g>
					<path class="st269" d="M35.7,61.3c0,0-4.9,10-1.5,19.3c-3.1,1-5.9,1.8-5.9,1.8s-1.6-10,0.8-20.5C32.4,60.3,35.3,60,35.7,61.3z"
						/>
					<g>
						<g>
							<path class="st253" d="M37,51.6c0,0-7.6,18.9-3.7,29.8c-3.6,1.1-6.9,2.1-6.9,2.1s-3.3-18.7,2.9-31.2
								C33.2,50.5,36.5,50.1,37,51.6z"/>
							<g>
								<polygon class="st258" points="32.7,81.2 33.6,84.3 28.5,85.8 28.1,82.3 								"/>
								<path class="st258" d="M33.8,84.1c0,0,2.1,2.1,1.5,3.4c-0.6,1.4-2.2,1.3-2.6,0.5c-0.3-0.8-1-3.1-0.5-3.4
									C32.7,84.2,33.8,84.1,33.8,84.1z"/>
								<path class="st258" d="M32.9,88.6c0,0,0.4-0.3,0.3-1.3c-0.1-1.1-1-3-1.8-2.9c-0.9,0.1-1.5,1.5-0.8,3.3
									C31.2,89.4,32.7,88.8,32.9,88.6z"/>
								<path class="st258" d="M31.1,88.5c0,0-0.8,1.3-1.8,0.6c-1.5-1-1.1-3.5-0.3-4.2c0.8-0.7,1.4-0.3,1.8,0.4
									C31.2,86,31.1,88.5,31.1,88.5z"/>
								<path class="st258" d="M34.8,83c1.2,1.4,0,2.4-0.7,2.3c-0.7-0.1-2.3-1.6-2.3-2.5C31.8,81.8,33.7,81.6,34.8,83z"/>
							</g>
						</g>
					</g>
				</g>
				<path class="st256" d="M33.2,43.9c4.4,11.5,3.2,20-0.5,22.8c0,0,1.7,0.2,0,0c2.2-6.9-2.9-23.2-2.9-23.2L33.2,43.9z"/>
				<g>
					<path class="st270" d="M74.2,73.4c0.2-1.8,0.3-3.5,0.5-5.3c0-0.1,0-0.3,0-0.4c0.4-0.4,0.4-1.1,0.7-1.6c0.7-0.8,1-0.9,1.7-0.4
						c0.5,0.9,0.2,1.9,0.3,2.9c0.1,0.1,0,0.3-0.1,0.4c-0.2,0.4-0.1,0.9,0,1.4c0,0.1,0,0.1-0.1,0.2c-0.2,0.3-0.6,0.4-0.5,0.9
						c0,0.1,0.1,0.2,0.2,0.2c1.2,0.1,2.2,0.4,3.3,0.9c0.1,0,0.1,0.1,0.2,0.2c0,0.1,0,0.1,0,0.2c0.1,0.6,0.4,1.3-0.3,1.8
						c-0.7,0.5-1.5,0.6-2.3,0.1c0-0.3,0.6-0.3,0.4-0.8c-0.1-0.1-0.3-0.1-0.4-0.2c-0.1,0-0.1,0-0.2-0.1c-0.2-0.1-0.3-0.1-0.5-0.2
						c-0.2-0.1-0.4-0.2-0.7-0.2c0,0.2,0.1,0.4,0,0.5C75.6,73.8,74.9,73.6,74.2,73.4z"/>
					<path class="st270" d="M80.9,71c0.2,0.7,0.1,1.4-0.6,1.8c0,0,0,0-0.1-0.1c-0.9-0.4-1.8-0.9-2.8-0.9c-0.6-0.1-0.6-0.4-0.5-0.9
						c0.1-0.2,0.2-0.3,0.3-0.4l0,0c0.7-0.7,1.5-0.4,2.2-0.3C80,70.2,80.6,70.3,80.9,71z"/>
					<path class="st271" d="M77.7,68.5c0.6-0.2,1.3-0.2,1.9-0.3c1.1-0.1,2.2,1,1.6,2.3c-0.9-0.4-1.9-0.5-2.9-0.4
						c-0.2,0-0.4-0.1-0.5-0.2C77.7,69.4,77.8,69,77.7,68.5z"/>
					<path class="st272" d="M78,69.8c0.2,0.3,0.4,0.1,0.7,0c0.9-0.1,1.9-0.2,2.6,0.6c0,0.2-0.2,0.4-0.3,0.5
						c-1.2-0.7-2.4-0.8-3.7-0.5c-0.2-0.5-0.3-1.1,0-1.6C77.4,69.2,77.6,69.6,78,69.8z"/>
					<path class="st273" d="M78,69.8c-0.7,0-0.9-0.4-0.8-1c0.1-0.1,0.1-0.2,0.2-0.3c0.1,0,0.2,0,0.3-0.1
						C78.3,68.8,77.9,69.4,78,69.8z"/>
					<path class="st274" d="M75.4,66.2c-0.3,0.5,0,1.3-0.8,1.5c0-0.6,0.1-1.2,0.5-1.7C75.2,66,75.3,66,75.4,66.2z"/>
					<path class="st275" d="M75.4,66.2c-0.1,0-0.3,0-0.3-0.2c0.7-1,1.3-1.1,1.9-0.3C76.4,65.4,75.8,65.5,75.4,66.2z"/>
					<path class="st276" d="M76.3,74c0-0.3-0.4-0.4-0.3-0.8c0.4,0.1,0.7,0.3,1.1,0.4c0.2,0.4-0.1,0.6-0.3,0.8
						C76.6,74.2,76.4,74.1,76.3,74z"/>
					<path class="st277" d="M78.2,73.9c0.4,0.5,0.4,0.5-0.5,1c-0.1,0-0.2-0.1-0.3-0.1C77.5,74.3,77.8,74.1,78.2,73.9z"/>
					<path class="st278" d="M78.2,73.9c-0.2,0.3-0.5,0.6-0.8,0.8c0,0-0.1,0-0.1,0c-0.2-0.5,0.3-0.7,0.5-0.9
						C77.9,73.8,78,73.8,78.2,73.9z"/>
					<path class="st279" d="M76.7,74.4c0.1-0.3,0.2-0.5,0.3-0.8c0.2,0.1,0.3,0.1,0.5,0.2c0,0.5-0.4,0.5-0.6,0.8
						C76.8,74.5,76.8,74.4,76.7,74.4z"/>
					<path class="st280" d="M76.9,74.5c0.1-0.4,0.5-0.4,0.6-0.8c0.1,0,0.1,0,0.2,0c0,0.4-0.5,0.5-0.5,0.9
						C77.1,74.6,77,74.5,76.9,74.5z"/>
					<path class="st281" d="M77.5,71.6c1,0.1,1.9,0.5,2.7,1.1c-0.4,0.1-0.7-0.2-1-0.3c-0.8-0.4-1.8-0.4-2.7-0.6
						C76.9,71.5,77.2,71.8,77.5,71.6z"/>
					<path class="st282" d="M77.2,70.5c-0.1,0.1-0.1,0.2-0.2,0.3c-0.2,0.2,0.2,0.8-0.5,0.7C76.3,70.8,76.8,70.6,77.2,70.5z"/>
					<path class="st272" d="M76.6,71.5c0.5,0,0.2-0.5,0.5-0.7c0,0.3-0.2,0.8,0.5,0.8c-0.3,0.3-0.6,0.1-0.9,0.2
						C76.6,71.7,76.6,71.6,76.6,71.5z"/>
				</g>
			</g>
		</g>
	</g>
	<g>
		<path class="st253" d="M52.2,55.3c0,0,12.3,12.4,22.3,12.9c-0.3,3.2-0.6,6.1-0.6,6.1S58,70.7,50.3,61.6
			C50,57.9,50.9,55.2,52.2,55.3z"/>
		<path class="st255" d="M24.9,55.6c0,0-9.7-1.4-13.1,0.2c-4.7,8-1.9,18.7-1.9,18.7c4.6,2.4,12.1,1.6,12.1,1.6
			C20.8,67.4,23.5,56.8,24.9,55.6z"/>
		<path class="st256" d="M18.9,63.9c0,0-10.1,1.8-10.3-1.1c1.2-5,3-7.6,3-7.6c4.7-1.4,12.6-0.3,12.6-0.3
			C22.4,57.6,18.9,63.9,18.9,63.9z"/>
		<path class="st256" d="M50.1,48.6c0,0,7.5,11.3,0.8,20.4C49.7,61.9,49,53.6,49,53.6L50.1,48.6z"/>
		<path class="st258" d="M39.6,46l-1.2,4.9c0,0,2.7,8.8,9.8,5.4c0.1-2-0.1-2.9-0.1-2.9S41.6,46.7,39.6,46z"/>
		<path class="st258" d="M39.4,40.7c-0.4,3.7,2.3,7,6,7.4l0.5,0c3.7,0.4,7-2.3,7.4-6l0.7-6.6c0.4-3.7-2.3-7-6-7.4l-0.5,0
			c-3.7-0.4-7,2.3-7.4,6L39.4,40.7z"/>
		
			<linearGradient id="SVGID_7_" gradientUnits="userSpaceOnUse" x1="-1373.5165" y1="-1480.7219" x2="-1373.5165" y2="-1500.7443" gradientTransform="matrix(-0.9947 -0.1032 0.1032 -0.9947 -1162.437 -1580.5505)">
			<stop  offset="0" style="stop-color:#EF7C3E"/>
			<stop  offset="1" style="stop-color:#F6D88C"/>
		</linearGradient>
		<path style="fill:url(#SVGID_7_);" d="M50,40.5c0,0-1.2-2.1-1.2-6.3c0-7.5,4.9-1.5,4.9-1.5c0.3,0.9,0.4,1.8,0.3,2.7l-0.7,6.6
			c-0.3,3.2-2.8,5.6-5.8,6c0,0-1.3-2.1-0.5-6.1C47,42,49,42.2,50,40.5z"/>
		<ellipse transform="matrix(0.1037 -0.9946 0.9946 0.1037 9.9988 82.6292)" class="st260" cx="50.8" cy="35.8" rx="0.7" ry="0.4"/>
		<path class="st260" d="M45.2,35.2c0,0.4,0.1,0.7,0.3,0.7c0.2,0,0.4-0.3,0.5-0.7c0-0.4-0.1-0.7-0.3-0.7
			C45.5,34.5,45.3,34.8,45.2,35.2z"/>
		<path class="st261" d="M38.9,39.7c0.7-1.1,2-1.5,2-1.5s0,4.6,1.6,6.9c0.6-2.4,2.2-3.4,4.5-3.1c1.8,0.2,3.2-0.3,3.5,2.2
			c1.9-1.3,2.9-7.6,3.3-12.1c0.5,0.7,0.6,4.4,0.5,5.3c-0.2,2.1-0.4,14.1-5.6,17.9c0-0.6,0-1.3-0.3-1.6c-0.1,0.6-0.6,1.6-0.9,2.3
			c-0.1,0-0.2,0.1-0.2,0.1c-0.9,0.1-1.8,0.1-2.5-0.1c0.1-0.6,0.2-1.4,0.2-1.4l-1.2,1.1c-2-0.9-3.2-3.2-3.2-8
			c-0.4,1.6-0.5,2.8-0.5,2.8C39.4,48.4,38.4,41.8,38.9,39.7z"/>
		<polygon class="st262" points="44.3,33.1 46.3,32.3 46.4,31.1 44.1,32.7 		"/>
		<polygon class="st262" points="52.2,34.1 50.8,33 50.9,31.8 52.5,33.7 		"/>
		<path class="st263" d="M49.5,43.7c0,0-2.1,1.6-5.1-0.4C44.7,45.6,48.2,48.9,49.5,43.7z"/>
		<path class="st264" d="M45,44.8c-0.4-0.5-0.6-1.1-0.6-1.6c3,1.9,5.2,0.4,5.2,0.4c-0.1,0.3-0.2,0.7-0.3,1
			C48.7,45,47.6,45.9,45,44.8z"/>
		<path class="st261" d="M42.8,32c0,0,6.4-4.6,11,0.8c1,0.2,4.2-1.8,2.2-4.6c-1.4-2-3.7-0.9-3.7-0.9c0.3-1.3-0.5-3-2.6-3.3
			c-2-0.3-2.7,2-2.7,2c-0.1-1.9-2-3.1-3.9-2.4c-2.3,0.8-1.8,3.4-1.8,3.4c-0.7-0.7-2.4-1.1-4,0.6c-1,1.1,0,2.8,0.2,3
			c-2,0.4-2,4.5,0.7,4.7c-1.9,0.7-1.7,4.3,1.2,4.9C40.5,39.7,42.7,35.2,42.8,32z"/>
		<path class="st265" d="M51.4,70.6l-19.8-2.1l0.3-3.3l19.7,2C51.5,68.4,51.4,69.5,51.4,70.6z"/>
		<path class="st266" d="M51.6,65.6l-19.6-2l0.2-1.5l19.4,2C51.6,64.6,51.6,65.1,51.6,65.6z"/>
		<path class="st267" d="M31.1,72.4l0.8,1.8l2-2.5l1.9,3.1l2.4-2.9l1.7,3.2l2.2-3l2.2,3.6l2.7-3l1.8,3.5l2.3-2.5
			c-0.1,0.7-0.1,1.4-0.2,2.1l-2.3,2.5l-1.8-3.4l-2.6,2.9L42,74.2l-2.3,3.2L38,74l-2.3,2.8l-1.9-3l-2.2,2.7l-0.8-1.7L31.1,72.4z"/>
		
			<ellipse transform="matrix(9.999875e-02 -0.995 0.995 9.999875e-02 6.3513 76.8709)" class="st268" cx="45.7" cy="34.9" rx="0.3" ry="0.2"/>
		
			<ellipse transform="matrix(0.1028 -0.9947 0.9947 0.1028 10.3761 82.4266)" class="st268" cx="50.9" cy="35.5" rx="0.3" ry="0.2"/>
		<g>
			<path class="st269" d="M35.7,61.3c0,0-4.9,10-1.5,19.3c-3.1,1-5.9,1.8-5.9,1.8s-1.6-10,0.8-20.5C32.4,60.3,35.3,60,35.7,61.3z"/>
			<g>
				<g>
					<path class="st253" d="M37,51.6c0,0-7.6,18.9-3.7,29.8c-3.6,1.1-6.9,2.1-6.9,2.1s-3.3-18.7,2.9-31.2
						C33.2,50.5,36.5,50.1,37,51.6z"/>
					<g>
						<path class="st258" d="M34.8,83c1.2,1.4,0,2.4-0.7,2.3c-0.7-0.1-2.3-1.6-2.3-2.5C31.8,81.8,33.7,81.6,34.8,83z"/>
					</g>
				</g>
			</g>
		</g>
		<path class="st256" d="M33.2,43.9c4.4,11.5,3.2,20-0.5,22.8c0,0,1.7,0.2,0,0c2.2-6.9-2.9-23.2-2.9-23.2L33.2,43.9z"/>
		<g>
			<path class="st270" d="M73.9,73.5c0.2-1.8,0.3-3.5,0.5-5.3c0-0.1,0-0.3,0-0.4c0.4-0.4,0.4-1.1,0.7-1.6c0.7-0.8,1-0.9,1.7-0.4
				c0.5,0.9,0.2,1.9,0.3,2.9c0.1,0.1,0,0.3-0.1,0.4c-0.2,0.4-0.1,0.9,0,1.4c0,0.1,0,0.1-0.1,0.2c-0.2,0.3-0.6,0.4-0.5,0.9
				c0,0.1,0.1,0.2,0.2,0.2c1.2,0.1,2.2,0.4,3.3,0.9c0.1,0,0.1,0.1,0.2,0.2c0,0.1,0,0.1,0,0.2c0.1,0.6,0.4,1.3-0.3,1.8
				c-0.7,0.5-1.5,0.6-2.3,0.1c0-0.3,0.6-0.3,0.4-0.8c-0.1-0.1-0.3-0.1-0.4-0.2c-0.1,0-0.1,0-0.2-0.1c-0.2-0.1-0.3-0.1-0.5-0.2
				c-0.2-0.1-0.4-0.2-0.7-0.2c0,0.2,0.1,0.4,0,0.5C75.3,73.9,74.6,73.7,73.9,73.5z"/>
			<path class="st270" d="M80.7,71.1c0.2,0.7,0.1,1.4-0.6,1.8c0,0,0,0-0.1-0.1c-0.9-0.4-1.8-0.9-2.8-0.9c-0.6-0.1-0.6-0.4-0.5-0.9
				c0.1-0.2,0.2-0.3,0.3-0.4l0,0c0.7-0.7,1.5-0.4,2.2-0.3C79.7,70.3,80.4,70.4,80.7,71.1z"/>
			<path class="st271" d="M77.4,68.6c0.6-0.2,1.3-0.2,1.9-0.3c1.1-0.1,2.2,1,1.6,2.3c-0.9-0.4-1.9-0.5-2.9-0.4
				c-0.2,0-0.4-0.1-0.5-0.2C77.5,69.6,77.5,69.1,77.4,68.6z"/>
			<path class="st272" d="M77.7,70c0.2,0.3,0.4,0.1,0.7,0c0.9-0.1,1.9-0.2,2.6,0.6c0,0.2-0.2,0.4-0.3,0.5c-1.2-0.7-2.4-0.8-3.7-0.5
				c-0.2-0.5-0.3-1.1,0-1.6C77.2,69.3,77.4,69.7,77.7,70z"/>
			<path class="st273" d="M77.7,70c-0.7,0-0.9-0.4-0.8-1c0.1-0.1,0.1-0.2,0.2-0.3c0.1,0,0.2,0,0.3-0.1C78.1,69,77.7,69.5,77.7,70z"
				/>
			<path class="st274" d="M75.2,66.3c-0.3,0.5,0,1.3-0.8,1.5c0-0.6,0.1-1.2,0.5-1.7C75,66.1,75.1,66.2,75.2,66.3z"/>
			<path class="st275" d="M75.2,66.3c-0.1,0-0.3,0-0.3-0.2c0.7-1,1.3-1.1,1.9-0.3C76.1,65.5,75.6,65.6,75.2,66.3z"/>
			<path class="st276" d="M76,74.1c0-0.3-0.4-0.4-0.3-0.8c0.4,0.1,0.7,0.3,1.1,0.4c0.2,0.4-0.1,0.6-0.3,0.8
				C76.3,74.4,76.2,74.2,76,74.1z"/>
			<path class="st277" d="M77.9,74c0.4,0.5,0.4,0.5-0.5,1c-0.1,0-0.2-0.1-0.3-0.1C77.2,74.4,77.6,74.2,77.9,74z"/>
			<path class="st278" d="M77.9,74c-0.2,0.3-0.5,0.6-0.8,0.8c0,0-0.1,0-0.1,0c-0.2-0.5,0.3-0.7,0.5-0.9C77.6,73.9,77.8,73.9,77.9,74
				z"/>
			<path class="st279" d="M76.5,74.5c0.1-0.3,0.2-0.5,0.3-0.8c0.2,0.1,0.3,0.1,0.5,0.2c0,0.5-0.4,0.5-0.6,0.8
				C76.6,74.6,76.5,74.6,76.5,74.5z"/>
			<path class="st280" d="M76.7,74.6c0.1-0.4,0.5-0.4,0.6-0.8c0.1,0,0.1,0,0.2,0c0,0.4-0.5,0.5-0.5,0.9
				C76.9,74.7,76.8,74.7,76.7,74.6z"/>
			<path class="st281" d="M77.3,71.7c1,0.1,1.9,0.5,2.7,1.1c-0.4,0.1-0.7-0.2-1-0.3c-0.8-0.4-1.8-0.4-2.7-0.6
				C76.6,71.6,77,72,77.3,71.7z"/>
			<path class="st282" d="M77,70.6c-0.1,0.1-0.1,0.2-0.2,0.3c-0.2,0.2,0.2,0.8-0.5,0.7C76,70.9,76.5,70.8,77,70.6z"/>
			<path class="st272" d="M76.3,71.6c0.5,0,0.2-0.5,0.5-0.7c0,0.3-0.2,0.8,0.5,0.8c-0.3,0.3-0.6,0.1-0.9,0.2
				C76.3,71.8,76.3,71.7,76.3,71.6z"/>
		</g>
	</g>
</g>
</svg>
