<?xml version="1.0" encoding="utf-8"?>
<!-- Generator: Adobe Illustrator 21.0.1, SVG Export Plug-In . SVG Version: 6.00 Build 0)  -->
<svg version="1.1" id="Layer_1" xmlns="http://www.w3.org/2000/svg" xmlns:xlink="http://www.w3.org/1999/xlink" x="0px" y="0px"
	 viewBox="0 0 87.3 87.3" style="enable-background:new 0 0 87.3 87.3;" xml:space="preserve">
<style type="text/css">
	.st0{fill:#2CAB9F;}
	.st1{fill:#D8D8D2;}
	.st2{fill:#F2C6A1;}
	.st3{fill:#BC2F3D;}
	.st4{fill:#FECE08;}
	.st5{fill:#F3A27A;}
	.st6{clip-path:url(#SVGID_2_);}
	.st7{fill:#89684D;}
	.st8{fill:#414042;}
	.st9{fill:#EA7E78;}
	.st10{fill:#FFFFFF;}
	.st11{fill:#EE4500;}
	.st12{fill:#FEA708;}
	.st13{fill:url(#SVGID_3_);}
	.st14{fill:#92A9ED;}
	.st15{fill:#5F70AF;}
	.st16{fill:#A3A3A3;}
	.st17{fill:#C1C1C1;}
	.st18{fill:#A3A2A2;}
	.st19{fill:#E7E3E1;}
	.st20{clip-path:url(#SVGID_5_);fill:#BEBBBB;}
	.st21{clip-path:url(#SVGID_7_);fill:#BEBBBB;}
	.st22{clip-path:url(#SVGID_9_);fill:#BEBBBB;}
	.st23{clip-path:url(#SVGID_11_);fill:#BEBBBB;}
	.st24{clip-path:url(#SVGID_13_);fill:#BEBBBB;}
	.st25{clip-path:url(#SVGID_15_);fill:#BEBBBB;}
	.st26{fill:#58595B;}
	.st27{fill:#E2B436;}
	.st28{clip-path:url(#SVGID_17_);}
	.st29{fill:#36313B;}
	.st30{fill:#231E2B;}
	.st31{fill:#47414D;}
	.st32{fill:#273E42;}
	.st33{fill:#355860;}
	.st34{fill:#49727C;}
	.st35{fill:#3B2130;}
	.st36{fill:#5895A5;}
	.st37{fill:#E8BE9B;}
	.st38{fill:#C7936B;}
	.st39{fill:#69ACC4;}
	.st40{fill:#4FAB59;}
	.st41{fill:#915620;}
	.st42{fill:#AD661F;}
	.st43{fill:#A6644B;}
	.st44{fill:#C2751D;}
	.st45{fill:#CF8934;}
	.st46{fill:url(#SVGID_18_);}
	.st47{clip-path:url(#SVGID_20_);}
	.st48{fill:url(#hair_1_);}
	.st49{fill:url(#SVGID_21_);}
	.st50{opacity:0.3;fill:#A55311;enable-background:new    ;}
	.st51{opacity:0.2;fill:#FFA383;enable-background:new    ;}
	.st52{opacity:0.61;fill:#FFB273;enable-background:new    ;}
	.st53{opacity:0.4;fill:#FFB273;enable-background:new    ;}
	.st54{fill:url(#axe_1_);}
	.st55{opacity:0.3;fill:#676E7A;enable-background:new    ;}
	.st56{opacity:0.25;fill:#FFFFFF;enable-background:new    ;}
	.st57{opacity:0.5;fill:#FFFFFF;enable-background:new    ;}
	.st58{fill:#A8B5C1;}
	.st59{opacity:0.35;fill:#FFFFFF;enable-background:new    ;}
	.st60{fill:#FFC19F;}
	.st61{opacity:0.8;fill:#FFC19F;enable-background:new    ;}
	.st62{fill:url(#arm_1_);}
	.st63{opacity:0.6;fill:#FFC19F;enable-background:new    ;}
	.st64{fill:url(#SVGID_22_);}
	.st65{fill:url(#SVGID_23_);}
	.st66{fill:url(#SVGID_24_);}
	.st67{fill:url(#pants_1_);}
	.st68{opacity:0.2;fill:#1D280D;enable-background:new    ;}
	.st69{opacity:0.3;fill:#1D280D;enable-background:new    ;}
	.st70{fill:url(#SVGID_25_);}
	.st71{opacity:0.75;fill:#893700;enable-background:new    ;}
	.st72{fill:url(#SVGID_26_);}
	.st73{fill:url(#SVGID_27_);}
	.st74{fill:url(#SVGID_28_);}
	.st75{fill:url(#arm_2_);}
	.st76{fill:url(#SVGID_29_);}
	.st77{fill:url(#SVGID_30_);}
	.st78{fill:url(#SVGID_31_);}
	.st79{fill:url(#shirt_1_);}
	.st80{opacity:0.15;fill:url(#shadow_1_);enable-background:new    ;}
	.st81{fill:url(#belt_1_);}
	.st82{opacity:0.35;}
	.st83{fill:url(#SVGID_32_);}
	.st84{fill:url(#SVGID_33_);}
	.st85{opacity:0.8;}
	.st86{fill:url(#SVGID_34_);}
	.st87{fill:url(#SVGID_35_);}
	.st88{opacity:0.4;fill:url(#SVGID_36_);enable-background:new    ;}
	.st89{fill:url(#SVGID_37_);}
	.st90{opacity:0.6;fill:#FFEB78;enable-background:new    ;}
	.st91{opacity:0.75;fill:#FFEB78;enable-background:new    ;}
	.st92{fill:url(#SVGID_38_);}
	.st93{fill:url(#SVGID_39_);}
	.st94{fill:url(#SVGID_40_);}
	.st95{opacity:0.4;fill:#BF1604;enable-background:new    ;}
	.st96{fill:#541918;}
	.st97{fill:#9B071C;}
	.st98{fill:#FF2B15;}
	.st99{fill:url(#SVGID_41_);}
	.st100{fill:#A55311;}
	.st101{fill:#471A08;}
	.st102{fill:#FCC79A;}
	.st103{opacity:0.69;fill:#FFD3AB;enable-background:new    ;}
	.st104{fill:url(#SVGID_42_);}
	.st105{fill:url(#SVGID_43_);}
	.st106{fill:url(#SVGID_44_);}
	.st107{opacity:0.25;fill:url(#SVGID_45_);enable-background:new    ;}
	.st108{opacity:0.25;fill:#FC8460;enable-background:new    ;}
	.st109{fill:url(#SVGID_46_);}
	.st110{opacity:0.3;fill:url(#SVGID_47_);enable-background:new    ;}
	.st111{clip-path:url(#SVGID_49_);}
	.st112{fill:url(#SVGID_50_);}
	.st113{fill:url(#axe_2_);}
	.st114{fill:url(#arm_3_);}
	.st115{fill:url(#SVGID_51_);}
	.st116{fill:url(#SVGID_52_);}
	.st117{fill:url(#SVGID_53_);}
	.st118{fill:url(#SVGID_54_);}
	.st119{clip-path:url(#SVGID_56_);}
	.st120{fill:#FCC78C;}
	.st121{fill:url(#SVGID_57_);}
	.st122{fill:#AC7930;}
	.st123{fill:#1A171B;}
	.st124{fill:#EDEDEE;}
	.st125{fill:#939292;}
	.st126{fill:#C7D5DF;}
	.st127{fill:#98B7C9;}
	.st128{fill:url(#SVGID_58_);}
	.st129{fill:url(#SVGID_59_);}
	.st130{fill:url(#SVGID_60_);}
	.st131{fill:url(#SVGID_61_);}
	.st132{fill:url(#SVGID_62_);}
	.st133{fill:url(#SVGID_63_);}
	.st134{fill:url(#SVGID_64_);}
	.st135{fill:url(#SVGID_65_);}
	.st136{fill:url(#SVGID_66_);}
	.st137{fill:url(#SVGID_67_);}
	.st138{fill:url(#SVGID_68_);}
	.st139{fill:#EB3D00;}
	.st140{fill:#835527;}
	.st141{fill:#D0995B;}
	.st142{fill:#E4AC00;}
	.st143{fill:#553F24;}
	.st144{fill:#93723A;}
	.st145{fill:#B9391A;}
	.st146{fill:#D99C09;}
	.st147{fill:#FFCC00;}
	.st148{fill:#9C9D9F;}
	.st149{fill:#B1B3B4;}
	.st150{fill:#C6C7C9;}
	.st151{fill:#D9DADB;}
	.st152{fill:#87888A;}
	.st153{fill:#A65C44;}
	.st154{fill:url(#SVGID_69_);}
	.st155{fill:url(#SVGID_70_);}
	.st156{fill:#2A2C2E;}
	.st157{clip-path:url(#SVGID_72_);}
	.st158{fill:#FFF200;}
	.st159{fill:#FFE300;}
	.st160{fill:#FBB040;}
	.st161{fill:#FC873E;}
	.st162{fill:#FB983F;}
	.st163{fill:url(#SVGID_73_);}
	.st164{fill:#754629;}
	.st165{clip-path:url(#SVGID_75_);fill:#ED1C24;}
	.st166{clip-path:url(#SVGID_77_);fill:#FB983F;}
	.st167{clip-path:url(#SVGID_79_);fill:#FB983F;}
	.st168{clip-path:url(#SVGID_81_);}
	.st169{fill:#ED1C24;}
	.st170{fill:#FEFFFF;}
	.st171{fill:#B3151B;}
	.st172{fill:#ED5C62;}
	.st173{opacity:0.2;fill:#231F20;enable-background:new    ;}
	.st174{opacity:0.4;fill:#231F20;enable-background:new    ;}
	.st175{fill:#424345;}
	.st176{fill:#FFE3C2;}
	.st177{opacity:0.1;fill:#231F20;enable-background:new    ;}
	.st178{fill:#303842;}
	.st179{fill:#363F4A;}
	.st180{clip-path:url(#SVGID_83_);fill:#FFEEDB;}
	.st181{clip-path:url(#SVGID_85_);fill:#2A2C2E;}
	.st182{opacity:0.2;clip-path:url(#SVGID_87_);fill:#231F20;enable-background:new    ;}
	.st183{clip-path:url(#SVGID_89_);}
	.st184{fill:#08E4FF;stroke:#08E4FF;stroke-width:0.1289;stroke-miterlimit:10;}
	.st185{fill:#F5F38E;}
	.st186{fill:#90C53F;}
	.st187{clip-path:url(#SVGID_91_);}
	.st188{fill:#754444;}
	.st189{fill:#5E3636;}
	.st190{fill:#7A5E27;}
	.st191{fill:#D1AB65;}
	.st192{fill:#A78442;}
	.st193{fill:#FCCFA4;}
	.st194{fill:#C78E65;}
	.st195{fill:#DDDDDC;}
	.st196{fill:#3B212A;}
	.st197{fill:#24211D;}
	.st198{fill:#45413F;}
	.st199{fill:#968064;}
	.st200{fill:#706151;}
	.st201{fill:url(#SVGID_92_);}
	.st202{fill:#211D18;}
	.st203{fill:#352E27;}
	.st204{display:none;}
	.st205{display:inline;}
	.st206{fill:#A8A8A7;}
	.st207{fill:#3C3C3B;}
	.st208{fill:#C59221;}
	.st209{fill:#FDC800;}
	.st210{display:inline;fill:#FFFFFF;}
	.st211{fill:#949393;}
	.st212{fill:#DBE8B0;}
	.st213{clip-path:url(#SVGID_94_);}
	.st214{opacity:0.3;fill:#808080;enable-background:new    ;}
	.st215{display:none;fill:#4B4B63;}
	.st216{fill:#4F3927;}
	.st217{fill:#5F442D;}
	.st218{fill:#6C5236;}
	.st219{fill:#976F44;}
	.st220{fill:#AC824E;}
	.st221{fill:#826544;}
	.st222{fill:#6E6E6E;}
	.st223{fill:#595959;}
	.st224{fill:#545454;}
	.st225{fill:#424242;}
	.st226{fill:#9C9C9C;}
	.st227{fill:#6E8091;}
	.st228{fill:#7B8B9B;}
	.st229{opacity:0.25;fill:#696969;enable-background:new    ;}
	.st230{fill:#A4C639;}
	.st231{fill:#FFC639;}
	.st232{fill:#F1A530;}
	.st233{fill:none;}
	.st234{opacity:0.29;fill:#383838;}
	.st235{opacity:0.4;fill:#FFFFFF;enable-background:new    ;}
	.st236{opacity:0.8;fill:#FFFFFF;enable-background:new    ;}
	.st237{fill:#859F25;}
	.st238{fill:#D78507;}
	.st239{fill:#262626;}
	.st240{fill:#BFD773;}
	.st241{fill:#FBDD57;}
	.st242{clip-path:url(#SVGID_96_);fill:#F4B711;}
	.st243{fill:#F4B711;}
	.st244{clip-path:url(#SVGID_98_);fill:#F4B711;}
	.st245{fill:#F4BB3B;}
	.st246{fill:#383838;}
	.st247{fill:#E6E6E6;}
	.st248{fill:#B3B3B3;}
	.st249{fill:#7D7D7D;}
	.st250{fill:#2F2F2F;}
	.st251{fill:#F2D850;}
	.st252{clip-path:url(#SVGID_100_);}
	.st253{fill:#C62B12;}
	.st254{fill:#B3B729;}
	.st255{fill:#A3A321;}
	.st256{fill:#C8D340;}
	.st257{opacity:0.6;fill:#7F7C13;enable-background:new    ;}
	.st258{fill:#F6D88C;}
	.st259{fill:url(#SVGID_101_);}
	.st260{fill:#1D1D1B;}
	.st261{fill:#C96317;}
	.st262{fill:#B74C1D;}
	.st263{fill:#C91111;}
	.st264{fill:#F6F8F9;}
	.st265{fill:#F97450;}
	.st266{fill:#3D8699;}
	.st267{fill:#FC7800;}
	.st268{fill:#7A7A74;}
	.st269{opacity:0.6;fill:#7F2713;enable-background:new    ;}
	.st270{fill:#F5D78B;}
	.st271{fill:#F5D78C;}
	.st272{fill:#F09453;}
	.st273{fill:#EF8E4D;}
	.st274{fill:#F1A15E;}
	.st275{fill:#EF8A4D;}
	.st276{fill:#EF8848;}
	.st277{fill:#F3C078;}
	.st278{fill:#F2B26F;}
	.st279{fill:#F19D5B;}
	.st280{fill:#F1A562;}
	.st281{fill:#F09A58;}
	.st282{fill:#EE7F41;}
	.st283{fill:url(#SVGID_102_);}
	.st284{fill:none;stroke:url(#SVGID_103_);stroke-width:1.9316;stroke-miterlimit:10;}
	.st285{clip-path:url(#SVGID_105_);}
	.st286{fill:#547FA1;}
	.st287{fill:#D0BF90;}
	.st288{fill:#E5D6AC;}
	.st289{fill:#DBC99A;}
	.st290{fill:#DCC6A2;}
	.st291{fill:url(#Кофта_1_);}
	.st292{fill:#FFBD7B;}
	.st293{fill:#CCAF83;}
	.st294{fill:#DBC5A1;}
	.st295{fill:#D3B991;}
	.st296{fill:#3C3022;}
	.st297{fill:url(#SVGID_106_);}
	.st298{fill:#FF9E85;}
	.st299{fill:#292929;}
	.st300{fill:#2C3C53;}
	.st301{fill:none;stroke:url(#SVGID_107_);stroke-width:1.9316;stroke-miterlimit:10;}
	.st302{fill:#FFFFFF;stroke:url(#SVGID_108_);stroke-width:1.9311;stroke-miterlimit:10;}
	.st303{clip-path:url(#SVGID_110_);}
	.st304{fill:#363D67;}
	.st305{fill:#DCA54C;}
	.st306{fill:#FEFEFE;}
	.st307{fill:#F5183F;}
	.st308{fill:#FDCCBB;}
	.st309{fill:#FDFDFC;}
	.st310{fill:#FDFDFB;}
	.st311{fill:#F4183F;}
	.st312{fill:#F31840;}
	.st313{fill:#F4173F;}
	.st314{fill:#DBA44C;}
	.st315{fill:#FCF9F9;}
	.st316{fill:#FCFCFA;}
	.st317{fill:#DAA44C;}
	.st318{fill:#FBF5F6;}
	.st319{fill:#FCF6F6;}
	.st320{fill:#FBFAF7;}
	.st321{fill:#DD1F47;}
	.st322{fill:#FAF5F6;}
	.st323{fill:#CE9D54;}
	.st324{fill:#F8ECEF;}
	.st325{fill:#FCF6F7;}
	.st326{fill:#D5A254;}
	.st327{fill:#727693;}
	.st328{fill:#E91B43;}
	.st329{fill:#F5F5F6;}
	.st330{fill:#AFB6C1;}
	.st331{fill:#D6A14E;}
	.st332{fill:#F7F2F3;}
	.st333{fill:#363C67;}
	.st334{fill:#353C67;}
	.st335{fill:#F31C42;}
	.st336{fill:#EAD2DA;}
	.st337{fill:#DA1E45;}
	.st338{fill:#373E67;}
	.st339{fill:#FCCCB9;}
	.st340{fill:#3D4166;}
	.st341{fill:#FBCBB8;}
	.st342{fill:#F6CAB6;}
	.st343{fill:#FBC3CD;}
	.st344{fill:#FBDCE1;}
	.st345{fill:#ED1D44;}
	.st346{fill:#ECEBEE;}
	.st347{fill:#E1234A;}
	.st348{fill:#DED3DB;}
	.st349{fill:#DD2047;}
	.st350{fill:#D5CCD6;}
	.st351{fill:#F5DDE3;}
	.st352{fill:#383E67;}
</style>
<g>
	
		<linearGradient id="SVGID_2_" gradientUnits="userSpaceOnUse" x1="39.9753" y1="-741.1667" x2="39.9753" y2="-681.1667" gradientTransform="matrix(1 0 0 -1 0 -655)">
		<stop  offset="0" style="stop-color:#6B8AC7"/>
		<stop  offset="1" style="stop-color:#8462CA"/>
	</linearGradient>
	<circle style="fill:url(#SVGID_2_);" cx="40" cy="56.2" r="30"/>
	<g>
		<path class="st14" d="M17.2,41.3c0,0,0.5,1.5,1.1,3.3C22.7,59.5,28.6,70.9,36.5,80c0.9,1.2,1.6,2.2,1.5,2.2c-0.1,0-1-0.9-1.9-2
			c-8-9.2-13.7-20.7-18-35.6C17.5,42.8,17.2,41.3,17.2,41.3z"/>
		<path class="st14" d="M13.6,38.7c3.1,3,3.4,3,3.5,2.7c0.1-0.2-0.1-0.7-3.3-3.7c-3.2-3.1-5.6-5.2-5.6-5
			C8.3,32.9,10.6,35.8,13.6,38.7z"/>
		<path class="st14" d="M14.3,41.4c3.4,3.2,3.8,3.3,3.8,3c0.1-0.3-0.1-0.7-3.6-4.1c-3.5-3.3-6.1-5.7-6-5.5
			C8.5,35,10.9,38.2,14.3,41.4z"/>
		<path class="st14" d="M14.1,43.2c4,2.9,4.5,2.9,4.5,2.7c0.1-0.3-0.3-0.7-4.5-3.7c-4.1-3-6.7-4.8-6.7-4.7
			C7.5,37.7,10.2,40.4,14.1,43.2z"/>
		<path class="st14" d="M14.5,45.5c4.2,2.5,4.7,2.5,4.7,2.2c0.1-0.3-0.4-0.7-4.7-3.3c-4.3-2.6-6.9-4-6.9-3.8
			C7.7,40.8,10.4,43.1,14.5,45.5z"/>
		<path class="st14" d="M14.8,47.6c4.3,1.9,4.8,1.9,4.8,1.6c0-0.3-0.5-0.7-4.9-2.7c-4.4-2-7.1-2.9-7.1-2.8
			C7.7,43.9,10.6,45.7,14.8,47.6z"/>
		<path class="st14" d="M15.4,52.7c5.2,1.3,5.9,1.2,5.8,0.8c0.1-0.4-0.6-1-5.9-2.4c-5.2-1.4-8.2-1.2-8.2-1
			C7.2,50.4,10.3,51.4,15.4,52.7z"/>
		<path class="st14" d="M15.2,50c4.5,1.2,5.1,1.2,5.1,0.8c0.1-0.3-0.6-0.7-5.2-2c-4.5-1.2-7.2-1.3-7.2-1.1C8,47.9,10.7,48.8,15.2,50
			z"/>
		<path class="st14" d="M16.1,55.4c5.3,1,5.9,0.9,5.9,0.4c0-0.4-0.6-0.9-6-2c-5.3-1-8.4-0.6-8.4-0.4C7.6,53.7,10.8,54.4,16.1,55.4z"
			/>
		<path class="st14" d="M18.4,63.6c6-0.1,6.6-0.4,6.5-0.9c0-0.4-0.7-0.9-6.8-0.7c-6,0.2-9.8,1.6-9.8,1.8C8.4,64,12.4,63.8,18.4,63.6
			z"/>
		<path class="st14" d="M17.4,60.4c5.9,0.1,6.6-0.1,6.5-0.6c0-0.4-0.7-0.8-6.6-0.9c-5.8,0-9.5,1.2-9.5,1.4
			C7.8,60.5,11.5,60.3,17.4,60.4z"/>
		<path class="st14" d="M16.2,57.9c5.9,0,6.5-0.2,6.5-0.6c0-0.4-0.7-0.8-6.6-0.8c-5.8,0-9.2,1.4-9.2,1.6
			C6.8,58.2,10.4,57.9,16.2,57.9z"/>
		<path class="st14" d="M19.4,66.3c6.4-0.5,6.9-0.8,6.9-1.2c0-0.4-0.7-0.7-7-0.1C12.9,65.6,8.6,67,8.6,67.2
			C8.6,67.3,13,66.8,19.4,66.3z"/>
		<path class="st14" d="M20.4,68.2c6.4-0.4,6.9-0.7,6.8-1.1c0-0.4-0.7-0.7-7-0.2c-6.3,0.5-10.8,1.8-10.8,1.9
			C9.4,68.9,14,68.5,20.4,68.2z"/>
		<path class="st14" d="M22.4,72.4c7.1-0.1,7.6-0.5,7.6-0.9c-0.1-0.4-0.6-0.8-7.6-0.5c-7,0.3-12.3,1.3-12.4,1.4
			C9.9,72.5,15.2,72.5,22.4,72.4z"/>
		<path class="st14" d="M21,70.4c7.1-0.3,7.7-0.7,7.6-1.1c0-0.4-0.7-0.8-7.7-0.3c-7,0.5-12.2,1.7-12.2,1.9
			C8.7,70.9,13.8,70.6,21,70.4z"/>
		<path class="st14" d="M25.9,78.2c7.9,0.1,8.1-0.6,8.1-1.1c-0.2-0.6-0.7-0.8-8.4-0.4c-7.9,0.3-14.4,0.4-14.4,0.5
			C11,77.1,17.7,77.9,25.9,78.2z"/>
		<path class="st14" d="M29,81.6c7-0.5,7-1.6,6.9-2c-0.3-0.7-0.7-0.5-7.6,0.5c-7,0.8-13,0-12.9,0.1C15.3,80.1,21.8,81.8,29,81.6z"/>
		<path class="st14" d="M31.8,84.7c6-1.2,5.9-2.8,5.7-3.1c-0.3-0.8-0.7-0.1-6.8,1.6c-6.2,1.4-11.5-0.9-11.3-0.8
			C19.5,82.3,25.6,85.4,31.8,84.7z"/>
		<path class="st14" d="M23.3,75.4c8.2,0,8.6-0.6,8.5-1.1c-0.2-0.6-0.7-0.9-8.8-0.5C14.9,74.2,8.5,75,8.4,75.1
			C8.4,75.1,14.9,75.4,23.3,75.4z"/>
		<path class="st14" d="M15.5,37.2c1.5,3.8,1.3,4.1,1.1,4.1c-0.3,0-0.6-0.4-2.1-4.3c-1.5-3.9-2.6-6.6-2.4-6.5
			C12.2,30.4,14,33.4,15.5,37.2z"/>
		<path class="st14" d="M17.5,39.9c1.1,4.2,0.9,4.6,0.6,4.5c-0.3,0-0.6-0.5-1.7-4.9c-1.1-4.4-1.9-7.2-1.7-7.1
			C14.9,32.4,16.4,35.6,17.5,39.9z"/>
		<path class="st14" d="M13.3,35c2.5,4.3,2.5,4.8,2.3,4.8c-0.3,0-0.7-0.4-3.3-4.9c-2.6-4.5-4.4-7.7-4.2-7.6
			C8.3,27.4,10.8,30.7,13.3,35z"/>
		<path class="st14" d="M19.2,42.6c0.4,4.7,0.2,5.1,0,5c-0.3-0.1-0.5-0.7-1-5.5c-0.5-4.8-0.7-7.6-0.5-7.5
			C17.8,34.7,18.8,38,19.2,42.6z"/>
		<path class="st14" d="M20.3,44.2c-0.1,4.6-0.4,5.1-0.6,4.9c-0.3-0.1-0.4-0.7-0.3-5.5c0.1-4.8,0.4-7.4,0.5-7.3
			C20,36.4,20.4,39.6,20.3,44.2z"/>
		<path class="st14" d="M22.7,47.7c-1,5.3-1.4,5.9-1.8,5.6c-0.4-0.1-0.6-1,0.4-6.4c1-5.3,2.4-7.9,2.6-7.8
			C24.1,39.3,23.8,42.5,22.7,47.7z"/>
		<path class="st14" d="M21.5,45.8c-0.9,4.6-1.2,5.1-1.4,4.9c-0.3-0.1-0.4-0.8,0.4-5.5c0.8-4.6,1.9-6.9,2-6.8
			C22.7,38.6,22.4,41.4,21.5,45.8z"/>
		<path class="st14" d="M24.1,50c-1.4,5.2-1.8,5.8-2.1,5.5c-0.4-0.1-0.6-1,0.8-6.3c1.3-5.3,3-7.9,3.2-7.8
			C26.2,41.5,25.5,44.8,24.1,50z"/>
		<path class="st14" d="M28.8,57.2c-2.7,5.4-3.2,5.8-3.6,5.5c-0.4-0.2-0.5-1,2.3-6.4c2.8-5.3,5.6-8.2,5.8-8.1
			C33.4,48.3,31.5,51.9,28.8,57.2z"/>
		<path class="st14" d="M27.1,54.1c-2.5,5.4-2.9,5.9-3.3,5.6c-0.3-0.1-0.4-1,2.1-6.4c2.5-5.3,5.1-8.1,5.3-8
			C31.3,45.5,29.6,48.8,27.1,54.1z"/>
		<path class="st14" d="M26,51.9c-2.5,5.3-3,5.9-3.3,5.6c-0.3-0.1-0.4-1,2.1-6.4c2.5-5.3,5.1-7.8,5.3-7.7
			C30.2,43.5,28.5,46.6,26,51.9z"/>
		<path class="st14" d="M30.5,59.2c-3.2,5.5-3.8,5.8-4.1,5.6c-0.3-0.2-0.4-0.9,2.9-6.3c3.3-5.4,6.5-8.6,6.6-8.6
			C36.1,50,33.7,53.7,30.5,59.2z"/>
		<path class="st14" d="M31.4,61.4c-3.2,5.5-3.7,5.8-4,5.6c-0.3-0.2-0.4-0.9,2.9-6.3c3.2-5.4,6.3-8.8,6.5-8.8
			C36.9,52,34.6,55.9,31.4,61.4z"/>
		<path class="st14" d="M34.2,65.3c-3.3,6.2-3.9,6.4-4.2,6.2c-0.4-0.3-0.4-0.8,3-6.9c3.4-6.1,6.8-10.3,6.9-10.3
			C40,54.4,37.5,59,34.2,65.3z"/>
		<path class="st14" d="M32.9,63c-3.5,6.2-4,6.4-4.4,6.2c-0.4-0.2-0.4-0.9,3.1-6.9c3.6-6,7-10,7.2-10C38.9,52.4,36.3,56.8,32.9,63z"
			/>
		<path class="st14" d="M38.9,70.5c-3.6,7-4.3,6.8-4.7,6.6c-0.5-0.5-0.5-0.9,3.4-7.6c3.9-6.9,7.3-12.5,7.4-12.4
			C45,56.9,42.4,63.2,38.9,70.5z"/>
		<path class="st14" d="M40.5,73.4c-3.4,6.8-4.1,6.4-4.5,6.1c-0.4-0.5-0.4-0.8,3.3-7.3c3.7-6.6,6.5-12.5,6.6-12.5
			C46,59.8,43.8,66.4,40.5,73.4z"/>
		<path class="st14" d="M42.3,76.1c-3.5,6.4-4.5,5.7-4.8,5.4c-0.5-0.6-0.1-0.7,3.8-6.8C45.3,68.5,47,62,47,62
			C47,62,45.7,69.4,42.3,76.1z"/>
		<path class="st14" d="M36.9,67.4c-3.8,7.2-4.5,7.1-4.9,6.9c-0.5-0.4-0.5-1,3.5-7.8c4-7,7.9-12.2,8-12.2
			C43.6,54.2,40.7,60,36.9,67.4z"/>
	</g>
	<g>
		<g>
			<path class="st15" d="M59,56.9c0,0-0.2,0.7-0.5,1.6c-2,7.5-4.8,13.3-8.7,17.9c-0.5,0.6-0.8,1.1-0.7,1.1c0.1,0,0.5-0.4,0.9-1
				c3.9-4.7,6.6-10.5,8.6-18C58.8,57.6,59,56.9,59,56.9z"/>
			<path class="st15" d="M60.7,55.6C59.2,57.1,59,57.1,59,57c-0.1-0.1,0-0.3,1.6-1.9c1.6-1.6,2.7-2.7,2.7-2.6
				C63.3,52.6,62.2,54.1,60.7,55.6z"/>
			<path class="st15" d="M60.4,56.9c-1.6,1.7-1.8,1.7-1.9,1.6c-0.1-0.1,0.1-0.4,1.8-2.1c1.7-1.7,3-2.9,3-2.8
				C63.3,53.7,62.1,55.3,60.4,56.9z"/>
			<path class="st15" d="M60.6,57.8c-2,1.5-2.2,1.5-2.2,1.4c0-0.1,0.2-0.4,2.2-1.9c2-1.6,3.3-2.5,3.3-2.4
				C63.8,55,62.5,56.4,60.6,57.8z"/>
			<path class="st15" d="M60.4,59c-2,1.3-2.3,1.3-2.3,1.1c0-0.1,0.2-0.4,2.3-1.7c2.1-1.3,3.4-2.1,3.4-2C63.7,56.5,62.4,57.7,60.4,59
				z"/>
			<path class="st15" d="M60.2,60c-2.1,1-2.4,1-2.4,0.9c0-0.1,0.2-0.4,2.4-1.4c2.2-1.1,3.5-1.6,3.5-1.5C63.8,58.1,62.4,59,60.2,60z"
				/>
			<path class="st15" d="M60,62.6c-2.6,0.7-2.9,0.7-2.9,0.5c0-0.2,0.3-0.5,2.9-1.2c2.6-0.7,4.1-0.7,4.1-0.6
				C64.1,61.3,62.6,61.9,60,62.6z"/>
			<path class="st15" d="M60.1,61.2c-2.3,0.7-2.6,0.6-2.5,0.5c0-0.1,0.3-0.4,2.6-1.1c2.3-0.7,3.6-0.7,3.6-0.6
				C63.7,60.1,62.3,60.6,60.1,61.2z"/>
			<path class="st15" d="M59.7,63.9c-2.6,0.6-3,0.5-2.9,0.3c0-0.2,0.3-0.5,3-1.1c2.6-0.6,4.2-0.4,4.2-0.3
				C63.9,63,62.3,63.4,59.7,63.9z"/>
			<path class="st15" d="M58.6,68.1c-3,0-3.3-0.1-3.3-0.4c0-0.2,0.4-0.5,3.4-0.4c3,0,4.9,0.7,4.9,0.8C63.6,68.2,61.6,68.1,58.6,68.1
				z"/>
			<path class="st15" d="M59.1,66.4c-3,0.1-3.3,0-3.3-0.2c0-0.2,0.3-0.4,3.3-0.5c2.9-0.1,4.8,0.5,4.8,0.6
				C63.9,66.4,62,66.4,59.1,66.4z"/>
			<path class="st15" d="M59.7,65.2c-2.9,0.1-3.3,0-3.2-0.2c0-0.2,0.4-0.4,3.3-0.5c2.9,0,4.6,0.6,4.6,0.7
				C64.4,65.2,62.6,65.1,59.7,65.2z"/>
			<path class="st15" d="M58.2,69.4c-3.2-0.2-3.5-0.3-3.4-0.5c0-0.2,0.3-0.4,3.5-0.1c3.1,0.2,5.3,0.9,5.3,1
				C63.6,69.8,61.4,69.6,58.2,69.4z"/>
			<path class="st15" d="M57.7,70.4c-3.2-0.1-3.5-0.3-3.4-0.5c0-0.2,0.3-0.4,3.5-0.2c3.2,0.2,5.4,0.8,5.4,0.8
				C63.2,70.6,60.9,70.5,57.7,70.4z"/>
			<path class="st15" d="M56.8,72.5c-3.6,0-3.8-0.2-3.8-0.4c0-0.2,0.3-0.4,3.8-0.3c3.5,0.1,6.2,0.5,6.2,0.5
				C63,72.4,60.3,72.5,56.8,72.5z"/>
			<path class="st15" d="M57.4,71.5c-3.6-0.1-3.8-0.2-3.8-0.5c0-0.2,0.3-0.4,3.8-0.2c3.5,0.2,6.1,0.7,6.1,0.8
				C63.6,71.6,61,71.5,57.4,71.5z"/>
			<path class="st15" d="M55.1,75.4c-4,0.1-4.1-0.2-4-0.5c0.1-0.3,0.3-0.4,4.2-0.3c3.9,0.1,7.2,0.1,7.2,0.1
				C62.5,74.7,59.1,75.2,55.1,75.4z"/>
			<path class="st15" d="M53.6,77.2c-3.5-0.2-3.5-0.7-3.4-0.9c0.1-0.3,0.3-0.3,3.8,0.1c3.5,0.3,6.5-0.1,6.4-0.1
				C60.4,76.3,57.1,77.2,53.6,77.2z"/>
			<path class="st15" d="M52.2,78.8c-3-0.5-3-1.3-2.9-1.5c0.2-0.4,0.4,0,3.4,0.7c3.1,0.6,5.7-0.6,5.7-0.6
				C58.3,77.4,55.3,79.1,52.2,78.8z"/>
			<path class="st15" d="M56.3,74c-4.1,0.1-4.3-0.2-4.3-0.5c0.1-0.3,0.3-0.5,4.4-0.3c4.1,0.1,7.3,0.4,7.3,0.5
				C63.8,73.7,60.5,73.9,56.3,74z"/>
			<path class="st15" d="M59.8,54.8c-0.7,1.9-0.6,2.1-0.5,2c0.1,0,0.3-0.2,1-2.2c0.7-2,1.2-3.3,1.1-3.3
				C61.3,51.4,60.5,52.9,59.8,54.8z"/>
			<path class="st15" d="M58.8,56.2c-0.5,2.1-0.4,2.3-0.3,2.3c0.2,0,0.3-0.3,0.8-2.5c0.5-2.2,0.9-3.6,0.8-3.6
				C60,52.4,59.3,54.1,58.8,56.2z"/>
			<path class="st15" d="M60.9,53.7c-1.2,2.2-1.2,2.4-1.1,2.4c0.1,0,0.3-0.2,1.6-2.5c1.3-2.3,2.1-3.9,2-3.8
				C63.3,49.8,62.1,51.6,60.9,53.7z"/>
			<path class="st15" d="M58,57.6c-0.2,2.3-0.1,2.6,0.1,2.5c0.1,0,0.2-0.3,0.4-2.8c0.2-2.4,0.3-3.8,0.2-3.7
				C58.6,53.6,58.2,55.3,58,57.6z"/>
			<path class="st15" d="M57.5,58.4c0.1,2.3,0.2,2.5,0.4,2.5c0.1,0,0.2-0.4,0.1-2.8c-0.1-2.4-0.3-3.7-0.3-3.6
				C57.5,54.5,57.3,56.1,57.5,58.4z"/>
			<path class="st15" d="M56.3,60.2c0.6,2.6,0.8,2.9,1,2.8c0.2-0.1,0.3-0.5-0.3-3.2c-0.6-2.6-1.3-3.9-1.4-3.9
				C55.5,56,55.7,57.6,56.3,60.2z"/>
			<path class="st15" d="M56.9,59.2c0.5,2.3,0.6,2.5,0.8,2.4c0.1,0,0.2-0.4-0.3-2.7c-0.5-2.3-1-3.4-1.1-3.4
				C56.2,55.6,56.4,57,56.9,59.2z"/>
			<path class="st15" d="M55.6,61.3c0.8,2.6,1,2.9,1.1,2.7c0.2-0.1,0.3-0.5-0.5-3.2c-0.7-2.6-1.6-3.9-1.7-3.8
				C54.5,57.1,54.9,58.8,55.6,61.3z"/>
			<path class="st15" d="M53.4,65c1.4,2.7,1.7,2.9,1.9,2.7c0.2-0.1,0.2-0.5-1.2-3.2c-1.4-2.6-2.9-4-3-4S51.9,62.3,53.4,65z"/>
			<path class="st15" d="M54.2,63.4c1.3,2.7,1.5,2.9,1.7,2.8c0.2-0.1,0.2-0.5-1.1-3.2c-1.3-2.6-2.6-4-2.7-3.9
				C52,59.2,52.9,60.8,54.2,63.4z"/>
			<path class="st15" d="M54.7,62.3c1.3,2.6,1.6,2.9,1.7,2.8c0.2-0.1,0.2-0.5-1.1-3.1c-1.3-2.6-2.6-3.8-2.7-3.8
				C52.5,58.2,53.4,59.7,54.7,62.3z"/>
			<path class="st15" d="M52.5,66c1.7,2.7,2,2.9,2.1,2.7c0.2-0.1,0.2-0.5-1.5-3.1c-1.7-2.6-3.3-4.2-3.4-4.2
				C49.6,61.5,50.9,63.3,52.5,66z"/>
			<path class="st15" d="M52.1,67.1c1.6,2.7,1.9,2.8,2.1,2.7c0.2-0.1,0.2-0.4-1.5-3.1c-1.7-2.7-3.3-4.3-3.3-4.3
				C49.3,62.5,50.5,64.4,52.1,67.1z"/>
			<path class="st15" d="M50.7,69.1c1.7,3.1,2,3.1,2.2,3c0.2-0.1,0.2-0.4-1.6-3.4c-1.8-3-3.5-5.1-3.6-5C47.7,63.7,49,66,50.7,69.1z"
				/>
			<path class="st15" d="M51.4,67.9c1.8,3,2.1,3.2,2.3,3c0.2-0.1,0.2-0.4-1.6-3.4c-1.8-3-3.6-4.9-3.7-4.9
				C48.3,62.7,49.6,64.9,51.4,67.9z"/>
			<path class="st15" d="M48.5,71.7c1.9,3.5,2.2,3.4,2.4,3.2c0.2-0.2,0.2-0.5-1.8-3.8c-2-3.4-3.8-6.2-3.8-6.1
				C45.3,65,46.6,68.1,48.5,71.7z"/>
			<path class="st15" d="M47.7,73.2c1.8,3.3,2.1,3.2,2.3,3c0.2-0.3,0.2-0.4-1.7-3.6c-1.9-3.3-3.4-6.2-3.4-6.2
				C44.8,66.5,46,69.7,47.7,73.2z"/>
			<path class="st15" d="M46.8,74.6c1.8,3.1,2.3,2.8,2.5,2.7c0.2-0.3,0-0.4-2-3.3c-2-3.1-3-6.3-3-6.3C44.3,67.6,45.1,71.3,46.8,74.6
				z"/>
			<path class="st15" d="M49.4,70.2c2,3.5,2.3,3.5,2.5,3.4c0.2-0.2,0.3-0.5-1.8-3.9c-2.1-3.4-4.1-6-4.1-6
				C45.9,63.7,47.4,66.5,49.4,70.2z"/>
		</g>
	</g>
	<g>
		<path class="st16" d="M43.7,40.3h-6.8c0,0-14.4-0.3-11.6,16.2c2.8,16.5,2.9,17.6,2.7,22.1c0,0,0.1,1.6,3.4,1.6
			c3.4,0,3.1-1.4,3.1-1.4s-3-21.3,2.3-21.3h6.8c5.2,0,2.3,21.3,2.3,21.3s-0.2,1.4,3.1,1.4c3.4,0,3.4-1.6,3.4-1.6
			c-0.2-4.5-0.1-5.6,2.7-22.1C58.1,40,43.7,40.3,43.7,40.3z"/>
		<g>
			<path class="st17" d="M28.7,41.5c0,0-4,8.8,1,22.7s1.8,18.3,1.8,18.3s-0.6,2.4,4,2.5c4.5,0.1,3.6-2.4,3.6-2.4s-2.7-19.9,3.5-31.8
				C42.7,50.9,40.4,37.3,28.7,41.5z"/>
			<path class="st17" d="M51.9,41.5c0,0,4,8.8-1,22.7c-5,14-1.8,18.3-1.8,18.3s0.6,2.4-4,2.5c-4.5,0.1-3.5-2.4-3.5-2.4
				s2.7-19.9-3.5-31.8C38,50.9,40.2,37.3,51.9,41.5z"/>
		</g>
		<g>
			<g>
				<g>
					<path class="st17" d="M31.6,27.4c-5.9-3.7-14.2-2.1-17.4,4.4c-2.1,4.2-2.3,9.5,0.3,13.5c2.9,4.4,7.7,6.1,12.8,5
						c5.1-1.1,8.2-4.9,9.1-10L31.6,27.4z"/>
					<path class="st18" d="M31.2,31c0,0-5.4-6.6-13.5-2.1c0,0,9.1-1.6,13.5,4.9V31z"/>
				</g>
				<g>
					<path class="st17" d="M49,27.4c5.9-3.7,14.2-2.1,17.4,4.4c2.1,4.2,2.3,9.5-0.3,13.5c-2.9,4.4-7.7,6.1-12.8,5
						c-5.1-1.1-8.2-4.9-9.1-10L49,27.4z"/>
					<path class="st18" d="M49.4,31c0,0,5.4-6.6,13.5-2.1c0,0-9.1-1.6-13.5,4.9V31z"/>
				</g>
			</g>
			<path class="st19" d="M51.4,31c0-6.6-11.1-6.3-11.1-6.3S29.2,24.5,29.2,31c0,4.8-0.2,11.1,4.2,14.1c1.3,1.2,3.6,4.2,2.8,9.2
				c-1.1,6.9-1.6,15.3,5.3,17.9c0,0,4,1,4.8-1.4c0,0,0.4-2.5-1.8-2.2c0,0-2.4,2.1-2.2-0.8c0.2-2.9,4.9-7.2,5.1-14.1
				c0.1-4.3-0.1-7-0.4-8.5C51.6,42.4,51.4,35.9,51.4,31z"/>
			<g>
				<path class="st10" d="M33.2,41c0,0-8.2,11.2-2.1,18c0,0,0.6,0.4,0.3-0.3c-0.3-0.8-3.9-5.5,3.6-16.3c0,0,0.5-0.8-0.4-1.4
					C33.7,40.4,33.2,41,33.2,41z"/>
				<path class="st10" d="M47.5,41c0,0,8.2,11.2,2.1,18c0,0-0.6,0.4-0.3-0.3c0.3-0.8,3.9-5.5-3.6-16.3c0,0-0.5-0.8,0.4-1.4
					C46.9,40.4,47.5,41,47.5,41z"/>
			</g>
			<g>
				<g>
					<defs>
						<path id="SVGID_4_" d="M51.4,31c0-6.6-11.1-6.3-11.1-6.3S29.2,24.5,29.2,31c0,4.8-0.2,11.1,4.2,14.1c1.3,1.2,3.6,4.2,2.8,9.2
							c-1.1,6.9-1.6,15.3,5.3,17.9c0,0,4,1,4.8-1.4c0,0,0.4-2.5-1.8-2.2c0,0-2.4,2.1-2.2-0.8c0.2-2.9,4.9-7.2,5.1-14.1
							c0.1-4.3-0.1-7-0.4-8.5C51.6,42.4,51.4,35.9,51.4,31z"/>
					</defs>
					<clipPath id="SVGID_3_">
						<use xlink:href="#SVGID_4_"  style="overflow:visible;"/>
					</clipPath>
					<path style="clip-path:url(#SVGID_3_);fill:#BEBBBB;" d="M35.1,49.6c0,0,3.4-2,8.7-0.9c0,0-5.5-0.7-8.7,1.8V49.6z"/>
				</g>
				<g>
					<defs>
						<path id="SVGID_6_" d="M51.4,31c0-6.6-11.1-6.3-11.1-6.3S29.2,24.5,29.2,31c0,4.8-0.2,11.1,4.2,14.1c1.3,1.2,3.6,4.2,2.8,9.2
							c-1.1,6.9-1.6,15.3,5.3,17.9c0,0,4,1,4.8-1.4c0,0,0.4-2.5-1.8-2.2c0,0-2.4,2.1-2.2-0.8c0.2-2.9,4.9-7.2,5.1-14.1
							c0.1-4.3-0.1-7-0.4-8.5C51.6,42.4,51.4,35.9,51.4,31z"/>
					</defs>
					<clipPath id="SVGID_5_">
						<use xlink:href="#SVGID_6_"  style="overflow:visible;"/>
					</clipPath>
					<path class="st20" d="M35.6,52.4c0,0,3.4-2,8.7-0.9c0,0-5.5-0.7-8.7,1.8V52.4z"/>
				</g>
				<g>
					<defs>
						<path id="SVGID_8_" d="M51.4,31c0-6.6-11.1-6.3-11.1-6.3S29.2,24.5,29.2,31c0,4.8-0.2,11.1,4.2,14.1c1.3,1.2,3.6,4.2,2.8,9.2
							c-1.1,6.9-1.6,15.3,5.3,17.9c0,0,4,1,4.8-1.4c0,0,0.4-2.5-1.8-2.2c0,0-2.4,2.1-2.2-0.8c0.2-2.9,4.9-7.2,5.1-14.1
							c0.1-4.3-0.1-7-0.4-8.5C51.6,42.4,51.4,35.9,51.4,31z"/>
					</defs>
					<clipPath id="SVGID_7_">
						<use xlink:href="#SVGID_8_"  style="overflow:visible;"/>
					</clipPath>
					<path class="st21" d="M34.4,55.8c0,0,3.4-2,8.7-0.9c0,0-5.5-0.7-8.7,1.8V55.8z"/>
				</g>
				<g>
					<defs>
						<path id="SVGID_10_" d="M51.4,31c0-6.6-11.1-6.3-11.1-6.3S29.2,24.5,29.2,31c0,4.8-0.2,11.1,4.2,14.1c1.3,1.2,3.6,4.2,2.8,9.2
							c-1.1,6.9-1.6,15.3,5.3,17.9c0,0,4,1,4.8-1.4c0,0,0.4-2.5-1.8-2.2c0,0-2.4,2.1-2.2-0.8c0.2-2.9,4.9-7.2,5.1-14.1
							c0.1-4.3-0.1-7-0.4-8.5C51.6,42.4,51.4,35.9,51.4,31z"/>
					</defs>
					<clipPath id="SVGID_9_">
						<use xlink:href="#SVGID_10_"  style="overflow:visible;"/>
					</clipPath>
					<path class="st22" d="M33.4,59.1c0,0,3.4-2,8.7-0.9c0,0-5.5-0.7-8.7,1.8V59.1z"/>
				</g>
				<g>
					<defs>
						<path id="SVGID_12_" d="M51.4,31c0-6.6-11.1-6.3-11.1-6.3S29.2,24.5,29.2,31c0,4.8-0.2,11.1,4.2,14.1c1.3,1.2,3.6,4.2,2.8,9.2
							c-1.1,6.9-1.6,15.3,5.3,17.9c0,0,4,1,4.8-1.4c0,0,0.4-2.5-1.8-2.2c0,0-2.4,2.1-2.2-0.8c0.2-2.9,4.9-7.2,5.1-14.1
							c0.1-4.3-0.1-7-0.4-8.5C51.6,42.4,51.4,35.9,51.4,31z"/>
					</defs>
					<clipPath id="SVGID_11_">
						<use xlink:href="#SVGID_12_"  style="overflow:visible;"/>
					</clipPath>
					<path class="st23" d="M32.2,62.9c0,0,3.4-2,8.7-0.9c0,0-5.5-0.7-8.7,1.8C32.2,63.7,32.2,62.9,32.2,62.9z"/>
				</g>
				<g>
					<defs>
						<path id="SVGID_14_" d="M51.4,31c0-6.6-11.1-6.3-11.1-6.3S29.2,24.5,29.2,31c0,4.8-0.2,11.1,4.2,14.1c1.3,1.2,3.6,4.2,2.8,9.2
							c-1.1,6.9-1.6,15.3,5.3,17.9c0,0,4,1,4.8-1.4c0,0,0.4-2.5-1.8-2.2c0,0-2.4,2.1-2.2-0.8c0.2-2.9,4.9-7.2,5.1-14.1
							c0.1-4.3-0.1-7-0.4-8.5C51.6,42.4,51.4,35.9,51.4,31z"/>
					</defs>
					<clipPath id="SVGID_13_">
						<use xlink:href="#SVGID_14_"  style="overflow:visible;"/>
					</clipPath>
					<path class="st24" d="M32.2,67.1c0,0,3-2.5,8.4-2.4c0,0-5.5,0.3-8.2,3.2L32.2,67.1z"/>
				</g>
			</g>
		</g>
		<g>
			<path class="st26" d="M35.6,38.1c0-0.3-0.2-0.5-0.5-0.5c-0.3,0-0.5,0.2-0.5,0.5c0,0.3,0.2,0.5,0.5,0.5
				C35.4,38.6,35.6,38.4,35.6,38.1z"/>
			<circle class="st26" cx="45.5" cy="38.1" r="0.5"/>
		</g>
	</g>
</g>
<g>
	<g>
		<g>
			<defs>
				<path id="SVGID_16_" d="M73.1-35.7c-0.7,0-0.2,2.1-0.2,2.6c-0.2,5.2-5,7.6-7.7,11.8C60-12.5,50.4-6.8,39.6-6.8
					C23-6.8,9.5-20.3,9.5-36.9S25.7-87,42.3-87c16.3,0,44.5-1.3,36.4,50.2C78.7-36.5,73.5-35.7,73.1-35.7z"/>
			</defs>
			<clipPath id="SVGID_15_">
				<use xlink:href="#SVGID_16_"  style="overflow:visible;"/>
			</clipPath>
			<g style="clip-path:url(#SVGID_15_);">
				<polygon class="st29" points="56.4,4.5 56.4,2.1 51.8,2.1 51.8,6.8 58.7,6.8 58.7,4.5 				"/>
				<rect x="58.7" y="2.1" class="st30" width="2.4" height="4.7"/>
				<rect x="56.4" y="2.1" class="st31" width="2.4" height="2.4"/>
				<rect x="49.4" y="2.1" class="st30" width="2.4" height="4.7"/>
				<rect x="26" y="2.1" class="st30" width="2.4" height="4.7"/>
				<polygon class="st29" points="26,2.1 21.4,2.1 21.4,4.5 19,4.5 19,6.8 26,6.8 				"/>
				<rect x="19" y="2.1" class="st31" width="2.4" height="2.4"/>
				<rect x="16.7" y="2.1" class="st30" width="2.4" height="4.7"/>
				<rect x="56.4" y="-0.2" class="st30" width="2.4" height="2.4"/>
				<rect x="54" y="-0.2" class="st32" width="2.4" height="2.4"/>
				<rect x="49.4" y="-0.2" class="st32" width="2.4" height="2.4"/>
				<rect x="47.1" y="-0.2" class="st30" width="2.4" height="2.4"/>
				<rect x="28.3" y="-0.2" class="st30" width="2.4" height="2.4"/>
				<rect x="26" y="-0.2" class="st32" width="2.4" height="2.4"/>
				<rect x="21.4" y="-0.2" class="st32" width="2.4" height="2.4"/>
				<rect x="19" y="-0.2" class="st30" width="2.4" height="2.4"/>
				<polygon class="st33" points="54,-2.6 51.8,-2.6 51.8,-4.8 49.4,-4.8 49.4,-7.2 47.1,-7.2 47.1,-9.5 44.7,-9.5 44.7,-4.8 
					47.1,-4.8 47.1,-2.6 49.4,-2.6 49.4,-0.2 51.8,-0.2 51.8,2.1 54,2.1 				"/>
				<polygon class="st33" points="28.3,-0.2 28.3,-2.6 30.7,-2.6 30.7,-4.8 26,-4.8 26,-2.6 23.6,-2.6 23.6,2.1 26,2.1 26,-0.2 				
					"/>
			</g>
		</g>
	</g>
</g>
</svg>
