<?xml version="1.0" encoding="utf-8"?>
<!-- Generator: Adobe Illustrator 22.0.0, SVG Export Plug-In . SVG Version: 6.00 Build 0)  -->
<svg version="1.0" id="Layer_1" xmlns="http://www.w3.org/2000/svg" xmlns:xlink="http://www.w3.org/1999/xlink" x="0px" y="0px"
	 viewBox="0 0 87.3 87.3" enable-background="new 0 0 87.3 87.3" xml:space="preserve">
<circle fill="#FFFFFF" cx="39.3" cy="56.3" r="28.1"/>
<g>
	<defs>
		<path id="SVGID_109_" d="M67.3-40.2c0,15.6-12.4,27.7-28,27.7s-27.9-12.4-27.9-28s-25.3-50.3,27.6-47.8
			C90.9-88.3,67.3-55.8,67.3-40.2z"/>
	</defs>
	<clipPath id="SVGID_2_">
		<use xlink:href="#SVGID_109_"  overflow="visible"/>
	</clipPath>
	<g clip-path="url(#SVGID_2_)">
		<path fill="#363D67" d="M63-59.5c-0.3-2-1.1-5.6-2.9-7.6c0,0-4.6-4.5-9.1-5.8c-0.4-0.4-0.9-0.6-1.4-0.8c-0.4-0.1-0.6-0.3-0.5-0.8
			c0.1-0.4,0.1-0.9,0.1-1.4c0-0.7,0.1-1.5,0.5-2.1c0.2-0.3,0.3-0.5,0.4-0.8c0-0.2,0.1-0.4,0.1-0.6c0-0.8-0.4-1.5-1.1-1.7
			c-0.8-0.3-1.4,0-1.8,0.6c-0.4,0.6-0.2,1.4,0.4,2c0.2,0.2,0.3,0.4,0.1,0.7c-0.5,1-0.9,2-1.2,3.1c-0.1,0.5-0.3,0.6-0.7,0.5
			c-1.3-0.4-2.7-0.4-4.1-0.4c-3,0-5.8,0.8-8.4,2.3c-4.8,2.8-7.9,6.8-8.4,12.5c-0.3,3.1,0.1,6.1,1.3,9c0.4,0.8,0.8,1.6,1.3,2.3
			c0.1,0.2,0.2,0.4,0,0.5c-1,0.6-1.1,1.4-0.6,2.2c0.5,0.8,0.1,1.1-0.5,1.5c-2.5,2-3.8,4.7-4.1,7.8c-0.3,3.1,0.3,6.1,1.4,8.9
			c0.2,0.6,0.6,1.1,0.3,1.8c-1,2.1-1.8,4.4-2.6,6.6c-0.9,2.4-2,4.7-3.3,6.9c-1.6,2.8-3.7,5.4-5.7,8c-0.6,0.8-1.1,1.6-1.7,2.4
			c-0.2-0.4-0.3-0.7-0.7-0.9c-1-0.5-2.5,0.1-2.8,1.2c-0.3,0.9-0.4,1.9,0,2.8c0.2,0.4,0.1,0.6-0.2,0.9C6,3.2,5.1,4.6,4.7,6.3
			C4.5,7.1,4.8,7.8,5.4,8.5C5.9,9,7,9,7.9,8.6c1-0.6,2-1.3,2.9-2.1c0.3-0.3,0.5-0.5,1-0.3c1.9,0.5,3.3-1.4,3-2.8
			c-0.1-0.4,0.1-0.6,0.4-0.9c1.9-1.8,4.1-3.2,6.5-4.3c2.8-1.2,5.6-2.1,8.7-1.5c0.3,0.3,0.7,0.4,1,0.5c0.3,0.1,0.6,0.2,0.9,0.3
			c0.2,0.1,0.3,0.3,0.3,0.5c-0.1,0.9,0.2,1.7,0.4,2.5c0.7,2.7,0.7,5.4,0.5,8.1c-0.2,2.1-0.5,4-0.9,6.1c-0.1,0.6-0.2,1.3-0.4,1.9
			c-0.1,0.8-0.4,1.5-0.5,2.2c-0.2,0.6-0.4,1.3-0.6,2c-0.4,0.9-0.7,1.8-1,2.7c-0.5,1.1-0.9,2.1-1.4,3.2c-0.2,0.2-0.3,0.5-0.5,0.9
			c-0.9,1.4-2,2.8-3.5,3.7c-1.5,1-4.2,0.8-5.6-0.3c-0.7-0.6-1.2-1.4-1.1-2.3c0-0.8,0.2-1.7,0.5-2.6c0.7-1.7,1.7-3.2,2.6-4.8
			c0.4-0.7,0.9-1.3,1.4-2c0.4-0.6,0.9-1.1,1.2-1.7c0.5-0.7,1.1-1.3,1.4-2.1c0.3-0.5,0.6-0.9,0.9-1.4c0.1-0.2,0.3-0.5,0.5-0.7
			c1.8-3.1,3.3-6.4,4-9.9c0.4-1.8,0.4-3.6,0.2-5.5c0-0.3-0.1-0.6-0.5-0.7c-0.4,0.1-0.4,0.3-0.4,0.6c0.1,2-0.2,4-0.8,5.9
			c-1,3.5-2.6,6.6-4.4,9.7c-1.6,2.5-3.4,4.9-5,7.4c-1.2,1.9-2.5,3.8-2.9,6.2c-0.3,1.2-0.3,2.5,0.4,3.6c1.4,2.5,5.5,3.2,8.1,1.8
			c1.6-0.9,2.8-2.3,3.8-3.8c2.3-3.4,3.6-7.3,4.5-11.2c0.8-3.5,1.3-7.1,1.5-10.7c0.1-2.8,0-5.5-1.3-8.1c-0.1-0.1-0.1-0.3,0-0.4
			c0.1-0.1,0.2,0,0.4,0.1C35.7-0.6,37.1,1,38,3c1.2,2.6,1.5,5.4,1.8,8.2c0,0.2,0,0.4-0.3,0.4c-1,0.1-1.5,0.8-1.9,1.6
			c-0.5,1-0.1,2.1,0.9,2.7c0.5,0.3,1.1,0.5,1.7,0.6c0.5,0.1,0.6,0.2,0.6,0.7c0,1.6,0.6,3.2,1.7,4.4c0.9,1.1,2.7,0.9,3.2-0.3
			c0.2-0.5,0.4-1.1,0.3-1.7c-0.1-1-0.1-2-0.3-2.9c-0.1-0.7,0-1.1,0.7-1.3c0.5,0,0.7-0.2,0.8-0.7c0.1-0.2,0.2-0.4,0.4-0.7
			c0.1-0.2,0.1-0.5-0.1-0.6c-0.4-0.3-0.5-0.6-0.1-0.9c0.2-0.1,0-0.3-0.1-0.4c-0.3-0.3-0.6-0.6-1-0.6c-0.3,0-0.5-0.2-0.5-0.6
			c-0.2-3.3,0-6.5,0.3-9.8c0.3-3.3,0.9-6.5,1.4-9.7c0.6-2.9,1.2-5.8,1.6-8.7c0-0.3,0.2-0.5,0.4-0.7c1.5-1.2,3-2.5,4.1-4.1
			c1.3-1.9,2.3-3.9,2.9-6.2c0.6-2.3,0.4-4.5,0-6.8c-0.2-1.1-0.6-2.2-1.4-3c-0.2-0.2-0.3-0.3-0.1-0.6c0.6-1.1,0.4-2.1-0.3-3
			c-0.3-0.4-0.2-0.5,0.1-0.8c2.5-1.6,4.4-3.7,5.8-6.2C62.5-52.1,63.5-55.7,63-59.5z M61.4-54.3c-0.9,3.4-2.7,6.4-5.3,8.8
			c-0.4,0.3-0.7,0.8-1.3,0.9c0.1-0.5,0.2-1,0.2-1.6c0-0.7,0.1-1.2,0.9-1.4c0.2-0.1,0.5-0.2,0.5-0.5c-0.1-0.3-0.4-0.2-0.6-0.2
			c-0.2,0-0.6,0.2-0.5-0.3c0.3-1.8,0.1-3.7,0.1-5.5c0-1.2,0-2.5-0.5-3.6c-0.3-0.6-0.7-0.7-1.2-0.2c-0.9,0.9-1.8,1.9-2.4,3
			c-0.2,0.4-0.4,0.4-0.7,0.2c-1.1-0.4-2.2-0.7-3.3-1.1c-2.3-0.7-4.7-1.2-7.2-1.4c-0.6-0.1-1.1-0.1-1.6-0.4c-0.9-0.5-1.1-1.4-1.4-2.2
			c-0.3-0.9-0.4-2-0.9-2.9c-0.3-0.5-0.5-0.6-0.9-0.2c-0.6,0.5-1,1-1.4,1.7c-1.5,2.5-2.1,5.3-2.9,8c0.6,0.6,0.6,1.1,0.2,1.2
			c-0.2,0.1-0.3,0.1-0.5,0.2c-0.2,0.1-0.3,0.3-0.1,0.5c0,1-0.5,1.9-0.5,3c0,0.1-0.2,0.2-0.3,0c-0.3-0.4-0.7-0.8-0.9-1.3
			c-1.5-2.5-2.3-5.2-2.5-8c-0.2-2.7,0.2-5.1,1.5-7.5c2.3-4.2,5.8-7,10.5-8.2c3.6-0.9,7.1-0.6,10.6,0.4c4,0.8,8.6,4.1,11.4,7.8
			C61.7-63.2,62.1-57,61.4-54.3z"/>
		<path fill="#DCA54C" d="M25.3,13.8c0.8-1.4,1.6-2.8,2.3-4.3c1.3-2.7,2.3-5.6,2.5-8.6c0.1-1.3,0.2-2.7-0.2-4c0-0.1,0-0.1,0-0.2
			c0.9,0.1,1.6,0.3,2.5,0.7c0.2,0.1,0.4,0.2,0.1,0.4c-0.3,0.3-0.2,0.5-0.1,0.8c0.9,3.4,1.3,6.9,0.9,10.5c-0.3,2.5-0.7,4.9-1.2,7.3
			c-0.2,0-0.3-0.1-0.5-0.2c-1.6-1.3-3.5-2-5.5-2.2C25.8,14,25.5,14,25.3,13.8z"/>
		<path fill="#FEFEFE" d="M27.8-18.7c0.6-0.2,1-0.1,1.4,0.6c0.4,0.8,1.2,1.4,1.9,1.8c0.8,0.4,2.1,0,2.2-1.1c0.1-0.9-0.2-1.8-0.5-2.6
			c-0.2-0.5-0.1-0.8,0.2-1.2c0.6-0.6,0.8-1.3,0.5-2.1c-0.3-1-1.5-1.6-2.6-1.1c-0.4,0.2-0.4,0.1-0.6-0.2c-0.5-0.8-0.8-1.7-0.9-2.6
			c-0.4-2.1-0.7-4.3-0.4-6.4c0.1-0.8,0.2-1.6,0.3-2.4c0-0.1,0.2-0.3-0.1-0.4c-0.2,0-0.2,0.2-0.3,0.3c-0.4,1.1-0.6,2.2-0.8,3.3
			c-0.4,3.5,0.1,6.8,2,9.7c0,0.1,0,0.1,0.1,0.1c0.3,0.4,0.9,0.7,0.1,1.2c-0.9,0.5-1.6,0.6-2.1,0c-1.8-2.5-3.4-5.2-4.4-8.2
			c-1-3-1.2-6.1-0.2-9.3c0.6-1.7,1.6-3.1,2.9-4.3c0.3-0.3,0.6-0.9,1-0.8c0.4,0,0.6,0.6,0.9,0.9c1.9,1.7,4.2,2.9,6.5,3.9
			c2.2,0.9,4.4,1.6,6.7,2c2.9,0.6,5.8,0.8,8.8,0.7c1.1-0.1,2.2-0.2,3.1-0.9c0.2-0.1,0.4-0.2,0.5,0.1c0.4,0.8,0.8,1.5,0.9,2.4
			c0.4,1,0.4,2.2,0.3,3.3c0,4-1.4,7.4-4,10.4c-1.8,1.9-3.9,3.4-6.2,4.7c-0.6,0.3-0.9,0-1.2-0.3c-0.4-0.4-0.7-0.8-0.7-1.4
			c0-0.1,0.1-0.1,0.2-0.2c3.2-2.4,5-5.6,5.9-9.4c0.2-0.8,0.3-1.6,0.5-2.4c0-0.2,0.1-0.5-0.2-0.5c-0.2,0-0.3,0.2-0.3,0.4
			c-0.7,1.3-1.1,2.8-1.6,4.2c-0.8,2.5-2.2,4.5-4,6.3c-0.2,0.2-0.3,0.1-0.4-0.1c-0.6-0.8-1.4-1.1-2.2-0.7c-0.7,0.2-1.2,1.1-1.2,1.9
			c0,0.9-0.3,1.7-0.8,2.4c-0.5,0.6-0.8,1.1-0.9,1.9c-0.1,1.1,0.6,1.8,1.7,1.6c0.7-0.1,1.2-0.5,1.8-0.8c0.4,0.4,0,0.8,0,1.2
			c-0.5,3.1,0.5,5.8,2.3,8.3c0.1,0.1,0.2,0.2,0.3,0.3c1.3,0.5,0.8,1.6,0.7,2.5c-0.6,4.6-1,9.1-0.6,13.7c0.1,0.5-0.1,0.7-0.6,0.9
			c-0.8,0.2-1.4,0.7-2.3,0.7c-0.9,0-1-0.1-0.9-0.9c0.2-1.2,0-2.3-0.2-3.4c-0.4-2.1-0.6-4.1-1.4-6.1c-1.2-3-3.2-5.3-6.2-6.7
			C30-5,27-4.9,24-4c-3.3,1-6.2,2.6-8.8,4.7c-0.4,0.3-0.8,0.6-1.1,1c-1,1.1-2,1-2.9-0.2c-0.2-0.3-0.4-0.6-0.5-1
			c-0.2-0.4-0.1-0.7,0.2-1.1c2.6-3.7,5.4-7.3,7.8-11.1c0.1-0.2,0.1-0.4,0.4-0.3c1.4,0.2,2.6-0.3,3.8-0.9c1.7-0.8,3.2-1.9,4.1-3.6
			c0.3-0.5,0.6-1.1,0.6-1.8C27.5-18.4,27.6-18.6,27.8-18.7z"/>
		<path fill="#FEFEFE" d="M28.5,26.4c-1,2.1-2.4,3.9-4.6,5.1c-1.7,0.9-4.6,0.5-6-1.1c-0.9-1.1-0.8-2.4-0.4-3.7c0.6-2.2,1.8-4,3-5.9
			c1.2-0.2,2.3,0.2,3.3,0.7c1.4,0.6,2.5,1.6,3.4,2.7c0.4,0.5,0.7,0.9,1.1,1.4C28.4,25.8,28.6,26,28.5,26.4z"/>
		<path fill="#DCA54C" d="M28.5,26.4c-1.2-1.9-2.6-3.6-4.6-4.7c-0.8-0.4-1.8-0.6-2.6-0.8c-0.2-0.1-0.5-0.1-0.7-0.2
			c0.4-0.6,0.8-1.2,1.3-1.8c0.7-0.1,1.4,0.1,2.1,0.3c2.2,0.6,4.3,1.6,5.7,3.6c0.1,0.2,0.2,0.4,0.3,0.5
			C29.6,24.4,29.1,25.4,28.5,26.4z"/>
		<path fill="#FDFDFC" d="M29.9,23.3c-0.5,0-0.6-0.4-0.8-0.7c-1.1-1.5-2.7-2.3-4.4-2.9c-0.8-0.3-1.6-0.4-2.5-0.6
			c-0.2,0-0.3-0.1-0.4-0.2c0.4-0.7,0.8-1.2,1.3-1.8c0.7-0.5,1.3-0.2,2,0c2,0.4,3.7,1.3,5.2,2.6c0.3,0.3,0.5,0.5,0.6,0.9
			C30.6,21.6,30.4,22.4,29.9,23.3z"/>
		<path fill="#DCA54C" d="M30.9,20.6c-1.3-1.3-2.7-2.3-4.5-2.9c-1.1-0.3-2.2-0.6-3.3-0.6c0.4-0.7,0.9-1.3,1.4-2
			c0.6-0.2,1.2,0,1.8,0.2c1,0.2,1.9,0.5,2.8,1c1,0.6,1.8,1.3,2.4,2.4C31.3,19.3,31.1,20,30.9,20.6z"/>
		<path fill="#FDFDFB" d="M31.5,18.7c-0.3,0.1-0.4-0.2-0.6-0.4c-0.9-1.4-2.4-2-3.8-2.5c-0.9-0.3-1.8-0.3-2.6-0.6
			c0.3-0.4,0.6-0.9,0.9-1.3c2.2,0,4.2,0.7,6.1,2c0.2,0.2,0.5,0.4,0.6,0.7C31.8,17.2,31.7,17.9,31.5,18.7z"/>
		<path fill="#DCA54C" d="M7.6,2.6c0.7,1.1,1.2,2,2.2,2.7c0.1,0.1,0.1,0.2,0,0.3C8.7,6.3,8,7.2,6.9,7.7c-1,0.4-1.6-0.1-1.5-1.2
			c0.2-1.2,0.8-2.1,1.5-3.1C7.1,3.3,7.3,2.9,7.6,2.6z"/>
		<path fill="#F4183F" d="M9.4,0.3c0.3,1.1,0.7,2.1,1.7,2.8c0.5,0.3,1,0.6,1.6,0.5c0.5-0.1,0.6,0.1,0.5,0.6C13,5.4,11.8,5.4,11.1,5
			C10,4.4,9.3,3.4,8.7,2.4c-0.6-1-1-2.1-0.8-3.3C8-1.4,8.2-1.9,8.7-2c0.6-0.2,1.1,0,1.5,0.4S10-0.9,9.9-0.5c0,0.1-0.3,0.3-0.4,0.4
			C9.3-0.3,9.3-0.6,9.3-1c0-0.1,0-0.3-0.2-0.3c-0.2,0-0.3,0.1-0.3,0.2c-0.3,0.3-0.2,1.2,0,1.5C9,0.8,9.2,0.1,9.4,0.3z"/>
		<path fill="#DCA54C" d="M42.8,16.7c0.5,0,1.1-0.3,1.3-0.1c0.2,0.2,0.2,0.8,0.3,1.3c0.1,0.7,0.2,1.5,0.1,2.2c0,0.4-0.1,0.9-0.6,1
			c-0.5,0.2-0.8-0.1-1-0.6c-0.7-1.1-0.9-2.3-1.3-3.4c-0.1-0.3,0-0.3,0.3-0.3C42.1,16.7,42.4,16.7,42.8,16.7
			C42.8,16.6,42.8,16.6,42.8,16.7z"/>
		<path fill="#F4173F" d="M40.5,14.5c1.6,0.5,3,0,4.4-0.7c0.5-0.2,0.7-0.8,0.8-1.3c0.7,0.4,0.8,0.5,0.3,1.1c-1.4,1.9-4,2.3-5.7,1.7
			C40.3,15,40.3,14.7,40.5,14.5z"/>
		<path fill="#FAF5F6" d="M9.4,0.3C9.2,0.5,9.3,0.9,8.9,0.9C8.5,0.8,8.4,0.5,8.3,0.3C8.1-0.4,8.2-1.3,8.7-1.6
			c0.2-0.1,0.4-0.2,0.6-0.1c0.2,0.1,0.2,0.3,0.2,0.5c0,0.3-0.2,0.6-0.1,1C9.5,0,9.5,0.2,9.4,0.3z"/>
		<path fill="#F8ECEF" d="M40.5,14.5c0.2,0.3,0.1,0.6-0.2,0.8c-0.6,0-1.1-0.3-1.5-0.6c-0.1-0.2-0.3-0.3-0.3-0.5
			c-0.1-0.3,0.1-0.6,0.3-0.8c0.3-0.2,0.5-0.1,0.7,0.2c0.2,0.2,0.3,0.4,0.4,0.6C40.2,14.2,40.2,14.4,40.5,14.5z"/>
		<path fill="#E91B43" d="M39.9,14.1c-0.2,0-0.3-0.3-0.5-0.3c-0.2-0.1-0.3-0.4-0.6-0.2c-0.3,0.2-0.4,0.4-0.2,0.8
			c0.1,0.1,0.1,0.2,0.1,0.4c-0.4-0.3-0.5-0.6-0.3-1.1c0.2-0.5,0.5-1,1-1.2c0.3-0.1,0.2,0.1,0.3,0.3C39.8,13.1,39.9,13.6,39.9,14.1z"
			/>
	</g>
</g>
<g>
	<g>
		<g>
			<g>
				<defs>
					<circle id="SVGID_111_" cx="39.5" cy="56.3" r="30"/>
				</defs>
				<clipPath id="SVGID_3_">
					<use xlink:href="#SVGID_111_"  overflow="visible"/>
				</clipPath>
				<circle clip-path="url(#SVGID_3_)" fill="#FAEAD1" cx="39.5" cy="56.3" r="30"/>
			</g>
		</g>
		<g>
			<g>
				<defs>
					<path id="SVGID_113_" d="M39.5,26.3c16.6,0,42,13.4,42,30s-25.4,30-42,30s-30-13.4-30-30S23,26.3,39.5,26.3z"/>
				</defs>
				<clipPath id="SVGID_5_">
					<use xlink:href="#SVGID_113_"  overflow="visible"/>
				</clipPath>
				<g clip-path="url(#SVGID_5_)">
					<g>
						<g>
							<path fill="#FF8809" d="M20.4,74.8c0.1-1.2,0.2-2.3,0.2-3.5c0-0.5,0-1.1,0-1.6c0-0.3,0-0.7,0.1-1c0,0,0,0,0,0
								c0.8,0.2,0.8,1.5,0.9,2.1c0.1,1.2,0,2.5-0.1,3.7c-0.1,1.3,0,2.5,0,3.8c0,1.5-0.1,3.1-0.1,4.6c0.4,0,0.9,0,1.3,0
								c0.6,0,1.1,0,1.5,0.4c0.3,0.2,0.3,0.7,0,0.9c-0.5,0.4-0.9,0.4-1.5,0.4c-0.6,0-1.1,0-1.7-0.1c-0.3-0.1-0.5-0.3-0.5-0.5
								c-0.1-0.1-0.2-0.2-0.2-0.4c0-1.7,0.1-3.3,0.1-5C20.4,77.3,20.3,76,20.4,74.8z"/>
							<path fill="#FF8809" d="M29.6,74.8c0.1-1.2,0.2-2.3,0.2-3.5c0-0.5,0-1.1,0-1.6c0-0.3,0-0.7,0.1-1c0,0,0,0,0,0
								c0.8,0.2,0.8,1.5,0.9,2.1c0.1,1.2,0,2.5-0.1,3.7c-0.1,1.3,0,2.5,0,3.8c0,1.5-0.1,3.1-0.1,4.6c0.4,0,0.9,0,1.3,0
								c0.6,0,1.1,0,1.5,0.4c0.3,0.2,0.3,0.7,0,0.9c-0.5,0.4-0.9,0.4-1.5,0.4c-0.6,0-1.1,0-1.7-0.1c-0.3,0-0.5-0.3-0.5-0.5
								c-0.1-0.1-0.2-0.2-0.2-0.4c0-1.7,0.1-3.3,0.1-5C29.6,77.4,29.6,76.1,29.6,74.8z"/>
						</g>
						<g>
							
								<radialGradient id="SVGID_7_" cx="-1601.2313" cy="952.477" r="25.6613" gradientTransform="matrix(-0.9999 1.380000e-02 1.380000e-02 0.9999 -1566.8477 -872.675)" gradientUnits="userSpaceOnUse">
								<stop  offset="0.1613" style="stop-color:#C3842B"/>
								<stop  offset="0.2612" style="stop-color:#C78929"/>
								<stop  offset="0.3822" style="stop-color:#D19822"/>
								<stop  offset="0.5139" style="stop-color:#E1B018"/>
								<stop  offset="0.6526" style="stop-color:#F8D20A"/>
								<stop  offset="0.6559" style="stop-color:#F8D30A"/>
							</radialGradient>
							<path fill="url(#SVGID_7_)" d="M42.6,53.8c0.6-0.7,1.5-1.1,2.2-1.6c1-0.8,2-1.4,3.1-2.1c0.5-0.3,1.1-0.6,1.6-0.8
								c0.1-0.1,0.3-0.1,0.4-0.1c0.3-0.1,0.6-0.2,0.9-0.1c0.4,0.1,0.3,0.5,0.2,0.8c-0.1,0.1-0.1,0.3-0.2,0.5
								c-0.2,0.4-0.5,0.8-0.7,1.1c-0.9,1.3-1.1,3.2-2,4.6c-0.2,0.4-0.3,0.8-0.4,1.3c-0.3-0.2-0.6-0.5-0.9-0.6
								c-0.1-0.1-0.3-0.1-0.5-0.1c-0.7-0.3-1.3-0.9-2-1.1c-0.6-0.3-1.2-0.4-1.8-0.8c-0.1-0.1-0.4-0.1-0.3-0.3
								C42.4,54.2,42.5,54,42.6,53.8z"/>
							
								<radialGradient id="SVGID_9_" cx="-1583.9838" cy="949.8496" r="13.3956" gradientTransform="matrix(-0.9999 1.380000e-02 1.380000e-02 0.9999 -1566.8477 -872.675)" gradientUnits="userSpaceOnUse">
								<stop  offset="0.1613" style="stop-color:#C3842B"/>
								<stop  offset="0.2612" style="stop-color:#C78929"/>
								<stop  offset="0.3822" style="stop-color:#D19822"/>
								<stop  offset="0.5139" style="stop-color:#E1B018"/>
								<stop  offset="0.6526" style="stop-color:#F8D20A"/>
								<stop  offset="0.6559" style="stop-color:#F8D30A"/>
							</radialGradient>
							<path fill="url(#SVGID_9_)" d="M31.8,52.9c0,0,0.1-0.2,0.1-0.2c0.2-0.5,0.3-1,0.2-1.5c-0.1-0.7-0.1-1.3-0.4-2
								c-0.2-0.6-0.6-1.2-1-1.6c-0.7-0.8-1.3-1.7-2.1-2.5c-0.2-0.2-0.5-0.5-0.8-0.6c-0.1,0.3-0.2,0.7-0.2,1
								c-0.1,0.6-0.1,1.1-0.2,1.7c0,0.6,0,1.2,0.1,1.8c0.1,0.7,0,1.5,0.2,2.2c0.1,0.7,0,1.4-0.1,2.2c0,0.6,0,1.2-0.1,1.8
								c1.4-0.7,2.8-1.4,4.2-2.1C31.7,52.9,31.7,52.9,31.8,52.9z"/>
							
								<radialGradient id="SVGID_11_" cx="-1601.2313" cy="952.477" r="25.6613" gradientTransform="matrix(-0.9999 1.380000e-02 1.380000e-02 0.9999 -1566.8477 -872.675)" gradientUnits="userSpaceOnUse">
								<stop  offset="0.1613" style="stop-color:#C3842B"/>
								<stop  offset="0.2612" style="stop-color:#C78929"/>
								<stop  offset="0.3822" style="stop-color:#D19822"/>
								<stop  offset="0.5139" style="stop-color:#E1B018"/>
								<stop  offset="0.6526" style="stop-color:#F8D20A"/>
								<stop  offset="0.6559" style="stop-color:#F8D30A"/>
							</radialGradient>
							<path fill="url(#SVGID_11_)" d="M42.6,53.8c0.6-0.7,1.5-1.1,2.2-1.6c1-0.8,2-1.4,3.1-2.1c0.5-0.3,1.1-0.6,1.6-0.8
								c0.1-0.1,0.3-0.1,0.4-0.1c0.3-0.1,0.6-0.2,0.9-0.1c0.4,0.1,0.3,0.5,0.2,0.8c-0.1,0.1-0.1,0.3-0.2,0.5
								c-0.2,0.4-0.5,0.8-0.7,1.1c-0.9,1.3-1.1,3.2-2,4.6c-0.2,0.4-0.3,0.8-0.4,1.3c-0.3-0.2-0.6-0.5-0.9-0.6
								c-0.1-0.1-0.3-0.1-0.5-0.1c-0.7-0.3-1.3-0.9-2-1.1c-0.6-0.3-1.2-0.4-1.8-0.8c-0.1-0.1-0.4-0.1-0.3-0.3
								C42.4,54.2,42.5,54,42.6,53.8z"/>
							<path fill="#D88618" d="M42.6,53.8c0.6-0.7,1.5-1.1,2.2-1.6c1-0.8,2-1.4,3.1-2.1c0.5-0.3,1.1-0.6,1.6-0.8
								c0.1-0.1,0.3-0.1,0.4-0.1c0.3-0.1,0.6-0.2,0.9-0.1c0.4,0.1,0.3,0.5,0.2,0.8c-0.1,0.1-0.1,0.3-0.2,0.5
								c-0.2,0.4-0.5,0.8-0.7,1.1c-0.9,1.3-1.1,3.2-2,4.6c-0.2,0.4-0.3,0.8-0.4,1.3c-0.3-0.2-0.6-0.5-0.9-0.6
								c-0.1-0.1-0.3-0.1-0.5-0.1c-0.7-0.3-1.3-0.9-2-1.1c-0.6-0.3-1.2-0.4-1.8-0.8c-0.1-0.1-0.4-0.1-0.3-0.3
								C42.4,54.2,42.5,54,42.6,53.8z"/>
							<path fill="#D36D1B" d="M46.8,52.9c0.5-0.3,1-0.5,1.6-0.8c-0.4,0.9-0.8,1.8-1.1,2.7c-0.3,0.6-0.5,1.2-0.7,1.8
								c0,0-0.1,0-0.1,0c-0.7-0.3-1.3-0.9-2-1.1c-0.1,0-0.2-0.1-0.3-0.1C44.8,54.4,45.6,53.6,46.8,52.9z"/>
							<path fill="#E29600" d="M31.8,52.9c0,0,0.1-0.2,0.1-0.2c0.2-0.5,0.3-1,0.2-1.5c-0.1-0.7-0.1-1.3-0.4-2
								c-0.2-0.6-0.6-1.2-1-1.6c-0.7-0.8-1.3-1.7-2.1-2.5c-0.2-0.2-0.5-0.5-0.8-0.6c-0.1,0.3-0.2,0.7-0.2,1
								c-0.1,0.6-0.1,1.1-0.2,1.7c0,0.6-0.2,1.4-0.1,2c0.1,0.7,0,1.4,0.2,2.2c0.1,0.7,0.1,1.3,0.1,2c0,0.6,0,1.2-0.1,1.8
								c1.4-0.7,2.8-1.4,4.2-2.1C31.7,52.9,31.7,52.9,31.8,52.9z"/>
							<path fill="#D36D1B" d="M29.3,49.3c0.8,1.2,1.2,2.6,1.4,4.1c-0.8,0.4-1.7,0.8-2.5,1.2c0.3-1.1,0.5-2.3,0.5-3.5
								C28.9,50.5,29.1,50,29.3,49.3z"/>
							<path opacity="0.2" fill="#3B2416" enable-background="new    " d="M42.6,53.8c0.3-0.3,0.6-0.6,0.9-0.8
								c0.9,0.3,1.8,0.5,2.7,0.9c0.6,0.2,1.1,0.4,1.7,0.6c0.3,0.1,0.5,0.3,0.8,0.5c-0.2,0.4-0.3,0.8-0.6,1.2
								c-0.2,0.4-0.3,0.8-0.4,1.3c-0.3-0.2-0.6-0.4-0.9-0.6c-0.1-0.1-0.3-0.1-0.5-0.1c-0.7-0.3-1.3-0.9-2-1.1
								c-0.6-0.3-1.2-0.4-1.8-0.8c-0.1-0.1-0.4-0.1-0.3-0.3C42.4,54.2,42.5,54,42.6,53.8z"/>
							<path opacity="0.2" fill="#3B2416" enable-background="new    " d="M27.6,52.9c0.7-0.2,1.3-0.5,2-0.8
								c0.8-0.3,1.6-0.5,2.5-0.7c0,0.4-0.1,0.8-0.2,1.2c0,0-0.1,0.2-0.1,0.2L31.7,53c-1.4,0.7-2.8,1.3-4.2,2.1
								c0.1-0.6,0.1-1.2,0.1-1.8C27.6,53.1,27.6,53,27.6,52.9z"/>
							
								<radialGradient id="SVGID_13_" cx="-1577.8036" cy="982.2446" r="66.4889" gradientTransform="matrix(-0.9999 1.380000e-02 1.380000e-02 0.9999 -1566.8477 -872.675)" gradientUnits="userSpaceOnUse">
								<stop  offset="1.610000e-02" style="stop-color:#EA8624"/>
								<stop  offset="0.2741" style="stop-color:#EA8823"/>
								<stop  offset="0.3917" style="stop-color:#EB8F20"/>
								<stop  offset="0.4809" style="stop-color:#EE9C1C"/>
								<stop  offset="0.5557" style="stop-color:#F1AE16"/>
								<stop  offset="0.6208" style="stop-color:#F6C60E"/>
								<stop  offset="0.6505" style="stop-color:#F8D30A"/>
							</radialGradient>
							<path fill="url(#SVGID_13_)" d="M7.2,53.3c4.2,0.2,8.3,0.5,12.5,0.6c3.6,0.1,7.6,0.4,11-1.2c2.5-1.2,4-1.1,6.6-0.4
								c3.8,1,7.8,2.1,11.5,3.5c2,0.7,3.8,1.2,5.8,1.6c4.6,1.1,9.2,2.6,13.7,4c2.1,0.7,4.4,0.9,6.5,1.6c2.2,0.8,1.1,2.4-0.2,3.4
								c-3.4,2.6-9.5,2.2-13.6,2.3c-6.1,0.1-6.7,0.1-10.6,0.4c-3.1,0.2-6,0.3-9.1,0.2c-2-0.1-4-0.1-6-0.3c-0.9-0.1-1.8,0.2-2.9,0.2
								c-0.6,0-0.8,0.6-0.9,1.1c-0.1,0.6-0.1,1.2-0.1,1.8c0,0.1,0,0.1,0,0.2c0,0.1-0.2,0.1-0.3,0.1c-0.2,0-0.3,0-0.5,0
								c-0.2,0-0.3,0-0.4,0.1c-0.5,0-1,0.1-1.5,0.1c-3.4,0.2-6.8,0.1-10.2,0c-1.9-0.1-3.9,0-5.8,0.1c-4.8,0.2-9.4,0-14.2-0.2"/>
							<path fill="#02290E" d="M68.5,65.3c0-0.7,0.1-1.4,0.4-2.3c0.1-0.4,0.3-0.9,0.5-1.3c1.8,0.4,3.6,0.7,5.3,1.3
								c2.2,0.8,1.1,2.4-0.2,3.4c-1.6,1.2-3.7,1.7-5.7,2C68.5,67.6,68.4,66.7,68.5,65.3z"/>
							<path fill="#FFFFFF" d="M73,63c0.2-0.1,0.5,0,0.7,0.1c0.3,0.1,0.5,0.2,0.6,0.5c0.1,0.2-0.1,0.4-0.3,0.4
								c-0.2,0-0.3-0.1-0.5-0.1c-0.2,0-0.4,0-0.6-0.1C72.6,63.5,72.7,63.1,73,63z"/>
						</g>
						<g>
							<g>
								<g>
									<defs>
										<path id="SVGID_119_" d="M7.2,53.3c4.2,0.2,8.3,0.5,12.5,0.6c3.6,0.1,7.6,0.4,11-1.2c2.5-1.2,4-1.1,6.6-0.4
											c3.8,1,7.8,2.1,11.5,3.5c2,0.7,3.8,1.2,5.8,1.6c4.6,1.1,9.2,2.6,13.7,4c2.1,0.7,4.4,0.9,6.5,1.6c2.2,0.8,1.1,2.4-0.2,3.4
											c-3.4,2.6-9.5,2.2-13.6,2.3c-6.1,0.1-6.7,0.1-10.6,0.4c-3.1,0.2-6,0.3-9.1,0.2c-2-0.1-4-0.1-6-0.3
											c-0.9-0.1-1.8,0.2-2.9,0.2c-0.9,0-1,1.8-1,2.8c0,0.2-0.2,0.4-0.4,0.3c-0.3,0-0.7,0.1-1,0.1c-0.5,0-1,0.1-1.5,0.1
											c-3.7,0.2-7.4-0.2-11.1-0.3c-3.8-0.1-7.6-0.2-11.4-0.1c-0.7,0-1.4,0.1-2.1,0.1"/>
									</defs>
									<defs>
										<path id="SVGID_120_" d="M7.2,53.3c4.2,0.2,8.3,0.5,12.5,0.6c3.6,0.1,7.6,0.4,11-1.2c2.5-1.2,4-1.1,6.6-0.4
											c3.8,1,7.8,2.1,11.5,3.5c2,0.7,3.8,1.2,5.8,1.6c4.6,1.1,9.2,2.6,13.7,4c2.1,0.7,4.4,0.9,6.5,1.6c2.2,0.8,1.1,2.4-0.2,3.4
											c-3.4,2.6-9.5,2.2-13.6,2.3c-6.1,0.1-6.7,0.1-10.6,0.4c-3.1,0.2-6,0.3-9.1,0.2c-2-0.1-4-0.1-6-0.3
											c-0.9-0.1-1.8,0.2-2.9,0.2c-0.9,0-1,1.8-1,2.8c0,0.2-0.2,0.4-0.4,0.3c-0.3,0-0.7,0.1-1,0.1c-0.5,0-1,0.1-1.5,0.1
											c-3.7,0.2-7.4-0.2-11.1-0.3c-3.8-0.1-7.6-0.2-11.4-0.1c-0.7,0-1.4,0.1-2.1,0.1"/>
									</defs>
									<defs>
										<path id="SVGID_121_" d="M7.2,53.3c4.2,0.2,8.3,0.5,12.5,0.6c3.6,0.1,7.6,0.4,11-1.2c2.5-1.2,4-1.1,6.6-0.4
											c3.8,1,7.8,2.1,11.5,3.5c2,0.7,3.8,1.2,5.8,1.6c4.6,1.1,9.2,2.6,13.7,4c2.1,0.7,4.4,0.9,6.5,1.6c2.2,0.8,1.1,2.4-0.2,3.4
											c-3.4,2.6-9.5,2.2-13.6,2.3c-6.1,0.1-6.7,0.1-10.6,0.4c-3.1,0.2-6,0.3-9.1,0.2c-2-0.1-4-0.1-6-0.3
											c-0.9-0.1-1.8,0.2-2.9,0.2c-0.9,0-1,1.8-1,2.8c0,0.2-0.2,0.4-0.4,0.3c-0.3,0-0.7,0.1-1,0.1c-0.5,0-1,0.1-1.5,0.1
											c-3.7,0.2-7.4-0.2-11.1-0.3c-3.8-0.1-7.6-0.2-11.4-0.1c-0.7,0-1.4,0.1-2.1,0.1"/>
									</defs>
									<defs>
										<path id="SVGID_122_" d="M7.2,53.3c4.2,0.2,8.3,0.5,12.5,0.6c3.6,0.1,7.6,0.4,11-1.2c2.5-1.2,4-1.1,6.6-0.4
											c3.8,1,7.8,2.1,11.5,3.5c2,0.7,3.8,1.2,5.8,1.6c4.6,1.1,9.2,2.6,13.7,4c2.1,0.7,4.4,0.9,6.5,1.6c2.2,0.8,1.1,2.4-0.2,3.4
											c-3.4,2.6-9.5,2.2-13.6,2.3c-6.1,0.1-6.7,0.1-10.6,0.4c-3.1,0.2-6,0.3-9.1,0.2c-2-0.1-4-0.1-6-0.3
											c-0.9-0.1-1.8,0.2-2.9,0.2c-0.9,0-1,1.8-1,2.8c0,0.2-0.2,0.4-0.4,0.3c-0.3,0-0.7,0.1-1,0.1c-0.5,0-1,0.1-1.5,0.1
											c-3.7,0.2-7.4-0.2-11.1-0.3c-3.8-0.1-7.6-0.2-11.4-0.1c-0.7,0-1.4,0.1-2.1,0.1"/>
									</defs>
									<defs>
										<path id="SVGID_123_" d="M7.2,53.3c4.2,0.2,8.3,0.5,12.5,0.6c3.6,0.1,7.6,0.4,11-1.2c2.5-1.2,4-1.1,6.6-0.4
											c3.8,1,7.8,2.1,11.5,3.5c2,0.7,3.8,1.2,5.8,1.6c4.6,1.1,9.2,2.6,13.7,4c2.1,0.7,4.4,0.9,6.5,1.6c2.2,0.8,1.1,2.4-0.2,3.4
											c-3.4,2.6-9.5,2.2-13.6,2.3c-6.1,0.1-6.7,0.1-10.6,0.4c-3.1,0.2-6,0.3-9.1,0.2c-2-0.1-4-0.1-6-0.3
											c-0.9-0.1-1.8,0.2-2.9,0.2c-0.9,0-1,1.8-1,2.8c0,0.2-0.2,0.4-0.4,0.3c-0.3,0-0.7,0.1-1,0.1c-0.5,0-1,0.1-1.5,0.1
											c-3.7,0.2-7.4-0.2-11.1-0.3c-3.8-0.1-7.6-0.2-11.4-0.1c-0.7,0-1.4,0.1-2.1,0.1"/>
									</defs>
									<clipPath id="SVGID_15_">
										<use xlink:href="#SVGID_119_"  overflow="visible"/>
									</clipPath>
									<clipPath id="SVGID_17_" clip-path="url(#SVGID_15_)">
										<use xlink:href="#SVGID_120_"  overflow="visible"/>
									</clipPath>
									<clipPath id="SVGID_18_" clip-path="url(#SVGID_17_)">
										<use xlink:href="#SVGID_121_"  overflow="visible"/>
									</clipPath>
									<clipPath id="SVGID_20_" clip-path="url(#SVGID_18_)">
										<use xlink:href="#SVGID_122_"  overflow="visible"/>
									</clipPath>
									<clipPath id="SVGID_21_" clip-path="url(#SVGID_20_)">
										<use xlink:href="#SVGID_123_"  overflow="visible"/>
									</clipPath>
									<path opacity="0.83" clip-path="url(#SVGID_21_)" fill="#F1564A" enable-background="new    " d="M30.6,55.2
										c0.5-1.5,2.5-2.3,3.8-1.5c0.5,0.3,0.9,0.8,1.1,1.4c0.1,0.1,0.1,0.2,0.1,0.3c0.3,0.7,0.2,1.6-0.4,2.2
										c-0.6,0.9-1.7,1.2-2.7,1c-0.2,0-0.4-0.1-0.5-0.2c-0.4-0.1-0.7-0.3-1-0.6C30.3,57,30.2,56,30.6,55.2z"/>
									<g clip-path="url(#SVGID_21_)">
										<path fill="#FFFFFF" d="M34,57.7c-1,0-1.8-0.1-2.8-0.4c0,0,1.7-1.6,2-1.8C33.2,55.6,34,57.5,34,57.7z"/>
										<path fill="#FFFFFF" d="M34.2,58.1c0.2,0.4,0.8,2,1.2,2.2c-0.9-0.3-1.9-0.2-2.8-0.4C32.7,59.6,34.2,58,34.2,58.1z"/>
										<path fill="#FFFFFF" d="M35.6,60.6c0.5,0.2,1,1.2,1.3,1.5c-0.2-0.2-0.9,0.1-1.1,0.1c-0.6,0-1.2-0.1-1.8-0.2
											c0.2-0.3,1-1.3,1.4-1.4C35.4,60.5,35.5,60.6,35.6,60.6z"/>
										<path fill="#FFFFFF" d="M37.3,62.6c0-0.1,0.1-0.1,0.1-0.1c0.6,0.4,1.8,1.2,0.7,1.6c-0.7,0.2-1.6,0.3-2.3,0.1
											C35.9,64.2,36.9,63,37.3,62.6z"/>
										<path fill="#E37700" d="M33.6,54.8c0.3-0.1,0.3,1.1,0.4,1.3c0.8,3.2,2.8,5.5,5.3,7.5c1,0.8,2,1.5,3,2.2
											c4.3,2.8,9.2,4.7,13.3,7.8c0.1,0.1,0,0.3-0.1,0.2c-4.9-2.5-9.9-4.7-14.4-7.8c-2.2-1.5-4.3-3.3-5.9-5.5
											c-0.6-0.9-1.2-2-1.5-3.1c-0.2-0.6-0.7-1.9-0.3-2.5C33.4,54.9,33.5,54.9,33.6,54.8z"/>
									</g>
								</g>
								<g>
									<path opacity="0.21" fill="#3B2416" enable-background="new    " d="M50.7,62.6c-1.1-0.6-1.4-2.4-0.5-3.4
										c1.4-1.6,4.4-0.4,4.1,1.8C54,62.6,52.2,63.5,50.7,62.6z"/>
									
										<radialGradient id="SVGID_22_" cx="-1605.8622" cy="955.0884" r="3.6361" gradientTransform="matrix(-0.9999 1.380000e-02 1.380000e-02 0.9999 -1566.8477 -872.675)" gradientUnits="userSpaceOnUse">
										<stop  offset="0" style="stop-color:#FFFFFF"/>
										<stop  offset="0.4208" style="stop-color:#FDFEFE"/>
										<stop  offset="0.5724" style="stop-color:#F6FAFB"/>
										<stop  offset="0.6805" style="stop-color:#EAF4F7"/>
										<stop  offset="0.7679" style="stop-color:#DAEBF0"/>
										<stop  offset="0.8427" style="stop-color:#C4E0E7"/>
										<stop  offset="0.909" style="stop-color:#A8D1DC"/>
										<stop  offset="0.9674" style="stop-color:#89C1CF"/>
										<stop  offset="1" style="stop-color:#74B5C6"/>
									</radialGradient>
									<path fill="url(#SVGID_22_)" d="M51.3,62.5c-1.1-0.6-1.4-2.4-0.5-3.4c1.4-1.6,4.4-0.4,4.1,1.8
										C54.6,62.5,52.8,63.3,51.3,62.5z"/>
									<path fill="#19191A" d="M52.1,60.5c0-0.1,0.1-0.2,0.2-0.2c0,0,0.1-0.1,0.1-0.1c0,0,0.1,0,0.1,0c0.4-0.1,0.7,0.5,0.5,0.8
										c-0.2,0.3-0.6,0.3-0.8,0C52.1,60.8,52.1,60.6,52.1,60.5z"/>
								</g>
								<g>
									<path opacity="0.21" fill="#3B2416" enable-background="new    " d="M42,58.3c-0.1,0.4-0.3,0.9-0.7,1.3
										c-2.5,2.5-6.3-0.8-4.6-3.7C38.5,53,42.6,55.7,42,58.3z"/>
									
										<radialGradient id="SVGID_23_" cx="-1592.9974" cy="951.1167" r="4.9763" gradientTransform="matrix(-0.9999 1.380000e-02 1.380000e-02 0.9999 -1566.8477 -872.675)" gradientUnits="userSpaceOnUse">
										<stop  offset="0" style="stop-color:#FFFFFF"/>
										<stop  offset="0.4208" style="stop-color:#FDFEFE"/>
										<stop  offset="0.5724" style="stop-color:#F6FAFB"/>
										<stop  offset="0.6805" style="stop-color:#EAF4F7"/>
										<stop  offset="0.7679" style="stop-color:#DAEBF0"/>
										<stop  offset="0.8427" style="stop-color:#C4E0E7"/>
										<stop  offset="0.909" style="stop-color:#A8D1DC"/>
										<stop  offset="0.9674" style="stop-color:#89C1CF"/>
										<stop  offset="1" style="stop-color:#74B5C6"/>
									</radialGradient>
									<path fill="url(#SVGID_23_)" d="M42.5,58c-0.1,0.4-0.3,0.9-0.7,1.3c-2.5,2.5-6.3-0.8-4.6-3.7C39,52.6,43.1,55.4,42.5,58z"
										/>
									<path fill="#19191A" d="M39,57.1C39,57.1,39,57.1,39,57.1c0.2-0.5,0.9-0.7,1.2-0.3c0.3,0.3,0,1.3-0.5,1.3
										c-0.1,0-0.1,0-0.1,0c0,0,0,0,0,0c-0.1,0-0.2-0.1-0.2-0.2C39.1,57.6,38.9,57.4,39,57.1z"/>
								</g>
								<g opacity="0.27">
									<path fill="#FFFFFF" d="M-0.5,54.5C0.2,54,1.2,54.1,2,54.1c0.9,0,1.8,0.2,2.6,0.8c0.1,0.1,0.1,0.3,0,0.4
										c-0.7,0.6-1.8,0.7-2.7,0.6c-0.8-0.1-2-0.3-2.4-1.1C-0.5,54.7-0.5,54.6-0.5,54.5z"/>
									<path fill="#FFFFFF" d="M3.9,70.6c1.3-0.7,3-0.6,4.3,0c0.1,0.1,0.1,0.3,0,0.3c-1.4,0.2-3,0.7-4.3-0.1
										C3.8,70.8,3.8,70.7,3.9,70.6z"/>
									<path fill="#FFFFFF" d="M10,62.4c0.4-0.2,0.7-0.3,1.1-0.4c0.6-0.2,1.2-0.1,1.9-0.1c0.5,0,2.5-0.1,2.5,0.6
										c0.1,0.9-2,1-2.5,1c-0.6,0-1.3,0.1-1.9-0.2c-0.4-0.1-0.7-0.3-1.1-0.4C9.8,62.8,9.8,62.5,10,62.4z"/>
									<path fill="#FFFFFF" d="M18.8,55.8c0.5-0.3,1.2-0.6,1.8-0.5c0.6,0.1,1.2,0.2,1.7,0.4c0.2,0.1,0.3,0.2,0.2,0.4
										c-0.2,0.7-1,0.9-1.7,0.9c-0.4,0-0.9,0-1.2-0.2c-0.3-0.2-0.6-0.4-0.9-0.6C18.6,56.1,18.6,55.9,18.8,55.8z"/>
									<path fill="#FFFFFF" d="M17.6,70.1c0.4-0.3,0.8-0.5,1.3-0.5c0.5,0,0.9,0.1,1.3,0.1c0.4,0,0.5,0.4,0.3,0.7
										c-0.8,0.8-2.1,0.7-2.9,0.1C17.4,70.4,17.4,70.2,17.6,70.1z"/>
									<path fill="#FFFFFF" d="M28.7,69.2c0.2-0.1,0.5-0.1,0.7-0.1c0.3,0,0.5,0.1,0.7,0.2c0.2,0.1,0.1,0.3,0,0.4
										c-0.3,0.2-0.5,0.3-0.8,0.2c-0.2-0.1-0.5-0.3-0.7-0.4C28.5,69.4,28.6,69.2,28.7,69.2z"/>
									<path fill="#FFFFFF" d="M26.2,61.9c0.4-0.1,0.7-0.2,1.1-0.3c0.4-0.2,0.7-0.4,1.2-0.3c0.4,0,0.8,0.1,1.1,0.2
										c0.4,0.1,0.6,0.4,0.9,0.6c0.1,0.1,0.1,0.2,0,0.3c-0.3,0.2-0.5,0.4-0.8,0.6c-0.4,0.2-0.8,0.2-1.2,0.3
										c-0.4,0-0.7-0.1-1.1-0.3c-0.4-0.2-0.8-0.3-1.2-0.5C26,62.3,25.9,62,26.2,61.9z"/>
									<path fill="#FFFFFF" d="M36.1,67.2c0.4-0.2,0.8-0.5,1.2-0.2c0.1,0.1,0.2,0.3,0.1,0.4c-0.3,0.5-0.9,0.3-1.3,0
										C36.1,67.5,36,67.3,36.1,67.2z"/>
									<path fill="#FFFFFF" d="M9.8,54.2c0.3-0.1,0.6-0.2,1-0.2c0.3,0,0.6,0,0.9,0.1c0.1,0,0.2,0.2,0,0.3
										c-0.3,0.1-0.5,0.2-0.9,0.2c-0.3,0-0.7-0.1-1-0.2C9.7,54.4,9.7,54.2,9.8,54.2z"/>
									<path fill="#FFFFFF" d="M62.8,61.6c0.7-0.1,1.3-0.2,2,0c0.3,0.1,0.5,0.2,0.8,0.4c0.3,0.2,0.3,0.3,0.5,0.6
										c0,0.1,0,0.2-0.1,0.2c-0.2,0.2-0.3,0.3-0.6,0.3c-0.4,0-0.8,0-1.1,0c-0.7-0.2-1.1-0.6-1.6-1.1
										C62.4,61.9,62.5,61.6,62.8,61.6z"/>
									<path fill="#FFFFFF" d="M61.7,67.1c0.4-0.1,0.8-0.2,1.2-0.2c0.4,0,0.8,0.2,1.2,0.3c0.2,0.1,0.1,0.3,0,0.3
										c-0.4,0-0.8,0.1-1.2,0.1c-0.4,0-0.7-0.1-1.1-0.2C61.5,67.4,61.5,67.2,61.7,67.1z"/>
									<path fill="#FFFFFF" d="M55.8,63.7c0.3-0.1,0.6-0.2,0.9-0.2c0.3,0,0.6,0.2,0.9,0.3c0.1,0.1,0.1,0.2,0,0.3
										c-0.3,0.1-0.5,0.2-0.9,0.2c-0.3,0-0.6-0.2-0.9-0.3C55.7,63.9,55.7,63.7,55.8,63.7z"/>
									<path fill="#FFFFFF" d="M46.7,56.6c0.4,0.1,0.7,0,1.1,0.1c0.3,0.1,0.6,0.2,0.9,0.3c0.2,0.1,0.1,0.3,0,0.4
										c-0.4,0.1-0.7,0.2-1.1,0.1c-0.4-0.1-0.7-0.3-1-0.5C46.4,56.8,46.5,56.6,46.7,56.6z"/>
									<path fill="#FFFFFF" d="M48.8,67.5c0.5-0.1,0.8-0.1,1.3,0c0.4,0.1,0.8,0.3,1.2,0.5c0.1,0.1,0.1,0.3-0.1,0.3
										c-0.4,0-0.9,0-1.3-0.1c-0.5-0.1-0.8-0.2-1.2-0.5C48.6,67.6,48.7,67.5,48.8,67.5z"/>
									<path fill="#FFFFFF" d="M56.6,58.5c0.2,0,0.4,0.1,0.6,0.1c0.1,0,0.2,0.1,0.2,0.2c0.1,0.1,0,0.2,0,0.2c0,0,0,0.1,0,0.1
										c0,0,0,0-0.1,0c0,0-0.1,0-0.1,0c-0.1,0-0.2,0-0.3-0.1c-0.1-0.1-0.3-0.2-0.4-0.3C56.4,58.7,56.4,58.5,56.6,58.5z"/>
									<path fill="#FFFFFF" d="M44.1,63c0.5,0.1,1.1,0,1.6,0.3c0.1,0.1,0.1,0.2,0,0.3c-0.6,0.4-1.2-0.1-1.7-0.4
										C43.9,63.1,44,63,44.1,63z"/>
									<path fill="#FFFFFF" d="M34.8,52.8c0.2-0.1,0.5-0.2,0.8-0.2c0.3,0,0.5,0.1,0.7,0.3c0.1,0.1,0,0.3-0.1,0.3
										c-0.2,0.1-0.5,0.1-0.7,0.1c-0.2,0-0.5-0.1-0.7-0.2C34.7,53,34.7,52.8,34.8,52.8z"/>
									<path fill="#FFFFFF" d="M27.7,55.1c0.3-0.3,1-0.6,1.3-0.2c0.1,0.1,0.1,0.2,0,0.3c-0.4,0.2-0.8,0.1-1.2,0.1
										C27.7,55.3,27.6,55.2,27.7,55.1z"/>
									<path fill="#FFFFFF" d="M40.8,67.9c0.2,0,0.5,0.1,0.7,0.1c0.1,0,0.3,0.1,0.4,0.1c0.1,0.1,0.2,0.2,0.3,0.3
										c0.1,0.1,0,0.3-0.2,0.3c-0.3,0-0.4-0.1-0.6-0.2c-0.2-0.1-0.4-0.3-0.6-0.4C40.6,68.1,40.7,67.9,40.8,67.9z"/>
									<path fill="#FFFFFF" d="M19.1,65c0.5-0.2,0.8-0.3,1.4-0.3c0.5,0,0.8,0.2,1.1,0.5c0.1,0.1,0,0.4-0.2,0.4c-0.4,0-0.8,0-1.2,0
										c-0.4,0-0.7-0.1-1.1-0.3C18.9,65.2,18.9,65,19.1,65z"/>
									<path fill="#FFFFFF" d="M2.3,63.9c0.8-0.1,1.4-0.3,2.2-0.1c0.2,0,0.2,0.3,0,0.4c-0.8,0.2-1.4,0.1-2.2-0.1
										C2.2,64.1,2.2,63.9,2.3,63.9z"/>
								</g>
							</g>
							<g>
								<path opacity="0.2" fill="#3B2416" enable-background="new    " d="M-1,53.5c1.4,0.1,2.7,0.1,4.1,0.2c0,0,0,0,0.1,0
									c0.3,0.2,0.5,0.4,0.8,0.5c0.5,0.4,1.1,0.7,1.6,1.1c0.8,0.5,1.5,1,2.3,1.5l2.8,1.8c1,0.7,2.1,1.4,3.1,2.1l3.3,2.2
									c1.1,0.7,2.2,1.5,3.3,2.2l3.2,2.1c0.9,0.6,1.9,1.2,2.8,1.9l1.3,0.8c0.2,0.1,0.4,0.3,0.6,0.4c0.1,0.1,0.3,0.1,0.4,0.2
									c0.2,0.1,0.4,0.2,0.6,0.3c0.4,0.2,0.8,0.4,1.1,0.6c0.2,0.1,0.4,0.2,0.6,0.3c-0.6-0.2-1.5,0.1-1.7,0.7c0,0-0.1,0-0.1,0
									c-0.7,0-1.4,0.1-2.1,0.1c-0.8,0-1.6,0-2.4,0c-0.4,0-0.7,0-1.1,0c0-0.1,0-0.2-0.1-0.3c0,0,0,0,0,0c0.1-0.1,0.1-0.1,0.1-0.2
									c-0.3-1-1.9-0.9-2.6-0.6c-0.5,0.2-0.7,0.7-0.8,1.1c-1.1,0-2.2,0-3.4,0c-1.3,0-2.7,0-4,0c-1.2,0-2.5,0-3.7,0
									c-1.1,0-2.2,0-3.3,0c-0.9,0-1.8,0-2.7,0c-0.6,0-1.2,0-1.8,0c-0.3,0-0.6,0-0.8,0c-0.2,0-3.9-0.1-3.9-0.1
									c-0.1-1.2-0.1-2.1-0.2-3.3"/>
								<g>
									<g>
										<path id="XMLID_1_" fill="#35C2D7" d="M-3.9,59.3c0.1,1.3,0.3,2.7,0.3,4c0,2.1,0.3,4.2,0.5,6.3c0.1,1.3,0.2,2.7,0.2,4
											c0-0.1,3.7-0.3,3.9-0.3c4.2,0,8.3-0.2,12.5-0.2c0.9,0,1.8,0.1,2.7,0c0.7,0,1.4-0.2,2-0.3c0.3,0,1.1,0.1,1.2-0.4
											c0.1-0.2,0-0.4,0.1-0.6c0.5-0.8,1.5-0.8,2.3-0.5c0.3,0.1,0.5,0.4,0.6,0.6c0.1,0.2,0,0.5,0.2,0.6c0.2,0.1,0.6,0.1,0.8,0.1
											c1.7,0,3.3,0.1,5-0.1c0.1,0,0.2,0,0.2,0c0.1-0.1,0.1-0.3,0.2-0.4c0.3-0.4,0.8-0.7,1.3-0.6c0.2,0,0.4,0.1,0.6,0.2
											c0.1,0.1,0.3,0.4,0.2,0.6c0.2,0,0.4,0,0.6,0c0,0,0-0.5,0-0.6c0-0.2,0-0.4,0-0.7c0-0.4,0.1-0.7,0.1-1.1
											c0-0.1,0-0.2,0.1-0.3c0-0.2,0.1-0.5,0.3-0.6c-0.1,0-0.3-0.1-0.4-0.1C29,68,26.5,66.4,25,63.7c-1.4-2.6-2-6-0.4-8.7
											c0.2-0.4,0.7-1,1.2-1.1c-0.2,0-0.4-0.1-0.6-0.1c-1-0.1-2-0.1-2.9-0.1c-0.9-0.1-1.9-0.1-2.8-0.2
											c-6.6-0.4-13.2-0.5-19.8-0.8"/>
									</g>
									<g>
										<g>
											<defs>
												<path id="SVGID_131_" d="M-3.9,59.3c0.1,1.3,0.3,2.7,0.3,4c0,2.1,0.3,4.2,0.5,6.3c0.1,1.3,0.2,2.7,0.2,4
													c0-0.1,3.7-0.3,3.9-0.3c4.2,0,8.3-0.2,12.5-0.2c0.9,0,1.8,0.1,2.7,0c0.7,0,1.4-0.2,2-0.3c0.3,0,1.1,0.1,1.2-0.4
													c0.1-0.2,0-0.4,0.1-0.6c0.5-0.8,1.5-0.8,2.3-0.5c0.3,0.1,0.5,0.4,0.6,0.6c0.1,0.2,0,0.5,0.2,0.6
													c0.2,0.1,0.6,0.1,0.8,0.1c1.7,0,3.3,0.1,5-0.1c0.1,0,0.2,0,0.2,0c0.1-0.1,0.1-0.3,0.2-0.4c0.3-0.4,0.8-0.7,1.3-0.6
													c0.2,0,0.4,0.1,0.6,0.2c0.1,0.1,0.3,0.4,0.2,0.6c0.2,0,0.4,0,0.6,0c0,0,0-0.5,0-0.6c0-0.2,0-0.4,0-0.7
													c0-0.4,0.1-0.7,0.1-1.1c0-0.1,0-0.2,0.1-0.3c0-0.2,0.1-0.5,0.3-0.6c-0.1,0-0.3-0.1-0.4-0.1C29,68,26.5,66.4,25,63.7
													c-1.4-2.6-2-6-0.4-8.7c0.2-0.4,0.7-1,1.2-1.1c-0.2,0-0.4-0.1-0.6-0.1c-1-0.1-2-0.1-2.9-0.1c-0.9-0.1-1.9-0.1-2.8-0.2
													c-6.6-0.4-13.2-0.5-19.8-0.8"/>
											</defs>
											<defs>
												<path id="SVGID_132_" d="M-3.9,59.3c0.1,1.3,0.3,2.7,0.3,4c0,2.1,0.3,4.2,0.5,6.3c0.1,1.3,0.2,2.7,0.2,4
													c0-0.1,3.7-0.3,3.9-0.3c4.2,0,8.3-0.2,12.5-0.2c0.9,0,1.8,0.1,2.7,0c0.7,0,1.4-0.2,2-0.3c0.3,0,1.1,0.1,1.2-0.4
													c0.1-0.2,0-0.4,0.1-0.6c0.5-0.8,1.5-0.8,2.3-0.5c0.3,0.1,0.5,0.4,0.6,0.6c0.1,0.2,0,0.5,0.2,0.6
													c0.2,0.1,0.6,0.1,0.8,0.1c1.7,0,3.3,0.1,5-0.1c0.1,0,0.2,0,0.2,0c0.1-0.1,0.1-0.3,0.2-0.4c0.3-0.4,0.8-0.7,1.3-0.6
													c0.2,0,0.4,0.1,0.6,0.2c0.1,0.1,0.3,0.4,0.2,0.6c0.2,0,0.4,0,0.6,0c0,0,0-0.5,0-0.6c0-0.2,0-0.4,0-0.7
													c0-0.4,0.1-0.7,0.1-1.1c0-0.1,0-0.2,0.1-0.3c0-0.2,0.1-0.5,0.3-0.6c-0.1,0-0.3-0.1-0.4-0.1C29,68,26.5,66.4,25,63.7
													c-1.4-2.6-2-6-0.4-8.7c0.2-0.4,0.7-1,1.2-1.1c-0.2,0-0.4-0.1-0.6-0.1c-1-0.1-2-0.1-2.9-0.1c-0.9-0.1-1.9-0.1-2.8-0.2
													c-6.6-0.4-13.2-0.5-19.8-0.8"/>
											</defs>
											<defs>
												<path id="SVGID_133_" d="M-3.9,59.3c0.1,1.3,0.3,2.7,0.3,4c0,2.1,0.3,4.2,0.5,6.3c0.1,1.3,0.2,2.7,0.2,4
													c0-0.1,3.7-0.3,3.9-0.3c4.2,0,8.3-0.2,12.5-0.2c0.9,0,1.8,0.1,2.7,0c0.7,0,1.4-0.2,2-0.3c0.3,0,1.1,0.1,1.2-0.4
													c0.1-0.2,0-0.4,0.1-0.6c0.5-0.8,1.5-0.8,2.3-0.5c0.3,0.1,0.5,0.4,0.6,0.6c0.1,0.2,0,0.5,0.2,0.6
													c0.2,0.1,0.6,0.1,0.8,0.1c1.7,0,3.3,0.1,5-0.1c0.1,0,0.2,0,0.2,0c0.1-0.1,0.1-0.3,0.2-0.4c0.3-0.4,0.8-0.7,1.3-0.6
													c0.2,0,0.4,0.1,0.6,0.2c0.1,0.1,0.3,0.4,0.2,0.6c0.2,0,0.4,0,0.6,0c0,0,0-0.5,0-0.6c0-0.2,0-0.4,0-0.7
													c0-0.4,0.1-0.7,0.1-1.1c0-0.1,0-0.2,0.1-0.3c0-0.2,0.1-0.5,0.3-0.6c-0.1,0-0.3-0.1-0.4-0.1C29,68,26.5,66.4,25,63.7
													c-1.4-2.6-2-6-0.4-8.7c0.2-0.4,0.7-1,1.2-1.1c-0.2,0-0.4-0.1-0.6-0.1c-1-0.1-2-0.1-2.9-0.1c-0.9-0.1-1.9-0.1-2.8-0.2
													c-6.6-0.4-13.2-0.5-19.8-0.8"/>
											</defs>
											<defs>
												<path id="SVGID_134_" d="M-3.9,59.3c0.1,1.3,0.3,2.7,0.3,4c0,2.1,0.3,4.2,0.5,6.3c0.1,1.3,0.2,2.7,0.2,4
													c0-0.1,3.7-0.3,3.9-0.3c4.2,0,8.3-0.2,12.5-0.2c0.9,0,1.8,0.1,2.7,0c0.7,0,1.4-0.2,2-0.3c0.3,0,1.1,0.1,1.2-0.4
													c0.1-0.2,0-0.4,0.1-0.6c0.5-0.8,1.5-0.8,2.3-0.5c0.3,0.1,0.5,0.4,0.6,0.6c0.1,0.2,0,0.5,0.2,0.6
													c0.2,0.1,0.6,0.1,0.8,0.1c1.7,0,3.3,0.1,5-0.1c0.1,0,0.2,0,0.2,0c0.1-0.1,0.1-0.3,0.2-0.4c0.3-0.4,0.8-0.7,1.3-0.6
													c0.2,0,0.4,0.1,0.6,0.2c0.1,0.1,0.3,0.4,0.2,0.6c0.2,0,0.4,0,0.6,0c0,0,0-0.5,0-0.6c0-0.2,0-0.4,0-0.7
													c0-0.4,0.1-0.7,0.1-1.1c0-0.1,0-0.2,0.1-0.3c0-0.2,0.1-0.5,0.3-0.6c-0.1,0-0.3-0.1-0.4-0.1C29,68,26.5,66.4,25,63.7
													c-1.4-2.6-2-6-0.4-8.7c0.2-0.4,0.7-1,1.2-1.1c-0.2,0-0.4-0.1-0.6-0.1c-1-0.1-2-0.1-2.9-0.1c-0.9-0.1-1.9-0.1-2.8-0.2
													c-6.6-0.4-13.2-0.5-19.8-0.8"/>
											</defs>
											<defs>
												<path id="SVGID_135_" d="M-3.9,59.3c0.1,1.3,0.3,2.7,0.3,4c0,2.1,0.3,4.2,0.5,6.3c0.1,1.3,0.2,2.7,0.2,4
													c0-0.1,3.7-0.3,3.9-0.3c4.2,0,8.3-0.2,12.5-0.2c0.9,0,1.8,0.1,2.7,0c0.7,0,1.4-0.2,2-0.3c0.3,0,1.1,0.1,1.2-0.4
													c0.1-0.2,0-0.4,0.1-0.6c0.5-0.8,1.5-0.8,2.3-0.5c0.3,0.1,0.5,0.4,0.6,0.6c0.1,0.2,0,0.5,0.2,0.6
													c0.2,0.1,0.6,0.1,0.8,0.1c1.7,0,3.3,0.1,5-0.1c0.1,0,0.2,0,0.2,0c0.1-0.1,0.1-0.3,0.2-0.4c0.3-0.4,0.8-0.7,1.3-0.6
													c0.2,0,0.4,0.1,0.6,0.2c0.1,0.1,0.3,0.4,0.2,0.6c0.2,0,0.4,0,0.6,0c0,0,0-0.5,0-0.6c0-0.2,0-0.4,0-0.7
													c0-0.4,0.1-0.7,0.1-1.1c0-0.1,0-0.2,0.1-0.3c0-0.2,0.1-0.5,0.3-0.6c-0.1,0-0.3-0.1-0.4-0.1C29,68,26.5,66.4,25,63.7
													c-1.4-2.6-2-6-0.4-8.7c0.2-0.4,0.7-1,1.2-1.1c-0.2,0-0.4-0.1-0.6-0.1c-1-0.1-2-0.1-2.9-0.1c-0.9-0.1-1.9-0.1-2.8-0.2
													c-6.6-0.4-13.2-0.5-19.8-0.8"/>
											</defs>
											<defs>
												<path id="SVGID_136_" d="M-3.9,59.3c0.1,1.3,0.3,2.7,0.3,4c0,2.1,0.3,4.2,0.5,6.3c0.1,1.3,0.2,2.7,0.2,4
													c0-0.1,3.7-0.3,3.9-0.3c4.2,0,8.3-0.2,12.5-0.2c0.9,0,1.8,0.1,2.7,0c0.7,0,1.4-0.2,2-0.3c0.3,0,1.1,0.1,1.2-0.4
													c0.1-0.2,0-0.4,0.1-0.6c0.5-0.8,1.5-0.8,2.3-0.5c0.3,0.1,0.5,0.4,0.6,0.6c0.1,0.2,0,0.5,0.2,0.6
													c0.2,0.1,0.6,0.1,0.8,0.1c1.7,0,3.3,0.1,5-0.1c0.1,0,0.2,0,0.2,0c0.1-0.1,0.1-0.3,0.2-0.4c0.3-0.4,0.8-0.7,1.3-0.6
													c0.2,0,0.4,0.1,0.6,0.2c0.1,0.1,0.3,0.4,0.2,0.6c0.2,0,0.4,0,0.6,0c0,0,0-0.5,0-0.6c0-0.2,0-0.4,0-0.7
													c0-0.4,0.1-0.7,0.1-1.1c0-0.1,0-0.2,0.1-0.3c0-0.2,0.1-0.5,0.3-0.6c-0.1,0-0.3-0.1-0.4-0.1C29,68,26.5,66.4,25,63.7
													c-1.4-2.6-2-6-0.4-8.7c0.2-0.4,0.7-1,1.2-1.1c-0.2,0-0.4-0.1-0.6-0.1c-1-0.1-2-0.1-2.9-0.1c-0.9-0.1-1.9-0.1-2.8-0.2
													c-6.6-0.4-13.2-0.5-19.8-0.8"/>
											</defs>
											<defs>
												<path id="SVGID_137_" d="M-3.9,59.3c0.1,1.3,0.3,2.7,0.3,4c0,2.1,0.3,4.2,0.5,6.3c0.1,1.3,0.2,2.7,0.2,4
													c0-0.1,3.7-0.3,3.9-0.3c4.2,0,8.3-0.2,12.5-0.2c0.9,0,1.8,0.1,2.7,0c0.7,0,1.4-0.2,2-0.3c0.3,0,1.1,0.1,1.2-0.4
													c0.1-0.2,0-0.4,0.1-0.6c0.5-0.8,1.5-0.8,2.3-0.5c0.3,0.1,0.5,0.4,0.6,0.6c0.1,0.2,0,0.5,0.2,0.6
													c0.2,0.1,0.6,0.1,0.8,0.1c1.7,0,3.3,0.1,5-0.1c0.1,0,0.2,0,0.2,0c0.1-0.1,0.1-0.3,0.2-0.4c0.3-0.4,0.8-0.7,1.3-0.6
													c0.2,0,0.4,0.1,0.6,0.2c0.1,0.1,0.3,0.4,0.2,0.6c0.2,0,0.4,0,0.6,0c0,0,0-0.5,0-0.6c0-0.2,0-0.4,0-0.7
													c0-0.4,0.1-0.7,0.1-1.1c0-0.1,0-0.2,0.1-0.3c0-0.2,0.1-0.5,0.3-0.6c-0.1,0-0.3-0.1-0.4-0.1C29,68,26.5,66.4,25,63.7
													c-1.4-2.6-2-6-0.4-8.7c0.2-0.4,0.7-1,1.2-1.1c-0.2,0-0.4-0.1-0.6-0.1c-1-0.1-2-0.1-2.9-0.1c-0.9-0.1-1.9-0.1-2.8-0.2
													c-6.6-0.4-13.2-0.5-19.8-0.8"/>
											</defs>
											<defs>
												<path id="SVGID_138_" d="M-3.9,59.3c0.1,1.3,0.3,2.7,0.3,4c0,2.1,0.3,4.2,0.5,6.3c0.1,1.3,0.2,2.7,0.2,4
													c0-0.1,3.7-0.3,3.9-0.3c4.2,0,8.3-0.2,12.5-0.2c0.9,0,1.8,0.1,2.7,0c0.7,0,1.4-0.2,2-0.3c0.3,0,1.1,0.1,1.2-0.4
													c0.1-0.2,0-0.4,0.1-0.6c0.5-0.8,1.5-0.8,2.3-0.5c0.3,0.1,0.5,0.4,0.6,0.6c0.1,0.2,0,0.5,0.2,0.6
													c0.2,0.1,0.6,0.1,0.8,0.1c1.7,0,3.3,0.1,5-0.1c0.1,0,0.2,0,0.2,0c0.1-0.1,0.1-0.3,0.2-0.4c0.3-0.4,0.8-0.7,1.3-0.6
													c0.2,0,0.4,0.1,0.6,0.2c0.1,0.1,0.3,0.4,0.2,0.6c0.2,0,0.4,0,0.6,0c0,0,0-0.5,0-0.6c0-0.2,0-0.4,0-0.7
													c0-0.4,0.1-0.7,0.1-1.1c0-0.1,0-0.2,0.1-0.3c0-0.2,0.1-0.5,0.3-0.6c-0.1,0-0.3-0.1-0.4-0.1C29,68,26.5,66.4,25,63.7
													c-1.4-2.6-2-6-0.4-8.7c0.2-0.4,0.7-1,1.2-1.1c-0.2,0-0.4-0.1-0.6-0.1c-1-0.1-2-0.1-2.9-0.1c-0.9-0.1-1.9-0.1-2.8-0.2
													c-6.6-0.4-13.2-0.5-19.8-0.8"/>
											</defs>
											<defs>
												<path id="SVGID_139_" d="M-3.9,59.3c0.1,1.3,0.3,2.7,0.3,4c0,2.1,0.3,4.2,0.5,6.3c0.1,1.3,0.2,2.7,0.2,4
													c0-0.1,3.7-0.3,3.9-0.3c4.2,0,8.3-0.2,12.5-0.2c0.9,0,1.8,0.1,2.7,0c0.7,0,1.4-0.2,2-0.3c0.3,0,1.1,0.1,1.2-0.4
													c0.1-0.2,0-0.4,0.1-0.6c0.5-0.8,1.5-0.8,2.3-0.5c0.3,0.1,0.5,0.4,0.6,0.6c0.1,0.2,0,0.5,0.2,0.6
													c0.2,0.1,0.6,0.1,0.8,0.1c1.7,0,3.3,0.1,5-0.1c0.1,0,0.2,0,0.2,0c0.1-0.1,0.1-0.3,0.2-0.4c0.3-0.4,0.8-0.7,1.3-0.6
													c0.2,0,0.4,0.1,0.6,0.2c0.1,0.1,0.3,0.4,0.2,0.6c0.2,0,0.4,0,0.6,0c0,0,0-0.5,0-0.6c0-0.2,0-0.4,0-0.7
													c0-0.4,0.1-0.7,0.1-1.1c0-0.1,0-0.2,0.1-0.3c0-0.2,0.1-0.5,0.3-0.6c-0.1,0-0.3-0.1-0.4-0.1C29,68,26.5,66.4,25,63.7
													c-1.4-2.6-2-6-0.4-8.7c0.2-0.4,0.7-1,1.2-1.1c-0.2,0-0.4-0.1-0.6-0.1c-1-0.1-2-0.1-2.9-0.1c-0.9-0.1-1.9-0.1-2.8-0.2
													c-6.6-0.4-13.2-0.5-19.8-0.8"/>
											</defs>
											<defs>
												<path id="SVGID_140_" d="M-3.9,59.3c0.1,1.3,0.3,2.7,0.3,4c0,2.1,0.3,4.2,0.5,6.3c0.1,1.3,0.2,2.7,0.2,4
													c0-0.1,3.7-0.3,3.9-0.3c4.2,0,8.3-0.2,12.5-0.2c0.9,0,1.8,0.1,2.7,0c0.7,0,1.4-0.2,2-0.3c0.3,0,1.1,0.1,1.2-0.4
													c0.1-0.2,0-0.4,0.1-0.6c0.5-0.8,1.5-0.8,2.3-0.5c0.3,0.1,0.5,0.4,0.6,0.6c0.1,0.2,0,0.5,0.2,0.6
													c0.2,0.1,0.6,0.1,0.8,0.1c1.7,0,3.3,0.1,5-0.1c0.1,0,0.2,0,0.2,0c0.1-0.1,0.1-0.3,0.2-0.4c0.3-0.4,0.8-0.7,1.3-0.6
													c0.2,0,0.4,0.1,0.6,0.2c0.1,0.1,0.3,0.4,0.2,0.6c0.2,0,0.4,0,0.6,0c0,0,0-0.5,0-0.6c0-0.2,0-0.4,0-0.7
													c0-0.4,0.1-0.7,0.1-1.1c0-0.1,0-0.2,0.1-0.3c0-0.2,0.1-0.5,0.3-0.6c-0.1,0-0.3-0.1-0.4-0.1C29,68,26.5,66.4,25,63.7
													c-1.4-2.6-2-6-0.4-8.7c0.2-0.4,0.7-1,1.2-1.1c-0.2,0-0.4-0.1-0.6-0.1c-1-0.1-2-0.1-2.9-0.1c-0.9-0.1-1.9-0.1-2.8-0.2
													c-6.6-0.4-13.2-0.5-19.8-0.8"/>
											</defs>
											<defs>
												<path id="SVGID_141_" d="M-3.9,59.3c0.1,1.3,0.3,2.7,0.3,4c0,2.1,0.3,4.2,0.5,6.3c0.1,1.3,0.2,2.7,0.2,4
													c0-0.1,3.7-0.3,3.9-0.3c4.2,0,8.3-0.2,12.5-0.2c0.9,0,1.8,0.1,2.7,0c0.7,0,1.4-0.2,2-0.3c0.3,0,1.1,0.1,1.2-0.4
													c0.1-0.2,0-0.4,0.1-0.6c0.5-0.8,1.5-0.8,2.3-0.5c0.3,0.1,0.5,0.4,0.6,0.6c0.1,0.2,0,0.5,0.2,0.6
													c0.2,0.1,0.6,0.1,0.8,0.1c1.7,0,3.3,0.1,5-0.1c0.1,0,0.2,0,0.2,0c0.1-0.1,0.1-0.3,0.2-0.4c0.3-0.4,0.8-0.7,1.3-0.6
													c0.2,0,0.4,0.1,0.6,0.2c0.1,0.1,0.3,0.4,0.2,0.6c0.2,0,0.4,0,0.6,0c0,0,0-0.5,0-0.6c0-0.2,0-0.4,0-0.7
													c0-0.4,0.1-0.7,0.1-1.1c0-0.1,0-0.2,0.1-0.3c0-0.2,0.1-0.5,0.3-0.6c-0.1,0-0.3-0.1-0.4-0.1C29,68,26.5,66.4,25,63.7
													c-1.4-2.6-2-6-0.4-8.7c0.2-0.4,0.7-1,1.2-1.1c-0.2,0-0.4-0.1-0.6-0.1c-1-0.1-2-0.1-2.9-0.1c-0.9-0.1-1.9-0.1-2.8-0.2
													c-6.6-0.4-13.2-0.5-19.8-0.8"/>
											</defs>
											<defs>
												<path id="SVGID_142_" d="M-3.9,59.3c0.1,1.3,0.3,2.7,0.3,4c0,2.1,0.3,4.2,0.5,6.3c0.1,1.3,0.2,2.7,0.2,4
													c0-0.1,3.7-0.3,3.9-0.3c4.2,0,8.3-0.2,12.5-0.2c0.9,0,1.8,0.1,2.7,0c0.7,0,1.4-0.2,2-0.3c0.3,0,1.1,0.1,1.2-0.4
													c0.1-0.2,0-0.4,0.1-0.6c0.5-0.8,1.5-0.8,2.3-0.5c0.3,0.1,0.5,0.4,0.6,0.6c0.1,0.2,0,0.5,0.2,0.6
													c0.2,0.1,0.6,0.1,0.8,0.1c1.7,0,3.3,0.1,5-0.1c0.1,0,0.2,0,0.2,0c0.1-0.1,0.1-0.3,0.2-0.4c0.3-0.4,0.8-0.7,1.3-0.6
													c0.2,0,0.4,0.1,0.6,0.2c0.1,0.1,0.3,0.4,0.2,0.6c0.2,0,0.4,0,0.6,0c0,0,0-0.5,0-0.6c0-0.2,0-0.4,0-0.7
													c0-0.4,0.1-0.7,0.1-1.1c0-0.1,0-0.2,0.1-0.3c0-0.2,0.1-0.5,0.3-0.6c-0.1,0-0.3-0.1-0.4-0.1C29,68,26.5,66.4,25,63.7
													c-1.4-2.6-2-6-0.4-8.7c0.2-0.4,0.7-1,1.2-1.1c-0.2,0-0.4-0.1-0.6-0.1c-1-0.1-2-0.1-2.9-0.1c-0.9-0.1-1.9-0.1-2.8-0.2
													c-6.6-0.4-13.2-0.5-19.8-0.8"/>
											</defs>
											<defs>
												<path id="SVGID_143_" d="M-3.9,59.3c0.1,1.3,0.3,2.7,0.3,4c0,2.1,0.3,4.2,0.5,6.3c0.1,1.3,0.2,2.7,0.2,4
													c0-0.1,3.7-0.3,3.9-0.3c4.2,0,8.3-0.2,12.5-0.2c0.9,0,1.8,0.1,2.7,0c0.7,0,1.4-0.2,2-0.3c0.3,0,1.1,0.1,1.2-0.4
													c0.1-0.2,0-0.4,0.1-0.6c0.5-0.8,1.5-0.8,2.3-0.5c0.3,0.1,0.5,0.4,0.6,0.6c0.1,0.2,0,0.5,0.2,0.6
													c0.2,0.1,0.6,0.1,0.8,0.1c1.7,0,3.3,0.1,5-0.1c0.1,0,0.2,0,0.2,0c0.1-0.1,0.1-0.3,0.2-0.4c0.3-0.4,0.8-0.7,1.3-0.6
													c0.2,0,0.4,0.1,0.6,0.2c0.1,0.1,0.3,0.4,0.2,0.6c0.2,0,0.4,0,0.6,0c0,0,0-0.5,0-0.6c0-0.2,0-0.4,0-0.7
													c0-0.4,0.1-0.7,0.1-1.1c0-0.1,0-0.2,0.1-0.3c0-0.2,0.1-0.5,0.3-0.6c-0.1,0-0.3-0.1-0.4-0.1C29,68,26.5,66.4,25,63.7
													c-1.4-2.6-2-6-0.4-8.7c0.2-0.4,0.7-1,1.2-1.1c-0.2,0-0.4-0.1-0.6-0.1c-1-0.1-2-0.1-2.9-0.1c-0.9-0.1-1.9-0.1-2.8-0.2
													c-6.6-0.4-13.2-0.5-19.8-0.8"/>
											</defs>
											<defs>
												<path id="SVGID_144_" d="M-3.9,59.3c0.1,1.3,0.3,2.7,0.3,4c0,2.1,0.3,4.2,0.5,6.3c0.1,1.3,0.2,2.7,0.2,4
													c0-0.1,3.7-0.3,3.9-0.3c4.2,0,8.3-0.2,12.5-0.2c0.9,0,1.8,0.1,2.7,0c0.7,0,1.4-0.2,2-0.3c0.3,0,1.1,0.1,1.2-0.4
													c0.1-0.2,0-0.4,0.1-0.6c0.5-0.8,1.5-0.8,2.3-0.5c0.3,0.1,0.5,0.4,0.6,0.6c0.1,0.2,0,0.5,0.2,0.6
													c0.2,0.1,0.6,0.1,0.8,0.1c1.7,0,3.3,0.1,5-0.1c0.1,0,0.2,0,0.2,0c0.1-0.1,0.1-0.3,0.2-0.4c0.3-0.4,0.8-0.7,1.3-0.6
													c0.2,0,0.4,0.1,0.6,0.2c0.1,0.1,0.3,0.4,0.2,0.6c0.2,0,0.4,0,0.6,0c0,0,0-0.5,0-0.6c0-0.2,0-0.4,0-0.7
													c0-0.4,0.1-0.7,0.1-1.1c0-0.1,0-0.2,0.1-0.3c0-0.2,0.1-0.5,0.3-0.6c-0.1,0-0.3-0.1-0.4-0.1C29,68,26.5,66.4,25,63.7
													c-1.4-2.6-2-6-0.4-8.7c0.2-0.4,0.7-1,1.2-1.1c-0.2,0-0.4-0.1-0.6-0.1c-1-0.1-2-0.1-2.9-0.1c-0.9-0.1-1.9-0.1-2.8-0.2
													c-6.6-0.4-13.2-0.5-19.8-0.8"/>
											</defs>
											<defs>
												<path id="SVGID_145_" d="M-3.9,59.3c0.1,1.3,0.3,2.7,0.3,4c0,2.1,0.3,4.2,0.5,6.3c0.1,1.3,0.2,2.7,0.2,4
													c0-0.1,3.7-0.3,3.9-0.3c4.2,0,8.3-0.2,12.5-0.2c0.9,0,1.8,0.1,2.7,0c0.7,0,1.4-0.2,2-0.3c0.3,0,1.1,0.1,1.2-0.4
													c0.1-0.2,0-0.4,0.1-0.6c0.5-0.8,1.5-0.8,2.3-0.5c0.3,0.1,0.5,0.4,0.6,0.6c0.1,0.2,0,0.5,0.2,0.6
													c0.2,0.1,0.6,0.1,0.8,0.1c1.7,0,3.3,0.1,5-0.1c0.1,0,0.2,0,0.2,0c0.1-0.1,0.1-0.3,0.2-0.4c0.3-0.4,0.8-0.7,1.3-0.6
													c0.2,0,0.4,0.1,0.6,0.2c0.1,0.1,0.3,0.4,0.2,0.6c0.2,0,0.4,0,0.6,0c0,0,0-0.5,0-0.6c0-0.2,0-0.4,0-0.7
													c0-0.4,0.1-0.7,0.1-1.1c0-0.1,0-0.2,0.1-0.3c0-0.2,0.1-0.5,0.3-0.6c-0.1,0-0.3-0.1-0.4-0.1C29,68,26.5,66.4,25,63.7
													c-1.4-2.6-2-6-0.4-8.7c0.2-0.4,0.7-1,1.2-1.1c-0.2,0-0.4-0.1-0.6-0.1c-1-0.1-2-0.1-2.9-0.1c-0.9-0.1-1.9-0.1-2.8-0.2
													c-6.6-0.4-13.2-0.5-19.8-0.8"/>
											</defs>
											<defs>
												<path id="SVGID_146_" d="M-3.9,59.3c0.1,1.3,0.3,2.7,0.3,4c0,2.1,0.3,4.2,0.5,6.3c0.1,1.3,0.2,2.7,0.2,4
													c0-0.1,3.7-0.3,3.9-0.3c4.2,0,8.3-0.2,12.5-0.2c0.9,0,1.8,0.1,2.7,0c0.7,0,1.4-0.2,2-0.3c0.3,0,1.1,0.1,1.2-0.4
													c0.1-0.2,0-0.4,0.1-0.6c0.5-0.8,1.5-0.8,2.3-0.5c0.3,0.1,0.5,0.4,0.6,0.6c0.1,0.2,0,0.5,0.2,0.6
													c0.2,0.1,0.6,0.1,0.8,0.1c1.7,0,3.3,0.1,5-0.1c0.1,0,0.2,0,0.2,0c0.1-0.1,0.1-0.3,0.2-0.4c0.3-0.4,0.8-0.7,1.3-0.6
													c0.2,0,0.4,0.1,0.6,0.2c0.1,0.1,0.3,0.4,0.2,0.6c0.2,0,0.4,0,0.6,0c0,0,0-0.5,0-0.6c0-0.2,0-0.4,0-0.7
													c0-0.4,0.1-0.7,0.1-1.1c0-0.1,0-0.2,0.1-0.3c0-0.2,0.1-0.5,0.3-0.6c-0.1,0-0.3-0.1-0.4-0.1C29,68,26.5,66.4,25,63.7
													c-1.4-2.6-2-6-0.4-8.7c0.2-0.4,0.7-1,1.2-1.1c-0.2,0-0.4-0.1-0.6-0.1c-1-0.1-2-0.1-2.9-0.1c-0.9-0.1-1.9-0.1-2.8-0.2
													c-6.6-0.4-13.2-0.5-19.8-0.8"/>
											</defs>
											<defs>
												<path id="SVGID_147_" d="M-3.9,59.3c0.1,1.3,0.3,2.7,0.3,4c0,2.1,0.3,4.2,0.5,6.3c0.1,1.3,0.2,2.7,0.2,4
													c0-0.1,3.7-0.3,3.9-0.3c4.2,0,8.3-0.2,12.5-0.2c0.9,0,1.8,0.1,2.7,0c0.7,0,1.4-0.2,2-0.3c0.3,0,1.1,0.1,1.2-0.4
													c0.1-0.2,0-0.4,0.1-0.6c0.5-0.8,1.5-0.8,2.3-0.5c0.3,0.1,0.5,0.4,0.6,0.6c0.1,0.2,0,0.5,0.2,0.6
													c0.2,0.1,0.6,0.1,0.8,0.1c1.7,0,3.3,0.1,5-0.1c0.1,0,0.2,0,0.2,0c0.1-0.1,0.1-0.3,0.2-0.4c0.3-0.4,0.8-0.7,1.3-0.6
													c0.2,0,0.4,0.1,0.6,0.2c0.1,0.1,0.3,0.4,0.2,0.6c0.2,0,0.4,0,0.6,0c0,0,0-0.5,0-0.6c0-0.2,0-0.4,0-0.7
													c0-0.4,0.1-0.7,0.1-1.1c0-0.1,0-0.2,0.1-0.3c0-0.2,0.1-0.5,0.3-0.6c-0.1,0-0.3-0.1-0.4-0.1C29,68,26.5,66.4,25,63.7
													c-1.4-2.6-2-6-0.4-8.7c0.2-0.4,0.7-1,1.2-1.1c-0.2,0-0.4-0.1-0.6-0.1c-1-0.1-2-0.1-2.9-0.1c-0.9-0.1-1.9-0.1-2.8-0.2
													c-6.6-0.4-13.2-0.5-19.8-0.8"/>
											</defs>
											<defs>
												<path id="SVGID_148_" d="M-3.9,59.3c0.1,1.3,0.3,2.7,0.3,4c0,2.1,0.3,4.2,0.5,6.3c0.1,1.3,0.2,2.7,0.2,4
													c0-0.1,3.7-0.3,3.9-0.3c4.2,0,8.3-0.2,12.5-0.2c0.9,0,1.8,0.1,2.7,0c0.7,0,1.4-0.2,2-0.3c0.3,0,1.1,0.1,1.2-0.4
													c0.1-0.2,0-0.4,0.1-0.6c0.5-0.8,1.5-0.8,2.3-0.5c0.3,0.1,0.5,0.4,0.6,0.6c0.1,0.2,0,0.5,0.2,0.6
													c0.2,0.1,0.6,0.1,0.8,0.1c1.7,0,3.3,0.1,5-0.1c0.1,0,0.2,0,0.2,0c0.1-0.1,0.1-0.3,0.2-0.4c0.3-0.4,0.8-0.7,1.3-0.6
													c0.2,0,0.4,0.1,0.6,0.2c0.1,0.1,0.3,0.4,0.2,0.6c0.2,0,0.4,0,0.6,0c0,0,0-0.5,0-0.6c0-0.2,0-0.4,0-0.7
													c0-0.4,0.1-0.7,0.1-1.1c0-0.1,0-0.2,0.1-0.3c0-0.2,0.1-0.5,0.3-0.6c-0.1,0-0.3-0.1-0.4-0.1C29,68,26.5,66.4,25,63.7
													c-1.4-2.6-2-6-0.4-8.7c0.2-0.4,0.7-1,1.2-1.1c-0.2,0-0.4-0.1-0.6-0.1c-1-0.1-2-0.1-2.9-0.1c-0.9-0.1-1.9-0.1-2.8-0.2
													c-6.6-0.4-13.2-0.5-19.8-0.8"/>
											</defs>
											<defs>
												<path id="SVGID_149_" d="M-3.9,59.3c0.1,1.3,0.3,2.7,0.3,4c0,2.1,0.3,4.2,0.5,6.3c0.1,1.3,0.2,2.7,0.2,4
													c0-0.1,3.7-0.3,3.9-0.3c4.2,0,8.3-0.2,12.5-0.2c0.9,0,1.8,0.1,2.7,0c0.7,0,1.4-0.2,2-0.3c0.3,0,1.1,0.1,1.2-0.4
													c0.1-0.2,0-0.4,0.1-0.6c0.5-0.8,1.5-0.8,2.3-0.5c0.3,0.1,0.5,0.4,0.6,0.6c0.1,0.2,0,0.5,0.2,0.6
													c0.2,0.1,0.6,0.1,0.8,0.1c1.7,0,3.3,0.1,5-0.1c0.1,0,0.2,0,0.2,0c0.1-0.1,0.1-0.3,0.2-0.4c0.3-0.4,0.8-0.7,1.3-0.6
													c0.2,0,0.4,0.1,0.6,0.2c0.1,0.1,0.3,0.4,0.2,0.6c0.2,0,0.4,0,0.6,0c0,0,0-0.5,0-0.6c0-0.2,0-0.4,0-0.7
													c0-0.4,0.1-0.7,0.1-1.1c0-0.1,0-0.2,0.1-0.3c0-0.2,0.1-0.5,0.3-0.6c-0.1,0-0.3-0.1-0.4-0.1C29,68,26.5,66.4,25,63.7
													c-1.4-2.6-2-6-0.4-8.7c0.2-0.4,0.7-1,1.2-1.1c-0.2,0-0.4-0.1-0.6-0.1c-1-0.1-2-0.1-2.9-0.1c-0.9-0.1-1.9-0.1-2.8-0.2
													c-6.6-0.4-13.2-0.5-19.8-0.8"/>
											</defs>
											<defs>
												<path id="SVGID_150_" d="M-3.9,59.3c0.1,1.3,0.3,2.7,0.3,4c0,2.1,0.3,4.2,0.5,6.3c0.1,1.3,0.2,2.7,0.2,4
													c0-0.1,3.7-0.3,3.9-0.3c4.2,0,8.3-0.2,12.5-0.2c0.9,0,1.8,0.1,2.7,0c0.7,0,1.4-0.2,2-0.3c0.3,0,1.1,0.1,1.2-0.4
													c0.1-0.2,0-0.4,0.1-0.6c0.5-0.8,1.5-0.8,2.3-0.5c0.3,0.1,0.5,0.4,0.6,0.6c0.1,0.2,0,0.5,0.2,0.6
													c0.2,0.1,0.6,0.1,0.8,0.1c1.7,0,3.3,0.1,5-0.1c0.1,0,0.2,0,0.2,0c0.1-0.1,0.1-0.3,0.2-0.4c0.3-0.4,0.8-0.7,1.3-0.6
													c0.2,0,0.4,0.1,0.6,0.2c0.1,0.1,0.3,0.4,0.2,0.6c0.2,0,0.4,0,0.6,0c0,0,0-0.5,0-0.6c0-0.2,0-0.4,0-0.7
													c0-0.4,0.1-0.7,0.1-1.1c0-0.1,0-0.2,0.1-0.3c0-0.2,0.1-0.5,0.3-0.6c-0.1,0-0.3-0.1-0.4-0.1C29,68,26.5,66.4,25,63.7
													c-1.4-2.6-2-6-0.4-8.7c0.2-0.4,0.7-1,1.2-1.1c-0.2,0-0.4-0.1-0.6-0.1c-1-0.1-2-0.1-2.9-0.1c-0.9-0.1-1.9-0.1-2.8-0.2
													c-6.6-0.4-13.2-0.5-19.8-0.8"/>
											</defs>
											<defs>
												<path id="SVGID_151_" d="M-3.9,59.3c0.1,1.3,0.3,2.7,0.3,4c0,2.1,0.3,4.2,0.5,6.3c0.1,1.3,0.2,2.7,0.2,4
													c0-0.1,3.7-0.3,3.9-0.3c4.2,0,8.3-0.2,12.5-0.2c0.9,0,1.8,0.1,2.7,0c0.7,0,1.4-0.2,2-0.3c0.3,0,1.1,0.1,1.2-0.4
													c0.1-0.2,0-0.4,0.1-0.6c0.5-0.8,1.5-0.8,2.3-0.5c0.3,0.1,0.5,0.4,0.6,0.6c0.1,0.2,0,0.5,0.2,0.6
													c0.2,0.1,0.6,0.1,0.8,0.1c1.7,0,3.3,0.1,5-0.1c0.1,0,0.2,0,0.2,0c0.1-0.1,0.1-0.3,0.2-0.4c0.3-0.4,0.8-0.7,1.3-0.6
													c0.2,0,0.4,0.1,0.6,0.2c0.1,0.1,0.3,0.4,0.2,0.6c0.2,0,0.4,0,0.6,0c0,0,0-0.5,0-0.6c0-0.2,0-0.4,0-0.7
													c0-0.4,0.1-0.7,0.1-1.1c0-0.1,0-0.2,0.1-0.3c0-0.2,0.1-0.5,0.3-0.6c-0.1,0-0.3-0.1-0.4-0.1C29,68,26.5,66.4,25,63.7
													c-1.4-2.6-2-6-0.4-8.7c0.2-0.4,0.7-1,1.2-1.1c-0.2,0-0.4-0.1-0.6-0.1c-1-0.1-2-0.1-2.9-0.1c-0.9-0.1-1.9-0.1-2.8-0.2
													c-6.6-0.4-13.2-0.5-19.8-0.8"/>
											</defs>
											<defs>
												<path id="SVGID_152_" d="M-3.9,59.3c0.1,1.3,0.3,2.7,0.3,4c0,2.1,0.3,4.2,0.5,6.3c0.1,1.3,0.2,2.7,0.2,4
													c0-0.1,3.7-0.3,3.9-0.3c4.2,0,8.3-0.2,12.5-0.2c0.9,0,1.8,0.1,2.7,0c0.7,0,1.4-0.2,2-0.3c0.3,0,1.1,0.1,1.2-0.4
													c0.1-0.2,0-0.4,0.1-0.6c0.5-0.8,1.5-0.8,2.3-0.5c0.3,0.1,0.5,0.4,0.6,0.6c0.1,0.2,0,0.5,0.2,0.6
													c0.2,0.1,0.6,0.1,0.8,0.1c1.7,0,3.3,0.1,5-0.1c0.1,0,0.2,0,0.2,0c0.1-0.1,0.1-0.3,0.2-0.4c0.3-0.4,0.8-0.7,1.3-0.6
													c0.2,0,0.4,0.1,0.6,0.2c0.1,0.1,0.3,0.4,0.2,0.6c0.2,0,0.4,0,0.6,0c0,0,0-0.5,0-0.6c0-0.2,0-0.4,0-0.7
													c0-0.4,0.1-0.7,0.1-1.1c0-0.1,0-0.2,0.1-0.3c0-0.2,0.1-0.5,0.3-0.6c-0.1,0-0.3-0.1-0.4-0.1C29,68,26.5,66.4,25,63.7
													c-1.4-2.6-2-6-0.4-8.7c0.2-0.4,0.7-1,1.2-1.1c-0.2,0-0.4-0.1-0.6-0.1c-1-0.1-2-0.1-2.9-0.1c-0.9-0.1-1.9-0.1-2.8-0.2
													c-6.6-0.4-13.2-0.5-19.8-0.8"/>
											</defs>
											<defs>
												<path id="SVGID_153_" d="M-3.9,59.3c0.1,1.3,0.3,2.7,0.3,4c0,2.1,0.3,4.2,0.5,6.3c0.1,1.3,0.2,2.7,0.2,4
													c0-0.1,3.7-0.3,3.9-0.3c4.2,0,8.3-0.2,12.5-0.2c0.9,0,1.8,0.1,2.7,0c0.7,0,1.4-0.2,2-0.3c0.3,0,1.1,0.1,1.2-0.4
													c0.1-0.2,0-0.4,0.1-0.6c0.5-0.8,1.5-0.8,2.3-0.5c0.3,0.1,0.5,0.4,0.6,0.6c0.1,0.2,0,0.5,0.2,0.6
													c0.2,0.1,0.6,0.1,0.8,0.1c1.7,0,3.3,0.1,5-0.1c0.1,0,0.2,0,0.2,0c0.1-0.1,0.1-0.3,0.2-0.4c0.3-0.4,0.8-0.7,1.3-0.6
													c0.2,0,0.4,0.1,0.6,0.2c0.1,0.1,0.3,0.4,0.2,0.6c0.2,0,0.4,0,0.6,0c0,0,0-0.5,0-0.6c0-0.2,0-0.4,0-0.7
													c0-0.4,0.1-0.7,0.1-1.1c0-0.1,0-0.2,0.1-0.3c0-0.2,0.1-0.5,0.3-0.6c-0.1,0-0.3-0.1-0.4-0.1C29,68,26.5,66.4,25,63.7
													c-1.4-2.6-2-6-0.4-8.7c0.2-0.4,0.7-1,1.2-1.1c-0.2,0-0.4-0.1-0.6-0.1c-1-0.1-2-0.1-2.9-0.1c-0.9-0.1-1.9-0.1-2.8-0.2
													c-6.6-0.4-13.2-0.5-19.8-0.8"/>
											</defs>
											<defs>
												<path id="SVGID_154_" d="M-3.9,59.3c0.1,1.3,0.3,2.7,0.3,4c0,2.1,0.3,4.2,0.5,6.3c0.1,1.3,0.2,2.7,0.2,4
													c0-0.1,3.7-0.3,3.9-0.3c4.2,0,8.3-0.2,12.5-0.2c0.9,0,1.8,0.1,2.7,0c0.7,0,1.4-0.2,2-0.3c0.3,0,1.1,0.1,1.2-0.4
													c0.1-0.2,0-0.4,0.1-0.6c0.5-0.8,1.5-0.8,2.3-0.5c0.3,0.1,0.5,0.4,0.6,0.6c0.1,0.2,0,0.5,0.2,0.6
													c0.2,0.1,0.6,0.1,0.8,0.1c1.7,0,3.3,0.1,5-0.1c0.1,0,0.2,0,0.2,0c0.1-0.1,0.1-0.3,0.2-0.4c0.3-0.4,0.8-0.7,1.3-0.6
													c0.2,0,0.4,0.1,0.6,0.2c0.1,0.1,0.3,0.4,0.2,0.6c0.2,0,0.4,0,0.6,0c0,0,0-0.5,0-0.6c0-0.2,0-0.4,0-0.7
													c0-0.4,0.1-0.7,0.1-1.1c0-0.1,0-0.2,0.1-0.3c0-0.2,0.1-0.5,0.3-0.6c-0.1,0-0.3-0.1-0.4-0.1C29,68,26.5,66.4,25,63.7
													c-1.4-2.6-2-6-0.4-8.7c0.2-0.4,0.7-1,1.2-1.1c-0.2,0-0.4-0.1-0.6-0.1c-1-0.1-2-0.1-2.9-0.1c-0.9-0.1-1.9-0.1-2.8-0.2
													c-6.6-0.4-13.2-0.5-19.8-0.8"/>
											</defs>
											<defs>
												<path id="SVGID_155_" d="M-3.9,59.3c0.1,1.3,0.3,2.7,0.3,4c0,2.1,0.3,4.2,0.5,6.3c0.1,1.3,0.2,2.7,0.2,4
													c0-0.1,3.7-0.3,3.9-0.3c4.2,0,8.3-0.2,12.5-0.2c0.9,0,1.8,0.1,2.7,0c0.7,0,1.4-0.2,2-0.3c0.3,0,1.1,0.1,1.2-0.4
													c0.1-0.2,0-0.4,0.1-0.6c0.5-0.8,1.5-0.8,2.3-0.5c0.3,0.1,0.5,0.4,0.6,0.6c0.1,0.2,0,0.5,0.2,0.6
													c0.2,0.1,0.6,0.1,0.8,0.1c1.7,0,3.3,0.1,5-0.1c0.1,0,0.2,0,0.2,0c0.1-0.1,0.1-0.3,0.2-0.4c0.3-0.4,0.8-0.7,1.3-0.6
													c0.2,0,0.4,0.1,0.6,0.2c0.1,0.1,0.3,0.4,0.2,0.6c0.2,0,0.4,0,0.6,0c0,0,0-0.5,0-0.6c0-0.2,0-0.4,0-0.7
													c0-0.4,0.1-0.7,0.1-1.1c0-0.1,0-0.2,0.1-0.3c0-0.2,0.1-0.5,0.3-0.6c-0.1,0-0.3-0.1-0.4-0.1C29,68,26.5,66.4,25,63.7
													c-1.4-2.6-2-6-0.4-8.7c0.2-0.4,0.7-1,1.2-1.1c-0.2,0-0.4-0.1-0.6-0.1c-1-0.1-2-0.1-2.9-0.1c-0.9-0.1-1.9-0.1-2.8-0.2
													c-6.6-0.4-13.2-0.5-19.8-0.8"/>
											</defs>
											<defs>
												<path id="SVGID_156_" d="M-3.9,59.3c0.1,1.3,0.3,2.7,0.3,4c0,2.1,0.3,4.2,0.5,6.3c0.1,1.3,0.2,2.7,0.2,4
													c0-0.1,3.7-0.3,3.9-0.3c4.2,0,8.3-0.2,12.5-0.2c0.9,0,1.8,0.1,2.7,0c0.7,0,1.4-0.2,2-0.3c0.3,0,1.1,0.1,1.2-0.4
													c0.1-0.2,0-0.4,0.1-0.6c0.5-0.8,1.5-0.8,2.3-0.5c0.3,0.1,0.5,0.4,0.6,0.6c0.1,0.2,0,0.5,0.2,0.6
													c0.2,0.1,0.6,0.1,0.8,0.1c1.7,0,3.3,0.1,5-0.1c0.1,0,0.2,0,0.2,0c0.1-0.1,0.1-0.3,0.2-0.4c0.3-0.4,0.8-0.7,1.3-0.6
													c0.2,0,0.4,0.1,0.6,0.2c0.1,0.1,0.3,0.4,0.2,0.6c0.2,0,0.4,0,0.6,0c0,0,0-0.5,0-0.6c0-0.2,0-0.4,0-0.7
													c0-0.4,0.1-0.7,0.1-1.1c0-0.1,0-0.2,0.1-0.3c0-0.2,0.1-0.5,0.3-0.6c-0.1,0-0.3-0.1-0.4-0.1C29,68,26.5,66.4,25,63.7
													c-1.4-2.6-2-6-0.4-8.7c0.2-0.4,0.7-1,1.2-1.1c-0.2,0-0.4-0.1-0.6-0.1c-1-0.1-2-0.1-2.9-0.1c-0.9-0.1-1.9-0.1-2.8-0.2
													c-6.6-0.4-13.2-0.5-19.8-0.8"/>
											</defs>
											<defs>
												<path id="SVGID_157_" d="M-3.9,59.3c0.1,1.3,0.3,2.7,0.3,4c0,2.1,0.3,4.2,0.5,6.3c0.1,1.3,0.2,2.7,0.2,4
													c0-0.1,3.7-0.3,3.9-0.3c4.2,0,8.3-0.2,12.5-0.2c0.9,0,1.8,0.1,2.7,0c0.7,0,1.4-0.2,2-0.3c0.3,0,1.1,0.1,1.2-0.4
													c0.1-0.2,0-0.4,0.1-0.6c0.5-0.8,1.5-0.8,2.3-0.5c0.3,0.1,0.5,0.4,0.6,0.6c0.1,0.2,0,0.5,0.2,0.6
													c0.2,0.1,0.6,0.1,0.8,0.1c1.7,0,3.3,0.1,5-0.1c0.1,0,0.2,0,0.2,0c0.1-0.1,0.1-0.3,0.2-0.4c0.3-0.4,0.8-0.7,1.3-0.6
													c0.2,0,0.4,0.1,0.6,0.2c0.1,0.1,0.3,0.4,0.2,0.6c0.2,0,0.4,0,0.6,0c0,0,0-0.5,0-0.6c0-0.2,0-0.4,0-0.7
													c0-0.4,0.1-0.7,0.1-1.1c0-0.1,0-0.2,0.1-0.3c0-0.2,0.1-0.5,0.3-0.6c-0.1,0-0.3-0.1-0.4-0.1C29,68,26.5,66.4,25,63.7
													c-1.4-2.6-2-6-0.4-8.7c0.2-0.4,0.7-1,1.2-1.1c-0.2,0-0.4-0.1-0.6-0.1c-1-0.1-2-0.1-2.9-0.1c-0.9-0.1-1.9-0.1-2.8-0.2
													c-6.6-0.4-13.2-0.5-19.8-0.8"/>
											</defs>
											<defs>
												<path id="SVGID_158_" d="M-3.9,59.3c0.1,1.3,0.3,2.7,0.3,4c0,2.1,0.3,4.2,0.5,6.3c0.1,1.3,0.2,2.7,0.2,4
													c0-0.1,3.7-0.3,3.9-0.3c4.2,0,8.3-0.2,12.5-0.2c0.9,0,1.8,0.1,2.7,0c0.7,0,1.4-0.2,2-0.3c0.3,0,1.1,0.1,1.2-0.4
													c0.1-0.2,0-0.4,0.1-0.6c0.5-0.8,1.5-0.8,2.3-0.5c0.3,0.1,0.5,0.4,0.6,0.6c0.1,0.2,0,0.5,0.2,0.6
													c0.2,0.1,0.6,0.1,0.8,0.1c1.7,0,3.3,0.1,5-0.1c0.1,0,0.2,0,0.2,0c0.1-0.1,0.1-0.3,0.2-0.4c0.3-0.4,0.8-0.7,1.3-0.6
													c0.2,0,0.4,0.1,0.6,0.2c0.1,0.1,0.3,0.4,0.2,0.6c0.2,0,0.4,0,0.6,0c0,0,0-0.5,0-0.6c0-0.2,0-0.4,0-0.7
													c0-0.4,0.1-0.7,0.1-1.1c0-0.1,0-0.2,0.1-0.3c0-0.2,0.1-0.5,0.3-0.6c-0.1,0-0.3-0.1-0.4-0.1C29,68,26.5,66.4,25,63.7
													c-1.4-2.6-2-6-0.4-8.7c0.2-0.4,0.7-1,1.2-1.1c-0.2,0-0.4-0.1-0.6-0.1c-1-0.1-2-0.1-2.9-0.1c-0.9-0.1-1.9-0.1-2.8-0.2
													c-6.6-0.4-13.2-0.5-19.8-0.8"/>
											</defs>
											<defs>
												<path id="SVGID_159_" d="M-3.9,59.3c0.1,1.3,0.3,2.7,0.3,4c0,2.1,0.3,4.2,0.5,6.3c0.1,1.3,0.2,2.7,0.2,4
													c0-0.1,3.7-0.3,3.9-0.3c4.2,0,8.3-0.2,12.5-0.2c0.9,0,1.8,0.1,2.7,0c0.7,0,1.4-0.2,2-0.3c0.3,0,1.1,0.1,1.2-0.4
													c0.1-0.2,0-0.4,0.1-0.6c0.5-0.8,1.5-0.8,2.3-0.5c0.3,0.1,0.5,0.4,0.6,0.6c0.1,0.2,0,0.5,0.2,0.6
													c0.2,0.1,0.6,0.1,0.8,0.1c1.7,0,3.3,0.1,5-0.1c0.1,0,0.2,0,0.2,0c0.1-0.1,0.1-0.3,0.2-0.4c0.3-0.4,0.8-0.7,1.3-0.6
													c0.2,0,0.4,0.1,0.6,0.2c0.1,0.1,0.3,0.4,0.2,0.6c0.2,0,0.4,0,0.6,0c0,0,0-0.5,0-0.6c0-0.2,0-0.4,0-0.7
													c0-0.4,0.1-0.7,0.1-1.1c0-0.1,0-0.2,0.1-0.3c0-0.2,0.1-0.5,0.3-0.6c-0.1,0-0.3-0.1-0.4-0.1C29,68,26.5,66.4,25,63.7
													c-1.4-2.6-2-6-0.4-8.7c0.2-0.4,0.7-1,1.2-1.1c-0.2,0-0.4-0.1-0.6-0.1c-1-0.1-2-0.1-2.9-0.1c-0.9-0.1-1.9-0.1-2.8-0.2
													c-6.6-0.4-13.2-0.5-19.8-0.8"/>
											</defs>
											<defs>
												<path id="SVGID_160_" d="M-3.9,59.3c0.1,1.3,0.3,2.7,0.3,4c0,2.1,0.3,4.2,0.5,6.3c0.1,1.3,0.2,2.7,0.2,4
													c0-0.1,3.7-0.3,3.9-0.3c4.2,0,8.3-0.2,12.5-0.2c0.9,0,1.8,0.1,2.7,0c0.7,0,1.4-0.2,2-0.3c0.3,0,1.1,0.1,1.2-0.4
													c0.1-0.2,0-0.4,0.1-0.6c0.5-0.8,1.5-0.8,2.3-0.5c0.3,0.1,0.5,0.4,0.6,0.6c0.1,0.2,0,0.5,0.2,0.6
													c0.2,0.1,0.6,0.1,0.8,0.1c1.7,0,3.3,0.1,5-0.1c0.1,0,0.2,0,0.2,0c0.1-0.1,0.1-0.3,0.2-0.4c0.3-0.4,0.8-0.7,1.3-0.6
													c0.2,0,0.4,0.1,0.6,0.2c0.1,0.1,0.3,0.4,0.2,0.6c0.2,0,0.4,0,0.6,0c0,0,0-0.5,0-0.6c0-0.2,0-0.4,0-0.7
													c0-0.4,0.1-0.7,0.1-1.1c0-0.1,0-0.2,0.1-0.3c0-0.2,0.1-0.5,0.3-0.6c-0.1,0-0.3-0.1-0.4-0.1C29,68,26.5,66.4,25,63.7
													c-1.4-2.6-2-6-0.4-8.7c0.2-0.4,0.7-1,1.2-1.1c-0.2,0-0.4-0.1-0.6-0.1c-1-0.1-2-0.1-2.9-0.1c-0.9-0.1-1.9-0.1-2.8-0.2
													c-6.6-0.4-13.2-0.5-19.8-0.8"/>
											</defs>
											<defs>
												<path id="SVGID_161_" d="M-3.9,59.3c0.1,1.3,0.3,2.7,0.3,4c0,2.1,0.3,4.2,0.5,6.3c0.1,1.3,0.2,2.7,0.2,4
													c0-0.1,3.7-0.3,3.9-0.3c4.2,0,8.3-0.2,12.5-0.2c0.9,0,1.8,0.1,2.7,0c0.7,0,1.4-0.2,2-0.3c0.3,0,1.1,0.1,1.2-0.4
													c0.1-0.2,0-0.4,0.1-0.6c0.5-0.8,1.5-0.8,2.3-0.5c0.3,0.1,0.5,0.4,0.6,0.6c0.1,0.2,0,0.5,0.2,0.6
													c0.2,0.1,0.6,0.1,0.8,0.1c1.7,0,3.3,0.1,5-0.1c0.1,0,0.2,0,0.2,0c0.1-0.1,0.1-0.3,0.2-0.4c0.3-0.4,0.8-0.7,1.3-0.6
													c0.2,0,0.4,0.1,0.6,0.2c0.1,0.1,0.3,0.4,0.2,0.6c0.2,0,0.4,0,0.6,0c0,0,0-0.5,0-0.6c0-0.2,0-0.4,0-0.7
													c0-0.4,0.1-0.7,0.1-1.1c0-0.1,0-0.2,0.1-0.3c0-0.2,0.1-0.5,0.3-0.6c-0.1,0-0.3-0.1-0.4-0.1C29,68,26.5,66.4,25,63.7
													c-1.4-2.6-2-6-0.4-8.7c0.2-0.4,0.7-1,1.2-1.1c-0.2,0-0.4-0.1-0.6-0.1c-1-0.1-2-0.1-2.9-0.1c-0.9-0.1-1.9-0.1-2.8-0.2
													c-6.6-0.4-13.2-0.5-19.8-0.8"/>
											</defs>
											<defs>
												<path id="SVGID_162_" d="M-3.9,59.3c0.1,1.3,0.3,2.7,0.3,4c0,2.1,0.3,4.2,0.5,6.3c0.1,1.3,0.2,2.7,0.2,4
													c0-0.1,3.7-0.3,3.9-0.3c4.2,0,8.3-0.2,12.5-0.2c0.9,0,1.8,0.1,2.7,0c0.7,0,1.4-0.2,2-0.3c0.3,0,1.1,0.1,1.2-0.4
													c0.1-0.2,0-0.4,0.1-0.6c0.5-0.8,1.5-0.8,2.3-0.5c0.3,0.1,0.5,0.4,0.6,0.6c0.1,0.2,0,0.5,0.2,0.6
													c0.2,0.1,0.6,0.1,0.8,0.1c1.7,0,3.3,0.1,5-0.1c0.1,0,0.2,0,0.2,0c0.1-0.1,0.1-0.3,0.2-0.4c0.3-0.4,0.8-0.7,1.3-0.6
													c0.2,0,0.4,0.1,0.6,0.2c0.1,0.1,0.3,0.4,0.2,0.6c0.2,0,0.4,0,0.6,0c0,0,0-0.5,0-0.6c0-0.2,0-0.4,0-0.7
													c0-0.4,0.1-0.7,0.1-1.1c0-0.1,0-0.2,0.1-0.3c0-0.2,0.1-0.5,0.3-0.6c-0.1,0-0.3-0.1-0.4-0.1C29,68,26.5,66.4,25,63.7
													c-1.4-2.6-2-6-0.4-8.7c0.2-0.4,0.7-1,1.2-1.1c-0.2,0-0.4-0.1-0.6-0.1c-1-0.1-2-0.1-2.9-0.1c-0.9-0.1-1.9-0.1-2.8-0.2
													c-6.6-0.4-13.2-0.5-19.8-0.8"/>
											</defs>
											<defs>
												<path id="SVGID_163_" d="M-3.9,59.3c0.1,1.3,0.3,2.7,0.3,4c0,2.1,0.3,4.2,0.5,6.3c0.1,1.3,0.2,2.7,0.2,4
													c0-0.1,3.7-0.3,3.9-0.3c4.2,0,8.3-0.2,12.5-0.2c0.9,0,1.8,0.1,2.7,0c0.7,0,1.4-0.2,2-0.3c0.3,0,1.1,0.1,1.2-0.4
													c0.1-0.2,0-0.4,0.1-0.6c0.5-0.8,1.5-0.8,2.3-0.5c0.3,0.1,0.5,0.4,0.6,0.6c0.1,0.2,0,0.5,0.2,0.6
													c0.2,0.1,0.6,0.1,0.8,0.1c1.7,0,3.3,0.1,5-0.1c0.1,0,0.2,0,0.2,0c0.1-0.1,0.1-0.3,0.2-0.4c0.3-0.4,0.8-0.7,1.3-0.6
													c0.2,0,0.4,0.1,0.6,0.2c0.1,0.1,0.3,0.4,0.2,0.6c0.2,0,0.4,0,0.6,0c0,0,0-0.5,0-0.6c0-0.2,0-0.4,0-0.7
													c0-0.4,0.1-0.7,0.1-1.1c0-0.1,0-0.2,0.1-0.3c0-0.2,0.1-0.5,0.3-0.6c-0.1,0-0.3-0.1-0.4-0.1C29,68,26.5,66.4,25,63.7
													c-1.4-2.6-2-6-0.4-8.7c0.2-0.4,0.7-1,1.2-1.1c-0.2,0-0.4-0.1-0.6-0.1c-1-0.1-2-0.1-2.9-0.1c-0.9-0.1-1.9-0.1-2.8-0.2
													c-6.6-0.4-13.2-0.5-19.8-0.8"/>
											</defs>
											<defs>
												<path id="SVGID_164_" d="M-3.9,59.3c0.1,1.3,0.3,2.7,0.3,4c0,2.1,0.3,4.2,0.5,6.3c0.1,1.3,0.2,2.7,0.2,4
													c0-0.1,3.7-0.3,3.9-0.3c4.2,0,8.3-0.2,12.5-0.2c0.9,0,1.8,0.1,2.7,0c0.7,0,1.4-0.2,2-0.3c0.3,0,1.1,0.1,1.2-0.4
													c0.1-0.2,0-0.4,0.1-0.6c0.5-0.8,1.5-0.8,2.3-0.5c0.3,0.1,0.5,0.4,0.6,0.6c0.1,0.2,0,0.5,0.2,0.6
													c0.2,0.1,0.6,0.1,0.8,0.1c1.7,0,3.3,0.1,5-0.1c0.1,0,0.2,0,0.2,0c0.1-0.1,0.1-0.3,0.2-0.4c0.3-0.4,0.8-0.7,1.3-0.6
													c0.2,0,0.4,0.1,0.6,0.2c0.1,0.1,0.3,0.4,0.2,0.6c0.2,0,0.4,0,0.6,0c0,0,0-0.5,0-0.6c0-0.2,0-0.4,0-0.7
													c0-0.4,0.1-0.7,0.1-1.1c0-0.1,0-0.2,0.1-0.3c0-0.2,0.1-0.5,0.3-0.6c-0.1,0-0.3-0.1-0.4-0.1C29,68,26.5,66.4,25,63.7
													c-1.4-2.6-2-6-0.4-8.7c0.2-0.4,0.7-1,1.2-1.1c-0.2,0-0.4-0.1-0.6-0.1c-1-0.1-2-0.1-2.9-0.1c-0.9-0.1-1.9-0.1-2.8-0.2
													c-6.6-0.4-13.2-0.5-19.8-0.8"/>
											</defs>
											<defs>
												<path id="SVGID_165_" d="M-3.9,59.3c0.1,1.3,0.3,2.7,0.3,4c0,2.1,0.3,4.2,0.5,6.3c0.1,1.3,0.2,2.7,0.2,4
													c0-0.1,3.7-0.3,3.9-0.3c4.2,0,8.3-0.2,12.5-0.2c0.9,0,1.8,0.1,2.7,0c0.7,0,1.4-0.2,2-0.3c0.3,0,1.1,0.1,1.2-0.4
													c0.1-0.2,0-0.4,0.1-0.6c0.5-0.8,1.5-0.8,2.3-0.5c0.3,0.1,0.5,0.4,0.6,0.6c0.1,0.2,0,0.5,0.2,0.6
													c0.2,0.1,0.6,0.1,0.8,0.1c1.7,0,3.3,0.1,5-0.1c0.1,0,0.2,0,0.2,0c0.1-0.1,0.1-0.3,0.2-0.4c0.3-0.4,0.8-0.7,1.3-0.6
													c0.2,0,0.4,0.1,0.6,0.2c0.1,0.1,0.3,0.4,0.2,0.6c0.2,0,0.4,0,0.6,0c0,0,0-0.5,0-0.6c0-0.2,0-0.4,0-0.7
													c0-0.4,0.1-0.7,0.1-1.1c0-0.1,0-0.2,0.1-0.3c0-0.2,0.1-0.5,0.3-0.6c-0.1,0-0.3-0.1-0.4-0.1C29,68,26.5,66.4,25,63.7
													c-1.4-2.6-2-6-0.4-8.7c0.2-0.4,0.7-1,1.2-1.1c-0.2,0-0.4-0.1-0.6-0.1c-1-0.1-2-0.1-2.9-0.1c-0.9-0.1-1.9-0.1-2.8-0.2
													c-6.6-0.4-13.2-0.5-19.8-0.8"/>
											</defs>
											<defs>
												<path id="SVGID_166_" d="M-3.9,59.3c0.1,1.3,0.3,2.7,0.3,4c0,2.1,0.3,4.2,0.5,6.3c0.1,1.3,0.2,2.7,0.2,4
													c0-0.1,3.7-0.3,3.9-0.3c4.2,0,8.3-0.2,12.5-0.2c0.9,0,1.8,0.1,2.7,0c0.7,0,1.4-0.2,2-0.3c0.3,0,1.1,0.1,1.2-0.4
													c0.1-0.2,0-0.4,0.1-0.6c0.5-0.8,1.5-0.8,2.3-0.5c0.3,0.1,0.5,0.4,0.6,0.6c0.1,0.2,0,0.5,0.2,0.6
													c0.2,0.1,0.6,0.1,0.8,0.1c1.7,0,3.3,0.1,5-0.1c0.1,0,0.2,0,0.2,0c0.1-0.1,0.1-0.3,0.2-0.4c0.3-0.4,0.8-0.7,1.3-0.6
													c0.2,0,0.4,0.1,0.6,0.2c0.1,0.1,0.3,0.4,0.2,0.6c0.2,0,0.4,0,0.6,0c0,0,0-0.5,0-0.6c0-0.2,0-0.4,0-0.7
													c0-0.4,0.1-0.7,0.1-1.1c0-0.1,0-0.2,0.1-0.3c0-0.2,0.1-0.5,0.3-0.6c-0.1,0-0.3-0.1-0.4-0.1C29,68,26.5,66.4,25,63.7
													c-1.4-2.6-2-6-0.4-8.7c0.2-0.4,0.7-1,1.2-1.1c-0.2,0-0.4-0.1-0.6-0.1c-1-0.1-2-0.1-2.9-0.1c-0.9-0.1-1.9-0.1-2.8-0.2
													c-6.6-0.4-13.2-0.5-19.8-0.8"/>
											</defs>
											<defs>
												<path id="SVGID_167_" d="M-3.9,59.3c0.1,1.3,0.3,2.7,0.3,4c0,2.1,0.3,4.2,0.5,6.3c0.1,1.3,0.2,2.7,0.2,4
													c0-0.1,3.7-0.3,3.9-0.3c4.2,0,8.3-0.2,12.5-0.2c0.9,0,1.8,0.1,2.7,0c0.7,0,1.4-0.2,2-0.3c0.3,0,1.1,0.1,1.2-0.4
													c0.1-0.2,0-0.4,0.1-0.6c0.5-0.8,1.5-0.8,2.3-0.5c0.3,0.1,0.5,0.4,0.6,0.6c0.1,0.2,0,0.5,0.2,0.6
													c0.2,0.1,0.6,0.1,0.8,0.1c1.7,0,3.3,0.1,5-0.1c0.1,0,0.2,0,0.2,0c0.1-0.1,0.1-0.3,0.2-0.4c0.3-0.4,0.8-0.7,1.3-0.6
													c0.2,0,0.4,0.1,0.6,0.2c0.1,0.1,0.3,0.4,0.2,0.6c0.2,0,0.4,0,0.6,0c0,0,0-0.5,0-0.6c0-0.2,0-0.4,0-0.7
													c0-0.4,0.1-0.7,0.1-1.1c0-0.1,0-0.2,0.1-0.3c0-0.2,0.1-0.5,0.3-0.6c-0.1,0-0.3-0.1-0.4-0.1C29,68,26.5,66.4,25,63.7
													c-1.4-2.6-2-6-0.4-8.7c0.2-0.4,0.7-1,1.2-1.1c-0.2,0-0.4-0.1-0.6-0.1c-1-0.1-2-0.1-2.9-0.1c-0.9-0.1-1.9-0.1-2.8-0.2
													c-6.6-0.4-13.2-0.5-19.8-0.8"/>
											</defs>
											<defs>
												<path id="SVGID_168_" d="M-3.9,59.3c0.1,1.3,0.3,2.7,0.3,4c0,2.1,0.3,4.2,0.5,6.3c0.1,1.3,0.2,2.7,0.2,4
													c0-0.1,3.7-0.3,3.9-0.3c4.2,0,8.3-0.2,12.5-0.2c0.9,0,1.8,0.1,2.7,0c0.7,0,1.4-0.2,2-0.3c0.3,0,1.1,0.1,1.2-0.4
													c0.1-0.2,0-0.4,0.1-0.6c0.5-0.8,1.5-0.8,2.3-0.5c0.3,0.1,0.5,0.4,0.6,0.6c0.1,0.2,0,0.5,0.2,0.6
													c0.2,0.1,0.6,0.1,0.8,0.1c1.7,0,3.3,0.1,5-0.1c0.1,0,0.2,0,0.2,0c0.1-0.1,0.1-0.3,0.2-0.4c0.3-0.4,0.8-0.7,1.3-0.6
													c0.2,0,0.4,0.1,0.6,0.2c0.1,0.1,0.3,0.4,0.2,0.6c0.2,0,0.4,0,0.6,0c0,0,0-0.5,0-0.6c0-0.2,0-0.4,0-0.7
													c0-0.4,0.1-0.7,0.1-1.1c0-0.1,0-0.2,0.1-0.3c0-0.2,0.1-0.5,0.3-0.6c-0.1,0-0.3-0.1-0.4-0.1C29,68,26.5,66.4,25,63.7
													c-1.4-2.6-2-6-0.4-8.7c0.2-0.4,0.7-1,1.2-1.1c-0.2,0-0.4-0.1-0.6-0.1c-1-0.1-2-0.1-2.9-0.1c-0.9-0.1-1.9-0.1-2.8-0.2
													c-6.6-0.4-13.2-0.5-19.8-0.8"/>
											</defs>
											<defs>
												<path id="SVGID_169_" d="M-3.9,59.3c0.1,1.3,0.3,2.7,0.3,4c0,2.1,0.3,4.2,0.5,6.3c0.1,1.3,0.2,2.7,0.2,4
													c0-0.1,3.7-0.3,3.9-0.3c4.2,0,8.3-0.2,12.5-0.2c0.9,0,1.8,0.1,2.7,0c0.7,0,1.4-0.2,2-0.3c0.3,0,1.1,0.1,1.2-0.4
													c0.1-0.2,0-0.4,0.1-0.6c0.5-0.8,1.5-0.8,2.3-0.5c0.3,0.1,0.5,0.4,0.6,0.6c0.1,0.2,0,0.5,0.2,0.6
													c0.2,0.1,0.6,0.1,0.8,0.1c1.7,0,3.3,0.1,5-0.1c0.1,0,0.2,0,0.2,0c0.1-0.1,0.1-0.3,0.2-0.4c0.3-0.4,0.8-0.7,1.3-0.6
													c0.2,0,0.4,0.1,0.6,0.2c0.1,0.1,0.3,0.4,0.2,0.6c0.2,0,0.4,0,0.6,0c0,0,0-0.5,0-0.6c0-0.2,0-0.4,0-0.7
													c0-0.4,0.1-0.7,0.1-1.1c0-0.1,0-0.2,0.1-0.3c0-0.2,0.1-0.5,0.3-0.6c-0.1,0-0.3-0.1-0.4-0.1C29,68,26.5,66.4,25,63.7
													c-1.4-2.6-2-6-0.4-8.7c0.2-0.4,0.7-1,1.2-1.1c-0.2,0-0.4-0.1-0.6-0.1c-1-0.1-2-0.1-2.9-0.1c-0.9-0.1-1.9-0.1-2.8-0.2
													c-6.6-0.4-13.2-0.5-19.8-0.8"/>
											</defs>
											<defs>
												<path id="SVGID_170_" d="M-3.9,59.3c0.1,1.3,0.3,2.7,0.3,4c0,2.1,0.3,4.2,0.5,6.3c0.1,1.3,0.2,2.7,0.2,4
													c0-0.1,3.7-0.3,3.9-0.3c4.2,0,8.3-0.2,12.5-0.2c0.9,0,1.8,0.1,2.7,0c0.7,0,1.4-0.2,2-0.3c0.3,0,1.1,0.1,1.2-0.4
													c0.1-0.2,0-0.4,0.1-0.6c0.5-0.8,1.5-0.8,2.3-0.5c0.3,0.1,0.5,0.4,0.6,0.6c0.1,0.2,0,0.5,0.2,0.6
													c0.2,0.1,0.6,0.1,0.8,0.1c1.7,0,3.3,0.1,5-0.1c0.1,0,0.2,0,0.2,0c0.1-0.1,0.1-0.3,0.2-0.4c0.3-0.4,0.8-0.7,1.3-0.6
													c0.2,0,0.4,0.1,0.6,0.2c0.1,0.1,0.3,0.4,0.2,0.6c0.2,0,0.4,0,0.6,0c0,0,0-0.5,0-0.6c0-0.2,0-0.4,0-0.7
													c0-0.4,0.1-0.7,0.1-1.1c0-0.1,0-0.2,0.1-0.3c0-0.2,0.1-0.5,0.3-0.6c-0.1,0-0.3-0.1-0.4-0.1C29,68,26.5,66.4,25,63.7
													c-1.4-2.6-2-6-0.4-8.7c0.2-0.4,0.7-1,1.2-1.1c-0.2,0-0.4-0.1-0.6-0.1c-1-0.1-2-0.1-2.9-0.1c-0.9-0.1-1.9-0.1-2.8-0.2
													c-6.6-0.4-13.2-0.5-19.8-0.8"/>
											</defs>
											<defs>
												<path id="SVGID_171_" d="M-3.9,59.3c0.1,1.3,0.3,2.7,0.3,4c0,2.1,0.3,4.2,0.5,6.3c0.1,1.3,0.2,2.7,0.2,4
													c0-0.1,3.7-0.3,3.9-0.3c4.2,0,8.3-0.2,12.5-0.2c0.9,0,1.8,0.1,2.7,0c0.7,0,1.4-0.2,2-0.3c0.3,0,1.1,0.1,1.2-0.4
													c0.1-0.2,0-0.4,0.1-0.6c0.5-0.8,1.5-0.8,2.3-0.5c0.3,0.1,0.5,0.4,0.6,0.6c0.1,0.2,0,0.5,0.2,0.6
													c0.2,0.1,0.6,0.1,0.8,0.1c1.7,0,3.3,0.1,5-0.1c0.1,0,0.2,0,0.2,0c0.1-0.1,0.1-0.3,0.2-0.4c0.3-0.4,0.8-0.7,1.3-0.6
													c0.2,0,0.4,0.1,0.6,0.2c0.1,0.1,0.3,0.4,0.2,0.6c0.2,0,0.4,0,0.6,0c0,0,0-0.5,0-0.6c0-0.2,0-0.4,0-0.7
													c0-0.4,0.1-0.7,0.1-1.1c0-0.1,0-0.2,0.1-0.3c0-0.2,0.1-0.5,0.3-0.6c-0.1,0-0.3-0.1-0.4-0.1C29,68,26.5,66.4,25,63.7
													c-1.4-2.6-2-6-0.4-8.7c0.2-0.4,0.7-1,1.2-1.1c-0.2,0-0.4-0.1-0.6-0.1c-1-0.1-2-0.1-2.9-0.1c-0.9-0.1-1.9-0.1-2.8-0.2
													c-6.6-0.4-13.2-0.5-19.8-0.8"/>
											</defs>
											<defs>
												<path id="SVGID_172_" d="M-3.9,59.3c0.1,1.3,0.3,2.7,0.3,4c0,2.1,0.3,4.2,0.5,6.3c0.1,1.3,0.2,2.7,0.2,4
													c0-0.1,3.7-0.3,3.9-0.3c4.2,0,8.3-0.2,12.5-0.2c0.9,0,1.8,0.1,2.7,0c0.7,0,1.4-0.2,2-0.3c0.3,0,1.1,0.1,1.2-0.4
													c0.1-0.2,0-0.4,0.1-0.6c0.5-0.8,1.5-0.8,2.3-0.5c0.3,0.1,0.5,0.4,0.6,0.6c0.1,0.2,0,0.5,0.2,0.6
													c0.2,0.1,0.6,0.1,0.8,0.1c1.7,0,3.3,0.1,5-0.1c0.1,0,0.2,0,0.2,0c0.1-0.1,0.1-0.3,0.2-0.4c0.3-0.4,0.8-0.7,1.3-0.6
													c0.2,0,0.4,0.1,0.6,0.2c0.1,0.1,0.3,0.4,0.2,0.6c0.2,0,0.4,0,0.6,0c0,0,0-0.5,0-0.6c0-0.2,0-0.4,0-0.7
													c0-0.4,0.1-0.7,0.1-1.1c0-0.1,0-0.2,0.1-0.3c0-0.2,0.1-0.5,0.3-0.6c-0.1,0-0.3-0.1-0.4-0.1C29,68,26.5,66.4,25,63.7
													c-1.4-2.6-2-6-0.4-8.7c0.2-0.4,0.7-1,1.2-1.1c-0.2,0-0.4-0.1-0.6-0.1c-1-0.1-2-0.1-2.9-0.1c-0.9-0.1-1.9-0.1-2.8-0.2
													c-6.6-0.4-13.2-0.5-19.8-0.8"/>
											</defs>
											<defs>
												<path id="SVGID_173_" d="M-3.9,59.3c0.1,1.3,0.3,2.7,0.3,4c0,2.1,0.3,4.2,0.5,6.3c0.1,1.3,0.2,2.7,0.2,4
													c0-0.1,3.7-0.3,3.9-0.3c4.2,0,8.3-0.2,12.5-0.2c0.9,0,1.8,0.1,2.7,0c0.7,0,1.4-0.2,2-0.3c0.3,0,1.1,0.1,1.2-0.4
													c0.1-0.2,0-0.4,0.1-0.6c0.5-0.8,1.5-0.8,2.3-0.5c0.3,0.1,0.5,0.4,0.6,0.6c0.1,0.2,0,0.5,0.2,0.6
													c0.2,0.1,0.6,0.1,0.8,0.1c1.7,0,3.3,0.1,5-0.1c0.1,0,0.2,0,0.2,0c0.1-0.1,0.1-0.3,0.2-0.4c0.3-0.4,0.8-0.7,1.3-0.6
													c0.2,0,0.4,0.1,0.6,0.2c0.1,0.1,0.3,0.4,0.2,0.6c0.2,0,0.4,0,0.6,0c0,0,0-0.5,0-0.6c0-0.2,0-0.4,0-0.7
													c0-0.4,0.1-0.7,0.1-1.1c0-0.1,0-0.2,0.1-0.3c0-0.2,0.1-0.5,0.3-0.6c-0.1,0-0.3-0.1-0.4-0.1C29,68,26.5,66.4,25,63.7
													c-1.4-2.6-2-6-0.4-8.7c0.2-0.4,0.7-1,1.2-1.1c-0.2,0-0.4-0.1-0.6-0.1c-1-0.1-2-0.1-2.9-0.1c-0.9-0.1-1.9-0.1-2.8-0.2
													c-6.6-0.4-13.2-0.5-19.8-0.8"/>
											</defs>
											<defs>
												<path id="SVGID_174_" d="M-3.9,59.3c0.1,1.3,0.3,2.7,0.3,4c0,2.1,0.3,4.2,0.5,6.3c0.1,1.3,0.2,2.7,0.2,4
													c0-0.1,3.7-0.3,3.9-0.3c4.2,0,8.3-0.2,12.5-0.2c0.9,0,1.8,0.1,2.7,0c0.7,0,1.4-0.2,2-0.3c0.3,0,1.1,0.1,1.2-0.4
													c0.1-0.2,0-0.4,0.1-0.6c0.5-0.8,1.5-0.8,2.3-0.5c0.3,0.1,0.5,0.4,0.6,0.6c0.1,0.2,0,0.5,0.2,0.6
													c0.2,0.1,0.6,0.1,0.8,0.1c1.7,0,3.3,0.1,5-0.1c0.1,0,0.2,0,0.2,0c0.1-0.1,0.1-0.3,0.2-0.4c0.3-0.4,0.8-0.7,1.3-0.6
													c0.2,0,0.4,0.1,0.6,0.2c0.1,0.1,0.3,0.4,0.2,0.6c0.2,0,0.4,0,0.6,0c0,0,0-0.5,0-0.6c0-0.2,0-0.4,0-0.7
													c0-0.4,0.1-0.7,0.1-1.1c0-0.1,0-0.2,0.1-0.3c0-0.2,0.1-0.5,0.3-0.6c-0.1,0-0.3-0.1-0.4-0.1C29,68,26.5,66.4,25,63.7
													c-1.4-2.6-2-6-0.4-8.7c0.2-0.4,0.7-1,1.2-1.1c-0.2,0-0.4-0.1-0.6-0.1c-1-0.1-2-0.1-2.9-0.1c-0.9-0.1-1.9-0.1-2.8-0.2
													c-6.6-0.4-13.2-0.5-19.8-0.8"/>
											</defs>
											<defs>
												<path id="SVGID_175_" d="M-3.9,59.3c0.1,1.3,0.3,2.7,0.3,4c0,2.1,0.3,4.2,0.5,6.3c0.1,1.3,0.2,2.7,0.2,4
													c0-0.1,3.7-0.3,3.9-0.3c4.2,0,8.3-0.2,12.5-0.2c0.9,0,1.8,0.1,2.7,0c0.7,0,1.4-0.2,2-0.3c0.3,0,1.1,0.1,1.2-0.4
													c0.1-0.2,0-0.4,0.1-0.6c0.5-0.8,1.5-0.8,2.3-0.5c0.3,0.1,0.5,0.4,0.6,0.6c0.1,0.2,0,0.5,0.2,0.6
													c0.2,0.1,0.6,0.1,0.8,0.1c1.7,0,3.3,0.1,5-0.1c0.1,0,0.2,0,0.2,0c0.1-0.1,0.1-0.3,0.2-0.4c0.3-0.4,0.8-0.7,1.3-0.6
													c0.2,0,0.4,0.1,0.6,0.2c0.1,0.1,0.3,0.4,0.2,0.6c0.2,0,0.4,0,0.6,0c0,0,0-0.5,0-0.6c0-0.2,0-0.4,0-0.7
													c0-0.4,0.1-0.7,0.1-1.1c0-0.1,0-0.2,0.1-0.3c0-0.2,0.1-0.5,0.3-0.6c-0.1,0-0.3-0.1-0.4-0.1C29,68,26.5,66.4,25,63.7
													c-1.4-2.6-2-6-0.4-8.7c0.2-0.4,0.7-1,1.2-1.1c-0.2,0-0.4-0.1-0.6-0.1c-1-0.1-2-0.1-2.9-0.1c-0.9-0.1-1.9-0.1-2.8-0.2
													c-6.6-0.4-13.2-0.5-19.8-0.8"/>
											</defs>
											<defs>
												<path id="SVGID_176_" d="M-3.9,59.3c0.1,1.3,0.3,2.7,0.3,4c0,2.1,0.3,4.2,0.5,6.3c0.1,1.3,0.2,2.7,0.2,4
													c0-0.1,3.7-0.3,3.9-0.3c4.2,0,8.3-0.2,12.5-0.2c0.9,0,1.8,0.1,2.7,0c0.7,0,1.4-0.2,2-0.3c0.3,0,1.1,0.1,1.2-0.4
													c0.1-0.2,0-0.4,0.1-0.6c0.5-0.8,1.5-0.8,2.3-0.5c0.3,0.1,0.5,0.4,0.6,0.6c0.1,0.2,0,0.5,0.2,0.6
													c0.2,0.1,0.6,0.1,0.8,0.1c1.7,0,3.3,0.1,5-0.1c0.1,0,0.2,0,0.2,0c0.1-0.1,0.1-0.3,0.2-0.4c0.3-0.4,0.8-0.7,1.3-0.6
													c0.2,0,0.4,0.1,0.6,0.2c0.1,0.1,0.3,0.4,0.2,0.6c0.2,0,0.4,0,0.6,0c0,0,0-0.5,0-0.6c0-0.2,0-0.4,0-0.7
													c0-0.4,0.1-0.7,0.1-1.1c0-0.1,0-0.2,0.1-0.3c0-0.2,0.1-0.5,0.3-0.6c-0.1,0-0.3-0.1-0.4-0.1C29,68,26.5,66.4,25,63.7
													c-1.4-2.6-2-6-0.4-8.7c0.2-0.4,0.7-1,1.2-1.1c-0.2,0-0.4-0.1-0.6-0.1c-1-0.1-2-0.1-2.9-0.1c-0.9-0.1-1.9-0.1-2.8-0.2
													c-6.6-0.4-13.2-0.5-19.8-0.8"/>
											</defs>
											<defs>
												<path id="SVGID_177_" d="M-3.9,59.3c0.1,1.3,0.3,2.7,0.3,4c0,2.1,0.3,4.2,0.5,6.3c0.1,1.3,0.2,2.7,0.2,4
													c0-0.1,3.7-0.3,3.9-0.3c4.2,0,8.3-0.2,12.5-0.2c0.9,0,1.8,0.1,2.7,0c0.7,0,1.4-0.2,2-0.3c0.3,0,1.1,0.1,1.2-0.4
													c0.1-0.2,0-0.4,0.1-0.6c0.5-0.8,1.5-0.8,2.3-0.5c0.3,0.1,0.5,0.4,0.6,0.6c0.1,0.2,0,0.5,0.2,0.6
													c0.2,0.1,0.6,0.1,0.8,0.1c1.7,0,3.3,0.1,5-0.1c0.1,0,0.2,0,0.2,0c0.1-0.1,0.1-0.3,0.2-0.4c0.3-0.4,0.8-0.7,1.3-0.6
													c0.2,0,0.4,0.1,0.6,0.2c0.1,0.1,0.3,0.4,0.2,0.6c0.2,0,0.4,0,0.6,0c0,0,0-0.5,0-0.6c0-0.2,0-0.4,0-0.7
													c0-0.4,0.1-0.7,0.1-1.1c0-0.1,0-0.2,0.1-0.3c0-0.2,0.1-0.5,0.3-0.6c-0.1,0-0.3-0.1-0.4-0.1C29,68,26.5,66.4,25,63.7
													c-1.4-2.6-2-6-0.4-8.7c0.2-0.4,0.7-1,1.2-1.1c-0.2,0-0.4-0.1-0.6-0.1c-1-0.1-2-0.1-2.9-0.1c-0.9-0.1-1.9-0.1-2.8-0.2
													c-6.6-0.4-13.2-0.5-19.8-0.8"/>
											</defs>
											<defs>
												<path id="SVGID_178_" d="M-3.9,59.3c0.1,1.3,0.3,2.7,0.3,4c0,2.1,0.3,4.2,0.5,6.3c0.1,1.3,0.2,2.7,0.2,4
													c0-0.1,3.7-0.3,3.9-0.3c4.2,0,8.3-0.2,12.5-0.2c0.9,0,1.8,0.1,2.7,0c0.7,0,1.4-0.2,2-0.3c0.3,0,1.1,0.1,1.2-0.4
													c0.1-0.2,0-0.4,0.1-0.6c0.5-0.8,1.5-0.8,2.3-0.5c0.3,0.1,0.5,0.4,0.6,0.6c0.1,0.2,0,0.5,0.2,0.6
													c0.2,0.1,0.6,0.1,0.8,0.1c1.7,0,3.3,0.1,5-0.1c0.1,0,0.2,0,0.2,0c0.1-0.1,0.1-0.3,0.2-0.4c0.3-0.4,0.8-0.7,1.3-0.6
													c0.2,0,0.4,0.1,0.6,0.2c0.1,0.1,0.3,0.4,0.2,0.6c0.2,0,0.4,0,0.6,0c0,0,0-0.5,0-0.6c0-0.2,0-0.4,0-0.7
													c0-0.4,0.1-0.7,0.1-1.1c0-0.1,0-0.2,0.1-0.3c0-0.2,0.1-0.5,0.3-0.6c-0.1,0-0.3-0.1-0.4-0.1C29,68,26.5,66.4,25,63.7
													c-1.4-2.6-2-6-0.4-8.7c0.2-0.4,0.7-1,1.2-1.1c-0.2,0-0.4-0.1-0.6-0.1c-1-0.1-2-0.1-2.9-0.1c-0.9-0.1-1.9-0.1-2.8-0.2
													c-6.6-0.4-13.2-0.5-19.8-0.8"/>
											</defs>
											<defs>
												<path id="SVGID_179_" d="M-3.9,59.3c0.1,1.3,0.3,2.7,0.3,4c0,2.1,0.3,4.2,0.5,6.3c0.1,1.3,0.2,2.7,0.2,4
													c0-0.1,3.7-0.3,3.9-0.3c4.2,0,8.3-0.2,12.5-0.2c0.9,0,1.8,0.1,2.7,0c0.7,0,1.4-0.2,2-0.3c0.3,0,1.1,0.1,1.2-0.4
													c0.1-0.2,0-0.4,0.1-0.6c0.5-0.8,1.5-0.8,2.3-0.5c0.3,0.1,0.5,0.4,0.6,0.6c0.1,0.2,0,0.5,0.2,0.6
													c0.2,0.1,0.6,0.1,0.8,0.1c1.7,0,3.3,0.1,5-0.1c0.1,0,0.2,0,0.2,0c0.1-0.1,0.1-0.3,0.2-0.4c0.3-0.4,0.8-0.7,1.3-0.6
													c0.2,0,0.4,0.1,0.6,0.2c0.1,0.1,0.3,0.4,0.2,0.6c0.2,0,0.4,0,0.6,0c0,0,0-0.5,0-0.6c0-0.2,0-0.4,0-0.7
													c0-0.4,0.1-0.7,0.1-1.1c0-0.1,0-0.2,0.1-0.3c0-0.2,0.1-0.5,0.3-0.6c-0.1,0-0.3-0.1-0.4-0.1C29,68,26.5,66.4,25,63.7
													c-1.4-2.6-2-6-0.4-8.7c0.2-0.4,0.7-1,1.2-1.1c-0.2,0-0.4-0.1-0.6-0.1c-1-0.1-2-0.1-2.9-0.1c-0.9-0.1-1.9-0.1-2.8-0.2
													c-6.6-0.4-13.2-0.5-19.8-0.8"/>
											</defs>
											<defs>
												<path id="SVGID_180_" d="M-3.9,59.3c0.1,1.3,0.3,2.7,0.3,4c0,2.1,0.3,4.2,0.5,6.3c0.1,1.3,0.2,2.7,0.2,4
													c0-0.1,3.7-0.3,3.9-0.3c4.2,0,8.3-0.2,12.5-0.2c0.9,0,1.8,0.1,2.7,0c0.7,0,1.4-0.2,2-0.3c0.3,0,1.1,0.1,1.2-0.4
													c0.1-0.2,0-0.4,0.1-0.6c0.5-0.8,1.5-0.8,2.3-0.5c0.3,0.1,0.5,0.4,0.6,0.6c0.1,0.2,0,0.5,0.2,0.6
													c0.2,0.1,0.6,0.1,0.8,0.1c1.7,0,3.3,0.1,5-0.1c0.1,0,0.2,0,0.2,0c0.1-0.1,0.1-0.3,0.2-0.4c0.3-0.4,0.8-0.7,1.3-0.6
													c0.2,0,0.4,0.1,0.6,0.2c0.1,0.1,0.3,0.4,0.2,0.6c0.2,0,0.4,0,0.6,0c0,0,0-0.5,0-0.6c0-0.2,0-0.4,0-0.7
													c0-0.4,0.1-0.7,0.1-1.1c0-0.1,0-0.2,0.1-0.3c0-0.2,0.1-0.5,0.3-0.6c-0.1,0-0.3-0.1-0.4-0.1C29,68,26.5,66.4,25,63.7
													c-1.4-2.6-2-6-0.4-8.7c0.2-0.4,0.7-1,1.2-1.1c-0.2,0-0.4-0.1-0.6-0.1c-1-0.1-2-0.1-2.9-0.1c-0.9-0.1-1.9-0.1-2.8-0.2
													c-6.6-0.4-13.2-0.5-19.8-0.8"/>
											</defs>
											<defs>
												<path id="SVGID_181_" d="M-3.9,59.3c0.1,1.3,0.3,2.7,0.3,4c0,2.1,0.3,4.2,0.5,6.3c0.1,1.3,0.2,2.7,0.2,4
													c0-0.1,3.7-0.3,3.9-0.3c4.2,0,8.3-0.2,12.5-0.2c0.9,0,1.8,0.1,2.7,0c0.7,0,1.4-0.2,2-0.3c0.3,0,1.1,0.1,1.2-0.4
													c0.1-0.2,0-0.4,0.1-0.6c0.5-0.8,1.5-0.8,2.3-0.5c0.3,0.1,0.5,0.4,0.6,0.6c0.1,0.2,0,0.5,0.2,0.6
													c0.2,0.1,0.6,0.1,0.8,0.1c1.7,0,3.3,0.1,5-0.1c0.1,0,0.2,0,0.2,0c0.1-0.1,0.1-0.3,0.2-0.4c0.3-0.4,0.8-0.7,1.3-0.6
													c0.2,0,0.4,0.1,0.6,0.2c0.1,0.1,0.3,0.4,0.2,0.6c0.2,0,0.4,0,0.6,0c0,0,0-0.5,0-0.6c0-0.2,0-0.4,0-0.7
													c0-0.4,0.1-0.7,0.1-1.1c0-0.1,0-0.2,0.1-0.3c0-0.2,0.1-0.5,0.3-0.6c-0.1,0-0.3-0.1-0.4-0.1C29,68,26.5,66.4,25,63.7
													c-1.4-2.6-2-6-0.4-8.7c0.2-0.4,0.7-1,1.2-1.1c-0.2,0-0.4-0.1-0.6-0.1c-1-0.1-2-0.1-2.9-0.1c-0.9-0.1-1.9-0.1-2.8-0.2
													c-6.6-0.4-13.2-0.5-19.8-0.8"/>
											</defs>
											<clipPath id="SVGID_24_">
												<use xlink:href="#SVGID_131_"  overflow="visible"/>
											</clipPath>
											<clipPath id="SVGID_25_" clip-path="url(#SVGID_24_)">
												<use xlink:href="#SVGID_132_"  overflow="visible"/>
											</clipPath>
											<clipPath id="SVGID_26_" clip-path="url(#SVGID_25_)">
												<use xlink:href="#SVGID_133_"  overflow="visible"/>
											</clipPath>
											<clipPath id="SVGID_27_" clip-path="url(#SVGID_26_)">
												<use xlink:href="#SVGID_134_"  overflow="visible"/>
											</clipPath>
											<clipPath id="SVGID_28_" clip-path="url(#SVGID_27_)">
												<use xlink:href="#SVGID_135_"  overflow="visible"/>
											</clipPath>
											<clipPath id="SVGID_29_" clip-path="url(#SVGID_28_)">
												<use xlink:href="#SVGID_136_"  overflow="visible"/>
											</clipPath>
											<clipPath id="SVGID_30_" clip-path="url(#SVGID_29_)">
												<use xlink:href="#SVGID_137_"  overflow="visible"/>
											</clipPath>
											<clipPath id="SVGID_31_" clip-path="url(#SVGID_30_)">
												<use xlink:href="#SVGID_138_"  overflow="visible"/>
											</clipPath>
											<clipPath id="SVGID_32_" clip-path="url(#SVGID_31_)">
												<use xlink:href="#SVGID_139_"  overflow="visible"/>
											</clipPath>
											<clipPath id="SVGID_33_" clip-path="url(#SVGID_32_)">
												<use xlink:href="#SVGID_140_"  overflow="visible"/>
											</clipPath>
											<clipPath id="SVGID_34_" clip-path="url(#SVGID_33_)">
												<use xlink:href="#SVGID_141_"  overflow="visible"/>
											</clipPath>
											<clipPath id="SVGID_35_" clip-path="url(#SVGID_34_)">
												<use xlink:href="#SVGID_142_"  overflow="visible"/>
											</clipPath>
											<clipPath id="SVGID_36_" clip-path="url(#SVGID_35_)">
												<use xlink:href="#SVGID_143_"  overflow="visible"/>
											</clipPath>
											<clipPath id="SVGID_37_" clip-path="url(#SVGID_36_)">
												<use xlink:href="#SVGID_144_"  overflow="visible"/>
											</clipPath>
											<clipPath id="SVGID_38_" clip-path="url(#SVGID_37_)">
												<use xlink:href="#SVGID_145_"  overflow="visible"/>
											</clipPath>
											<clipPath id="SVGID_39_" clip-path="url(#SVGID_38_)">
												<use xlink:href="#SVGID_146_"  overflow="visible"/>
											</clipPath>
											<clipPath id="SVGID_40_" clip-path="url(#SVGID_39_)">
												<use xlink:href="#SVGID_147_"  overflow="visible"/>
											</clipPath>
											<clipPath id="SVGID_41_" clip-path="url(#SVGID_40_)">
												<use xlink:href="#SVGID_148_"  overflow="visible"/>
											</clipPath>
											<clipPath id="SVGID_42_" clip-path="url(#SVGID_41_)">
												<use xlink:href="#SVGID_149_"  overflow="visible"/>
											</clipPath>
											<clipPath id="SVGID_43_" clip-path="url(#SVGID_42_)">
												<use xlink:href="#SVGID_150_"  overflow="visible"/>
											</clipPath>
											<clipPath id="SVGID_44_" clip-path="url(#SVGID_43_)">
												<use xlink:href="#SVGID_151_"  overflow="visible"/>
											</clipPath>
											<clipPath id="SVGID_45_" clip-path="url(#SVGID_44_)">
												<use xlink:href="#SVGID_152_"  overflow="visible"/>
											</clipPath>
											<clipPath id="SVGID_46_" clip-path="url(#SVGID_45_)">
												<use xlink:href="#SVGID_153_"  overflow="visible"/>
											</clipPath>
											<clipPath id="SVGID_47_" clip-path="url(#SVGID_46_)">
												<use xlink:href="#SVGID_154_"  overflow="visible"/>
											</clipPath>
											<clipPath id="SVGID_49_" clip-path="url(#SVGID_47_)">
												<use xlink:href="#SVGID_155_"  overflow="visible"/>
											</clipPath>
											<clipPath id="SVGID_50_" clip-path="url(#SVGID_49_)">
												<use xlink:href="#SVGID_156_"  overflow="visible"/>
											</clipPath>
											<clipPath id="SVGID_51_" clip-path="url(#SVGID_50_)">
												<use xlink:href="#SVGID_157_"  overflow="visible"/>
											</clipPath>
											<clipPath id="SVGID_52_" clip-path="url(#SVGID_51_)">
												<use xlink:href="#SVGID_158_"  overflow="visible"/>
											</clipPath>
											<clipPath id="SVGID_53_" clip-path="url(#SVGID_52_)">
												<use xlink:href="#SVGID_159_"  overflow="visible"/>
											</clipPath>
											<clipPath id="SVGID_54_" clip-path="url(#SVGID_53_)">
												<use xlink:href="#SVGID_160_"  overflow="visible"/>
											</clipPath>
											<clipPath id="SVGID_56_" clip-path="url(#SVGID_54_)">
												<use xlink:href="#SVGID_161_"  overflow="visible"/>
											</clipPath>
											<clipPath id="SVGID_57_" clip-path="url(#SVGID_56_)">
												<use xlink:href="#SVGID_162_"  overflow="visible"/>
											</clipPath>
											<clipPath id="SVGID_58_" clip-path="url(#SVGID_57_)">
												<use xlink:href="#SVGID_163_"  overflow="visible"/>
											</clipPath>
											<clipPath id="SVGID_59_" clip-path="url(#SVGID_58_)">
												<use xlink:href="#SVGID_164_"  overflow="visible"/>
											</clipPath>
											<clipPath id="SVGID_60_" clip-path="url(#SVGID_59_)">
												<use xlink:href="#SVGID_165_"  overflow="visible"/>
											</clipPath>
											<clipPath id="SVGID_61_" clip-path="url(#SVGID_60_)">
												<use xlink:href="#SVGID_166_"  overflow="visible"/>
											</clipPath>
											<clipPath id="SVGID_62_" clip-path="url(#SVGID_61_)">
												<use xlink:href="#SVGID_167_"  overflow="visible"/>
											</clipPath>
											<clipPath id="SVGID_63_" clip-path="url(#SVGID_62_)">
												<use xlink:href="#SVGID_168_"  overflow="visible"/>
											</clipPath>
											<clipPath id="SVGID_64_" clip-path="url(#SVGID_63_)">
												<use xlink:href="#SVGID_169_"  overflow="visible"/>
											</clipPath>
											<clipPath id="SVGID_65_" clip-path="url(#SVGID_64_)">
												<use xlink:href="#SVGID_170_"  overflow="visible"/>
											</clipPath>
											<clipPath id="SVGID_66_" clip-path="url(#SVGID_65_)">
												<use xlink:href="#SVGID_171_"  overflow="visible"/>
											</clipPath>
											<clipPath id="SVGID_67_" clip-path="url(#SVGID_66_)">
												<use xlink:href="#SVGID_172_"  overflow="visible"/>
											</clipPath>
											<clipPath id="SVGID_68_" clip-path="url(#SVGID_67_)">
												<use xlink:href="#SVGID_173_"  overflow="visible"/>
											</clipPath>
											<clipPath id="SVGID_69_" clip-path="url(#SVGID_68_)">
												<use xlink:href="#SVGID_174_"  overflow="visible"/>
											</clipPath>
											<clipPath id="SVGID_70_" clip-path="url(#SVGID_69_)">
												<use xlink:href="#SVGID_175_"  overflow="visible"/>
											</clipPath>
											<clipPath id="SVGID_72_" clip-path="url(#SVGID_70_)">
												<use xlink:href="#SVGID_176_"  overflow="visible"/>
											</clipPath>
											<clipPath id="SVGID_73_" clip-path="url(#SVGID_72_)">
												<use xlink:href="#SVGID_177_"  overflow="visible"/>
											</clipPath>
											<clipPath id="SVGID_75_" clip-path="url(#SVGID_73_)">
												<use xlink:href="#SVGID_178_"  overflow="visible"/>
											</clipPath>
											<clipPath id="SVGID_77_" clip-path="url(#SVGID_75_)">
												<use xlink:href="#SVGID_179_"  overflow="visible"/>
											</clipPath>
											<clipPath id="SVGID_79_" clip-path="url(#SVGID_77_)">
												<use xlink:href="#SVGID_180_"  overflow="visible"/>
											</clipPath>
											<clipPath id="SVGID_81_" clip-path="url(#SVGID_79_)">
												<use xlink:href="#SVGID_181_"  overflow="visible"/>
											</clipPath>
											<path clip-path="url(#SVGID_81_)" fill="#FFFFFF" d="M17.7,54.7c0.1-1.1,0.1-2.2,0.3-3.2c0,0,0.1,0,0.1,0
												c0.1,0.3,0.2,0.6,0.2,0.9c0-0.2,0.1-0.4,0.2-0.6c0.1-0.3,0.6-0.1,0.6,0.2c0.1,0.8-0.2,1.7-0.3,2.6
												c-0.1,0.8-0.1,1.6-0.1,2.4c0,1.3,0.1,2.6,0.1,4c0.1,0.8,0.2,1.5,0.4,2.3c0.3,1.5,0.8,3,1.6,4.3c0.8,1.3,2,2.3,3.1,3.4
												c0.7,0.7,1.3,1.4,1.9,2.2c0.4,0.6,1.3,1.5,1,2.3c-0.1,0.2-0.3,0.3-0.4,0.2c-0.3-0.1-0.4-0.4-0.5-0.6
												c-0.2-0.5-0.4-0.9-0.7-1.3c-0.5-0.8-1.1-1.5-1.8-2.1c-1.1-1.1-2.3-2.1-3.1-3.4c-1.8-2.9-2.1-6.4-2.5-9.8
												C17.7,57,17.6,55.9,17.7,54.7z"/>
											<path clip-path="url(#SVGID_81_)" fill="#FFFFFF" d="M-1.5,50.1C-1.5,50.1-1.4,50.1-1.5,50.1c-0.1,0.8-0.3,1.5-0.3,2.3
												c0,0.9,0.1,1.8,0.2,2.6c0.2,2.2,0.4,4.3,0.7,6.5c0.3,2.4,0.5,4.9,0.8,7.3c0.2,1.2,0.3,2.4,0.6,3.6
												c0.2,1.2,0.5,2.2,0.2,3.3c0,0.1-0.2,0.2-0.3,0.1c-1.4-1.4-1.4-3.6-1.5-5.4c-0.2-2-0.3-4-0.4-6c-0.2-3.6-0.8-7.1-0.9-10.7
												C-2.4,52.8-2.6,50.7-1.5,50.1z"/>
											<path clip-path="url(#SVGID_81_)" fill="#FFFFFF" d="M3.4,53.8c0-1.1,0-2.3,0.4-3.4c0-0.1,0.1,0,0.1,0
												c0.3,1.1,0.3,2.3,0.3,3.4c0,1.1,0,2.3,0.1,3.4c0.1,2.4,0.2,4.7,0.5,7c0.3,2.3,0.8,4.5,1.6,6.7c0.4,1,0.8,2,1.1,3.1
												c0.3,0.8,1,2.2,0.4,2.9c-0.1,0.1-0.3,0.1-0.5,0.1c-0.5-0.3-0.5-0.7-0.6-1.2c-0.1-0.6-0.3-1.1-0.5-1.7c-0.3-1-0.8-2-1.1-3
												c-0.8-2.2-1.2-4.4-1.5-6.7c-0.3-2.3-0.4-4.6-0.4-7C3.3,56.1,3.3,54.9,3.4,53.8z"/>
											<path clip-path="url(#SVGID_81_)" fill="#FFFFFF" d="M8.5,51.8c0.1-0.4,0.3-0.6,0.5-0.9c0,0,0.1,0,0,0
												c-0.1,0.3,0,0.6,0,0.8c0,0.4,0,0.8,0.1,1.1c0.1,0.8,0.3,1.5,0.4,2.3c0.3,1.7,0.3,3.5,0.4,5.3c0.3,3.7,0.6,7.7,2.1,11.1
												c0.4,1,1,1.9,1.5,2.8c0.5,0.8,1.2,1.7,1.4,2.7c0.1,0.3-0.3,0.6-0.6,0.3c-0.6-0.7-1-1.5-1.5-2.2c-0.5-0.8-1-1.7-1.4-2.6
												c-0.8-1.7-1.3-3.6-1.6-5.5c-0.3-1.9-0.5-3.8-0.7-5.7C9,59.4,9,57.5,8.8,55.5c-0.1-0.8-0.2-1.7-0.3-2.5
												C8.5,52.6,8.4,52.2,8.5,51.8z"/>
											<path clip-path="url(#SVGID_81_)" fill="#FFFFFF" d="M13.8,51.3c0-0.1,0.2-0.1,0.3,0c0.4,0.6,0.3,1.6,0.3,2.3
												c0.1,1,0.1,1.9,0.1,2.9c0.1,1.8,0.1,3.7,0.4,5.5c0.4,3.6,1.3,7.4,3.5,10.3c0.3,0.4,2.7,3.1,1.9,3.6
												c-0.4,0.3-0.7-0.5-0.8-0.7c-0.4-0.8-1-1.4-1.5-2.1c-2.2-2.9-3.2-6.3-3.7-9.9c-0.3-2-0.4-4-0.5-6c0-1-0.1-2.1-0.1-3.1
												c0-0.5,0-1,0-1.5C13.7,52,13.7,51.7,13.8,51.3z"/>
											<path clip-path="url(#SVGID_81_)" fill="#FFFFFF" d="M21.7,57.6c0.2-1.1,0.5-2,1-3c0.2-0.4,0.5-0.8,0.7-1.3
												c0.2-0.4,0.2-0.8,0.5-1.1c0.1-0.1,0.2-0.1,0.3,0c0.3,0.6-0.1,1.3-0.3,1.8c-0.3,0.8-0.8,1.5-1.1,2.4
												c-0.6,2-0.6,4.1,0.2,6.1c1.1,3,3.5,6.2,6.7,7.2c0.7,0.2,1.5,0.5,2.2,0.8c0.5,0.2,1.3,0.5,1.5,1c0.2,0.4-0.3,0.8-0.6,0.5
												c-1.1-0.8-2.4-1.2-3.6-1.6c-1.4-0.5-2.5-1.4-3.5-2.5c-1.3-1.4-2.3-3-3.1-4.7C21.5,61.4,21.4,59.6,21.7,57.6z"/>
										</g>
									</g>
								</g>
							</g>
						</g>
					</g>
				</g>
			</g>
		</g>
	</g>
</g>
</svg>
