<?xml version="1.0" encoding="utf-8"?>
<!-- Generator: Adobe Illustrator 21.0.1, SVG Export Plug-In . SVG Version: 6.00 Build 0)  -->
<svg version="1.1" id="Layer_1" xmlns="http://www.w3.org/2000/svg" xmlns:xlink="http://www.w3.org/1999/xlink" x="0px" y="0px"
	 viewBox="0 0 87.3 87.3" style="enable-background:new 0 0 87.3 87.3;" xml:space="preserve">
<style type="text/css">
	.st0{fill:#2CAB9F;}
	.st1{fill:#D8D8D2;}
	.st2{fill:#F2C6A1;}
	.st3{fill:#BC2F3D;}
	.st4{fill:#FECE08;}
	.st5{fill:#F3A27A;}
	.st6{clip-path:url(#SVGID_2_);}
	.st7{fill:#89684D;}
	.st8{fill:#414042;}
	.st9{fill:#EA7E78;}
	.st10{fill:#FFFFFF;}
	.st11{fill:#EE4500;}
	.st12{fill:#FEA708;}
	.st13{fill:url(#SVGID_3_);}
	.st14{fill:#92A9ED;}
	.st15{fill:#5F70AF;}
	.st16{fill:#A3A3A3;}
	.st17{fill:#C1C1C1;}
	.st18{fill:#A3A2A2;}
	.st19{fill:#E7E3E1;}
	.st20{clip-path:url(#SVGID_5_);fill:#BEBBBB;}
	.st21{clip-path:url(#SVGID_7_);fill:#BEBBBB;}
	.st22{clip-path:url(#SVGID_9_);fill:#BEBBBB;}
	.st23{clip-path:url(#SVGID_11_);fill:#BEBBBB;}
	.st24{clip-path:url(#SVGID_13_);fill:#BEBBBB;}
	.st25{clip-path:url(#SVGID_15_);fill:#BEBBBB;}
	.st26{fill:#58595B;}
	.st27{fill:#E2B436;}
	.st28{clip-path:url(#SVGID_17_);}
	.st29{fill:#36313B;}
	.st30{fill:#231E2B;}
	.st31{fill:#47414D;}
	.st32{fill:#273E42;}
	.st33{fill:#355860;}
	.st34{fill:#49727C;}
	.st35{fill:#3B2130;}
	.st36{fill:#5895A5;}
	.st37{fill:#E8BE9B;}
	.st38{fill:#C7936B;}
	.st39{fill:#69ACC4;}
	.st40{fill:#4FAB59;}
	.st41{fill:#915620;}
	.st42{fill:#AD661F;}
	.st43{fill:#A6644B;}
	.st44{fill:#C2751D;}
	.st45{fill:#CF8934;}
	.st46{fill:url(#SVGID_18_);}
	.st47{clip-path:url(#SVGID_20_);}
	.st48{fill:url(#hair_1_);}
	.st49{fill:url(#SVGID_21_);}
	.st50{opacity:0.3;fill:#A55311;enable-background:new    ;}
	.st51{opacity:0.2;fill:#FFA383;enable-background:new    ;}
	.st52{opacity:0.61;fill:#FFB273;enable-background:new    ;}
	.st53{opacity:0.4;fill:#FFB273;enable-background:new    ;}
	.st54{fill:url(#axe_1_);}
	.st55{opacity:0.3;fill:#676E7A;enable-background:new    ;}
	.st56{opacity:0.25;fill:#FFFFFF;enable-background:new    ;}
	.st57{opacity:0.5;fill:#FFFFFF;enable-background:new    ;}
	.st58{fill:#A8B5C1;}
	.st59{opacity:0.35;fill:#FFFFFF;enable-background:new    ;}
	.st60{fill:#FFC19F;}
	.st61{opacity:0.8;fill:#FFC19F;enable-background:new    ;}
	.st62{fill:url(#arm_1_);}
	.st63{opacity:0.6;fill:#FFC19F;enable-background:new    ;}
	.st64{fill:url(#SVGID_22_);}
	.st65{fill:url(#SVGID_23_);}
	.st66{fill:url(#SVGID_24_);}
	.st67{fill:url(#pants_1_);}
	.st68{opacity:0.2;fill:#1D280D;enable-background:new    ;}
	.st69{opacity:0.3;fill:#1D280D;enable-background:new    ;}
	.st70{fill:url(#SVGID_25_);}
	.st71{opacity:0.75;fill:#893700;enable-background:new    ;}
	.st72{fill:url(#SVGID_26_);}
	.st73{fill:url(#SVGID_27_);}
	.st74{fill:url(#SVGID_28_);}
	.st75{fill:url(#arm_2_);}
	.st76{fill:url(#SVGID_29_);}
	.st77{fill:url(#SVGID_30_);}
	.st78{fill:url(#SVGID_31_);}
	.st79{fill:url(#shirt_1_);}
	.st80{opacity:0.15;fill:url(#shadow_1_);enable-background:new    ;}
	.st81{fill:url(#belt_1_);}
	.st82{opacity:0.35;}
	.st83{fill:url(#SVGID_32_);}
	.st84{fill:url(#SVGID_33_);}
	.st85{opacity:0.8;}
	.st86{fill:url(#SVGID_34_);}
	.st87{fill:url(#SVGID_35_);}
	.st88{opacity:0.4;fill:url(#SVGID_36_);enable-background:new    ;}
	.st89{fill:url(#SVGID_37_);}
	.st90{opacity:0.6;fill:#FFEB78;enable-background:new    ;}
	.st91{opacity:0.75;fill:#FFEB78;enable-background:new    ;}
	.st92{fill:url(#SVGID_38_);}
	.st93{fill:url(#SVGID_39_);}
	.st94{fill:url(#SVGID_40_);}
	.st95{opacity:0.4;fill:#BF1604;enable-background:new    ;}
	.st96{fill:#541918;}
	.st97{fill:#9B071C;}
	.st98{fill:#FF2B15;}
	.st99{fill:url(#SVGID_41_);}
	.st100{fill:#A55311;}
	.st101{fill:#471A08;}
	.st102{fill:#FCC79A;}
	.st103{opacity:0.69;fill:#FFD3AB;enable-background:new    ;}
	.st104{fill:url(#SVGID_42_);}
	.st105{fill:url(#SVGID_43_);}
	.st106{fill:url(#SVGID_44_);}
	.st107{opacity:0.25;fill:url(#SVGID_45_);enable-background:new    ;}
	.st108{opacity:0.25;fill:#FC8460;enable-background:new    ;}
	.st109{fill:url(#SVGID_46_);}
	.st110{opacity:0.3;fill:url(#SVGID_47_);enable-background:new    ;}
	.st111{clip-path:url(#SVGID_49_);}
	.st112{fill:url(#SVGID_50_);}
	.st113{fill:url(#axe_2_);}
	.st114{fill:url(#arm_3_);}
	.st115{fill:url(#SVGID_51_);}
	.st116{fill:url(#SVGID_52_);}
	.st117{fill:url(#SVGID_53_);}
	.st118{fill:url(#SVGID_54_);}
	.st119{clip-path:url(#SVGID_56_);}
	.st120{fill:#FCC78C;}
	.st121{fill:url(#SVGID_57_);}
	.st122{fill:#AC7930;}
	.st123{fill:#1A171B;}
	.st124{fill:#EDEDEE;}
	.st125{fill:#939292;}
	.st126{fill:#C7D5DF;}
	.st127{fill:#98B7C9;}
	.st128{fill:url(#SVGID_58_);}
	.st129{fill:url(#SVGID_59_);}
	.st130{fill:url(#SVGID_60_);}
	.st131{fill:url(#SVGID_61_);}
	.st132{fill:url(#SVGID_62_);}
	.st133{fill:url(#SVGID_63_);}
	.st134{fill:url(#SVGID_64_);}
	.st135{fill:url(#SVGID_65_);}
	.st136{fill:url(#SVGID_66_);}
	.st137{fill:url(#SVGID_67_);}
	.st138{fill:url(#SVGID_68_);}
	.st139{fill:#EB3D00;}
	.st140{fill:#835527;}
	.st141{fill:#D0995B;}
	.st142{fill:#E4AC00;}
	.st143{fill:#553F24;}
	.st144{fill:#93723A;}
	.st145{fill:#B9391A;}
	.st146{fill:#D99C09;}
	.st147{fill:#FFCC00;}
	.st148{fill:#9C9D9F;}
	.st149{fill:#B1B3B4;}
	.st150{fill:#C6C7C9;}
	.st151{fill:#D9DADB;}
	.st152{fill:#87888A;}
	.st153{fill:#A65C44;}
	.st154{fill:url(#SVGID_69_);}
	.st155{fill:url(#SVGID_70_);}
	.st156{fill:#2A2C2E;}
	.st157{clip-path:url(#SVGID_72_);}
	.st158{fill:#FFF200;}
	.st159{fill:#FFE300;}
	.st160{fill:#FBB040;}
	.st161{fill:#FC873E;}
	.st162{fill:#FB983F;}
	.st163{fill:url(#SVGID_73_);}
	.st164{fill:#754629;}
	.st165{clip-path:url(#SVGID_75_);fill:#ED1C24;}
	.st166{clip-path:url(#SVGID_77_);fill:#FB983F;}
	.st167{clip-path:url(#SVGID_79_);fill:#FB983F;}
	.st168{clip-path:url(#SVGID_81_);}
	.st169{fill:#ED1C24;}
	.st170{fill:#FEFFFF;}
	.st171{fill:#B3151B;}
	.st172{fill:#ED5C62;}
	.st173{opacity:0.2;fill:#231F20;enable-background:new    ;}
	.st174{opacity:0.4;fill:#231F20;enable-background:new    ;}
	.st175{fill:#424345;}
	.st176{fill:#FFE3C2;}
	.st177{opacity:0.1;fill:#231F20;enable-background:new    ;}
	.st178{fill:#303842;}
	.st179{fill:#363F4A;}
	.st180{clip-path:url(#SVGID_83_);fill:#FFEEDB;}
	.st181{clip-path:url(#SVGID_85_);fill:#2A2C2E;}
	.st182{opacity:0.2;clip-path:url(#SVGID_87_);fill:#231F20;enable-background:new    ;}
	.st183{clip-path:url(#SVGID_89_);}
	.st184{fill:#08E4FF;stroke:#08E4FF;stroke-width:0.1289;stroke-miterlimit:10;}
	.st185{fill:#F5F38E;}
	.st186{fill:#90C53F;}
	.st187{clip-path:url(#SVGID_91_);}
	.st188{fill:#754444;}
	.st189{fill:#5E3636;}
	.st190{fill:#7A5E27;}
	.st191{fill:#D1AB65;}
	.st192{fill:#A78442;}
	.st193{fill:#FCCFA4;}
	.st194{fill:#C78E65;}
	.st195{fill:#DDDDDC;}
	.st196{fill:#3B212A;}
	.st197{fill:#24211D;}
	.st198{fill:#45413F;}
	.st199{fill:#968064;}
	.st200{fill:#706151;}
	.st201{fill:url(#SVGID_92_);}
	.st202{fill:#211D18;}
	.st203{fill:#352E27;}
	.st204{display:none;}
	.st205{display:inline;}
	.st206{fill:#A8A8A7;}
	.st207{fill:#3C3C3B;}
	.st208{fill:#C59221;}
	.st209{fill:#FDC800;}
	.st210{display:inline;fill:#FFFFFF;}
	.st211{fill:#949393;}
	.st212{fill:#DBE8B0;}
	.st213{clip-path:url(#SVGID_94_);}
	.st214{opacity:0.3;fill:#808080;enable-background:new    ;}
	.st215{display:none;fill:#4B4B63;}
	.st216{fill:#4F3927;}
	.st217{fill:#5F442D;}
	.st218{fill:#6C5236;}
	.st219{fill:#976F44;}
	.st220{fill:#AC824E;}
	.st221{fill:#826544;}
	.st222{fill:#6E6E6E;}
	.st223{fill:#595959;}
	.st224{fill:#545454;}
	.st225{fill:#424242;}
	.st226{fill:#9C9C9C;}
	.st227{fill:#6E8091;}
	.st228{fill:#7B8B9B;}
	.st229{opacity:0.25;fill:#696969;enable-background:new    ;}
	.st230{fill:#A4C639;}
	.st231{fill:#FFC639;}
	.st232{fill:#F1A530;}
	.st233{fill:none;}
	.st234{opacity:0.29;fill:#383838;}
	.st235{opacity:0.4;fill:#FFFFFF;enable-background:new    ;}
	.st236{opacity:0.8;fill:#FFFFFF;enable-background:new    ;}
	.st237{fill:#859F25;}
	.st238{fill:#D78507;}
	.st239{fill:#262626;}
	.st240{fill:#BFD773;}
	.st241{fill:#FBDD57;}
	.st242{clip-path:url(#SVGID_96_);fill:#F4B711;}
	.st243{fill:#F4B711;}
	.st244{clip-path:url(#SVGID_98_);fill:#F4B711;}
	.st245{fill:#F4BB3B;}
	.st246{fill:#383838;}
	.st247{fill:#E6E6E6;}
	.st248{fill:#B3B3B3;}
	.st249{fill:#7D7D7D;}
	.st250{fill:#2F2F2F;}
	.st251{fill:#F2D850;}
	.st252{clip-path:url(#SVGID_100_);}
	.st253{fill:#C62B12;}
	.st254{fill:#B3B729;}
	.st255{fill:#A3A321;}
	.st256{fill:#C8D340;}
	.st257{opacity:0.6;fill:#7F7C13;enable-background:new    ;}
	.st258{fill:#F6D88C;}
	.st259{fill:url(#SVGID_101_);}
	.st260{fill:#1D1D1B;}
	.st261{fill:#C96317;}
	.st262{fill:#B74C1D;}
	.st263{fill:#C91111;}
	.st264{fill:#F6F8F9;}
	.st265{fill:#F97450;}
	.st266{fill:#3D8699;}
	.st267{fill:#FC7800;}
	.st268{fill:#7A7A74;}
	.st269{opacity:0.6;fill:#7F2713;enable-background:new    ;}
	.st270{fill:#F5D78B;}
	.st271{fill:#F5D78C;}
	.st272{fill:#F09453;}
	.st273{fill:#EF8E4D;}
	.st274{fill:#F1A15E;}
	.st275{fill:#EF8A4D;}
	.st276{fill:#EF8848;}
	.st277{fill:#F3C078;}
	.st278{fill:#F2B26F;}
	.st279{fill:#F19D5B;}
	.st280{fill:#F1A562;}
	.st281{fill:#F09A58;}
	.st282{fill:#EE7F41;}
	.st283{fill:url(#SVGID_102_);}
	.st284{fill:none;stroke:url(#SVGID_103_);stroke-width:1.9316;stroke-miterlimit:10;}
	.st285{clip-path:url(#SVGID_105_);}
	.st286{fill:#547FA1;}
	.st287{fill:#D0BF90;}
	.st288{fill:#E5D6AC;}
	.st289{fill:#DBC99A;}
	.st290{fill:#DCC6A2;}
	.st291{fill:url(#Кофта_1_);}
	.st292{fill:#FFBD7B;}
	.st293{fill:#CCAF83;}
	.st294{fill:#DBC5A1;}
	.st295{fill:#D3B991;}
	.st296{fill:#3C3022;}
	.st297{fill:url(#SVGID_106_);}
	.st298{fill:#FF9E85;}
	.st299{fill:#292929;}
	.st300{fill:#2C3C53;}
	.st301{fill:none;stroke:url(#SVGID_107_);stroke-width:1.9316;stroke-miterlimit:10;}
	.st302{fill:#FFFFFF;stroke:url(#SVGID_108_);stroke-width:1.9311;stroke-miterlimit:10;}
	.st303{clip-path:url(#SVGID_110_);}
	.st304{fill:#363D67;}
	.st305{fill:#DCA54C;}
	.st306{fill:#FEFEFE;}
	.st307{fill:#F5183F;}
	.st308{fill:#FDCCBB;}
	.st309{fill:#FDFDFC;}
	.st310{fill:#FDFDFB;}
	.st311{fill:#F4183F;}
	.st312{fill:#F31840;}
	.st313{fill:#F4173F;}
	.st314{fill:#DBA44C;}
	.st315{fill:#FCF9F9;}
	.st316{fill:#FCFCFA;}
	.st317{fill:#DAA44C;}
	.st318{fill:#FBF5F6;}
	.st319{fill:#FCF6F6;}
	.st320{fill:#FBFAF7;}
	.st321{fill:#DD1F47;}
	.st322{fill:#FAF5F6;}
	.st323{fill:#CE9D54;}
	.st324{fill:#F8ECEF;}
	.st325{fill:#FCF6F7;}
	.st326{fill:#D5A254;}
	.st327{fill:#727693;}
	.st328{fill:#E91B43;}
	.st329{fill:#F5F5F6;}
	.st330{fill:#AFB6C1;}
	.st331{fill:#D6A14E;}
	.st332{fill:#F7F2F3;}
	.st333{fill:#363C67;}
	.st334{fill:#353C67;}
	.st335{fill:#F31C42;}
	.st336{fill:#EAD2DA;}
	.st337{fill:#DA1E45;}
	.st338{fill:#373E67;}
	.st339{fill:#FCCCB9;}
	.st340{fill:#3D4166;}
	.st341{fill:#FBCBB8;}
	.st342{fill:#F6CAB6;}
	.st343{fill:#FBC3CD;}
	.st344{fill:#FBDCE1;}
	.st345{fill:#ED1D44;}
	.st346{fill:#ECEBEE;}
	.st347{fill:#E1234A;}
	.st348{fill:#DED3DB;}
	.st349{fill:#DD2047;}
	.st350{fill:#D5CCD6;}
	.st351{fill:#F5DDE3;}
	.st352{fill:#383E67;}
</style>
<g>
	<g>
		<g>
			<defs>
				<circle id="SVGID_19_" cx="39.3" cy="-34.1" r="30"/>
			</defs>
			<clipPath id="SVGID_2_">
				<use xlink:href="#SVGID_19_"  style="overflow:visible;"/>
			</clipPath>
			<g id="viking_1_" class="st6">
				<g id="pants_8_">
					
						<linearGradient id="pants_1_" gradientUnits="userSpaceOnUse" x1="402.674" y1="-111.4927" x2="402.674" y2="-89.1597" gradientTransform="matrix(-1 0 0 -1 439.6758 -95.3333)">
						<stop  offset="0" style="stop-color:#0D1700"/>
						<stop  offset="0.3425" style="stop-color:#1D290C"/>
						<stop  offset="1" style="stop-color:#435628"/>
					</linearGradient>
					<path id="pants_9_" class="st67" d="M59.3-1.8c-2.7,5.2-11.7,4.7-13.9,18l-4.3-0.5c0.5-2.6,1.1-8.1,0-9.2c-2-2.1-8.5-3-9.5-2.1
						c-1,0.8,1,9.6,1,9.6l-4.3,0.4C26.6,3.3,14.2-1.2,14.7-6.2C17.5-5.1,39.6,1.7,59.3-1.8z"/>
					<g id="shadows_11_">
						<path class="st68" d="M44.1,5c0,0-3.2,3.6-1.2,10.9l-1.7-0.2c0.5-2.6,1.1-8.1,0-9.2c-2-2.1-8.5-3-9.5-2.1c-1,0.8,1,9.6,1,9.6
							L31.5,14c0.4-4.2-1.1-9.9-2.9-12.6C31.6,3,41,5.2,44.1,5z"/>
						<path class="st69" d="M14.7-6.2c2.8,1.1,24.9,7.9,44.7,4.4c-2.6,5-10.8,4.7-13.5,16.1c0,0,0,0,0,0c0.8-6.1,4-9.5,3-10.7
							C47.6,2,40.9,1.1,39,1.1c-0.6,0-0.9,0.5-1,1.2c-0.8,0.4-5.7-0.4-6.8-0.7c-0.5-0.1-0.3-0.9-1-1.1c-0.9-0.2-5.8-1.2-6.8,0.7
							c-0.6,1.2,3.4,6.8,5,11c-0.1-0.1-0.3-0.1-0.5,0.1C25.2,2.7,14.3-1.5,14.7-6.2z"/>
					</g>
				</g>
				<g id="boots_4_">
					<g>
						
							<linearGradient id="SVGID_3_" gradientUnits="userSpaceOnUse" x1="394.6516" y1="-110.8913" x2="395.2357" y2="-118.6241" gradientTransform="matrix(-1 0 0 -1 439.6758 -95.3333)">
							<stop  offset="0" style="stop-color:#AD3505"/>
							<stop  offset="0.6687" style="stop-color:#7D2303"/>
							<stop  offset="1" style="stop-color:#641902"/>
						</linearGradient>
						<path class="st13" d="M40.2,15.1c0,0,5.5,0.7,5.9,1c0,0-0.6,2.8-0.8,4.1c0.2,0.1,0.3,0.2,0.4,0.3c0.1,0.1,0,0.3-0.1,0.4
							c1.9,1.6,4.1,2.3,3.6,3c-1,0.3-6.7-0.7-9.3-1.4C39.9,21.2,40.1,15.6,40.2,15.1z"/>
						<path class="st71" d="M40.2,15.1c0,0,5.5,0.7,5.9,1c0,0-0.3,1.2-0.5,2.4c-0.6-0.1-3.6,0-5.6,0.4
							C40.1,17.1,40.2,15.4,40.2,15.1z"/>
						
							<linearGradient id="SVGID_5_" gradientUnits="userSpaceOnUse" x1="395.9421" y1="-109.5963" x2="396.3979" y2="-113.1506" gradientTransform="matrix(-1 0 0 -1 439.6758 -95.3333)">
							<stop  offset="0" style="stop-color:#5B1602"/>
							<stop  offset="0.401" style="stop-color:#7D2303"/>
							<stop  offset="1" style="stop-color:#AD3505"/>
						</linearGradient>
						<path style="fill:url(#SVGID_5_);" d="M39.6,14.1c4.2-0.4,8.1,1.4,8.1,1.4c-0.1,0.4-1.3,2.2-1.5,3.2c-1.5-0.5-3.5-1.2-7-1.1
							C39.2,16.6,39.6,15.5,39.6,14.1z"/>
					</g>
					<g>
						
							<linearGradient id="SVGID_7_" gradientUnits="userSpaceOnUse" x1="-1027.3396" y1="-110.565" x2="-1026.7482" y2="-118.3943" gradientTransform="matrix(1 0 0 -1 1056.6094 -95.3333)">
							<stop  offset="0" style="stop-color:#AD3505"/>
							<stop  offset="0.6687" style="stop-color:#7D2303"/>
							<stop  offset="1" style="stop-color:#641902"/>
						</linearGradient>
						<path style="fill:url(#SVGID_7_);" d="M33.4,14.8c0,0-5.5,0.8-5.9,1.1c0,0,1.2,2.9,1.4,4.3c-0.2,0.1-0.3,0.2-0.4,0.3
							c-0.1,0.1,0,0.3,0.1,0.5c-1.9,1.7-3.8,2-3.3,2.7c1,0.3,6.4-0.4,9-1.1C34.4,21.1,33.5,15.4,33.4,14.8z"/>
						<path class="st71" d="M27.5,15.9c0.4-0.3,5.9-1.1,5.9-1.1c0.1,0.3,0.4,2.4,0.7,4.3c-1.9-0.3-4.7-0.9-5.8-1.3
							C27.9,16.7,27.5,15.9,27.5,15.9z"/>
						
							<linearGradient id="SVGID_9_" gradientUnits="userSpaceOnUse" x1="-1026.5363" y1="-108.4802" x2="-1025.9926" y2="-112.7199" gradientTransform="matrix(1 0 0 -1 1056.6094 -95.3333)">
							<stop  offset="0" style="stop-color:#5B1602"/>
							<stop  offset="0.401" style="stop-color:#7D2303"/>
							<stop  offset="1" style="stop-color:#AD3505"/>
						</linearGradient>
						<path style="fill:url(#SVGID_9_);" d="M34.4,14.1c-2.2-0.4-7.1-0.6-8.5-0.3c0.3,1.7,1.1,2.7,1.3,3.8c2.3-0.3,4.1-0.2,7.2-0.1
							C34.4,16.5,34.5,15.5,34.4,14.1z"/>
					</g>
				</g>
				<g id="right_arm_4_">
					
						<linearGradient id="arm_1_" gradientUnits="userSpaceOnUse" x1="382.8188" y1="-73.1308" x2="366.3117" y2="-102.5654" gradientTransform="matrix(-1 0 0 -1 439.6758 -95.3333)">
						<stop  offset="0" style="stop-color:#FF9163"/>
						<stop  offset="0.1186" style="stop-color:#FF9A6E"/>
						<stop  offset="0.4617" style="stop-color:#FFAF89"/>
						<stop  offset="0.7665" style="stop-color:#FFBC99"/>
						<stop  offset="1" style="stop-color:#FFC19F"/>
					</linearGradient>
					<path id="arm_12_" class="st62" d="M58.8-27.3C64.6-23,72.1-15.5,72.5,2.5c0,1-2.8,4.8-4,3.8c-1.5,0.2-2.7-0.5-2.6-1.2
						c-0.6,0.2-2.2,0-2.6-1.3c-0.1-0.3,0.2-0.6,0.5-1.1c-0.2,0.2-0.4,0.2-0.5,0.2c-0.1-0.1-0.7-0.8-0.9-2.3c0-0.6,1.8-2.4,2.6-3.3
						c-0.2-3.2-5.6-9.7-7.4-11.7C57.6-14.3,55.8-24.7,58.8-27.3z"/>
					<g id="shadows_10_">
						<path class="st63" d="M63.4,3c-0.1-0.1-0.7-0.8-0.9-2.3c0-0.2,0.2-0.6,0.6-1l0,0c0,0,0.1-0.1,0.1-0.1l0,0
							c-0.4,0.5-0.6,1.3-0.4,1.4c0,0,0.6,1.3,1.5,0.5c0.5-0.4,0.9-1.1,1-1.2c0.1,0-0.1,0.5,1.1,1c1,0.3,1.7-0.1,1.7-0.1
							c0.1,0.1,0.4,0.9,1.3,1.2c0.7,0.3,1.6-0.1,1.8,0c0,0,0.2,0.6,0.8,0.7c0.3,0,0.5-0.1,0.8-0.6c0,0,0,0,0,0c0,1-2.8,4.8-4,3.8
							c-1.5,0.2-2.7-0.5-2.6-1.2c-0.6,0.2-2.2,0-2.6-1.3c-0.1-0.3,0.2-0.6,0.5-1.1C63.7,3.1,63.4,3.1,63.4,3z"/>
					</g>
				</g>
				<g id="belt_10_">
					<g id="belt_11_">
						
							<linearGradient id="belt_1_" gradientUnits="userSpaceOnUse" x1="379.5938" y1="-92.1036" x2="426.1548" y2="-92.1036" gradientTransform="matrix(-1 0 0 -1 439.6758 -95.3333)">
							<stop  offset="0" style="stop-color:#9F3F08"/>
							<stop  offset="0.1418" style="stop-color:#AD4909"/>
							<stop  offset="0.3683" style="stop-color:#BF560A"/>
							<stop  offset="0.5352" style="stop-color:#C55A0A"/>
							<stop  offset="0.6792" style="stop-color:#BF560A"/>
							<stop  offset="0.8669" style="stop-color:#AF4A09"/>
							<stop  offset="1" style="stop-color:#9F3F08"/>
						</linearGradient>
						<path id="belt_12_" class="st81" d="M60.1-3C59.6-1.6,58,0.4,57,0.9C48.9,2.3,20.1-1,15.1-4c-0.4-0.5-1.6-2.5-1.6-3.8
							C16.5-6.3,49.8-0.8,60.1-3z"/>
						<g class="st82">
							
								<linearGradient id="SVGID_11_" gradientUnits="userSpaceOnUse" x1="379.5938" y1="-94.4758" x2="426.1501" y2="-94.4758" gradientTransform="matrix(-1 0 0 -1 439.6758 -95.3333)">
								<stop  offset="0" style="stop-color:#9F3F08"/>
								<stop  offset="0.1418" style="stop-color:#AD4909"/>
								<stop  offset="0.3683" style="stop-color:#BF560A"/>
								<stop  offset="0.5352" style="stop-color:#C55A0A"/>
								<stop  offset="0.6792" style="stop-color:#BF560A"/>
								<stop  offset="0.8669" style="stop-color:#AF4A09"/>
								<stop  offset="1" style="stop-color:#9F3F08"/>
							</linearGradient>
							<path style="fill:url(#SVGID_11_);" d="M46.2,0.7c0.9-0.1,2.7-0.3,2.5-1.7c-0.1-0.8-0.7-1.3-1.3-1.7
								c5.2,0.3,9.9,0.3,12.7-0.3C59.6-1.6,58,0.4,57,0.9c-3,0.5-8.9,0.4-15.3-0.1C42.4,0.7,45.5,0.7,46.2,0.7z"/>
						</g>
						<g class="st85">
							
								<linearGradient id="SVGID_13_" gradientUnits="userSpaceOnUse" x1="400.3438" y1="-93.7577" x2="403.2748" y2="-93.7577" gradientTransform="matrix(-1 0 0 -1 439.6758 -95.3333)">
								<stop  offset="0" style="stop-color:#9F3F08"/>
								<stop  offset="0.1418" style="stop-color:#AD4909"/>
								<stop  offset="0.3683" style="stop-color:#BF560A"/>
								<stop  offset="0.5352" style="stop-color:#C55A0A"/>
								<stop  offset="0.6792" style="stop-color:#BF560A"/>
								<stop  offset="0.8669" style="stop-color:#AF4A09"/>
								<stop  offset="1" style="stop-color:#9F3F08"/>
							</linearGradient>
							<path style="fill:url(#SVGID_13_);" d="M38.1-1.7c0.1-0.8-0.4-1.5-1-2c0.6,0.1,1.2,0.1,1.7,0.2c0.4,0.6,0.6,1.2,0.5,1.9
								c-0.1,0.8-0.5,1.5-1.1,2.1c-0.6-0.1-1.2-0.1-1.8-0.2C37.3,0,38-0.8,38.1-1.7z"/>
						</g>
						
							<linearGradient id="SVGID_15_" gradientUnits="userSpaceOnUse" x1="400.8063" y1="-93.6937" x2="404.2658" y2="-93.6937" gradientTransform="matrix(-1 0 0 -1 439.6758 -95.3333)">
							<stop  offset="0" style="stop-color:#9F3F08"/>
							<stop  offset="0.1418" style="stop-color:#AD4909"/>
							<stop  offset="0.3683" style="stop-color:#BF560A"/>
							<stop  offset="0.5352" style="stop-color:#C55A0A"/>
							<stop  offset="0.6792" style="stop-color:#BF560A"/>
							<stop  offset="0.8669" style="stop-color:#AF4A09"/>
							<stop  offset="1" style="stop-color:#9F3F08"/>
						</linearGradient>
						<path style="opacity:0.4;fill:url(#SVGID_15_);enable-background:new    ;" d="M36.1-3.8c0.8,0.1,1.5,0.2,2.3,0.3
							C38.7-3,39-2.3,38.8-1.2c-0.1,0.7-0.4,1.3-0.8,1.7c-0.9-0.1-1.7-0.2-2.6-0.3C37.4,0,37.2-3.1,36.1-3.8z"/>
					</g>
					<g id="buckle_5_">
						<g>
							
								<linearGradient id="SVGID_17_" gradientUnits="userSpaceOnUse" x1="403.8626" y1="-90.0837" x2="404.5053" y2="-96.8667" gradientTransform="matrix(-1 0 0 -1 439.6758 -95.3333)">
								<stop  offset="0" style="stop-color:#FED65B"/>
								<stop  offset="0.1988" style="stop-color:#FDCB4F"/>
								<stop  offset="0.5" style="stop-color:#FCBD40"/>
								<stop  offset="1" style="stop-color:#FCB538"/>
							</linearGradient>
							<path style="fill:url(#SVGID_17_);" d="M31.3-2.2c-0.1,1.9,1.6,3.5,3.9,3.7c2.3,0.2,4.3-1.2,4.5-3.1c0.1-1.9-1.6-3.5-3.9-3.7
								C33.4-5.4,31.4-4,31.3-2.2z M32.5-2.1c0.1-1.3,1.5-2.3,3.2-2.2c1.6,0.1,2.9,1.3,2.8,2.6S37,0.6,35.3,0.5
								C33.7,0.4,32.4-0.8,32.5-2.1z"/>
							<path class="st91" d="M38.7-0.5c-1.1,2.6-5.7,2.1-6.3-0.4C34,1.3,36.9,1.3,38.7-0.5z"/>
						</g>
					</g>
				</g>
			</g>
		</g>
	</g>
</g>
<g>
	
		<linearGradient id="SVGID_18_" gradientUnits="userSpaceOnUse" x1="37.7842" y1="-151.858" x2="58.3178" y2="-151.858" gradientTransform="matrix(1 0 0 -1 0 -95.3333)">
		<stop  offset="0" style="stop-color:#54C463"/>
		<stop  offset="1" style="stop-color:#9FC659"/>
	</linearGradient>
	<circle class="st46" cx="39.4" cy="56.5" r="30"/>
	<g>
		<g>
			<defs>
				<circle id="SVGID_55_" cx="39.4" cy="56.5" r="30"/>
			</defs>
			<clipPath id="SVGID_20_">
				<use xlink:href="#SVGID_55_"  style="overflow:visible;"/>
			</clipPath>
			<g class="st47">
				<path class="st120" d="M11.1,79.7c-0.6,0.8-5.8,7.1-1,6.1c0.1,1.4,1.8,3.4,3,1.5c2.4,1.1,3.2,0.4,3.2-2.2
					c2.7-0.9,0.5-3.1-0.5-4.8L11.1,79.7z"/>
				
					<linearGradient id="SVGID_21_" gradientUnits="userSpaceOnUse" x1="60.7373" y1="-160.8271" x2="62.0804" y2="-160.9921" gradientTransform="matrix(1 0 0 -1 0 -95.3333)">
					<stop  offset="0" style="stop-color:#FCC78C"/>
					<stop  offset="1" style="stop-color:#E6AC6A"/>
				</linearGradient>
				<polygon class="st49" points="64.6,65.7 63.6,63.5 58.3,65.6 59.6,67.7 				"/>
				<path class="st122" d="M39.6,74.8l-1-0.1c-4.2,5.1-4,11.3-3.5,18l5-0.4C39,86.3,38.4,80.9,39.6,74.8z"/>
				<path class="st126" d="M38.6,77c2.1,11.1,12.1,14.1,21.1-3.9l-7.9-2c-3.9,11.8-8.3,15.1-11.9,5.7L38.6,77z"/>
				<path class="st127" d="M38.6,77c1.4,7.3,6.1,11.1,11.8,7.8C44.2,86,42.1,84.6,38.6,77L38.6,77z"/>
				<path class="st139" d="M33.7,70.9c-1.7-1-2.8-0.7-4.9,0.1c1.7,1.2,3.3,2.1,4.9,1c0.1,0.2,0.2,0.3,0.4,0.4
					c0.5,0.3,1.1,0.1,1.4-0.4c0.3-0.5,0.1-1.1-0.4-1.4c1-1.8,0.6-2.9-0.3-5c-1.1,1.8-1.9,3.4-0.7,5C34,70.6,33.8,70.7,33.7,70.9z"/>
				<path class="st126" d="M41.2,74.9l-5.3-3C27.1,81.2,25.9,90.4,27,98c3.5,0.4,7.3,0.3,9.7-0.2C35.5,91.7,35,85.1,41.2,74.9z"/>
				<path class="st127" d="M32.8,75.5c-6,8-6.7,15.9-5.8,22.5c1,0.1,2,0.2,3,0.2l0.5-0.1c-1.3-7.9,0.8-13.7,3.1-21.2
					c0.6,2.4,1,5.2,3.1,6.8l-1.3-8.1L32.8,75.5z"/>
				<path class="st122" d="M36.1,72.8l-1.2-0.5c-6.4,4.8-8.8,12.1-10,20.2l6.8,1C32.1,86.1,32.9,79.6,36.1,72.8z"/>
				<path class="st140" d="M35.2,72.4l-0.4-0.1c-6.4,4.8-8.8,12.1-10,20.2l3.4,0.5C28.3,85.6,29.7,77.7,35.2,72.4z"/>
				<path class="st126" d="M35,73.5c-0.4-0.4-0.7-0.8-1.1-1.2c-6.3-6.4-20.8-7.7-23.8,7.7l6.4,1c-0.2-9.4,9.4-11.1,15.5-7.4
					c0.5,0.3,1.2,1,1.8,1C34.7,74.7,35.6,74.2,35,73.5z"/>
				<path class="st120" d="M51,16.4c-7.5-1.9-20.4,4.3-16.5,19.1c1.4,5.2,2.9,14.2,3.1,22.2c-1.1,1.2-1.1,2.3,0,3.4
					c-0.2,4.8-0.9,9-2.7,11.1l4.8,2.6c1.5-1.8,2.7-3.4,3.8-4.9c2.6,0.2,3.1-1.7,2.7-4.6c1.6-3.2,2.8-6.7,4.4-11.8l8.2,1
					C55.8,44.4,52.7,28.5,51,16.4z"/>
				<path class="st141" d="M48.5,39.2c0.5,3.4-1.2,5.8-4.7,3.7C47.3,43.3,47.9,41.8,48.5,39.2z"/>
				<path class="st123" d="M46.8,37.2c-1.2-0.1-2.2,0.7-2.4,1.8c-0.1,1.2,0.7,2.2,1.8,2.4c1.2,0.1,2.2-0.7,2.4-1.8
					C48.8,38.5,47.9,37.4,46.8,37.2z"/>
				<path class="st142" d="M60.4,31.7c-2.6-0.1-5.1-0.3-7.7-0.5c2.3,0.8,4.3,1.3,6.6,1.8c-8.6,1.6-13.1,1-21.6-2.2
					c0,0.1,0.6,21.5-0.4,22.6c-6.9-10.4-6-23.2-3.8-27C43.3,24.7,52.6,24.4,60.4,31.7z"/>
				<path class="st120" d="M38.5,41.6c-6.5-4.2-8.7,5.5-0.2,3.1L38.5,41.6z"/>
				<path class="st143" d="M37.7,26.5c6.3,4.5,9-2.1,12.1-6.1c3.6-4.5,13.2-3.3,13.7,3.2c0.6,7.3-5.3,7.5-10.7,8.2
					C45,31.6,43.8,31,37.7,26.5z"/>
				<path class="st143" d="M53.2,21.1c-0.8-2.2-1.6-5.3-2.8-7.2c-0.9-1.3-2.1-2-3.8-1.5c-2.6,0.8-2,0.8-4.7,0.2
					c-3.2-0.7-7.7-0.3-8.5,4.4l-2.1,12c9,1.8,16,1.6,24-0.3L53.2,21.1z"/>
				<path class="st142" d="M41.1,37.1c3.4,0.6,6.5,1.3,9.7,2.7C50.9,35,42.3,33.4,41.1,37.1z"/>
				<path class="st10" d="M35.1,83.4c-0.2-0.1-0.5,0-0.7,0.2c-0.1,0.2,0,0.5,0.2,0.7c0.2,0.1,0.5,0,0.7-0.2
					C35.4,83.8,35.4,83.5,35.1,83.4z"/>
				<path class="st139" d="M42.2,74.3c-2.7-0.5-4.9-1.7-6.7-3.6c-2.8,3.1-0.2,11,1.2,14.3C39.3,81.6,41.1,78,42.2,74.3z"/>
				<path class="st144" d="M55.1,25.7c-7.8,1.2-15.9,1.5-23.7,0.2l-0.8,3.4c9.2,1.9,16.2,1.5,25.4-0.2L55.1,25.7z"/>
				<path class="st145" d="M36.9,75.9c-0.4,1.9,0.1,7.5,2.1,3.7C37,81.6,36.8,78.5,36.9,75.9z"/>
				<path class="st145" d="M37.5,73.7c-0.2,1.7,0.8,4.4,2.9,2.6C38.3,76.9,37.7,75.1,37.5,73.7z"/>
				<path class="st143" d="M52.8,31.8c-4.4,0.6-9.3,0.6-14,0.4c-4.3-0.2-10.9-0.2-14.5-3.3c-1.8-1.6-2.6-3.7-2.7-5.6
					c-0.1-7.3,19.2-4.7,21.6,0.7C45.5,29.1,45.6,30.6,52.8,31.8z"/>
				<path class="st10" d="M39.7,60.4c1.5,0.1,3.9,0.4,6.8,1.9c-0.9-1.7-4.6-3.2-6.6-3.6C37.1,58.2,36.5,60.1,39.7,60.4z"/>
				<g>
					<path class="st148" d="M65.1,63.3c0.6,1.2,1.3,2.3-0.3,3.3c-1.8,1.1-2.8,0.6-3.9-0.2l0.2-0.4c1,0.6,1.8,1.3,3.4,0.2
						c1.2-0.8,0.8-1.4,0.2-2.6L65.1,63.3z"/>
					<polygon class="st149" points="72.6,51.7 72.3,51.5 71.2,52.1 71.2,52.5 					"/>
					<path class="st150" d="M73,52.9l-9.8,5.7l1,2l9.9-5.7C73.9,54.2,73.5,53.5,73,52.9z"/>
					<path class="st148" d="M63.5,64.1c0.2,0.9,0.4,1.3,1,1.5L64.4,66c-0.9-0.1-1.5-0.6-2-1.5L63.5,64.1z"/>
					<path class="st148" d="M56.9,63.2c-0.3-0.2-0.4-0.5-0.4-0.8c-0.6-0.2-0.8-0.1-1.3,0.1L54.9,62c0.3-0.5,0.9-0.8,1.7-0.6
						c0-0.1,0.1-0.1,0.1-0.2c0.5-0.6,1.3-0.8,1.9-0.3c0.6,0.4,0.6,1.3,0.1,1.9C58.3,63.5,57.5,63.6,56.9,63.2z"/>
					<path class="st151" d="M72.7,51.5l-9.8,5.7l1,2l9.9-5.7C73.5,52.8,73.2,52.1,72.7,51.5z"/>
					<path class="st151" d="M66.3,60.6c-0.9,0.7-0.9,1.7-1,2.9c-1.7,1-3.4,1.7-4,3.1l-4-0.6l-1-1.7c1.8-1.5,1.4-2.6,0.4-3.8l7.2-4.1
						C64.9,57.7,65.6,59.1,66.3,60.6z"/>
					<path class="st149" d="M58.8,60.3l1.5,2.3C59.1,62.3,58.5,61.9,58.8,60.3z"/>
					<path class="st152" d="M58.6,60l1.8,3C60.3,61.8,59.7,60.5,58.6,60z"/>
					<path class="st153" d="M60.9,66.3c-3.3,1.6-1.8,3.5-0.3,6.5c1.1,2.3-0.2,2.6-3.7,2.7c-1.2,0-1.7-0.2-2.2-2.1
						c-0.7-2.6-0.9-6.5,2-9.3l0.8-0.4c1,1.8,1.2,1.9,3.1,2.2L60.9,66.3z"/>
					<path class="st149" d="M64.4,60L62,61.3c-1.4,0.8-2,0.3-0.3-0.6l2.5-1.4L64.4,60z"/>
					<path class="st149" d="M63.1,57.6c0.7,0.7,1.3,1.7,1.7,3.1l-4.2,2.4l-0.4-0.8l0.4,0.4l3.9-2.1C64.3,59.6,63.8,58.6,63.1,57.6z"
						/>
					<polygon class="st149" points="62.3,57.8 58.8,60 59.6,61.5 58.5,59.9 					"/>
					<path class="st153" d="M60.9,66.3c-3.3,1.6-1.8,3.5-0.3,6.5c1.1,2.3-0.2,2.6-3.7,2.7c-1.2,0-1.7-0.2-2.2-2.1
						c-0.1-0.3-0.1-0.5-0.2-0.8c1.5,2.4,4.8,2.5,4.5,0.1c-0.5-3.6-1.6-4.6-0.3-7.2c0,0,0,0,0,0c0.4,0.3,0.9,0.4,1.9,0.5L60.9,66.3z"
						/>
					<path class="st149" d="M63.6,58.4l-2.5,1.4c-1.4,0.8-2,0.3-0.3-0.6l2.5-1.4L63.6,58.4z"/>
				</g>
				
					<linearGradient id="SVGID_22_" gradientUnits="userSpaceOnUse" x1="55.3537" y1="-163.6348" x2="55.3094" y2="-166.17" gradientTransform="matrix(1 0 0 -1 0 -95.3333)">
					<stop  offset="0" style="stop-color:#FCC78C"/>
					<stop  offset="1" style="stop-color:#E6AC6A"/>
				</linearGradient>
				<path class="st64" d="M54.4,72.2c-2.4-0.2-2.5-3.3-1.1-5.8c0.7-1.2,2.3-1.8,3.5-1.5c1.8,0.4,2.4,2.3,0,2.5c-0.8,0.1-1.8,0-2.2,0
					C54.3,69,54.2,70.5,54.4,72.2z"/>
				<path class="st120" d="M59.4,70.1c-1.6-0.2-1.5-2-0.6-2.7c2-1.6,5.6-0.9,3,2.2c1.7,0.4,1.4,2,0.1,3
					C60.6,73.6,57.7,72.3,59.4,70.1z"/>
				
					<linearGradient id="SVGID_23_" gradientUnits="userSpaceOnUse" x1="63.87" y1="-159.7152" x2="64.7696" y2="-159.8257" gradientTransform="matrix(1 0 0 -1 0 -95.3333)">
					<stop  offset="0" style="stop-color:#FCC78C"/>
					<stop  offset="1" style="stop-color:#E6AC6A"/>
				</linearGradient>
				<path class="st65" d="M65.1,65.6c1.1-0.9-0.4-3-1.4-2.3C62.5,64.2,64,66.4,65.1,65.6z"/>
				<path class="st127" d="M19.6,73.6c3.3-2.5,8.5-2.3,12.3,0.1c0.5,0.3,1.2,1,1.8,1c0.2,0,0.4,0,0.6,0
					C29.7,71.1,23.5,68.9,19.6,73.6z"/>
				<path class="st10" d="M52.8,72.6c-0.2-0.1-0.5,0-0.6,0.2c-0.1,0.2,0,0.5,0.2,0.7c0.2,0.1,0.5,0,0.7-0.2
					C53.1,73,53,72.7,52.8,72.6z"/>
				<path class="st10" d="M15.8,79.6c-0.2-0.1-0.5,0-0.6,0.2c-0.1,0.2,0,0.5,0.2,0.7c0.2,0.1,0.5,0,0.6-0.2
					C16.1,80,16,79.7,15.8,79.6z"/>
				<path class="st10" d="M47.3,38.5c-0.3,0-0.6,0.2-0.6,0.5c0,0.3,0.2,0.6,0.5,0.6c0.3,0,0.6-0.2,0.6-0.5
					C47.9,38.9,47.6,38.6,47.3,38.5z"/>
			</g>
		</g>
	</g>
	<path class="st143" d="M37.7,26.5c6.3,4.5,9-2.1,12.1-6.1c3.6-4.5,13.2-3.3,13.7,3.2c0.6,7.3-5.3,7.5-10.7,8.2
		C45,31.6,43.8,31,37.7,26.5z"/>
	<path class="st143" d="M53.2,21.1c-0.8-2.2-1.6-5.3-2.8-7.2c-0.9-1.3-2.1-2-3.8-1.5c-2.6,0.8-2,0.8-4.7,0.2
		c-3.2-0.7-7.7-0.3-8.5,4.4l-2.1,12c9,1.8,16,1.6,24-0.3L53.2,21.1z"/>
	<path class="st144" d="M55.1,25.7c-7.8,1.2-15.9,1.5-23.7,0.2l-0.8,3.4c9.2,1.9,16.2,1.5,25.4-0.2L55.1,25.7z"/>
	<path class="st143" d="M52.8,31.8c-4.4,0.6-9.3,0.6-14,0.4c-4.3-0.2-10.9-0.2-14.5-3.3c-1.8-1.6-2.6-3.7-2.7-5.6
		c-0.1-7.3,19.2-4.7,21.6,0.7C45.5,29.1,45.6,30.6,52.8,31.8z"/>
	<g>
		<path class="st148" d="M65.1,63.3c0.6,1.2,1.3,2.3-0.3,3.3c-1.8,1.1-2.8,0.6-3.9-0.2l0.2-0.4c1,0.6,1.8,1.3,3.4,0.2
			c1.2-0.8,0.8-1.4,0.2-2.6L65.1,63.3z"/>
		<polygon class="st149" points="72.6,51.7 72.3,51.5 71.2,52.1 71.2,52.5 		"/>
		<path class="st150" d="M73,52.9l-9.8,5.7l1,2l9.9-5.7C73.9,54.2,73.5,53.5,73,52.9z"/>
		<path class="st148" d="M63.5,64.1c0.2,0.9,0.4,1.3,1,1.5L64.4,66c-0.9-0.1-1.5-0.6-2-1.5L63.5,64.1z"/>
		<path class="st148" d="M56.9,63.2c-0.3-0.2-0.4-0.5-0.4-0.8c-0.6-0.2-0.8-0.1-1.3,0.1L54.9,62c0.3-0.5,0.9-0.8,1.7-0.6
			c0-0.1,0.1-0.1,0.1-0.2c0.5-0.6,1.3-0.8,1.9-0.3c0.6,0.4,0.6,1.3,0.1,1.9C58.3,63.5,57.5,63.6,56.9,63.2z"/>
		<path class="st151" d="M72.7,51.5l-9.8,5.7l1,2l9.9-5.7C73.5,52.8,73.2,52.1,72.7,51.5z"/>
		<path class="st151" d="M66.3,60.6c-0.9,0.7-0.9,1.7-1,2.9c-1.7,1-3.4,1.7-4,3.1l-4-0.6l-1-1.7c1.8-1.5,1.4-2.6,0.4-3.8l7.2-4.1
			C64.9,57.7,65.6,59.1,66.3,60.6z"/>
		<path class="st149" d="M58.8,60.3l1.5,2.3C59.1,62.3,58.5,61.9,58.8,60.3z"/>
		<path class="st152" d="M58.6,60l1.8,3C60.3,61.8,59.7,60.5,58.6,60z"/>
		<path class="st153" d="M60.9,66.3c-3.3,1.6-1.8,3.5-0.3,6.5c1.1,2.3-0.2,2.6-3.7,2.7c-1.2,0-1.7-0.2-2.2-2.1
			c-0.7-2.6-0.9-6.5,2-9.3l0.8-0.4c1,1.8,1.2,1.9,3.1,2.2L60.9,66.3z"/>
		<path class="st149" d="M64.4,60L62,61.3c-1.4,0.8-2,0.3-0.3-0.6l2.5-1.4L64.4,60z"/>
		<path class="st149" d="M63.1,57.6c0.7,0.7,1.3,1.7,1.7,3.1l-4.2,2.4l-0.4-0.8l0.4,0.4l3.9-2.1C64.3,59.6,63.8,58.6,63.1,57.6z"/>
		<polygon class="st149" points="62.3,57.8 58.8,60 59.6,61.5 58.5,59.9 		"/>
		<path class="st153" d="M60.9,66.3c-3.3,1.6-1.8,3.5-0.3,6.5c1.1,2.3-0.2,2.6-3.7,2.7c-1.2,0-1.7-0.2-2.2-2.1
			c-0.1-0.3-0.1-0.5-0.2-0.8c1.5,2.4,4.8,2.5,4.5,0.1c-0.5-3.6-1.6-4.6-0.3-7.2c0,0,0,0,0,0c0.4,0.3,0.9,0.4,1.9,0.5L60.9,66.3z"/>
		<path class="st149" d="M63.6,58.4l-2.5,1.4c-1.4,0.8-2,0.3-0.3-0.6l2.5-1.4L63.6,58.4z"/>
	</g>
</g>
</svg>
